<svg width="40" height="40" viewBox="0 0 40 40" fill="none" xmlns="http://www.w3.org/2000/svg">
<path d="M15.1333 7.31736C12.3906 6.41214 9.5471 5.84681 6.66666 5.63402C6.33837 5.60583 6.01201 5.70668 5.75684 5.91517C5.50168 6.12365 5.33781 6.42336 5.29999 6.75069C5.2674 7.07989 5.36663 7.40858 5.57594 7.66476C5.78525 7.92093 6.08757 8.08368 6.41666 8.11736C9.10449 8.31206 11.7579 8.83827 14.3167 9.68402C14.6305 9.79232 14.9745 9.77151 15.273 9.62617C15.5715 9.48083 15.8 9.22286 15.9083 8.90902C16.0166 8.59518 15.9958 8.25118 15.8505 7.95268C15.7051 7.65419 15.4472 7.42565 15.1333 7.31736Z" fill="url(#paint0_linear_1004_239)"/>
<path d="M15.1333 13.334C12.3878 12.4424 9.54531 11.8829 6.66666 11.6674C6.33577 11.6394 6.00714 11.7425 5.75153 11.9545C5.49592 12.1665 5.33377 12.4703 5.29999 12.8007C5.2674 13.1299 5.36663 13.4586 5.57594 13.7148C5.78525 13.9709 6.08757 14.1337 6.41666 14.1674C9.10347 14.359 11.7566 14.8796 14.3167 15.7174C14.4732 15.771 14.6387 15.7933 14.8038 15.7829C14.9689 15.7726 15.1303 15.7298 15.2789 15.6571C15.4275 15.5843 15.5603 15.483 15.6697 15.359C15.7791 15.2349 15.863 15.0905 15.9167 14.934C15.9703 14.7775 15.9926 14.612 15.9822 14.4469C15.9719 14.2818 15.9291 14.1204 15.8564 13.9718C15.7836 13.8232 15.6823 13.6904 15.5583 13.581C15.4342 13.4716 15.2898 13.3876 15.1333 13.334Z" fill="url(#paint1_linear_1004_239)"/>
<path d="M15.1333 19.434C12.39 18.534 9.54647 17.9742 6.66666 17.7674C6.3367 17.7437 6.01036 17.8484 5.75572 18.0596C5.50108 18.2707 5.33781 18.5721 5.29999 18.9007C5.2674 19.2299 5.36663 19.5586 5.57594 19.8148C5.78525 20.0709 6.08757 20.2337 6.41666 20.2674C9.10558 20.4539 11.76 20.9803 14.3167 21.834C14.6305 21.9399 14.9735 21.9168 15.2704 21.7699C15.5673 21.6231 15.7937 21.3644 15.9 21.0507C15.9603 20.8945 15.9883 20.7278 15.9821 20.5605C15.9759 20.3932 15.9357 20.2289 15.8639 20.0777C15.7922 19.9264 15.6904 19.7913 15.5648 19.6807C15.4392 19.57 15.2924 19.4861 15.1333 19.434Z" fill="url(#paint2_linear_1004_239)"/>
<path d="M32.5 5.35069C29.6123 5.68312 26.7719 6.34292 24.0333 7.31736C23.7195 7.42565 23.4615 7.65419 23.3162 7.95268C23.1708 8.25118 23.15 8.59518 23.2583 8.90902C23.3666 9.22286 23.5952 9.48083 23.8937 9.62617C24.1921 9.77151 24.5362 9.79232 24.85 9.68402C27.4029 8.76726 30.0542 8.15197 32.75 7.85069C33.0791 7.81701 33.3814 7.65426 33.5907 7.39809C33.8 7.14192 33.8993 6.81322 33.8667 6.48402C33.8329 6.15368 33.6707 5.84981 33.4151 5.63784C33.1595 5.42587 32.8309 5.32275 32.5 5.35069Z" fill="url(#paint3_linear_1004_239)"/>
<path d="M32.5 11.4174C29.6131 11.7263 26.7718 12.3695 24.0333 13.334C23.8779 13.3876 23.7346 13.4714 23.6116 13.5804C23.4885 13.6894 23.3881 13.8215 23.3162 13.9693C23.2442 14.1171 23.2021 14.2777 23.1921 14.4418C23.1822 14.6059 23.2047 14.7703 23.2583 14.9257C23.312 15.0811 23.3957 15.2244 23.5047 15.3475C23.6137 15.4705 23.7459 15.5709 23.8937 15.6428C24.0415 15.7148 24.202 15.757 24.3661 15.7669C24.5302 15.7768 24.6946 15.7543 24.85 15.7007C27.4029 14.7839 30.0542 14.1686 32.75 13.8674C33.0651 13.8172 33.3492 13.6485 33.5439 13.3957C33.7387 13.1429 33.8293 12.8252 33.7974 12.5077C33.7654 12.1902 33.6132 11.8969 33.372 11.688C33.1308 11.4791 32.8188 11.3703 32.5 11.384V11.4174Z" fill="url(#paint4_linear_1004_239)"/>
<path d="M32.5 17.4674C29.6096 17.7838 26.7673 18.444 24.0333 19.434C23.8782 19.4864 23.735 19.5692 23.6122 19.6776C23.4894 19.7859 23.3894 19.9176 23.3181 20.065C23.2467 20.2124 23.2054 20.3725 23.1966 20.536C23.1877 20.6995 23.2116 20.8631 23.2667 21.0174C23.3729 21.3311 23.5994 21.5897 23.8963 21.7366C24.1931 21.8835 24.5361 21.9065 24.85 21.8007C27.4041 20.8947 30.0555 20.2906 32.75 20.0007C33.0651 19.9506 33.3492 19.7818 33.5439 19.529C33.7387 19.2762 33.8293 18.9585 33.7974 18.641C33.7654 18.3235 33.6132 18.0302 33.372 17.8213C33.1308 17.6124 32.8188 17.5037 32.5 17.5174V17.4674Z" fill="url(#paint5_linear_1004_239)"/>
<path d="M25 26.034C25.001 25.8714 24.9629 25.7108 24.889 25.5659C24.8151 25.421 24.7075 25.2959 24.5752 25.2012C24.443 25.1065 24.2899 25.0449 24.1289 25.0216C23.9679 24.9983 23.8037 25.014 23.65 25.0674C23.0667 25.2674 22.5167 25.5007 21.9833 25.7174C21.8617 25.7876 21.7238 25.8245 21.5833 25.8245C21.4429 25.8245 21.3049 25.7876 21.1833 25.7174C21.0697 25.6367 20.9782 25.5288 20.917 25.4036C20.8559 25.2784 20.8271 25.1399 20.8333 25.0007V6.66736C20.8333 5.40069 26.2833 2.76736 36.3 2.48402C36.3994 2.4923 36.4932 2.53333 36.5667 2.60069C36.5987 2.62299 36.6247 2.65299 36.6422 2.68793C36.6597 2.72288 36.6681 2.76165 36.6667 2.80069V22.8007C36.6542 22.8907 36.6072 22.9723 36.5357 23.0282C36.4642 23.0842 36.3737 23.1102 36.2833 23.1007H35.4167C35.0806 23.1136 34.7627 23.2563 34.5296 23.4987C34.2965 23.7411 34.1664 24.0644 34.1667 24.4007C34.1665 24.5626 34.1991 24.7228 34.2625 24.8718C34.326 25.0207 34.4188 25.1553 34.5356 25.2674C34.6524 25.3795 34.7907 25.4668 34.9421 25.5241C35.0935 25.5814 35.2549 25.6074 35.4167 25.6007H36.35C37.0915 25.5921 37.8005 25.2949 38.3264 24.7721C38.8523 24.2493 39.1537 23.5421 39.1667 22.8007V2.80069C39.1682 2.43106 39.0952 2.06493 38.952 1.72416C38.8088 1.38338 38.5984 1.07497 38.3333 0.817357C38.053 0.546741 37.7212 0.335049 37.3577 0.194782C36.9941 0.054516 36.6061 -0.0114803 36.2167 0.00069074C29.8833 0.184024 23.1833 1.41736 20.0833 3.75069C19.9414 3.86429 19.7651 3.92619 19.5833 3.92619C19.4016 3.92619 19.2252 3.86429 19.0833 3.75069C15.9833 1.41736 9.28333 0.184024 2.95 0.00069074C2.56306 -0.0111271 2.17771 0.0550921 1.81692 0.1954C1.45613 0.335708 1.12728 0.547231 0.849995 0.817357C0.57988 1.0755 0.365201 1.38597 0.219059 1.72983C0.0729181 2.0737 -0.00161971 2.44373 -4.82854e-06 2.81736V22.8174C0.0129554 23.5588 0.314388 24.266 0.840294 24.7888C1.3662 25.3116 2.07516 25.6088 2.81666 25.6174C12.8167 25.884 18.3333 28.5174 18.3333 29.8007C18.3333 30.1322 18.465 30.4502 18.6994 30.6846C18.9339 30.919 19.2518 31.0507 19.5833 31.0507C19.9148 31.0507 20.2328 30.919 20.4672 30.6846C20.7016 30.4502 20.8333 30.1322 20.8333 29.8007C20.8333 29.234 21.8833 28.4174 23.9 27.6507C24.2303 27.5315 24.5145 27.3109 24.712 27.0206C24.9095 26.7303 25.0103 26.385 25 26.034ZM18.3333 25.0007C18.3331 25.1401 18.2979 25.2773 18.2309 25.3996C18.1639 25.5219 18.0674 25.6254 17.95 25.7007C17.8284 25.7709 17.6904 25.8079 17.55 25.8079C17.4096 25.8079 17.2716 25.7709 17.15 25.7007C12.5919 23.9724 7.75803 23.0859 2.88333 23.084C2.79299 23.0935 2.7025 23.0676 2.63097 23.0116C2.55944 22.9556 2.51247 22.874 2.49999 22.784V2.78402C2.49859 2.74498 2.507 2.70621 2.52448 2.67127C2.54195 2.63632 2.56792 2.60632 2.59999 2.58402C2.63187 2.54467 2.67273 2.51354 2.71913 2.49324C2.76553 2.47294 2.81612 2.46406 2.86666 2.46736C12.8833 2.78402 18.3333 5.41736 18.3333 6.66736V25.0007Z" fill="url(#paint6_linear_1004_239)"/>
<path d="M35.4167 33.334H32.5C32.279 33.334 32.067 33.2462 31.9107 33.0899C31.7545 32.9337 31.6667 32.7217 31.6667 32.5007V25.4174C31.6667 24.8648 31.4472 24.3349 31.0565 23.9442C30.6658 23.5535 30.1359 23.334 29.5833 23.334C29.0308 23.334 28.5009 23.5535 28.1102 23.9442C27.7195 24.3349 27.5 24.8648 27.5 25.4174V36.2007C27.4987 36.2882 27.4709 36.3732 27.4203 36.4446C27.3697 36.516 27.2987 36.5704 27.2167 36.6007C27.1313 36.6265 27.0399 36.6243 26.9559 36.5943C26.8719 36.5643 26.7997 36.5081 26.75 36.434L25 33.934C24.8589 33.6457 24.6376 33.4043 24.3627 33.2387C24.0877 33.0732 23.7708 32.9905 23.45 33.0007C23.1657 33.0013 22.8857 33.0699 22.6333 33.2007C22.2251 33.4201 21.9194 33.7912 21.7822 34.2339C21.6451 34.6766 21.6873 35.1555 21.9 35.5674L24 39.5507C24.0697 39.6853 24.1749 39.7984 24.3041 39.8777C24.4333 39.957 24.5817 39.9995 24.7333 40.0007H39.1667C39.3877 40.0007 39.5996 39.9129 39.7559 39.7566C39.9122 39.6003 40 39.3884 40 39.1674V38.1674C40.0057 36.9264 39.5323 35.7312 38.6785 34.8307C37.8246 33.9303 36.6561 33.3941 35.4167 33.334Z" fill="url(#paint7_linear_1004_239)"/>
<defs>
<linearGradient id="paint0_linear_1004_239" x1="40" y1="-0.000732422" x2="-0.00137708" y2="39.9993" gradientUnits="userSpaceOnUse">
<stop stop-color="#EB284B"/>
<stop offset="0.0806874" stop-color="#EA284C"/>
<stop offset="0.155366" stop-color="#E9284E"/>
<stop offset="0.22496" stop-color="#E72853"/>
<stop offset="0.290394" stop-color="#E42759"/>
<stop offset="0.352593" stop-color="#E12760"/>
<stop offset="0.41248" stop-color="#DC276A"/>
<stop offset="0.470981" stop-color="#D82674"/>
<stop offset="0.529019" stop-color="#D22680"/>
<stop offset="0.58752" stop-color="#CC258D"/>
<stop offset="0.647407" stop-color="#C5249B"/>
<stop offset="0.709606" stop-color="#BE23AB"/>
<stop offset="0.77504" stop-color="#B623BB"/>
<stop offset="0.844634" stop-color="#AE22CD"/>
<stop offset="0.919313" stop-color="#A621DF"/>
<stop offset="1" stop-color="#9D20F2"/>
</linearGradient>
<linearGradient id="paint1_linear_1004_239" x1="40" y1="-0.000732422" x2="-0.00137708" y2="39.9993" gradientUnits="userSpaceOnUse">
<stop stop-color="#EB284B"/>
<stop offset="0.0806874" stop-color="#EA284C"/>
<stop offset="0.155366" stop-color="#E9284E"/>
<stop offset="0.22496" stop-color="#E72853"/>
<stop offset="0.290394" stop-color="#E42759"/>
<stop offset="0.352593" stop-color="#E12760"/>
<stop offset="0.41248" stop-color="#DC276A"/>
<stop offset="0.470981" stop-color="#D82674"/>
<stop offset="0.529019" stop-color="#D22680"/>
<stop offset="0.58752" stop-color="#CC258D"/>
<stop offset="0.647407" stop-color="#C5249B"/>
<stop offset="0.709606" stop-color="#BE23AB"/>
<stop offset="0.77504" stop-color="#B623BB"/>
<stop offset="0.844634" stop-color="#AE22CD"/>
<stop offset="0.919313" stop-color="#A621DF"/>
<stop offset="1" stop-color="#9D20F2"/>
</linearGradient>
<linearGradient id="paint2_linear_1004_239" x1="40" y1="-0.000732422" x2="-0.00137708" y2="39.9993" gradientUnits="userSpaceOnUse">
<stop stop-color="#EB284B"/>
<stop offset="0.0806874" stop-color="#EA284C"/>
<stop offset="0.155366" stop-color="#E9284E"/>
<stop offset="0.22496" stop-color="#E72853"/>
<stop offset="0.290394" stop-color="#E42759"/>
<stop offset="0.352593" stop-color="#E12760"/>
<stop offset="0.41248" stop-color="#DC276A"/>
<stop offset="0.470981" stop-color="#D82674"/>
<stop offset="0.529019" stop-color="#D22680"/>
<stop offset="0.58752" stop-color="#CC258D"/>
<stop offset="0.647407" stop-color="#C5249B"/>
<stop offset="0.709606" stop-color="#BE23AB"/>
<stop offset="0.77504" stop-color="#B623BB"/>
<stop offset="0.844634" stop-color="#AE22CD"/>
<stop offset="0.919313" stop-color="#A621DF"/>
<stop offset="1" stop-color="#9D20F2"/>
</linearGradient>
<linearGradient id="paint3_linear_1004_239" x1="40" y1="-0.000732422" x2="-0.00137708" y2="39.9993" gradientUnits="userSpaceOnUse">
<stop stop-color="#EB284B"/>
<stop offset="0.0806874" stop-color="#EA284C"/>
<stop offset="0.155366" stop-color="#E9284E"/>
<stop offset="0.22496" stop-color="#E72853"/>
<stop offset="0.290394" stop-color="#E42759"/>
<stop offset="0.352593" stop-color="#E12760"/>
<stop offset="0.41248" stop-color="#DC276A"/>
<stop offset="0.470981" stop-color="#D82674"/>
<stop offset="0.529019" stop-color="#D22680"/>
<stop offset="0.58752" stop-color="#CC258D"/>
<stop offset="0.647407" stop-color="#C5249B"/>
<stop offset="0.709606" stop-color="#BE23AB"/>
<stop offset="0.77504" stop-color="#B623BB"/>
<stop offset="0.844634" stop-color="#AE22CD"/>
<stop offset="0.919313" stop-color="#A621DF"/>
<stop offset="1" stop-color="#9D20F2"/>
</linearGradient>
<linearGradient id="paint4_linear_1004_239" x1="40" y1="-0.000732422" x2="-0.00137708" y2="39.9993" gradientUnits="userSpaceOnUse">
<stop stop-color="#EB284B"/>
<stop offset="0.0806874" stop-color="#EA284C"/>
<stop offset="0.155366" stop-color="#E9284E"/>
<stop offset="0.22496" stop-color="#E72853"/>
<stop offset="0.290394" stop-color="#E42759"/>
<stop offset="0.352593" stop-color="#E12760"/>
<stop offset="0.41248" stop-color="#DC276A"/>
<stop offset="0.470981" stop-color="#D82674"/>
<stop offset="0.529019" stop-color="#D22680"/>
<stop offset="0.58752" stop-color="#CC258D"/>
<stop offset="0.647407" stop-color="#C5249B"/>
<stop offset="0.709606" stop-color="#BE23AB"/>
<stop offset="0.77504" stop-color="#B623BB"/>
<stop offset="0.844634" stop-color="#AE22CD"/>
<stop offset="0.919313" stop-color="#A621DF"/>
<stop offset="1" stop-color="#9D20F2"/>
</linearGradient>
<linearGradient id="paint5_linear_1004_239" x1="40" y1="-0.000732422" x2="-0.00137708" y2="39.9993" gradientUnits="userSpaceOnUse">
<stop stop-color="#EB284B"/>
<stop offset="0.0806874" stop-color="#EA284C"/>
<stop offset="0.155366" stop-color="#E9284E"/>
<stop offset="0.22496" stop-color="#E72853"/>
<stop offset="0.290394" stop-color="#E42759"/>
<stop offset="0.352593" stop-color="#E12760"/>
<stop offset="0.41248" stop-color="#DC276A"/>
<stop offset="0.470981" stop-color="#D82674"/>
<stop offset="0.529019" stop-color="#D22680"/>
<stop offset="0.58752" stop-color="#CC258D"/>
<stop offset="0.647407" stop-color="#C5249B"/>
<stop offset="0.709606" stop-color="#BE23AB"/>
<stop offset="0.77504" stop-color="#B623BB"/>
<stop offset="0.844634" stop-color="#AE22CD"/>
<stop offset="0.919313" stop-color="#A621DF"/>
<stop offset="1" stop-color="#9D20F2"/>
</linearGradient>
<linearGradient id="paint6_linear_1004_239" x1="40" y1="-0.000732422" x2="-0.00137708" y2="39.9993" gradientUnits="userSpaceOnUse">
<stop stop-color="#EB284B"/>
<stop offset="0.0806874" stop-color="#EA284C"/>
<stop offset="0.155366" stop-color="#E9284E"/>
<stop offset="0.22496" stop-color="#E72853"/>
<stop offset="0.290394" stop-color="#E42759"/>
<stop offset="0.352593" stop-color="#E12760"/>
<stop offset="0.41248" stop-color="#DC276A"/>
<stop offset="0.470981" stop-color="#D82674"/>
<stop offset="0.529019" stop-color="#D22680"/>
<stop offset="0.58752" stop-color="#CC258D"/>
<stop offset="0.647407" stop-color="#C5249B"/>
<stop offset="0.709606" stop-color="#BE23AB"/>
<stop offset="0.77504" stop-color="#B623BB"/>
<stop offset="0.844634" stop-color="#AE22CD"/>
<stop offset="0.919313" stop-color="#A621DF"/>
<stop offset="1" stop-color="#9D20F2"/>
</linearGradient>
<linearGradient id="paint7_linear_1004_239" x1="40" y1="-0.000732422" x2="-0.00137708" y2="39.9993" gradientUnits="userSpaceOnUse">
<stop stop-color="#EB284B"/>
<stop offset="0.0806874" stop-color="#EA284C"/>
<stop offset="0.155366" stop-color="#E9284E"/>
<stop offset="0.22496" stop-color="#E72853"/>
<stop offset="0.290394" stop-color="#E42759"/>
<stop offset="0.352593" stop-color="#E12760"/>
<stop offset="0.41248" stop-color="#DC276A"/>
<stop offset="0.470981" stop-color="#D82674"/>
<stop offset="0.529019" stop-color="#D22680"/>
<stop offset="0.58752" stop-color="#CC258D"/>
<stop offset="0.647407" stop-color="#C5249B"/>
<stop offset="0.709606" stop-color="#BE23AB"/>
<stop offset="0.77504" stop-color="#B623BB"/>
<stop offset="0.844634" stop-color="#AE22CD"/>
<stop offset="0.919313" stop-color="#A621DF"/>
<stop offset="1" stop-color="#9D20F2"/>
</linearGradient>
</defs>
</svg>
