<svg width="30" height="40" viewBox="0 0 30 40" fill="none" xmlns="http://www.w3.org/2000/svg">
<path d="M0 35.1C0.0261787 36.4087 0.564497 37.6549 1.49936 38.5711C2.43422 39.4872 3.69106 40.0003 5 40H26.6667C27.5507 40 28.3986 39.6488 29.0237 39.0237C29.6488 38.3986 30 37.5507 30 36.6667V9.85C30 8.96594 29.6488 8.1181 29.0237 7.49298C28.3986 6.86786 27.5507 6.51667 26.6667 6.51667H5C4.58277 6.51836 4.18009 6.3635 3.8715 6.08269C3.56292 5.80188 3.37088 5.41554 3.33333 5C3.33333 4.55797 3.50893 4.13405 3.82149 3.82149C4.13405 3.50893 4.55797 3.33333 5 3.33333H27.4833C27.9254 3.33333 28.3493 3.15774 28.6618 2.84518C28.9744 2.53262 29.15 2.10869 29.15 1.66667C29.15 1.22464 28.9744 0.800716 28.6618 0.488155C28.3493 0.175595 27.9254 0 27.4833 0L5 0C3.67392 0 2.40215 0.526784 1.46447 1.46447C0.526784 2.40215 0 3.67392 0 5V35.1ZM15.8333 24.4333H22.5C22.8315 24.4333 23.1495 24.565 23.3839 24.7994C23.6183 25.0339 23.75 25.3518 23.75 25.6833C23.75 26.0149 23.6183 26.3328 23.3839 26.5672C23.1495 26.8016 22.8315 26.9333 22.5 26.9333H15.8333C15.5018 26.9333 15.1839 26.8016 14.9495 26.5672C14.715 26.3328 14.5833 26.0149 14.5833 25.6833C14.5833 25.3518 14.715 25.0339 14.9495 24.7994C15.1839 24.565 15.5018 24.4333 15.8333 24.4333ZM7.5 18.2333C7.31706 17.9944 7.22649 17.6974 7.24492 17.397C7.26334 17.0966 7.38953 16.8129 7.60031 16.5981C7.81109 16.3833 8.0923 16.2517 8.39229 16.2276C8.69228 16.2034 8.99091 16.2883 9.23333 16.4667L13.4 20.6333C13.5179 20.7482 13.6117 20.8856 13.6756 21.0373C13.7396 21.189 13.7726 21.352 13.7726 21.5167C13.7726 21.6813 13.7396 21.8443 13.6756 21.996C13.6117 22.1477 13.5179 22.2851 13.4 22.4L9.23333 26.5667C9.11972 26.6859 8.98247 26.7801 8.83036 26.8432C8.67826 26.9064 8.51465 26.937 8.35 26.9333C8.18577 26.9341 8.02303 26.9021 7.87134 26.8391C7.71966 26.7761 7.58207 26.6835 7.46667 26.5667C7.23258 26.3323 7.1011 26.0146 7.1011 25.6833C7.1011 25.3521 7.23258 25.0344 7.46667 24.8L10.4667 21.8167C10.5393 21.7369 10.5795 21.6329 10.5795 21.525C10.5795 21.4171 10.5393 21.3131 10.4667 21.2333L7.5 18.2333Z" fill="url(#paint0_linear_871_1194)"/>
<defs>
<linearGradient id="paint0_linear_871_1194" x1="30" y1="0" x2="-8.4" y2="28.8" gradientUnits="userSpaceOnUse">
<stop stop-color="#EB284B"/>
<stop offset="0.0806874" stop-color="#EA284C"/>
<stop offset="0.155366" stop-color="#E9284E"/>
<stop offset="0.22496" stop-color="#E72853"/>
<stop offset="0.290394" stop-color="#E42759"/>
<stop offset="0.352593" stop-color="#E12760"/>
<stop offset="0.41248" stop-color="#DC276A"/>
<stop offset="0.470981" stop-color="#D82674"/>
<stop offset="0.529019" stop-color="#D22680"/>
<stop offset="0.58752" stop-color="#CC258D"/>
<stop offset="0.647407" stop-color="#C5249B"/>
<stop offset="0.709606" stop-color="#BE23AB"/>
<stop offset="0.77504" stop-color="#B623BB"/>
<stop offset="0.844634" stop-color="#AE22CD"/>
<stop offset="0.919313" stop-color="#A621DF"/>
<stop offset="1" stop-color="#9D20F2"/>
</linearGradient>
</defs>
</svg>
