<svg width="40" height="40" viewBox="0 0 40 40" fill="none" xmlns="http://www.w3.org/2000/svg">
<path d="M0 32.0833C0 33.4094 0.526784 34.6811 1.46447 35.6188C2.40215 36.5565 3.67392 37.0833 5 37.0833H35C36.3261 37.0833 37.5979 36.5565 38.5355 35.6188C39.4732 34.6811 40 33.4094 40 32.0833V7.91663C40 6.59054 39.4732 5.31877 38.5355 4.38109C37.5979 3.44341 36.3261 2.91663 35 2.91663H5C3.67392 2.91663 2.40215 3.44341 1.46447 4.38109C0.526784 5.31877 0 6.59054 0 7.91663V32.0833ZM24.1667 7.08329C24.1586 7.3783 24.0723 7.66588 23.9167 7.91663C23.7672 8.15781 23.5586 8.35684 23.3107 8.49486C23.0628 8.63288 22.7837 8.70532 22.5 8.70532C22.2163 8.70532 21.9372 8.63288 21.6893 8.49486C21.4414 8.35684 21.2328 8.15781 21.0833 7.91663C20.9206 7.66916 20.8339 7.37947 20.8339 7.08329C20.8339 6.78712 20.9206 6.49742 21.0833 6.24996C21.2328 6.00878 21.4414 5.80975 21.6893 5.67173C21.9372 5.53371 22.2163 5.46126 22.5 5.46126C22.7837 5.46126 23.0628 5.53371 23.3107 5.67173C23.5586 5.80975 23.7672 6.00878 23.9167 6.24996C24.0723 6.5007 24.1586 6.78828 24.1667 7.08329ZM30 7.08329C29.9919 7.3783 29.9056 7.66588 29.75 7.91663C29.6005 8.15781 29.392 8.35684 29.144 8.49486C28.8961 8.63288 28.6171 8.70532 28.3333 8.70532C28.0496 8.70532 27.7705 8.63288 27.5226 8.49486C27.2747 8.35684 27.0661 8.15781 26.9167 7.91663C26.7539 7.66916 26.6672 7.37947 26.6672 7.08329C26.6672 6.78712 26.7539 6.49742 26.9167 6.24996C27.0661 6.00878 27.2747 5.80975 27.5226 5.67173C27.7705 5.53371 28.0496 5.46126 28.3333 5.46126C28.6171 5.46126 28.8961 5.53371 29.144 5.67173C29.392 5.80975 29.6005 6.00878 29.75 6.24996C29.9056 6.5007 29.9919 6.78828 30 7.08329ZM35.8333 7.08329C35.8252 7.3783 35.739 7.66588 35.5833 7.91663C35.4339 8.15781 35.2253 8.35684 34.9774 8.49486C34.7295 8.63288 34.4504 8.70532 34.1667 8.70532C33.8829 8.70532 33.6039 8.63288 33.356 8.49486C33.108 8.35684 32.8995 8.15781 32.75 7.91663C32.5873 7.66916 32.5005 7.37947 32.5005 7.08329C32.5005 6.78712 32.5873 6.49742 32.75 6.24996C32.9059 5.99205 33.1287 5.78122 33.3949 5.63991C33.6611 5.49861 33.9606 5.43211 34.2615 5.4475C34.5625 5.46289 34.8536 5.55959 35.104 5.72731C35.3544 5.89503 35.5546 6.12749 35.6833 6.39996C35.7759 6.61625 35.8268 6.8481 35.8333 7.08329ZM3.33333 11.6666C3.33333 11.5561 3.37723 11.4501 3.45537 11.372C3.53351 11.2939 3.63949 11.25 3.75 11.25H36.25C36.3605 11.25 36.4665 11.2939 36.5446 11.372C36.6228 11.4501 36.6667 11.5561 36.6667 11.6666V32.0833C36.6667 32.5253 36.4911 32.9492 36.1785 33.2618C35.866 33.5744 35.442 33.75 35 33.75H5C4.55797 33.75 4.13405 33.5744 3.82149 33.2618C3.50893 32.9492 3.33333 32.5253 3.33333 32.0833V11.6666Z" fill="url(#paint0_linear_1049_549)"/>
<path d="M11.3167 27.4333C11.4716 27.5895 11.6559 27.7135 11.859 27.7981C12.0621 27.8827 12.28 27.9263 12.5 27.9263C12.72 27.9263 12.9379 27.8827 13.141 27.7981C13.3441 27.7135 13.5284 27.5895 13.6833 27.4333L17.85 23.2666C18.0062 23.1117 18.1302 22.9274 18.2148 22.7243C18.2994 22.5212 18.343 22.3033 18.343 22.0833C18.343 21.8633 18.2994 21.6454 18.2148 21.4423C18.1302 21.2392 18.0062 21.0549 17.85 20.9L13.6833 16.6666C13.5279 16.5112 13.3435 16.388 13.1404 16.3039C12.9374 16.2198 12.7198 16.1765 12.5 16.1765C12.2802 16.1765 12.0626 16.2198 11.8596 16.3039C11.6565 16.388 11.4721 16.5112 11.3167 16.6666C11.1613 16.822 11.038 17.0065 10.9539 17.2095C10.8698 17.4126 10.8265 17.6302 10.8265 17.85C10.8265 18.0697 10.8698 18.2873 10.9539 18.4904C11.038 18.6934 11.1613 18.8779 11.3167 19.0333L14.0167 21.7166C14.057 21.7555 14.0891 21.8021 14.111 21.8536C14.1329 21.9052 14.1442 21.9606 14.1442 22.0166C14.1442 22.0726 14.1329 22.1281 14.111 22.1796C14.0891 22.2312 14.057 22.2778 14.0167 22.3166L11.3167 25C11.1501 25.1559 11.0174 25.3443 10.9267 25.5536C10.8359 25.7628 10.7891 25.9885 10.7891 26.2166C10.7891 26.4447 10.8359 26.6704 10.9267 26.8797C11.0174 27.089 11.1501 27.2774 11.3167 27.4333Z" fill="url(#paint1_linear_1049_549)"/>
<path d="M21.6667 27.9166H28.3333C28.7754 27.9166 29.1993 27.741 29.5118 27.4285C29.8244 27.1159 30 26.692 30 26.25C30 25.8079 29.8244 25.384 29.5118 25.0714C29.1993 24.7589 28.7754 24.5833 28.3333 24.5833H21.6667C21.2246 24.5833 20.8007 24.7589 20.4882 25.0714C20.1756 25.384 20 25.8079 20 26.25C20 26.692 20.1756 27.1159 20.4882 27.4285C20.8007 27.741 21.2246 27.9166 21.6667 27.9166Z" fill="url(#paint2_linear_1049_549)"/>
<defs>
<linearGradient id="paint0_linear_1049_549" x1="40" y1="2.91663" x2="6.25345" y2="42.4248" gradientUnits="userSpaceOnUse">
<stop stop-color="#EB284B"/>
<stop offset="0.0806874" stop-color="#EA284C"/>
<stop offset="0.155366" stop-color="#E9284E"/>
<stop offset="0.22496" stop-color="#E72853"/>
<stop offset="0.290394" stop-color="#E42759"/>
<stop offset="0.352593" stop-color="#E12760"/>
<stop offset="0.41248" stop-color="#DC276A"/>
<stop offset="0.470981" stop-color="#D82674"/>
<stop offset="0.529019" stop-color="#D22680"/>
<stop offset="0.58752" stop-color="#CC258D"/>
<stop offset="0.647407" stop-color="#C5249B"/>
<stop offset="0.709606" stop-color="#BE23AB"/>
<stop offset="0.77504" stop-color="#B623BB"/>
<stop offset="0.844634" stop-color="#AE22CD"/>
<stop offset="0.919313" stop-color="#A621DF"/>
<stop offset="1" stop-color="#9D20F2"/>
</linearGradient>
<linearGradient id="paint1_linear_1049_549" x1="40" y1="2.91663" x2="6.25345" y2="42.4248" gradientUnits="userSpaceOnUse">
<stop stop-color="#EB284B"/>
<stop offset="0.0806874" stop-color="#EA284C"/>
<stop offset="0.155366" stop-color="#E9284E"/>
<stop offset="0.22496" stop-color="#E72853"/>
<stop offset="0.290394" stop-color="#E42759"/>
<stop offset="0.352593" stop-color="#E12760"/>
<stop offset="0.41248" stop-color="#DC276A"/>
<stop offset="0.470981" stop-color="#D82674"/>
<stop offset="0.529019" stop-color="#D22680"/>
<stop offset="0.58752" stop-color="#CC258D"/>
<stop offset="0.647407" stop-color="#C5249B"/>
<stop offset="0.709606" stop-color="#BE23AB"/>
<stop offset="0.77504" stop-color="#B623BB"/>
<stop offset="0.844634" stop-color="#AE22CD"/>
<stop offset="0.919313" stop-color="#A621DF"/>
<stop offset="1" stop-color="#9D20F2"/>
</linearGradient>
<linearGradient id="paint2_linear_1049_549" x1="40" y1="2.91663" x2="6.25345" y2="42.4248" gradientUnits="userSpaceOnUse">
<stop stop-color="#EB284B"/>
<stop offset="0.0806874" stop-color="#EA284C"/>
<stop offset="0.155366" stop-color="#E9284E"/>
<stop offset="0.22496" stop-color="#E72853"/>
<stop offset="0.290394" stop-color="#E42759"/>
<stop offset="0.352593" stop-color="#E12760"/>
<stop offset="0.41248" stop-color="#DC276A"/>
<stop offset="0.470981" stop-color="#D82674"/>
<stop offset="0.529019" stop-color="#D22680"/>
<stop offset="0.58752" stop-color="#CC258D"/>
<stop offset="0.647407" stop-color="#C5249B"/>
<stop offset="0.709606" stop-color="#BE23AB"/>
<stop offset="0.77504" stop-color="#B623BB"/>
<stop offset="0.844634" stop-color="#AE22CD"/>
<stop offset="0.919313" stop-color="#A621DF"/>
<stop offset="1" stop-color="#9D20F2"/>
</linearGradient>
</defs>
</svg>
