<svg width="40" height="40" viewBox="0 0 40 40" fill="none" xmlns="http://www.w3.org/2000/svg">
<path d="M14.6667 22.7167H13.6333C13.5212 22.7166 13.4135 22.7599 13.3327 22.8376C13.2519 22.9153 13.2043 23.0213 13.2 23.1333V25.2167C13.2043 25.3287 13.2519 25.4347 13.3327 25.5124C13.4135 25.5901 13.5212 25.6334 13.6333 25.6333H14.6667C14.8713 25.6552 15.0782 25.6338 15.274 25.5705C15.4698 25.5072 15.6501 25.4034 15.8031 25.2659C15.9562 25.1283 16.0786 24.9601 16.1624 24.7722C16.2462 24.5842 16.2895 24.3808 16.2895 24.175C16.2895 23.9692 16.2462 23.7658 16.1624 23.5778C16.0786 23.3899 15.9562 23.2216 15.8031 23.0841C15.6501 22.9466 15.4698 22.8428 15.274 22.7795C15.0782 22.7162 14.8713 22.6948 14.6667 22.7167Z" fill="url(#paint0_linear_1015_121)"/>
<path d="M35.9167 11.6667H28.8333C27.7283 11.6667 26.6685 11.2277 25.8871 10.4463C25.1057 9.66488 24.6667 8.60507 24.6667 7.5V0.416667C24.6667 0.30616 24.6228 0.200179 24.5446 0.122039C24.4665 0.0438987 24.3605 0 24.25 0H6.33333C5.44928 0 4.60143 0.351189 3.97631 0.976311C3.35119 1.60143 3 2.44928 3 3.33333V36.6667C3 37.5507 3.35119 38.3986 3.97631 39.0237C4.60143 39.6488 5.44928 40 6.33333 40H33C33.8841 40 34.7319 39.6488 35.357 39.0237C35.9821 38.3986 36.3333 37.5507 36.3333 36.6667V12.0833C36.3333 11.9728 36.2894 11.8668 36.2113 11.7887C36.1332 11.7106 36.0272 11.6667 35.9167 11.6667ZM14.45 27.7167H13.6333C13.5212 27.7166 13.4135 27.7599 13.3327 27.8376C13.2519 27.9153 13.2043 28.0213 13.2 28.1333V31.6667C13.2 31.9407 13.0911 32.2036 12.8973 32.3973C12.7036 32.5911 12.4407 32.7 12.1667 32.7C11.8926 32.7 11.6298 32.5911 11.436 32.3973C11.2422 32.2036 11.1333 31.9407 11.1333 31.6667V21.6667C11.1333 21.3926 11.2422 21.1298 11.436 20.936C11.6298 20.7422 11.8926 20.6333 12.1667 20.6333H14.6667C15.1618 20.633 15.6515 20.7367 16.1039 20.9378C16.5564 21.1389 16.9616 21.4328 17.2932 21.8005C17.6247 22.1682 17.8753 22.6015 18.0287 23.0723C18.182 23.5431 18.2347 24.0409 18.1833 24.5333C18.0607 25.4299 17.6124 26.2499 16.9238 26.8371C16.2353 27.4242 15.3547 27.7373 14.45 27.7167ZM28.2 23.3333C28.2009 24.2576 27.9073 25.1581 27.3619 25.9043C26.8165 26.6505 26.0476 27.2036 25.1667 27.4833C25.0827 27.5129 25.0094 27.5666 24.956 27.6378C24.9026 27.709 24.8715 27.7945 24.8667 27.8833V31.6667C24.8667 31.9407 24.7578 32.2036 24.564 32.3973C24.3702 32.5911 24.1074 32.7 23.8333 32.7C23.5593 32.7 23.2964 32.5911 23.1027 32.3973C22.9089 32.2036 22.8 31.9407 22.8 31.6667V27.8833C22.7952 27.7945 22.7641 27.709 22.7107 27.6378C22.6573 27.5666 22.584 27.5129 22.5 27.4833C21.6191 27.2036 20.8502 26.6505 20.3048 25.9043C19.7594 25.1581 19.4658 24.2576 19.4667 23.3333V21.6667C19.4667 21.3926 19.5755 21.1298 19.7693 20.936C19.9631 20.7422 20.2259 20.6333 20.5 20.6333C20.7741 20.6333 21.0369 20.7422 21.2307 20.936C21.4245 21.1298 21.5333 21.3926 21.5333 21.6667V23.3333C21.5333 23.9433 21.7757 24.5283 22.207 24.9597C22.6383 25.391 23.2233 25.6333 23.8333 25.6333C24.4433 25.6333 25.0283 25.391 25.4597 24.9597C25.891 24.5283 26.1333 23.9433 26.1333 23.3333V21.6667C26.1333 21.3926 26.2422 21.1298 26.436 20.936C26.6298 20.7422 26.8926 20.6333 27.1667 20.6333C27.4407 20.6333 27.7036 20.7422 27.8973 20.936C28.0911 21.1298 28.2 21.3926 28.2 21.6667V23.3333Z" fill="url(#paint1_linear_1015_121)"/>
<path d="M28.8333 10H35.3333C35.4159 9.99885 35.4963 9.9732 35.5642 9.9263C35.6322 9.87939 35.6847 9.81336 35.715 9.73656C35.7454 9.65977 35.7523 9.57569 35.7347 9.495C35.7172 9.4143 35.6761 9.34063 35.6167 9.28333L27.05 0.716667C26.9927 0.657205 26.919 0.616109 26.8383 0.598594C26.7576 0.58108 26.6736 0.587938 26.5968 0.618297C26.52 0.648657 26.4539 0.701148 26.407 0.769109C26.3601 0.837069 26.3345 0.917433 26.3333 1V7.5C26.3333 8.16304 26.5967 8.79893 27.0656 9.26777C27.5344 9.73661 28.1703 10 28.8333 10Z" fill="url(#paint2_linear_1015_121)"/>
<defs>
<linearGradient id="paint0_linear_1015_121" x1="36.3333" y1="0" x2="-3.01093" y2="32.7869" gradientUnits="userSpaceOnUse">
<stop stop-color="#EB284B"/>
<stop offset="0.0806874" stop-color="#EA284C"/>
<stop offset="0.155366" stop-color="#E9284E"/>
<stop offset="0.22496" stop-color="#E72853"/>
<stop offset="0.290394" stop-color="#E42759"/>
<stop offset="0.352593" stop-color="#E12760"/>
<stop offset="0.41248" stop-color="#DC276A"/>
<stop offset="0.470981" stop-color="#D82674"/>
<stop offset="0.529019" stop-color="#D22680"/>
<stop offset="0.58752" stop-color="#CC258D"/>
<stop offset="0.647407" stop-color="#C5249B"/>
<stop offset="0.709606" stop-color="#BE23AB"/>
<stop offset="0.77504" stop-color="#B623BB"/>
<stop offset="0.844634" stop-color="#AE22CD"/>
<stop offset="0.919313" stop-color="#A621DF"/>
<stop offset="1" stop-color="#9D20F2"/>
</linearGradient>
<linearGradient id="paint1_linear_1015_121" x1="36.3333" y1="0" x2="-3.01093" y2="32.7869" gradientUnits="userSpaceOnUse">
<stop stop-color="#EB284B"/>
<stop offset="0.0806874" stop-color="#EA284C"/>
<stop offset="0.155366" stop-color="#E9284E"/>
<stop offset="0.22496" stop-color="#E72853"/>
<stop offset="0.290394" stop-color="#E42759"/>
<stop offset="0.352593" stop-color="#E12760"/>
<stop offset="0.41248" stop-color="#DC276A"/>
<stop offset="0.470981" stop-color="#D82674"/>
<stop offset="0.529019" stop-color="#D22680"/>
<stop offset="0.58752" stop-color="#CC258D"/>
<stop offset="0.647407" stop-color="#C5249B"/>
<stop offset="0.709606" stop-color="#BE23AB"/>
<stop offset="0.77504" stop-color="#B623BB"/>
<stop offset="0.844634" stop-color="#AE22CD"/>
<stop offset="0.919313" stop-color="#A621DF"/>
<stop offset="1" stop-color="#9D20F2"/>
</linearGradient>
<linearGradient id="paint2_linear_1015_121" x1="36.3333" y1="0" x2="-3.01093" y2="32.7869" gradientUnits="userSpaceOnUse">
<stop stop-color="#EB284B"/>
<stop offset="0.0806874" stop-color="#EA284C"/>
<stop offset="0.155366" stop-color="#E9284E"/>
<stop offset="0.22496" stop-color="#E72853"/>
<stop offset="0.290394" stop-color="#E42759"/>
<stop offset="0.352593" stop-color="#E12760"/>
<stop offset="0.41248" stop-color="#DC276A"/>
<stop offset="0.470981" stop-color="#D82674"/>
<stop offset="0.529019" stop-color="#D22680"/>
<stop offset="0.58752" stop-color="#CC258D"/>
<stop offset="0.647407" stop-color="#C5249B"/>
<stop offset="0.709606" stop-color="#BE23AB"/>
<stop offset="0.77504" stop-color="#B623BB"/>
<stop offset="0.844634" stop-color="#AE22CD"/>
<stop offset="0.919313" stop-color="#A621DF"/>
<stop offset="1" stop-color="#9D20F2"/>
</linearGradient>
</defs>
</svg>
