<svg width="40" height="40" viewBox="0 0 40 40" fill="none" xmlns="http://www.w3.org/2000/svg">
<path d="M29.1668 10H35.6668C35.7494 9.99885 35.8298 9.9732 35.8977 9.9263C35.9657 9.87939 36.0182 9.81336 36.0485 9.73656C36.0789 9.65977 36.0857 9.57569 36.0682 9.495C36.0507 9.4143 36.0096 9.34063 35.9502 9.28333L27.3835 0.716667C27.3262 0.657205 27.2525 0.616109 27.1718 0.598594C27.0911 0.58108 27.0071 0.587938 26.9303 0.618297C26.8535 0.648657 26.7874 0.701148 26.7405 0.769109C26.6936 0.837069 26.668 0.917433 26.6668 1V7.5C26.6668 8.16304 26.9302 8.79893 27.3991 9.26777C27.8679 9.73661 28.5038 10 29.1668 10Z" fill="url(#paint0_linear_1015_1515)"/>
<path d="M36.2502 11.6667H29.1668C28.0618 11.6667 27.002 11.2277 26.2206 10.4463C25.4391 9.66488 25.0002 8.60507 25.0002 7.5V0.416667C25.0002 0.30616 24.9563 0.200179 24.8781 0.122039C24.8 0.0438987 24.694 0 24.5835 0H6.66683C5.78277 0 4.93493 0.351189 4.30981 0.976311C3.68469 1.60143 3.3335 2.44928 3.3335 3.33333V36.6667C3.3335 37.5507 3.68469 38.3986 4.30981 39.0237C4.93493 39.6488 5.78277 40 6.66683 40H33.3335C34.2176 40 35.0654 39.6488 35.6905 39.0237C36.3156 38.3986 36.6668 37.5507 36.6668 36.6667V12.0833C36.6668 11.9728 36.6229 11.8668 36.5448 11.7887C36.4666 11.7106 36.3607 11.6667 36.2502 11.6667ZM18.5335 28.3333C18.5335 29.2704 18.1612 30.1691 17.4986 30.8318C16.836 31.4944 15.9373 31.8667 15.0002 31.8667C14.0631 31.8667 13.1643 31.4944 12.5017 30.8318C11.8391 30.1691 11.4668 29.2704 11.4668 28.3333C11.4668 28.0593 11.5757 27.7964 11.7695 27.6027C11.9633 27.4089 12.2261 27.3 12.5002 27.3C12.7742 27.3 13.0371 27.4089 13.2308 27.6027C13.4246 27.7964 13.5335 28.0593 13.5335 28.3333C13.5335 28.7223 13.688 29.0954 13.9631 29.3704C14.2381 29.6455 14.6112 29.8 15.0002 29.8C15.3891 29.8 15.7622 29.6455 16.0373 29.3704C16.3123 29.0954 16.4668 28.7223 16.4668 28.3333V20.8333C16.4668 20.5593 16.5757 20.2964 16.7695 20.1027C16.9633 19.9089 17.2261 19.8 17.5002 19.8C17.7742 19.8 18.0371 19.9089 18.2308 20.1027C18.4246 20.2964 18.5335 20.5593 18.5335 20.8333V28.3333ZM22.3835 23.95L25.4502 25.9833C26.0165 26.3715 26.4445 26.9299 26.6723 27.5775C26.9001 28.2252 26.9158 28.9286 26.7172 29.5858C26.5185 30.243 26.1158 30.8199 25.5674 31.233C25.019 31.6461 24.3533 31.8738 23.6668 31.8833H20.8335C20.5799 31.8512 20.3468 31.7277 20.1778 31.5359C20.0088 31.3441 19.9155 31.0973 19.9155 30.8417C19.9155 30.5861 20.0088 30.3392 20.1778 30.1474C20.3468 29.9557 20.5799 29.8321 20.8335 29.8H23.6668C23.911 29.7997 24.1486 29.7205 24.3442 29.5743C24.5398 29.428 24.6829 29.2225 24.7522 28.9883C24.8215 28.7542 24.8133 28.5039 24.7289 28.2747C24.6444 28.0456 24.4882 27.8498 24.2835 27.7167L21.2168 25.6833C20.7792 25.3861 20.4212 24.986 20.1742 24.5182C19.9272 24.0503 19.7988 23.529 19.8002 23C19.8002 22.1513 20.1373 21.3374 20.7374 20.7373C21.3375 20.1371 22.1515 19.8 23.0002 19.8H25.8335C26.0871 19.8321 26.3202 19.9557 26.4892 20.1474C26.6582 20.3392 26.7515 20.5861 26.7515 20.8417C26.7515 21.0973 26.6582 21.3441 26.4892 21.5359C26.3202 21.7277 26.0871 21.8512 25.8335 21.8833H23.0002C22.7024 21.8833 22.4167 22.0004 22.2046 22.2094C21.9925 22.4183 21.8712 22.7023 21.8668 23C21.8685 23.1886 21.9164 23.3739 22.0065 23.5395C22.0966 23.7052 22.2261 23.8461 22.3835 23.95Z" fill="url(#paint1_linear_1015_1515)"/>
<defs>
<linearGradient id="paint0_linear_1015_1515" x1="36.6668" y1="0" x2="-2.67743" y2="32.7869" gradientUnits="userSpaceOnUse">
<stop stop-color="#EB284B"/>
<stop offset="0.0806874" stop-color="#EA284C"/>
<stop offset="0.155366" stop-color="#E9284E"/>
<stop offset="0.22496" stop-color="#E72853"/>
<stop offset="0.290394" stop-color="#E42759"/>
<stop offset="0.352593" stop-color="#E12760"/>
<stop offset="0.41248" stop-color="#DC276A"/>
<stop offset="0.470981" stop-color="#D82674"/>
<stop offset="0.529019" stop-color="#D22680"/>
<stop offset="0.58752" stop-color="#CC258D"/>
<stop offset="0.647407" stop-color="#C5249B"/>
<stop offset="0.709606" stop-color="#BE23AB"/>
<stop offset="0.77504" stop-color="#B623BB"/>
<stop offset="0.844634" stop-color="#AE22CD"/>
<stop offset="0.919313" stop-color="#A621DF"/>
<stop offset="1" stop-color="#9D20F2"/>
</linearGradient>
<linearGradient id="paint1_linear_1015_1515" x1="36.6668" y1="0" x2="-2.67743" y2="32.7869" gradientUnits="userSpaceOnUse">
<stop stop-color="#EB284B"/>
<stop offset="0.0806874" stop-color="#EA284C"/>
<stop offset="0.155366" stop-color="#E9284E"/>
<stop offset="0.22496" stop-color="#E72853"/>
<stop offset="0.290394" stop-color="#E42759"/>
<stop offset="0.352593" stop-color="#E12760"/>
<stop offset="0.41248" stop-color="#DC276A"/>
<stop offset="0.470981" stop-color="#D82674"/>
<stop offset="0.529019" stop-color="#D22680"/>
<stop offset="0.58752" stop-color="#CC258D"/>
<stop offset="0.647407" stop-color="#C5249B"/>
<stop offset="0.709606" stop-color="#BE23AB"/>
<stop offset="0.77504" stop-color="#B623BB"/>
<stop offset="0.844634" stop-color="#AE22CD"/>
<stop offset="0.919313" stop-color="#A621DF"/>
<stop offset="1" stop-color="#9D20F2"/>
</linearGradient>
</defs>
</svg>
