<svg width="40" height="40" viewBox="0 0 40 40" fill="none" xmlns="http://www.w3.org/2000/svg">
<path d="M21.0127 28.5656C21.3125 28.2735 21.5197 27.8997 21.6086 27.4908C21.6975 27.0818 21.6642 26.6557 21.5127 26.2656C21.3523 25.8832 21.0805 25.5579 20.7328 25.332C20.385 25.1061 19.9773 24.99 19.5627 24.9989H15.3961C15.3119 25.0025 15.2287 24.9806 15.1573 24.936C15.0859 24.8913 15.0297 24.8261 14.9961 24.7489L12.7627 19.5489C12.5874 19.1849 12.313 18.8778 11.971 18.6626C11.6291 18.4474 11.2334 18.3329 10.8294 18.3322C10.4234 18.3337 10.0258 18.4483 9.68135 18.6632C9.33688 18.8781 9.05917 19.1848 8.87941 19.5489L6.66274 24.7489C6.63021 24.8234 6.57658 24.8868 6.50847 24.9312C6.44035 24.9757 6.36073 24.9992 6.27941 24.9989H2.09607C1.681 24.9877 1.27232 25.1028 0.924107 25.329C0.575898 25.5552 0.304584 25.8818 0.146072 26.2656C-0.00629042 26.6636 -0.0369378 27.0979 0.0580221 27.5133C0.152982 27.9288 0.369265 28.3066 0.679406 28.5989L4.32941 31.8489C4.39611 31.9078 4.44309 31.9857 4.46396 32.0722C4.48483 32.1586 4.47859 32.2494 4.44607 32.3322L2.39607 37.0156C2.2176 37.423 2.17307 37.8765 2.26892 38.3108C2.36477 38.7451 2.59604 39.1378 2.92941 39.4322C3.2694 39.7252 3.68977 39.9089 4.13571 39.9594C4.58165 40.01 5.03247 39.925 5.42941 39.7156L10.6294 36.7989C10.6881 36.758 10.7579 36.7361 10.8294 36.7361C10.9009 36.7361 10.9707 36.758 11.0294 36.7989L16.2127 39.7156C16.6075 39.9434 17.0648 40.0387 17.5177 39.9878C17.9705 39.9368 18.3952 39.7421 18.7294 39.4322C19.0628 39.1378 19.294 38.7451 19.3899 38.3108C19.4857 37.8765 19.4412 37.423 19.2627 37.0156L17.2127 32.3322C17.1782 32.2511 17.1693 32.1613 17.1872 32.0749C17.2051 31.9886 17.2489 31.9097 17.3127 31.8489L21.0127 28.5656Z" fill="url(#paint0_linear_871_400)"/>
<path d="M24.5127 10.7489C24.6575 10.5039 24.7144 10.2168 24.6739 9.93514C24.6334 9.65345 24.498 9.39401 24.2901 9.1997C24.0822 9.00538 23.8142 8.88783 23.5304 8.86647C23.2466 8.84511 22.9641 8.92123 22.7294 9.08223L18.3294 13.7989C18.1278 14.0297 18.0167 14.3258 18.0167 14.6322C18.0167 14.9387 18.1278 15.2348 18.3294 15.4656L22.7794 20.2156C23.0138 20.4497 23.3315 20.5811 23.6627 20.5811C23.994 20.5811 24.3117 20.4497 24.5461 20.2156C24.7477 19.9848 24.8588 19.6887 24.8588 19.3822C24.8588 19.0758 24.7477 18.7797 24.5461 18.5489L21.1461 14.9989C21.0735 14.9191 21.0332 14.8151 21.0332 14.7072C21.0332 14.5994 21.0735 14.4954 21.1461 14.4156L24.5127 10.7489Z" fill="url(#paint1_linear_871_400)"/>
<path d="M27.1461 18.5656C27.0013 18.8106 26.9444 19.0976 26.9849 19.3793C27.0254 19.661 27.1608 19.9205 27.3687 20.1148C27.5766 20.3091 27.8446 20.4266 28.1284 20.448C28.4122 20.4694 28.6947 20.3932 28.9294 20.2322L33.3794 15.4822C33.581 15.2514 33.6921 14.9554 33.6921 14.6489C33.6921 14.3424 33.581 14.0464 33.3794 13.8156L28.9627 9.0489C28.7284 8.81482 28.4107 8.68333 28.0794 8.68333C27.7482 8.68333 27.4304 8.81482 27.1961 9.0489C27.076 9.16259 26.9804 9.29956 26.9151 9.45143C26.8498 9.60331 26.8161 9.7669 26.8161 9.93223C26.8161 10.0976 26.8498 10.2612 26.9151 10.413C26.9804 10.5649 27.076 10.7019 27.1961 10.8156L30.5294 14.4489C30.6009 14.5259 30.6406 14.6272 30.6406 14.7322C30.6406 14.8373 30.6009 14.9385 30.5294 15.0156L27.1461 18.5656Z" fill="url(#paint2_linear_871_400)"/>
<path d="M39.0127 4.9989L34.9961 0.982235C34.3738 0.356255 33.5287 0.00262268 32.6461 -0.00109863H13.3294C12.4453 -0.00109863 11.5975 0.350091 10.9724 0.975212C10.3473 1.60033 9.99607 2.44818 9.99607 3.33223V14.6489C10.0109 14.742 10.057 14.8273 10.1266 14.8909C10.1962 14.9545 10.2853 14.9925 10.3794 14.9989C11.1938 15.043 12.0026 15.1602 12.7961 15.3489C12.8543 15.3663 12.9156 15.3708 12.9758 15.3621C13.0359 15.3533 13.0934 15.3315 13.1443 15.2981C13.1951 15.2648 13.238 15.2207 13.27 15.169C13.3019 15.1173 13.3222 15.0593 13.3294 14.9989V4.16557C13.3294 3.94455 13.4172 3.73259 13.5735 3.57631C13.7298 3.42003 13.9417 3.33223 14.1627 3.33223H32.2961C32.4054 3.3309 32.5137 3.35246 32.6142 3.39551C32.7147 3.43857 32.805 3.50217 32.8794 3.58223L36.4127 7.11557C36.4928 7.18998 36.5564 7.28032 36.5995 7.38078C36.6425 7.48125 36.6641 7.58961 36.6627 7.6989V29.9989C36.6627 30.2199 36.5749 30.4319 36.4187 30.5882C36.2624 30.7444 36.0504 30.8322 35.8294 30.8322H23.5961C23.4982 30.8332 23.4038 30.8686 23.3294 30.9322L21.3794 32.6989C21.3092 32.7591 21.2577 32.8383 21.2311 32.9269C21.2045 33.0155 21.2039 33.1099 21.2294 33.1989L21.5127 33.8489C21.5515 33.9412 21.6162 34.0203 21.6991 34.0765C21.7819 34.1327 21.8793 34.1637 21.9794 34.1656H36.6627C37.5468 34.1656 38.3946 33.8144 39.0198 33.1893C39.6449 32.5641 39.9961 31.7163 39.9961 30.8322V7.3489C39.9923 6.46627 39.6387 5.62115 39.0127 4.9989Z" fill="url(#paint3_linear_871_400)"/>
<defs>
<linearGradient id="paint0_linear_871_400" x1="39.9961" y1="-0.00109863" x2="-0.00617089" y2="39.991" gradientUnits="userSpaceOnUse">
<stop stop-color="#EB284B"/>
<stop offset="0.0806874" stop-color="#EA284C"/>
<stop offset="0.155366" stop-color="#E9284E"/>
<stop offset="0.22496" stop-color="#E72853"/>
<stop offset="0.290394" stop-color="#E42759"/>
<stop offset="0.352593" stop-color="#E12760"/>
<stop offset="0.41248" stop-color="#DC276A"/>
<stop offset="0.470981" stop-color="#D82674"/>
<stop offset="0.529019" stop-color="#D22680"/>
<stop offset="0.58752" stop-color="#CC258D"/>
<stop offset="0.647407" stop-color="#C5249B"/>
<stop offset="0.709606" stop-color="#BE23AB"/>
<stop offset="0.77504" stop-color="#B623BB"/>
<stop offset="0.844634" stop-color="#AE22CD"/>
<stop offset="0.919313" stop-color="#A621DF"/>
<stop offset="1" stop-color="#9D20F2"/>
</linearGradient>
<linearGradient id="paint1_linear_871_400" x1="39.9961" y1="-0.00109863" x2="-0.00617089" y2="39.991" gradientUnits="userSpaceOnUse">
<stop stop-color="#EB284B"/>
<stop offset="0.0806874" stop-color="#EA284C"/>
<stop offset="0.155366" stop-color="#E9284E"/>
<stop offset="0.22496" stop-color="#E72853"/>
<stop offset="0.290394" stop-color="#E42759"/>
<stop offset="0.352593" stop-color="#E12760"/>
<stop offset="0.41248" stop-color="#DC276A"/>
<stop offset="0.470981" stop-color="#D82674"/>
<stop offset="0.529019" stop-color="#D22680"/>
<stop offset="0.58752" stop-color="#CC258D"/>
<stop offset="0.647407" stop-color="#C5249B"/>
<stop offset="0.709606" stop-color="#BE23AB"/>
<stop offset="0.77504" stop-color="#B623BB"/>
<stop offset="0.844634" stop-color="#AE22CD"/>
<stop offset="0.919313" stop-color="#A621DF"/>
<stop offset="1" stop-color="#9D20F2"/>
</linearGradient>
<linearGradient id="paint2_linear_871_400" x1="39.9961" y1="-0.00109863" x2="-0.00617089" y2="39.991" gradientUnits="userSpaceOnUse">
<stop stop-color="#EB284B"/>
<stop offset="0.0806874" stop-color="#EA284C"/>
<stop offset="0.155366" stop-color="#E9284E"/>
<stop offset="0.22496" stop-color="#E72853"/>
<stop offset="0.290394" stop-color="#E42759"/>
<stop offset="0.352593" stop-color="#E12760"/>
<stop offset="0.41248" stop-color="#DC276A"/>
<stop offset="0.470981" stop-color="#D82674"/>
<stop offset="0.529019" stop-color="#D22680"/>
<stop offset="0.58752" stop-color="#CC258D"/>
<stop offset="0.647407" stop-color="#C5249B"/>
<stop offset="0.709606" stop-color="#BE23AB"/>
<stop offset="0.77504" stop-color="#B623BB"/>
<stop offset="0.844634" stop-color="#AE22CD"/>
<stop offset="0.919313" stop-color="#A621DF"/>
<stop offset="1" stop-color="#9D20F2"/>
</linearGradient>
<linearGradient id="paint3_linear_871_400" x1="39.9961" y1="-0.00109863" x2="-0.00617089" y2="39.991" gradientUnits="userSpaceOnUse">
<stop stop-color="#EB284B"/>
<stop offset="0.0806874" stop-color="#EA284C"/>
<stop offset="0.155366" stop-color="#E9284E"/>
<stop offset="0.22496" stop-color="#E72853"/>
<stop offset="0.290394" stop-color="#E42759"/>
<stop offset="0.352593" stop-color="#E12760"/>
<stop offset="0.41248" stop-color="#DC276A"/>
<stop offset="0.470981" stop-color="#D82674"/>
<stop offset="0.529019" stop-color="#D22680"/>
<stop offset="0.58752" stop-color="#CC258D"/>
<stop offset="0.647407" stop-color="#C5249B"/>
<stop offset="0.709606" stop-color="#BE23AB"/>
<stop offset="0.77504" stop-color="#B623BB"/>
<stop offset="0.844634" stop-color="#AE22CD"/>
<stop offset="0.919313" stop-color="#A621DF"/>
<stop offset="1" stop-color="#9D20F2"/>
</linearGradient>
</defs>
</svg>
