<svg width="34" height="40" viewBox="0 0 34 40" fill="none" xmlns="http://www.w3.org/2000/svg">
<path d="M32.6833 8.18333L25.4833 0.983334C25.1732 0.671387 24.8044 0.423897 24.3983 0.255129C23.9921 0.0863611 23.5565 -0.000347486 23.1166 1.04655e-06H3.66665C2.78259 1.04655e-06 1.93474 0.351191 1.30962 0.976312C0.684502 1.60143 0.333313 2.44928 0.333313 3.33333V36.6667C0.333313 37.5507 0.684502 38.3986 1.30962 39.0237C1.93474 39.6488 2.78259 40 3.66665 40H30.3333C31.2174 40 32.0652 39.6488 32.6903 39.0237C33.3155 38.3986 33.6666 37.5507 33.6666 36.6667V10.55C33.667 10.1101 33.5803 9.67457 33.4115 9.26839C33.2428 8.8622 32.9953 8.49343 32.6833 8.18333ZM10.6 24.55C11.1026 24.8079 11.5242 25.1996 11.8183 25.6819C12.1124 26.1642 12.2675 26.7184 12.2666 27.2833V29.2333C12.2666 29.7 12.7166 30 13.4 30H14.4C14.7315 30 15.0494 30.1317 15.2839 30.3661C15.5183 30.6005 15.65 30.9185 15.65 31.25C15.65 31.5815 15.5183 31.8995 15.2839 32.1339C15.0494 32.3683 14.7315 32.5 14.4 32.5H13.4C12.9377 32.5418 12.4718 32.4865 12.0321 32.3378C11.5924 32.1891 11.1886 31.9502 10.8465 31.6364C10.5045 31.3226 10.2318 30.9409 10.0458 30.5156C9.85984 30.0903 9.76476 29.6308 9.76665 29.1667V27.2833C9.75528 27.1536 9.71106 27.0289 9.63816 26.921C9.56526 26.8132 9.46608 26.7256 9.34998 26.6667L6.99998 25.2167C6.82549 25.1028 6.68225 24.947 6.58328 24.7636C6.48431 24.5803 6.43276 24.375 6.43331 24.1667C6.43568 23.9588 6.48849 23.7547 6.5872 23.5718C6.68591 23.3889 6.82756 23.2327 6.99998 23.1167L9.23331 21.6667C9.64998 21.45 9.83331 21.2167 9.83331 21.0333V19.1167C9.83143 18.6525 9.92651 18.1931 10.1125 17.7678C10.2984 17.3425 10.5711 16.9607 10.9132 16.6469C11.2552 16.3331 11.659 16.0942 12.0987 15.9455C12.5384 15.7968 13.0044 15.7416 13.4666 15.7833H14.4666C14.7982 15.7833 15.1161 15.915 15.3505 16.1495C15.585 16.3839 15.7166 16.7018 15.7166 17.0333C15.7166 17.3649 15.585 17.6828 15.3505 17.9172C15.1161 18.1516 14.7982 18.2833 14.4666 18.2833H13.4666C12.7833 18.2833 12.3333 18.5833 12.3333 19.0667V21.0167C12.3191 21.6079 12.1378 22.183 11.8104 22.6756C11.483 23.1681 11.0229 23.5579 10.4833 23.8C10.4833 23.8 10.2 23.9333 10.2 24.1167C10.2 24.3 10.6 24.55 10.6 24.55ZM28.5666 25.25L26.05 26.6667C25.5333 26.9 25.35 27.15 25.35 27.2667V29.2167C25.3238 29.7016 25.1984 30.176 24.9815 30.6106C24.7646 31.0451 24.4608 31.4305 24.089 31.743C23.7172 32.0554 23.2852 32.2882 22.8199 32.427C22.3545 32.5659 21.8655 32.6077 21.3833 32.55H20.3333C19.9952 32.55 19.6709 32.4157 19.4318 32.1766C19.1926 31.9375 19.0583 31.6131 19.0583 31.275C19.0583 30.9368 19.1926 30.6125 19.4318 30.3734C19.6709 30.1343 19.9952 30 20.3333 30H21.4666C22.3 30 22.9333 29.6667 22.9333 29.2333V27.2833C22.9638 26.6586 23.1777 26.0568 23.5482 25.5529C23.9187 25.049 24.4294 24.6654 25.0166 24.45C25.0166 24.45 25.2833 24.3 25.2833 24.1167C25.2833 23.9333 24.9 23.8333 24.9 23.8333C24.3398 23.6116 23.856 23.2322 23.507 22.7412C23.1579 22.2502 22.9587 21.6686 22.9333 21.0667V19.1167C22.9333 18.6667 22.3 18.3333 21.4666 18.3333H20.3333C20.0018 18.3333 19.6838 18.2016 19.4494 17.9672C19.215 17.7328 19.0833 17.4149 19.0833 17.0833C19.0833 16.7518 19.215 16.4339 19.4494 16.1995C19.6838 15.965 20.0018 15.8333 20.3333 15.8333H21.4666C21.9489 15.7756 22.4378 15.8175 22.9032 15.9563C23.3686 16.0951 23.8005 16.3279 24.1723 16.6404C24.5442 16.9528 24.8479 17.3382 25.0648 17.7728C25.2817 18.2073 25.4071 18.6817 25.4333 19.1667V21.1167C25.4333 21.2167 25.6166 21.4667 26.0333 21.65L28.65 23.1333C28.8404 23.2429 28.9985 23.4008 29.1085 23.591C29.2185 23.7812 29.2764 23.997 29.2764 24.2167C29.2764 24.4364 29.2185 24.6522 29.1085 24.8424C28.9985 25.0326 28.8404 25.1904 28.65 25.3L28.5666 25.25Z" fill="url(#paint0_linear_871_844)"/>
<defs>
<linearGradient id="paint0_linear_871_844" x1="33.6666" y1="0" x2="-5.67762" y2="32.7869" gradientUnits="userSpaceOnUse">
<stop stop-color="#EB284B"/>
<stop offset="0.0806874" stop-color="#EA284C"/>
<stop offset="0.155366" stop-color="#E9284E"/>
<stop offset="0.22496" stop-color="#E72853"/>
<stop offset="0.290394" stop-color="#E42759"/>
<stop offset="0.352593" stop-color="#E12760"/>
<stop offset="0.41248" stop-color="#DC276A"/>
<stop offset="0.470981" stop-color="#D82674"/>
<stop offset="0.529019" stop-color="#D22680"/>
<stop offset="0.58752" stop-color="#CC258D"/>
<stop offset="0.647407" stop-color="#C5249B"/>
<stop offset="0.709606" stop-color="#BE23AB"/>
<stop offset="0.77504" stop-color="#B623BB"/>
<stop offset="0.844634" stop-color="#AE22CD"/>
<stop offset="0.919313" stop-color="#A621DF"/>
<stop offset="1" stop-color="#9D20F2"/>
</linearGradient>
</defs>
</svg>
