<svg width="40" height="40" viewBox="0 0 40 40" fill="none" xmlns="http://www.w3.org/2000/svg">
<path d="M20 0.466676C15.2387 0.465261 10.633 2.16254 7.01123 5.25332C3.38944 8.3441 0.989123 12.6256 0.241892 17.3279C-0.505339 22.0303 0.449543 26.8449 2.93483 30.9062C5.42013 34.9674 9.27277 38.0087 13.8 39.4833H14.2667C14.6924 39.5041 15.1099 39.361 15.4333 39.0833C15.6279 38.9139 15.7826 38.7035 15.8863 38.4672C15.9901 38.2309 16.0403 37.9746 16.0333 37.7167V37.3667C16.0333 37.0833 16.0333 36.7 16.0333 35.55C16.0199 35.4418 15.985 35.3374 15.9306 35.243C15.8762 35.1485 15.8035 35.0659 15.7167 35C15.6218 34.9241 15.5115 34.8698 15.3935 34.841C15.2754 34.8123 15.1525 34.8096 15.0333 34.8333C10.55 35.8 9.60001 33 9.55001 32.8167C8.98624 31.3329 7.97958 30.0586 6.66667 29.1667L6.41667 28.9833C6.61347 28.8883 6.83225 28.848 7.05001 28.8667C7.46538 28.9291 7.85792 29.0967 8.19043 29.3533C8.52293 29.61 8.78439 29.9473 8.95 30.3333C9.59476 31.456 10.6498 32.2848 11.8932 32.6454C13.1366 33.0059 14.4713 32.8702 15.6167 32.2667C15.7404 32.2117 15.8499 32.129 15.9366 32.0249C16.0233 31.9209 16.0849 31.7983 16.1167 31.6667C16.1842 30.9016 16.5139 30.1834 17.05 29.6333C17.1736 29.5268 17.2632 29.3862 17.3076 29.2292C17.3521 29.0722 17.3494 28.9056 17.3 28.75C17.2545 28.5942 17.1636 28.4555 17.0389 28.3516C16.9142 28.2477 16.7614 28.1833 16.6 28.1667C12.65 27.7167 8.6 26.3333 8.6 19.5167C8.57124 17.8025 9.20394 16.1432 10.3667 14.8833C10.4718 14.7683 10.5417 14.6255 10.5683 14.4719C10.5949 14.3184 10.577 14.1604 10.5167 14.0167C10.0551 12.7166 10.061 11.2962 10.5333 10C12.0724 10.275 13.5171 10.9343 14.7333 11.9167C14.8346 11.9859 14.9503 12.0309 15.0717 12.0482C15.1931 12.0656 15.3168 12.0548 15.4333 12.0167C16.9231 11.6194 18.4582 11.4177 20 11.4167C21.5478 11.4093 23.0896 11.6112 24.5833 12.0167C24.6971 12.0546 24.8182 12.0653 24.9369 12.048C25.0556 12.0306 25.1685 11.9856 25.2667 11.9167C26.4814 10.9318 27.9267 10.2722 29.4667 10C29.9245 11.2826 29.9245 12.6841 29.4667 13.9667C29.4064 14.1116 29.39 14.271 29.4197 14.4251C29.4493 14.5792 29.5236 14.7212 29.6333 14.8333C30.7781 16.0831 31.4038 17.722 31.3833 19.4167C31.3833 26.25 27.3333 27.6167 23.3667 28.05C23.2052 28.0667 23.0524 28.1311 22.9278 28.235C22.8031 28.3389 22.7122 28.4776 22.6667 28.6333C22.6186 28.7864 22.6167 28.9502 22.6612 29.1043C22.7056 29.2584 22.7945 29.3961 22.9167 29.5C23.2853 29.8849 23.5669 30.3445 23.7423 30.8477C23.9178 31.351 23.9829 31.886 23.9333 32.4167V37.7167C23.9296 37.9758 23.9829 38.2325 24.0895 38.4687C24.1961 38.7049 24.3533 38.9147 24.55 39.0833C24.7982 39.2725 25.0879 39.3999 25.3951 39.455C25.7023 39.51 26.0182 39.4912 26.3167 39.4C30.792 37.8771 34.5832 34.8181 37.0177 30.7657C39.4522 26.7134 40.3725 21.9297 39.6154 17.2633C38.8583 12.5969 36.4728 8.34959 32.882 5.2748C29.2912 2.20001 24.7273 0.496565 20 0.466676V0.466676Z" fill="url(#paint0_linear_871_1239)"/>
<defs>
<linearGradient id="paint0_linear_871_1239" x1="39.8736" y1="0.466675" x2="0.863738" y2="40.3368" gradientUnits="userSpaceOnUse">
<stop stop-color="#EB284B"/>
<stop offset="0.0806874" stop-color="#EA284C"/>
<stop offset="0.155366" stop-color="#E9284E"/>
<stop offset="0.22496" stop-color="#E72853"/>
<stop offset="0.290394" stop-color="#E42759"/>
<stop offset="0.352593" stop-color="#E12760"/>
<stop offset="0.41248" stop-color="#DC276A"/>
<stop offset="0.470981" stop-color="#D82674"/>
<stop offset="0.529019" stop-color="#D22680"/>
<stop offset="0.58752" stop-color="#CC258D"/>
<stop offset="0.647407" stop-color="#C5249B"/>
<stop offset="0.709606" stop-color="#BE23AB"/>
<stop offset="0.77504" stop-color="#B623BB"/>
<stop offset="0.844634" stop-color="#AE22CD"/>
<stop offset="0.919313" stop-color="#A621DF"/>
<stop offset="1" stop-color="#9D20F2"/>
</linearGradient>
</defs>
</svg>
