<svg width="40" height="30" viewBox="0 0 40 30" fill="none" xmlns="http://www.w3.org/2000/svg">
<path d="M39.0667 8.22646L20.4005 0.813313C20.0892 0.707655 19.7518 0.707655 19.4405 0.813313L0.77433 8.22646C0.534462 8.34091 0.333385 8.52313 0.19595 8.75061C0.0585148 8.97809 -0.00925476 9.24085 0.00101623 9.50642V19.9062C0.00101623 20.4366 0.211724 20.9453 0.586788 21.3203C0.961851 21.6954 1.47055 21.9061 2.00097 21.9061C2.53138 21.9061 3.04008 21.6954 3.41514 21.3203C3.79021 20.9453 4.00091 20.4366 4.00091 19.9062V13.7197C3.98403 13.5041 4.01876 13.2877 4.10224 13.0883C4.18571 12.8889 4.31552 12.7122 4.4809 12.573C4.67043 12.4748 4.88077 12.4236 5.09422 12.4236C5.30767 12.4236 5.51801 12.4748 5.70754 12.573L19.4672 17.3196C19.7601 17.4255 20.0809 17.4255 20.3738 17.3196L39.04 10.7331C39.3084 10.655 39.5455 10.4946 39.7178 10.2745C39.89 10.0544 39.9888 9.78571 40 9.50642C39.9976 9.22232 39.9063 8.94609 39.7389 8.71653C39.5716 8.48696 39.3365 8.31558 39.0667 8.22646Z" fill="url(#paint0_linear_871_3941)"/>
<path d="M30.1336 16.7063L20.3738 20.1462C20.0809 20.2521 19.7601 20.2521 19.4672 20.1462L9.70745 16.7063C9.50527 16.6319 9.28808 16.6075 9.07445 16.6354C8.86083 16.6633 8.65713 16.7425 8.48081 16.8663C8.32998 16.9943 8.20889 17.1536 8.12599 17.3333C8.04309 17.5129 8.00038 17.7084 8.00082 17.9062V24.5727C7.97795 24.8507 8.04283 25.1289 8.18634 25.3681C8.32984 25.6073 8.54475 25.7954 8.8008 25.906L16.8006 28.7326C17.8044 29.0799 18.8584 29.2601 19.9205 29.2659C20.9741 29.262 22.0197 29.0818 23.0138 28.7326L31.0136 25.906C31.2713 25.8129 31.494 25.6426 31.6514 25.4183C31.8089 25.1941 31.8934 24.9267 31.8935 24.6527V17.9062C31.8925 17.6928 31.8413 17.4827 31.744 17.2928C31.6467 17.1028 31.5061 16.9385 31.3336 16.8129C31.156 16.7022 30.9548 16.6349 30.7463 16.6163C30.5378 16.5978 30.3279 16.6286 30.1336 16.7063Z" fill="url(#paint1_linear_871_3941)"/>
<defs>
<linearGradient id="paint0_linear_871_3941" x1="40" y1="0.73407" x2="13.0225" y2="38.5549" gradientUnits="userSpaceOnUse">
<stop stop-color="#EB284B"/>
<stop offset="0.0806874" stop-color="#EA284C"/>
<stop offset="0.155366" stop-color="#E9284E"/>
<stop offset="0.22496" stop-color="#E72853"/>
<stop offset="0.290394" stop-color="#E42759"/>
<stop offset="0.352593" stop-color="#E12760"/>
<stop offset="0.41248" stop-color="#DC276A"/>
<stop offset="0.470981" stop-color="#D82674"/>
<stop offset="0.529019" stop-color="#D22680"/>
<stop offset="0.58752" stop-color="#CC258D"/>
<stop offset="0.647407" stop-color="#C5249B"/>
<stop offset="0.709606" stop-color="#BE23AB"/>
<stop offset="0.77504" stop-color="#B623BB"/>
<stop offset="0.844634" stop-color="#AE22CD"/>
<stop offset="0.919313" stop-color="#A621DF"/>
<stop offset="1" stop-color="#9D20F2"/>
</linearGradient>
<linearGradient id="paint1_linear_871_3941" x1="40" y1="0.73407" x2="13.0225" y2="38.5549" gradientUnits="userSpaceOnUse">
<stop stop-color="#EB284B"/>
<stop offset="0.0806874" stop-color="#EA284C"/>
<stop offset="0.155366" stop-color="#E9284E"/>
<stop offset="0.22496" stop-color="#E72853"/>
<stop offset="0.290394" stop-color="#E42759"/>
<stop offset="0.352593" stop-color="#E12760"/>
<stop offset="0.41248" stop-color="#DC276A"/>
<stop offset="0.470981" stop-color="#D82674"/>
<stop offset="0.529019" stop-color="#D22680"/>
<stop offset="0.58752" stop-color="#CC258D"/>
<stop offset="0.647407" stop-color="#C5249B"/>
<stop offset="0.709606" stop-color="#BE23AB"/>
<stop offset="0.77504" stop-color="#B623BB"/>
<stop offset="0.844634" stop-color="#AE22CD"/>
<stop offset="0.919313" stop-color="#A621DF"/>
<stop offset="1" stop-color="#9D20F2"/>
</linearGradient>
</defs>
</svg>
