<svg width="40" height="40" viewBox="0 0 40 40" fill="none" xmlns="http://www.w3.org/2000/svg">
<g clip-path="url(#clip0_1129_428)">
<path d="M37.5 0H2.5C1.83696 0 1.20107 0.263392 0.732233 0.732233C0.263392 1.20107 0 1.83696 0 2.5L0 37.5C0 38.163 0.263392 38.7989 0.732233 39.2678C1.20107 39.7366 1.83696 40 2.5 40H37.5C38.163 40 38.7989 39.7366 39.2678 39.2678C39.7366 38.7989 40 38.163 40 37.5V2.5C40 1.83696 39.7366 1.20107 39.2678 0.732233C38.7989 0.263392 38.163 0 37.5 0V0ZM18.5333 29.1667C18.5333 30.3248 18.0733 31.4355 17.2544 32.2544C16.4355 33.0733 15.3248 33.5333 14.1667 33.5333C13.0086 33.5333 11.8979 33.0733 11.079 32.2544C10.2601 31.4355 9.8 30.3248 9.8 29.1667C9.8 28.8926 9.90887 28.6298 10.1027 28.436C10.2964 28.2422 10.5593 28.1333 10.8333 28.1333C11.1074 28.1333 11.3702 28.2422 11.564 28.436C11.7578 28.6298 11.8667 28.8926 11.8667 29.1667C11.8667 29.7767 12.109 30.3617 12.5403 30.793C12.9717 31.2243 13.5567 31.4667 14.1667 31.4667C14.7767 31.4667 15.3617 31.2243 15.793 30.793C16.2243 30.3617 16.4667 29.7767 16.4667 29.1667V19.1667C16.4667 18.8926 16.5755 18.6298 16.7693 18.436C16.9631 18.2422 17.2259 18.1333 17.5 18.1333C17.7741 18.1333 18.0369 18.2422 18.2307 18.436C18.4245 18.6298 18.5333 18.8926 18.5333 19.1667V29.1667ZM23 24.0833L26.25 25.75C26.9405 26.0891 27.5211 26.6162 27.9251 27.2708C28.329 27.9254 28.5399 28.6808 28.5333 29.45C28.5333 30.5433 28.1002 31.5922 27.3286 32.3668C26.5571 33.1415 25.51 33.5789 24.4167 33.5833H20.8333C20.5798 33.5512 20.3466 33.4277 20.1776 33.2359C20.0086 33.0441 19.9154 32.7973 19.9154 32.5417C19.9154 32.2861 20.0086 32.0392 20.1776 31.8474C20.3466 31.6557 20.5798 31.5321 20.8333 31.5H24.4167C24.8784 31.4999 25.3265 31.3439 25.6885 31.0573C26.0505 30.7707 26.3052 30.3703 26.4112 29.921C26.5173 29.4716 26.4686 28.9996 26.2729 28.5814C26.0773 28.1632 25.7462 27.8233 25.3333 27.6167L22.0833 25.95C21.259 25.5304 20.5993 24.8464 20.2096 24.0075C19.82 23.1685 19.7231 22.2232 19.9343 21.3226C20.1455 20.4221 20.6527 19.6184 21.3747 19.0402C22.0967 18.462 22.9917 18.1427 23.9167 18.1333H27.5C27.7536 18.1655 27.9867 18.289 28.1557 18.4808C28.3247 18.6726 28.418 18.9194 28.418 19.175C28.418 19.4306 28.3247 19.6774 28.1557 19.8692C27.9867 20.061 27.7536 20.1845 27.5 20.2167H23.9167C23.4525 20.208 22.9994 20.3584 22.6325 20.6429C22.2657 20.9274 22.0072 21.3289 21.9002 21.7806C21.7931 22.2323 21.8438 22.7071 22.0439 23.126C22.2439 23.5449 22.5813 23.8827 23 24.0833Z" fill="url(#paint0_linear_1129_428)"/>
</g>
<defs>
<linearGradient id="paint0_linear_1129_428" x1="40" y1="0" x2="0" y2="40" gradientUnits="userSpaceOnUse">
<stop stop-color="#EB284B"/>
<stop offset="0.0806874" stop-color="#EA284C"/>
<stop offset="0.155366" stop-color="#E9284E"/>
<stop offset="0.22496" stop-color="#E72853"/>
<stop offset="0.290394" stop-color="#E42759"/>
<stop offset="0.352593" stop-color="#E12760"/>
<stop offset="0.41248" stop-color="#DC276A"/>
<stop offset="0.470981" stop-color="#D82674"/>
<stop offset="0.529019" stop-color="#D22680"/>
<stop offset="0.58752" stop-color="#CC258D"/>
<stop offset="0.647407" stop-color="#C5249B"/>
<stop offset="0.709606" stop-color="#BE23AB"/>
<stop offset="0.77504" stop-color="#B623BB"/>
<stop offset="0.844634" stop-color="#AE22CD"/>
<stop offset="0.919313" stop-color="#A621DF"/>
<stop offset="1" stop-color="#9D20F2"/>
</linearGradient>
</defs>
</svg>
