<svg width="40" height="40" viewBox="0 0 40 40" fill="none" xmlns="http://www.w3.org/2000/svg">
<g>
<path d="M15.8333 20.2167H13.9667C13.8546 20.2166 13.7468 20.26 13.666 20.3377C13.5852 20.4154 13.5376 20.5214 13.5333 20.6334V24.3834C13.5376 24.4954 13.5852 24.6014 13.666 24.6791C13.7468 24.7568 13.8546 24.8001 13.9667 24.8H15.8333C16.1507 24.8271 16.4702 24.788 16.7717 24.6851C17.0732 24.5823 17.35 24.4179 17.5846 24.2025C17.8192 23.987 18.0065 23.7252 18.1346 23.4336C18.2628 23.142 18.3289 22.8269 18.3289 22.5084C18.3289 22.1898 18.2628 21.8748 18.1346 21.5832C18.0065 21.2916 17.8192 21.0297 17.5846 20.8143C17.35 20.5988 17.0732 20.4345 16.7717 20.3316C16.4702 20.2287 16.1507 20.1896 15.8333 20.2167Z" fill="url(#paint0_linear_1221_117)"/>
<path d="M37.5 0H2.5C1.83696 0 1.20107 0.263392 0.732233 0.732233C0.263392 1.20107 0 1.83696 0 2.5L0 37.5C0 38.163 0.263392 38.7989 0.732233 39.2678C1.20107 39.7366 1.83696 40 2.5 40H37.5C38.163 40 38.7989 39.7366 39.2678 39.2678C39.7366 38.7989 40 38.163 40 37.5V2.5C40 1.83696 39.7366 1.20107 39.2678 0.732233C38.7989 0.263392 38.163 0 37.5 0V0ZM15.6667 26.8833H14C13.8879 26.8832 13.7801 26.9266 13.6993 27.0043C13.6185 27.082 13.571 27.188 13.5667 27.3V32.5C13.5667 32.7741 13.4578 33.0369 13.264 33.2307C13.0702 33.4245 12.8074 33.5333 12.5333 33.5333C12.2593 33.5333 11.9964 33.4245 11.8027 33.2307C11.6089 33.0369 11.5 32.7741 11.5 32.5V19.1667C11.5 18.8926 11.6089 18.6298 11.8027 18.436C11.9964 18.2422 12.2593 18.1333 12.5333 18.1333H15.8667C16.5077 18.1387 17.1396 18.2851 17.7177 18.5621C18.2957 18.8392 18.8057 19.2401 19.2113 19.7365C19.617 20.2328 19.9084 20.8124 20.0649 21.434C20.2213 22.0556 20.239 22.7041 20.1167 23.3333C19.9007 24.3488 19.3389 25.2578 18.5274 25.9052C17.7158 26.5526 16.7047 26.8983 15.6667 26.8833ZM30.2 22.5C30.2044 23.4271 29.9125 24.3314 29.3668 25.0809C28.8212 25.8305 28.0503 26.3861 27.1667 26.6667C27.0827 26.6962 27.0094 26.75 26.956 26.8212C26.9026 26.8924 26.8715 26.9778 26.8667 27.0667V32.5C26.8667 32.7741 26.7578 33.0369 26.564 33.2307C26.3702 33.4245 26.1074 33.5333 25.8333 33.5333C25.5593 33.5333 25.2964 33.4245 25.1027 33.2307C24.9089 33.0369 24.8 32.7741 24.8 32.5V27.05C24.792 26.9641 24.7595 26.8822 24.7063 26.8143C24.6531 26.7463 24.5815 26.6951 24.5 26.6667C23.6191 26.3869 22.8502 25.8338 22.3048 25.0876C21.7594 24.3415 21.4658 23.4409 21.4667 22.5167V19.1833C21.4667 18.9093 21.5755 18.6464 21.7693 18.4527C21.9631 18.2589 22.2259 18.15 22.5 18.15C22.7741 18.15 23.0369 18.2589 23.2307 18.4527C23.4245 18.6464 23.5333 18.9093 23.5333 19.1833V22.5167C23.5333 23.1267 23.7757 23.7117 24.207 24.143C24.6383 24.5743 25.2233 24.8167 25.8333 24.8167C26.4433 24.8167 27.0283 24.5743 27.4597 24.143C27.891 23.7117 28.1333 23.1267 28.1333 22.5167V19.1833C28.1333 19.0476 28.1601 18.9133 28.212 18.7879C28.2639 18.6625 28.34 18.5486 28.436 18.4527C28.5319 18.3567 28.6459 18.2806 28.7712 18.2287C28.8966 18.1767 29.031 18.15 29.1667 18.15C29.3024 18.15 29.4367 18.1767 29.5621 18.2287C29.6875 18.2806 29.8014 18.3567 29.8973 18.4527C29.9933 18.5486 30.0694 18.6625 30.1213 18.7879C30.1733 18.9133 30.2 19.0476 30.2 19.1833V22.5Z" fill="url(#paint1_linear_1221_117)"/>
</g>
<defs>
<linearGradient id="paint0_linear_1221_117" x1="18.3289" y1="20.2084" x2="13.7329" y2="24.9998" gradientUnits="userSpaceOnUse">
<stop stop-color="#EB284B"/>
<stop offset="0.0806874" stop-color="#EA284C"/>
<stop offset="0.155366" stop-color="#E9284E"/>
<stop offset="0.22496" stop-color="#E72853"/>
<stop offset="0.290394" stop-color="#E42759"/>
<stop offset="0.352593" stop-color="#E12760"/>
<stop offset="0.41248" stop-color="#DC276A"/>
<stop offset="0.470981" stop-color="#D82674"/>
<stop offset="0.529019" stop-color="#D22680"/>
<stop offset="0.58752" stop-color="#CC258D"/>
<stop offset="0.647407" stop-color="#C5249B"/>
<stop offset="0.709606" stop-color="#BE23AB"/>
<stop offset="0.77504" stop-color="#B623BB"/>
<stop offset="0.844634" stop-color="#AE22CD"/>
<stop offset="0.919313" stop-color="#A621DF"/>
<stop offset="1" stop-color="#9D20F2"/>
</linearGradient>
<linearGradient id="paint1_linear_1221_117" x1="40" y1="0" x2="0" y2="40" gradientUnits="userSpaceOnUse">
<stop stop-color="#EB284B"/>
<stop offset="0.0806874" stop-color="#EA284C"/>
<stop offset="0.155366" stop-color="#E9284E"/>
<stop offset="0.22496" stop-color="#E72853"/>
<stop offset="0.290394" stop-color="#E42759"/>
<stop offset="0.352593" stop-color="#E12760"/>
<stop offset="0.41248" stop-color="#DC276A"/>
<stop offset="0.470981" stop-color="#D82674"/>
<stop offset="0.529019" stop-color="#D22680"/>
<stop offset="0.58752" stop-color="#CC258D"/>
<stop offset="0.647407" stop-color="#C5249B"/>
<stop offset="0.709606" stop-color="#BE23AB"/>
<stop offset="0.77504" stop-color="#B623BB"/>
<stop offset="0.844634" stop-color="#AE22CD"/>
<stop offset="0.919313" stop-color="#A621DF"/>
<stop offset="1" stop-color="#9D20F2"/>
</linearGradient>
</defs>
</svg>
