<svg xmlns="http://www.w3.org/2000/svg" width="30" height="32" fill="none">
    <path d="M26.667 25.333v-12A1.333 1.333 0 0 0 25.333 12h-24A1.334 1.334 0 0 0 0 13.333v12a1.333 1.333 0 0 0 1.333 1.334h24a1.333 1.333 0 0 0 1.334-1.334Zm-14.507-4a2.826 2.826 0 1 1-5.653 0 .827.827 0 0 1 1.653 0 1.173 1.173 0 1 0 2.347 0v-6a.827.827 0 0 1 1.653 0v6Zm3.08-3.506 2.453 1.626a2.587 2.587 0 0 1-1.426 4.72H14a.84.84 0 0 1 0-1.666h2.267a.907.907 0 0 0 .493-1.667l-2.453-1.627a2.587 2.587 0 0 1-1.134-2.146 2.56 2.56 0 0 1 2.56-2.56H18a.84.84 0 0 1 0 1.666h-2.267a.907.907 0 0 0-.906.894.92.92 0 0 0 .413.76Z" fill="#000"/>
    <path d="M29.28 7.613 22.053.387A1.333 1.333 0 0 0 21.12 0H5.667A2.667 2.667 0 0 0 3 2.667v7.666a.333.333 0 0 0 .333.334h2a.333.333 0 0 0 .334-.334v-7a.667.667 0 0 1 .666-.666H20a.333.333 0 0 1 .333.333v3.667A2.667 2.667 0 0 0 23 9.333h3.667a.333.333 0 0 1 .333.334v19a.667.667 0 0 1-.667.666H6A.333.333 0 0 1 5.667 29v-.667A.333.333 0 0 0 5.333 28h-2a.333.333 0 0 0-.333.333v1A2.667 2.667 0 0 0 5.667 32H27a2.667 2.667 0 0 0 2.667-2.667V8.547a1.334 1.334 0 0 0-.387-.934Z" fill="#000"/>
</svg>
