<svg id="Layer_1" data-name="Layer 1" xmlns="http://www.w3.org/2000/svg" xmlns:xlink="http://www.w3.org/1999/xlink" viewBox="0 0 600 216"><defs><style>.cls-1,.cls-10,.cls-11,.cls-12,.cls-13,.cls-14,.cls-15,.cls-2,.cls-3,.cls-4,.cls-5,.cls-6,.cls-7,.cls-8,.cls-9{fill:none;stroke-linecap:round;stroke-miterlimit:10;stroke-width:2px;}.cls-1{stroke:url(#gradient_57);}.cls-2{stroke:url(#gradient_57-2);}.cls-3{stroke:url(#gradient_57-3);}.cls-4{stroke:url(#gradient_57-4);}.cls-5{stroke:url(#gradient_57-5);}.cls-6{stroke:url(#gradient_57-6);}.cls-7{stroke:url(#gradient_57-7);}.cls-8{stroke:url(#gradient_57-8);}.cls-9{stroke:url(#gradient_57-9);}.cls-10{stroke:url(#gradient_57-10);}.cls-11{stroke:url(#gradient_57-11);}.cls-12{stroke:url(#gradient_57-12);}.cls-13{stroke:url(#gradient_57-13);}.cls-14{stroke:url(#gradient_57-14);}.cls-15{stroke:url(#gradient_57-15);}.cls-16,.cls-24,.cls-35{opacity:0.15;}.cls-16{fill:url(#gradient_61);}.cls-17,.cls-45{fill:#fff;}.cls-18{fill:url(#gradient_57-16);}.cls-19,.cls-20,.cls-27,.cls-28,.cls-29,.cls-30,.cls-31,.cls-37,.cls-38,.cls-39,.cls-40,.cls-41,.cls-49,.cls-50,.cls-52,.cls-53,.cls-54,.cls-55,.cls-56,.cls-57{fill-rule:evenodd;}.cls-19{fill:url(#gradient_56);}.cls-20{fill:url(#gradient_57-17);}.cls-21{fill:url(#gradient_56-2);}.cls-22{fill:url(#gradient_56-3);}.cls-23{fill:url(#gradient_56-4);}.cls-24{fill:url(#gradient_61-2);}.cls-25{fill:url(#gradient_57-18);}.cls-26{fill:url(#gradient_56-5);}.cls-27{fill:url(#gradient_56-6);}.cls-28{fill:url(#gradient_56-7);}.cls-29{fill:url(#gradient_56-8);}.cls-30{fill:url(#gradient_56-9);}.cls-31{fill:url(#gradient_57-19);}.cls-32{fill:url(#gradient_56-10);}.cls-33{fill:url(#gradient_56-11);}.cls-34{fill:url(#gradient_56-12);}.cls-35{fill:url(#gradient_61-3);}.cls-36{fill:url(#gradient_57-20);}.cls-37{fill:url(#gradient_56-13);}.cls-38{fill:url(#gradient_56-14);}.cls-39{fill:url(#gradient_56-15);}.cls-40{fill:url(#gradient_56-16);}.cls-41{fill:url(#gradient_57-21);}.cls-42{fill:url(#gradient_56-17);}.cls-43{fill:url(#gradient_56-18);}.cls-44{fill:url(#gradient_56-19);}.cls-45{fill-opacity:0.01;}.cls-46{fill:url(#gradient_64);}.cls-47{fill:url(#gradient_66);}.cls-48{fill:url(#gradient_61-4);}.cls-49{fill:url(#gradient_66-2);}.cls-50{fill:url(#gradient_66-3);}.cls-51{fill:url(#gradient_66-4);}.cls-52{fill:url(#gradient_15);}.cls-53{fill:url(#gradient_60);}.cls-54{fill:url(#gradient_15-2);}.cls-55{fill:url(#gradient_60-2);}.cls-56{fill:url(#gradient_67);}.cls-57{fill:url(#gradient_60-3);}</style><linearGradient id="gradient_57" x1="245.74" y1="117.89" x2="256.53" y2="117.89" gradientUnits="userSpaceOnUse"><stop offset="0" stop-color="#69bbff"/><stop offset="1" stop-color="#a5cbf9"/></linearGradient><linearGradient id="gradient_57-2" x1="149.74" y1="95.38" x2="543.72" y2="95.38" xlink:href="#gradient_57"/><linearGradient id="gradient_57-3" x1="65.75" y1="93.38" x2="503.72" y2="93.38" xlink:href="#gradient_57"/><linearGradient id="gradient_57-4" x1="109.74" y1="143.37" x2="265.1" y2="143.37" xlink:href="#gradient_57"/><linearGradient id="gradient_57-5" x1="261.74" y1="95.38" x2="487.72" y2="95.38" xlink:href="#gradient_57"/><linearGradient id="gradient_57-6" x1="266.99" y1="67.74" x2="340.32" y2="67.74" xlink:href="#gradient_57"/><linearGradient id="gradient_57-7" x1="232.93" y1="70.55" x2="264.52" y2="70.55" xlink:href="#gradient_57"/><linearGradient id="gradient_57-8" x1="257.45" y1="139.52" x2="306.13" y2="139.52" xlink:href="#gradient_57"/><linearGradient id="gradient_57-9" x1="307.93" y1="131.6" x2="322.86" y2="131.6" xlink:href="#gradient_57"/><linearGradient id="gradient_57-10" x1="265.25" y1="123.63" x2="289.24" y2="123.63" xlink:href="#gradient_57"/><linearGradient id="gradient_57-11" x1="292.46" y1="113.73" x2="311.73" y2="113.73" xlink:href="#gradient_57"/><linearGradient id="gradient_57-12" x1="277.74" y1="105.38" x2="295.73" y2="105.38" xlink:href="#gradient_57"/><linearGradient id="gradient_57-13" x1="237.74" y1="105.38" x2="335.73" y2="105.38" xlink:href="#gradient_57"/><linearGradient id="gradient_57-14" x1="253.74" y1="105.38" x2="319.73" y2="105.38" xlink:href="#gradient_57"/><linearGradient id="gradient_57-15" x1="268.74" y1="105.38" x2="304.73" y2="105.38" xlink:href="#gradient_57"/><linearGradient id="gradient_61" x1="-649.32" y1="1052.87" x2="-650.3" y2="1053.55" gradientTransform="matrix(68, 0, 0, -56, 44226, 59077.72)" gradientUnits="userSpaceOnUse"><stop offset="0" stop-color="#69bbff"/><stop offset="1" stop-color="#257aff"/></linearGradient><linearGradient id="gradient_57-16" x1="-649.32" y1="1052.87" x2="-650.3" y2="1053.55" gradientTransform="matrix(68, 0, 0, -56, 44220, 59071.72)" xlink:href="#gradient_57"/><linearGradient id="gradient_56" x1="-639.27" y1="1038.29" x2="-638.42" y2="1037.57" gradientTransform="matrix(32, 0, 0, -28, 20478, 29160.81)" gradientUnits="userSpaceOnUse"><stop offset="0" stop-color="#fff" stop-opacity="0.8"/><stop offset="1" stop-color="#fff" stop-opacity="0.2"/></linearGradient><linearGradient id="gradient_57-17" x1="-650.29" y1="973.87" x2="-649.29" y2="973.85" gradientTransform="matrix(68, 0, 0, -9, 44220, 8833.9)" xlink:href="#gradient_57"/><linearGradient id="gradient_56-2" x1="-439" y1="784.31" x2="-440" y2="785.31" gradientTransform="matrix(3, 0, 0, -3, 1323, 2423.56)" xlink:href="#gradient_56"/><linearGradient id="gradient_56-3" x1="-439" y1="784.31" x2="-440" y2="785.31" gradientTransform="matrix(3, 0, 0, -3, 1328, 2423.56)" xlink:href="#gradient_56"/><linearGradient id="gradient_56-4" x1="-439" y1="784.31" x2="-440" y2="785.31" gradientTransform="matrix(3, 0, 0, -3, 1333, 2423.56)" xlink:href="#gradient_56"/><linearGradient id="gradient_61-2" x1="-649.32" y1="1052.87" x2="-650.3" y2="1053.55" gradientTransform="matrix(68, 0, 0, -56, 44275, 59158.72)" xlink:href="#gradient_61"/><linearGradient id="gradient_57-18" x1="-649.32" y1="1052.87" x2="-650.3" y2="1053.55" gradientTransform="matrix(68, 0, 0, -56, 44269, 59152.72)" xlink:href="#gradient_57"/><linearGradient id="gradient_56-5" x1="-631.12" y1="1039.57" x2="-630.49" y2="1038.55" gradientTransform="matrix(23, 0, 0, -29, 14577, 30308.69)" xlink:href="#gradient_56"/><linearGradient id="gradient_56-6" x1="-611.86" y1="784.79" x2="-612.86" y2="784.84" gradientTransform="matrix(14, 0, 0, -3, 8666, 2517.56)" xlink:href="#gradient_56"/><linearGradient id="gradient_56-7" x1="-630.3" y1="784.8" x2="-631.3" y2="784.82" gradientTransform="matrix(23, 0, 0, -3, 14606, 2526.56)" xlink:href="#gradient_56"/><linearGradient id="gradient_56-8" x1="-630.3" y1="784.8" x2="-631.3" y2="784.82" gradientTransform="matrix(23, 0, 0, -3, 14606, 2532.56)" xlink:href="#gradient_56"/><linearGradient id="gradient_56-9" x1="-593" y1="784.77" x2="-594" y2="784.86" gradientTransform="matrix(10, 0, 0, -3, 6026, 2538.56)" xlink:href="#gradient_56"/><linearGradient id="gradient_57-19" x1="-650.29" y1="973.87" x2="-649.29" y2="973.85" gradientTransform="matrix(68, 0, 0, -9, 44269, 8914.9)" xlink:href="#gradient_57"/><linearGradient id="gradient_56-10" x1="-439" y1="784.31" x2="-440" y2="785.31" gradientTransform="matrix(3, 0, 0, -3, 1372, 2504.56)" xlink:href="#gradient_56"/><linearGradient id="gradient_56-11" x1="-439" y1="784.31" x2="-440" y2="785.31" gradientTransform="matrix(3, 0, 0, -3, 1377, 2504.56)" xlink:href="#gradient_56"/><linearGradient id="gradient_56-12" x1="-439" y1="784.31" x2="-440" y2="785.31" gradientTransform="matrix(3, 0, 0, -3, 1382, 2504.56)" xlink:href="#gradient_56"/><linearGradient id="gradient_61-3" x1="-649.32" y1="1052.87" x2="-650.3" y2="1053.55" gradientTransform="matrix(68, 0, 0, -56, 44312, 59012.72)" xlink:href="#gradient_61"/><linearGradient id="gradient_57-20" x1="-649.32" y1="1052.87" x2="-650.3" y2="1053.55" gradientTransform="matrix(68, 0, 0, -56, 44306, 59006.72)" xlink:href="#gradient_57"/><linearGradient id="gradient_56-13" x1="-639" y1="855.7" x2="-640" y2="855.71" gradientTransform="matrix(33, 0, 0, -4, 21214, 3440.45)" xlink:href="#gradient_56"/><linearGradient id="gradient_56-14" x1="-646.31" y1="855.7" x2="-647.31" y2="855.71" gradientTransform="matrix(52, 0, 0, -4, 33754, 3449.45)" xlink:href="#gradient_56"/><linearGradient id="gradient_56-15" x1="-642.08" y1="855.7" x2="-643.08" y2="855.71" gradientTransform="matrix(39, 0, 0, -4, 25174, 3458.45)" xlink:href="#gradient_56"/><linearGradient id="gradient_56-16" x1="-629" y1="855.69" x2="-630" y2="855.72" gradientTransform="matrix(22, 0, 0, -4, 13954, 3467.45)" xlink:href="#gradient_56"/><linearGradient id="gradient_57-21" x1="-650.29" y1="973.87" x2="-649.29" y2="973.85" gradientTransform="matrix(68, 0, 0, -9, 44306, 8768.9)" xlink:href="#gradient_57"/><linearGradient id="gradient_56-17" x1="-439" y1="784.31" x2="-440" y2="785.31" gradientTransform="matrix(3, 0, 0, -3, 1409, 2358.56)" xlink:href="#gradient_56"/><linearGradient id="gradient_56-18" x1="-439" y1="784.31" x2="-440" y2="785.31" gradientTransform="matrix(3, 0, 0, -3, 1414, 2358.56)" xlink:href="#gradient_56"/><linearGradient id="gradient_56-19" x1="-439" y1="784.31" x2="-440" y2="785.31" gradientTransform="matrix(3, 0, 0, -3, 1419, 2358.56)" xlink:href="#gradient_56"/><linearGradient id="gradient_64" x1="5.1" y1="526.39" x2="4.65" y2="526.73" gradientTransform="matrix(183.33, 0, 0, -183.33, -356.33, 96658.45)" gradientUnits="userSpaceOnUse"><stop offset="0" stop-color="#69bbff" stop-opacity="0.5"/><stop offset="1" stop-color="#257aff" stop-opacity="0"/></linearGradient><linearGradient id="gradient_66" x1="5.59" y1="525.88" x2="4.9" y2="526.67" gradientTransform="matrix(150, 0, 0, -150, -273, 79045.46)" gradientUnits="userSpaceOnUse"><stop offset="0" stop-color="#69bbff"/><stop offset="1" stop-color="#257aff" stop-opacity="0"/></linearGradient><linearGradient id="gradient_61-4" x1="8.08" y1="525.84" x2="7.87" y2="526.72" gradientTransform="matrix(75, 0, 0, -150, -85.5, 79045.46)" xlink:href="#gradient_61"/><linearGradient id="gradient_66-2" x1="8.17" y1="525.85" x2="8.02" y2="526.6" gradientTransform="matrix(75, 0, 0, -150, -123, 79045.46)" xlink:href="#gradient_66"/><linearGradient id="gradient_66-3" x1="7.04" y1="531.56" x2="6.74" y2="530.83" gradientTransform="matrix(0, 75, 150, 0, -79156.46, -438)" xlink:href="#gradient_66"/><linearGradient id="gradient_66-4" x1="4.74" y1="522.53" x2="4.74" y2="523.32" gradientTransform="matrix(183.33, 0, 0, -58.33, -356.33, 30609.74)" xlink:href="#gradient_66"/><linearGradient id="gradient_15" x1="8.63" y1="524.67" x2="8.93" y2="523.95" gradientTransform="matrix(66.67, 0, 0, -79.92, -101.33, 41963.38)" gradientUnits="userSpaceOnUse"><stop offset="0" stop-color="#c7e8ff"/><stop offset="1" stop-color="#257aff"/></linearGradient><linearGradient id="gradient_60" x1="14.68" y1="518.94" x2="15.19" y2="518.33" gradientTransform="matrix(33.33, 0, 0, -33.1, -18, 17220.14)" gradientUnits="userSpaceOnUse"><stop offset="0" stop-color="#257aff"/><stop offset="1" stop-color="#c7e8ff"/></linearGradient><linearGradient id="gradient_15-2" x1="11.06" y1="523.13" x2="11.37" y2="522.42" gradientTransform="matrix(46.67, 0, 0, -56.33, 22, 29534.27)" xlink:href="#gradient_15"/><linearGradient id="gradient_60-2" x1="19.61" y1="515.05" x2="20.12" y2="514.43" gradientTransform="matrix(23.33, 0, 0, -23.33, 80.33, 12093.72)" xlink:href="#gradient_60"/><linearGradient id="gradient_67" x1="16.05" y1="520.09" x2="16.36" y2="519.39" gradientTransform="matrix(30, 0, 0, -36.21, 27, 18933.88)" xlink:href="#gradient_15"/><linearGradient id="gradient_60-3" x1="29.6" y1="507.72" x2="30.12" y2="507.08" gradientTransform="matrix(15, 0, 0, -15, 64.5, 7722.1)" xlink:href="#gradient_60"/></defs><title>proxy-01</title><g id="Group-29"><path id="Stroke-15" class="cls-1" d="M255.53,130.4a39.82,39.82,0,0,1-8.79-25"/><path id="Stroke-3" class="cls-2" d="M150.74,29.38h17a7,7,0,0,1,7,7v62a7,7,0,0,0,7,7h42.39a7,7,0,0,1,6.94,6.17,56,56,0,0,0,111.33,0,7,7,0,0,1,6.94-6.17H542.72"/><path id="Stroke-5" class="cls-3" d="M502.72,113.38h-29a7,7,0,0,1-7-7v-10a7,7,0,0,0-7-7h-30a7,7,0,0,0-7,7v18a7,7,0,0,1-7,7H323.4l.19-.43a40,40,0,1,0-75-27.57H66.75"/><path id="Stroke-7" class="cls-4" d="M110.74,173.37h37a7,7,0,0,0,7-7v-46a7,7,0,0,1,7-7H264.1"/><path id="Stroke-9" class="cls-5" d="M486.72,77.38h-77a7,7,0,0,0-7,7v2a7,7,0,0,1-7,7H307.52a24,24,0,0,0-43.42,20"/><path id="Stroke-11" class="cls-6" d="M268,52.6a56,56,0,0,1,71.33,33.49"/><path id="Stroke-13" class="cls-7" d="M233.93,86.7a56.2,56.2,0,0,1,29.59-32.3"/><path id="Stroke-17" class="cls-8" d="M305.13,140.9a40,40,0,0,1-46.68-7.24"/><path id="Stroke-19" class="cls-9" d="M321.86,124.53a40.31,40.31,0,0,1-12.93,14.13"/><path id="Stroke-23" class="cls-10" d="M288.24,129.33c-.5,0-1,0-1.5,0a24,24,0,0,1-20.49-11.49"/><path id="Stroke-25" class="cls-11" d="M309.89,99.05a24,24,0,0,1-16.43,29.37"/><path id="Stroke-27" class="cls-12" d="M294.73,105.38a8,8,0,1,1-8-8A8,8,0,0,1,294.73,105.38Z"/><path id="Shape" class="cls-13" d="M314,65.83a48.19,48.19,0,0,1,17.29,21.53m3,11.19a48.06,48.06,0,0,1,.48,6.83h0a48,48,0,0,1-1.16,10.52m-3.66,10.46a47.74,47.74,0,0,1-6.78,10.31M320,140a48.08,48.08,0,0,1-52,9.62m-4-1.92a48.08,48.08,0,0,1-23.19-28.27m-1.93-10.11q-.15-1.94-.15-3.9a48.35,48.35,0,0,1,.64-7.85M242,88a48.21,48.21,0,0,1,9.53-15.21m4.1-3.93a48,48,0,0,1,53.41-6"/><path id="Shape-2" data-name="Shape" class="cls-14" d="M254.87,108.28c-.09-1-.13-1.93-.13-2.9a32,32,0,0,1,14.12-26.55m4.08-2.33a32,32,0,0,1,40.39,11.09m4.48,10.12a32.22,32.22,0,0,1,.92,7.67h0a32,32,0,0,1-2.39,12.17m-2.54,4.9a32,32,0,0,1-56.45-4.4"/><path id="Stroke-27-2" data-name="Stroke-27" class="cls-15" d="M303.73,105.38a17,17,0,1,1-17-17A17,17,0,0,1,303.73,105.38Z"/></g><g id="Group-14"><rect id="Mask" class="cls-16" x="6" y="70.63" width="68" height="56" rx="4"/><rect id="Mask-2" data-name="Mask" class="cls-17" y="64.63" width="68" height="56" rx="4"/><rect id="Mask-3" data-name="Mask" class="cls-18" y="64.63" width="68" height="56" rx="4"/><path id="Shape-3" data-name="Shape" class="cls-19" d="M26.4,91.78l1.44.47h.26l.29-1.43a5.31,5.31,0,0,1,.18-.64L27.44,88l1.32-3.9A.87.87,0,0,0,28.2,83l-.84-.28a.9.9,0,0,0-1.13.56l-1.44,4.24a1.73,1.73,0,0,0,.1,1.34Zm23.45,10-2.93-4.32a1.79,1.79,0,0,0-1.48-.78H41.11l3.83-1.33a1.82,1.82,0,0,0,.92-.69l3-4.4A.86.86,0,0,0,48.59,89l-.74-.49a.89.89,0,0,0-1.23.24L43.81,92.9,40.45,94h-2l-.57-2.83a3.92,3.92,0,0,0-7.74,0L29.55,94h-2l-3.36-1.1-2.81-4.15a.89.89,0,0,0-1.23-.24l-.74.49a.86.86,0,0,0-.25,1.21l3,4.4a1.84,1.84,0,0,0,.91.69l3.84,1.33H22.56a1.77,1.77,0,0,0-1.48.78l-2.93,4.32A.87.87,0,0,0,18.4,103l.73.48a.91.91,0,0,0,1.24-.24L23,99.25h2.62l-3.38,5.33a1.65,1.65,0,0,0-.27.92v4.25a.88.88,0,0,0,.89.88h.89a.88.88,0,0,0,.89-.88v-4l4.11-6.48c-.06.77-.11,1.54-.11,2.31a5.33,5.33,0,1,0,10.66,0c0-.77-.06-1.54-.11-2.31l4.11,6.48v4a.88.88,0,0,0,.89.88h.89a.88.88,0,0,0,.89-.88V105.5a1.8,1.8,0,0,0-.27-.93l-3.38-5.32H45l2.67,3.94a.89.89,0,0,0,1.23.24l.74-.48a.87.87,0,0,0,.25-1.22ZM40.56,88l-1.13,2.22a5.31,5.31,0,0,1,.18.64l.29,1.43h.26l1.44-.47,1.51-3a1.73,1.73,0,0,0,.09-1.34l-1.43-4.24a.9.9,0,0,0-1.13-.56L39.8,83a.87.87,0,0,0-.56,1.11Z"/><path id="Rectangle" class="cls-20" d="M4,64.63H64a4,4,0,0,1,4,4v5H0v-5A4,4,0,0,1,4,64.63Z"/><circle id="Oval" class="cls-21" cx="4.5" cy="69.13" r="1.5"/><circle id="Oval-2" data-name="Oval" class="cls-22" cx="9.5" cy="69.13" r="1.5"/><circle id="Oval-3" data-name="Oval" class="cls-23" cx="14.5" cy="69.13" r="1.5"/></g><g id="Group-14-2" data-name="Group-14"><rect id="Mask-4" data-name="Mask" class="cls-24" x="55" y="151.62" width="68" height="56" rx="4"/><rect id="Mask-5" data-name="Mask" class="cls-17" x="49" y="145.62" width="68" height="56" rx="4"/><rect id="Mask-6" data-name="Mask" class="cls-25" x="49" y="145.62" width="68" height="56" rx="4"/><rect id="Rectangle-2" data-name="Rectangle" class="cls-26" x="57" y="161.62" width="23" height="29" rx="3"/><path id="Rectangle-3" data-name="Rectangle" class="cls-27" d="M87.5,161.62h11a1.5,1.5,0,0,1,1.5,1.5h0a1.5,1.5,0,0,1-1.5,1.5h-11a1.5,1.5,0,0,1-1.5-1.5h0A1.5,1.5,0,0,1,87.5,161.62Z"/><path id="Rectangle-4" data-name="Rectangle" class="cls-28" d="M87.5,170.62h20a1.5,1.5,0,0,1,1.5,1.5h0a1.5,1.5,0,0,1-1.5,1.5h-20a1.5,1.5,0,0,1-1.5-1.5h0A1.5,1.5,0,0,1,87.5,170.62Z"/><path id="Rectangle-5" data-name="Rectangle" class="cls-29" d="M87.5,176.62h20a1.5,1.5,0,0,1,1.5,1.5h0a1.5,1.5,0,0,1-1.5,1.5h-20a1.5,1.5,0,0,1-1.5-1.5h0A1.5,1.5,0,0,1,87.5,176.62Z"/><path id="Rectangle-6" data-name="Rectangle" class="cls-30" d="M87.5,182.62h7a1.5,1.5,0,0,1,1.49,1.5h0a1.5,1.5,0,0,1-1.49,1.5h-7a1.5,1.5,0,0,1-1.5-1.5h0A1.5,1.5,0,0,1,87.5,182.62Z"/><path id="Rectangle-7" data-name="Rectangle" class="cls-31" d="M53,145.62h60a4,4,0,0,1,4,4v5H49v-5A4,4,0,0,1,53,145.62Z"/><circle id="Oval-4" data-name="Oval" class="cls-32" cx="53.5" cy="150.12" r="1.5"/><circle id="Oval-5" data-name="Oval" class="cls-33" cx="58.5" cy="150.12" r="1.5"/><circle id="Oval-6" data-name="Oval" class="cls-34" cx="63.5" cy="150.12" r="1.5"/></g><g id="Group-14-3" data-name="Group-14"><rect id="Mask-7" data-name="Mask" class="cls-35" x="92" y="5.63" width="68" height="56" rx="4"/><rect id="Mask-8" data-name="Mask" class="cls-17" x="86" y="-0.37" width="68" height="56" rx="4"/><rect id="Mask-9" data-name="Mask" class="cls-36" x="86" y="-0.37" width="68" height="56" rx="4"/><path id="Rectangle-8" data-name="Rectangle" class="cls-37" d="M96,15.63h29a2,2,0,0,1,2,2h0a2,2,0,0,1-2,2H96a2,2,0,0,1-2-2h0A2,2,0,0,1,96,15.63Z"/><path id="Rectangle-9" data-name="Rectangle" class="cls-38" d="M96,24.63h48a2,2,0,0,1,2,2h0a2,2,0,0,1-2,2H96a2,2,0,0,1-2-2h0A2,2,0,0,1,96,24.63Z"/><path id="Rectangle-10" data-name="Rectangle" class="cls-39" d="M96,33.63h35a2,2,0,0,1,2,2h0a2,2,0,0,1-2,2H96a2,2,0,0,1-2-2h0A2,2,0,0,1,96,33.63Z"/><path id="Rectangle-11" data-name="Rectangle" class="cls-40" d="M96,42.63h18a2,2,0,0,1,2,2h0a2,2,0,0,1-2,2H96a2,2,0,0,1-2-2h0A2,2,0,0,1,96,42.63Z"/><path id="Rectangle-12" data-name="Rectangle" class="cls-41" d="M90-.37h60a4,4,0,0,1,4,4v5H86v-5A4,4,0,0,1,90-.37Z"/><circle id="Oval-7" data-name="Oval" class="cls-42" cx="90.5" cy="4.13" r="1.5"/><circle id="Oval-8" data-name="Oval" class="cls-43" cx="95.5" cy="4.13" r="1.5"/><circle id="Oval-9" data-name="Oval" class="cls-44" cx="100.49" cy="4.13" r="1.5"/></g><rect id="Rectangle-13" data-name="Rectangle" class="cls-45" x="425.61" y="16.33" width="174.14" height="174.14"/><circle id="Oval-10" data-name="Oval" class="cls-46" cx="512.68" cy="103.41" r="79.82"/><circle id="Oval-11" data-name="Oval" class="cls-47" cx="512.68" cy="103.41" r="65.3"/><ellipse id="Oval-12" data-name="Oval" class="cls-48" cx="512.68" cy="103.41" rx="32.65" ry="65.3"/><path id="Combined-Shape" class="cls-49" d="M512.68,38.1V168.71a65.31,65.31,0,0,1,0-130.61Z"/><path id="Combined-Shape-2" data-name="Combined-Shape" class="cls-50" d="M578,103.41H447.38a65.3,65.3,0,1,1,130.6,0Z"/><ellipse id="Oval-13" data-name="Oval" class="cls-51" cx="512.68" cy="103.41" rx="79.82" ry="25.4"/><path id="Fill-1" class="cls-52" d="M501.28,32a29.18,29.18,0,0,0-41,0,28.69,28.69,0,0,0,0,40.76l20.52,20.39,20.53-20.39a28.69,28.69,0,0,0,0-40.76"/><path id="Fill-4" class="cls-53" d="M491,62.6a14.59,14.59,0,0,1-20.53,0,14.35,14.35,0,0,1,0-20.38,14.59,14.59,0,0,1,20.53,0,14.35,14.35,0,0,1,0,20.38"/><path id="Fill-1-2" data-name="Fill-1" class="cls-54" d="M559,69.45a20.32,20.32,0,0,0-28.73,28.73l14.37,14.37L559,98.18a20.3,20.3,0,0,0,0-28.73"/><path id="Fill-4-2" data-name="Fill-4" class="cls-55" d="M551.79,91a10.16,10.16,0,1,1,0-14.37,10.18,10.18,0,0,1,0,14.37"/><path id="Fill-1-3" data-name="Fill-1" class="cls-56" d="M521.92,102.15a13.06,13.06,0,1,0-18.47,18.47l9.23,9.24,9.24-9.24a13.06,13.06,0,0,0,0-18.47"/><path id="Fill-4-3" data-name="Fill-4" class="cls-57" d="M517.64,116.34a6.73,6.73,0,1,1,0-9.51,6.73,6.73,0,0,1,0,9.51"/></svg>
