<svg width="16" height="16" viewBox="0 0 16 16" fill="none" xmlns="http://www.w3.org/2000/svg">
<path d="M4.66602 6.44463C4.66602 5.97307 4.85334 5.52083 5.18678 5.18739C5.52022 4.85395 5.97246 4.66663 6.44402 4.66663H12.2213C12.4548 4.66663 12.686 4.71262 12.9018 4.80197C13.1175 4.89132 13.3135 5.02229 13.4786 5.18739C13.6437 5.35249 13.7747 5.5485 13.864 5.76421C13.9534 5.97993 13.9993 6.21114 13.9993 6.44463V12.222C13.9993 12.4554 13.9534 12.6867 13.864 12.9024C13.7747 13.1181 13.6437 13.3141 13.4786 13.4792C13.3135 13.6443 13.1175 13.7753 12.9018 13.8646C12.686 13.954 12.4548 14 12.2213 14H6.44402C6.21053 14 5.97932 13.954 5.7636 13.8646C5.54789 13.7753 5.35188 13.6443 5.18678 13.4792C5.02168 13.3141 4.89071 13.1181 4.80136 12.9024C4.71201 12.6867 4.66602 12.4554 4.66602 12.222V6.44463Z" stroke="#3D3F43" stroke-width="1.33333" stroke-linecap="round" stroke-linejoin="round"/>
<path d="M2.67467 11.158C2.47023 11.0415 2.30018 10.873 2.18172 10.6697C2.06325 10.4663 2.00057 10.2353 2 10V3.33333C2 2.6 2.6 2 3.33333 2H10C10.5 2 10.772 2.25667 11 2.66667" stroke="#3D3F43" stroke-width="1.33333" stroke-linecap="round" stroke-linejoin="round"/>
</svg>
