<svg width="20" height="20" viewBox="0 0 20 20" fill="none" xmlns="http://www.w3.org/2000/svg">
<g id="ExternalLink_20">
<g id="shape">
<path d="M11.125 3.12488C11.1251 2.71067 11.4609 2.37494 11.8751 2.375L16.8408 2.37578C17.044 2.36656 17.2502 2.43952 17.4053 2.59467C17.5605 2.74982 17.6334 2.95603 17.6242 3.15921L17.625 8.12488C17.6251 8.5391 17.2893 8.87494 16.8751 8.875C16.4609 8.87506 16.1251 8.53933 16.125 8.12512L16.1245 4.93616L11.1553 9.90533C10.8624 10.1982 10.3876 10.1982 10.0947 9.90533C9.80178 9.61244 9.80178 9.13756 10.0947 8.84467L15.0638 3.8755L11.8749 3.875C11.4607 3.87494 11.1249 3.5391 11.125 3.12488Z" fill="#555D76"/>
<path d="M3.875 7.125C3.875 6.71079 4.21079 6.375 4.625 6.375H9.38C9.79421 6.375 10.13 6.03921 10.13 5.625C10.13 5.21079 9.79421 4.875 9.38 4.875H4.625C3.38236 4.875 2.375 5.88236 2.375 7.125V15.375C2.375 16.6176 3.38236 17.625 4.625 17.625H12.875C14.1176 17.625 15.125 16.6176 15.125 15.375V10.63C15.125 10.2158 14.7892 9.88 14.375 9.88C13.9608 9.88 13.625 10.2158 13.625 10.63V15.375C13.625 15.7892 13.2892 16.125 12.875 16.125H4.625C4.21079 16.125 3.875 15.7892 3.875 15.375V7.125Z" fill="#555D76"/>
</g>
</g>
</svg>
