<svg width="24" height="24" viewBox="0 0 24 24" fill="none" xmlns="http://www.w3.org/2000/svg">
<path d="M24 12C24 15.1826 22.7357 18.2348 20.4853 20.4853C18.2348 22.7357 15.1826 24 12 24C8.8174 24 5.76516 22.7357 3.51472 20.4853C1.26428 18.2348 4.80374e-07 15.1826 0 12C-1.32143e-07 10.4241 0.310389 8.86371 0.913445 7.4078C1.5165 5.95189 2.40042 4.62902 3.51472 3.51472C4.62902 2.40042 5.95189 1.5165 7.4078 0.913445C8.86371 0.310389 10.4241 -5.28571e-08 12 0C13.5759 -2.64285e-08 15.1363 0.310389 16.5922 0.913445C18.0481 1.5165 19.371 2.40042 20.4853 3.51472C21.5996 4.62902 22.4835 5.95189 23.0866 7.4078C23.6896 8.86371 24 10.4241 24 12Z" fill="black"/>
<path d="M21.5163 11.9999C21.5163 14.5234 20.5138 16.9436 18.7294 18.728C16.945 20.5124 14.5248 21.5148 12.0013 21.5148C9.47778 21.5148 7.05761 20.5124 5.2732 18.728C3.4888 16.9436 2.48633 14.5234 2.48633 11.9999C2.48633 10.7503 2.73244 9.51303 3.21061 8.35862C3.68879 7.20421 4.38965 6.15529 5.2732 5.27174C6.15675 4.38819 7.20568 3.68732 8.36009 3.20915C9.5145 2.73098 10.7518 2.48486 12.0013 2.48486C13.2508 2.48486 14.4881 2.73098 15.6425 3.20915C16.797 3.68732 17.8459 4.38819 18.7294 5.27174C19.613 6.15529 20.3138 7.20421 20.792 8.35862C21.2702 9.51303 21.5163 10.7503 21.5163 11.9999Z" fill="white"/>
<path d="M18.9643 12.0002C18.9643 13.8473 18.2305 15.6188 16.9244 16.9249C15.6183 18.231 13.8469 18.9648 11.9997 18.9648C10.1526 18.9648 8.38115 18.231 7.07503 16.9249C5.76892 15.6188 5.03516 13.8473 5.03516 12.0002C5.03516 11.0856 5.2153 10.18 5.5653 9.33499C5.91531 8.49001 6.42831 7.72224 7.07503 7.07552C7.72176 6.4288 8.48952 5.91579 9.33451 5.56579C10.1795 5.21579 11.0851 5.03564 11.9997 5.03564C12.9143 5.03564 13.82 5.21579 14.665 5.56579C15.5099 5.91579 16.2777 6.4288 16.9244 7.07552C17.5712 7.72224 18.0842 8.49001 18.4342 9.335C18.7842 10.18 18.9643 11.0856 18.9643 12.0002Z" fill="black"/>
<path d="M16.545 12C16.545 13.2054 16.0662 14.3615 15.2138 15.2138C14.3615 16.0662 13.2054 16.545 12 16.545C10.7946 16.545 9.63861 16.0662 8.78627 15.2138C7.93392 14.3615 7.45508 13.2054 7.45508 12C7.45508 11.4032 7.57264 10.8122 7.80104 10.2608C8.02945 9.70934 8.36423 9.2083 8.78626 8.78627C9.2083 8.36423 9.70934 8.02945 10.2608 7.80104C10.8122 7.57264 11.4032 7.45508 12 7.45508C12.5969 7.45508 13.1879 7.57264 13.7393 7.80104C14.2907 8.02945 14.7918 8.36423 15.2138 8.78627C15.6358 9.2083 15.9706 9.70934 16.199 10.2608C16.4274 10.8122 16.545 11.4032 16.545 12Z" fill="white"/>
<path d="M7.97852 16.3818C10.7905 19.0957 10.3654 23.5099 10.3654 23.5099" stroke="black" stroke-width="2.0712"/>
<path d="M14.8398 1.88037C17.6518 4.59427 17.2268 9.00844 17.2268 9.00844" stroke="black" stroke-width="2.0712"/>
<path d="M12.666 10.8418C15.478 13.5557 14.6368 17.5537 14.6368 17.5537" stroke="black" stroke-width="2.0712"/>
<path d="M14.3871 12.0002C14.3871 12.6333 14.1356 13.2404 13.688 13.688C13.2404 14.1356 12.6333 14.3871 12.0002 14.3871C11.3672 14.3871 10.76 14.1356 10.3124 13.688C9.86476 13.2404 9.61328 12.6333 9.61328 12.0002C9.61328 11.6867 9.67502 11.3764 9.79497 11.0868C9.91493 10.7972 10.0907 10.534 10.3124 10.3124C10.534 10.0907 10.7972 9.91493 11.0868 9.79497C11.3764 9.67502 11.6867 9.61328 12.0002 9.61328C12.6333 9.61328 13.2404 9.86476 13.688 10.3124C14.1356 10.76 14.3871 11.3672 14.3871 12.0002Z" fill="#800000"/>
<path d="M8.85562 7.08545C4.01638 9.53777 2.67578 17.4179 2.67578 17.4179" stroke="black" stroke-width="2.0712"/>
</svg>
