<svg width="20" height="24" viewBox="0 0 20 24" fill="none" xmlns="http://www.w3.org/2000/svg">
<path d="M15.131 12.9371L10.6835 17.2867V0.573427C10.6835 0.181818 10.5016 0 10.2639 0C10.0261 0 9.76037 0.181818 9.76037 0.573427L9.81632 17.2867L5.48065 12.9371C4.96317 12.4196 4.34778 13.0629 4.85128 13.5804L10.3478 19.0769C14.2639 15.1608 11.9702 17.4825 15.8723 13.5804C16.3897 13.0629 15.6345 12.4196 15.131 12.9371Z" fill="#43DEA4"/>
<path d="M19.8307 13.7205C20.0125 19.5387 15.481 24.0002 10.2502 24.0002C5.04745 24.0002 0.515976 19.5387 0.669822 13.7205C0.809683 9.28695 3.52297 5.32891 7.83066 4.29395C7.92856 4.58765 7.98451 4.90933 8.05444 5.23101C4.06842 6.07017 1.80269 9.66458 1.6908 13.7485C1.53695 18.9373 5.57891 23.0632 10.2502 23.0632C14.9495 23.0632 18.9915 18.9373 18.8377 13.7485C18.7258 9.84639 16.2223 6.36388 12.4461 5.3429C12.488 4.99325 12.5719 4.71353 12.6558 4.39185C16.8377 5.55269 19.7188 9.39884 19.8307 13.7205Z" fill="#8085BB"/>
</svg>
