<svg width="1440" height="856" viewBox="0 0 1440 856" fill="none" xmlns="http://www.w3.org/2000/svg">
<g clip-path="url(#clip0_5996_7899)">
<g filter="url(#filter0_f_5996_7899)">
<path d="M15.3229 359.655C4.15516 361.198 -6.01463 367.099 -12.9502 376.06C-19.8857 385.021 -23.0191 396.309 -21.6614 407.441V407.441L0.496413 586.458L110.012 346.49L15.3229 359.655Z" fill="url(#paint0_linear_5996_7899)"/>
</g>
<g filter="url(#filter1_f_5996_7899)">
<path d="M662.022 -43.0675L555.393 -35.9712C546.721 -35.3717 538.657 -31.3079 532.964 -24.6688C527.271 -18.0296 524.413 -9.35545 525.016 -0.543549C525.044 0.201603 525.123 0.944123 525.255 1.67845L529.611 33.7295L684.933 -35.6573C678.476 -40.9737 670.29 -43.6213 662.022 -43.0675V-43.0675Z" fill="url(#paint1_linear_5996_7899)"/>
</g>
<g filter="url(#filter2_f_5996_7899)">
<path d="M1286.58 400.56C1293.93 401.407 1301.37 400.306 1308.18 397.364L1464.55 330.294L1390.13 160.837L1286.58 400.56Z" fill="url(#paint2_linear_5996_7899)"/>
</g>
</g>
<defs>
<filter id="filter0_f_5996_7899" x="-141.972" y="226.49" width="371.983" height="479.968" filterUnits="userSpaceOnUse" color-interpolation-filters="sRGB">
<feFlood flood-opacity="0" result="BackgroundImageFix"/>
<feBlend mode="normal" in="SourceGraphic" in2="BackgroundImageFix" result="shape"/>
<feGaussianBlur stdDeviation="60" result="effect1_foregroundBlur_5996_7899"/>
</filter>
<filter id="filter1_f_5996_7899" x="444.937" y="-123.14" width="319.997" height="236.869" filterUnits="userSpaceOnUse" color-interpolation-filters="sRGB">
<feFlood flood-opacity="0" result="BackgroundImageFix"/>
<feBlend mode="normal" in="SourceGraphic" in2="BackgroundImageFix" result="shape"/>
<feGaussianBlur stdDeviation="40" result="effect1_foregroundBlur_5996_7899"/>
</filter>
<filter id="filter2_f_5996_7899" x="1166.58" y="40.8374" width="417.967" height="480" filterUnits="userSpaceOnUse" color-interpolation-filters="sRGB">
<feFlood flood-opacity="0" result="BackgroundImageFix"/>
<feBlend mode="normal" in="SourceGraphic" in2="BackgroundImageFix" result="shape"/>
<feGaussianBlur stdDeviation="60" result="effect1_foregroundBlur_5996_7899"/>
</filter>
<linearGradient id="paint0_linear_5996_7899" x1="44.4756" y1="346.49" x2="44.4756" y2="586.458" gradientUnits="userSpaceOnUse">
<stop stop-color="#00FF85"/>
<stop offset="1" stop-color="#00FF47" stop-opacity="0"/>
</linearGradient>
<linearGradient id="paint1_linear_5996_7899" x1="535.962" y1="25.7372" x2="605.017" y2="-79.8419" gradientUnits="userSpaceOnUse">
<stop stop-color="#00FFF0"/>
<stop offset="1" stop-color="#1672EB"/>
</linearGradient>
<linearGradient id="paint2_linear_5996_7899" x1="1375.56" y1="160.837" x2="1375.56" y2="400.837" gradientUnits="userSpaceOnUse">
<stop stop-color="#F5B315"/>
<stop offset="1" stop-color="#FF2CC4"/>
</linearGradient>
<clipPath id="clip0_5996_7899">
<rect width="1440" height="856" fill="white"/>
</clipPath>
</defs>
</svg>
