<svg width="40" height="40" viewBox="0 0 40 40" fill="none" xmlns="http://www.w3.org/2000/svg">
<g clip-path="url(#clip0_1502_2544)">
<path d="M0 4C0 1.79086 1.79086 0 4 0H36C38.2091 0 40 1.79086 40 4V36C40 38.2091 38.2091 40 36 40H4C1.79086 40 0 38.2091 0 36V4Z" fill="#F7DF1E"/>
<path d="M25.3125 28.9062C26.0938 30.2344 27.1875 31.1719 28.9844 31.1719C30.5469 31.1719 31.5625 30.3906 31.5625 29.2969C31.5625 28.0469 30.5469 27.5781 28.8281 26.7969L27.8906 26.4062C25.1562 25.2344 23.3594 23.8281 23.3594 20.7812C23.3594 17.9688 25.4688 15.7812 28.8281 15.7812C31.25 15.7812 32.9688 16.6406 34.1406 18.8281L31.25 20.7031C30.625 19.5312 29.9219 19.0625 28.8281 19.0625C27.7344 19.0625 27.0312 19.7656 27.0312 20.7031C27.0312 21.7969 27.7344 22.2656 29.375 22.9688L30.3125 23.3594C33.5156 24.7656 35.3125 26.0938 35.3125 29.2969C35.3125 32.6562 32.6562 34.5312 29.0625 34.5312C25.5469 34.5312 23.2812 32.8906 22.1875 30.7031L25.3125 28.9062ZM12.0312 29.2188C12.6562 30.2344 13.125 31.1719 14.4531 31.1719C15.7031 31.1719 16.4844 30.7031 16.4844 28.8281V15.8594H20.2344V28.6719C20.2344 32.5781 17.9688 34.2969 14.6094 34.2969C11.5625 34.2969 9.84375 32.7344 8.98438 30.8594L12.0312 29.2188Z" fill="black"/>
</g>
<defs>
<clipPath id="clip0_1502_2544">
<rect width="40" height="40" fill="white"/>
</clipPath>
</defs>
</svg>
