<svg width="40" height="40" viewBox="0 0 40 40" fill="none" xmlns="http://www.w3.org/2000/svg">
<g clip-path="url(#clip0_1502_2456)">
<path d="M19.7906 0.000328312C18.1388 0.00793474 16.5614 0.147549 15.1734 0.390953C11.0847 1.10685 10.3424 2.60528 10.3424 5.36863V9.01819H20.0045V10.2347H10.3424H6.71623C3.90814 10.2347 1.44929 11.9075 0.680193 15.0896C-0.206949 18.7371 -0.246299 21.0132 0.680193 24.8218C1.36701 27.6567 3.00724 29.6767 5.81533 29.6767H9.1374V25.3017C9.1374 22.141 11.8967 19.353 15.1734 19.353H24.8243C27.5108 19.353 29.6554 17.1608 29.6554 14.4869V5.36863C29.6554 2.77351 27.4464 0.824069 24.8243 0.390953C23.1645 0.117123 21.4423 -0.00727823 19.7906 0.000328312ZM14.5653 2.9356C15.5634 2.9356 16.3784 3.75654 16.3784 4.76595C16.3784 5.77179 15.5634 6.58515 14.5653 6.58515C13.5637 6.58515 12.7523 5.77179 12.7523 4.76595C12.7523 3.75654 13.5637 2.9356 14.5653 2.9356Z" fill="url(#paint0_linear_1502_2456)"/>
<path d="M30.8607 10.2348V14.487C30.8607 17.7837 28.0405 20.5585 24.8246 20.5585H15.1737C12.5302 20.5585 10.3427 22.8008 10.3427 25.4245V34.5428C10.3427 37.138 12.6196 38.6644 15.1737 39.4089C18.2322 40.3002 21.1652 40.4613 24.8246 39.4089C27.2571 38.7109 29.6557 37.3062 29.6557 34.5428V30.8933H20.0048V29.6768H29.6557H34.4868C37.2949 29.6768 38.3413 27.7355 39.3179 24.8219C40.3266 21.8223 40.2837 18.9377 39.3179 15.0897C38.6239 12.3192 37.2985 10.2348 34.4868 10.2348H30.8607ZM25.4327 33.3263C26.4344 33.3263 27.2458 34.1397 27.2458 35.1455C27.2458 36.1549 26.4344 36.9759 25.4327 36.9759C24.4347 36.9759 23.6197 36.1549 23.6197 35.1455C23.6197 34.1397 24.4347 33.3263 25.4327 33.3263Z" fill="url(#paint1_linear_1502_2456)"/>
</g>
<defs>
<linearGradient id="paint0_linear_1502_2456" x1="-1.20371e-07" y1="-1.03629e-07" x2="22.1115" y2="19.0118" gradientUnits="userSpaceOnUse">
<stop stop-color="#5A9FD4"/>
<stop offset="1" stop-color="#306998"/>
</linearGradient>
<linearGradient id="paint1_linear_1502_2456" x1="25.2005" y1="34.8387" x2="17.3021" y2="23.6709" gradientUnits="userSpaceOnUse">
<stop stop-color="#FFD43B"/>
<stop offset="1" stop-color="#FFE873"/>
</linearGradient>
<clipPath id="clip0_1502_2456">
<rect width="40" height="40" fill="white"/>
</clipPath>
</defs>
</svg>
