<svg width="17" height="16" viewBox="0 0 17 16" fill="none" xmlns="http://www.w3.org/2000/svg">
<g clip-path="url(#clip0_419_361)">
<path d="M2.8707 14.1286C2.91931 14.0395 2.95981 13.9504 3.00842 13.8694C3.87525 12.3625 4.74209 10.8557 5.61703 9.35696C5.71424 9.18684 5.70614 9.07342 5.61703 8.89519C5.37399 8.41722 5.16336 7.91494 4.95272 7.42076C4.92032 7.33975 4.89601 7.25874 4.84741 7.12102C4.76639 7.22633 4.70969 7.29924 4.66918 7.37215C4.12639 8.3119 3.59171 9.25165 3.04893 10.1833C2.63576 10.8881 1.82563 11.1635 1.10462 10.8638C1.05601 10.8395 1.01551 10.8071 0.942596 10.7666C1.21804 10.2886 1.47728 9.83494 1.74462 9.37317C2.97601 7.24253 4.20741 5.1038 5.4388 2.97317C6.34614 1.37722 7.71526 0.396965 9.52184 0.0891164C12.4707 -0.421263 15.3061 1.40152 16.0758 4.30177C16.4808 5.84101 16.2864 7.31545 15.5006 8.70076C14.2611 10.8638 13.0054 13.0187 11.7578 15.1818C11.5066 15.6111 11.1502 15.9109 10.656 15.9676C10.3968 16 10.1132 15.9514 9.84589 15.9109C9.65146 15.8785 9.63526 15.7732 9.73247 15.603C10.2591 14.7038 10.7775 13.8046 11.296 12.8972C12.2439 11.2527 13.1998 9.6081 14.1396 7.96355C15.6788 5.29013 14.0666 1.96051 11.0125 1.57165C8.54158 1.2557 6.58108 3.02988 6.28133 5.16861C6.0869 6.57013 6.50007 7.76912 7.46412 8.78177C7.58564 8.90329 7.58564 8.99241 7.50462 9.13823C6.65399 10.5965 5.81956 12.0628 4.96893 13.521C4.54766 14.242 3.72943 14.5175 3.00842 14.2096C2.97601 14.1934 2.93551 14.161 2.8707 14.1286Z" fill="#615EFF"/>
<path d="M12.576 6.33519C12.5841 6.86987 12.4788 7.25063 12.2763 7.59898C10.8099 10.1347 9.33551 12.6704 7.86108 15.2061C7.48032 15.8623 6.78361 16.1377 6.05449 15.9352C5.74665 15.8542 5.73044 15.8137 5.89247 15.5463C7.15627 13.3671 8.42006 11.1878 9.68386 9.0005C9.83778 8.73316 9.83779 8.73316 9.54614 8.63595C8.53348 8.27949 7.95829 7.39645 7.9988 6.28658C8.0312 5.36303 8.75221 4.5043 9.70006 4.24506C11.134 3.8643 12.576 4.96607 12.576 6.33519ZM11.0287 6.48911C11.0368 6.05974 10.7127 5.72759 10.2996 5.71139C9.88639 5.70329 9.54614 6.02734 9.53804 6.4486C9.52994 6.86987 9.84589 7.21012 10.2672 7.22632C10.6722 7.24253 11.0206 6.90227 11.0287 6.48911Z" fill="#615EFF"/>
</g>
<defs>
<clipPath id="clip0_419_361">
<rect width="16" height="16" fill="white" transform="translate(0.934494)"/>
</clipPath>
</defs>
</svg>
