<svg width="24" height="24" viewBox="0 0 24 24" fill="none" xmlns="http://www.w3.org/2000/svg">
<g clip-path="url(#clip0_2924_4634)">
<path d="M11.9997 0.28003C9.14289 0.279181 6.3795 1.29755 4.20642 3.15202C2.03335 5.00648 0.593157 7.57538 0.144818 10.3968C-0.303521 13.2182 0.269408 16.107 1.76058 18.5437C3.25176 20.9805 5.56335 22.8053 8.27969 23.69H8.55969C8.81512 23.7025 9.06563 23.6166 9.25969 23.45C9.37644 23.3483 9.46925 23.2221 9.53149 23.0803C9.59373 22.9386 9.62385 22.7848 9.61969 22.63V22.42C9.61969 22.25 9.61969 22.02 9.61969 21.33C9.61164 21.2651 9.59068 21.2025 9.55805 21.1458C9.52542 21.0891 9.48178 21.0396 9.42969 21C9.37277 20.9545 9.30658 20.9219 9.23575 20.9047C9.16493 20.8874 9.09118 20.8858 9.01969 20.9C6.32969 21.48 5.75969 19.8 5.72969 19.69C5.39143 18.7998 4.78743 18.0352 3.99969 17.5L3.84969 17.39C3.96777 17.333 4.09903 17.3088 4.22969 17.32C4.47891 17.3575 4.71444 17.458 4.91394 17.612C5.11344 17.766 5.27031 17.9684 5.36969 18.2C5.75654 18.8736 6.38957 19.3709 7.1356 19.5872C7.88162 19.8036 8.68249 19.7221 9.36969 19.36C9.44394 19.327 9.50962 19.2774 9.56164 19.215C9.61365 19.1526 9.65062 19.079 9.66969 19C9.71023 18.541 9.90804 18.11 10.2297 17.78C10.3038 17.7161 10.3576 17.6318 10.3842 17.5375C10.4109 17.4433 10.4093 17.3434 10.3797 17.25C10.3524 17.1566 10.2978 17.0733 10.223 17.011C10.1482 16.9487 10.0565 16.91 9.95969 16.9C7.58969 16.63 5.15969 15.8 5.15969 11.71C5.14242 10.6815 5.52205 9.68593 6.21969 8.93003C6.28274 8.86098 6.32472 8.77532 6.34067 8.68318C6.35662 8.59104 6.34587 8.49626 6.30969 8.41003C6.03273 7.62996 6.03627 6.77777 6.31969 6.00003C7.24312 6.16505 8.10993 6.56061 8.83969 7.15003C8.90042 7.19155 8.96987 7.21855 9.0427 7.22895C9.11552 7.23936 9.18976 7.23288 9.25969 7.21003C10.1535 6.97165 11.0746 6.85063 11.9997 6.85003C12.9284 6.84562 13.8534 6.96672 14.7497 7.21003C14.818 7.2328 14.8906 7.23923 14.9618 7.22881C15.033 7.21839 15.1008 7.19141 15.1597 7.15003C15.8885 6.55912 16.7557 6.16337 17.6797 6.00003C17.9544 6.76959 17.9544 7.61047 17.6797 8.38003C17.6435 8.46696 17.6337 8.56261 17.6515 8.65507C17.6693 8.74753 17.7139 8.83272 17.7797 8.90003C18.4665 9.64991 18.842 10.6332 18.8297 11.65C18.8297 15.75 16.3997 16.57 14.0197 16.83C13.9228 16.84 13.8311 16.8787 13.7563 16.941C13.6815 17.0033 13.627 17.0866 13.5997 17.18C13.5709 17.2719 13.5697 17.3701 13.5964 17.4626C13.6231 17.5551 13.6764 17.6377 13.7497 17.7C13.9709 17.9309 14.1398 18.2067 14.2451 18.5087C14.3503 18.8106 14.3894 19.1317 14.3597 19.45V22.63C14.3575 22.7855 14.3894 22.9395 14.4534 23.0812C14.5173 23.2229 14.6117 23.3488 14.7297 23.45C14.8786 23.5635 15.0524 23.64 15.2367 23.673C15.4211 23.706 15.6106 23.6947 15.7897 23.64C18.4749 22.7263 20.7496 20.8909 22.2103 18.4594C23.671 16.028 24.2232 13.1578 23.7689 10.358C23.3147 7.55818 21.8833 5.00978 19.7289 3.1649C17.5744 1.32003 14.8361 0.297963 11.9997 0.28003Z" fill="white"/>
</g>
<defs>
<clipPath id="clip0_2924_4634">
<rect width="24" height="24" fill="white"/>
</clipPath>
</defs>
</svg>
