<svg width="17" height="16" viewBox="0 0 17 16" fill="none" xmlns="http://www.w3.org/2000/svg">
<g clip-path="url(#clip0_505_372)">
<path d="M2.0254 14H4.57086V7.81818L0.934494 5.09091V12.9091C0.934494 13.5127 1.42358 14 2.0254 14Z" fill="#4285F4"/>
<path d="M13.2981 14H15.8436C16.4472 14 16.9345 13.5109 16.9345 12.9091V5.09091L13.2981 7.81818" fill="#34A853"/>
<path d="M13.2981 3.09092V7.81819L16.9345 5.09092V3.63638C16.9345 2.28729 15.3945 1.51819 14.3163 2.32729" fill="#FBBC04"/>
<path d="M4.57085 7.81818V3.09091L8.93448 6.36364L13.2981 3.09091V7.81818L8.93448 11.0909" fill="#EA4335"/>
<path d="M0.934494 3.63638V5.09092L4.57086 7.81819V3.09092L3.55268 2.32729C2.47268 1.51819 0.934494 2.28729 0.934494 3.63638Z" fill="#C5221F"/>
</g>
<defs>
<clipPath id="clip0_505_372">
<rect width="16" height="16" fill="white" transform="translate(0.934494)"/>
</clipPath>
</defs>
</svg>
