<svg width="84" height="84" viewBox="0 0 84 84" fill="none" xmlns="http://www.w3.org/2000/svg">
<rect width="84" height="84" fill="black"/>
<path d="M11.4488 31.5H5.25V50.9819H11.4488V31.5Z" fill="white"/>
<path d="M13.2198 31.5V37.7873V39.7355V46.4657V50.9819H19.4186V45.6687H25.6174V39.4699H19.4186V37.6988H28.2741V31.5H19.7729H13.2198Z" fill="white"/>
<path d="M34.2958 31.5H30.0452V37.6988H34.4729V50.9819H40.6717V37.6988H45.0994V31.5H41.0259H34.2958Z" fill="white"/>
<path d="M51.1211 31.5H46.8705V37.6988H51.2982V50.9819H57.497V37.6988H61.9247V31.5H57.8512H51.1211Z" fill="white"/>
<path d="M67.9464 31.5H63.6958V37.6988H68.1235V50.9819H74.3223V37.6988H78.75V31.5H74.6765H67.9464Z" fill="white"/>
</svg>
