<svg width="17" height="16" viewBox="0 0 17 16" fill="none" xmlns="http://www.w3.org/2000/svg">
<path d="M13.0126 6.14375C13.0126 5.33125 13.6782 4.66563 14.4907 4.66563C15.3032 4.66563 15.9689 5.33125 15.9689 6.14375C15.9689 6.95625 15.3032 7.62187 14.4907 7.62187H13.0126V6.14375ZM12.2657 6.14375C12.2657 6.95625 11.6001 7.62187 10.7876 7.62187C9.97512 7.62187 9.30949 6.95625 9.30949 6.14375V2.44688C9.30949 1.63438 9.97512 0.96875 10.7876 0.96875C11.6001 0.96875 12.2657 1.63438 12.2657 2.44688V6.14375Z" fill="#2EB67D"/>
<path d="M7.07824 3.92188C6.26574 3.92188 5.60012 3.25625 5.60012 2.44375C5.60012 1.63125 6.26574 0.96875 7.07824 0.96875C7.89074 0.96875 8.55637 1.63438 8.55637 2.44688V3.925L7.07824 3.92188ZM7.07824 4.66875C7.89074 4.66875 8.55637 5.33437 8.55637 6.14687C8.55637 6.95937 7.89074 7.625 7.07824 7.625H3.38137C2.56887 7.625 1.90324 6.95937 1.90324 6.14687C1.90324 5.33437 2.56887 4.66875 3.38137 4.66875H7.07824Z" fill="#36C5F0"/>
<path d="M10.7907 12.0781C11.6032 12.0781 12.2689 12.7437 12.2689 13.5562C12.2689 14.3687 11.6032 15.0312 10.7907 15.0312C9.97825 15.0312 9.31262 14.3656 9.31262 13.5531V12.075H10.7907V12.0781ZM10.7907 11.3313C9.97825 11.3313 9.31262 10.6656 9.31262 9.85312C9.31262 9.04062 9.97825 8.375 10.7907 8.375H14.4907C15.3032 8.375 15.9689 9.04062 15.9689 9.85312C15.9689 10.6656 15.3032 11.3313 14.4907 11.3313H10.7907Z" fill="#ECB22E"/>
<path d="M4.85637 9.85624C4.85637 10.6687 4.19074 11.3344 3.37824 11.3344C2.56574 11.3344 1.90324 10.6687 1.90324 9.85624C1.90324 9.04374 2.56887 8.37811 3.38137 8.37811H4.85949V9.85624H4.85637ZM5.60324 9.85624C5.60324 9.04374 6.26887 8.37811 7.08137 8.37811C7.89387 8.37811 8.55949 9.04374 8.55949 9.85624V13.5562C8.55949 14.3687 7.89387 15.0344 7.08137 15.0344C6.26887 15.0344 5.60324 14.3687 5.60324 13.5562C5.60324 13.5531 5.60324 9.85624 5.60324 9.85624Z" fill="#E01E5A"/>
</svg>
