<svg width="17" height="16" viewBox="0 0 17 16" fill="none" xmlns="http://www.w3.org/2000/svg">
<g clip-path="url(#clip0_419_357)">
<path d="M8.62023 0.799988H8.60231L8.42316 0.835988C8.02902 0.883988 7.64383 0.994988 7.26761 1.16899C6.89138 1.34299 6.55995 1.57399 6.2733 1.86199C5.78361 2.30599 5.44322 2.85199 5.25212 3.49999C5.14463 3.85999 5.09685 4.23799 5.1088 4.63399C5.12074 5.02999 5.1924 5.40799 5.32378 5.76799C5.52682 6.30799 5.83736 6.77599 6.25539 7.17199L6.48829 7.38799L5.0013 9.81799C4.69077 9.80599 4.42204 9.84799 4.19511 9.94399C3.8368 10.1 3.56807 10.34 3.38891 10.664C3.30531 10.844 3.25156 11.03 3.22767 11.222C3.20379 11.414 3.21573 11.606 3.2635 11.798C3.35905 12.158 3.55612 12.446 3.85471 12.662C4.03387 12.782 4.23094 12.869 4.44592 12.923C4.66091 12.977 4.87589 12.989 5.09088 12.959C5.30587 12.929 5.51189 12.854 5.70896 12.734C5.90603 12.614 6.07026 12.464 6.20164 12.284C6.34496 12.08 6.43155 11.846 6.46141 11.582C6.49127 11.318 6.45843 11.072 6.36288 10.844C6.35093 10.784 6.30913 10.7 6.23747 10.592L6.18372 10.484L8.29775 7.02799C8.36941 6.91999 8.41718 6.83599 8.44107 6.77599L8.26192 6.72199C8.15442 6.69799 8.07679 6.67399 8.02902 6.64999C7.75431 6.52999 7.50648 6.36499 7.28552 6.15499C7.06457 5.94499 6.89437 5.70799 6.77493 5.44399C6.57189 5.01199 6.51815 4.56199 6.61369 4.09399C6.66147 3.81799 6.76299 3.55999 6.91826 3.31999C7.07352 3.07999 7.25865 2.87599 7.47364 2.70799C7.91555 2.38399 8.40524 2.22199 8.9427 2.22199C9.26518 2.20999 9.5787 2.26699 9.88327 2.39299C10.1878 2.51899 10.4536 2.70199 10.6805 2.94199C10.8835 3.13399 11.0418 3.36499 11.1553 3.63499C11.2687 3.90499 11.3314 4.17799 11.3434 4.45399C11.3434 4.65799 11.3075 4.90999 11.2359 5.20999L12.49 5.55199L12.6333 5.56999C12.8005 5.05399 12.8423 4.53799 12.7587 4.02199C12.7109 3.62599 12.5945 3.24499 12.4093 2.87899C12.2242 2.51299 11.9883 2.19199 11.7017 1.91599C11.2001 1.41199 10.585 1.07599 9.85639 0.907988C9.78473 0.883988 9.67724 0.859988 9.53392 0.835988L9.2831 0.799988H8.62023Z" fill="#E71E62"/>
<path d="M8.94271 3.03198C8.73966 3.03198 8.53662 3.07398 8.33358 3.15798C8.13054 3.24198 7.9484 3.36498 7.78716 3.52698C7.62592 3.68898 7.50947 3.87798 7.43781 4.09398C7.34226 4.33398 7.31837 4.59798 7.36614 4.88598C7.40198 5.10198 7.48558 5.30598 7.61696 5.49798C7.74834 5.68998 7.91555 5.83998 8.11859 5.94798C8.40524 6.12798 8.73966 6.20598 9.12186 6.18198C9.15769 6.22998 9.18755 6.27798 9.21144 6.32598L11.218 9.76398C11.2538 9.83598 11.2896 9.88998 11.3255 9.92598C11.6479 9.61398 11.9973 9.40098 12.3735 9.28698C12.7497 9.17298 13.1379 9.15198 13.538 9.22398C13.9381 9.29598 14.2875 9.45198 14.5861 9.69198C14.9683 9.99198 15.228 10.361 15.3654 10.799C15.5028 11.237 15.5057 11.678 15.3744 12.122C15.2788 12.458 15.1086 12.758 14.8638 13.022C14.6189 13.286 14.3293 13.484 13.9949 13.616C13.6246 13.772 13.2275 13.823 12.8035 13.769C12.3795 13.715 12.0003 13.568 11.6659 13.328C11.6181 13.292 11.5404 13.232 11.433 13.148L11.3434 13.04C11.2956 13.076 11.2299 13.136 11.1463 13.22L10.3043 14.048C10.579 14.324 10.8895 14.555 11.2359 14.741C11.5823 14.927 11.9465 15.056 12.3287 15.128L12.7229 15.2H13.4216L13.9232 15.11C14.6876 14.954 15.3445 14.594 15.8939 14.03C16.1567 13.766 16.3746 13.463 16.5478 13.121C16.721 12.779 16.8375 12.422 16.8972 12.05C16.9569 11.618 16.9449 11.189 16.8613 10.763C16.7777 10.337 16.6284 9.94998 16.4135 9.60198C16.1985 9.25398 15.9357 8.94798 15.6252 8.68398C15.3146 8.41998 14.9742 8.20998 14.604 8.05398C14.1979 7.88598 13.7769 7.78998 13.341 7.76598C12.905 7.74198 12.478 7.78398 12.06 7.89198L11.7554 7.98198L10.3043 5.51598C10.4595 5.28798 10.5551 5.06598 10.5909 4.84998C10.6506 4.46598 10.573 4.10598 10.358 3.76998C10.1669 3.46998 9.90417 3.25998 9.56975 3.13998C9.3667 3.06798 9.15769 3.03198 8.94271 3.03198ZM3.89055 7.78398C3.19781 7.93998 2.60063 8.25798 2.099 8.73798C1.53765 9.26598 1.17337 9.89598 1.00616 10.628L0.934494 11.06V11.726L0.970325 11.924C0.994212 12.08 1.0181 12.2 1.04199 12.284C1.12559 12.656 1.2719 13.01 1.48092 13.346C1.68993 13.682 1.94373 13.976 2.24232 14.228C2.8395 14.72 3.52626 15.014 4.3026 15.11C4.75646 15.158 5.21032 15.131 5.66418 15.029C6.11803 14.927 6.53606 14.756 6.91826 14.516C7.55127 14.108 8.01707 13.562 8.31566 12.878C8.39927 12.674 8.48288 12.404 8.56648 12.068C8.63814 12.056 8.74564 12.056 8.88896 12.068L11.1284 12.104C11.2956 12.104 11.415 12.11 11.4867 12.122C11.6181 12.362 11.7674 12.548 11.9346 12.68C12.1018 12.812 12.2899 12.908 12.4989 12.968C12.7079 13.028 12.9199 13.052 13.1349 13.04C13.4693 13.004 13.7679 12.884 14.0307 12.68C14.3532 12.428 14.5443 12.104 14.604 11.708C14.6279 11.504 14.6189 11.306 14.5771 11.114C14.5353 10.922 14.4547 10.742 14.3353 10.574C14.1442 10.31 13.8993 10.118 13.6007 9.99798C13.3977 9.91398 13.1857 9.87498 12.9647 9.88098C12.7438 9.88698 12.5318 9.93198 12.3287 10.016C11.9943 10.16 11.7375 10.382 11.5584 10.682L11.5046 10.79C11.3374 10.79 11.0866 10.784 10.7522 10.772L8.72772 10.754C8.54857 10.742 8.29178 10.736 7.95736 10.736L7.06158 10.718L7.11533 11.024C7.21088 11.54 7.13324 12.026 6.88243 12.482C6.71522 12.806 6.47634 13.076 6.16581 13.292C5.85527 13.508 5.51488 13.64 5.14463 13.688C4.7266 13.76 4.30857 13.715 3.89055 13.553C3.47252 13.391 3.13212 13.136 2.86936 12.788C2.53494 12.368 2.3737 11.894 2.38565 11.366C2.39759 10.922 2.53494 10.508 2.7977 10.124C2.95297 9.89598 3.14407 9.70398 3.371 9.54798C3.59793 9.39198 3.84277 9.27798 4.10553 9.20598L4.26677 9.15198L3.89055 7.78398Z" fill="#36474F"/>
</g>
<defs>
<clipPath id="clip0_419_357">
<rect width="16" height="16" fill="white" transform="translate(0.934494)"/>
</clipPath>
</defs>
</svg>
