<svg width="32" height="32" viewBox="0 0 32 32" fill="none" xmlns="http://www.w3.org/2000/svg">
<path d="M15.3715 1.59998H15.3356L14.9773 1.67198C14.189 1.76798 13.4187 1.98998 12.6662 2.33798C11.9138 2.68598 11.2509 3.14798 10.6776 3.72398C9.69824 4.61198 9.01745 5.70398 8.63525 6.99998C8.42027 7.71998 8.32472 8.47598 8.3486 9.26798C8.37249 10.06 8.51581 10.816 8.77857 11.536C9.18466 12.616 9.80573 13.552 10.6418 14.344L11.1076 14.776L8.13362 19.636C7.51255 19.612 6.97508 19.696 6.52123 19.888C5.80461 20.2 5.26714 20.68 4.90884 21.328C4.74162 21.688 4.63413 22.06 4.58636 22.444C4.53858 22.828 4.56247 23.212 4.65802 23.596C4.84912 24.316 5.24326 24.892 5.84044 25.324C6.19875 25.564 6.59289 25.738 7.02286 25.846C7.45283 25.954 7.8828 25.978 8.31277 25.918C8.74274 25.858 9.1548 25.708 9.54894 25.468C9.94308 25.228 10.2715 24.928 10.5343 24.568C10.8209 24.16 10.9941 23.692 11.0538 23.164C11.1136 22.636 11.0479 22.144 10.8568 21.688C10.8329 21.568 10.7493 21.4 10.606 21.184L10.4985 20.968L14.7265 14.056C14.8698 13.84 14.9654 13.672 15.0132 13.552L14.6548 13.444C14.4399 13.396 14.2846 13.348 14.189 13.3C13.6396 13.06 13.144 12.73 12.7021 12.31C12.2601 11.89 11.9198 11.416 11.6809 10.888C11.2748 10.024 11.1673 9.12398 11.3584 8.18798C11.454 7.63598 11.657 7.11998 11.9675 6.63998C12.2781 6.15998 12.6483 5.75198 13.0783 5.41598C13.9621 4.76798 14.9415 4.44398 16.0164 4.44398C16.6614 4.41998 17.2884 4.53398 17.8975 4.78598C18.5067 5.03798 19.0382 5.40398 19.492 5.88398C19.8981 6.26798 20.2146 6.72998 20.4415 7.26998C20.6685 7.80998 20.7939 8.35598 20.8178 8.90798C20.8178 9.31598 20.7461 9.81998 20.6028 10.42L23.1109 11.104L23.3976 11.14C23.732 10.108 23.8156 9.07598 23.6484 8.04398C23.5529 7.25198 23.32 6.48998 22.9497 5.75798C22.5795 5.02598 22.1077 4.38398 21.5344 3.83198C20.5311 2.82398 19.3009 2.15198 17.8438 1.81598C17.7005 1.76798 17.4855 1.71998 17.1988 1.67198L16.6972 1.59998H15.3715Z" fill="#E71E62"/>
<path d="M16.0164 6.06396C15.6103 6.06396 15.2043 6.14796 14.7982 6.31596C14.3921 6.48396 14.0278 6.72997 13.7053 7.05397C13.3828 7.37797 13.1499 7.75596 13.0066 8.18796C12.8155 8.66796 12.7678 9.19597 12.8633 9.77197C12.935 10.204 13.1022 10.612 13.3649 10.996C13.6277 11.38 13.9621 11.68 14.3682 11.896C14.9415 12.256 15.6103 12.412 16.3747 12.364C16.4464 12.46 16.5061 12.556 16.5539 12.652L20.5669 19.528C20.6386 19.672 20.7103 19.78 20.7819 19.852C21.4269 19.228 22.1256 18.802 22.878 18.574C23.6305 18.346 24.4068 18.304 25.2071 18.448C26.0073 18.592 26.706 18.904 27.3032 19.384C28.0676 19.984 28.5871 20.722 28.8618 21.598C29.1365 22.474 29.1425 23.356 28.8797 24.244C28.6886 24.916 28.3482 25.516 27.8585 26.044C27.3689 26.572 26.7896 26.968 26.1207 27.232C25.3802 27.544 24.586 27.646 23.738 27.538C22.89 27.43 22.1316 27.136 21.4627 26.656C21.3672 26.584 21.2119 26.464 20.9969 26.296L20.8178 26.08C20.7222 26.152 20.5908 26.272 20.4236 26.44L18.7396 28.096C19.289 28.648 19.9101 29.11 20.6028 29.482C21.2955 29.854 22.0241 30.112 22.7885 30.256L23.5767 30.4H24.9742L25.9774 30.22C27.5062 29.908 28.82 29.188 29.9188 28.06C30.4443 27.532 30.8803 26.926 31.2266 26.242C31.573 25.558 31.8059 24.844 31.9254 24.1C32.0448 23.236 32.0209 22.378 31.8537 21.526C31.6865 20.674 31.3879 19.9 30.9579 19.204C30.5279 18.508 30.0024 17.896 29.3814 17.368C28.7603 16.84 28.0795 16.42 27.339 16.108C26.5268 15.772 25.6848 15.58 24.8129 15.532C23.941 15.484 23.0871 15.568 22.251 15.784L21.6419 15.964L18.7396 11.032C19.0501 10.576 19.2412 10.132 19.3129 9.69996C19.4323 8.93196 19.277 8.21196 18.8471 7.53996C18.4649 6.93996 17.9393 6.51996 17.2705 6.27996C16.8644 6.13596 16.4464 6.06396 16.0164 6.06396ZM5.9121 15.568C4.52664 15.88 3.33228 16.516 2.32901 17.476C1.20631 18.532 0.477746 19.792 0.143324 21.256L0 22.12V23.452L0.0716618 23.848C0.119436 24.16 0.167211 24.4 0.214986 24.568C0.382197 25.312 0.674816 26.02 1.09284 26.692C1.51087 27.364 2.01848 27.952 2.61566 28.456C3.81002 29.44 5.18354 30.028 6.73621 30.22C7.64393 30.316 8.55165 30.262 9.45936 30.058C10.3671 29.854 11.2031 29.512 11.9675 29.032C13.2336 28.216 14.1652 27.124 14.7623 25.756C14.9296 25.348 15.0968 24.808 15.264 24.136C15.4073 24.112 15.6223 24.112 15.9089 24.136L20.3878 24.208C20.7222 24.208 20.9611 24.22 21.1044 24.244C21.3672 24.724 21.6658 25.096 22.0002 25.36C22.3346 25.624 22.7108 25.816 23.1289 25.936C23.5469 26.056 23.9709 26.104 24.4009 26.08C25.0697 26.008 25.6669 25.768 26.1924 25.36C26.8374 24.856 27.2196 24.208 27.339 23.416C27.3868 23.008 27.3689 22.612 27.2852 22.228C27.2016 21.844 27.0404 21.484 26.8015 21.148C26.4193 20.62 25.9296 20.236 25.3325 19.996C24.9264 19.828 24.5024 19.75 24.0605 19.762C23.6186 19.774 23.1946 19.864 22.7885 20.032C22.1196 20.32 21.606 20.764 21.2477 21.364L21.1402 21.58C20.8058 21.58 20.3042 21.568 19.6353 21.544L15.5865 21.508C15.2281 21.484 14.7146 21.472 14.0457 21.472L12.2542 21.436L12.3617 22.048C12.5528 23.08 12.3975 24.052 11.8959 24.964C11.5614 25.612 11.0837 26.152 10.4626 26.584C9.84156 27.016 9.16077 27.28 8.42027 27.376C7.58421 27.52 6.74816 27.43 5.9121 27.106C5.07605 26.782 4.39526 26.272 3.86974 25.576C3.2009 24.736 2.87842 23.788 2.9023 22.732C2.92619 21.844 3.2009 21.016 3.72642 20.248C4.03695 19.792 4.41915 19.408 4.87301 19.096C5.32686 18.784 5.81655 18.556 6.34207 18.412L6.66455 18.304L5.9121 15.568Z" fill="#36474F"/>
</svg>
