<svg width="139" height="28" viewBox="0 0 139 28" fill="none" xmlns="http://www.w3.org/2000/svg">
<rect width="28" height="28" rx="5.25" fill="white"/>
<path d="M0.4375 5.25C0.4375 2.59213 2.59213 0.4375 5.25 0.4375H22.75C25.4079 0.4375 27.5625 2.59213 27.5625 5.25V22.75C27.5625 25.4079 25.4079 27.5625 22.75 27.5625H5.25C2.59213 27.5625 0.4375 25.4079 0.4375 22.75V5.25Z" stroke="#D0D5E9" stroke-width="0.875"/>
<g clip-path="url(#clip0_3409_11222)">
<path d="M5 6.8C5 5.80589 5.80589 5 6.8 5H21.2C22.1941 5 23 5.80589 23 6.8V21.2C23 22.1941 22.1941 23 21.2 23H6.8C5.80589 23 5 22.1941 5 21.2V6.8Z" fill="#F7DF1E"/>
<path d="M16.3906 18.0078C16.7422 18.6055 17.2344 19.0273 18.043 19.0273C18.7461 19.0273 19.2031 18.6758 19.2031 18.1836C19.2031 17.6211 18.7461 17.4102 17.9727 17.0586L17.5508 16.8828C16.3203 16.3555 15.5117 15.7227 15.5117 14.3516C15.5117 13.0859 16.4609 12.1016 17.9727 12.1016C19.0625 12.1016 19.8359 12.4883 20.3633 13.4727L19.0625 14.3164C18.7812 13.7891 18.4648 13.5781 17.9727 13.5781C17.4805 13.5781 17.1641 13.8945 17.1641 14.3164C17.1641 14.8086 17.4805 15.0195 18.2188 15.3359L18.6406 15.5117C20.082 16.1445 20.8906 16.7422 20.8906 18.1836C20.8906 19.6953 19.6953 20.5391 18.0781 20.5391C16.4961 20.5391 15.4766 19.8008 14.9844 18.8164L16.3906 18.0078ZM10.4141 18.1484C10.6953 18.6055 10.9062 19.0273 11.5039 19.0273C12.0664 19.0273 12.418 18.8164 12.418 17.9727V12.1367H14.1055V17.9023C14.1055 19.6602 13.0859 20.4336 11.5742 20.4336C10.2031 20.4336 9.42969 19.7305 9.04297 18.8867L10.4141 18.1484Z" fill="black"/>
</g>
<path d="M38.3047 20.2891C37.737 20.2891 37.2292 20.2083 36.7812 20.0469C36.3333 19.8854 35.9505 19.6562 35.6328 19.3594C35.3151 19.0573 35.0677 18.7005 34.8906 18.2891C34.7188 17.8724 34.625 17.4089 34.6094 16.8984L34.6016 16.8281H36.7422L36.75 16.875C36.7708 17.1667 36.8411 17.4245 36.9609 17.6484C37.0807 17.8724 37.25 18.0495 37.4688 18.1797C37.6927 18.3099 37.9635 18.375 38.2812 18.375C38.7969 18.375 39.1901 18.2214 39.4609 17.9141C39.7318 17.6068 39.8672 17.1589 39.8672 16.5703V8.72656H42.0703V16.5938C42.0703 17.3646 41.9219 18.026 41.625 18.5781C41.3281 19.1302 40.8984 19.5547 40.3359 19.8516C39.7786 20.1432 39.1016 20.2891 38.3047 20.2891ZM46.8594 20.1406C46.3177 20.1406 45.8333 20.0365 45.4062 19.8281C44.9844 19.6146 44.6536 19.3151 44.4141 18.9297C44.1745 18.5443 44.0547 18.0911 44.0547 17.5703V17.5547C44.0547 17.0391 44.1823 16.599 44.4375 16.2344C44.6927 15.8646 45.0651 15.5755 45.5547 15.3672C46.0443 15.1589 46.6406 15.0339 47.3438 14.9922L50.5234 14.8047V16.1406L47.6562 16.3281C47.1458 16.3542 46.7656 16.4635 46.5156 16.6562C46.2656 16.8438 46.1406 17.1042 46.1406 17.4375V17.4531C46.1406 17.7917 46.2708 18.0599 46.5312 18.2578C46.7969 18.4557 47.1354 18.5547 47.5469 18.5547C47.9167 18.5547 48.2448 18.4818 48.5312 18.3359C48.8229 18.1849 49.0521 17.9818 49.2188 17.7266C49.3906 17.4714 49.4766 17.1849 49.4766 16.8672V14.1484C49.4766 13.7474 49.3464 13.4401 49.0859 13.2266C48.8307 13.013 48.4557 12.9062 47.9609 12.9062C47.5339 12.9062 47.1849 12.9792 46.9141 13.125C46.6484 13.2708 46.4688 13.4766 46.375 13.7422L46.3594 13.7734H44.375L44.3828 13.7031C44.4453 13.2083 44.6354 12.7786 44.9531 12.4141C45.2708 12.0495 45.6953 11.7656 46.2266 11.5625C46.7578 11.3542 47.3724 11.25 48.0703 11.25C48.8203 11.25 49.4557 11.3646 49.9766 11.5938C50.4974 11.8229 50.8932 12.1536 51.1641 12.5859C51.4401 13.0182 51.5781 13.5391 51.5781 14.1484V20H49.4766V18.8438H49.3359C49.1901 19.1146 48.9948 19.3464 48.75 19.5391C48.5052 19.7318 48.2214 19.8802 47.8984 19.9844C47.5807 20.0885 47.2344 20.1406 46.8594 20.1406ZM55.8828 20L52.875 11.4297H55.1484L57.0234 17.9766H57.1562L59.0156 11.4297H61.25L58.25 20H55.8828ZM64.8906 20.1406C64.349 20.1406 63.8646 20.0365 63.4375 19.8281C63.0156 19.6146 62.6849 19.3151 62.4453 18.9297C62.2057 18.5443 62.0859 18.0911 62.0859 17.5703V17.5547C62.0859 17.0391 62.2135 16.599 62.4688 16.2344C62.724 15.8646 63.0964 15.5755 63.5859 15.3672C64.0755 15.1589 64.6719 15.0339 65.375 14.9922L68.5547 14.8047V16.1406L65.6875 16.3281C65.1771 16.3542 64.7969 16.4635 64.5469 16.6562C64.2969 16.8438 64.1719 17.1042 64.1719 17.4375V17.4531C64.1719 17.7917 64.3021 18.0599 64.5625 18.2578C64.8281 18.4557 65.1667 18.5547 65.5781 18.5547C65.9479 18.5547 66.276 18.4818 66.5625 18.3359C66.8542 18.1849 67.0833 17.9818 67.25 17.7266C67.4219 17.4714 67.5078 17.1849 67.5078 16.8672V14.1484C67.5078 13.7474 67.3776 13.4401 67.1172 13.2266C66.862 13.013 66.487 12.9062 65.9922 12.9062C65.5651 12.9062 65.2161 12.9792 64.9453 13.125C64.6797 13.2708 64.5 13.4766 64.4062 13.7422L64.3906 13.7734H62.4062L62.4141 13.7031C62.4766 13.2083 62.6667 12.7786 62.9844 12.4141C63.3021 12.0495 63.7266 11.7656 64.2578 11.5625C64.7891 11.3542 65.4036 11.25 66.1016 11.25C66.8516 11.25 67.487 11.3646 68.0078 11.5938C68.5286 11.8229 68.9245 12.1536 69.1953 12.5859C69.4714 13.0182 69.6094 13.5391 69.6094 14.1484V20H67.5078V18.8438H67.3672C67.2214 19.1146 67.026 19.3464 66.7812 19.5391C66.5365 19.7318 66.2526 19.8802 65.9297 19.9844C65.612 20.0885 65.2656 20.1406 64.8906 20.1406ZM76.0859 20.2891C75.2005 20.2891 74.4297 20.1536 73.7734 19.8828C73.1224 19.612 72.6094 19.2318 72.2344 18.7422C71.8646 18.2526 71.6536 17.6797 71.6016 17.0234L71.5938 16.9062H73.7266L73.7344 16.9844C73.7708 17.2812 73.8906 17.5417 74.0938 17.7656C74.3021 17.9844 74.5833 18.1562 74.9375 18.2812C75.2917 18.4062 75.6953 18.4688 76.1484 18.4688C76.5859 18.4688 76.9688 18.4036 77.2969 18.2734C77.6302 18.1432 77.8906 17.9609 78.0781 17.7266C78.2656 17.4922 78.3594 17.224 78.3594 16.9219V16.9141C78.3594 16.5286 78.2057 16.2161 77.8984 15.9766C77.5964 15.737 77.0885 15.5417 76.375 15.3906L75.1719 15.1406C74.0104 14.901 73.1641 14.5104 72.6328 13.9688C72.1016 13.4271 71.8359 12.7292 71.8359 11.875V11.8672C71.8411 11.1849 72.0234 10.5859 72.3828 10.0703C72.7474 9.55469 73.2474 9.15365 73.8828 8.86719C74.5234 8.58073 75.2552 8.4375 76.0781 8.4375C76.9375 8.4375 77.6771 8.58073 78.2969 8.86719C78.9167 9.14844 79.401 9.53125 79.75 10.0156C80.099 10.5 80.2995 11.0521 80.3516 11.6719L80.3594 11.7734H78.2656L78.25 11.6797C78.2083 11.3984 78.0938 11.151 77.9062 10.9375C77.7188 10.724 77.4688 10.5573 77.1562 10.4375C76.849 10.3125 76.4896 10.2526 76.0781 10.2578C75.6771 10.2578 75.3229 10.3177 75.0156 10.4375C74.7135 10.5521 74.4766 10.7188 74.3047 10.9375C74.1328 11.1562 74.0469 11.4167 74.0469 11.7188V11.7266C74.0469 12.1016 74.1953 12.4115 74.4922 12.6562C74.7943 12.901 75.2865 13.0938 75.9688 13.2344L77.1719 13.4844C77.9635 13.6458 78.6094 13.8646 79.1094 14.1406C79.6094 14.4167 79.9766 14.763 80.2109 15.1797C80.4505 15.5911 80.5703 16.0859 80.5703 16.6641V16.6719C80.5703 17.4115 80.388 18.0521 80.0234 18.5938C79.6641 19.1302 79.1484 19.5469 78.4766 19.8438C77.8047 20.1406 77.0078 20.2891 76.0859 20.2891ZM86.3281 20.1797C85.4531 20.1797 84.7057 20.0026 84.0859 19.6484C83.4661 19.2943 82.9922 18.7839 82.6641 18.1172C82.3359 17.4505 82.1719 16.6458 82.1719 15.7031V15.6875C82.1719 14.75 82.3333 13.9531 82.6562 13.2969C82.9844 12.6354 83.4583 12.1302 84.0781 11.7812C84.6979 11.4271 85.4479 11.25 86.3281 11.25C87.0729 11.25 87.7135 11.3802 88.25 11.6406C88.7917 11.8958 89.2188 12.2552 89.5312 12.7188C89.849 13.1771 90.0443 13.7135 90.1172 14.3281L90.1094 14.3594H88.125L88.1172 14.3438C88.0339 13.9271 87.8411 13.5911 87.5391 13.3359C87.2422 13.0755 86.8411 12.9453 86.3359 12.9453C85.9089 12.9453 85.5469 13.0521 85.25 13.2656C84.9531 13.4792 84.7266 13.7891 84.5703 14.1953C84.4141 14.6016 84.3359 15.099 84.3359 15.6875V15.7031C84.3359 16.2917 84.4141 16.7943 84.5703 17.2109C84.7318 17.6276 84.9609 17.9453 85.2578 18.1641C85.5547 18.3776 85.9141 18.4844 86.3359 18.4844C86.8203 18.4844 87.2083 18.3724 87.5 18.1484C87.7969 17.9245 88 17.5938 88.1094 17.1562L88.125 17.125L90.1094 17.1172L90.1016 17.1719C90.013 17.776 89.8125 18.3047 89.5 18.7578C89.1875 19.2057 88.7656 19.5547 88.2344 19.8047C87.7031 20.0547 87.0677 20.1797 86.3281 20.1797ZM91.9297 20V11.4297H94.0547V12.75H94.1953C94.3359 12.2865 94.5938 11.9271 94.9688 11.6719C95.349 11.4167 95.8177 11.2891 96.375 11.2891C96.526 11.2891 96.6745 11.2995 96.8203 11.3203C96.9661 11.3359 97.0911 11.3594 97.1953 11.3906V13.2656C97.0339 13.2292 96.8672 13.2005 96.6953 13.1797C96.5286 13.1589 96.3594 13.1484 96.1875 13.1484C95.7552 13.1484 95.3776 13.2292 95.0547 13.3906C94.737 13.5469 94.4896 13.7734 94.3125 14.0703C94.1406 14.362 94.0547 14.7109 94.0547 15.1172V20H91.9297ZM98.7734 20V11.4297H100.898V20H98.7734ZM99.8438 10.0547C99.5104 10.0547 99.2214 9.9375 98.9766 9.70312C98.737 9.46354 98.6172 9.17708 98.6172 8.84375C98.6172 8.50521 98.737 8.21875 98.9766 7.98438C99.2214 7.75 99.5104 7.63281 99.8438 7.63281C100.182 7.63281 100.471 7.75 100.711 7.98438C100.951 8.21875 101.07 8.50521 101.07 8.84375C101.07 9.17708 100.951 9.46354 100.711 9.70312C100.471 9.9375 100.182 10.0547 99.8438 10.0547ZM103.242 22.8438V11.4297H105.367V12.7656H105.508C105.659 12.4531 105.859 12.1875 106.109 11.9688C106.359 11.75 106.651 11.5833 106.984 11.4688C107.318 11.349 107.685 11.2891 108.086 11.2891C108.805 11.2891 109.424 11.4688 109.945 11.8281C110.471 12.1875 110.875 12.6979 111.156 13.3594C111.443 14.0156 111.586 14.7969 111.586 15.7031V15.7188C111.586 16.6354 111.445 17.4245 111.164 18.0859C110.883 18.7422 110.479 19.25 109.953 19.6094C109.432 19.9635 108.81 20.1406 108.086 20.1406C107.695 20.1406 107.331 20.0807 106.992 19.9609C106.659 19.8359 106.365 19.6615 106.109 19.4375C105.854 19.2135 105.654 18.9453 105.508 18.6328H105.367V22.8438H103.242ZM107.391 18.3594C107.812 18.3594 108.174 18.2552 108.477 18.0469C108.779 17.8333 109.01 17.5286 109.172 17.1328C109.339 16.737 109.422 16.2656 109.422 15.7188V15.7031C109.422 15.1562 109.339 14.6875 109.172 14.2969C109.01 13.901 108.779 13.5964 108.477 13.3828C108.174 13.1693 107.812 13.0625 107.391 13.0625C106.969 13.0625 106.604 13.1693 106.297 13.3828C105.99 13.5964 105.753 13.901 105.586 14.2969C105.424 14.6875 105.344 15.1562 105.344 15.7031V15.7188C105.344 16.2604 105.427 16.7318 105.594 17.1328C105.76 17.5286 105.997 17.8333 106.305 18.0469C106.612 18.2552 106.974 18.3594 107.391 18.3594ZM116.977 20.0391C115.966 20.0391 115.237 19.8568 114.789 19.4922C114.341 19.1276 114.117 18.5312 114.117 17.7031V13.0469H112.789V11.4297H114.117V9.35156H116.273V11.4297H118.062V13.0469H116.273V17.2109C116.273 17.612 116.362 17.9062 116.539 18.0938C116.716 18.276 117.003 18.3672 117.398 18.3672C117.539 18.3672 117.656 18.3646 117.75 18.3594C117.844 18.3542 117.948 18.3464 118.062 18.3359V19.9453C117.922 19.9661 117.758 19.987 117.57 20.0078C117.383 20.0286 117.185 20.0391 116.977 20.0391Z" fill="#3F475D"/>
<path fill-rule="evenodd" clip-rule="evenodd" d="M125 7.5C125 7.22386 125.224 7 125.5 7H129.5C129.776 7 130 7.22386 130 7.5V11.5C130 11.7761 129.776 12 129.5 12C129.224 12 129 11.7761 129 11.5V8.70711L124.854 12.8536C124.658 13.0488 124.342 13.0488 124.146 12.8536C123.951 12.6583 123.951 12.3417 124.146 12.1464L128.293 8H125.5C125.224 8 125 7.77614 125 7.5Z" fill="#3F475D"/>
<defs>
<clipPath id="clip0_3409_11222">
<rect width="18" height="18" fill="white" transform="translate(5 5)"/>
</clipPath>
</defs>
</svg>

