<svg width="111" height="28" viewBox="0 0 111 28" fill="none" xmlns="http://www.w3.org/2000/svg">
<rect width="28" height="28" rx="5.25" fill="white"/>
<g clip-path="url(#clip0_3409_11229)">
<path d="M13.8934 5.01968C13.1526 5.02309 12.4451 5.08571 11.8227 5.19487C9.98893 5.51595 9.65599 6.18799 9.65599 7.42734V9.06415H13.9893V9.60976H9.65599H8.02972C6.77033 9.60976 5.66757 10.36 5.32264 11.7872C4.92476 13.423 4.90712 14.4439 5.32264 16.152C5.63067 17.4235 6.36628 18.3294 7.62568 18.3294H9.11558V16.3672C9.11558 14.9497 10.3531 13.6993 11.8227 13.6993H16.151C17.3558 13.6993 18.3177 12.7161 18.3176 11.5169V7.42734C18.3176 6.26344 17.3269 5.38912 16.151 5.19487C15.4066 5.07206 14.6342 5.01627 13.8934 5.01968ZM11.5499 6.33613C11.9975 6.33613 12.3631 6.70433 12.3631 7.15704C12.3631 7.60816 11.9975 7.97295 11.5499 7.97295C11.1007 7.97295 10.7368 7.60816 10.7368 7.15704C10.7368 6.70433 11.1007 6.33613 11.5499 6.33613Z" fill="url(#paint0_linear_3409_11229)"/>
<path d="M18.8583 9.60767V11.5148C18.8583 12.9933 17.5935 14.2378 16.1512 14.2378H11.8229C10.6373 14.2378 9.65625 15.2435 9.65625 16.4202V20.5097C9.65625 21.6736 10.6774 22.3582 11.8229 22.6921C13.1946 23.0919 14.51 23.1641 16.1512 22.6921C17.2422 22.3791 18.3179 21.7491 18.3179 20.5097V18.8729H13.9896V18.3273H18.3179H20.4846C21.744 18.3273 22.2133 17.4567 22.6513 16.1499C23.1037 14.8046 23.0844 13.5109 22.6513 11.7851C22.34 10.5425 21.7456 9.60767 20.4846 9.60767H18.8583ZM16.424 19.9641C16.8732 19.9641 17.2371 20.3289 17.2371 20.78C17.2371 21.2327 16.8732 21.6009 16.424 21.6009C15.9764 21.6009 15.6108 21.2327 15.6108 20.78C15.6108 20.3289 15.9764 19.9641 16.424 19.9641Z" fill="url(#paint1_linear_3409_11229)"/>
</g>
<path d="M0.4375 5.25C0.4375 2.59213 2.59213 0.4375 5.25 0.4375H22.75C25.4079 0.4375 27.5625 2.59213 27.5625 5.25V22.75C27.5625 25.4079 25.4079 27.5625 22.75 27.5625H5.25C2.59213 27.5625 0.4375 25.4079 0.4375 22.75V5.25Z" stroke="#D0D5E9" stroke-width="0.875"/>
<path d="M36.4766 16.3672V14.625H39.4219C40.1198 14.625 40.6615 14.4453 41.0469 14.0859C41.4375 13.7266 41.6328 13.2188 41.6328 12.5625V12.5469C41.6328 11.8906 41.4375 11.3854 41.0469 11.0312C40.6615 10.6719 40.1198 10.4922 39.4219 10.4922H36.4766V8.72656H39.9609C40.737 8.72656 41.4167 8.88542 42 9.20312C42.5885 9.52083 43.0443 9.96615 43.3672 10.5391C43.6953 11.112 43.8594 11.7786 43.8594 12.5391V12.5547C43.8594 13.3203 43.6953 13.9896 43.3672 14.5625C43.0443 15.1354 42.5885 15.5807 42 15.8984C41.4167 16.2109 40.737 16.3672 39.9609 16.3672H36.4766ZM35.375 20V8.72656H37.5781V20H35.375ZM46.9922 23.0156C46.8672 23.0156 46.737 23.013 46.6016 23.0078C46.4661 23.0078 46.3333 23.0026 46.2031 22.9922V21.375C46.2865 21.3854 46.3802 21.3906 46.4844 21.3906C46.5885 21.3958 46.6927 21.3984 46.7969 21.3984C47.1979 21.3984 47.5182 21.3151 47.7578 21.1484C48.0026 20.9818 48.1693 20.7188 48.2578 20.3594L48.3516 20.0078L45.3125 11.4297H47.6406L49.7891 18.9141L49.2656 18.0156H49.9375L49.4297 18.9141L51.5703 11.4297H53.8203L50.8281 20.0781C50.5781 20.8177 50.2839 21.401 49.9453 21.8281C49.6068 22.2552 49.1979 22.5599 48.7188 22.7422C48.2448 22.9245 47.6693 23.0156 46.9922 23.0156ZM58.9141 20.0391C57.9036 20.0391 57.1745 19.8568 56.7266 19.4922C56.2786 19.1276 56.0547 18.5312 56.0547 17.7031V13.0469H54.7266V11.4297H56.0547V9.35156H58.2109V11.4297H60V13.0469H58.2109V17.2109C58.2109 17.612 58.2995 17.9062 58.4766 18.0938C58.6536 18.276 58.9401 18.3672 59.3359 18.3672C59.4766 18.3672 59.5938 18.3646 59.6875 18.3594C59.7812 18.3542 59.8854 18.3464 60 18.3359V19.9453C59.8594 19.9661 59.6953 19.987 59.5078 20.0078C59.3203 20.0286 59.1224 20.0391 58.9141 20.0391ZM61.9922 20V8.13281H64.1172V12.7422H64.2578C64.4557 12.2839 64.7604 11.9219 65.1719 11.6562C65.5885 11.3854 66.1042 11.25 66.7188 11.25C67.3594 11.25 67.8958 11.375 68.3281 11.625C68.7656 11.875 69.0964 12.2396 69.3203 12.7188C69.5495 13.1927 69.6641 13.7708 69.6641 14.4531V20H67.5391V14.9453C67.5391 14.3099 67.4036 13.8307 67.1328 13.5078C66.8672 13.1849 66.4557 13.0234 65.8984 13.0234C65.5286 13.0234 65.2109 13.1068 64.9453 13.2734C64.6797 13.4401 64.474 13.6719 64.3281 13.9688C64.1875 14.2656 64.1172 14.6172 64.1172 15.0234V20H61.9922ZM75.6719 20.1797C74.8021 20.1797 74.0547 20.0026 73.4297 19.6484C72.8047 19.2891 72.3229 18.776 71.9844 18.1094C71.651 17.4427 71.4844 16.6458 71.4844 15.7188V15.7031C71.4844 14.7812 71.6536 13.9896 71.9922 13.3281C72.3307 12.6615 72.8125 12.1484 73.4375 11.7891C74.0677 11.4297 74.8125 11.25 75.6719 11.25C76.5365 11.25 77.2786 11.4297 77.8984 11.7891C78.5234 12.1432 79.0052 12.6536 79.3438 13.3203C79.6823 13.987 79.8516 14.7812 79.8516 15.7031V15.7188C79.8516 16.6458 79.6823 17.4427 79.3438 18.1094C79.0104 18.776 78.5312 19.2891 77.9062 19.6484C77.2865 20.0026 76.5417 20.1797 75.6719 20.1797ZM75.6719 18.4844C76.099 18.4844 76.4609 18.375 76.7578 18.1562C77.0547 17.9375 77.2812 17.6224 77.4375 17.2109C77.5938 16.7995 77.6719 16.3021 77.6719 15.7188V15.7031C77.6719 15.125 77.5911 14.6302 77.4297 14.2188C77.2734 13.8073 77.0469 13.4922 76.75 13.2734C76.4531 13.0547 76.0938 12.9453 75.6719 12.9453C75.2448 12.9453 74.8828 13.0547 74.5859 13.2734C74.2891 13.4922 74.0599 13.8073 73.8984 14.2188C73.7422 14.6302 73.6641 15.125 73.6641 15.7031V15.7188C73.6641 16.3021 73.7422 16.7995 73.8984 17.2109C74.0599 17.6224 74.2891 17.9375 74.5859 18.1562C74.8828 18.375 75.2448 18.4844 75.6719 18.4844ZM81.7578 20V11.4297H83.8828V12.7422H84.0234C84.2214 12.2839 84.526 11.9219 84.9375 11.6562C85.3542 11.3854 85.8698 11.25 86.4844 11.25C87.4427 11.25 88.1719 11.5286 88.6719 12.0859C89.1771 12.6432 89.4297 13.4323 89.4297 14.4531V20H87.3047V14.9453C87.3047 14.3099 87.1693 13.8307 86.8984 13.5078C86.6328 13.1849 86.2214 13.0234 85.6641 13.0234C85.2943 13.0234 84.9766 13.1068 84.7109 13.2734C84.4453 13.4401 84.2396 13.6719 84.0938 13.9688C83.9531 14.2656 83.8828 14.6172 83.8828 15.0234V20H81.7578Z" fill="#3F475D"/>
<path fill-rule="evenodd" clip-rule="evenodd" d="M97 7.5C97 7.22386 97.2239 7 97.5 7H101.5C101.776 7 102 7.22386 102 7.5V11.5C102 11.7761 101.776 12 101.5 12C101.224 12 101 11.7761 101 11.5V8.70711L96.8536 12.8536C96.6583 13.0488 96.3417 13.0488 96.1464 12.8536C95.9512 12.6583 95.9512 12.3417 96.1464 12.1464L100.293 8H97.5C97.2239 8 97 7.77614 97 7.5Z" fill="#3F475D"/>
<defs>
<linearGradient id="paint0_linear_3409_11229" x1="5.01758" y1="5.01953" x2="14.9345" y2="13.5461" gradientUnits="userSpaceOnUse">
<stop stop-color="#5A9FD4"/>
<stop offset="1" stop-color="#306998"/>
</linearGradient>
<linearGradient id="paint1_linear_3409_11229" x1="16.3198" y1="20.6424" x2="12.7774" y2="15.6338" gradientUnits="userSpaceOnUse">
<stop stop-color="#FFD43B"/>
<stop offset="1" stop-color="#FFE873"/>
</linearGradient>
<clipPath id="clip0_3409_11229">
<path d="M0 5.25C0 2.3505 2.35051 0 5.25 0H22.75C25.6495 0 28 2.35051 28 5.25V22.75C28 25.6495 25.6495 28 22.75 28H5.25C2.3505 28 0 25.6495 0 22.75V5.25Z" fill="white"/>
</clipPath>
</defs>
</svg>

