<svg width="460" height="200" viewBox="0 0 460 200" fill="none" xmlns="http://www.w3.org/2000/svg">
<g clip-path="url(#clip0_6821_16900)">
<rect width="460" height="200" fill="#0F0F0F"/>
<rect x="44.4076" y="32.0639" width="366.683" height="46.2386" rx="8.45829" fill="#0F0F0F"/>
<rect x="44.4076" y="32.0639" width="366.683" height="46.2386" rx="8.45829" stroke="#2A2A2A" stroke-width="1.12777"/>
<path d="M66.8105 63.6831L65.5989 59.4311H60.5239L59.3123 63.6831H56.7062L61.3697 47.7267H64.8673L69.5308 63.6831H66.8105ZM63.1528 50.3099H62.9699L61.004 57.3051H65.1188L63.1528 50.3099ZM71.8765 63.6831V51.8873H74.3683V53.899H74.4826C74.6045 53.5942 74.7569 53.3046 74.9398 53.0303C75.1379 52.7407 75.3741 52.4969 75.6484 52.2987C75.9228 52.0854 76.2428 51.9177 76.6086 51.7958C76.9743 51.6739 77.401 51.6129 77.8887 51.6129C79.0775 51.6129 80.0376 52.0016 80.7691 52.7788C81.5006 53.5561 81.8664 54.661 81.8664 56.0935V63.6831H79.3746V56.4593C79.3746 54.5848 78.5593 53.6475 76.9286 53.6475C76.6086 53.6475 76.2961 53.6932 75.9913 53.7847C75.6865 53.8609 75.4122 53.9828 75.1684 54.1504C74.9245 54.3181 74.7264 54.5314 74.574 54.7905C74.4368 55.0496 74.3683 55.3468 74.3683 55.6821V63.6831H71.8765ZM91.2302 63.6831C90.1938 63.6831 89.4318 63.4088 88.9442 62.8602C88.4565 62.2963 88.2126 61.5724 88.2126 60.6884V53.899H84.5779V51.8873H87.1611C87.603 51.8873 87.9154 51.8034 88.0983 51.6358C88.2812 51.4529 88.3726 51.1329 88.3726 50.6757V47.7267H90.7044V51.8873H95.7336V53.899H90.7044V61.6714H95.7336V63.6831H91.2302ZM104.96 49.7384C104.32 49.7384 103.871 49.6089 103.611 49.3498C103.368 49.0907 103.246 48.7706 103.246 48.3896V47.9096C103.246 47.5286 103.368 47.2085 103.611 46.9494C103.871 46.6904 104.313 46.5608 104.937 46.5608C105.577 46.5608 106.019 46.6904 106.263 46.9494C106.522 47.2085 106.652 47.5286 106.652 47.9096V48.3896C106.652 48.7706 106.522 49.0907 106.263 49.3498C106.019 49.6089 105.585 49.7384 104.96 49.7384ZM99.6795 61.6714H103.703V53.899H99.6795V51.8873H106.195V61.6714H109.967V63.6831H99.6795V61.6714ZM114.484 57.9681V55.4763H121.388V57.9681H114.484ZM131.666 63.9575C130.386 63.9575 129.281 63.7517 128.351 63.3402C127.437 62.9287 126.698 62.3801 126.134 61.6943L127.665 60.3227C128.184 60.8866 128.763 61.3209 129.403 61.6257C130.058 61.9153 130.828 62.0601 131.712 62.0601C132.519 62.0601 133.167 61.9229 133.655 61.6486C134.158 61.3743 134.409 60.9475 134.409 60.3684C134.409 60.1246 134.364 59.9188 134.272 59.7512C134.181 59.5835 134.051 59.4464 133.883 59.3397C133.716 59.233 133.518 59.1492 133.289 59.0882C133.076 59.0273 132.847 58.9815 132.603 58.9511L130.729 58.6539C130.272 58.5929 129.807 58.4939 129.334 58.3567C128.862 58.2195 128.435 58.029 128.054 57.7852C127.688 57.5261 127.384 57.1985 127.14 56.8022C126.911 56.406 126.797 55.903 126.797 55.2934C126.797 54.0895 127.254 53.175 128.168 52.5502C129.098 51.9254 130.317 51.6129 131.826 51.6129C132.923 51.6129 133.868 51.7806 134.661 52.1159C135.468 52.4359 136.139 52.8855 136.672 53.4646L135.278 54.9277C134.973 54.5771 134.539 54.2571 133.975 53.9675C133.411 53.6627 132.664 53.5103 131.735 53.5103C130.073 53.5103 129.243 54.0361 129.243 55.0877C129.243 55.5906 129.418 55.9411 129.769 56.1393C130.134 56.3221 130.561 56.4441 131.049 56.505L132.923 56.8022C133.396 56.8784 133.861 56.9775 134.318 57.0994C134.79 57.2213 135.209 57.4118 135.575 57.6709C135.956 57.9147 136.261 58.2348 136.49 58.631C136.733 59.0273 136.855 59.5302 136.855 60.1398C136.855 61.3285 136.39 62.2658 135.461 62.9516C134.546 63.6222 133.281 63.9575 131.666 63.9575ZM145.785 63.9575C144.901 63.9575 144.108 63.8127 143.407 63.5231C142.721 63.2336 142.135 62.8221 141.647 62.2887C141.175 61.7553 140.809 61.1075 140.55 60.3455C140.306 59.5835 140.184 58.7301 140.184 57.7852C140.184 56.8403 140.306 55.9869 140.55 55.2249C140.809 54.4628 141.175 53.8151 141.647 53.2817C142.135 52.7483 142.721 52.3368 143.407 52.0473C144.108 51.7577 144.893 51.6129 145.762 51.6129C146.981 51.6129 147.956 51.872 148.688 52.3902C149.435 52.9083 149.991 53.5789 150.357 54.4019L148.414 55.4535C148.2 54.9048 147.873 54.4705 147.431 54.1504C147.004 53.8304 146.448 53.6704 145.762 53.6704C144.817 53.6704 144.085 53.9599 143.567 54.539C143.049 55.1029 142.79 55.8573 142.79 56.8022V58.7682C142.79 59.6978 143.049 60.4522 143.567 61.0313C144.085 61.6105 144.832 61.9 145.808 61.9C146.539 61.9 147.133 61.7324 147.591 61.3971C148.063 61.0618 148.436 60.6046 148.711 60.0255L150.54 61.1457C150.159 61.9686 149.579 62.6468 148.802 63.1802C148.025 63.6984 147.019 63.9575 145.785 63.9575ZM153.937 61.6714H157.069V53.899H153.937V51.8873H159.56V55.0191H159.698C159.804 54.6076 159.957 54.2114 160.155 53.8304C160.353 53.4494 160.604 53.1217 160.909 52.8474C161.214 52.5578 161.587 52.3292 162.029 52.1616C162.471 51.9787 162.99 51.8873 163.584 51.8873H165.001V54.2647H162.669C161.755 54.2647 161.008 54.539 160.429 55.0877C159.85 55.6211 159.56 56.345 159.56 57.2594V61.6714H163.835V63.6831H153.937V61.6714ZM177.154 63.6831C176.438 63.6831 175.897 63.5003 175.531 63.1345C175.18 62.7687 174.967 62.2887 174.891 61.6943H174.776C174.548 62.4106 174.129 62.9668 173.519 63.3631C172.925 63.7593 172.163 63.9575 171.233 63.9575C170.029 63.9575 169.069 63.645 168.353 63.0202C167.636 62.3801 167.278 61.5038 167.278 60.3913C167.278 59.2483 167.697 58.3796 168.536 57.7852C169.389 57.1756 170.692 56.8708 172.445 56.8708H174.708V55.9564C174.708 54.3562 173.862 53.5561 172.17 53.5561C171.408 53.5561 170.791 53.7085 170.319 54.0133C169.846 54.3028 169.45 54.6914 169.13 55.1791L167.644 53.9675C167.979 53.3275 168.543 52.7788 169.336 52.3216C170.128 51.8492 171.149 51.6129 172.399 51.6129C173.893 51.6129 175.066 51.9711 175.919 52.6874C176.773 53.4037 177.2 54.44 177.2 55.7964V61.7172H178.686V63.6831H177.154ZM171.942 62.1286C172.75 62.1286 173.412 61.9458 173.931 61.58C174.449 61.2142 174.708 60.7418 174.708 60.1627V58.4481H172.49C170.692 58.4481 169.793 58.9892 169.793 60.0712V60.5284C169.793 61.0618 169.983 61.4657 170.364 61.74C170.745 61.9991 171.271 62.1286 171.942 62.1286ZM181.42 51.8873H183.912V53.899H184.049C184.399 53.1827 184.864 52.6264 185.443 52.2302C186.022 51.8187 186.746 51.6129 187.615 51.6129C189.002 51.6129 190.107 52.1311 190.93 53.1674C191.753 54.2038 192.164 55.743 192.164 57.7852C192.164 59.8274 191.753 61.3666 190.93 62.403C190.107 63.4393 189.002 63.9575 187.615 63.9575C186.746 63.9575 186.022 63.7593 185.443 63.3631C184.864 62.9516 184.399 62.3877 184.049 61.6714H183.912V68.2552H181.42V51.8873ZM186.586 61.9229C187.531 61.9229 188.255 61.6333 188.758 61.0542C189.276 60.4751 189.535 59.7055 189.535 58.7453V56.8251C189.535 55.8649 189.276 55.0953 188.758 54.5162C188.255 53.9371 187.531 53.6475 186.586 53.6475C186.221 53.6475 185.878 53.6932 185.558 53.7847C185.238 53.8761 184.956 54.0133 184.712 54.1961C184.468 54.379 184.27 54.6076 184.117 54.8819C183.98 55.141 183.912 55.4535 183.912 55.8192V59.7512C183.912 60.1169 183.98 60.437 184.117 60.7113C184.27 60.9704 184.468 61.1914 184.712 61.3743C184.956 61.5571 185.238 61.6943 185.558 61.7857C185.878 61.8772 186.221 61.9229 186.586 61.9229ZM200.911 49.7384C200.271 49.7384 199.821 49.6089 199.562 49.3498C199.318 49.0907 199.196 48.7706 199.196 48.3896V47.9096C199.196 47.5286 199.318 47.2085 199.562 46.9494C199.821 46.6904 200.263 46.5608 200.888 46.5608C201.528 46.5608 201.97 46.6904 202.214 46.9494C202.473 47.2085 202.602 47.5286 202.602 47.9096V48.3896C202.602 48.7706 202.473 49.0907 202.214 49.3498C201.97 49.6089 201.536 49.7384 200.911 49.7384ZM195.63 61.6714H199.653V53.899H195.63V51.8873H202.145V61.6714H205.917V63.6831H195.63V61.6714ZM208.949 63.6831V51.8873H211.44V53.899H211.555C211.677 53.5942 211.829 53.3046 212.012 53.0303C212.21 52.7407 212.446 52.4969 212.721 52.2987C212.995 52.0854 213.315 51.9177 213.681 51.7958C214.046 51.6739 214.473 51.6129 214.961 51.6129C216.15 51.6129 217.11 52.0016 217.841 52.7788C218.573 53.5561 218.939 54.661 218.939 56.0935V63.6831H216.447V56.4593C216.447 54.5848 215.631 53.6475 214.001 53.6475C213.681 53.6475 213.368 53.6932 213.063 53.7847C212.759 53.8609 212.484 53.9828 212.24 54.1504C211.997 54.3181 211.798 54.5314 211.646 54.7905C211.509 55.0496 211.44 55.3468 211.44 55.6821V63.6831H208.949ZM233.766 64.9633C233.766 66.1825 233.255 67.0817 232.234 67.6608C231.213 68.2399 229.659 68.5295 227.571 68.5295C226.55 68.5295 225.689 68.4609 224.988 68.3238C224.302 68.2018 223.738 68.019 223.296 67.7751C222.869 67.5313 222.557 67.2341 222.359 66.8836C222.176 66.533 222.084 66.1368 222.084 65.6948C222.084 65.0547 222.26 64.5518 222.61 64.1861C222.976 63.8355 223.486 63.5765 224.142 63.4088V63.1802C223.745 63.0278 223.425 62.8144 223.182 62.5401C222.953 62.2658 222.839 61.9077 222.839 61.4657C222.839 60.8866 223.037 60.4522 223.433 60.1627C223.829 59.8579 224.34 59.6293 224.965 59.4769V59.3626C224.248 59.0273 223.692 58.5548 223.296 57.9452C222.9 57.3356 222.702 56.6041 222.702 55.7506C222.702 55.1258 222.816 54.5619 223.044 54.059C223.273 53.5408 223.593 53.1065 224.005 52.7559C224.431 52.3902 224.934 52.1082 225.513 51.9101C226.108 51.712 226.771 51.6129 227.502 51.6129C228.325 51.6129 229.064 51.7425 229.72 52.0016V51.6129C229.72 51.1557 229.849 50.7747 230.108 50.4699C230.367 50.1651 230.764 50.0127 231.297 50.0127H233.446V51.9787H230.703V52.5273C231.221 52.8779 231.617 53.3275 231.891 53.8761C232.166 54.4095 232.303 55.0343 232.303 55.7506C232.303 56.3755 232.189 56.947 231.96 57.4652C231.731 57.9681 231.404 58.4024 230.977 58.7682C230.565 59.1187 230.063 59.393 229.468 59.5912C228.889 59.774 228.234 59.8655 227.502 59.8655C226.984 59.8655 226.496 59.8198 226.039 59.7283C225.765 59.8045 225.49 59.9341 225.216 60.1169C224.942 60.2998 224.805 60.5513 224.805 60.8713C224.805 61.2371 224.98 61.4657 225.33 61.5571C225.681 61.6486 226.115 61.6943 226.633 61.6943H229.285C230.87 61.6943 232.013 61.9991 232.714 62.6087C233.415 63.2031 233.766 63.9879 233.766 64.9633ZM231.434 65.1233C231.434 64.7271 231.274 64.407 230.954 64.1632C230.634 63.9346 230.055 63.8203 229.217 63.8203H225.125C224.546 64.0946 224.256 64.5366 224.256 65.1462C224.256 65.5882 224.439 65.9692 224.805 66.2892C225.186 66.6092 225.811 66.7693 226.679 66.7693H228.531C229.476 66.7693 230.192 66.6245 230.68 66.3349C231.183 66.0606 231.434 65.6567 231.434 65.1233ZM227.502 58.151C228.31 58.151 228.904 57.9605 229.285 57.5795C229.666 57.1984 229.857 56.6879 229.857 56.0478V55.4306C229.857 54.7905 229.666 54.28 229.285 53.899C228.904 53.518 228.31 53.3275 227.502 53.3275C226.694 53.3275 226.1 53.518 225.719 53.899C225.338 54.28 225.148 54.7905 225.148 55.4306V56.0478C225.148 56.6879 225.338 57.1984 225.719 57.5795C226.1 57.9605 226.694 58.151 227.502 58.151ZM249.956 51.8873H252.448V53.899H252.585C252.935 53.1827 253.4 52.6264 253.979 52.2302C254.558 51.8187 255.282 51.6129 256.151 51.6129C257.538 51.6129 258.643 52.1311 259.466 53.1674C260.289 54.2038 260.7 55.743 260.7 57.7852C260.7 59.8274 260.289 61.3666 259.466 62.403C258.643 63.4393 257.538 63.9575 256.151 63.9575C255.282 63.9575 254.558 63.7593 253.979 63.3631C253.4 62.9516 252.935 62.3877 252.585 61.6714H252.448V68.2552H249.956V51.8873ZM255.122 61.9229C256.067 61.9229 256.791 61.6333 257.294 61.0542C257.812 60.4751 258.071 59.7055 258.071 58.7453V56.8251C258.071 55.8649 257.812 55.0953 257.294 54.5162C256.791 53.9371 256.067 53.6475 255.122 53.6475C254.757 53.6475 254.414 53.6932 254.094 53.7847C253.774 53.8761 253.492 54.0133 253.248 54.1961C253.004 54.379 252.806 54.6076 252.653 54.8819C252.516 55.141 252.448 55.4535 252.448 55.8192V59.7512C252.448 60.1169 252.516 60.437 252.653 60.7113C252.806 60.9704 253.004 61.1914 253.248 61.3743C253.492 61.5571 253.774 61.6943 254.094 61.7857C254.414 61.8772 254.757 61.9229 255.122 61.9229ZM263.595 61.6714H266.726V53.899H263.595V51.8873H269.218V55.0191H269.355C269.462 54.6076 269.614 54.2114 269.813 53.8304C270.011 53.4494 270.262 53.1217 270.567 52.8474C270.872 52.5578 271.245 52.3292 271.687 52.1616C272.129 51.9787 272.647 51.8873 273.242 51.8873H274.659V54.2647H272.327C271.413 54.2647 270.666 54.539 270.087 55.0877C269.508 55.6211 269.218 56.345 269.218 57.2594V61.6714H273.493V63.6831H263.595V61.6714ZM282.422 63.9575C281.554 63.9575 280.769 63.8127 280.068 63.5231C279.382 63.2336 278.795 62.8221 278.308 62.2887C277.835 61.7553 277.469 61.1075 277.21 60.3455C276.951 59.5835 276.822 58.7301 276.822 57.7852C276.822 56.8403 276.951 55.9869 277.21 55.2249C277.469 54.4628 277.835 53.8151 278.308 53.2817C278.795 52.7483 279.382 52.3368 280.068 52.0473C280.769 51.7577 281.554 51.6129 282.422 51.6129C283.291 51.6129 284.068 51.7577 284.754 52.0473C285.455 52.3368 286.042 52.7483 286.514 53.2817C287.002 53.8151 287.375 54.4628 287.635 55.2249C287.894 55.9869 288.023 56.8403 288.023 57.7852C288.023 58.7301 287.894 59.5835 287.635 60.3455C287.375 61.1075 287.002 61.7553 286.514 62.2887C286.042 62.8221 285.455 63.2336 284.754 63.5231C284.068 63.8127 283.291 63.9575 282.422 63.9575ZM282.422 61.9915C283.337 61.9915 284.061 61.7172 284.594 61.1685C285.143 60.6046 285.417 59.774 285.417 58.6767V56.8936C285.417 55.7964 285.143 54.9734 284.594 54.4247C284.061 53.8609 283.337 53.5789 282.422 53.5789C281.508 53.5789 280.776 53.8609 280.228 54.4247C279.694 54.9734 279.428 55.7964 279.428 56.8936V58.6767C279.428 59.774 279.694 60.6046 280.228 61.1685C280.776 61.7172 281.508 61.9915 282.422 61.9915ZM296.838 63.6831C295.802 63.6831 295.04 63.4088 294.552 62.8602C294.065 62.2963 293.821 61.5724 293.821 60.6884V53.899H290.186V51.8873H292.769C293.211 51.8873 293.524 51.8034 293.706 51.6358C293.889 51.4529 293.981 51.1329 293.981 50.6757V47.7267H296.313V51.8873H301.342V53.899H296.313V61.6714H301.342V63.6831H296.838ZM310.088 63.9575C309.189 63.9575 308.381 63.8127 307.665 63.5231C306.949 63.2336 306.347 62.8221 305.859 62.2887C305.371 61.7553 304.998 61.1152 304.739 60.3684C304.48 59.6064 304.35 58.7529 304.35 57.8081C304.35 56.8632 304.48 56.0097 304.739 55.2477C305.013 54.4857 305.387 53.838 305.859 53.3046C306.347 52.7559 306.934 52.3368 307.619 52.0473C308.305 51.7577 309.067 51.6129 309.905 51.6129C310.728 51.6129 311.475 51.7577 312.146 52.0473C312.816 52.3216 313.388 52.7178 313.86 53.236C314.333 53.7542 314.691 54.3714 314.935 55.0877C315.194 55.804 315.323 56.5965 315.323 57.4652V58.4024H306.865V58.791C306.865 59.7207 307.155 60.4827 307.734 61.0771C308.313 61.6562 309.113 61.9458 310.134 61.9458C310.896 61.9458 311.544 61.7857 312.077 61.4657C312.626 61.1304 313.068 60.6884 313.403 60.1398L314.958 61.5114C314.561 62.1972 313.952 62.7763 313.129 63.2488C312.321 63.7212 311.308 63.9575 310.088 63.9575ZM309.905 53.5103C309.463 53.5103 309.052 53.5865 308.671 53.7389C308.305 53.8913 307.985 54.1123 307.711 54.4019C307.452 54.6762 307.246 55.0039 307.094 55.3849C306.941 55.7659 306.865 56.185 306.865 56.6422V56.8022H312.786V56.5736C312.786 55.644 312.519 54.9048 311.986 54.3562C311.468 53.7923 310.774 53.5103 309.905 53.5103ZM323.978 63.9575C323.094 63.9575 322.302 63.8127 321.601 63.5231C320.915 63.2336 320.328 62.8221 319.841 62.2887C319.368 61.7553 319.002 61.1075 318.743 60.3455C318.5 59.5835 318.378 58.7301 318.378 57.7852C318.378 56.8403 318.5 55.9869 318.743 55.2249C319.002 54.4628 319.368 53.8151 319.841 53.2817C320.328 52.7483 320.915 52.3368 321.601 52.0473C322.302 51.7577 323.087 51.6129 323.956 51.6129C325.175 51.6129 326.15 51.872 326.882 52.3902C327.628 52.9083 328.185 53.5789 328.55 54.4019L326.607 55.4535C326.394 54.9048 326.066 54.4705 325.624 54.1504C325.198 53.8304 324.641 53.6704 323.956 53.6704C323.011 53.6704 322.279 53.9599 321.761 54.539C321.243 55.1029 320.984 55.8573 320.984 56.8022V58.7682C320.984 59.6978 321.243 60.4522 321.761 61.0313C322.279 61.6105 323.026 61.9 324.001 61.9C324.733 61.9 325.327 61.7324 325.784 61.3971C326.257 61.0618 326.63 60.6046 326.904 60.0255L328.733 61.1457C328.352 61.9686 327.773 62.6468 326.996 63.1802C326.219 63.6984 325.213 63.9575 323.978 63.9575ZM337.96 63.6831C336.924 63.6831 336.162 63.4088 335.674 62.8602C335.186 62.2963 334.942 61.5724 334.942 60.6884V53.899H331.308V51.8873H333.891C334.333 51.8873 334.645 51.8034 334.828 51.6358C335.011 51.4529 335.102 51.1329 335.102 50.6757V47.7267H337.434V51.8873H342.463V53.899H337.434V61.6714H342.463V63.6831H337.96ZM351.69 49.7384C351.05 49.7384 350.6 49.6089 350.341 49.3498C350.097 49.0907 349.975 48.7706 349.975 48.3896V47.9096C349.975 47.5286 350.097 47.2085 350.341 46.9494C350.6 46.6904 351.042 46.5608 351.667 46.5608C352.307 46.5608 352.749 46.6904 352.993 46.9494C353.252 47.2085 353.382 47.5286 353.382 47.9096V48.3896C353.382 48.7706 353.252 49.0907 352.993 49.3498C352.749 49.6089 352.315 49.7384 351.69 49.7384ZM346.409 61.6714H350.433V53.899H346.409V51.8873H352.924V61.6714H356.696V63.6831H346.409V61.6714ZM364.666 63.9575C363.797 63.9575 363.012 63.8127 362.311 63.5231C361.625 63.2336 361.039 62.8221 360.551 62.2887C360.078 61.7553 359.713 61.1075 359.454 60.3455C359.194 59.5835 359.065 58.7301 359.065 57.7852C359.065 56.8403 359.194 55.9869 359.454 55.2249C359.713 54.4628 360.078 53.8151 360.551 53.2817C361.039 52.7483 361.625 52.3368 362.311 52.0473C363.012 51.7577 363.797 51.6129 364.666 51.6129C365.534 51.6129 366.312 51.7577 366.997 52.0473C367.698 52.3368 368.285 52.7483 368.758 53.2817C369.245 53.8151 369.619 54.4628 369.878 55.2249C370.137 55.9869 370.266 56.8403 370.266 57.7852C370.266 58.7301 370.137 59.5835 369.878 60.3455C369.619 61.1075 369.245 61.7553 368.758 62.2887C368.285 62.8221 367.698 63.2336 366.997 63.5231C366.312 63.8127 365.534 63.9575 364.666 63.9575ZM364.666 61.9915C365.58 61.9915 366.304 61.7172 366.837 61.1685C367.386 60.6046 367.66 59.774 367.66 58.6767V56.8936C367.66 55.7964 367.386 54.9734 366.837 54.4247C366.304 53.8609 365.58 53.5789 364.666 53.5789C363.751 53.5789 363.02 53.8609 362.471 54.4247C361.938 54.9734 361.671 55.7964 361.671 56.8936V58.6767C361.671 59.774 361.938 60.6046 362.471 61.1685C363.02 61.7172 363.751 61.9915 364.666 61.9915ZM373.435 63.6831V51.8873H375.927V53.899H376.041C376.163 53.5942 376.315 53.3046 376.498 53.0303C376.696 52.7407 376.933 52.4969 377.207 52.2987C377.481 52.0854 377.801 51.9177 378.167 51.7958C378.533 51.6739 378.96 51.6129 379.447 51.6129C380.636 51.6129 381.596 52.0016 382.328 52.7788C383.059 53.5561 383.425 54.661 383.425 56.0935V63.6831H380.933V56.4593C380.933 54.5848 380.118 53.6475 378.487 53.6475C378.167 53.6475 377.855 53.6932 377.55 53.7847C377.245 53.8609 376.971 53.9828 376.727 54.1504C376.483 54.3181 376.285 54.5314 376.133 54.7905C375.995 55.0496 375.927 55.3468 375.927 55.6821V63.6831H373.435ZM392.103 63.9575C390.823 63.9575 389.718 63.7517 388.788 63.3402C387.874 62.9287 387.135 62.3801 386.571 61.6943L388.102 60.3227C388.621 60.8866 389.2 61.3209 389.84 61.6257C390.495 61.9153 391.265 62.0601 392.149 62.0601C392.956 62.0601 393.604 61.9229 394.092 61.6486C394.595 61.3743 394.846 60.9475 394.846 60.3684C394.846 60.1246 394.8 59.9188 394.709 59.7512C394.618 59.5835 394.488 59.4464 394.32 59.3397C394.153 59.233 393.955 59.1492 393.726 59.0882C393.513 59.0273 393.284 58.9815 393.04 58.9511L391.166 58.6539C390.709 58.5929 390.244 58.4939 389.771 58.3567C389.299 58.2195 388.872 58.029 388.491 57.7852C388.125 57.5261 387.82 57.1985 387.577 56.8022C387.348 56.406 387.234 55.903 387.234 55.2934C387.234 54.0895 387.691 53.175 388.605 52.5502C389.535 51.9254 390.754 51.6129 392.263 51.6129C393.36 51.6129 394.305 51.7806 395.098 52.1159C395.905 52.4359 396.576 52.8855 397.109 53.4646L395.715 54.9277C395.41 54.5771 394.976 54.2571 394.412 53.9675C393.848 53.6627 393.101 53.5103 392.172 53.5103C390.51 53.5103 389.68 54.0361 389.68 55.0877C389.68 55.5906 389.855 55.9411 390.206 56.1393C390.571 56.3221 390.998 56.4441 391.486 56.505L393.36 56.8022C393.833 56.8784 394.298 56.9775 394.755 57.0994C395.227 57.2213 395.646 57.4118 396.012 57.6709C396.393 57.9147 396.698 58.2348 396.926 58.631C397.17 59.0273 397.292 59.5302 397.292 60.1398C397.292 61.3285 396.827 62.2658 395.898 62.9516C394.983 63.6222 393.718 63.9575 392.103 63.9575Z" fill="#DFDFDF"/>
<path d="M141 75.5V99.5551V152.141" stroke="#C2D5FF" stroke-width="1.69166" stroke-dasharray="2.26 2.26"/>
<path d="M142.905 122.94V126.324C142.905 132.552 147.954 137.601 154.183 137.601H381.429C387.657 137.601 392.707 142.651 392.707 148.879V156.774" stroke="#C2D5FF" stroke-width="1.69166" stroke-dasharray="2.26 2.26"/>
<rect x="44.4699" y="110.126" width="243.904" height="96.4269" rx="9.39223" fill="#0F0F0F"/>
<rect x="44.4699" y="110.126" width="243.904" height="96.4269" rx="9.39223" stroke="#2A2A2A" stroke-width="1.2523"/>
<path d="M73.3999 131.623C74.155 132.876 74.4776 134.343 74.3183 135.797V136.632C74.3173 137.511 74.5476 138.375 74.9861 139.137" stroke="#DFDFDF" stroke-width="1.66973" stroke-linecap="round" stroke-linejoin="round"/>
<path d="M64.2964 134.963C64.2964 134.077 64.6482 133.227 65.2745 132.601C65.9008 131.975 66.7502 131.623 67.6358 131.623C68.5215 131.623 69.3709 131.975 69.9972 132.601C70.6235 133.227 70.9753 134.077 70.9753 134.963V135.797C70.9753 137.604 71.5612 139.362 72.645 140.807" stroke="#DFDFDF" stroke-width="1.66973" stroke-linecap="round" stroke-linejoin="round"/>
<path d="M67.6377 134.964V136.634C67.635 139.021 68.3634 141.352 69.7249 143.313" stroke="#DFDFDF" stroke-width="1.66973" stroke-linecap="round" stroke-linejoin="round"/>
<path d="M64.2964 138.303C64.5007 140.048 65.0093 141.743 65.7991 143.312" stroke="#DFDFDF" stroke-width="1.66973" stroke-linecap="round" stroke-linejoin="round"/>
<path d="M61.7122 141.643C61.1489 139.748 60.8951 137.775 60.9608 135.799V134.964C60.9576 133.791 61.2639 132.636 61.8488 131.619C62.4337 130.601 63.2765 129.755 64.2924 129.167C65.3083 128.578 66.4612 128.268 67.6352 128.267C68.8091 128.267 69.9625 128.575 70.9792 129.162" stroke="#DFDFDF" stroke-width="1.66973" stroke-linecap="round" stroke-linejoin="round"/>
<path d="M91.013 129.048H92.943V137.434C92.943 138.326 92.7334 139.117 92.3142 139.806C91.895 140.491 91.3056 141.03 90.546 141.425C89.7864 141.815 88.8961 142.01 87.8751 142.01C86.8582 142.01 85.97 141.815 85.2104 141.425C84.4508 141.03 83.8615 140.491 83.4422 139.806C83.023 139.117 82.8134 138.326 82.8134 137.434V129.048H84.7372V137.278C84.7372 137.855 84.8638 138.368 85.117 138.816C85.3744 139.264 85.7375 139.617 86.2065 139.874C86.6756 140.128 87.2317 140.254 87.8751 140.254C88.5226 140.254 89.0808 140.128 89.5499 139.874C90.023 139.617 90.3841 139.264 90.6332 138.816C90.8864 138.368 91.013 137.855 91.013 137.278V129.048ZM97.4521 136.12V141.798H95.5906V132.235H97.3774V133.792H97.4957C97.7157 133.285 98.0602 132.879 98.5292 132.571C99.0024 132.264 99.598 132.111 100.316 132.111C100.968 132.111 101.538 132.248 102.028 132.522C102.518 132.791 102.898 133.194 103.167 133.729C103.437 134.265 103.572 134.927 103.572 135.716V141.798H101.711V135.94C101.711 135.246 101.53 134.705 101.169 134.315C100.808 133.92 100.312 133.723 99.681 133.723C99.2493 133.723 98.8654 133.817 98.5292 134.003C98.1971 134.19 97.9336 134.464 97.7385 134.825C97.5476 135.182 97.4521 135.614 97.4521 136.12ZM106.218 141.798V129.048H108.08V133.785H108.192C108.3 133.586 108.455 133.356 108.659 133.094C108.862 132.833 109.144 132.605 109.505 132.41C109.867 132.21 110.344 132.111 110.937 132.111C111.709 132.111 112.398 132.306 113.004 132.696C113.61 133.086 114.086 133.648 114.43 134.383C114.779 135.118 114.953 136.002 114.953 137.035C114.953 138.069 114.781 138.955 114.436 139.694C114.092 140.429 113.619 140.995 113.017 141.394C112.415 141.788 111.728 141.985 110.956 141.985C110.375 141.985 109.9 141.887 109.53 141.692C109.165 141.497 108.879 141.269 108.671 141.008C108.464 140.746 108.304 140.514 108.192 140.31H108.036V141.798H106.218ZM108.042 137.017C108.042 137.689 108.14 138.279 108.335 138.785C108.53 139.291 108.812 139.688 109.182 139.974C109.551 140.256 110.004 140.397 110.539 140.397C111.095 140.397 111.56 140.25 111.934 139.955C112.307 139.657 112.589 139.252 112.78 138.741C112.975 138.231 113.073 137.656 113.073 137.017C113.073 136.386 112.977 135.819 112.787 135.317C112.6 134.815 112.318 134.418 111.94 134.128C111.566 133.837 111.099 133.692 110.539 133.692C109.999 133.692 109.543 133.831 109.169 134.109C108.8 134.387 108.52 134.775 108.329 135.273C108.138 135.772 108.042 136.353 108.042 137.017ZM118.905 129.048V141.798H117.043V129.048H118.905ZM125.438 141.991C124.541 141.991 123.759 141.786 123.09 141.375C122.422 140.964 121.903 140.389 121.534 139.65C121.165 138.911 120.98 138.048 120.98 137.06C120.98 136.068 121.165 135.201 121.534 134.458C121.903 133.715 122.422 133.138 123.09 132.727C123.759 132.316 124.541 132.111 125.438 132.111C126.334 132.111 127.116 132.316 127.785 132.727C128.453 133.138 128.972 133.715 129.341 134.458C129.711 135.201 129.895 136.068 129.895 137.06C129.895 138.048 129.711 138.911 129.341 139.65C128.972 140.389 128.453 140.964 127.785 141.375C127.116 141.786 126.334 141.991 125.438 141.991ZM125.444 140.429C126.025 140.429 126.506 140.275 126.888 139.968C127.27 139.661 127.552 139.252 127.735 138.741C127.922 138.231 128.015 137.668 128.015 137.054C128.015 136.444 127.922 135.884 127.735 135.373C127.552 134.858 127.27 134.445 126.888 134.134C126.506 133.823 126.025 133.667 125.444 133.667C124.859 133.667 124.373 133.823 123.987 134.134C123.605 134.445 123.321 134.858 123.134 135.373C122.951 135.884 122.86 136.444 122.86 137.054C122.86 137.668 122.951 138.231 123.134 138.741C123.321 139.252 123.605 139.661 123.987 139.968C124.373 140.275 124.859 140.429 125.444 140.429ZM136.001 141.991C135.076 141.991 134.279 141.782 133.611 141.362C132.947 140.939 132.436 140.356 132.079 139.613C131.722 138.87 131.544 138.019 131.544 137.06C131.544 136.089 131.726 135.232 132.092 134.489C132.457 133.742 132.971 133.159 133.636 132.74C134.3 132.32 135.082 132.111 135.983 132.111C136.709 132.111 137.357 132.246 137.925 132.515C138.494 132.781 138.952 133.155 139.301 133.636C139.654 134.118 139.864 134.68 139.93 135.323H138.118C138.019 134.875 137.79 134.489 137.433 134.165C137.081 133.842 136.607 133.68 136.014 133.68C135.495 133.68 135.041 133.817 134.65 134.091C134.264 134.36 133.963 134.746 133.748 135.249C133.532 135.747 133.424 136.336 133.424 137.017C133.424 137.714 133.53 138.316 133.741 138.822C133.953 139.329 134.252 139.721 134.638 139.999C135.028 140.277 135.487 140.416 136.014 140.416C136.367 140.416 136.686 140.352 136.973 140.223C137.263 140.09 137.506 139.901 137.701 139.657C137.9 139.412 138.039 139.117 138.118 138.772H139.93C139.864 139.391 139.662 139.943 139.326 140.429C138.99 140.914 138.539 141.296 137.975 141.574C137.415 141.852 136.757 141.991 136.001 141.991ZM143.633 138.555L143.62 136.282H143.944L147.754 132.235H149.983L145.638 136.842H145.345L143.633 138.555ZM141.921 141.798V129.048H143.782V141.798H141.921ZM147.96 141.798L144.536 137.253L145.818 135.952L150.245 141.798H147.96ZM151.68 141.798V132.235H153.541V141.798H151.68ZM152.62 130.76C152.296 130.76 152.018 130.652 151.786 130.436C151.557 130.216 151.443 129.954 151.443 129.651C151.443 129.344 151.557 129.083 151.786 128.867C152.018 128.647 152.296 128.537 152.62 128.537C152.944 128.537 153.22 128.647 153.448 128.867C153.68 129.083 153.797 129.344 153.797 129.651C153.797 129.954 153.68 130.216 153.448 130.436C153.22 130.652 152.944 130.76 152.62 130.76ZM157.907 136.12V141.798H156.046V132.235H157.833V133.792H157.951C158.171 133.285 158.515 132.879 158.984 132.571C159.458 132.264 160.053 132.111 160.771 132.111C161.423 132.111 161.994 132.248 162.483 132.522C162.973 132.791 163.353 133.194 163.623 133.729C163.892 134.265 164.027 134.927 164.027 135.716V141.798H162.166V135.94C162.166 135.246 161.985 134.705 161.624 134.315C161.263 133.92 160.767 133.723 160.136 133.723C159.704 133.723 159.321 133.817 158.984 134.003C158.652 134.19 158.389 134.464 158.194 134.825C158.003 135.182 157.907 135.614 157.907 136.12ZM170.533 145.584C169.774 145.584 169.12 145.484 168.572 145.285C168.029 145.085 167.584 144.822 167.24 144.494C166.895 144.166 166.638 143.807 166.468 143.417L168.068 142.757C168.18 142.94 168.329 143.133 168.516 143.336C168.707 143.544 168.964 143.72 169.288 143.865C169.616 144.01 170.037 144.083 170.552 144.083C171.258 144.083 171.841 143.911 172.302 143.566C172.762 143.226 172.993 142.682 172.993 141.935V140.055H172.874C172.762 140.258 172.6 140.485 172.389 140.734C172.181 140.983 171.895 141.198 171.53 141.381C171.164 141.564 170.689 141.655 170.104 141.655C169.348 141.655 168.668 141.479 168.062 141.126C167.46 140.769 166.983 140.244 166.63 139.551C166.281 138.853 166.107 137.996 166.107 136.979C166.107 135.962 166.279 135.091 166.624 134.364C166.972 133.638 167.45 133.082 168.055 132.696C168.661 132.306 169.348 132.111 170.116 132.111C170.71 132.111 171.189 132.21 171.554 132.41C171.92 132.605 172.204 132.833 172.407 133.094C172.615 133.356 172.775 133.586 172.887 133.785H173.024V132.235H174.848V142.01C174.848 142.832 174.657 143.506 174.275 144.033C173.893 144.56 173.377 144.951 172.725 145.204C172.077 145.457 171.347 145.584 170.533 145.584ZM170.515 140.111C171.05 140.111 171.503 139.986 171.872 139.737C172.246 139.484 172.528 139.123 172.719 138.654C172.914 138.181 173.011 137.614 173.011 136.954C173.011 136.311 172.916 135.745 172.725 135.255C172.534 134.765 172.254 134.383 171.884 134.109C171.515 133.831 171.058 133.692 170.515 133.692C169.954 133.692 169.487 133.837 169.114 134.128C168.74 134.414 168.458 134.804 168.267 135.298C168.08 135.792 167.987 136.344 167.987 136.954C167.987 137.581 168.082 138.131 168.273 138.604C168.464 139.077 168.747 139.447 169.12 139.713C169.498 139.978 169.963 140.111 170.515 140.111Z" fill="#DFDFDF"/>
<rect x="58.2453" y="158.966" width="216.353" height="33.812" rx="6.88764" fill="#0F0F0F"/>
<rect x="58.2453" y="158.966" width="216.353" height="33.812" rx="6.88764" stroke="#161616" stroke-width="1.2523"/>
<rect x="62.0021" y="162.723" width="98.7845" height="26.2983" rx="4.38304" fill="#020202"/>
<rect x="62.0021" y="162.723" width="98.7845" height="26.2983" rx="4.38304" stroke="#E6E6E6" stroke-width="1.2523"/>
<path d="M76.1333 180.372H72.5952V169.443H76.2454C77.3163 169.443 78.2359 169.662 79.0044 170.099C79.7728 170.533 80.3616 171.158 80.7708 171.972C81.1834 172.783 81.3898 173.756 81.3898 174.891C81.3898 176.03 81.1817 177.008 80.7654 177.826C80.3527 178.645 79.755 179.274 78.9724 179.716C78.1897 180.153 77.2433 180.372 76.1333 180.372ZM74.2442 178.931H76.0426C76.8751 178.931 77.5671 178.775 78.1185 178.461C78.67 178.145 79.0826 177.688 79.3566 177.09C79.6305 176.489 79.7675 175.756 79.7675 174.891C79.7675 174.034 79.6305 173.306 79.3566 172.709C79.0862 172.111 78.6824 171.657 78.1452 171.348C77.608 171.038 76.9409 170.884 76.144 170.884H74.2442V178.931ZM85.6977 180.553C85.1783 180.553 84.7086 180.457 84.2888 180.265C83.869 180.07 83.5364 179.787 83.2909 179.417C83.049 179.047 82.928 178.593 82.928 178.056C82.928 177.593 83.017 177.213 83.1949 176.914C83.3727 176.615 83.6129 176.378 83.9153 176.204C84.2177 176.03 84.5557 175.898 84.9292 175.809C85.3028 175.72 85.6834 175.653 86.0712 175.606C86.5622 175.55 86.9606 175.503 87.2666 175.468C87.5726 175.429 87.7949 175.366 87.9337 175.281C88.0724 175.196 88.1418 175.057 88.1418 174.865V174.827C88.1418 174.361 88.0102 174 87.7469 173.744C87.4872 173.488 87.0994 173.36 86.5835 173.36C86.0463 173.36 85.623 173.479 85.3134 173.717C85.0075 173.952 84.7958 174.214 84.6784 174.502L83.1788 174.16C83.3567 173.662 83.6164 173.26 83.958 172.954C84.3031 172.645 84.6997 172.421 85.148 172.282C85.5963 172.14 86.0677 172.068 86.5622 172.068C86.8895 172.068 87.2364 172.107 87.6028 172.186C87.9728 172.26 88.3179 172.399 88.6381 172.602C88.9618 172.805 89.2269 173.095 89.4332 173.472C89.6396 173.845 89.7427 174.331 89.7427 174.929V180.372H88.1845V179.251H88.1204C88.0173 179.458 87.8625 179.66 87.6562 179.86C87.4498 180.059 87.1848 180.224 86.861 180.356C86.5373 180.488 86.1495 180.553 85.6977 180.553ZM86.0445 179.273C86.4857 179.273 86.8628 179.185 87.1759 179.011C87.4925 178.837 87.7327 178.609 87.8963 178.328C88.0635 178.043 88.1471 177.739 88.1471 177.416V176.359C88.0902 176.416 87.9799 176.469 87.8163 176.519C87.6562 176.565 87.4729 176.606 87.2666 176.642C87.0603 176.674 86.8593 176.704 86.6636 176.732C86.4679 176.757 86.3043 176.779 86.1726 176.796C85.8631 176.836 85.5803 176.901 85.3241 176.994C85.0715 177.086 84.8687 177.22 84.7158 177.394C84.5663 177.565 84.4916 177.793 84.4916 178.077C84.4916 178.472 84.6375 178.771 84.9292 178.974C85.2209 179.173 85.5927 179.273 86.0445 179.273ZM95.6943 172.175V173.456H91.2169V172.175H95.6943ZM92.4177 170.211H94.0133V177.965C94.0133 178.275 94.0595 178.508 94.152 178.664C94.2445 178.817 94.3637 178.922 94.5096 178.979C94.659 179.032 94.8209 179.059 94.9952 179.059C95.1233 179.059 95.2353 179.05 95.3314 179.032C95.4274 179.015 95.5022 179 95.5555 178.99L95.8437 180.308C95.7512 180.343 95.6196 180.379 95.4488 180.415C95.278 180.454 95.0646 180.475 94.8084 180.479C94.3886 180.486 93.9973 180.411 93.6344 180.255C93.2715 180.098 92.978 179.856 92.7539 179.529C92.5297 179.201 92.4177 178.791 92.4177 178.296V170.211ZM99.8447 180.553C99.3253 180.553 98.8557 180.457 98.4359 180.265C98.0161 180.07 97.6834 179.787 97.438 179.417C97.196 179.047 97.0751 178.593 97.0751 178.056C97.0751 177.593 97.164 177.213 97.3419 176.914C97.5198 176.615 97.7599 176.378 98.0623 176.204C98.3647 176.03 98.7027 175.898 99.0763 175.809C99.4498 175.72 99.8305 175.653 100.218 175.606C100.709 175.55 101.108 175.503 101.414 175.468C101.72 175.429 101.942 175.366 102.081 175.281C102.219 175.196 102.289 175.057 102.289 174.865V174.827C102.289 174.361 102.157 174 101.894 173.744C101.634 173.488 101.246 173.36 100.731 173.36C100.193 173.36 99.77 173.479 99.4605 173.717C99.1545 173.952 98.9429 174.214 98.8255 174.502L97.3259 174.16C97.5038 173.662 97.7635 173.26 98.105 172.954C98.4501 172.645 98.8468 172.421 99.2951 172.282C99.7433 172.14 100.215 172.068 100.709 172.068C101.037 172.068 101.383 172.107 101.75 172.186C102.12 172.26 102.465 172.399 102.785 172.602C103.109 172.805 103.374 173.095 103.58 173.472C103.787 173.845 103.89 174.331 103.89 174.929V180.372H102.332V179.251H102.267C102.164 179.458 102.01 179.66 101.803 179.86C101.597 180.059 101.332 180.224 101.008 180.356C100.684 180.488 100.297 180.553 99.8447 180.553ZM100.192 179.273C100.633 179.273 101.01 179.185 101.323 179.011C101.64 178.837 101.88 178.609 102.043 178.328C102.211 178.043 102.294 177.739 102.294 177.416V176.359C102.237 176.416 102.127 176.469 101.963 176.519C101.803 176.565 101.62 176.606 101.414 176.642C101.207 176.674 101.006 176.704 100.811 176.732C100.615 176.757 100.451 176.779 100.32 176.796C100.01 176.836 99.7273 176.901 99.4712 176.994C99.2186 177.086 99.0158 177.22 98.8628 177.394C98.7134 177.565 98.6387 177.793 98.6387 178.077C98.6387 178.472 98.7845 178.771 99.0763 178.974C99.368 179.173 99.7398 179.273 100.192 179.273ZM109.468 180.537C108.674 180.537 107.991 180.358 107.419 179.998C106.849 179.636 106.412 179.136 106.106 178.499C105.8 177.862 105.647 177.133 105.647 176.311C105.647 175.478 105.803 174.744 106.116 174.107C106.43 173.467 106.871 172.967 107.44 172.607C108.009 172.248 108.68 172.068 109.452 172.068C110.074 172.068 110.629 172.184 111.117 172.415C111.604 172.643 111.997 172.963 112.296 173.376C112.599 173.788 112.778 174.271 112.835 174.822H111.282C111.197 174.438 111.001 174.107 110.695 173.829C110.393 173.552 109.987 173.413 109.478 173.413C109.034 173.413 108.644 173.531 108.31 173.765C107.979 173.997 107.721 174.327 107.536 174.758C107.351 175.185 107.258 175.69 107.258 176.274C107.258 176.871 107.349 177.387 107.531 177.821C107.712 178.255 107.968 178.591 108.299 178.83C108.633 179.068 109.027 179.187 109.478 179.187C109.781 179.187 110.055 179.132 110.3 179.022C110.549 178.908 110.757 178.746 110.925 178.536C111.095 178.326 111.215 178.074 111.282 177.778H112.835C112.778 178.309 112.606 178.782 112.317 179.198C112.029 179.614 111.643 179.941 111.159 180.18C110.679 180.418 110.115 180.537 109.468 180.537ZM118.074 180.537C117.267 180.537 116.571 180.365 115.988 180.02C115.408 179.671 114.959 179.182 114.643 178.552C114.33 177.919 114.173 177.177 114.173 176.327C114.173 175.487 114.33 174.747 114.643 174.107C114.959 173.467 115.401 172.967 115.966 172.607C116.536 172.248 117.201 172.068 117.962 172.068C118.425 172.068 118.873 172.145 119.307 172.298C119.741 172.451 120.131 172.691 120.476 173.018C120.821 173.346 121.093 173.771 121.292 174.294C121.491 174.813 121.591 175.445 121.591 176.188V176.754H115.075V175.558H120.027C120.027 175.139 119.942 174.767 119.771 174.443C119.6 174.116 119.36 173.858 119.051 173.669C118.745 173.481 118.385 173.386 117.973 173.386C117.525 173.386 117.133 173.497 116.799 173.717C116.468 173.934 116.212 174.219 116.03 174.571C115.852 174.92 115.763 175.299 115.763 175.708V176.642C115.763 177.19 115.86 177.656 116.052 178.04C116.247 178.424 116.519 178.718 116.868 178.92C117.217 179.12 117.624 179.219 118.09 179.219C118.393 179.219 118.668 179.177 118.917 179.091C119.166 179.002 119.382 178.871 119.563 178.696C119.745 178.522 119.883 178.307 119.979 178.051L121.49 178.323C121.369 178.767 121.152 179.157 120.839 179.491C120.529 179.822 120.139 180.08 119.67 180.265C119.204 180.447 118.672 180.537 118.074 180.537ZM124.957 175.505V180.372H123.361V172.175H124.893V173.509H124.994C125.183 173.075 125.478 172.727 125.88 172.463C126.286 172.2 126.796 172.068 127.412 172.068C127.97 172.068 128.459 172.186 128.879 172.421C129.299 172.652 129.625 172.997 129.856 173.456C130.087 173.915 130.203 174.482 130.203 175.158V180.372H128.607V175.35C128.607 174.756 128.452 174.292 128.143 173.957C127.833 173.62 127.408 173.451 126.867 173.451C126.497 173.451 126.168 173.531 125.88 173.691C125.596 173.851 125.37 174.086 125.202 174.395C125.039 174.701 124.957 175.071 124.957 175.505ZM136.169 172.175V173.456H131.692V172.175H136.169ZM132.892 170.211H134.488V177.965C134.488 178.275 134.534 178.508 134.627 178.664C134.719 178.817 134.838 178.922 134.984 178.979C135.134 179.032 135.296 179.059 135.47 179.059C135.598 179.059 135.71 179.05 135.806 179.032C135.902 179.015 135.977 179 136.03 178.99L136.318 180.308C136.226 180.343 136.094 180.379 135.923 180.415C135.753 180.454 135.539 180.475 135.283 180.479C134.863 180.486 134.472 180.411 134.109 180.255C133.746 180.098 133.453 179.856 133.229 179.529C133.004 179.201 132.892 178.791 132.892 178.296V170.211ZM141.379 180.537C140.571 180.537 139.876 180.365 139.292 180.02C138.712 179.671 138.264 179.182 137.947 178.552C137.634 177.919 137.478 177.177 137.478 176.327C137.478 175.487 137.634 174.747 137.947 174.107C138.264 173.467 138.705 172.967 139.271 172.607C139.84 172.248 140.505 172.068 141.267 172.068C141.729 172.068 142.177 172.145 142.611 172.298C143.045 172.451 143.435 172.691 143.78 173.018C144.125 173.346 144.397 173.771 144.597 174.294C144.796 174.813 144.895 175.445 144.895 176.188V176.754H138.38V175.558H143.332C143.332 175.139 143.246 174.767 143.076 174.443C142.905 174.116 142.665 173.858 142.355 173.669C142.049 173.481 141.69 173.386 141.277 173.386C140.829 173.386 140.438 173.497 140.103 173.717C139.772 173.934 139.516 174.219 139.335 174.571C139.157 174.92 139.068 175.299 139.068 175.708V176.642C139.068 177.19 139.164 177.656 139.356 178.04C139.552 178.424 139.824 178.718 140.173 178.92C140.521 179.12 140.929 179.219 141.395 179.219C141.697 179.219 141.973 179.177 142.222 179.091C142.471 179.002 142.686 178.871 142.868 178.696C143.049 178.522 143.188 178.307 143.284 178.051L144.794 178.323C144.673 178.767 144.456 179.157 144.143 179.491C143.833 179.822 143.444 180.08 142.974 180.265C142.508 180.447 141.976 180.537 141.379 180.537ZM146.666 180.372V172.175H148.208V173.477H148.293C148.443 173.036 148.706 172.689 149.083 172.437C149.464 172.18 149.894 172.052 150.375 172.052C150.474 172.052 150.592 172.056 150.727 172.063C150.866 172.07 150.974 172.079 151.052 172.09V173.616C150.988 173.598 150.875 173.579 150.711 173.557C150.547 173.532 150.384 173.52 150.22 173.52C149.843 173.52 149.507 173.6 149.211 173.76C148.92 173.917 148.688 174.135 148.518 174.416C148.347 174.694 148.261 175.011 148.261 175.366V180.372H146.666Z" fill="#DFDFDF"/>
<rect x="172.683" y="160.363" width="100.037" height="31.0184" rx="7.51379" fill="#0F0F0F"/>
<path d="M183.902 180.372V169.443H187.798C188.645 169.443 189.347 169.588 189.906 169.88C190.468 170.172 190.888 170.576 191.165 171.092C191.443 171.604 191.582 172.196 191.582 172.869C191.582 173.537 191.441 174.126 191.16 174.635C190.883 175.14 190.463 175.533 189.901 175.814C189.342 176.095 188.639 176.236 187.793 176.236H184.842V174.816H187.643C188.177 174.816 188.611 174.74 188.945 174.587C189.283 174.434 189.531 174.212 189.687 173.92C189.844 173.628 189.922 173.278 189.922 172.869C189.922 172.456 189.842 172.098 189.682 171.796C189.525 171.494 189.278 171.262 188.94 171.102C188.606 170.939 188.166 170.857 187.622 170.857H185.551V180.372H183.902ZM189.298 175.441L191.998 180.372H190.119L187.472 175.441H189.298ZM196.89 180.537C196.082 180.537 195.387 180.365 194.803 180.02C194.224 179.671 193.775 179.182 193.459 178.552C193.146 177.919 192.989 177.177 192.989 176.327C192.989 175.487 193.146 174.747 193.459 174.107C193.775 173.466 194.216 172.966 194.782 172.607C195.351 172.248 196.017 172.068 196.778 172.068C197.24 172.068 197.689 172.145 198.123 172.298C198.557 172.451 198.946 172.691 199.291 173.018C199.637 173.345 199.909 173.771 200.108 174.293C200.307 174.813 200.407 175.444 200.407 176.188V176.754H193.891V175.558H198.843C198.843 175.138 198.758 174.767 198.587 174.443C198.416 174.116 198.176 173.858 197.867 173.669C197.561 173.481 197.201 173.386 196.789 173.386C196.34 173.386 195.949 173.497 195.615 173.717C195.284 173.934 195.028 174.219 194.846 174.571C194.668 174.92 194.579 175.299 194.579 175.708V176.642C194.579 177.189 194.675 177.655 194.868 178.04C195.063 178.424 195.335 178.717 195.684 178.92C196.033 179.119 196.44 179.219 196.906 179.219C197.208 179.219 197.484 179.176 197.733 179.091C197.982 179.002 198.198 178.87 198.379 178.696C198.56 178.522 198.699 178.307 198.795 178.05L200.305 178.323C200.184 178.767 199.967 179.157 199.654 179.491C199.345 179.822 198.955 180.08 198.486 180.265C198.02 180.446 197.488 180.537 196.89 180.537ZM208.32 174.176L206.873 174.432C206.813 174.247 206.717 174.071 206.585 173.904C206.457 173.737 206.283 173.6 206.062 173.493C205.842 173.386 205.566 173.333 205.235 173.333C204.783 173.333 204.406 173.434 204.104 173.637C203.801 173.836 203.65 174.094 203.65 174.411C203.65 174.685 203.751 174.905 203.954 175.073C204.157 175.24 204.484 175.377 204.936 175.484L206.238 175.782C206.993 175.957 207.555 176.225 207.925 176.588C208.295 176.951 208.48 177.422 208.48 178.002C208.48 178.493 208.337 178.931 208.053 179.315C207.772 179.696 207.379 179.995 206.873 180.212C206.372 180.429 205.79 180.537 205.128 180.537C204.21 180.537 203.462 180.342 202.882 179.95C202.302 179.555 201.946 178.995 201.814 178.269L203.357 178.034C203.453 178.436 203.65 178.741 203.949 178.947C204.248 179.15 204.637 179.251 205.118 179.251C205.641 179.251 206.059 179.143 206.372 178.926C206.685 178.705 206.841 178.436 206.841 178.12C206.841 177.864 206.745 177.648 206.553 177.474C206.365 177.3 206.075 177.168 205.683 177.079L204.296 176.775C203.531 176.601 202.965 176.323 202.599 175.942C202.236 175.562 202.054 175.08 202.054 174.496C202.054 174.012 202.19 173.589 202.46 173.226C202.73 172.863 203.104 172.58 203.581 172.378C204.057 172.171 204.604 172.068 205.219 172.068C206.105 172.068 206.802 172.26 207.311 172.645C207.82 173.025 208.156 173.536 208.32 174.176ZM210.234 180.372V172.175H211.83V180.372H210.234ZM211.04 170.91C210.762 170.91 210.524 170.818 210.325 170.633C210.129 170.444 210.031 170.22 210.031 169.96C210.031 169.697 210.129 169.473 210.325 169.288C210.524 169.099 210.762 169.005 211.04 169.005C211.317 169.005 211.554 169.099 211.75 169.288C211.949 169.473 212.048 169.697 212.048 169.96C212.048 170.22 211.949 170.444 211.75 170.633C211.554 170.818 211.317 170.91 211.04 170.91ZM217.045 180.532C216.383 180.532 215.792 180.363 215.273 180.025C214.757 179.683 214.352 179.198 214.056 178.568C213.765 177.935 213.619 177.175 213.619 176.289C213.619 175.403 213.766 174.646 214.062 174.016C214.36 173.386 214.77 172.904 215.289 172.57C215.808 172.235 216.397 172.068 217.055 172.068C217.564 172.068 217.973 172.154 218.283 172.324C218.596 172.492 218.838 172.687 219.009 172.911C219.183 173.135 219.318 173.333 219.414 173.504H219.51V169.443H221.106V180.372H219.547V179.096H219.414C219.318 179.271 219.179 179.47 218.998 179.694C218.82 179.918 218.574 180.114 218.261 180.281C217.948 180.448 217.543 180.532 217.045 180.532ZM217.397 179.171C217.856 179.171 218.244 179.05 218.56 178.808C218.88 178.563 219.122 178.223 219.286 177.789C219.453 177.355 219.537 176.85 219.537 176.273C219.537 175.704 219.455 175.206 219.291 174.779C219.128 174.352 218.888 174.02 218.571 173.781C218.254 173.543 217.863 173.424 217.397 173.424C216.917 173.424 216.516 173.548 216.196 173.797C215.876 174.046 215.634 174.386 215.47 174.816C215.31 175.247 215.23 175.733 215.23 176.273C215.23 176.821 215.312 177.314 215.476 177.752C215.639 178.189 215.881 178.536 216.202 178.792C216.525 179.045 216.924 179.171 217.397 179.171ZM226.916 180.537C226.108 180.537 225.413 180.365 224.829 180.02C224.249 179.671 223.801 179.182 223.484 178.552C223.171 177.919 223.015 177.177 223.015 176.327C223.015 175.487 223.171 174.747 223.484 174.107C223.801 173.466 224.242 172.966 224.808 172.607C225.377 172.248 226.042 172.068 226.804 172.068C227.266 172.068 227.715 172.145 228.149 172.298C228.583 172.451 228.972 172.691 229.317 173.018C229.662 173.345 229.935 173.771 230.134 174.293C230.333 174.813 230.433 175.444 230.433 176.188V176.754H223.917V175.558H228.869C228.869 175.138 228.784 174.767 228.613 174.443C228.442 174.116 228.202 173.858 227.892 173.669C227.586 173.481 227.227 173.386 226.814 173.386C226.366 173.386 225.975 173.497 225.64 173.717C225.31 173.934 225.053 174.219 224.872 174.571C224.694 174.92 224.605 175.299 224.605 175.708V176.642C224.605 177.189 224.701 177.655 224.893 178.04C225.089 178.424 225.361 178.717 225.71 178.92C226.058 179.119 226.466 179.219 226.932 179.219C227.234 179.219 227.51 179.176 227.759 179.091C228.008 179.002 228.223 178.87 228.405 178.696C228.586 178.522 228.725 178.307 228.821 178.05L230.331 178.323C230.21 178.767 229.993 179.157 229.68 179.491C229.371 179.822 228.981 180.08 228.511 180.265C228.045 180.446 227.514 180.537 226.916 180.537ZM233.799 175.505V180.372H232.203V172.175H233.735V173.509H233.836C234.025 173.075 234.32 172.726 234.722 172.463C235.127 172.2 235.638 172.068 236.253 172.068C236.812 172.068 237.301 172.186 237.721 172.42C238.141 172.652 238.466 172.997 238.698 173.456C238.929 173.915 239.044 174.482 239.044 175.158V180.372H237.449V175.35C237.449 174.756 237.294 174.292 236.984 173.957C236.675 173.619 236.25 173.45 235.709 173.45C235.339 173.45 235.01 173.53 234.722 173.69C234.437 173.851 234.211 174.085 234.044 174.395C233.88 174.701 233.799 175.071 233.799 175.505ZM245.011 172.175V173.456H240.533V172.175H245.011ZM241.734 170.211H243.33V177.965C243.33 178.275 243.376 178.508 243.468 178.664C243.561 178.817 243.68 178.922 243.826 178.979C243.975 179.032 244.137 179.059 244.312 179.059C244.44 179.059 244.552 179.05 244.648 179.032C244.744 179.015 244.818 179 244.872 178.99L245.16 180.308C245.068 180.343 244.936 180.379 244.765 180.414C244.594 180.454 244.381 180.475 244.125 180.478C243.705 180.486 243.314 180.411 242.951 180.254C242.588 180.098 242.294 179.856 242.07 179.529C241.846 179.201 241.734 178.79 241.734 178.296V170.211ZM246.776 180.372V172.175H248.371V180.372H246.776ZM247.581 170.91C247.304 170.91 247.066 170.818 246.866 170.633C246.671 170.444 246.573 170.22 246.573 169.96C246.573 169.697 246.671 169.473 246.866 169.288C247.066 169.099 247.304 169.005 247.581 169.005C247.859 169.005 248.096 169.099 248.291 169.288C248.49 169.473 248.59 169.697 248.59 169.96C248.59 170.22 248.49 170.444 248.291 170.633C248.096 170.818 247.859 170.91 247.581 170.91ZM252.903 180.553C252.384 180.553 251.914 180.457 251.494 180.265C251.075 180.069 250.742 179.787 250.497 179.417C250.255 179.047 250.134 178.593 250.134 178.056C250.134 177.593 250.223 177.213 250.4 176.914C250.578 176.615 250.818 176.378 251.121 176.204C251.423 176.03 251.761 175.898 252.135 175.809C252.508 175.72 252.889 175.653 253.277 175.606C253.768 175.549 254.166 175.503 254.472 175.468C254.778 175.428 255.001 175.366 255.139 175.281C255.278 175.195 255.347 175.057 255.347 174.865V174.827C255.347 174.361 255.216 174 254.952 173.744C254.693 173.488 254.305 173.36 253.789 173.36C253.252 173.36 252.829 173.479 252.519 173.717C252.213 173.952 252.001 174.213 251.884 174.502L250.384 174.16C250.562 173.662 250.822 173.26 251.164 172.954C251.509 172.645 251.905 172.42 252.354 172.282C252.802 172.139 253.273 172.068 253.768 172.068C254.095 172.068 254.442 172.107 254.808 172.186C255.178 172.26 255.523 172.399 255.844 172.602C256.167 172.805 256.432 173.095 256.639 173.472C256.845 173.845 256.948 174.331 256.948 174.929V180.372H255.39V179.251H255.326C255.223 179.457 255.068 179.66 254.862 179.859C254.655 180.059 254.39 180.224 254.067 180.356C253.743 180.487 253.355 180.553 252.903 180.553ZM253.25 179.272C253.691 179.272 254.068 179.185 254.381 179.011C254.698 178.837 254.938 178.609 255.102 178.328C255.269 178.043 255.353 177.739 255.353 177.415V176.359C255.296 176.416 255.186 176.469 255.022 176.519C254.862 176.565 254.679 176.606 254.472 176.642C254.266 176.674 254.065 176.704 253.869 176.732C253.673 176.757 253.51 176.779 253.378 176.796C253.069 176.835 252.786 176.901 252.53 176.994C252.277 177.086 252.074 177.22 251.921 177.394C251.772 177.565 251.697 177.792 251.697 178.077C251.697 178.472 251.843 178.771 252.135 178.974C252.427 179.173 252.798 179.272 253.25 179.272ZM260.669 169.443V180.372H259.074V169.443H260.669Z" fill="#888888"/>
<rect x="335.875" y="106.359" width="186.683" height="104.516" rx="8.45829" fill="#0F0F0F"/>
<rect x="335.875" y="106.359" width="186.683" height="104.516" rx="8.45829" stroke="#2A2A2A" stroke-width="1.12777"/>
<path d="M349.974 129.478C349.974 130.367 350.149 131.247 350.489 132.068C350.829 132.889 351.327 133.635 351.956 134.263C352.584 134.891 353.33 135.39 354.151 135.73C354.972 136.07 355.852 136.245 356.74 136.245C357.629 136.245 358.509 136.07 359.33 135.73C360.151 135.39 360.897 134.891 361.525 134.263C362.153 133.635 362.652 132.889 362.992 132.068C363.332 131.247 363.507 130.367 363.507 129.478C363.507 127.684 362.794 125.963 361.525 124.694C360.256 123.425 358.535 122.712 356.74 122.712C354.946 122.712 353.225 123.425 351.956 124.694C350.687 125.963 349.974 127.684 349.974 129.478Z" stroke="#DFDFDF" stroke-width="1.5037" stroke-linecap="round" stroke-linejoin="round"/>
<path d="M350.423 127.223H363.054" stroke="#DFDFDF" stroke-width="1.5037" stroke-linecap="round" stroke-linejoin="round"/>
<path d="M350.423 131.734H363.054" stroke="#DFDFDF" stroke-width="1.5037" stroke-linecap="round" stroke-linejoin="round"/>
<path d="M356.366 122.712C355.099 124.741 354.428 127.086 354.428 129.478C354.428 131.871 355.099 134.215 356.366 136.245" stroke="#DFDFDF" stroke-width="1.5037" stroke-linecap="round" stroke-linejoin="round"/>
<path d="M357.115 122.712C358.381 124.741 359.053 127.086 359.053 129.478C359.053 131.871 358.381 134.215 357.115 136.245" stroke="#DFDFDF" stroke-width="1.5037" stroke-linecap="round" stroke-linejoin="round"/>
<path d="M370.407 134.978V123.496H374.5C375.393 123.496 376.133 123.658 376.72 123.983C377.307 124.309 377.746 124.753 378.037 125.318C378.329 125.878 378.475 126.51 378.475 127.213C378.475 127.919 378.327 128.555 378.032 129.119C377.74 129.68 377.299 130.125 376.709 130.454C376.122 130.779 375.384 130.941 374.494 130.941H371.679V129.472H374.337C374.901 129.472 375.359 129.375 375.711 129.181C376.062 128.983 376.32 128.714 376.484 128.374C376.649 128.033 376.731 127.646 376.731 127.213C376.731 126.779 376.649 126.394 376.484 126.058C376.32 125.721 376.06 125.458 375.705 125.267C375.354 125.077 374.89 124.981 374.315 124.981H372.139V134.978H370.407ZM380.371 134.978V126.366H381.992V127.734H382.081C382.238 127.271 382.515 126.906 382.911 126.641C383.311 126.372 383.763 126.237 384.268 126.237C384.373 126.237 384.496 126.241 384.638 126.249C384.784 126.256 384.898 126.265 384.98 126.277V127.88C384.913 127.861 384.793 127.841 384.621 127.818C384.449 127.792 384.277 127.779 384.105 127.779C383.709 127.779 383.356 127.863 383.046 128.031C382.739 128.196 382.496 128.426 382.317 128.721C382.137 129.013 382.048 129.345 382.048 129.719V134.978H380.371ZM389.75 135.152C388.943 135.152 388.238 134.967 387.636 134.597C387.035 134.227 386.567 133.709 386.235 133.044C385.902 132.379 385.736 131.601 385.736 130.712C385.736 129.818 385.902 129.037 386.235 128.368C386.567 127.699 387.035 127.179 387.636 126.809C388.238 126.439 388.943 126.254 389.75 126.254C390.557 126.254 391.262 126.439 391.864 126.809C392.466 127.179 392.933 127.699 393.266 128.368C393.598 129.037 393.765 129.818 393.765 130.712C393.765 131.601 393.598 132.379 393.266 133.044C392.933 133.709 392.466 134.227 391.864 134.597C391.262 134.967 390.557 135.152 389.75 135.152ZM389.756 133.745C390.279 133.745 390.713 133.607 391.056 133.33C391.4 133.053 391.655 132.685 391.819 132.225C391.987 131.766 392.071 131.259 392.071 130.706C392.071 130.156 391.987 129.652 391.819 129.192C391.655 128.729 391.4 128.357 391.056 128.076C390.713 127.796 390.279 127.656 389.756 127.656C389.229 127.656 388.791 127.796 388.444 128.076C388.1 128.357 387.844 128.729 387.676 129.192C387.511 129.652 387.429 130.156 387.429 130.706C387.429 131.259 387.511 131.766 387.676 132.225C387.844 132.685 388.1 133.053 388.444 133.33C388.791 133.607 389.229 133.745 389.756 133.745ZM396.62 126.366L398.521 129.719L400.438 126.366H402.272L399.586 130.672L402.294 134.978H400.46L398.521 131.76L396.586 134.978H394.747L397.427 130.672L394.781 126.366H396.62ZM405.052 138.208C404.802 138.208 404.574 138.187 404.368 138.146C404.163 138.109 404.01 138.068 403.909 138.023L404.312 136.649C404.619 136.731 404.892 136.767 405.131 136.756C405.37 136.744 405.581 136.655 405.765 136.487C405.951 136.318 406.116 136.044 406.258 135.662L406.465 135.09L403.314 126.366H405.109L407.29 133.05H407.379L409.56 126.366H411.36L407.811 136.128C407.647 136.576 407.437 136.956 407.183 137.266C406.929 137.58 406.626 137.815 406.275 137.972C405.923 138.129 405.516 138.208 405.052 138.208Z" fill="#DFDFDF"/>
<path d="M351.001 168.912L349.611 167.956L351.777 165.032L348.402 163.896L348.908 162.344L352.264 163.481V159.872H353.996V163.481L357.352 162.344L357.858 163.896L354.483 165.032L356.649 167.956L355.259 168.912L353.13 165.989L351.001 168.912ZM361.82 168.912L360.431 167.956L362.596 165.032L359.222 163.896L359.727 162.344L363.084 163.481V159.872H364.816V163.481L368.172 162.344L368.677 163.896L365.303 165.032L367.468 167.956L366.079 168.912L363.95 165.989L361.82 168.912ZM372.64 168.912L371.251 167.956L373.416 165.032L370.042 163.896L370.547 162.344L373.903 163.481V159.872H375.635V163.481L378.992 162.344L379.497 163.896L376.123 165.032L378.288 167.956L376.898 168.912L374.769 165.989L372.64 168.912ZM385.589 169.958C385.011 169.958 384.602 169.838 384.362 169.598C384.133 169.357 384.019 169.062 384.019 168.713V168.244C384.019 167.895 384.133 167.601 384.362 167.36C384.602 167.119 385.011 166.999 385.589 166.999C386.166 166.999 386.569 167.119 386.798 167.36C387.038 167.601 387.159 167.895 387.159 168.244V168.713C387.159 169.062 387.038 169.357 386.798 169.598C386.569 169.838 386.166 169.958 385.589 169.958ZM394.279 168.912L392.89 167.956L395.055 165.032L391.681 163.896L392.186 162.344L395.542 163.481V159.872H397.274V163.481L400.631 162.344L401.136 163.896L397.762 165.032L399.927 167.956L398.538 168.912L396.408 165.989L394.279 168.912ZM405.099 168.912L403.709 167.956L405.875 165.032L402.5 163.896L403.006 162.344L406.362 163.481V159.872H408.094V163.481L411.45 162.344L411.956 163.896L408.581 165.032L410.747 167.956L409.357 168.912L407.228 165.989L405.099 168.912ZM415.918 168.912L414.529 167.956L416.694 165.032L413.32 163.896L413.825 162.344L417.181 163.481V159.872H418.914V163.481L422.27 162.344L422.775 163.896L419.401 165.032L421.566 167.956L420.177 168.912L418.047 165.989L415.918 168.912ZM428.867 169.958C428.29 169.958 427.881 169.838 427.64 169.598C427.411 169.357 427.297 169.062 427.297 168.713V168.244C427.297 167.895 427.411 167.601 427.64 167.36C427.881 167.119 428.29 166.999 428.867 166.999C429.444 166.999 429.847 167.119 430.076 167.36C430.317 167.601 430.437 167.895 430.437 168.244V168.713C430.437 169.062 430.317 169.357 430.076 169.598C429.847 169.838 429.444 169.958 428.867 169.958ZM437.557 168.912L436.168 167.956L438.333 165.032L434.959 163.896L435.464 162.344L438.82 163.481V159.872H440.553V163.481L443.909 162.344L444.414 163.896L441.04 165.032L443.205 167.956L441.816 168.912L439.687 165.989L437.557 168.912ZM448.377 168.912L446.987 167.956L449.153 165.032L445.779 163.896L446.284 162.344L449.64 163.481V159.872H451.372V163.481L454.728 162.344L455.234 163.896L451.859 165.032L454.025 167.956L452.635 168.912L450.506 165.989L448.377 168.912ZM459.196 168.912L457.807 167.956L459.972 165.032L456.598 163.896L457.103 162.344L460.46 163.481V159.872H462.192V163.481L465.548 162.344L466.053 163.896L462.679 165.032L464.844 167.956L463.455 168.912L461.326 165.989L459.196 168.912ZM472.145 169.958C471.568 169.958 471.159 169.838 470.918 169.598C470.69 169.357 470.575 169.062 470.575 168.713V168.244C470.575 167.895 470.69 167.601 470.918 167.36C471.159 167.119 471.568 166.999 472.145 166.999C472.723 166.999 473.126 167.119 473.354 167.36C473.595 167.601 473.715 167.895 473.715 168.244V168.713C473.715 169.062 473.595 169.357 473.354 169.598C473.126 169.838 472.723 169.958 472.145 169.958ZM479.139 169.778V168.1H482.676V158.663H482.532L479.609 161.784L478.363 160.666L481.575 157.183H484.697V168.1H487.747V169.778H479.139ZM493.784 169.995C492.99 169.995 492.299 169.85 491.709 169.561C491.132 169.261 490.651 168.834 490.266 168.28C489.893 167.727 489.616 167.047 489.436 166.241C489.255 165.435 489.165 164.515 489.165 163.481C489.165 162.458 489.255 161.544 489.436 160.738C489.616 159.92 489.893 159.234 490.266 158.681C490.651 158.127 491.132 157.706 491.709 157.418C492.299 157.117 492.99 156.967 493.784 156.967C494.578 156.967 495.264 157.117 495.841 157.418C496.431 157.706 496.912 158.127 497.285 158.681C497.67 159.234 497.953 159.92 498.133 160.738C498.313 161.544 498.404 162.458 498.404 163.481C498.404 164.515 498.313 165.435 498.133 166.241C497.953 167.047 497.67 167.727 497.285 168.28C496.912 168.834 496.431 169.261 495.841 169.561C495.264 169.85 494.578 169.995 493.784 169.995ZM493.784 168.334C494.699 168.334 495.348 167.998 495.733 167.324C496.13 166.638 496.329 165.718 496.329 164.563V162.398C496.329 161.243 496.13 160.329 495.733 159.655C495.348 158.969 494.699 158.627 493.784 158.627C493.327 158.627 492.936 158.717 492.611 158.897C492.287 159.066 492.022 159.318 491.818 159.655C491.613 159.98 491.463 160.377 491.366 160.846C491.282 161.303 491.24 161.82 491.24 162.398V164.563C491.24 165.141 491.282 165.664 491.366 166.133C491.463 166.59 491.613 166.987 491.818 167.324C492.022 167.649 492.287 167.901 492.611 168.082C492.936 168.25 493.327 168.334 493.784 168.334ZM493.784 164.545C493.363 164.545 493.069 164.461 492.9 164.293C492.744 164.124 492.666 163.92 492.666 163.679V163.282C492.666 163.041 492.744 162.837 492.9 162.669C493.069 162.5 493.363 162.416 493.784 162.416C494.205 162.416 494.494 162.5 494.65 162.669C494.819 162.837 494.903 163.041 494.903 163.282V163.679C494.903 163.92 494.819 164.124 494.65 164.293C494.494 164.461 494.205 164.545 493.784 164.545ZM509.025 169.778H500.327V167.847L504.442 164.256C505.091 163.679 505.59 163.132 505.939 162.614C506.3 162.097 506.481 161.55 506.481 160.972V160.774C506.481 160.112 506.3 159.607 505.939 159.258C505.578 158.897 505.055 158.717 504.369 158.717C503.672 158.717 503.13 158.903 502.745 159.276C502.372 159.649 502.102 160.124 501.933 160.702L500.165 160.034C500.285 159.637 500.46 159.258 500.688 158.897C500.917 158.524 501.206 158.194 501.554 157.905C501.915 157.616 502.336 157.388 502.818 157.219C503.311 157.051 503.876 156.967 504.514 156.967C505.163 156.967 505.741 157.063 506.246 157.255C506.763 157.436 507.196 157.688 507.545 158.013C507.894 158.338 508.159 158.729 508.339 159.186C508.52 159.631 508.61 160.124 508.61 160.666C508.61 161.171 508.532 161.64 508.375 162.073C508.231 162.494 508.02 162.903 507.744 163.3C507.479 163.685 507.16 164.058 506.787 164.419C506.414 164.78 506.005 165.141 505.56 165.502L502.511 168.064H509.025V169.778Z" fill="#DFDFDF"/>
<path d="M355.459 187.301C355.366 187.009 355.241 186.748 355.084 186.517C354.93 186.283 354.746 186.085 354.531 185.921C354.317 185.755 354.072 185.628 353.796 185.542C353.524 185.455 353.224 185.412 352.897 185.412C352.343 185.412 351.843 185.554 351.398 185.84C350.953 186.125 350.6 186.543 350.341 187.094C350.084 187.642 349.956 188.313 349.956 189.108C349.956 189.905 350.086 190.58 350.346 191.131C350.605 191.682 350.961 192.1 351.412 192.385C351.864 192.67 352.378 192.813 352.955 192.813C353.49 192.813 353.956 192.704 354.354 192.486C354.754 192.268 355.063 191.961 355.281 191.563C355.502 191.163 355.613 190.692 355.613 190.15L355.997 190.223H353.181V188.997H357.05V190.117C357.05 190.943 356.874 191.661 356.521 192.27C356.172 192.875 355.688 193.343 355.07 193.673C354.455 194.003 353.75 194.168 352.955 194.168C352.064 194.168 351.283 193.963 350.61 193.553C349.94 193.143 349.418 192.561 349.043 191.808C348.668 191.052 348.481 190.155 348.481 189.117C348.481 188.332 348.59 187.627 348.808 187.003C349.026 186.378 349.332 185.848 349.726 185.412C350.123 184.973 350.589 184.638 351.124 184.407C351.662 184.174 352.25 184.057 352.888 184.057C353.42 184.057 353.915 184.135 354.373 184.292C354.834 184.449 355.244 184.672 355.603 184.96C355.965 185.248 356.265 185.591 356.502 185.989C356.739 186.383 356.899 186.82 356.982 187.301H355.459ZM362.001 194.183C361.274 194.183 360.647 194.027 360.122 193.716C359.6 193.402 359.196 192.962 358.911 192.395C358.629 191.824 358.488 191.156 358.488 190.391C358.488 189.635 358.629 188.968 358.911 188.392C359.196 187.815 359.593 187.365 360.103 187.041C360.615 186.717 361.214 186.556 361.9 186.556C362.317 186.556 362.72 186.625 363.111 186.762C363.502 186.9 363.853 187.116 364.164 187.411C364.474 187.706 364.719 188.089 364.899 188.56C365.078 189.027 365.168 189.596 365.168 190.266V190.775H359.3V189.699H363.76C363.76 189.321 363.683 188.986 363.529 188.694C363.375 188.4 363.159 188.167 362.88 187.997C362.605 187.828 362.281 187.743 361.91 187.743C361.506 187.743 361.154 187.842 360.852 188.041C360.554 188.236 360.324 188.492 360.16 188.81C360 189.124 359.92 189.465 359.92 189.833V190.674C359.92 191.168 360.007 191.587 360.18 191.933C360.356 192.279 360.601 192.544 360.915 192.726C361.229 192.906 361.596 192.996 362.015 192.996C362.288 192.996 362.536 192.957 362.76 192.88C362.985 192.8 363.178 192.682 363.342 192.525C363.505 192.368 363.63 192.174 363.717 191.943L365.077 192.188C364.968 192.589 364.772 192.939 364.49 193.241C364.212 193.539 363.861 193.771 363.438 193.937C363.018 194.101 362.539 194.183 362.001 194.183ZM366.762 194.034V186.652H368.151V187.824H368.228C368.363 187.427 368.6 187.115 368.939 186.887C369.282 186.657 369.67 186.541 370.102 186.541C370.192 186.541 370.298 186.544 370.42 186.551C370.545 186.557 370.642 186.565 370.713 186.575V187.949C370.655 187.933 370.553 187.916 370.405 187.897C370.258 187.874 370.11 187.863 369.963 187.863C369.623 187.863 369.321 187.935 369.055 188.079C368.792 188.22 368.584 188.417 368.43 188.67C368.276 188.92 368.199 189.205 368.199 189.526V194.034H366.762ZM371.956 194.034V186.652H373.336V187.853H373.427C373.581 187.446 373.832 187.129 374.181 186.902C374.531 186.671 374.949 186.556 375.436 186.556C375.929 186.556 376.342 186.671 376.676 186.902C377.012 187.132 377.26 187.45 377.421 187.853H377.497C377.674 187.459 377.954 187.145 378.338 186.911C378.723 186.674 379.181 186.556 379.713 186.556C380.383 186.556 380.929 186.766 381.352 187.185C381.778 187.605 381.991 188.238 381.991 189.084V194.034H380.554V189.218C380.554 188.718 380.418 188.356 380.145 188.132C379.873 187.908 379.548 187.796 379.17 187.796C378.702 187.796 378.338 187.94 378.079 188.228C377.819 188.513 377.69 188.88 377.69 189.329V194.034H376.258V189.127C376.258 188.726 376.133 188.404 375.883 188.161C375.633 187.917 375.308 187.796 374.907 187.796C374.635 187.796 374.383 187.868 374.153 188.012C373.925 188.153 373.741 188.35 373.6 188.603C373.462 188.856 373.393 189.149 373.393 189.482V194.034H371.956ZM386.065 194.197C385.597 194.197 385.174 194.11 384.796 193.937C384.418 193.761 384.119 193.507 383.898 193.173C383.68 192.84 383.571 192.432 383.571 191.948C383.571 191.531 383.651 191.189 383.811 190.919C383.971 190.65 384.188 190.437 384.46 190.28C384.732 190.123 385.037 190.005 385.373 189.925C385.709 189.844 386.052 189.784 386.401 189.742C386.844 189.691 387.202 189.649 387.478 189.617C387.753 189.582 387.954 189.526 388.079 189.449C388.204 189.372 388.266 189.247 388.266 189.074V189.04C388.266 188.621 388.148 188.295 387.91 188.065C387.677 187.834 387.327 187.719 386.863 187.719C386.379 187.719 385.998 187.826 385.719 188.041C385.443 188.252 385.253 188.488 385.147 188.747L383.797 188.44C383.957 187.991 384.191 187.629 384.498 187.353C384.809 187.075 385.166 186.873 385.57 186.748C385.974 186.62 386.398 186.556 386.844 186.556C387.138 186.556 387.451 186.591 387.781 186.661C388.114 186.729 388.425 186.854 388.713 187.036C389.005 187.219 389.243 187.48 389.429 187.82C389.615 188.156 389.708 188.593 389.708 189.132V194.034H388.305V193.024H388.247C388.154 193.21 388.015 193.393 387.829 193.572C387.643 193.752 387.404 193.901 387.113 194.019C386.821 194.138 386.472 194.197 386.065 194.197ZM386.377 193.044C386.775 193.044 387.114 192.965 387.396 192.808C387.681 192.651 387.898 192.446 388.045 192.193C388.196 191.937 388.271 191.663 388.271 191.371V190.42C388.22 190.471 388.12 190.519 387.973 190.564C387.829 190.605 387.664 190.642 387.478 190.674C387.292 190.703 387.111 190.73 386.935 190.756C386.759 190.778 386.611 190.798 386.493 190.814C386.214 190.849 385.959 190.908 385.729 190.991C385.501 191.075 385.319 191.195 385.181 191.352C385.046 191.506 384.979 191.711 384.979 191.967C384.979 192.323 385.11 192.592 385.373 192.774C385.636 192.954 385.971 193.044 386.377 193.044ZM393.059 189.651V194.034H391.622V186.652H393.001V187.853H393.092C393.262 187.462 393.528 187.148 393.89 186.911C394.255 186.674 394.715 186.556 395.269 186.556C395.772 186.556 396.213 186.661 396.591 186.873C396.969 187.081 397.262 187.392 397.471 187.805C397.679 188.218 397.783 188.73 397.783 189.338V194.034H396.346V189.511C396.346 188.976 396.207 188.558 395.928 188.257C395.649 187.953 395.266 187.8 394.779 187.8C394.446 187.8 394.15 187.872 393.89 188.017C393.634 188.161 393.43 188.372 393.28 188.651C393.132 188.927 393.059 189.26 393.059 189.651ZM400.354 196.802C400.139 196.802 399.944 196.784 399.768 196.749C399.591 196.717 399.46 196.682 399.374 196.643L399.72 195.466C399.982 195.536 400.216 195.567 400.421 195.557C400.626 195.547 400.807 195.471 400.964 195.326C401.125 195.182 401.266 194.947 401.387 194.62L401.565 194.13L398.864 186.652H400.402L402.272 192.38H402.348L404.218 186.652H405.761L402.718 195.019C402.578 195.403 402.398 195.728 402.18 195.994C401.962 196.263 401.703 196.465 401.402 196.6C401.101 196.734 400.751 196.802 400.354 196.802Z" fill="#888888"/>
</g>
<defs>
<clipPath id="clip0_6821_16900">
<rect width="460" height="200" fill="white"/>
</clipPath>
</defs>
</svg>
