<svg width="460" height="200" viewBox="0 0 460 200" fill="none" xmlns="http://www.w3.org/2000/svg">
  <style>
    :root {
      --color-01: #F4F4F5;
      --color-02: white;
      --color-03: #D2D3D6;
      --color-04: #1F2123;
      --color-05: #1F2123;
      --color-06: #F9F9FA;
      --color-07: #E4E5E6;
      --color-08: white;
      --color-09: #6D7178;
    }
    @media (prefers-color-scheme: dark) {
      :root {
      --color-01: #242528;
      --color-02: #1F2123;
      --color-03: #3D3F43;
      --color-04: #F4F4F5;
      --color-05: #F4F4F5;
      --color-06: #1F2123;
      --color-07: #333538;
      --color-08: #161718;
      --color-09: #9EA2A8;
      }
    }
  </style>

<g clip-path="url(#clip0_3959_11468)">
<rect width="460" height="200" fill="var(--color-01)"/>
<rect x="44.4076" y="32.0639" width="366.683" height="46.2386" rx="8.45829" fill="var(--color-02)"/>
<rect x="44.4076" y="32.0639" width="366.683" height="46.2386" rx="8.45829" stroke="var(--color-03)" stroke-width="1.12777"/>
<path d="M66.8105 63.6826L65.5989 59.4306H60.5239L59.3123 63.6826H56.7062L61.3697 47.7262H64.8673L69.5308 63.6826H66.8105ZM63.1528 50.3094H62.9699L61.004 57.3046H65.1188L63.1528 50.3094ZM71.8765 63.6826V51.8867H74.3683V53.8984H74.4826C74.6045 53.5936 74.7569 53.3041 74.9398 53.0297C75.1379 52.7402 75.3741 52.4963 75.6484 52.2982C75.9228 52.0849 76.2428 51.9172 76.6086 51.7953C76.9743 51.6734 77.401 51.6124 77.8887 51.6124C79.0775 51.6124 80.0376 52.001 80.7691 52.7783C81.5006 53.5555 81.8664 54.6604 81.8664 56.093V63.6826H79.3746V56.4588C79.3746 54.5842 78.5593 53.647 76.9286 53.647C76.6086 53.647 76.2961 53.6927 75.9913 53.7841C75.6865 53.8603 75.4122 53.9823 75.1684 54.1499C74.9245 54.3175 74.7264 54.5309 74.574 54.79C74.4368 55.0491 74.3683 55.3463 74.3683 55.6815V63.6826H71.8765ZM91.2302 63.6826C90.1938 63.6826 89.4318 63.4083 88.9442 62.8596C88.4565 62.2958 88.2126 61.5719 88.2126 60.6879V53.8984H84.5779V51.8867H87.1611C87.603 51.8867 87.9154 51.8029 88.0983 51.6353C88.2812 51.4524 88.3726 51.1323 88.3726 50.6751V47.7262H90.7044V51.8867H95.7336V53.8984H90.7044V61.6709H95.7336V63.6826H91.2302ZM104.96 49.7379C104.32 49.7379 103.871 49.6083 103.611 49.3493C103.368 49.0902 103.246 48.7701 103.246 48.3891V47.9091C103.246 47.5281 103.368 47.208 103.611 46.9489C103.871 46.6898 104.313 46.5603 104.937 46.5603C105.577 46.5603 106.019 46.6898 106.263 46.9489C106.522 47.208 106.652 47.5281 106.652 47.9091V48.3891C106.652 48.7701 106.522 49.0902 106.263 49.3493C106.019 49.6083 105.585 49.7379 104.96 49.7379ZM99.6795 61.6709H103.703V53.8984H99.6795V51.8867H106.195V61.6709H109.967V63.6826H99.6795V61.6709ZM114.484 57.9676V55.4758H121.388V57.9676H114.484ZM131.666 63.9569C130.386 63.9569 129.281 63.7512 128.351 63.3397C127.437 62.9282 126.698 62.3796 126.134 61.6938L127.665 60.3222C128.184 60.886 128.763 61.3204 129.403 61.6252C130.058 61.9148 130.828 62.0595 131.712 62.0595C132.519 62.0595 133.167 61.9224 133.655 61.6481C134.158 61.3737 134.409 60.947 134.409 60.3679C134.409 60.124 134.364 59.9183 134.272 59.7507C134.181 59.583 134.051 59.4459 133.883 59.3392C133.716 59.2325 133.518 59.1487 133.289 59.0877C133.076 59.0267 132.847 58.981 132.603 58.9505L130.729 58.6534C130.272 58.5924 129.807 58.4933 129.334 58.3562C128.862 58.219 128.435 58.0285 128.054 57.7847C127.688 57.5256 127.384 57.1979 127.14 56.8017C126.911 56.4054 126.797 55.9025 126.797 55.2929C126.797 54.0889 127.254 53.1745 128.168 52.5497C129.098 51.9248 130.317 51.6124 131.826 51.6124C132.923 51.6124 133.868 51.7801 134.661 52.1153C135.468 52.4354 136.139 52.885 136.672 53.4641L135.278 54.9271C134.973 54.5766 134.539 54.2566 133.975 53.967C133.411 53.6622 132.664 53.5098 131.735 53.5098C130.073 53.5098 129.243 54.0356 129.243 55.0872C129.243 55.5901 129.418 55.9406 129.769 56.1387C130.134 56.3216 130.561 56.4435 131.049 56.5045L132.923 56.8017C133.396 56.8779 133.861 56.9769 134.318 57.0989C134.79 57.2208 135.209 57.4113 135.575 57.6704C135.956 57.9142 136.261 58.2343 136.49 58.6305C136.733 59.0267 136.855 59.5297 136.855 60.1393C136.855 61.328 136.39 62.2653 135.461 62.9511C134.546 63.6217 133.281 63.9569 131.666 63.9569ZM145.785 63.9569C144.901 63.9569 144.108 63.8122 143.407 63.5226C142.721 63.233 142.135 62.8215 141.647 62.2881C141.175 61.7547 140.809 61.107 140.55 60.345C140.306 59.583 140.184 58.7296 140.184 57.7847C140.184 56.8398 140.306 55.9863 140.55 55.2243C140.809 54.4623 141.175 53.8146 141.647 53.2812C142.135 52.7478 142.721 52.3363 143.407 52.0468C144.108 51.7572 144.893 51.6124 145.762 51.6124C146.981 51.6124 147.956 51.8715 148.688 52.3897C149.435 52.9078 149.991 53.5784 150.357 54.4014L148.414 55.4529C148.2 54.9043 147.873 54.4699 147.431 54.1499C147.004 53.8299 146.448 53.6698 145.762 53.6698C144.817 53.6698 144.085 53.9594 143.567 54.5385C143.049 55.1024 142.79 55.8568 142.79 56.8017V58.7677C142.79 59.6973 143.049 60.4517 143.567 61.0308C144.085 61.61 144.832 61.8995 145.808 61.8995C146.539 61.8995 147.133 61.7319 147.591 61.3966C148.063 61.0613 148.436 60.6041 148.711 60.025L150.54 61.1451C150.159 61.9681 149.579 62.6463 148.802 63.1797C148.025 63.6979 147.019 63.9569 145.785 63.9569ZM153.937 61.6709H157.069V53.8984H153.937V51.8867H159.56V55.0186H159.698C159.804 54.6071 159.957 54.2109 160.155 53.8299C160.353 53.4489 160.604 53.1212 160.909 52.8469C161.214 52.5573 161.587 52.3287 162.029 52.1611C162.471 51.9782 162.99 51.8867 163.584 51.8867H165.001V54.2642H162.669C161.755 54.2642 161.008 54.5385 160.429 55.0872C159.85 55.6206 159.56 56.3445 159.56 57.2589V61.6709H163.835V63.6826H153.937V61.6709ZM177.154 63.6826C176.438 63.6826 175.897 63.4997 175.531 63.134C175.18 62.7682 174.967 62.2881 174.891 61.6938H174.776C174.548 62.4101 174.129 62.9663 173.519 63.3626C172.925 63.7588 172.163 63.9569 171.233 63.9569C170.029 63.9569 169.069 63.6445 168.353 63.0197C167.636 62.3796 167.278 61.5033 167.278 60.3907C167.278 59.2477 167.697 58.379 168.536 57.7847C169.389 57.1751 170.692 56.8703 172.445 56.8703H174.708V55.9559C174.708 54.3556 173.862 53.5555 172.17 53.5555C171.408 53.5555 170.791 53.7079 170.319 54.0127C169.846 54.3023 169.45 54.6909 169.13 55.1786L167.644 53.967C167.979 53.3269 168.543 52.7783 169.336 52.3211C170.128 51.8486 171.149 51.6124 172.399 51.6124C173.893 51.6124 175.066 51.9706 175.919 52.6868C176.773 53.4031 177.2 54.4395 177.2 55.7958V61.7166H178.686V63.6826H177.154ZM171.942 62.1281C172.75 62.1281 173.412 61.9452 173.931 61.5795C174.449 61.2137 174.708 60.7413 174.708 60.1621V58.4476H172.49C170.692 58.4476 169.793 58.9886 169.793 60.0707V60.5279C169.793 61.0613 169.983 61.4652 170.364 61.7395C170.745 61.9986 171.271 62.1281 171.942 62.1281ZM181.42 51.8867H183.912V53.8984H184.049C184.399 53.1822 184.864 52.6259 185.443 52.2296C186.022 51.8182 186.746 51.6124 187.615 51.6124C189.002 51.6124 190.107 52.1306 190.93 53.1669C191.753 54.2032 192.164 55.7425 192.164 57.7847C192.164 59.8269 191.753 61.3661 190.93 62.4024C190.107 63.4388 189.002 63.9569 187.615 63.9569C186.746 63.9569 186.022 63.7588 185.443 63.3626C184.864 62.9511 184.399 62.3872 184.049 61.6709H183.912V68.2547H181.42V51.8867ZM186.586 61.9224C187.531 61.9224 188.255 61.6328 188.758 61.0537C189.276 60.4746 189.535 59.7049 189.535 58.7448V56.8245C189.535 55.8644 189.276 55.0948 188.758 54.5157C188.255 53.9365 187.531 53.647 186.586 53.647C186.221 53.647 185.878 53.6927 185.558 53.7841C185.238 53.8756 184.956 54.0127 184.712 54.1956C184.468 54.3785 184.27 54.6071 184.117 54.8814C183.98 55.1405 183.912 55.4529 183.912 55.8187V59.7507C183.912 60.1164 183.98 60.4365 184.117 60.7108C184.27 60.9699 184.468 61.1909 184.712 61.3737C184.956 61.5566 185.238 61.6938 185.558 61.7852C185.878 61.8767 186.221 61.9224 186.586 61.9224ZM200.911 49.7379C200.271 49.7379 199.821 49.6083 199.562 49.3493C199.318 49.0902 199.196 48.7701 199.196 48.3891V47.9091C199.196 47.5281 199.318 47.208 199.562 46.9489C199.821 46.6898 200.263 46.5603 200.888 46.5603C201.528 46.5603 201.97 46.6898 202.214 46.9489C202.473 47.208 202.602 47.5281 202.602 47.9091V48.3891C202.602 48.7701 202.473 49.0902 202.214 49.3493C201.97 49.6083 201.536 49.7379 200.911 49.7379ZM195.63 61.6709H199.653V53.8984H195.63V51.8867H202.145V61.6709H205.917V63.6826H195.63V61.6709ZM208.949 63.6826V51.8867H211.44V53.8984H211.555C211.677 53.5936 211.829 53.3041 212.012 53.0297C212.21 52.7402 212.446 52.4963 212.721 52.2982C212.995 52.0849 213.315 51.9172 213.681 51.7953C214.046 51.6734 214.473 51.6124 214.961 51.6124C216.15 51.6124 217.11 52.001 217.841 52.7783C218.573 53.5555 218.939 54.6604 218.939 56.093V63.6826H216.447V56.4588C216.447 54.5842 215.631 53.647 214.001 53.647C213.681 53.647 213.368 53.6927 213.063 53.7841C212.759 53.8603 212.484 53.9823 212.24 54.1499C211.997 54.3175 211.798 54.5309 211.646 54.79C211.509 55.0491 211.44 55.3463 211.44 55.6815V63.6826H208.949ZM233.766 64.9628C233.766 66.182 233.255 67.0812 232.234 67.6603C231.213 68.2394 229.659 68.529 227.571 68.529C226.55 68.529 225.689 68.4604 224.988 68.3232C224.302 68.2013 223.738 68.0184 223.296 67.7746C222.869 67.5308 222.557 67.2336 222.359 66.883C222.176 66.5325 222.084 66.1363 222.084 65.6943C222.084 65.0542 222.26 64.5513 222.61 64.1855C222.976 63.835 223.486 63.5759 224.142 63.4083V63.1797C223.745 63.0273 223.425 62.8139 223.182 62.5396C222.953 62.2653 222.839 61.9071 222.839 61.4652C222.839 60.886 223.037 60.4517 223.433 60.1621C223.829 59.8573 224.34 59.6287 224.965 59.4763V59.362C224.248 59.0267 223.692 58.5543 223.296 57.9447C222.9 57.3351 222.702 56.6036 222.702 55.7501C222.702 55.1253 222.816 54.5614 223.044 54.0585C223.273 53.5403 223.593 53.1059 224.005 52.7554C224.431 52.3897 224.934 52.1077 225.513 51.9096C226.108 51.7115 226.771 51.6124 227.502 51.6124C228.325 51.6124 229.064 51.742 229.72 52.001V51.6124C229.72 51.1552 229.849 50.7742 230.108 50.4694C230.367 50.1646 230.764 50.0122 231.297 50.0122H233.446V51.9782H230.703V52.5268C231.221 52.8773 231.617 53.3269 231.891 53.8756C232.166 54.409 232.303 55.0338 232.303 55.7501C232.303 56.375 232.189 56.9465 231.96 57.4646C231.731 57.9676 231.404 58.4019 230.977 58.7677C230.565 59.1182 230.063 59.3925 229.468 59.5906C228.889 59.7735 228.234 59.865 227.502 59.865C226.984 59.865 226.496 59.8192 226.039 59.7278C225.765 59.804 225.49 59.9335 225.216 60.1164C224.942 60.2993 224.805 60.5508 224.805 60.8708C224.805 61.2366 224.98 61.4652 225.33 61.5566C225.681 61.6481 226.115 61.6938 226.633 61.6938H229.285C230.87 61.6938 232.013 61.9986 232.714 62.6082C233.415 63.2026 233.766 63.9874 233.766 64.9628ZM231.434 65.1228C231.434 64.7266 231.274 64.4065 230.954 64.1627C230.634 63.9341 230.055 63.8198 229.217 63.8198H225.125C224.546 64.0941 224.256 64.5361 224.256 65.1457C224.256 65.5876 224.439 65.9686 224.805 66.2887C225.186 66.6087 225.811 66.7687 226.679 66.7687H228.531C229.476 66.7687 230.192 66.624 230.68 66.3344C231.183 66.0601 231.434 65.6562 231.434 65.1228ZM227.502 58.1504C228.31 58.1504 228.904 57.9599 229.285 57.5789C229.666 57.1979 229.857 56.6874 229.857 56.0473V55.4301C229.857 54.79 229.666 54.2794 229.285 53.8984C228.904 53.5174 228.31 53.3269 227.502 53.3269C226.694 53.3269 226.1 53.5174 225.719 53.8984C225.338 54.2794 225.148 54.79 225.148 55.4301V56.0473C225.148 56.6874 225.338 57.1979 225.719 57.5789C226.1 57.9599 226.694 58.1504 227.502 58.1504ZM249.956 51.8867H252.448V53.8984H252.585C252.935 53.1822 253.4 52.6259 253.979 52.2296C254.558 51.8182 255.282 51.6124 256.151 51.6124C257.538 51.6124 258.643 52.1306 259.466 53.1669C260.289 54.2032 260.7 55.7425 260.7 57.7847C260.7 59.8269 260.289 61.3661 259.466 62.4024C258.643 63.4388 257.538 63.9569 256.151 63.9569C255.282 63.9569 254.558 63.7588 253.979 63.3626C253.4 62.9511 252.935 62.3872 252.585 61.6709H252.448V68.2547H249.956V51.8867ZM255.122 61.9224C256.067 61.9224 256.791 61.6328 257.294 61.0537C257.812 60.4746 258.071 59.7049 258.071 58.7448V56.8245C258.071 55.8644 257.812 55.0948 257.294 54.5157C256.791 53.9365 256.067 53.647 255.122 53.647C254.757 53.647 254.414 53.6927 254.094 53.7841C253.774 53.8756 253.492 54.0127 253.248 54.1956C253.004 54.3785 252.806 54.6071 252.653 54.8814C252.516 55.1405 252.448 55.4529 252.448 55.8187V59.7507C252.448 60.1164 252.516 60.4365 252.653 60.7108C252.806 60.9699 253.004 61.1909 253.248 61.3737C253.492 61.5566 253.774 61.6938 254.094 61.7852C254.414 61.8767 254.757 61.9224 255.122 61.9224ZM263.595 61.6709H266.726V53.8984H263.595V51.8867H269.218V55.0186H269.355C269.462 54.6071 269.614 54.2109 269.813 53.8299C270.011 53.4489 270.262 53.1212 270.567 52.8469C270.872 52.5573 271.245 52.3287 271.687 52.1611C272.129 51.9782 272.647 51.8867 273.242 51.8867H274.659V54.2642H272.327C271.413 54.2642 270.666 54.5385 270.087 55.0872C269.508 55.6206 269.218 56.3445 269.218 57.2589V61.6709H273.493V63.6826H263.595V61.6709ZM282.422 63.9569C281.554 63.9569 280.769 63.8122 280.068 63.5226C279.382 63.233 278.795 62.8215 278.308 62.2881C277.835 61.7547 277.469 61.107 277.21 60.345C276.951 59.583 276.822 58.7296 276.822 57.7847C276.822 56.8398 276.951 55.9863 277.21 55.2243C277.469 54.4623 277.835 53.8146 278.308 53.2812C278.795 52.7478 279.382 52.3363 280.068 52.0468C280.769 51.7572 281.554 51.6124 282.422 51.6124C283.291 51.6124 284.068 51.7572 284.754 52.0468C285.455 52.3363 286.042 52.7478 286.514 53.2812C287.002 53.8146 287.375 54.4623 287.635 55.2243C287.894 55.9863 288.023 56.8398 288.023 57.7847C288.023 58.7296 287.894 59.583 287.635 60.345C287.375 61.107 287.002 61.7547 286.514 62.2881C286.042 62.8215 285.455 63.233 284.754 63.5226C284.068 63.8122 283.291 63.9569 282.422 63.9569ZM282.422 61.991C283.337 61.991 284.061 61.7166 284.594 61.168C285.143 60.6041 285.417 59.7735 285.417 58.6762V56.8931C285.417 55.7958 285.143 54.9729 284.594 54.4242C284.061 53.8603 283.337 53.5784 282.422 53.5784C281.508 53.5784 280.776 53.8603 280.228 54.4242C279.694 54.9729 279.428 55.7958 279.428 56.8931V58.6762C279.428 59.7735 279.694 60.6041 280.228 61.168C280.776 61.7166 281.508 61.991 282.422 61.991ZM296.838 63.6826C295.802 63.6826 295.04 63.4083 294.552 62.8596C294.065 62.2958 293.821 61.5719 293.821 60.6879V53.8984H290.186V51.8867H292.769C293.211 51.8867 293.524 51.8029 293.706 51.6353C293.889 51.4524 293.981 51.1323 293.981 50.6751V47.7262H296.313V51.8867H301.342V53.8984H296.313V61.6709H301.342V63.6826H296.838ZM310.088 63.9569C309.189 63.9569 308.381 63.8122 307.665 63.5226C306.949 63.233 306.347 62.8215 305.859 62.2881C305.371 61.7547 304.998 61.1147 304.739 60.3679C304.48 59.6059 304.35 58.7524 304.35 57.8075C304.35 56.8626 304.48 56.0092 304.739 55.2472C305.013 54.4852 305.387 53.8375 305.859 53.3041C306.347 52.7554 306.934 52.3363 307.619 52.0468C308.305 51.7572 309.067 51.6124 309.905 51.6124C310.728 51.6124 311.475 51.7572 312.146 52.0468C312.816 52.3211 313.388 52.7173 313.86 53.2355C314.333 53.7537 314.691 54.3709 314.935 55.0872C315.194 55.8035 315.323 56.5959 315.323 57.4646V58.4019H306.865V58.7905C306.865 59.7202 307.155 60.4822 307.734 61.0766C308.313 61.6557 309.113 61.9452 310.134 61.9452C310.896 61.9452 311.544 61.7852 312.077 61.4652C312.626 61.1299 313.068 60.6879 313.403 60.1393L314.958 61.5109C314.561 62.1967 313.952 62.7758 313.129 63.2483C312.321 63.7207 311.308 63.9569 310.088 63.9569ZM309.905 53.5098C309.463 53.5098 309.052 53.586 308.671 53.7384C308.305 53.8908 307.985 54.1118 307.711 54.4014C307.452 54.6757 307.246 55.0033 307.094 55.3844C306.941 55.7654 306.865 56.1845 306.865 56.6417V56.8017H312.786V56.5731C312.786 55.6434 312.519 54.9043 311.986 54.3556C311.468 53.7918 310.774 53.5098 309.905 53.5098ZM323.978 63.9569C323.094 63.9569 322.302 63.8122 321.601 63.5226C320.915 63.233 320.328 62.8215 319.841 62.2881C319.368 61.7547 319.002 61.107 318.743 60.345C318.5 59.583 318.378 58.7296 318.378 57.7847C318.378 56.8398 318.5 55.9863 318.743 55.2243C319.002 54.4623 319.368 53.8146 319.841 53.2812C320.328 52.7478 320.915 52.3363 321.601 52.0468C322.302 51.7572 323.087 51.6124 323.956 51.6124C325.175 51.6124 326.15 51.8715 326.882 52.3897C327.628 52.9078 328.185 53.5784 328.55 54.4014L326.607 55.4529C326.394 54.9043 326.066 54.4699 325.624 54.1499C325.198 53.8299 324.641 53.6698 323.956 53.6698C323.011 53.6698 322.279 53.9594 321.761 54.5385C321.243 55.1024 320.984 55.8568 320.984 56.8017V58.7677C320.984 59.6973 321.243 60.4517 321.761 61.0308C322.279 61.61 323.026 61.8995 324.001 61.8995C324.733 61.8995 325.327 61.7319 325.784 61.3966C326.257 61.0613 326.63 60.6041 326.904 60.025L328.733 61.1451C328.352 61.9681 327.773 62.6463 326.996 63.1797C326.219 63.6979 325.213 63.9569 323.978 63.9569ZM337.96 63.6826C336.924 63.6826 336.162 63.4083 335.674 62.8596C335.186 62.2958 334.942 61.5719 334.942 60.6879V53.8984H331.308V51.8867H333.891C334.333 51.8867 334.645 51.8029 334.828 51.6353C335.011 51.4524 335.102 51.1323 335.102 50.6751V47.7262H337.434V51.8867H342.463V53.8984H337.434V61.6709H342.463V63.6826H337.96ZM351.69 49.7379C351.05 49.7379 350.6 49.6083 350.341 49.3493C350.097 49.0902 349.975 48.7701 349.975 48.3891V47.9091C349.975 47.5281 350.097 47.208 350.341 46.9489C350.6 46.6898 351.042 46.5603 351.667 46.5603C352.307 46.5603 352.749 46.6898 352.993 46.9489C353.252 47.208 353.382 47.5281 353.382 47.9091V48.3891C353.382 48.7701 353.252 49.0902 352.993 49.3493C352.749 49.6083 352.315 49.7379 351.69 49.7379ZM346.409 61.6709H350.433V53.8984H346.409V51.8867H352.924V61.6709H356.696V63.6826H346.409V61.6709ZM364.666 63.9569C363.797 63.9569 363.012 63.8122 362.311 63.5226C361.625 63.233 361.039 62.8215 360.551 62.2881C360.078 61.7547 359.713 61.107 359.454 60.345C359.194 59.583 359.065 58.7296 359.065 57.7847C359.065 56.8398 359.194 55.9863 359.454 55.2243C359.713 54.4623 360.078 53.8146 360.551 53.2812C361.039 52.7478 361.625 52.3363 362.311 52.0468C363.012 51.7572 363.797 51.6124 364.666 51.6124C365.534 51.6124 366.312 51.7572 366.997 52.0468C367.698 52.3363 368.285 52.7478 368.758 53.2812C369.245 53.8146 369.619 54.4623 369.878 55.2243C370.137 55.9863 370.266 56.8398 370.266 57.7847C370.266 58.7296 370.137 59.583 369.878 60.345C369.619 61.107 369.245 61.7547 368.758 62.2881C368.285 62.8215 367.698 63.233 366.997 63.5226C366.312 63.8122 365.534 63.9569 364.666 63.9569ZM364.666 61.991C365.58 61.991 366.304 61.7166 366.837 61.168C367.386 60.6041 367.66 59.7735 367.66 58.6762V56.8931C367.66 55.7958 367.386 54.9729 366.837 54.4242C366.304 53.8603 365.58 53.5784 364.666 53.5784C363.751 53.5784 363.02 53.8603 362.471 54.4242C361.938 54.9729 361.671 55.7958 361.671 56.8931V58.6762C361.671 59.7735 361.938 60.6041 362.471 61.168C363.02 61.7166 363.751 61.991 364.666 61.991ZM373.435 63.6826V51.8867H375.927V53.8984H376.041C376.163 53.5936 376.315 53.3041 376.498 53.0297C376.696 52.7402 376.933 52.4963 377.207 52.2982C377.481 52.0849 377.801 51.9172 378.167 51.7953C378.533 51.6734 378.96 51.6124 379.447 51.6124C380.636 51.6124 381.596 52.001 382.328 52.7783C383.059 53.5555 383.425 54.6604 383.425 56.093V63.6826H380.933V56.4588C380.933 54.5842 380.118 53.647 378.487 53.647C378.167 53.647 377.855 53.6927 377.55 53.7841C377.245 53.8603 376.971 53.9823 376.727 54.1499C376.483 54.3175 376.285 54.5309 376.133 54.79C375.995 55.0491 375.927 55.3463 375.927 55.6815V63.6826H373.435ZM392.103 63.9569C390.823 63.9569 389.718 63.7512 388.788 63.3397C387.874 62.9282 387.135 62.3796 386.571 61.6938L388.102 60.3222C388.621 60.886 389.2 61.3204 389.84 61.6252C390.495 61.9148 391.265 62.0595 392.149 62.0595C392.956 62.0595 393.604 61.9224 394.092 61.6481C394.595 61.3737 394.846 60.947 394.846 60.3679C394.846 60.124 394.8 59.9183 394.709 59.7507C394.618 59.583 394.488 59.4459 394.32 59.3392C394.153 59.2325 393.955 59.1487 393.726 59.0877C393.513 59.0267 393.284 58.981 393.04 58.9505L391.166 58.6534C390.709 58.5924 390.244 58.4933 389.771 58.3562C389.299 58.219 388.872 58.0285 388.491 57.7847C388.125 57.5256 387.82 57.1979 387.577 56.8017C387.348 56.4054 387.234 55.9025 387.234 55.2929C387.234 54.0889 387.691 53.1745 388.605 52.5497C389.535 51.9248 390.754 51.6124 392.263 51.6124C393.36 51.6124 394.305 51.7801 395.098 52.1153C395.905 52.4354 396.576 52.885 397.109 53.4641L395.715 54.9271C395.41 54.5766 394.976 54.2566 394.412 53.967C393.848 53.6622 393.101 53.5098 392.172 53.5098C390.51 53.5098 389.68 54.0356 389.68 55.0872C389.68 55.5901 389.855 55.9406 390.206 56.1387C390.571 56.3216 390.998 56.4435 391.486 56.5045L393.36 56.8017C393.833 56.8779 394.298 56.9769 394.755 57.0989C395.227 57.2208 395.646 57.4113 396.012 57.6704C396.393 57.9142 396.698 58.2343 396.926 58.6305C397.17 59.0267 397.292 59.5297 397.292 60.1393C397.292 61.328 396.827 62.2653 395.898 62.9511C394.983 63.6217 393.718 63.9569 392.103 63.9569Z" fill="var(--color-04)"/>
<path d="M141 75.5V99.5551V152.141" stroke="#C2D5FF" stroke-width="1.69166" stroke-dasharray="2.26 2.26"/>
<path d="M142.905 122.94V126.324C142.905 132.552 147.954 137.601 154.183 137.601H381.429C387.657 137.601 392.707 142.651 392.707 148.879V156.774" stroke="#C2D5FF" stroke-width="1.69166" stroke-dasharray="2.26 2.26"/>
<rect x="44.4699" y="110.126" width="243.904" height="96.4269" rx="9.39223" fill="var(--color-02)"/>
<rect x="44.4699" y="110.126" width="243.904" height="96.4269" rx="9.39223" stroke="var(--color-03)" stroke-width="1.2523"/>
<path d="M73.4004 131.624C74.1555 132.877 74.4781 134.344 74.3187 135.798V136.633C74.3178 137.512 74.5481 138.376 74.9866 139.138" stroke="var(--color-05)" stroke-width="1.66973" stroke-linecap="round" stroke-linejoin="round"/>
<path d="M64.2969 134.963C64.2969 134.078 64.6487 133.228 65.275 132.602C65.9013 131.976 66.7507 131.624 67.6363 131.624C68.522 131.624 69.3714 131.976 69.9977 132.602C70.624 133.228 70.9758 134.078 70.9758 134.963V135.798C70.9758 137.605 71.5617 139.362 72.6455 140.808" stroke="var(--color-05)" stroke-width="1.66973" stroke-linecap="round" stroke-linejoin="round"/>
<path d="M67.6377 134.965V136.635C67.635 139.022 68.3634 141.353 69.7249 143.313" stroke="var(--color-05)" stroke-width="1.66973" stroke-linecap="round" stroke-linejoin="round"/>
<path d="M64.2969 138.304C64.5012 140.048 65.0098 141.744 65.7996 143.313" stroke="var(--color-05)" stroke-width="1.66973" stroke-linecap="round" stroke-linejoin="round"/>
<path d="M61.7117 141.644C61.1484 139.749 60.8947 137.775 60.9603 135.8V134.965C60.9571 133.791 61.2634 132.637 61.8483 131.619C62.4332 130.601 63.276 129.755 64.2919 129.167C65.3078 128.579 66.4608 128.268 67.6347 128.268C68.8086 128.267 69.9621 128.575 70.9787 129.162" stroke="var(--color-05)" stroke-width="1.66973" stroke-linecap="round" stroke-linejoin="round"/>
<path d="M91.0134 129.048H92.9435V137.434C92.9435 138.327 92.7339 139.118 92.3147 139.807C91.8954 140.491 91.3061 141.031 90.5465 141.425C89.7869 141.815 88.8966 142.011 87.8756 142.011C86.8587 142.011 85.9705 141.815 85.2109 141.425C84.4513 141.031 83.8619 140.491 83.4427 139.807C83.0235 139.118 82.8139 138.327 82.8139 137.434V129.048H84.7377V137.279C84.7377 137.856 84.8643 138.368 85.1175 138.817C85.3748 139.265 85.738 139.618 86.207 139.875C86.6761 140.128 87.2322 140.255 87.8756 140.255C88.5231 140.255 89.0813 140.128 89.5504 139.875C90.0235 139.618 90.3846 139.265 90.6337 138.817C90.8868 138.368 91.0134 137.856 91.0134 137.279V129.048ZM97.4526 136.121V141.799H95.591V132.236H97.3779V133.792H97.4962C97.7162 133.286 98.0607 132.879 98.5297 132.572C99.0028 132.265 99.5985 132.111 100.317 132.111C100.968 132.111 101.539 132.248 102.029 132.522C102.518 132.792 102.898 133.195 103.168 133.73C103.438 134.265 103.573 134.927 103.573 135.716V141.799H101.711V135.94C101.711 135.247 101.531 134.705 101.169 134.315C100.808 133.921 100.312 133.724 99.6815 133.724C99.2498 133.724 98.8659 133.817 98.5297 134.004C98.1976 134.191 97.9341 134.465 97.739 134.826C97.5481 135.183 97.4526 135.614 97.4526 136.121ZM106.219 141.799V129.048H108.08V133.786H108.192C108.3 133.587 108.456 133.356 108.659 133.095C108.863 132.834 109.145 132.605 109.506 132.41C109.867 132.211 110.344 132.111 110.938 132.111C111.71 132.111 112.399 132.306 113.005 132.697C113.611 133.087 114.086 133.649 114.431 134.384C114.779 135.118 114.954 136.003 114.954 137.036C114.954 138.07 114.781 138.956 114.437 139.694C114.092 140.429 113.619 140.996 113.017 141.394C112.416 141.788 111.729 141.986 110.957 141.986C110.376 141.986 109.9 141.888 109.531 141.693C109.166 141.498 108.879 141.27 108.672 141.008C108.464 140.747 108.304 140.514 108.192 140.311H108.037V141.799H106.219ZM108.043 137.017C108.043 137.69 108.14 138.279 108.335 138.785C108.531 139.292 108.813 139.688 109.182 139.975C109.552 140.257 110.004 140.398 110.539 140.398C111.096 140.398 111.561 140.251 111.934 139.956C112.308 139.657 112.59 139.252 112.781 138.742C112.976 138.231 113.073 137.657 113.073 137.017C113.073 136.386 112.978 135.82 112.787 135.318C112.6 134.815 112.318 134.419 111.94 134.129C111.567 133.838 111.1 133.693 110.539 133.693C110 133.693 109.543 133.832 109.17 134.11C108.8 134.388 108.52 134.776 108.329 135.274C108.138 135.772 108.043 136.353 108.043 137.017ZM118.906 129.048V141.799H117.044V129.048H118.906ZM125.438 141.992C124.542 141.992 123.759 141.786 123.091 141.375C122.423 140.965 121.904 140.39 121.534 139.651C121.165 138.912 120.98 138.049 120.98 137.061C120.98 136.069 121.165 135.201 121.534 134.458C121.904 133.716 122.423 133.139 123.091 132.728C123.759 132.317 124.542 132.111 125.438 132.111C126.335 132.111 127.117 132.317 127.785 132.728C128.453 133.139 128.972 133.716 129.342 134.458C129.711 135.201 129.896 136.069 129.896 137.061C129.896 138.049 129.711 138.912 129.342 139.651C128.972 140.39 128.453 140.965 127.785 141.375C127.117 141.786 126.335 141.992 125.438 141.992ZM125.444 140.429C126.025 140.429 126.507 140.276 126.889 139.968C127.271 139.661 127.553 139.252 127.735 138.742C127.922 138.231 128.016 137.669 128.016 137.055C128.016 136.445 127.922 135.884 127.735 135.374C127.553 134.859 127.271 134.446 126.889 134.135C126.507 133.823 126.025 133.668 125.444 133.668C124.859 133.668 124.373 133.823 123.987 134.135C123.606 134.446 123.321 134.859 123.134 135.374C122.952 135.884 122.861 136.445 122.861 137.055C122.861 137.669 122.952 138.231 123.134 138.742C123.321 139.252 123.606 139.661 123.987 139.968C124.373 140.276 124.859 140.429 125.444 140.429ZM136.002 141.992C135.076 141.992 134.279 141.782 133.611 141.363C132.947 140.94 132.437 140.356 132.08 139.614C131.723 138.871 131.544 138.02 131.544 137.061C131.544 136.09 131.727 135.233 132.092 134.49C132.457 133.742 132.972 133.159 133.636 132.74C134.3 132.321 135.083 132.111 135.983 132.111C136.71 132.111 137.357 132.246 137.926 132.516C138.494 132.782 138.953 133.155 139.302 133.637C139.654 134.118 139.864 134.681 139.93 135.324H138.119C138.019 134.876 137.791 134.49 137.434 134.166C137.081 133.842 136.608 133.68 136.014 133.68C135.496 133.68 135.041 133.817 134.651 134.091C134.265 134.361 133.964 134.747 133.748 135.249C133.532 135.747 133.424 136.337 133.424 137.017C133.424 137.715 133.53 138.316 133.742 138.823C133.954 139.329 134.252 139.721 134.638 140C135.029 140.278 135.487 140.417 136.014 140.417C136.367 140.417 136.687 140.352 136.973 140.224C137.264 140.091 137.506 139.902 137.702 139.657C137.901 139.412 138.04 139.118 138.119 138.773H139.93C139.864 139.391 139.663 139.944 139.327 140.429C138.99 140.915 138.54 141.297 137.975 141.575C137.415 141.853 136.757 141.992 136.002 141.992ZM143.633 138.555L143.621 136.283H143.945L147.755 132.236H149.984L145.638 136.843H145.345L143.633 138.555ZM141.921 141.799V129.048H143.783V141.799H141.921ZM147.96 141.799L144.536 137.254L145.819 135.953L150.245 141.799H147.96ZM151.68 141.799V132.236H153.542V141.799H151.68ZM152.62 130.76C152.297 130.76 152.019 130.652 151.786 130.437C151.558 130.217 151.444 129.955 151.444 129.652C151.444 129.345 151.558 129.083 151.786 128.868C152.019 128.648 152.297 128.538 152.62 128.538C152.944 128.538 153.22 128.648 153.448 128.868C153.681 129.083 153.797 129.345 153.797 129.652C153.797 129.955 153.681 130.217 153.448 130.437C153.22 130.652 152.944 130.76 152.62 130.76ZM157.908 136.121V141.799H156.046V132.236H157.833V133.792H157.951C158.171 133.286 158.516 132.879 158.985 132.572C159.458 132.265 160.054 132.111 160.772 132.111C161.423 132.111 161.994 132.248 162.484 132.522C162.974 132.792 163.353 133.195 163.623 133.73C163.893 134.265 164.028 134.927 164.028 135.716V141.799H162.166V135.94C162.166 135.247 161.986 134.705 161.625 134.315C161.264 133.921 160.768 133.724 160.137 133.724C159.705 133.724 159.321 133.817 158.985 134.004C158.653 134.191 158.389 134.465 158.194 134.826C158.003 135.183 157.908 135.614 157.908 136.121ZM170.534 145.584C169.774 145.584 169.121 145.485 168.573 145.285C168.029 145.086 167.585 144.823 167.24 144.495C166.896 144.167 166.639 143.808 166.468 143.418L168.068 142.758C168.181 142.94 168.33 143.133 168.517 143.337C168.708 143.544 168.965 143.721 169.289 143.866C169.617 144.011 170.038 144.084 170.553 144.084C171.258 144.084 171.841 143.911 172.302 143.567C172.763 143.227 172.993 142.683 172.993 141.936V140.056H172.875C172.763 140.259 172.601 140.485 172.389 140.734C172.182 140.983 171.895 141.199 171.53 141.382C171.165 141.564 170.69 141.656 170.104 141.656C169.349 141.656 168.668 141.479 168.062 141.126C167.46 140.769 166.983 140.244 166.63 139.551C166.282 138.854 166.107 137.997 166.107 136.98C166.107 135.963 166.28 135.091 166.624 134.365C166.973 133.639 167.45 133.083 168.056 132.697C168.662 132.306 169.349 132.111 170.117 132.111C170.71 132.111 171.19 132.211 171.555 132.41C171.92 132.605 172.205 132.834 172.408 133.095C172.615 133.356 172.775 133.587 172.887 133.786H173.024V132.236H174.848V142.011C174.848 142.832 174.658 143.507 174.276 144.034C173.894 144.561 173.377 144.951 172.725 145.204C172.078 145.458 171.347 145.584 170.534 145.584ZM170.515 140.112C171.051 140.112 171.503 139.987 171.872 139.738C172.246 139.485 172.528 139.124 172.719 138.655C172.914 138.182 173.012 137.615 173.012 136.955C173.012 136.312 172.916 135.745 172.725 135.255C172.534 134.766 172.254 134.384 171.885 134.11C171.516 133.832 171.059 133.693 170.515 133.693C169.955 133.693 169.488 133.838 169.114 134.129C168.741 134.415 168.459 134.805 168.268 135.299C168.081 135.793 167.988 136.345 167.988 136.955C167.988 137.582 168.083 138.132 168.274 138.605C168.465 139.078 168.747 139.448 169.121 139.713C169.498 139.979 169.963 140.112 170.515 140.112Z" fill="var(--color-04)"/>
<rect x="58.2453" y="158.966" width="216.353" height="33.812" rx="6.88764" fill="var(--color-06)"/>
<rect x="58.2453" y="158.966" width="216.353" height="33.812" rx="6.88764" stroke="var(--color-07)" stroke-width="1.2523"/>
<rect x="62.0021" y="162.724" width="98.7845" height="26.2983" rx="4.38304" fill="var(--color-08)"/>
<rect x="62.0021" y="162.724" width="98.7845" height="26.2983" rx="4.38304" stroke="#E4E5E6" stroke-width="1.2523"/>
<path d="M76.1333 180.372H72.5952V169.443H76.2454C77.3163 169.443 78.2359 169.662 79.0044 170.099C79.7728 170.533 80.3616 171.158 80.7708 171.972C81.1834 172.784 81.3898 173.757 81.3898 174.891C81.3898 176.03 81.1817 177.008 80.7654 177.827C80.3527 178.645 79.755 179.275 78.9724 179.716C78.1897 180.153 77.2433 180.372 76.1333 180.372ZM74.2442 178.931H76.0426C76.8751 178.931 77.5671 178.775 78.1185 178.462C78.67 178.145 79.0826 177.688 79.3566 177.09C79.6305 176.489 79.7675 175.756 79.7675 174.891C79.7675 174.034 79.6305 173.307 79.3566 172.709C79.0862 172.111 78.6824 171.658 78.1452 171.348C77.608 171.039 76.9409 170.884 76.144 170.884H74.2442V178.931ZM85.6977 180.554C85.1783 180.554 84.7086 180.457 84.2888 180.265C83.869 180.07 83.5364 179.787 83.2909 179.417C83.049 179.047 82.928 178.593 82.928 178.056C82.928 177.594 83.017 177.213 83.1949 176.914C83.3727 176.615 83.6129 176.379 83.9153 176.204C84.2177 176.03 84.5557 175.898 84.9292 175.809C85.3028 175.72 85.6834 175.653 86.0712 175.607C86.5622 175.55 86.9606 175.503 87.2666 175.468C87.5726 175.429 87.7949 175.366 87.9337 175.281C88.0724 175.196 88.1418 175.057 88.1418 174.865V174.827C88.1418 174.361 88.0102 174 87.7469 173.744C87.4872 173.488 87.0994 173.36 86.5835 173.36C86.0463 173.36 85.623 173.479 85.3134 173.717C85.0075 173.952 84.7958 174.214 84.6784 174.502L83.1788 174.16C83.3567 173.662 83.6164 173.26 83.958 172.954C84.3031 172.645 84.6997 172.421 85.148 172.282C85.5963 172.14 86.0677 172.068 86.5622 172.068C86.8895 172.068 87.2364 172.108 87.6028 172.186C87.9728 172.261 88.3179 172.399 88.6381 172.602C88.9618 172.805 89.2269 173.095 89.4332 173.472C89.6396 173.846 89.7427 174.331 89.7427 174.929V180.372H88.1845V179.251H88.1204C88.0173 179.458 87.8625 179.661 87.6562 179.86C87.4498 180.059 87.1848 180.224 86.861 180.356C86.5373 180.488 86.1495 180.554 85.6977 180.554ZM86.0445 179.273C86.4857 179.273 86.8628 179.186 87.1759 179.011C87.4925 178.837 87.7327 178.609 87.8963 178.328C88.0635 178.044 88.1471 177.739 88.1471 177.416V176.359C88.0902 176.416 87.9799 176.469 87.8163 176.519C87.6562 176.565 87.4729 176.606 87.2666 176.642C87.0603 176.674 86.8593 176.704 86.6636 176.733C86.4679 176.757 86.3043 176.779 86.1726 176.797C85.8631 176.836 85.5803 176.902 85.3241 176.994C85.0715 177.087 84.8687 177.22 84.7158 177.394C84.5663 177.565 84.4916 177.793 84.4916 178.077C84.4916 178.472 84.6375 178.771 84.9292 178.974C85.2209 179.173 85.5927 179.273 86.0445 179.273ZM95.6943 172.175V173.456H91.2169V172.175H95.6943ZM92.4177 170.211H94.0133V177.965C94.0133 178.275 94.0595 178.508 94.152 178.664C94.2445 178.817 94.3637 178.922 94.5096 178.979C94.659 179.033 94.8209 179.059 94.9952 179.059C95.1233 179.059 95.2353 179.05 95.3314 179.033C95.4274 179.015 95.5022 179.001 95.5555 178.99L95.8437 180.308C95.7512 180.344 95.6196 180.379 95.4488 180.415C95.278 180.454 95.0646 180.475 94.8084 180.479C94.3886 180.486 93.9973 180.411 93.6344 180.255C93.2715 180.098 92.978 179.856 92.7539 179.529C92.5297 179.202 92.4177 178.791 92.4177 178.296V170.211ZM99.8447 180.554C99.3253 180.554 98.8557 180.457 98.4359 180.265C98.0161 180.07 97.6834 179.787 97.438 179.417C97.196 179.047 97.0751 178.593 97.0751 178.056C97.0751 177.594 97.164 177.213 97.3419 176.914C97.5198 176.615 97.7599 176.379 98.0623 176.204C98.3647 176.03 98.7027 175.898 99.0763 175.809C99.4498 175.72 99.8305 175.653 100.218 175.607C100.709 175.55 101.108 175.503 101.414 175.468C101.72 175.429 101.942 175.366 102.081 175.281C102.219 175.196 102.289 175.057 102.289 174.865V174.827C102.289 174.361 102.157 174 101.894 173.744C101.634 173.488 101.246 173.36 100.731 173.36C100.193 173.36 99.77 173.479 99.4605 173.717C99.1545 173.952 98.9429 174.214 98.8255 174.502L97.3259 174.16C97.5038 173.662 97.7635 173.26 98.105 172.954C98.4501 172.645 98.8468 172.421 99.2951 172.282C99.7433 172.14 100.215 172.068 100.709 172.068C101.037 172.068 101.383 172.108 101.75 172.186C102.12 172.261 102.465 172.399 102.785 172.602C103.109 172.805 103.374 173.095 103.58 173.472C103.787 173.846 103.89 174.331 103.89 174.929V180.372H102.332V179.251H102.267C102.164 179.458 102.01 179.661 101.803 179.86C101.597 180.059 101.332 180.224 101.008 180.356C100.684 180.488 100.297 180.554 99.8447 180.554ZM100.192 179.273C100.633 179.273 101.01 179.186 101.323 179.011C101.64 178.837 101.88 178.609 102.043 178.328C102.211 178.044 102.294 177.739 102.294 177.416V176.359C102.237 176.416 102.127 176.469 101.963 176.519C101.803 176.565 101.62 176.606 101.414 176.642C101.207 176.674 101.006 176.704 100.811 176.733C100.615 176.757 100.451 176.779 100.32 176.797C100.01 176.836 99.7273 176.902 99.4712 176.994C99.2186 177.087 99.0158 177.22 98.8628 177.394C98.7134 177.565 98.6387 177.793 98.6387 178.077C98.6387 178.472 98.7845 178.771 99.0763 178.974C99.368 179.173 99.7398 179.273 100.192 179.273ZM109.468 180.538C108.674 180.538 107.991 180.358 107.419 179.999C106.849 179.636 106.412 179.136 106.106 178.499C105.8 177.862 105.647 177.133 105.647 176.311C105.647 175.479 105.803 174.744 106.116 174.107C106.43 173.467 106.871 172.967 107.44 172.607C108.009 172.248 108.68 172.068 109.452 172.068C110.074 172.068 110.629 172.184 111.117 172.415C111.604 172.643 111.997 172.963 112.296 173.376C112.599 173.789 112.778 174.271 112.835 174.822H111.282C111.197 174.438 111.001 174.107 110.695 173.83C110.393 173.552 109.987 173.413 109.478 173.413C109.034 173.413 108.644 173.531 108.31 173.765C107.979 173.997 107.721 174.328 107.536 174.758C107.351 175.185 107.258 175.69 107.258 176.274C107.258 176.871 107.349 177.387 107.531 177.821C107.712 178.255 107.968 178.591 108.299 178.83C108.633 179.068 109.027 179.187 109.478 179.187C109.781 179.187 110.055 179.132 110.3 179.022C110.549 178.908 110.757 178.746 110.925 178.536C111.095 178.326 111.215 178.074 111.282 177.779H112.835C112.778 178.309 112.606 178.782 112.317 179.198C112.029 179.614 111.643 179.942 111.159 180.18C110.679 180.418 110.115 180.538 109.468 180.538ZM118.074 180.538C117.267 180.538 116.571 180.365 115.988 180.02C115.408 179.671 114.959 179.182 114.643 178.552C114.33 177.919 114.173 177.177 114.173 176.327C114.173 175.487 114.33 174.747 114.643 174.107C114.959 173.467 115.401 172.967 115.966 172.607C116.536 172.248 117.201 172.068 117.962 172.068C118.425 172.068 118.873 172.145 119.307 172.298C119.741 172.451 120.131 172.691 120.476 173.018C120.821 173.346 121.093 173.771 121.292 174.294C121.491 174.813 121.591 175.445 121.591 176.188V176.754H115.075V175.559H120.027C120.027 175.139 119.942 174.767 119.771 174.443C119.6 174.116 119.36 173.858 119.051 173.669C118.745 173.481 118.385 173.387 117.973 173.387C117.525 173.387 117.133 173.497 116.799 173.717C116.468 173.934 116.212 174.219 116.03 174.571C115.852 174.92 115.763 175.299 115.763 175.708V176.642C115.763 177.19 115.86 177.656 116.052 178.04C116.247 178.424 116.519 178.718 116.868 178.921C117.217 179.12 117.624 179.219 118.09 179.219C118.393 179.219 118.668 179.177 118.917 179.091C119.166 179.002 119.382 178.871 119.563 178.696C119.745 178.522 119.883 178.307 119.979 178.051L121.49 178.323C121.369 178.768 121.152 179.157 120.839 179.492C120.529 179.822 120.139 180.08 119.67 180.265C119.204 180.447 118.672 180.538 118.074 180.538ZM124.957 175.505V180.372H123.361V172.175H124.893V173.509H124.994C125.183 173.075 125.478 172.727 125.88 172.463C126.286 172.2 126.796 172.068 127.412 172.068C127.97 172.068 128.459 172.186 128.879 172.421C129.299 172.652 129.625 172.997 129.856 173.456C130.087 173.915 130.203 174.482 130.203 175.158V180.372H128.607V175.35C128.607 174.756 128.452 174.292 128.143 173.958C127.833 173.62 127.408 173.451 126.867 173.451C126.497 173.451 126.168 173.531 125.88 173.691C125.596 173.851 125.37 174.086 125.202 174.395C125.039 174.701 124.957 175.071 124.957 175.505ZM136.169 172.175V173.456H131.692V172.175H136.169ZM132.892 170.211H134.488V177.965C134.488 178.275 134.534 178.508 134.627 178.664C134.719 178.817 134.838 178.922 134.984 178.979C135.134 179.033 135.296 179.059 135.47 179.059C135.598 179.059 135.71 179.05 135.806 179.033C135.902 179.015 135.977 179.001 136.03 178.99L136.318 180.308C136.226 180.344 136.094 180.379 135.923 180.415C135.753 180.454 135.539 180.475 135.283 180.479C134.863 180.486 134.472 180.411 134.109 180.255C133.746 180.098 133.453 179.856 133.229 179.529C133.004 179.202 132.892 178.791 132.892 178.296V170.211ZM141.379 180.538C140.571 180.538 139.876 180.365 139.292 180.02C138.712 179.671 138.264 179.182 137.947 178.552C137.634 177.919 137.478 177.177 137.478 176.327C137.478 175.487 137.634 174.747 137.947 174.107C138.264 173.467 138.705 172.967 139.271 172.607C139.84 172.248 140.505 172.068 141.267 172.068C141.729 172.068 142.177 172.145 142.611 172.298C143.045 172.451 143.435 172.691 143.78 173.018C144.125 173.346 144.397 173.771 144.597 174.294C144.796 174.813 144.895 175.445 144.895 176.188V176.754H138.38V175.559H143.332C143.332 175.139 143.246 174.767 143.076 174.443C142.905 174.116 142.665 173.858 142.355 173.669C142.049 173.481 141.69 173.387 141.277 173.387C140.829 173.387 140.438 173.497 140.103 173.717C139.772 173.934 139.516 174.219 139.335 174.571C139.157 174.92 139.068 175.299 139.068 175.708V176.642C139.068 177.19 139.164 177.656 139.356 178.04C139.552 178.424 139.824 178.718 140.173 178.921C140.521 179.12 140.929 179.219 141.395 179.219C141.697 179.219 141.973 179.177 142.222 179.091C142.471 179.002 142.686 178.871 142.868 178.696C143.049 178.522 143.188 178.307 143.284 178.051L144.794 178.323C144.673 178.768 144.456 179.157 144.143 179.492C143.833 179.822 143.444 180.08 142.974 180.265C142.508 180.447 141.976 180.538 141.379 180.538ZM146.666 180.372V172.175H148.208V173.477H148.293C148.443 173.036 148.706 172.689 149.083 172.437C149.464 172.181 149.894 172.052 150.375 172.052C150.474 172.052 150.592 172.056 150.727 172.063C150.866 172.07 150.974 172.079 151.052 172.09V173.616C150.988 173.598 150.875 173.579 150.711 173.557C150.547 173.532 150.384 173.52 150.22 173.52C149.843 173.52 149.507 173.6 149.211 173.76C148.92 173.917 148.688 174.135 148.518 174.417C148.347 174.694 148.261 175.011 148.261 175.366V180.372H146.666Z" fill="var(--color-04)"/>
<rect x="172.684" y="160.363" width="100.037" height="31.0184" rx="7.51379" fill="var(--color-06)"/>
<path d="M183.903 180.372V169.443H187.799C188.645 169.443 189.348 169.589 189.906 169.881C190.469 170.172 190.888 170.576 191.166 171.092C191.443 171.604 191.582 172.197 191.582 172.869C191.582 173.538 191.442 174.127 191.16 174.635C190.883 175.141 190.463 175.534 189.901 175.815C189.343 176.096 188.64 176.236 187.793 176.236H184.842V174.817H187.644C188.177 174.817 188.611 174.74 188.946 174.587C189.284 174.434 189.531 174.212 189.688 173.92C189.844 173.629 189.922 173.278 189.922 172.869C189.922 172.456 189.842 172.099 189.682 171.796C189.526 171.494 189.278 171.263 188.941 171.103C188.606 170.939 188.167 170.857 187.622 170.857H185.552V180.372H183.903ZM189.298 175.441L191.998 180.372H190.12L187.473 175.441H189.298ZM196.891 180.538C196.083 180.538 195.387 180.365 194.804 180.02C194.224 179.671 193.776 179.182 193.459 178.552C193.146 177.919 192.99 177.177 192.99 176.327C192.99 175.487 193.146 174.747 193.459 174.107C193.776 173.467 194.217 172.967 194.783 172.607C195.352 172.248 196.017 172.068 196.778 172.068C197.241 172.068 197.689 172.145 198.123 172.298C198.557 172.451 198.947 172.691 199.292 173.018C199.637 173.346 199.909 173.771 200.108 174.294C200.308 174.813 200.407 175.445 200.407 176.188V176.754H193.891V175.559H198.844C198.844 175.139 198.758 174.767 198.588 174.443C198.417 174.116 198.177 173.858 197.867 173.669C197.561 173.481 197.202 173.387 196.789 173.387C196.341 173.387 195.95 173.497 195.615 173.717C195.284 173.934 195.028 174.219 194.847 174.571C194.669 174.92 194.58 175.299 194.58 175.708V176.642C194.58 177.19 194.676 177.656 194.868 178.04C195.064 178.424 195.336 178.718 195.685 178.921C196.033 179.12 196.441 179.219 196.907 179.219C197.209 179.219 197.485 179.177 197.734 179.091C197.983 179.002 198.198 178.871 198.379 178.696C198.561 178.522 198.7 178.307 198.796 178.051L200.306 178.323C200.185 178.768 199.968 179.157 199.655 179.492C199.345 179.822 198.956 180.08 198.486 180.265C198.02 180.447 197.488 180.538 196.891 180.538ZM208.32 174.176L206.874 174.433C206.813 174.248 206.717 174.071 206.586 173.904C206.458 173.737 206.283 173.6 206.063 173.493C205.842 173.387 205.566 173.333 205.236 173.333C204.784 173.333 204.407 173.435 204.104 173.637C203.802 173.837 203.651 174.095 203.651 174.411C203.651 174.685 203.752 174.906 203.955 175.073C204.158 175.24 204.485 175.377 204.937 175.484L206.239 175.783C206.993 175.957 207.555 176.226 207.925 176.588C208.295 176.951 208.48 177.423 208.48 178.003C208.48 178.494 208.338 178.931 208.053 179.315C207.772 179.696 207.379 179.995 206.874 180.212C206.372 180.429 205.79 180.538 205.129 180.538C204.211 180.538 203.462 180.342 202.882 179.95C202.302 179.556 201.946 178.995 201.815 178.269L203.357 178.035C203.453 178.437 203.651 178.741 203.949 178.947C204.248 179.15 204.638 179.251 205.118 179.251C205.641 179.251 206.059 179.143 206.372 178.926C206.685 178.705 206.842 178.437 206.842 178.12C206.842 177.864 206.746 177.649 206.554 177.474C206.365 177.3 206.075 177.168 205.684 177.079L204.296 176.775C203.531 176.601 202.966 176.323 202.599 175.943C202.236 175.562 202.055 175.08 202.055 174.497C202.055 174.013 202.19 173.589 202.461 173.227C202.731 172.864 203.104 172.581 203.581 172.378C204.058 172.172 204.604 172.068 205.219 172.068C206.105 172.068 206.803 172.261 207.311 172.645C207.82 173.025 208.156 173.536 208.32 174.176ZM210.234 180.372V172.175H211.83V180.372H210.234ZM211.04 170.91C210.763 170.91 210.524 170.818 210.325 170.633C210.13 170.444 210.032 170.22 210.032 169.961C210.032 169.697 210.13 169.473 210.325 169.288C210.524 169.1 210.763 169.005 211.04 169.005C211.318 169.005 211.554 169.1 211.75 169.288C211.949 169.473 212.049 169.697 212.049 169.961C212.049 170.22 211.949 170.444 211.75 170.633C211.554 170.818 211.318 170.91 211.04 170.91ZM217.045 180.532C216.383 180.532 215.793 180.363 215.273 180.025C214.758 179.684 214.352 179.198 214.057 178.568C213.765 177.935 213.619 177.176 213.619 176.29C213.619 175.404 213.767 174.646 214.062 174.016C214.361 173.387 214.77 172.905 215.289 172.57C215.809 172.236 216.398 172.068 217.056 172.068C217.565 172.068 217.974 172.154 218.283 172.325C218.596 172.492 218.838 172.688 219.009 172.912C219.183 173.136 219.319 173.333 219.415 173.504H219.511V169.443H221.106V180.372H219.548V179.097H219.415C219.319 179.271 219.18 179.47 218.998 179.694C218.82 179.918 218.575 180.114 218.262 180.281C217.949 180.449 217.543 180.532 217.045 180.532ZM217.397 179.171C217.856 179.171 218.244 179.05 218.561 178.808C218.881 178.563 219.123 178.223 219.286 177.789C219.454 177.355 219.537 176.85 219.537 176.274C219.537 175.704 219.455 175.206 219.292 174.779C219.128 174.353 218.888 174.02 218.571 173.781C218.255 173.543 217.863 173.424 217.397 173.424C216.917 173.424 216.517 173.548 216.197 173.798C215.876 174.047 215.635 174.386 215.471 174.817C215.311 175.247 215.231 175.733 215.231 176.274C215.231 176.822 215.313 177.314 215.476 177.752C215.64 178.189 215.882 178.536 216.202 178.792C216.526 179.045 216.924 179.171 217.397 179.171ZM226.916 180.538C226.109 180.538 225.413 180.365 224.83 180.02C224.25 179.671 223.802 179.182 223.485 178.552C223.172 177.919 223.015 177.177 223.015 176.327C223.015 175.487 223.172 174.747 223.485 174.107C223.802 173.467 224.243 172.967 224.808 172.607C225.378 172.248 226.043 172.068 226.804 172.068C227.267 172.068 227.715 172.145 228.149 172.298C228.583 172.451 228.973 172.691 229.318 173.018C229.663 173.346 229.935 173.771 230.134 174.294C230.333 174.813 230.433 175.445 230.433 176.188V176.754H223.917V175.559H228.87C228.87 175.139 228.784 174.767 228.613 174.443C228.443 174.116 228.202 173.858 227.893 173.669C227.587 173.481 227.228 173.387 226.815 173.387C226.367 173.387 225.975 173.497 225.641 173.717C225.31 173.934 225.054 174.219 224.872 174.571C224.695 174.92 224.606 175.299 224.606 175.708V176.642C224.606 177.19 224.702 177.656 224.894 178.04C225.089 178.424 225.362 178.718 225.71 178.921C226.059 179.12 226.466 179.219 226.932 179.219C227.235 179.219 227.51 179.177 227.76 179.091C228.009 179.002 228.224 178.871 228.405 178.696C228.587 178.522 228.725 178.307 228.821 178.051L230.332 178.323C230.211 178.768 229.994 179.157 229.681 179.492C229.371 179.822 228.982 180.08 228.512 180.265C228.046 180.447 227.514 180.538 226.916 180.538ZM233.799 175.505V180.372H232.203V172.175H233.735V173.509H233.836C234.025 173.075 234.32 172.727 234.722 172.463C235.128 172.2 235.638 172.068 236.254 172.068C236.812 172.068 237.302 172.186 237.721 172.421C238.141 172.652 238.467 172.997 238.698 173.456C238.929 173.915 239.045 174.482 239.045 175.158V180.372H237.449V175.35C237.449 174.756 237.295 174.292 236.985 173.958C236.675 173.62 236.25 173.451 235.71 173.451C235.34 173.451 235.01 173.531 234.722 173.691C234.438 173.851 234.212 174.086 234.045 174.395C233.881 174.701 233.799 175.071 233.799 175.505ZM245.011 172.175V173.456H240.534V172.175H245.011ZM241.734 170.211H243.33V177.965C243.33 178.275 243.376 178.508 243.469 178.664C243.561 178.817 243.681 178.922 243.826 178.979C243.976 179.033 244.138 179.059 244.312 179.059C244.44 179.059 244.552 179.05 244.648 179.033C244.744 179.015 244.819 179.001 244.872 178.99L245.16 180.308C245.068 180.344 244.936 180.379 244.766 180.415C244.595 180.454 244.381 180.475 244.125 180.479C243.705 180.486 243.314 180.411 242.951 180.255C242.588 180.098 242.295 179.856 242.071 179.529C241.847 179.202 241.734 178.791 241.734 178.296V170.211ZM246.776 180.372V172.175H248.372V180.372H246.776ZM247.582 170.91C247.304 170.91 247.066 170.818 246.867 170.633C246.671 170.444 246.573 170.22 246.573 169.961C246.573 169.697 246.671 169.473 246.867 169.288C247.066 169.1 247.304 169.005 247.582 169.005C247.859 169.005 248.096 169.1 248.292 169.288C248.491 169.473 248.591 169.697 248.591 169.961C248.591 170.22 248.491 170.444 248.292 170.633C248.096 170.818 247.859 170.91 247.582 170.91ZM252.904 180.554C252.384 180.554 251.915 180.457 251.495 180.265C251.075 180.07 250.742 179.787 250.497 179.417C250.255 179.047 250.134 178.593 250.134 178.056C250.134 177.594 250.223 177.213 250.401 176.914C250.579 176.615 250.819 176.379 251.121 176.204C251.424 176.03 251.762 175.898 252.135 175.809C252.509 175.72 252.89 175.653 253.277 175.607C253.768 175.55 254.167 175.503 254.473 175.468C254.779 175.429 255.001 175.366 255.14 175.281C255.278 175.196 255.348 175.057 255.348 174.865V174.827C255.348 174.361 255.216 174 254.953 173.744C254.693 173.488 254.305 173.36 253.79 173.36C253.252 173.36 252.829 173.479 252.52 173.717C252.214 173.952 252.002 174.214 251.884 174.502L250.385 174.16C250.563 173.662 250.823 173.26 251.164 172.954C251.509 172.645 251.906 172.421 252.354 172.282C252.802 172.14 253.274 172.068 253.768 172.068C254.096 172.068 254.442 172.108 254.809 172.186C255.179 172.261 255.524 172.399 255.844 172.602C256.168 172.805 256.433 173.095 256.639 173.472C256.846 173.846 256.949 174.331 256.949 174.929V180.372H255.391V179.251H255.327C255.223 179.458 255.069 179.661 254.862 179.86C254.656 180.059 254.391 180.224 254.067 180.356C253.743 180.488 253.356 180.554 252.904 180.554ZM253.251 179.273C253.692 179.273 254.069 179.186 254.382 179.011C254.699 178.837 254.939 178.609 255.102 178.328C255.27 178.044 255.353 177.739 255.353 177.416V176.359C255.296 176.416 255.186 176.469 255.022 176.519C254.862 176.565 254.679 176.606 254.473 176.642C254.266 176.674 254.065 176.704 253.87 176.733C253.674 176.757 253.51 176.779 253.379 176.797C253.069 176.836 252.786 176.902 252.53 176.994C252.278 177.087 252.075 177.22 251.922 177.394C251.772 177.565 251.698 177.793 251.698 178.077C251.698 178.472 251.844 178.771 252.135 178.974C252.427 179.173 252.799 179.273 253.251 179.273ZM260.67 169.443V180.372H259.074V169.443H260.67Z" fill="var(--color-09)"/>
<rect x="335.875" y="106.359" width="186.683" height="104.516" rx="8.45829" fill="var(--color-02)"/>
<rect x="335.875" y="106.359" width="186.683" height="104.516" rx="8.45829" stroke="var(--color-03)" stroke-width="1.12777"/>
<path d="M349.974 129.479C349.974 130.367 350.149 131.247 350.489 132.068C350.829 132.889 351.327 133.635 351.956 134.263C352.584 134.892 353.33 135.39 354.151 135.73C354.972 136.07 355.852 136.245 356.74 136.245C357.629 136.245 358.509 136.07 359.33 135.73C360.151 135.39 360.897 134.892 361.525 134.263C362.153 133.635 362.652 132.889 362.992 132.068C363.332 131.247 363.507 130.367 363.507 129.479C363.507 127.684 362.794 125.963 361.525 124.694C360.256 123.425 358.535 122.712 356.74 122.712C354.946 122.712 353.225 123.425 351.956 124.694C350.687 125.963 349.974 127.684 349.974 129.479Z" stroke="var(--color-05)" stroke-width="1.5037" stroke-linecap="round" stroke-linejoin="round"/>
<path d="M350.423 127.223H363.054" stroke="var(--color-05)" stroke-width="1.5037" stroke-linecap="round" stroke-linejoin="round"/>
<path d="M350.423 131.734H363.054" stroke="var(--color-05)" stroke-width="1.5037" stroke-linecap="round" stroke-linejoin="round"/>
<path d="M356.365 122.712C355.098 124.742 354.427 127.086 354.427 129.479C354.427 131.871 355.098 134.215 356.365 136.245" stroke="var(--color-05)" stroke-width="1.5037" stroke-linecap="round" stroke-linejoin="round"/>
<path d="M357.114 122.712C358.381 124.742 359.052 127.086 359.052 129.479C359.052 131.871 358.381 134.215 357.114 136.245" stroke="var(--color-05)" stroke-width="1.5037" stroke-linecap="round" stroke-linejoin="round"/>
<path d="M370.406 134.978V123.495H374.499C375.392 123.495 376.132 123.657 376.719 123.983C377.306 124.308 377.745 124.753 378.037 125.317C378.328 125.878 378.474 126.509 378.474 127.212C378.474 127.919 378.327 128.554 378.031 129.118C377.74 129.679 377.299 130.124 376.708 130.453C376.121 130.778 375.383 130.941 374.493 130.941H371.679V129.472H374.336C374.901 129.472 375.359 129.374 375.71 129.18C376.061 128.982 376.319 128.713 376.484 128.373C376.648 128.033 376.731 127.646 376.731 127.212C376.731 126.779 376.648 126.394 376.484 126.057C376.319 125.721 376.06 125.457 375.705 125.267C375.353 125.076 374.89 124.981 374.314 124.981H372.139V134.978H370.406ZM380.371 134.978V126.365H381.991V127.734H382.081C382.238 127.27 382.514 126.906 382.911 126.64C383.311 126.371 383.763 126.237 384.268 126.237C384.372 126.237 384.496 126.24 384.638 126.248C384.783 126.255 384.897 126.265 384.98 126.276V127.879C384.912 127.861 384.793 127.84 384.621 127.818C384.449 127.791 384.277 127.778 384.105 127.778C383.709 127.778 383.355 127.862 383.045 128.031C382.739 128.195 382.496 128.425 382.316 128.72C382.137 129.012 382.047 129.345 382.047 129.718V134.978H380.371ZM389.75 135.151C388.942 135.151 388.238 134.966 387.636 134.596C387.034 134.226 386.567 133.709 386.234 133.043C385.901 132.378 385.735 131.6 385.735 130.711C385.735 129.817 385.901 129.036 386.234 128.367C386.567 127.698 387.034 127.178 387.636 126.808C388.238 126.438 388.942 126.253 389.75 126.253C390.557 126.253 391.262 126.438 391.863 126.808C392.465 127.178 392.932 127.698 393.265 128.367C393.598 129.036 393.764 129.817 393.764 130.711C393.764 131.6 393.598 132.378 393.265 133.043C392.932 133.709 392.465 134.226 391.863 134.596C391.262 134.966 390.557 135.151 389.75 135.151ZM389.755 133.744C390.278 133.744 390.712 133.606 391.056 133.329C391.4 133.053 391.654 132.684 391.819 132.225C391.987 131.765 392.071 131.258 392.071 130.705C392.071 130.156 391.987 129.651 391.819 129.191C391.654 128.728 391.4 128.356 391.056 128.076C390.712 127.795 390.278 127.655 389.755 127.655C389.228 127.655 388.791 127.795 388.443 128.076C388.099 128.356 387.843 128.728 387.675 129.191C387.511 129.651 387.428 130.156 387.428 130.705C387.428 131.258 387.511 131.765 387.675 132.225C387.843 132.684 388.099 133.053 388.443 133.329C388.791 133.606 389.228 133.744 389.755 133.744ZM396.619 126.365L398.52 129.718L400.438 126.365H402.271L399.585 130.672L402.293 134.978H400.46L398.52 131.759L396.586 134.978H394.747L397.427 130.672L394.78 126.365H396.619ZM405.052 138.207C404.802 138.207 404.574 138.187 404.368 138.145C404.162 138.108 404.009 138.067 403.908 138.022L404.312 136.648C404.618 136.731 404.891 136.766 405.13 136.755C405.37 136.744 405.581 136.654 405.764 136.486C405.951 136.318 406.115 136.043 406.257 135.662L406.465 135.09L403.314 126.365H405.108L407.289 133.049H407.379L409.56 126.365H411.36L407.811 136.127C407.646 136.575 407.437 136.955 407.183 137.265C406.928 137.579 406.626 137.815 406.274 137.972C405.923 138.129 405.515 138.207 405.052 138.207Z" fill="var(--color-04)"/>
<path d="M351.001 168.912L349.611 167.956L351.777 165.033L348.402 163.896L348.908 162.344L352.264 163.481V159.872H353.996V163.481L357.352 162.344L357.858 163.896L354.483 165.033L356.649 167.956L355.259 168.912L353.13 165.989L351.001 168.912ZM361.82 168.912L360.431 167.956L362.596 165.033L359.222 163.896L359.727 162.344L363.084 163.481V159.872H364.816V163.481L368.172 162.344L368.677 163.896L365.303 165.033L367.468 167.956L366.079 168.912L363.95 165.989L361.82 168.912ZM372.64 168.912L371.251 167.956L373.416 165.033L370.042 163.896L370.547 162.344L373.903 163.481V159.872H375.635V163.481L378.992 162.344L379.497 163.896L376.123 165.033L378.288 167.956L376.898 168.912L374.769 165.989L372.64 168.912ZM385.589 169.959C385.011 169.959 384.602 169.838 384.362 169.598C384.133 169.357 384.019 169.063 384.019 168.714V168.245C384.019 167.896 384.133 167.601 384.362 167.36C384.602 167.12 385.011 166.999 385.589 166.999C386.166 166.999 386.569 167.12 386.798 167.36C387.038 167.601 387.159 167.896 387.159 168.245V168.714C387.159 169.063 387.038 169.357 386.798 169.598C386.569 169.838 386.166 169.959 385.589 169.959ZM394.279 168.912L392.89 167.956L395.055 165.033L391.681 163.896L392.186 162.344L395.542 163.481V159.872H397.274V163.481L400.631 162.344L401.136 163.896L397.762 165.033L399.927 167.956L398.538 168.912L396.408 165.989L394.279 168.912ZM405.099 168.912L403.709 167.956L405.875 165.033L402.5 163.896L403.006 162.344L406.362 163.481V159.872H408.094V163.481L411.45 162.344L411.956 163.896L408.581 165.033L410.747 167.956L409.357 168.912L407.228 165.989L405.099 168.912ZM415.918 168.912L414.529 167.956L416.694 165.033L413.32 163.896L413.825 162.344L417.181 163.481V159.872H418.914V163.481L422.27 162.344L422.775 163.896L419.401 165.033L421.566 167.956L420.177 168.912L418.047 165.989L415.918 168.912ZM428.867 169.959C428.29 169.959 427.881 169.838 427.64 169.598C427.411 169.357 427.297 169.063 427.297 168.714V168.245C427.297 167.896 427.411 167.601 427.64 167.36C427.881 167.12 428.29 166.999 428.867 166.999C429.444 166.999 429.847 167.12 430.076 167.36C430.317 167.601 430.437 167.896 430.437 168.245V168.714C430.437 169.063 430.317 169.357 430.076 169.598C429.847 169.838 429.444 169.959 428.867 169.959ZM437.557 168.912L436.168 167.956L438.333 165.033L434.959 163.896L435.464 162.344L438.82 163.481V159.872H440.553V163.481L443.909 162.344L444.414 163.896L441.04 165.033L443.205 167.956L441.816 168.912L439.687 165.989L437.557 168.912ZM448.377 168.912L446.987 167.956L449.153 165.033L445.779 163.896L446.284 162.344L449.64 163.481V159.872H451.372V163.481L454.728 162.344L455.234 163.896L451.859 165.033L454.025 167.956L452.635 168.912L450.506 165.989L448.377 168.912ZM459.196 168.912L457.807 167.956L459.972 165.033L456.598 163.896L457.103 162.344L460.46 163.481V159.872H462.192V163.481L465.548 162.344L466.053 163.896L462.679 165.033L464.844 167.956L463.455 168.912L461.326 165.989L459.196 168.912ZM472.145 169.959C471.568 169.959 471.159 169.838 470.918 169.598C470.69 169.357 470.575 169.063 470.575 168.714V168.245C470.575 167.896 470.69 167.601 470.918 167.36C471.159 167.12 471.568 166.999 472.145 166.999C472.723 166.999 473.126 167.12 473.354 167.36C473.595 167.601 473.715 167.896 473.715 168.245V168.714C473.715 169.063 473.595 169.357 473.354 169.598C473.126 169.838 472.723 169.959 472.145 169.959ZM479.139 169.778V168.1H482.676V158.663H482.532L479.609 161.785L478.363 160.666L481.575 157.183H484.697V168.1H487.747V169.778H479.139ZM493.784 169.995C492.99 169.995 492.299 169.85 491.709 169.562C491.132 169.261 490.651 168.834 490.266 168.281C489.893 167.727 489.616 167.048 489.436 166.242C489.255 165.436 489.165 164.515 489.165 163.481C489.165 162.458 489.255 161.544 489.436 160.738C489.616 159.92 489.893 159.234 490.266 158.681C490.651 158.128 491.132 157.707 491.709 157.418C492.299 157.117 492.99 156.967 493.784 156.967C494.578 156.967 495.264 157.117 495.841 157.418C496.431 157.707 496.912 158.128 497.285 158.681C497.67 159.234 497.953 159.92 498.133 160.738C498.313 161.544 498.404 162.458 498.404 163.481C498.404 164.515 498.313 165.436 498.133 166.242C497.953 167.048 497.67 167.727 497.285 168.281C496.912 168.834 496.431 169.261 495.841 169.562C495.264 169.85 494.578 169.995 493.784 169.995ZM493.784 168.335C494.699 168.335 495.348 167.998 495.733 167.324C496.13 166.639 496.329 165.718 496.329 164.564V162.398C496.329 161.243 496.13 160.329 495.733 159.655C495.348 158.97 494.699 158.627 493.784 158.627C493.327 158.627 492.936 158.717 492.611 158.898C492.287 159.066 492.022 159.319 491.818 159.655C491.613 159.98 491.463 160.377 491.366 160.846C491.282 161.303 491.24 161.821 491.24 162.398V164.564C491.24 165.141 491.282 165.664 491.366 166.133C491.463 166.59 491.613 166.987 491.818 167.324C492.022 167.649 492.287 167.902 492.611 168.082C492.936 168.251 493.327 168.335 493.784 168.335ZM493.784 164.545C493.363 164.545 493.069 164.461 492.9 164.293C492.744 164.124 492.666 163.92 492.666 163.679V163.282C492.666 163.042 492.744 162.837 492.9 162.669C493.069 162.5 493.363 162.416 493.784 162.416C494.205 162.416 494.494 162.5 494.65 162.669C494.819 162.837 494.903 163.042 494.903 163.282V163.679C494.903 163.92 494.819 164.124 494.65 164.293C494.494 164.461 494.205 164.545 493.784 164.545ZM509.025 169.778H500.327V167.848L504.442 164.257C505.091 163.679 505.59 163.132 505.939 162.615C506.3 162.097 506.481 161.55 506.481 160.973V160.774C506.481 160.113 506.3 159.607 505.939 159.258C505.578 158.898 505.055 158.717 504.369 158.717C503.672 158.717 503.13 158.904 502.745 159.277C502.372 159.649 502.102 160.125 501.933 160.702L500.165 160.034C500.285 159.637 500.46 159.258 500.688 158.898C500.917 158.525 501.206 158.194 501.554 157.905C501.915 157.616 502.336 157.388 502.818 157.219C503.311 157.051 503.876 156.967 504.514 156.967C505.163 156.967 505.741 157.063 506.246 157.256C506.763 157.436 507.196 157.689 507.545 158.013C507.894 158.338 508.159 158.729 508.339 159.186C508.52 159.631 508.61 160.125 508.61 160.666C508.61 161.171 508.532 161.64 508.375 162.073C508.231 162.494 508.02 162.903 507.744 163.3C507.479 163.685 507.16 164.058 506.787 164.419C506.414 164.78 506.005 165.141 505.56 165.502L502.511 168.064H509.025V169.778Z" fill="var(--color-04)"/>
<path d="M355.459 187.301C355.366 187.01 355.241 186.749 355.084 186.518C354.93 186.284 354.746 186.085 354.531 185.922C354.317 185.755 354.072 185.629 353.796 185.542C353.524 185.456 353.224 185.412 352.897 185.412C352.343 185.412 351.843 185.555 351.398 185.84C350.953 186.125 350.6 186.543 350.341 187.095C350.084 187.642 349.956 188.314 349.956 189.108C349.956 189.906 350.086 190.58 350.346 191.131C350.605 191.683 350.961 192.101 351.412 192.386C351.864 192.671 352.378 192.813 352.955 192.813C353.49 192.813 353.956 192.705 354.354 192.487C354.754 192.269 355.063 191.961 355.281 191.564C355.502 191.163 355.613 190.693 355.613 190.151L355.997 190.223H353.181V188.998H357.05V190.117C357.05 190.944 356.874 191.662 356.521 192.27C356.172 192.876 355.688 193.344 355.07 193.674C354.455 194.004 353.75 194.169 352.955 194.169C352.064 194.169 351.283 193.964 350.61 193.554C349.94 193.143 349.418 192.562 349.043 191.809C348.668 191.053 348.481 190.156 348.481 189.118C348.481 188.333 348.59 187.628 348.808 187.003C349.026 186.378 349.332 185.848 349.726 185.412C350.123 184.974 350.589 184.639 351.124 184.408C351.662 184.174 352.25 184.057 352.888 184.057C353.42 184.057 353.915 184.136 354.373 184.293C354.834 184.45 355.244 184.672 355.603 184.961C355.965 185.249 356.265 185.592 356.502 185.989C356.739 186.383 356.899 186.821 356.982 187.301H355.459ZM362.001 194.183C361.274 194.183 360.647 194.028 360.122 193.717C359.6 193.403 359.196 192.962 358.911 192.395C358.629 191.825 358.488 191.157 358.488 190.391C358.488 189.635 358.629 188.969 358.911 188.392C359.196 187.815 359.593 187.365 360.103 187.042C360.615 186.718 361.214 186.556 361.9 186.556C362.317 186.556 362.72 186.625 363.111 186.763C363.502 186.901 363.853 187.117 364.164 187.412C364.474 187.706 364.719 188.089 364.899 188.56C365.078 189.028 365.168 189.597 365.168 190.266V190.776H359.3V189.699H363.76C363.76 189.321 363.683 188.986 363.529 188.695C363.375 188.4 363.159 188.168 362.88 187.998C362.605 187.828 362.281 187.743 361.91 187.743C361.506 187.743 361.154 187.843 360.852 188.041C360.554 188.237 360.324 188.493 360.16 188.81C360 189.124 359.92 189.465 359.92 189.834V190.675C359.92 191.168 360.007 191.588 360.18 191.934C360.356 192.28 360.601 192.544 360.915 192.727C361.229 192.906 361.596 192.996 362.015 192.996C362.288 192.996 362.536 192.958 362.76 192.881C362.985 192.801 363.178 192.682 363.342 192.525C363.505 192.368 363.63 192.174 363.717 191.944L365.077 192.189C364.968 192.589 364.772 192.94 364.49 193.241C364.212 193.539 363.861 193.771 363.438 193.938C363.018 194.101 362.539 194.183 362.001 194.183ZM366.762 194.034V186.652H368.151V187.825H368.228C368.363 187.428 368.6 187.115 368.939 186.888C369.282 186.657 369.67 186.542 370.102 186.542C370.192 186.542 370.298 186.545 370.42 186.551C370.545 186.558 370.642 186.566 370.713 186.576V187.95C370.655 187.934 370.553 187.916 370.405 187.897C370.258 187.875 370.11 187.863 369.963 187.863C369.623 187.863 369.321 187.936 369.055 188.08C368.792 188.221 368.584 188.418 368.43 188.671C368.276 188.921 368.199 189.206 368.199 189.526V194.034H366.762ZM371.956 194.034V186.652H373.336V187.854H373.427C373.581 187.447 373.832 187.13 374.181 186.902C374.531 186.672 374.949 186.556 375.436 186.556C375.929 186.556 376.342 186.672 376.676 186.902C377.012 187.133 377.26 187.45 377.421 187.854H377.497C377.674 187.46 377.954 187.146 378.338 186.912C378.723 186.675 379.181 186.556 379.713 186.556C380.383 186.556 380.929 186.766 381.352 187.186C381.778 187.606 381.991 188.238 381.991 189.084V194.034H380.554V189.219C380.554 188.719 380.418 188.357 380.145 188.133C379.873 187.908 379.548 187.796 379.17 187.796C378.702 187.796 378.338 187.94 378.079 188.229C377.819 188.514 377.69 188.881 377.69 189.329V194.034H376.258V189.127C376.258 188.727 376.133 188.405 375.883 188.161C375.633 187.918 375.308 187.796 374.907 187.796C374.635 187.796 374.383 187.868 374.153 188.012C373.925 188.153 373.741 188.35 373.6 188.604C373.462 188.857 373.393 189.15 373.393 189.483V194.034H371.956ZM386.065 194.198C385.597 194.198 385.174 194.111 384.796 193.938C384.418 193.762 384.119 193.507 383.898 193.174C383.68 192.841 383.571 192.432 383.571 191.948C383.571 191.532 383.651 191.189 383.811 190.92C383.971 190.651 384.188 190.438 384.46 190.281C384.732 190.124 385.037 190.005 385.373 189.925C385.709 189.845 386.052 189.784 386.401 189.743C386.844 189.691 387.202 189.65 387.478 189.618C387.753 189.582 387.954 189.526 388.079 189.449C388.204 189.373 388.266 189.248 388.266 189.075V189.041C388.266 188.621 388.148 188.296 387.91 188.065C387.677 187.835 387.327 187.719 386.863 187.719C386.379 187.719 385.998 187.827 385.719 188.041C385.443 188.253 385.253 188.488 385.147 188.748L383.797 188.44C383.957 187.992 384.191 187.63 384.498 187.354C384.809 187.075 385.166 186.873 385.57 186.749C385.974 186.62 386.398 186.556 386.844 186.556C387.138 186.556 387.451 186.592 387.781 186.662C388.114 186.729 388.425 186.854 388.713 187.037C389.005 187.219 389.243 187.481 389.429 187.82C389.615 188.157 389.708 188.594 389.708 189.132V194.034H388.305V193.025H388.247C388.154 193.211 388.015 193.393 387.829 193.573C387.643 193.752 387.404 193.901 387.113 194.02C386.821 194.138 386.472 194.198 386.065 194.198ZM386.377 193.044C386.775 193.044 387.114 192.966 387.396 192.809C387.681 192.652 387.898 192.447 388.045 192.194C388.196 191.937 388.271 191.663 388.271 191.372V190.42C388.22 190.471 388.12 190.52 387.973 190.564C387.829 190.606 387.664 190.643 387.478 190.675C387.292 190.704 387.111 190.731 386.935 190.757C386.759 190.779 386.611 190.798 386.493 190.814C386.214 190.85 385.959 190.909 385.729 190.992C385.501 191.075 385.319 191.196 385.181 191.353C385.046 191.506 384.979 191.711 384.979 191.968C384.979 192.323 385.11 192.592 385.373 192.775C385.636 192.954 385.971 193.044 386.377 193.044ZM393.059 189.651V194.034H391.622V186.652H393.001V187.854H393.092C393.262 187.463 393.528 187.149 393.89 186.912C394.255 186.675 394.715 186.556 395.269 186.556C395.772 186.556 396.213 186.662 396.591 186.873C396.969 187.082 397.262 187.393 397.471 187.806C397.679 188.219 397.783 188.73 397.783 189.339V194.034H396.346V189.512C396.346 188.977 396.207 188.559 395.928 188.258C395.649 187.953 395.266 187.801 394.779 187.801C394.446 187.801 394.15 187.873 393.89 188.017C393.634 188.161 393.43 188.373 393.28 188.652C393.132 188.927 393.059 189.26 393.059 189.651ZM400.354 196.802C400.139 196.802 399.944 196.785 399.768 196.749C399.591 196.717 399.46 196.682 399.374 196.644L399.72 195.466C399.982 195.537 400.216 195.567 400.421 195.558C400.626 195.548 400.807 195.471 400.964 195.327C401.125 195.183 401.266 194.947 401.387 194.62L401.565 194.13L398.864 186.652H400.402L402.272 192.381H402.348L404.218 186.652H405.761L402.718 195.019C402.578 195.404 402.398 195.729 402.18 195.995C401.962 196.264 401.703 196.466 401.402 196.601C401.101 196.735 400.751 196.802 400.354 196.802Z" fill="var(--color-09)"/>
</g>
<defs>
<clipPath id="clip0_3959_11468">
<rect width="460" height="200" fill="white"/>
</clipPath>
</defs>
</svg>
