<svg width="640" height="480" viewBox="0 0 640 480" fill="none" xmlns="http://www.w3.org/2000/svg">
<g clip-path="url(#clip0_3623_8913)">
<rect width="640" height="480" fill="#F4F4F5"/>
<rect x="61.7845" y="54.7845" width="509.951" height="64.332" rx="11.7681" fill="white"/>
<rect x="61.7845" y="54.7845" width="509.951" height="64.332" rx="11.7681" stroke="#D2D3D6" stroke-width="1.56907"/>
<path d="M92.9539 98.9502L91.2682 93.0344H84.2074L82.5217 98.9502H78.8959L85.3842 76.7499H90.2505L96.7388 98.9502H92.9539ZM87.865 80.344H87.6106L84.8753 90.0764H90.6003L87.865 80.344ZM100.002 98.9502V82.5385H103.469V85.3374H103.628C103.798 84.9134 104.01 84.5105 104.264 84.1288C104.54 83.7259 104.869 83.3867 105.25 83.111C105.632 82.8142 106.077 82.5809 106.586 82.4113C107.095 82.2417 107.689 82.1569 108.367 82.1569C110.021 82.1569 111.357 82.6976 112.375 83.779C113.392 84.8603 113.901 86.3976 113.901 88.3908V98.9502H110.435V88.8996C110.435 86.2916 109.3 84.9876 107.031 84.9876C106.586 84.9876 106.151 85.0512 105.727 85.1784C105.303 85.2844 104.922 85.454 104.582 85.6873C104.243 85.9205 103.967 86.2174 103.755 86.5778C103.565 86.9383 103.469 87.3518 103.469 87.8183V98.9502H100.002ZM126.929 98.9502C125.487 98.9502 124.427 98.5685 123.749 97.8052C123.07 97.0207 122.731 96.0135 122.731 94.7837V85.3374H117.674V82.5385H121.268C121.883 82.5385 122.317 82.4219 122.572 82.1887C122.826 81.9342 122.954 81.489 122.954 80.8528V76.7499H126.198V82.5385H133.195V85.3374H126.198V96.1513H133.195V98.9502H126.929ZM146.032 79.5488C145.141 79.5488 144.516 79.3686 144.155 79.0081C143.816 78.6477 143.646 78.2024 143.646 77.6723V77.0044C143.646 76.4743 143.816 76.029 144.155 75.6685C144.516 75.3081 145.131 75.1278 146 75.1278C146.891 75.1278 147.506 75.3081 147.845 75.6685C148.205 76.029 148.386 76.4743 148.386 77.0044V77.6723C148.386 78.2024 148.205 78.6477 147.845 79.0081C147.506 79.3686 146.901 79.5488 146.032 79.5488ZM138.685 96.1513H144.283V85.3374H138.685V82.5385H147.749V96.1513H152.997V98.9502H138.685V96.1513ZM159.282 90.9988V87.532H168.888V90.9988H159.282ZM183.188 99.3319C181.407 99.3319 179.869 99.0456 178.576 98.4731C177.304 97.9006 176.275 97.1373 175.491 96.1831L177.622 94.2748C178.343 95.0593 179.148 95.6636 180.039 96.0877C180.951 96.4906 182.022 96.692 183.251 96.692C184.375 96.692 185.276 96.5012 185.955 96.1195C186.655 95.7378 187.004 95.1441 187.004 94.3384C187.004 93.9991 186.941 93.7129 186.814 93.4796C186.686 93.2464 186.506 93.0556 186.273 92.9071C186.04 92.7587 185.764 92.6421 185.446 92.5573C185.149 92.4725 184.831 92.4089 184.492 92.3664L181.884 91.953C181.248 91.8682 180.601 91.7303 179.944 91.5395C179.286 91.3487 178.693 91.0836 178.162 90.7444C177.654 90.3839 177.229 89.928 176.89 89.3767C176.572 88.8254 176.413 88.1257 176.413 87.2776C176.413 85.6025 177.049 84.3302 178.321 83.4609C179.615 82.5915 181.311 82.1569 183.41 82.1569C184.937 82.1569 186.252 82.3901 187.354 82.8566C188.478 83.3019 189.411 83.9274 190.153 84.7331L188.213 86.7687C187.789 86.281 187.185 85.8357 186.4 85.4328C185.616 85.0088 184.577 84.7967 183.283 84.7967C180.972 84.7967 179.816 85.5283 179.816 86.9913C179.816 87.691 180.06 88.1787 180.548 88.4544C181.057 88.7088 181.65 88.8784 182.329 88.9633L184.937 89.3767C185.594 89.4827 186.241 89.6206 186.877 89.7902C187.534 89.9598 188.118 90.2249 188.626 90.5853C189.157 90.9246 189.581 91.3699 189.899 91.9212C190.238 92.4725 190.408 93.1722 190.408 94.0203C190.408 95.6742 189.761 96.9783 188.467 97.9324C187.195 98.8654 185.435 99.3319 183.188 99.3319ZM202.831 99.3319C201.601 99.3319 200.499 99.1304 199.523 98.7276C198.569 98.3247 197.753 97.7522 197.074 97.0101C196.417 96.2679 195.908 95.3668 195.548 94.3066C195.208 93.2464 195.039 92.059 195.039 90.7444C195.039 89.4297 195.208 88.2423 195.548 87.1821C195.908 86.122 196.417 85.2208 197.074 84.4787C197.753 83.7365 198.569 83.164 199.523 82.7612C200.499 82.3583 201.591 82.1569 202.799 82.1569C204.496 82.1569 205.853 82.5173 206.87 83.2383C207.909 83.9592 208.683 84.8921 209.192 86.0371L206.489 87.5002C206.192 86.7369 205.736 86.1326 205.121 85.6873C204.527 85.242 203.753 85.0194 202.799 85.0194C201.485 85.0194 200.467 85.4222 199.746 86.228C199.025 87.0125 198.665 88.0621 198.665 89.3767V92.112C198.665 93.4054 199.025 94.455 199.746 95.2608C200.467 96.0665 201.506 96.4694 202.863 96.4694C203.881 96.4694 204.708 96.2361 205.344 95.7696C206.001 95.3032 206.521 94.667 206.902 93.8613L209.447 95.4198C208.917 96.5648 208.111 97.5083 207.029 98.2505C205.948 98.9714 204.549 99.3319 202.831 99.3319ZM214.173 96.1513H218.531V85.3374H214.173V82.5385H221.997V86.8959H222.188C222.337 86.3234 222.549 85.7721 222.824 85.242C223.1 84.7119 223.45 84.256 223.874 83.8744C224.298 83.4715 224.818 83.1534 225.432 82.9202C226.047 82.6658 226.768 82.5385 227.595 82.5385H229.567V85.8463H226.323C225.051 85.8463 224.012 86.228 223.206 86.9913C222.4 87.7334 221.997 88.7406 221.997 90.0128V96.1513H227.945V98.9502H214.173V96.1513ZM246.475 98.9502C245.479 98.9502 244.726 98.6958 244.217 98.1869C243.729 97.678 243.433 97.0101 243.327 96.1831H243.167C242.849 97.1797 242.266 97.9536 241.418 98.5049C240.591 99.0562 239.531 99.3319 238.238 99.3319C236.563 99.3319 235.227 98.8972 234.23 98.0278C233.234 97.1373 232.735 95.9181 232.735 94.3702C232.735 92.7799 233.318 91.5713 234.485 90.7444C235.672 89.8962 237.485 89.4721 239.923 89.4721H243.072V88.1999C243.072 85.9735 241.895 84.8603 239.542 84.8603C238.481 84.8603 237.623 85.0724 236.965 85.4965C236.308 85.8993 235.757 86.44 235.312 87.1185L233.244 85.4328C233.711 84.5423 234.495 83.779 235.598 83.1428C236.7 82.4855 238.121 82.1569 239.86 82.1569C241.938 82.1569 243.57 82.6552 244.758 83.6517C245.945 84.6483 246.539 86.0902 246.539 87.9773V96.2149H248.606V98.9502H246.475ZM239.224 96.7874C240.347 96.7874 241.27 96.533 241.991 96.0241C242.712 95.5152 243.072 94.8579 243.072 94.0521V91.6667H239.987C237.485 91.6667 236.234 92.4195 236.234 93.9249V94.561C236.234 95.3032 236.499 95.8651 237.029 96.2467C237.559 96.6072 238.291 96.7874 239.224 96.7874ZM252.41 82.5385H255.877V85.3374H256.068C256.556 84.3409 257.203 83.5669 258.008 83.0156C258.814 82.4431 259.821 82.1569 261.03 82.1569C262.959 82.1569 264.497 82.8778 265.642 84.3196C266.787 85.7615 267.359 87.9031 267.359 90.7444C267.359 93.5857 266.787 95.7272 265.642 97.1691C264.497 98.6109 262.959 99.3319 261.03 99.3319C259.821 99.3319 258.814 99.0562 258.008 98.5049C257.203 97.9324 256.556 97.1479 256.068 96.1513H255.877V105.311H252.41V82.5385ZM259.599 96.5012C260.913 96.5012 261.92 96.0983 262.62 95.2926C263.341 94.4868 263.701 93.416 263.701 92.0802V89.4085C263.701 88.0727 263.341 87.0019 262.62 86.1962C261.92 85.3904 260.913 84.9876 259.599 84.9876C259.09 84.9876 258.613 85.0512 258.167 85.1784C257.722 85.3056 257.33 85.4965 256.99 85.7509C256.651 86.0053 256.376 86.3234 256.164 86.7051C255.973 87.0655 255.877 87.5002 255.877 88.0091V93.4796C255.877 93.9885 255.973 94.4338 256.164 94.8155C256.376 95.1759 256.651 95.4834 256.99 95.7378C257.33 95.9923 257.722 96.1831 258.167 96.3103C258.613 96.4376 259.09 96.5012 259.599 96.5012ZM279.528 79.5488C278.638 79.5488 278.012 79.3686 277.652 79.0081C277.312 78.6477 277.143 78.2024 277.143 77.6723V77.0044C277.143 76.4743 277.312 76.029 277.652 75.6685C278.012 75.3081 278.627 75.1278 279.496 75.1278C280.387 75.1278 281.002 75.3081 281.341 75.6685C281.702 76.029 281.882 76.4743 281.882 77.0044V77.6723C281.882 78.2024 281.702 78.6477 281.341 79.0081C281.002 79.3686 280.398 79.5488 279.528 79.5488ZM272.181 96.1513H277.779V85.3374H272.181V82.5385H281.246V96.1513H286.494V98.9502H272.181V96.1513ZM290.711 98.9502V82.5385H294.178V85.3374H294.337C294.507 84.9134 294.719 84.5105 294.973 84.1288C295.249 83.7259 295.578 83.3867 295.959 83.111C296.341 82.8142 296.786 82.5809 297.295 82.4113C297.804 82.2417 298.398 82.1569 299.076 82.1569C300.73 82.1569 302.066 82.6976 303.084 83.779C304.101 84.8603 304.61 86.3976 304.61 88.3908V98.9502H301.144V88.8996C301.144 86.2916 300.009 84.9876 297.74 84.9876C297.295 84.9876 296.86 85.0512 296.436 85.1784C296.012 85.2844 295.631 85.454 295.291 85.6873C294.952 85.9205 294.676 86.2174 294.464 86.5778C294.274 86.9383 294.178 87.3518 294.178 87.8183V98.9502H290.711ZM325.24 100.731C325.24 102.428 324.529 103.679 323.109 104.484C321.688 105.29 319.525 105.693 316.62 105.693C315.2 105.693 314.002 105.598 313.026 105.407C312.072 105.237 311.288 104.983 310.673 104.643C310.079 104.304 309.644 103.891 309.369 103.403C309.114 102.915 308.987 102.364 308.987 101.749C308.987 100.859 309.231 100.159 309.719 99.6499C310.227 99.1622 310.938 98.8018 311.85 98.5685V98.2505C311.298 98.0384 310.853 97.7416 310.514 97.3599C310.196 96.9783 310.037 96.48 310.037 95.8651C310.037 95.0593 310.312 94.455 310.864 94.0521C311.415 93.6281 312.125 93.31 312.995 93.098V92.9389C311.998 92.4725 311.224 91.8152 310.673 90.967C310.121 90.1189 309.846 89.1011 309.846 87.9137C309.846 87.0443 310.005 86.2598 310.323 85.5601C310.641 84.8391 311.086 84.2348 311.659 83.7471C312.252 83.2383 312.952 82.846 313.758 82.5703C314.585 82.2947 315.507 82.1569 316.525 82.1569C317.67 82.1569 318.698 82.3371 319.61 82.6976V82.1569C319.61 81.5208 319.79 80.9907 320.151 80.5666C320.511 80.1425 321.063 79.9305 321.805 79.9305H324.794V82.6658H320.978V83.4291C321.699 83.9168 322.25 84.5423 322.632 85.3056C323.013 86.0477 323.204 86.9171 323.204 87.9137C323.204 88.783 323.045 89.5782 322.727 90.2991C322.409 90.9988 321.953 91.6031 321.359 92.112C320.787 92.5997 320.087 92.9814 319.26 93.257C318.455 93.5114 317.543 93.6387 316.525 93.6387C315.804 93.6387 315.126 93.5751 314.489 93.4478C314.108 93.5539 313.726 93.7341 313.344 93.9885C312.963 94.243 312.772 94.5928 312.772 95.0381C312.772 95.547 313.016 95.8651 313.503 95.9923C313.991 96.1195 314.595 96.1831 315.316 96.1831H319.006C321.211 96.1831 322.801 96.6072 323.777 97.4553C324.752 98.2823 325.24 99.3743 325.24 100.731ZM321.996 100.954C321.996 100.403 321.773 99.9574 321.328 99.6181C320.882 99.3001 320.077 99.141 318.91 99.141H313.217C312.411 99.5227 312.009 100.138 312.009 100.986C312.009 101.601 312.263 102.131 312.772 102.576C313.302 103.021 314.171 103.244 315.38 103.244H317.956C319.271 103.244 320.267 103.043 320.946 102.64C321.646 102.258 321.996 101.696 321.996 100.954ZM316.525 91.2533C317.649 91.2533 318.476 90.9882 319.006 90.4581C319.536 89.928 319.801 89.2177 319.801 88.3271V87.4684C319.801 86.5778 319.536 85.8675 319.006 85.3374C318.476 84.8073 317.649 84.5423 316.525 84.5423C315.401 84.5423 314.574 84.8073 314.044 85.3374C313.514 85.8675 313.249 86.5778 313.249 87.4684V88.3271C313.249 89.2177 313.514 89.928 314.044 90.4581C314.574 90.9882 315.401 91.2533 316.525 91.2533ZM347.765 82.5385H351.232V85.3374H351.423C351.91 84.3409 352.557 83.5669 353.363 83.0156C354.169 82.4431 355.176 82.1569 356.384 82.1569C358.314 82.1569 359.851 82.8778 360.996 84.3196C362.141 85.7615 362.714 87.9031 362.714 90.7444C362.714 93.5857 362.141 95.7272 360.996 97.1691C359.851 98.6109 358.314 99.3319 356.384 99.3319C355.176 99.3319 354.169 99.0562 353.363 98.5049C352.557 97.9324 351.91 97.1479 351.423 96.1513H351.232V105.311H347.765V82.5385ZM354.953 96.5012C356.268 96.5012 357.275 96.0983 357.975 95.2926C358.695 94.4868 359.056 93.416 359.056 92.0802V89.4085C359.056 88.0727 358.695 87.0019 357.975 86.1962C357.275 85.3904 356.268 84.9876 354.953 84.9876C354.444 84.9876 353.967 85.0512 353.522 85.1784C353.077 85.3056 352.684 85.4965 352.345 85.7509C352.006 86.0053 351.73 86.3234 351.518 86.7051C351.327 87.0655 351.232 87.5002 351.232 88.0091V93.4796C351.232 93.9885 351.327 94.4338 351.518 94.8155C351.73 95.1759 352.006 95.4834 352.345 95.7378C352.684 95.9923 353.077 96.1831 353.522 96.3103C353.967 96.4376 354.444 96.5012 354.953 96.5012ZM366.74 96.1513H371.098V85.3374H366.74V82.5385H374.565V86.8959H374.755C374.904 86.3234 375.116 85.7721 375.392 85.242C375.667 84.7119 376.017 84.256 376.441 83.8744C376.865 83.4715 377.385 83.1534 378 82.9202C378.615 82.6658 379.335 82.5385 380.162 82.5385H382.134V85.8463H378.89C377.618 85.8463 376.579 86.228 375.773 86.9913C374.967 87.7334 374.565 88.7406 374.565 90.0128V96.1513H380.512V98.9502H366.74V96.1513ZM392.936 99.3319C391.727 99.3319 390.635 99.1304 389.66 98.7276C388.706 98.3247 387.889 97.7522 387.211 97.0101C386.553 96.2679 386.045 95.3668 385.684 94.3066C385.324 93.2464 385.143 92.059 385.143 90.7444C385.143 89.4297 385.324 88.2423 385.684 87.1821C386.045 86.122 386.553 85.2208 387.211 84.4787C387.889 83.7365 388.706 83.164 389.66 82.7612C390.635 82.3583 391.727 82.1569 392.936 82.1569C394.144 82.1569 395.226 82.3583 396.18 82.7612C397.155 83.164 397.972 83.7365 398.629 84.4787C399.308 85.2208 399.827 86.122 400.187 87.1821C400.548 88.2423 400.728 89.4297 400.728 90.7444C400.728 92.059 400.548 93.2464 400.187 94.3066C399.827 95.3668 399.308 96.2679 398.629 97.0101C397.972 97.7522 397.155 98.3247 396.18 98.7276C395.226 99.1304 394.144 99.3319 392.936 99.3319ZM392.936 96.5966C394.208 96.5966 395.215 96.2149 395.957 95.4516C396.721 94.667 397.102 93.5114 397.102 91.9848V89.5039C397.102 87.9773 396.721 86.8323 395.957 86.069C395.215 85.2844 394.208 84.8921 392.936 84.8921C391.664 84.8921 390.646 85.2844 389.882 86.069C389.14 86.8323 388.769 87.9773 388.769 89.5039V91.9848C388.769 93.5114 389.14 94.667 389.882 95.4516C390.646 96.2149 391.664 96.5966 392.936 96.5966ZM412.993 98.9502C411.551 98.9502 410.491 98.5685 409.812 97.8052C409.134 97.0207 408.794 96.0135 408.794 94.7837V85.3374H403.737V82.5385H407.331C407.946 82.5385 408.381 82.4219 408.635 82.1887C408.89 81.9342 409.017 81.489 409.017 80.8528V76.7499H412.261V82.5385H419.258V85.3374H412.261V96.1513H419.258V98.9502H412.993ZM431.427 99.3319C430.176 99.3319 429.053 99.1304 428.056 98.7276C427.059 98.3247 426.222 97.7522 425.543 97.0101C424.865 96.2679 424.345 95.3774 423.985 94.3384C423.624 93.2782 423.444 92.0908 423.444 90.7762C423.444 89.4615 423.624 88.2741 423.985 87.214C424.367 86.1538 424.886 85.2526 425.543 84.5105C426.222 83.7471 427.038 83.164 427.992 82.7612C428.947 82.3583 430.007 82.1569 431.173 82.1569C432.318 82.1569 433.357 82.3583 434.29 82.7612C435.223 83.1428 436.018 83.6941 436.675 84.4151C437.333 85.136 437.831 85.9947 438.17 86.9913C438.531 87.9879 438.711 89.0905 438.711 90.2991V91.6031H426.943V92.1438C426.943 93.4372 427.346 94.4974 428.151 95.3244C428.957 96.1301 430.07 96.533 431.491 96.533C432.551 96.533 433.452 96.3103 434.195 95.8651C434.958 95.3986 435.573 94.7837 436.039 94.0203L438.202 95.9287C437.651 96.8828 436.803 97.6886 435.658 98.3459C434.534 99.0032 433.124 99.3319 431.427 99.3319ZM431.173 84.7967C430.558 84.7967 429.986 84.9027 429.455 85.1148C428.947 85.3268 428.501 85.6343 428.12 86.0371C427.759 86.4188 427.473 86.8747 427.261 87.4048C427.049 87.9349 426.943 88.518 426.943 89.1541V89.3767H435.18V89.0587C435.18 87.7652 434.809 86.7369 434.067 85.9735C433.346 85.189 432.382 84.7967 431.173 84.7967ZM450.753 99.3319C449.523 99.3319 448.42 99.1304 447.445 98.7276C446.491 98.3247 445.675 97.7522 444.996 97.0101C444.339 96.2679 443.83 95.3668 443.469 94.3066C443.13 93.2464 442.96 92.059 442.96 90.7444C442.96 89.4297 443.13 88.2423 443.469 87.1821C443.83 86.122 444.339 85.2208 444.996 84.4787C445.675 83.7365 446.491 83.164 447.445 82.7612C448.42 82.3583 449.512 82.1569 450.721 82.1569C452.417 82.1569 453.774 82.5173 454.792 83.2383C455.831 83.9592 456.605 84.8921 457.114 86.0371L454.41 87.5002C454.114 86.7369 453.658 86.1326 453.043 85.6873C452.449 85.242 451.675 85.0194 450.721 85.0194C449.406 85.0194 448.389 85.4222 447.668 86.228C446.947 87.0125 446.586 88.0621 446.586 89.3767V92.112C446.586 93.4054 446.947 94.455 447.668 95.2608C448.389 96.0665 449.428 96.4694 450.785 96.4694C451.802 96.4694 452.629 96.2361 453.265 95.7696C453.923 95.3032 454.442 94.667 454.824 93.8613L457.368 95.4198C456.838 96.5648 456.033 97.5083 454.951 98.2505C453.87 98.9714 452.47 99.3319 450.753 99.3319ZM470.205 98.9502C468.764 98.9502 467.703 98.5685 467.025 97.8052C466.346 97.0207 466.007 96.0135 466.007 94.7837V85.3374H460.95V82.5385H464.544C465.159 82.5385 465.594 82.4219 465.848 82.1887C466.102 81.9342 466.23 81.489 466.23 80.8528V76.7499H469.474V82.5385H476.471V85.3374H469.474V96.1513H476.471V98.9502H470.205ZM489.308 79.5488C488.418 79.5488 487.792 79.3686 487.432 79.0081C487.092 78.6477 486.923 78.2024 486.923 77.6723V77.0044C486.923 76.4743 487.092 76.029 487.432 75.6685C487.792 75.3081 488.407 75.1278 489.276 75.1278C490.167 75.1278 490.782 75.3081 491.121 75.6685C491.481 76.029 491.662 76.4743 491.662 77.0044V77.6723C491.662 78.2024 491.481 78.6477 491.121 79.0081C490.782 79.3686 490.177 79.5488 489.308 79.5488ZM481.961 96.1513H487.559V85.3374H481.961V82.5385H491.026V96.1513H496.273V98.9502H481.961V96.1513ZM507.361 99.3319C506.153 99.3319 505.061 99.1304 504.085 98.7276C503.131 98.3247 502.315 97.7522 501.636 97.0101C500.979 96.2679 500.47 95.3668 500.11 94.3066C499.749 93.2464 499.569 92.059 499.569 90.7444C499.569 89.4297 499.749 88.2423 500.11 87.1821C500.47 86.122 500.979 85.2208 501.636 84.4787C502.315 83.7365 503.131 83.164 504.085 82.7612C505.061 82.3583 506.153 82.1569 507.361 82.1569C508.57 82.1569 509.651 82.3583 510.605 82.7612C511.581 83.164 512.397 83.7365 513.054 84.4787C513.733 85.2208 514.252 86.122 514.613 87.1821C514.973 88.2423 515.154 89.4297 515.154 90.7444C515.154 92.059 514.973 93.2464 514.613 94.3066C514.252 95.3668 513.733 96.2679 513.054 97.0101C512.397 97.7522 511.581 98.3247 510.605 98.7276C509.651 99.1304 508.57 99.3319 507.361 99.3319ZM507.361 96.5966C508.633 96.5966 509.641 96.2149 510.383 95.4516C511.146 94.667 511.528 93.5114 511.528 91.9848V89.5039C511.528 87.9773 511.146 86.8323 510.383 86.069C509.641 85.2844 508.633 84.8921 507.361 84.8921C506.089 84.8921 505.071 85.2844 504.308 86.069C503.566 86.8323 503.195 87.9773 503.195 89.5039V91.9848C503.195 93.5114 503.566 94.667 504.308 95.4516C505.071 96.2149 506.089 96.5966 507.361 96.5966ZM519.562 98.9502V82.5385H523.029V85.3374H523.188C523.358 84.9134 523.57 84.5105 523.824 84.1288C524.1 83.7259 524.428 83.3867 524.81 83.111C525.192 82.8142 525.637 82.5809 526.146 82.4113C526.655 82.2417 527.248 82.1569 527.927 82.1569C529.581 82.1569 530.917 82.6976 531.934 83.779C532.952 84.8603 533.461 86.3976 533.461 88.3908V98.9502H529.994V88.8996C529.994 86.2916 528.86 84.9876 526.591 84.9876C526.146 84.9876 525.711 85.0512 525.287 85.1784C524.863 85.2844 524.481 85.454 524.142 85.6873C523.803 85.9205 523.527 86.2174 523.315 86.5778C523.124 86.9383 523.029 87.3518 523.029 87.8183V98.9502H519.562ZM545.535 99.3319C543.754 99.3319 542.216 99.0456 540.923 98.4731C539.651 97.9006 538.622 97.1373 537.838 96.1831L539.969 94.2748C540.69 95.0593 541.495 95.6636 542.386 96.0877C543.298 96.4906 544.369 96.692 545.598 96.692C546.722 96.692 547.623 96.5012 548.302 96.1195C549.002 95.7378 549.351 95.1441 549.351 94.3384C549.351 93.9991 549.288 93.7129 549.161 93.4796C549.033 93.2464 548.853 93.0556 548.62 92.9071C548.387 92.7587 548.111 92.6421 547.793 92.5573C547.496 92.4725 547.178 92.4089 546.839 92.3664L544.231 91.953C543.595 91.8682 542.948 91.7303 542.291 91.5395C541.633 91.3487 541.04 91.0836 540.509 90.7444C540.001 90.3839 539.577 89.928 539.237 89.3767C538.919 88.8254 538.76 88.1257 538.76 87.2776C538.76 85.6025 539.396 84.3302 540.669 83.4609C541.962 82.5915 543.658 82.1569 545.757 82.1569C547.284 82.1569 548.599 82.3901 549.701 82.8566C550.825 83.3019 551.758 83.9274 552.5 84.7331L550.56 86.7687C550.136 86.281 549.532 85.8357 548.747 85.4328C547.963 85.0088 546.924 84.7967 545.63 84.7967C543.319 84.7967 542.163 85.5283 542.163 86.9913C542.163 87.691 542.407 88.1787 542.895 88.4544C543.404 88.7088 543.998 88.8784 544.676 88.9633L547.284 89.3767C547.941 89.4827 548.588 89.6206 549.224 89.7902C549.882 89.9598 550.465 90.2249 550.974 90.5853C551.504 90.9246 551.928 91.3699 552.246 91.9212C552.585 92.4725 552.755 93.1722 552.755 94.0203C552.755 95.6742 552.108 96.9783 550.814 97.9324C549.542 98.8654 547.782 99.3319 545.535 99.3319Z" fill="#1F2123"/>
<path d="M196.173 114.961V172.581V282.852C196.173 291.518 203.198 298.543 211.864 298.543H256.582C265.248 298.543 272.273 305.568 272.273 314.233V340.123" stroke="#C2D5FF" stroke-width="2.35361" stroke-dasharray="3.14 3.14"/>
<path d="M198.824 181.222V185.929C198.824 194.595 205.849 201.62 214.515 201.62H530.683C539.349 201.62 546.374 208.645 546.374 217.31V228.294" stroke="#C2D5FF" stroke-width="2.35361" stroke-dasharray="3.14 3.14"/>
<rect x="61.8712" y="290.763" width="338.736" height="134.159" rx="13.0675" fill="white"/>
<rect x="61.8712" y="290.763" width="338.736" height="134.159" rx="13.0675" stroke="#D2D3D6" stroke-width="1.74233"/>
<path d="M102.122 320.672C103.173 322.416 103.622 324.456 103.4 326.48V327.641C103.398 328.864 103.719 330.066 104.329 331.126" stroke="#1F2123" stroke-width="2.3231" stroke-linecap="round" stroke-linejoin="round"/>
<path d="M89.4561 325.318C89.4561 324.086 89.9456 322.904 90.8169 322.033C91.6882 321.161 92.87 320.672 94.1023 320.672C95.3345 320.672 96.5163 321.161 97.3876 322.033C98.259 322.904 98.7485 324.086 98.7485 325.318V326.48C98.7485 328.993 99.5636 331.438 101.072 333.449" stroke="#1F2123" stroke-width="2.3231" stroke-linecap="round" stroke-linejoin="round"/>
<path d="M94.1045 325.32V327.643C94.1008 330.965 95.1142 334.208 97.0084 336.936" stroke="#1F2123" stroke-width="2.3231" stroke-linecap="round" stroke-linejoin="round"/>
<path d="M89.4561 329.965C89.7403 332.392 90.4479 334.751 91.5468 336.934" stroke="#1F2123" stroke-width="2.3231" stroke-linecap="round" stroke-linejoin="round"/>
<path d="M85.8603 334.613C85.0765 331.977 84.7235 329.231 84.8149 326.482V325.321C84.8104 323.687 85.2366 322.082 86.0503 320.666C86.8641 319.249 88.0367 318.073 89.4501 317.254C90.8635 316.436 92.4676 316.004 94.101 316.003C95.7343 316.002 97.339 316.431 98.7535 317.248" stroke="#1F2123" stroke-width="2.3231" stroke-linecap="round" stroke-linejoin="round"/>
<path d="M126.628 317.24H129.313V328.908C129.313 330.15 129.021 331.25 128.438 332.209C127.855 333.161 127.035 333.912 125.978 334.461C124.921 335.004 123.682 335.275 122.262 335.275C120.847 335.275 119.611 335.004 118.554 334.461C117.498 333.912 116.678 333.161 116.094 332.209C115.511 331.25 115.219 330.15 115.219 328.908V317.24H117.896V328.692C117.896 329.494 118.072 330.208 118.424 330.831C118.783 331.455 119.288 331.946 119.94 332.304C120.593 332.656 121.367 332.832 122.262 332.832C123.163 332.832 123.939 332.656 124.592 332.304C125.25 331.946 125.753 331.455 126.099 330.831C126.451 330.208 126.628 329.494 126.628 328.692V317.24ZM135.586 327.081V334.98H132.996V321.675H135.482V323.841H135.647C135.953 323.136 136.432 322.571 137.085 322.143C137.743 321.716 138.572 321.502 139.571 321.502C140.478 321.502 141.272 321.693 141.953 322.074C142.634 322.449 143.163 323.009 143.538 323.754C143.914 324.499 144.101 325.42 144.101 326.518V334.98H141.511V326.829C141.511 325.865 141.26 325.111 140.758 324.569C140.255 324.02 139.565 323.746 138.687 323.746C138.087 323.746 137.553 323.876 137.085 324.135C136.623 324.395 136.256 324.776 135.985 325.279C135.719 325.776 135.586 326.376 135.586 327.081ZM147.783 334.98V317.24H150.373V323.832H150.529C150.679 323.555 150.895 323.235 151.178 322.871C151.461 322.507 151.854 322.189 152.356 321.918C152.859 321.641 153.523 321.502 154.349 321.502C155.423 321.502 156.381 321.774 157.224 322.316C158.067 322.859 158.729 323.642 159.208 324.664C159.693 325.686 159.936 326.916 159.936 328.354C159.936 329.792 159.696 331.025 159.217 332.053C158.737 333.075 158.079 333.863 157.242 334.417C156.404 334.966 155.449 335.24 154.375 335.24C153.566 335.24 152.905 335.105 152.391 334.833C151.883 334.562 151.484 334.244 151.196 333.88C150.907 333.517 150.684 333.193 150.529 332.91H150.312V334.98H147.783ZM150.321 328.328C150.321 329.263 150.456 330.083 150.728 330.788C150.999 331.493 151.392 332.044 151.906 332.442C152.42 332.835 153.049 333.031 153.794 333.031C154.568 333.031 155.215 332.826 155.734 332.416C156.254 332.001 156.647 331.438 156.913 330.727C157.184 330.017 157.32 329.217 157.32 328.328C157.32 327.45 157.187 326.662 156.921 325.963C156.661 325.264 156.269 324.713 155.743 324.309C155.223 323.904 154.574 323.702 153.794 323.702C153.043 323.702 152.408 323.896 151.888 324.283C151.375 324.67 150.985 325.21 150.719 325.903C150.453 326.596 150.321 327.404 150.321 328.328ZM165.434 317.24V334.98H162.844V317.24H165.434ZM174.523 335.249C173.275 335.249 172.187 334.963 171.257 334.391C170.327 333.82 169.605 333.02 169.091 331.992C168.578 330.964 168.321 329.763 168.321 328.389C168.321 327.008 168.578 325.801 169.091 324.768C169.605 323.734 170.327 322.931 171.257 322.36C172.187 321.788 173.275 321.502 174.523 321.502C175.77 321.502 176.859 321.788 177.788 322.36C178.718 322.931 179.44 323.734 179.954 324.768C180.468 325.801 180.725 327.008 180.725 328.389C180.725 329.763 180.468 330.964 179.954 331.992C179.44 333.02 178.718 333.82 177.788 334.391C176.859 334.963 175.77 335.249 174.523 335.249ZM174.531 333.075C175.34 333.075 176.01 332.861 176.541 332.434C177.072 332.006 177.465 331.438 177.719 330.727C177.979 330.017 178.109 329.235 178.109 328.38C178.109 327.531 177.979 326.751 177.719 326.041C177.465 325.325 177.072 324.75 176.541 324.317C176.01 323.884 175.34 323.668 174.531 323.668C173.717 323.668 173.041 323.884 172.504 324.317C171.973 324.75 171.578 325.325 171.318 326.041C171.064 326.751 170.937 327.531 170.937 328.38C170.937 329.235 171.064 330.017 171.318 330.727C171.578 331.438 171.973 332.006 172.504 332.434C173.041 332.861 173.717 333.075 174.531 333.075ZM189.22 335.249C187.932 335.249 186.824 334.957 185.894 334.374C184.97 333.785 184.26 332.974 183.763 331.94C183.266 330.906 183.018 329.723 183.018 328.389C183.018 327.037 183.272 325.845 183.78 324.811C184.288 323.772 185.005 322.96 185.929 322.377C186.852 321.794 187.941 321.502 189.194 321.502C190.205 321.502 191.106 321.69 191.897 322.065C192.688 322.435 193.326 322.955 193.811 323.624C194.302 324.294 194.594 325.077 194.686 325.972H192.165C192.027 325.348 191.709 324.811 191.212 324.361C190.722 323.91 190.063 323.685 189.237 323.685C188.516 323.685 187.883 323.876 187.34 324.257C186.803 324.632 186.385 325.169 186.084 325.868C185.784 326.561 185.634 327.381 185.634 328.328C185.634 329.298 185.781 330.135 186.076 330.84C186.37 331.544 186.786 332.09 187.323 332.477C187.866 332.864 188.504 333.057 189.237 333.057C189.728 333.057 190.173 332.968 190.571 332.789C190.976 332.604 191.313 332.341 191.585 332.001C191.862 331.66 192.056 331.25 192.165 330.771H194.686C194.594 331.631 194.313 332.399 193.846 333.075C193.378 333.75 192.751 334.282 191.966 334.669C191.186 335.056 190.271 335.249 189.22 335.249ZM199.838 330.467L199.82 327.306H200.271L205.572 321.675H208.673L202.627 328.085H202.22L199.838 330.467ZM197.456 334.98V317.24H200.046V334.98H197.456ZM205.858 334.98L201.094 328.657L202.878 326.847L209.037 334.98H205.858ZM211.034 334.98V321.675H213.624V334.98H211.034ZM212.342 319.622C211.891 319.622 211.504 319.472 211.181 319.172C210.863 318.866 210.704 318.502 210.704 318.081C210.704 317.653 210.863 317.289 211.181 316.989C211.504 316.683 211.891 316.53 212.342 316.53C212.792 316.53 213.176 316.683 213.494 316.989C213.817 317.289 213.979 317.653 213.979 318.081C213.979 318.502 213.817 318.866 213.494 319.172C213.176 319.472 212.792 319.622 212.342 319.622ZM219.698 327.081V334.98H217.108V321.675H219.594V323.841H219.759C220.065 323.136 220.544 322.571 221.196 322.143C221.855 321.716 222.683 321.502 223.682 321.502C224.589 321.502 225.383 321.693 226.065 322.074C226.746 322.449 227.274 323.009 227.65 323.754C228.025 324.499 228.213 325.42 228.213 326.518V334.98H225.623V326.829C225.623 325.865 225.372 325.111 224.869 324.569C224.367 324.02 223.677 323.746 222.799 323.746C222.198 323.746 221.664 323.876 221.196 324.135C220.734 324.395 220.368 324.776 220.096 325.279C219.831 325.776 219.698 326.376 219.698 327.081ZM237.265 340.247C236.208 340.247 235.298 340.108 234.536 339.831C233.78 339.554 233.162 339.187 232.682 338.731C232.203 338.275 231.845 337.775 231.608 337.233L233.834 336.314C233.99 336.569 234.198 336.837 234.458 337.12C234.724 337.409 235.082 337.654 235.532 337.856C235.988 338.058 236.575 338.159 237.291 338.159C238.272 338.159 239.084 337.92 239.725 337.441C240.366 336.967 240.686 336.21 240.686 335.171V332.555H240.522C240.366 332.838 240.141 333.153 239.846 333.499C239.557 333.846 239.159 334.146 238.651 334.4C238.142 334.654 237.481 334.781 236.667 334.781C235.616 334.781 234.669 334.536 233.826 334.045C232.988 333.548 232.324 332.818 231.834 331.853C231.348 330.883 231.106 329.691 231.106 328.276C231.106 326.861 231.346 325.648 231.825 324.638C232.31 323.627 232.974 322.853 233.817 322.316C234.66 321.774 235.616 321.502 236.684 321.502C237.51 321.502 238.177 321.641 238.685 321.918C239.193 322.189 239.589 322.507 239.872 322.871C240.161 323.235 240.383 323.555 240.539 323.832H240.73V321.675H243.268V335.275C243.268 336.418 243.002 337.357 242.471 338.09C241.939 338.824 241.22 339.366 240.314 339.719C239.413 340.071 238.397 340.247 237.265 340.247ZM237.239 332.633C237.984 332.633 238.613 332.46 239.127 332.113C239.647 331.761 240.039 331.259 240.305 330.606C240.577 329.948 240.712 329.16 240.712 328.241C240.712 327.346 240.579 326.558 240.314 325.877C240.048 325.195 239.658 324.664 239.144 324.283C238.63 323.896 237.995 323.702 237.239 323.702C236.459 323.702 235.809 323.904 235.29 324.309C234.77 324.707 234.377 325.25 234.112 325.937C233.852 326.624 233.722 327.392 233.722 328.241C233.722 329.113 233.855 329.878 234.12 330.537C234.386 331.195 234.779 331.709 235.298 332.079C235.824 332.448 236.471 332.633 237.239 332.633Z" fill="#1F2123"/>
<rect x="81.0372" y="358.714" width="300.405" height="47.0428" rx="9.5828" fill="#F9F9FA"/>
<rect x="81.0372" y="358.714" width="300.405" height="47.0428" rx="9.5828" stroke="#E4E5E6" stroke-width="1.74233"/>
<rect x="86.2637" y="363.94" width="138.135" height="36.5889" rx="6.09815" fill="white"/>
<rect x="86.2637" y="363.94" width="138.135" height="36.5889" rx="6.09815" stroke="#E4E5E6" stroke-width="1.74233"/>
<path d="M105.924 390.235H101.002V375.03H106.08C107.57 375.03 108.85 375.334 109.919 375.943C110.988 376.547 111.807 377.415 112.376 378.549C112.95 379.677 113.238 381.031 113.238 382.61C113.238 384.194 112.948 385.555 112.369 386.694C111.795 387.832 110.963 388.708 109.874 389.322C108.785 389.931 107.469 390.235 105.924 390.235ZM103.296 388.231H105.798C106.956 388.231 107.919 388.013 108.686 387.577C109.453 387.137 110.028 386.501 110.409 385.669C110.79 384.833 110.98 383.813 110.98 382.61C110.98 381.417 110.79 380.405 110.409 379.573C110.033 378.742 109.471 378.111 108.723 377.68C107.976 377.25 107.048 377.034 105.939 377.034H103.296V388.231ZM119.231 390.488C118.508 390.488 117.855 390.354 117.271 390.087C116.687 389.815 116.224 389.421 115.883 388.906C115.546 388.392 115.378 387.76 115.378 387.013C115.378 386.37 115.501 385.84 115.749 385.424C115.996 385.008 116.331 384.679 116.751 384.437C117.172 384.194 117.642 384.011 118.162 383.887C118.682 383.763 119.211 383.669 119.751 383.605C120.434 383.526 120.988 383.462 121.414 383.412C121.84 383.358 122.149 383.271 122.342 383.152C122.535 383.033 122.632 382.84 122.632 382.573V382.521C122.632 381.873 122.448 381.37 122.082 381.014C121.721 380.658 121.181 380.479 120.464 380.479C119.716 380.479 119.127 380.645 118.697 380.977C118.271 381.303 117.976 381.667 117.813 382.068L115.727 381.593C115.974 380.9 116.335 380.341 116.811 379.915C117.291 379.484 117.843 379.173 118.466 378.98C119.09 378.782 119.746 378.683 120.434 378.683C120.889 378.683 121.372 378.737 121.882 378.846C122.396 378.95 122.877 379.143 123.322 379.425C123.773 379.707 124.141 380.111 124.428 380.635C124.715 381.155 124.859 381.831 124.859 382.662V390.235H122.691V388.676H122.602C122.458 388.963 122.243 389.245 121.956 389.523C121.669 389.8 121.3 390.03 120.85 390.213C120.399 390.396 119.86 390.488 119.231 390.488ZM119.714 388.706C120.327 388.706 120.852 388.585 121.288 388.342C121.728 388.1 122.062 387.783 122.29 387.392C122.523 386.996 122.639 386.573 122.639 386.122V384.652C122.56 384.731 122.406 384.805 122.179 384.875C121.956 384.939 121.701 384.996 121.414 385.045C121.127 385.09 120.847 385.132 120.575 385.172C120.303 385.206 120.075 385.236 119.892 385.261C119.461 385.315 119.068 385.407 118.711 385.536C118.36 385.664 118.078 385.85 117.865 386.092C117.657 386.33 117.553 386.647 117.553 387.043C117.553 387.592 117.756 388.008 118.162 388.29C118.568 388.567 119.085 388.706 119.714 388.706ZM133.139 378.831V380.613H126.91V378.831H133.139ZM128.581 376.099H130.801V386.887C130.801 387.317 130.865 387.642 130.994 387.859C131.122 388.072 131.288 388.218 131.491 388.298C131.699 388.372 131.924 388.409 132.167 388.409C132.345 388.409 132.501 388.397 132.635 388.372C132.768 388.347 132.872 388.327 132.946 388.312L133.347 390.146C133.219 390.196 133.035 390.245 132.798 390.295C132.56 390.349 132.263 390.379 131.907 390.384C131.323 390.394 130.778 390.29 130.273 390.072C129.769 389.854 129.36 389.518 129.048 389.062C128.737 388.607 128.581 388.035 128.581 387.347V376.099ZM138.914 390.488C138.191 390.488 137.538 390.354 136.954 390.087C136.37 389.815 135.907 389.421 135.565 388.906C135.229 388.392 135.061 387.76 135.061 387.013C135.061 386.37 135.184 385.84 135.432 385.424C135.679 385.008 136.013 384.679 136.434 384.437C136.855 384.194 137.325 384.011 137.845 383.887C138.365 383.763 138.894 383.669 139.434 383.605C140.117 383.526 140.671 383.462 141.097 383.412C141.522 383.358 141.832 383.271 142.025 383.152C142.218 383.033 142.314 382.84 142.314 382.573V382.521C142.314 381.873 142.131 381.37 141.765 381.014C141.404 380.658 140.864 380.479 140.146 380.479C139.399 380.479 138.81 380.645 138.379 380.977C137.954 381.303 137.659 381.667 137.496 382.068L135.409 381.593C135.657 380.9 136.018 380.341 136.493 379.915C136.974 379.484 137.526 379.173 138.149 378.98C138.773 378.782 139.429 378.683 140.117 378.683C140.572 378.683 141.055 378.737 141.565 378.846C142.079 378.95 142.559 379.143 143.005 379.425C143.455 379.707 143.824 380.111 144.111 380.635C144.398 381.155 144.542 381.831 144.542 382.662V390.235H142.374V388.676H142.285C142.141 388.963 141.926 389.245 141.639 389.523C141.352 389.8 140.983 390.03 140.533 390.213C140.082 390.396 139.543 390.488 138.914 390.488ZM139.397 388.706C140.01 388.706 140.535 388.585 140.971 388.342C141.411 388.1 141.745 387.783 141.973 387.392C142.206 386.996 142.322 386.573 142.322 386.122V384.652C142.243 384.731 142.089 384.805 141.862 384.875C141.639 384.939 141.384 384.996 141.097 385.045C140.81 385.09 140.53 385.132 140.258 385.172C139.986 385.206 139.758 385.236 139.575 385.261C139.144 385.315 138.751 385.407 138.394 385.536C138.043 385.664 137.761 385.85 137.548 386.092C137.34 386.33 137.236 386.647 137.236 387.043C137.236 387.592 137.439 388.008 137.845 388.29C138.251 388.567 138.768 388.706 139.397 388.706ZM152.303 390.466C151.199 390.466 150.248 390.216 149.451 389.716C148.659 389.211 148.051 388.515 147.625 387.629C147.199 386.743 146.986 385.729 146.986 384.585C146.986 383.427 147.204 382.405 147.64 381.519C148.075 380.628 148.689 379.932 149.481 379.432C150.273 378.932 151.206 378.683 152.28 378.683C153.146 378.683 153.919 378.843 154.597 379.165C155.275 379.482 155.822 379.927 156.238 380.502C156.658 381.076 156.908 381.746 156.987 382.514H154.827C154.708 381.979 154.436 381.519 154.01 381.133C153.589 380.747 153.025 380.554 152.317 380.554C151.699 380.554 151.157 380.717 150.691 381.044C150.231 381.365 149.872 381.826 149.615 382.425C149.357 383.019 149.229 383.721 149.229 384.533C149.229 385.365 149.355 386.082 149.607 386.686C149.86 387.29 150.216 387.758 150.677 388.09C151.142 388.421 151.689 388.587 152.317 388.587C152.738 388.587 153.119 388.51 153.461 388.357C153.807 388.199 154.097 387.973 154.329 387.681C154.567 387.389 154.733 387.038 154.827 386.627H156.987C156.908 387.364 156.668 388.023 156.267 388.602C155.866 389.181 155.329 389.636 154.656 389.968C153.988 390.3 153.203 390.466 152.303 390.466ZM164.277 390.466C163.153 390.466 162.185 390.225 161.374 389.745C160.567 389.26 159.943 388.58 159.503 387.704C159.067 386.822 158.849 385.79 158.849 384.607C158.849 383.439 159.067 382.41 159.503 381.519C159.943 380.628 160.557 379.932 161.344 379.432C162.136 378.932 163.062 378.683 164.121 378.683C164.764 378.683 165.388 378.789 165.992 379.002C166.596 379.215 167.138 379.549 167.618 380.004C168.098 380.46 168.477 381.051 168.754 381.779C169.031 382.501 169.17 383.38 169.17 384.414V385.201H160.104V383.538H166.994C166.994 382.954 166.875 382.437 166.638 381.987C166.4 381.531 166.066 381.172 165.635 380.91C165.21 380.648 164.71 380.516 164.136 380.516C163.512 380.516 162.967 380.67 162.502 380.977C162.042 381.279 161.685 381.675 161.433 382.165C161.186 382.65 161.062 383.177 161.062 383.746V385.045C161.062 385.808 161.195 386.456 161.463 386.991C161.735 387.525 162.114 387.934 162.599 388.216C163.084 388.493 163.651 388.632 164.299 388.632C164.72 388.632 165.103 388.572 165.45 388.453C165.796 388.33 166.096 388.147 166.348 387.904C166.601 387.661 166.794 387.362 166.927 387.006L169.028 387.384C168.86 388.003 168.558 388.545 168.123 389.01C167.692 389.471 167.15 389.829 166.497 390.087C165.848 390.339 165.108 390.466 164.277 390.466ZM173.853 383.464V390.235H171.633V378.831H173.764V380.687H173.905C174.167 380.083 174.578 379.598 175.137 379.232C175.701 378.866 176.412 378.683 177.268 378.683C178.045 378.683 178.726 378.846 179.31 379.173C179.894 379.494 180.347 379.974 180.669 380.613C180.99 381.251 181.151 382.041 181.151 382.981V390.235H178.931V383.249C178.931 382.422 178.716 381.776 178.285 381.311C177.855 380.841 177.263 380.606 176.511 380.606C175.996 380.606 175.538 380.717 175.137 380.94C174.741 381.162 174.427 381.489 174.194 381.92C173.967 382.345 173.853 382.86 173.853 383.464ZM189.452 378.831V380.613H183.223V378.831H189.452ZM184.893 376.099H187.113V386.887C187.113 387.317 187.178 387.642 187.306 387.859C187.435 388.072 187.601 388.218 187.804 388.298C188.012 388.372 188.237 388.409 188.479 388.409C188.658 388.409 188.813 388.397 188.947 388.372C189.081 388.347 189.185 388.327 189.259 388.312L189.66 390.146C189.531 390.196 189.348 390.245 189.11 390.295C188.873 390.349 188.576 390.379 188.219 390.384C187.635 390.394 187.091 390.29 186.586 390.072C186.081 389.854 185.673 389.518 185.361 389.062C185.049 388.607 184.893 388.035 184.893 387.347V376.099ZM196.7 390.466C195.577 390.466 194.609 390.225 193.797 389.745C192.99 389.26 192.367 388.58 191.926 387.704C191.491 386.822 191.273 385.79 191.273 384.607C191.273 383.439 191.491 382.41 191.926 381.519C192.367 380.628 192.981 379.932 193.768 379.432C194.56 378.932 195.485 378.683 196.544 378.683C197.188 378.683 197.812 378.789 198.415 379.002C199.019 379.215 199.561 379.549 200.041 380.004C200.522 380.46 200.9 381.051 201.177 381.779C201.455 382.501 201.593 383.38 201.593 384.414V385.201H192.528V383.538H199.418C199.418 382.954 199.299 382.437 199.061 381.987C198.824 381.531 198.49 381.172 198.059 380.91C197.633 380.648 197.133 380.516 196.559 380.516C195.936 380.516 195.391 380.67 194.926 380.977C194.465 381.279 194.109 381.675 193.857 382.165C193.609 382.65 193.485 383.177 193.485 383.746V385.045C193.485 385.808 193.619 386.456 193.886 386.991C194.159 387.525 194.537 387.934 195.022 388.216C195.507 388.493 196.074 388.632 196.723 388.632C197.143 388.632 197.527 388.572 197.873 388.453C198.22 388.33 198.519 388.147 198.772 387.904C199.024 387.661 199.217 387.362 199.351 387.006L201.452 387.384C201.284 388.003 200.982 388.545 200.546 389.01C200.116 389.471 199.574 389.829 198.92 390.087C198.272 390.339 197.532 390.466 196.7 390.466ZM204.056 390.235V378.831H206.202V380.643H206.321C206.529 380.029 206.895 379.546 207.42 379.195C207.949 378.838 208.548 378.66 209.216 378.66C209.355 378.66 209.518 378.665 209.707 378.675C209.9 378.685 210.051 378.697 210.159 378.712V380.836C210.07 380.811 209.912 380.784 209.684 380.754C209.457 380.719 209.229 380.702 209.001 380.702C208.476 380.702 208.009 380.813 207.598 381.036C207.192 381.254 206.87 381.558 206.633 381.949C206.395 382.335 206.276 382.776 206.276 383.271V390.235H204.056Z" fill="#1F2123"/>
<rect x="240.951" y="361.266" width="137.877" height="41.9386" rx="10.454" fill="#F9F9FA"/>
<path d="M256.56 390.235V375.03H261.98C263.158 375.03 264.136 375.233 264.913 375.638C265.695 376.044 266.279 376.606 266.665 377.324C267.051 378.037 267.244 378.861 267.244 379.796C267.244 380.727 267.049 381.546 266.658 382.254C266.272 382.957 265.688 383.504 264.906 383.895C264.128 384.286 263.151 384.481 261.973 384.481H257.867V382.506H261.765C262.507 382.506 263.111 382.4 263.577 382.187C264.047 381.974 264.391 381.665 264.609 381.259C264.826 380.853 264.935 380.365 264.935 379.796C264.935 379.222 264.824 378.725 264.601 378.304C264.383 377.883 264.039 377.561 263.569 377.339C263.104 377.111 262.493 376.997 261.735 376.997H258.854V390.235H256.56ZM264.067 383.375L267.823 390.235H265.21L261.527 383.375H264.067ZM274.63 390.466C273.506 390.466 272.539 390.225 271.727 389.745C270.92 389.26 270.296 388.58 269.856 387.704C269.42 386.822 269.203 385.79 269.203 384.607C269.203 383.439 269.42 382.41 269.856 381.519C270.296 380.628 270.91 379.932 271.697 379.432C272.489 378.932 273.415 378.683 274.474 378.683C275.118 378.683 275.741 378.789 276.345 379.002C276.949 379.215 277.491 379.549 277.971 380.004C278.451 380.46 278.83 381.051 279.107 381.779C279.384 382.501 279.523 383.38 279.523 384.414V385.201H270.457V383.538H277.347C277.347 382.954 277.229 382.437 276.991 381.987C276.754 381.531 276.419 381.172 275.989 380.91C275.563 380.648 275.063 380.516 274.489 380.516C273.865 380.516 273.321 380.67 272.856 380.977C272.395 381.279 272.039 381.675 271.786 382.165C271.539 382.65 271.415 383.177 271.415 383.746V385.045C271.415 385.808 271.549 386.456 271.816 386.991C272.088 387.525 272.467 387.934 272.952 388.216C273.437 388.493 274.004 388.632 274.652 388.632C275.073 388.632 275.457 388.572 275.803 388.453C276.15 388.33 276.449 388.147 276.702 387.904C276.954 387.661 277.147 387.362 277.281 387.006L279.382 387.384C279.214 388.003 278.912 388.545 278.476 389.01C278.045 389.471 277.503 389.829 276.85 390.087C276.202 390.339 275.462 390.466 274.63 390.466ZM290.532 381.615L288.52 381.972C288.436 381.714 288.302 381.469 288.119 381.237C287.941 381.004 287.698 380.813 287.391 380.665C287.084 380.516 286.701 380.442 286.24 380.442C285.612 380.442 285.087 380.583 284.666 380.865C284.246 381.143 284.035 381.501 284.035 381.942C284.035 382.323 284.176 382.63 284.458 382.863C284.741 383.095 285.196 383.286 285.825 383.434L287.636 383.85C288.686 384.093 289.468 384.466 289.982 384.971C290.497 385.476 290.755 386.132 290.755 386.939C290.755 387.622 290.557 388.231 290.161 388.765C289.77 389.295 289.223 389.711 288.52 390.013C287.822 390.315 287.013 390.466 286.092 390.466C284.815 390.466 283.773 390.193 282.966 389.649C282.159 389.099 281.664 388.32 281.481 387.31L283.627 386.983C283.761 387.543 284.035 387.966 284.451 388.253C284.867 388.535 285.409 388.676 286.077 388.676C286.805 388.676 287.386 388.525 287.822 388.223C288.257 387.916 288.475 387.543 288.475 387.102C288.475 386.746 288.342 386.446 288.074 386.204C287.812 385.961 287.409 385.778 286.864 385.654L284.934 385.231C283.869 384.989 283.082 384.602 282.573 384.073C282.068 383.543 281.815 382.873 281.815 382.061C281.815 381.388 282.003 380.799 282.38 380.294C282.756 379.789 283.275 379.395 283.939 379.113C284.602 378.826 285.362 378.683 286.218 378.683C287.451 378.683 288.421 378.95 289.129 379.484C289.836 380.014 290.304 380.724 290.532 381.615ZM293.195 390.235V378.831H295.415V390.235H293.195ZM294.317 377.071C293.931 377.071 293.599 376.943 293.322 376.685C293.049 376.423 292.913 376.111 292.913 375.75C292.913 375.383 293.049 375.072 293.322 374.814C293.599 374.552 293.931 374.421 294.317 374.421C294.703 374.421 295.032 374.552 295.304 374.814C295.581 375.072 295.72 375.383 295.72 375.75C295.72 376.111 295.581 376.423 295.304 376.685C295.032 376.943 294.703 377.071 294.317 377.071ZM302.671 390.458C301.751 390.458 300.929 390.223 300.206 389.753C299.489 389.278 298.924 388.602 298.513 387.726C298.108 386.845 297.905 385.788 297.905 384.555C297.905 383.323 298.11 382.269 298.521 381.393C298.937 380.516 299.506 379.846 300.229 379.38C300.951 378.915 301.77 378.683 302.686 378.683C303.394 378.683 303.963 378.801 304.394 379.039C304.829 379.272 305.166 379.544 305.404 379.856C305.646 380.167 305.834 380.442 305.968 380.68H306.101V375.03H308.321V390.235H306.153V388.461H305.968C305.834 388.703 305.641 388.981 305.389 389.292C305.141 389.604 304.8 389.876 304.364 390.109C303.928 390.342 303.364 390.458 302.671 390.458ZM303.161 388.565C303.8 388.565 304.339 388.397 304.78 388.06C305.225 387.718 305.562 387.246 305.79 386.642C306.022 386.038 306.139 385.335 306.139 384.533C306.139 383.741 306.025 383.048 305.797 382.454C305.569 381.86 305.235 381.397 304.795 381.066C304.354 380.734 303.81 380.568 303.161 380.568C302.493 380.568 301.936 380.742 301.491 381.088C301.045 381.435 300.709 381.907 300.481 382.506C300.258 383.105 300.147 383.781 300.147 384.533C300.147 385.295 300.261 385.981 300.488 386.59C300.716 387.199 301.053 387.681 301.498 388.038C301.949 388.389 302.503 388.565 303.161 388.565ZM316.405 390.466C315.281 390.466 314.314 390.225 313.502 389.745C312.695 389.26 312.072 388.58 311.631 387.704C311.195 386.822 310.978 385.79 310.978 384.607C310.978 383.439 311.195 382.41 311.631 381.519C312.072 380.628 312.685 379.932 313.472 379.432C314.264 378.932 315.19 378.683 316.249 378.683C316.893 378.683 317.516 378.789 318.12 379.002C318.724 379.215 319.266 379.549 319.746 380.004C320.226 380.46 320.605 381.051 320.882 381.779C321.159 382.501 321.298 383.38 321.298 384.414V385.201H312.232V383.538H319.123C319.123 382.954 319.004 382.437 318.766 381.987C318.529 381.531 318.194 381.172 317.764 380.91C317.338 380.648 316.838 380.516 316.264 380.516C315.64 380.516 315.096 380.67 314.631 380.977C314.17 381.279 313.814 381.675 313.561 382.165C313.314 382.65 313.19 383.177 313.19 383.746V385.045C313.19 385.808 313.324 386.456 313.591 386.991C313.863 387.525 314.242 387.934 314.727 388.216C315.212 388.493 315.779 388.632 316.427 388.632C316.848 388.632 317.232 388.572 317.578 388.453C317.925 388.33 318.224 388.147 318.477 387.904C318.729 387.661 318.922 387.362 319.056 387.006L321.157 387.384C320.989 388.003 320.687 388.545 320.251 389.01C319.82 389.471 319.278 389.829 318.625 390.087C317.977 390.339 317.237 390.466 316.405 390.466ZM325.981 383.464V390.235H323.761V378.831H325.892V380.687H326.033C326.295 380.083 326.706 379.598 327.266 379.232C327.83 378.866 328.54 378.683 329.396 378.683C330.174 378.683 330.854 378.846 331.438 379.173C332.022 379.494 332.475 379.974 332.797 380.613C333.119 381.251 333.28 382.041 333.28 382.981V390.235H331.06V383.249C331.06 382.422 330.844 381.776 330.414 381.311C329.983 380.841 329.391 380.606 328.639 380.606C328.124 380.606 327.666 380.717 327.266 380.94C326.87 381.162 326.555 381.489 326.323 381.92C326.095 382.345 325.981 382.86 325.981 383.464ZM341.58 378.831V380.613H335.351V378.831H341.58ZM337.022 376.099H339.242V386.887C339.242 387.317 339.306 387.642 339.435 387.859C339.563 388.072 339.729 388.218 339.932 388.298C340.14 388.372 340.365 388.409 340.608 388.409C340.786 388.409 340.942 388.397 341.075 388.372C341.209 388.347 341.313 388.327 341.387 388.312L341.788 390.146C341.66 390.196 341.476 390.245 341.239 390.295C341.001 390.349 340.704 390.379 340.348 390.384C339.764 390.394 339.219 390.29 338.714 390.072C338.21 389.854 337.801 389.518 337.489 389.062C337.177 388.607 337.022 388.035 337.022 387.347V376.099ZM344.036 390.235V378.831H346.256V390.235H344.036ZM345.157 377.071C344.771 377.071 344.439 376.943 344.162 376.685C343.89 376.423 343.754 376.111 343.754 375.75C343.754 375.383 343.89 375.072 344.162 374.814C344.439 374.552 344.771 374.421 345.157 374.421C345.543 374.421 345.872 374.552 346.145 374.814C346.422 375.072 346.56 375.383 346.56 375.75C346.56 376.111 346.422 376.423 346.145 376.685C345.872 376.943 345.543 377.071 345.157 377.071ZM352.561 390.488C351.839 390.488 351.185 390.354 350.601 390.087C350.017 389.815 349.554 389.421 349.213 388.906C348.876 388.392 348.708 387.76 348.708 387.013C348.708 386.37 348.832 385.84 349.079 385.424C349.327 385.008 349.661 384.679 350.082 384.437C350.502 384.194 350.973 384.011 351.492 383.887C352.012 383.763 352.542 383.669 353.081 383.605C353.764 383.526 354.319 383.462 354.744 383.412C355.17 383.358 355.479 383.271 355.672 383.152C355.865 383.033 355.962 382.84 355.962 382.573V382.521C355.962 381.873 355.779 381.37 355.413 381.014C355.051 380.658 354.512 380.479 353.794 380.479C353.047 380.479 352.458 380.645 352.027 380.977C351.601 381.303 351.307 381.667 351.143 382.068L349.057 381.593C349.304 380.9 349.666 380.341 350.141 379.915C350.621 379.484 351.173 379.173 351.797 378.98C352.42 378.782 353.076 378.683 353.764 378.683C354.22 378.683 354.702 378.737 355.212 378.846C355.727 378.95 356.207 379.143 356.652 379.425C357.103 379.707 357.472 380.111 357.759 380.635C358.046 381.155 358.189 381.831 358.189 382.662V390.235H356.021V388.676H355.932C355.789 388.963 355.573 389.245 355.286 389.523C354.999 389.8 354.63 390.03 354.18 390.213C353.73 390.396 353.19 390.488 352.561 390.488ZM353.044 388.706C353.658 388.706 354.183 388.585 354.618 388.342C355.059 388.1 355.393 387.783 355.62 387.392C355.853 386.996 355.969 386.573 355.969 386.122V384.652C355.89 384.731 355.737 384.805 355.509 384.875C355.286 384.939 355.031 384.996 354.744 385.045C354.457 385.09 354.178 385.132 353.905 385.172C353.633 385.206 353.405 385.236 353.222 385.261C352.792 385.315 352.398 385.407 352.042 385.536C351.69 385.664 351.408 385.85 351.195 386.092C350.987 386.33 350.883 386.647 350.883 387.043C350.883 387.592 351.086 388.008 351.492 388.29C351.898 388.567 352.415 388.706 353.044 388.706ZM363.366 375.03V390.235H361.146V375.03H363.366Z" fill="#6D7178"/>
<rect x="467.305" y="158.152" width="258.951" height="144.023" rx="11.7681" fill="white"/>
<rect x="467.305" y="158.152" width="258.951" height="144.023" rx="11.7681" stroke="#D2D3D6" stroke-width="1.56907"/>
<path d="M486.919 190.317C486.919 191.553 487.162 192.777 487.636 193.92C488.109 195.062 488.802 196.1 489.676 196.974C490.551 197.848 491.588 198.541 492.731 199.015C493.873 199.488 495.097 199.731 496.333 199.731C497.57 199.731 498.794 199.488 499.936 199.015C501.078 198.541 502.116 197.848 502.99 196.974C503.865 196.1 504.558 195.062 505.031 193.92C505.504 192.777 505.748 191.553 505.748 190.317C505.748 187.82 504.756 185.425 502.99 183.66C501.225 181.894 498.83 180.902 496.333 180.902C493.837 180.902 491.442 181.894 489.676 183.66C487.911 185.425 486.919 187.82 486.919 190.317Z" stroke="#1F2123" stroke-width="2.0921" stroke-linecap="round" stroke-linejoin="round"/>
<path d="M487.545 187.18H505.119" stroke="#1F2123" stroke-width="2.0921" stroke-linecap="round" stroke-linejoin="round"/>
<path d="M487.545 193.455H505.119" stroke="#1F2123" stroke-width="2.0921" stroke-linecap="round" stroke-linejoin="round"/>
<path d="M495.813 180.902C494.05 183.726 493.116 186.988 493.116 190.317C493.116 193.645 494.05 196.907 495.813 199.731" stroke="#1F2123" stroke-width="2.0921" stroke-linecap="round" stroke-linejoin="round"/>
<path d="M496.855 180.902C498.618 183.726 499.552 186.988 499.552 190.317C499.552 193.645 498.618 196.907 496.855 199.731" stroke="#1F2123" stroke-width="2.0921" stroke-linecap="round" stroke-linejoin="round"/>
<path d="M515.348 198.317V182.341H521.043C522.285 182.341 523.315 182.568 524.132 183.02C524.948 183.472 525.559 184.091 525.965 184.877C526.37 185.657 526.573 186.536 526.573 187.513C526.573 188.496 526.368 189.38 525.957 190.166C525.551 190.946 524.938 191.564 524.116 192.022C523.3 192.475 522.272 192.701 521.035 192.701H517.119V190.657H520.816C521.602 190.657 522.239 190.522 522.727 190.251C523.216 189.976 523.575 189.601 523.804 189.128C524.033 188.655 524.147 188.117 524.147 187.513C524.147 186.91 524.033 186.374 523.804 185.906C523.575 185.438 523.214 185.072 522.72 184.806C522.231 184.541 521.586 184.409 520.785 184.409H517.758V198.317H515.348ZM529.212 198.317V186.335H531.466V188.239H531.591C531.81 187.594 532.194 187.087 532.746 186.718C533.302 186.343 533.931 186.156 534.633 186.156C534.779 186.156 534.951 186.161 535.148 186.172C535.351 186.182 535.51 186.195 535.624 186.211V188.442C535.531 188.416 535.364 188.387 535.125 188.356C534.886 188.319 534.646 188.301 534.407 188.301C533.856 188.301 533.365 188.418 532.933 188.652C532.506 188.881 532.168 189.201 531.919 189.612C531.669 190.017 531.544 190.48 531.544 191V198.317H529.212ZM542.261 198.559C541.137 198.559 540.157 198.302 539.32 197.787C538.482 197.272 537.832 196.552 537.37 195.626C536.907 194.7 536.675 193.619 536.675 192.381C536.675 191.138 536.907 190.051 537.37 189.12C537.832 188.189 538.482 187.466 539.32 186.952C540.157 186.437 541.137 186.179 542.261 186.179C543.384 186.179 544.364 186.437 545.202 186.952C546.039 187.466 546.689 188.189 547.152 189.12C547.615 190.051 547.846 191.138 547.846 192.381C547.846 193.619 547.615 194.7 547.152 195.626C546.689 196.552 546.039 197.272 545.202 197.787C544.364 198.302 543.384 198.559 542.261 198.559ZM542.268 196.601C542.997 196.601 543.6 196.409 544.078 196.024C544.557 195.639 544.91 195.127 545.139 194.487C545.373 193.848 545.49 193.143 545.49 192.373C545.49 191.609 545.373 190.907 545.139 190.267C544.91 189.622 544.557 189.105 544.078 188.715C543.6 188.325 542.997 188.13 542.268 188.13C541.535 188.13 540.927 188.325 540.443 188.715C539.965 189.105 539.608 189.622 539.374 190.267C539.146 190.907 539.031 191.609 539.031 192.373C539.031 193.143 539.146 193.848 539.374 194.487C539.608 195.127 539.965 195.639 540.443 196.024C540.927 196.409 541.535 196.601 542.268 196.601ZM551.819 186.335L554.463 191L557.131 186.335H559.682L555.945 192.326L559.713 198.317H557.162L554.463 193.84L551.772 198.317H549.213L552.942 192.326L549.26 186.335H551.819ZM563.551 202.811C563.203 202.811 562.885 202.782 562.599 202.725C562.313 202.673 562.1 202.616 561.96 202.553L562.521 200.642C562.948 200.756 563.327 200.806 563.66 200.79C563.993 200.775 564.287 200.65 564.542 200.416C564.802 200.182 565.031 199.8 565.228 199.269L565.517 198.473L561.133 186.335H563.629L566.663 195.634H566.788L569.823 186.335H572.327L567.389 199.917C567.16 200.541 566.869 201.068 566.515 201.5C566.162 201.937 565.74 202.265 565.252 202.483C564.763 202.701 564.196 202.811 563.551 202.811Z" fill="#1F2123"/>
<path d="M488.349 245.356L486.416 244.026L489.429 239.959L484.734 238.377L485.437 236.218L490.107 237.8V232.779H492.517V237.8L497.186 236.218L497.889 238.377L493.195 239.959L496.207 244.026L494.274 245.356L491.312 241.289L488.349 245.356ZM503.403 245.356L501.47 244.026L504.482 239.959L499.788 238.377L500.491 236.218L505.16 237.8V232.779H507.57V237.8L512.24 236.218L512.943 238.377L508.248 239.959L511.261 244.026L509.328 245.356L506.365 241.289L503.403 245.356ZM518.456 245.356L516.523 244.026L519.536 239.959L514.841 238.377L515.544 236.218L520.213 237.8V232.779H522.623V237.8L527.293 236.218L527.996 238.377L523.301 239.959L526.314 244.026L524.381 245.356L521.418 241.289L518.456 245.356ZM536.472 246.813C535.668 246.813 535.099 246.645 534.765 246.31C534.447 245.976 534.288 245.566 534.288 245.08V244.428C534.288 243.942 534.447 243.532 534.765 243.197C535.099 242.863 535.668 242.695 536.472 242.695C537.275 242.695 537.836 242.863 538.154 243.197C538.488 243.532 538.656 243.942 538.656 244.428V245.08C538.656 245.566 538.488 245.976 538.154 246.31C537.836 246.645 537.275 246.813 536.472 246.813ZM548.563 245.356L546.63 244.026L549.642 239.959L544.947 238.377L545.65 236.218L550.32 237.8V232.779H552.73V237.8L557.4 236.218L558.103 238.377L553.408 239.959L556.421 244.026L554.487 245.356L551.525 241.289L548.563 245.356ZM563.616 245.356L561.683 244.026L564.695 239.959L560.001 238.377L560.704 236.218L565.373 237.8V232.779H567.783V237.8L572.453 236.218L573.156 238.377L568.461 239.959L571.474 244.026L569.541 245.356L566.578 241.289L563.616 245.356ZM578.669 245.356L576.736 244.026L579.749 239.959L575.054 238.377L575.757 236.218L580.427 237.8V232.779H582.837V237.8L587.506 236.218L588.209 238.377L583.514 239.959L586.527 244.026L584.594 245.356L581.632 241.289L578.669 245.356ZM596.685 246.813C595.882 246.813 595.312 246.645 594.978 246.31C594.66 245.976 594.501 245.566 594.501 245.08V244.428C594.501 243.942 594.66 243.532 594.978 243.197C595.312 242.863 595.882 242.695 596.685 242.695C597.488 242.695 598.049 242.863 598.367 243.197C598.702 243.532 598.869 243.942 598.869 244.428V245.08C598.869 245.566 598.702 245.976 598.367 246.31C598.049 246.645 597.488 246.813 596.685 246.813ZM608.776 245.356L606.843 244.026L609.855 239.959L605.161 238.377L605.864 236.218L610.533 237.8V232.779H612.943V237.8L617.613 236.218L618.316 238.377L613.621 239.959L616.634 244.026L614.701 245.356L611.738 241.289L608.776 245.356ZM623.829 245.356L621.896 244.026L624.909 239.959L620.214 238.377L620.917 236.218L625.586 237.8V232.779H627.997V237.8L632.666 236.218L633.369 238.377L628.674 239.959L631.687 244.026L629.754 245.356L626.792 241.289L623.829 245.356ZM638.882 245.356L636.949 244.026L639.962 239.959L635.267 238.377L635.97 236.218L640.64 237.8V232.779H643.05V237.8L647.719 236.218L648.422 238.377L643.728 239.959L646.74 244.026L644.807 245.356L641.845 241.289L638.882 245.356ZM656.898 246.813C656.095 246.813 655.526 246.645 655.191 246.31C654.873 245.976 654.714 245.566 654.714 245.08V244.428C654.714 243.942 654.873 243.532 655.191 243.197C655.526 242.863 656.095 242.695 656.898 242.695C657.701 242.695 658.262 242.863 658.58 243.197C658.915 243.532 659.082 243.942 659.082 244.428V245.08C659.082 245.566 658.915 245.976 658.58 246.31C658.262 246.645 657.701 246.813 656.898 246.813ZM666.629 246.562V244.227H671.55V231.097H671.349L667.282 235.44L665.55 233.883L670.018 229.038H674.361V244.227H678.604V246.562H666.629ZM687.005 246.863C685.9 246.863 684.938 246.662 684.118 246.26C683.314 245.842 682.645 245.248 682.109 244.478C681.59 243.708 681.205 242.762 680.954 241.641C680.703 240.52 680.578 239.239 680.578 237.8C680.578 236.377 680.703 235.105 680.954 233.984C681.205 232.846 681.59 231.892 682.109 231.122C682.645 230.352 683.314 229.766 684.118 229.364C684.938 228.946 685.9 228.737 687.005 228.737C688.109 228.737 689.063 228.946 689.867 229.364C690.687 229.766 691.356 230.352 691.875 231.122C692.411 231.892 692.804 232.846 693.055 233.984C693.306 235.105 693.432 236.377 693.432 237.8C693.432 239.239 693.306 240.52 693.055 241.641C692.804 242.762 692.411 243.708 691.875 244.478C691.356 245.248 690.687 245.842 689.867 246.26C689.063 246.662 688.109 246.863 687.005 246.863ZM687.005 244.553C688.277 244.553 689.18 244.084 689.716 243.147C690.268 242.193 690.545 240.913 690.545 239.306V236.294C690.545 234.687 690.268 233.415 689.716 232.478C689.18 231.524 688.277 231.047 687.005 231.047C686.369 231.047 685.825 231.172 685.373 231.423C684.921 231.657 684.553 232.009 684.268 232.478C683.984 232.929 683.774 233.482 683.641 234.134C683.523 234.77 683.465 235.49 683.465 236.294V239.306C683.465 240.109 683.523 240.838 683.641 241.49C683.774 242.126 683.984 242.679 684.268 243.147C684.553 243.599 684.921 243.951 685.373 244.202C685.825 244.436 686.369 244.553 687.005 244.553ZM687.005 239.281C686.419 239.281 686.009 239.164 685.775 238.93C685.557 238.695 685.448 238.411 685.448 238.076V237.524C685.448 237.189 685.557 236.904 685.775 236.67C686.009 236.436 686.419 236.319 687.005 236.319C687.59 236.319 687.992 236.436 688.21 236.67C688.444 236.904 688.561 237.189 688.561 237.524V238.076C688.561 238.411 688.444 238.695 688.21 238.93C687.992 239.164 687.59 239.281 687.005 239.281ZM708.209 246.562H696.108V243.875L701.832 238.879C702.736 238.076 703.43 237.314 703.916 236.595C704.418 235.875 704.669 235.114 704.669 234.31V234.034C704.669 233.114 704.418 232.411 703.916 231.925C703.414 231.423 702.686 231.172 701.732 231.172C700.761 231.172 700.008 231.431 699.472 231.95C698.953 232.469 698.577 233.13 698.342 233.934L695.882 233.005C696.049 232.452 696.292 231.925 696.61 231.423C696.928 230.904 697.33 230.444 697.815 230.042C698.317 229.641 698.903 229.323 699.573 229.088C700.259 228.854 701.045 228.737 701.932 228.737C702.836 228.737 703.64 228.871 704.343 229.139C705.062 229.39 705.665 229.741 706.15 230.193C706.635 230.645 707.004 231.189 707.255 231.825C707.506 232.444 707.631 233.13 707.631 233.883C707.631 234.586 707.523 235.239 707.305 235.842C707.104 236.427 706.811 236.996 706.426 237.549C706.058 238.084 705.615 238.603 705.096 239.105C704.577 239.607 704.008 240.109 703.389 240.612L699.146 244.177H708.209V246.562Z" fill="#1F2123"/>
<path d="M494.552 269.332C494.423 268.926 494.249 268.563 494.031 268.242C493.817 267.916 493.56 267.64 493.262 267.413C492.963 267.181 492.622 267.005 492.239 266.884C491.86 266.764 491.443 266.704 490.988 266.704C490.217 266.704 489.522 266.902 488.902 267.299C488.282 267.696 487.792 268.277 487.431 269.044C487.074 269.806 486.896 270.74 486.896 271.846C486.896 272.956 487.077 273.894 487.438 274.661C487.799 275.427 488.294 276.009 488.922 276.406C489.551 276.803 490.266 277.001 491.068 277.001C491.813 277.001 492.461 276.849 493.014 276.546C493.571 276.243 494.002 275.815 494.305 275.262C494.612 274.705 494.766 274.05 494.766 273.297L495.301 273.397H491.383V271.692H496.765V273.25C496.765 274.4 496.52 275.398 496.03 276.245C495.544 277.088 494.871 277.739 494.01 278.198C493.155 278.657 492.174 278.886 491.068 278.886C489.829 278.886 488.742 278.601 487.805 278.031C486.874 277.46 486.147 276.651 485.626 275.603C485.104 274.551 484.843 273.303 484.843 271.859C484.843 270.767 484.995 269.786 485.298 268.917C485.601 268.048 486.027 267.31 486.575 266.704C487.128 266.093 487.777 265.627 488.521 265.306C489.27 264.981 490.088 264.818 490.975 264.818C491.715 264.818 492.403 264.927 493.041 265.146C493.683 265.364 494.253 265.674 494.753 266.075C495.256 266.476 495.673 266.953 496.003 267.506C496.333 268.054 496.556 268.663 496.672 269.332H494.552ZM503.654 278.906C502.642 278.906 501.771 278.69 501.04 278.258C500.313 277.821 499.751 277.208 499.355 276.419C498.962 275.626 498.766 274.696 498.766 273.631C498.766 272.579 498.962 271.652 499.355 270.849C499.751 270.047 500.304 269.421 501.013 268.971C501.726 268.52 502.56 268.295 503.513 268.295C504.093 268.295 504.655 268.391 505.198 268.583C505.742 268.774 506.23 269.075 506.663 269.485C507.095 269.895 507.436 270.428 507.686 271.083C507.935 271.734 508.06 272.525 508.06 273.457V274.166H499.896V272.668H506.101C506.101 272.142 505.994 271.676 505.78 271.271C505.566 270.861 505.265 270.537 504.878 270.301C504.494 270.065 504.044 269.947 503.527 269.947C502.965 269.947 502.475 270.085 502.056 270.361C501.641 270.633 501.32 270.99 501.093 271.431C500.87 271.868 500.759 272.343 500.759 272.855V274.025C500.759 274.712 500.879 275.296 501.12 275.777C501.365 276.259 501.706 276.626 502.143 276.881C502.58 277.13 503.09 277.255 503.674 277.255C504.053 277.255 504.398 277.201 504.71 277.094C505.022 276.983 505.292 276.818 505.519 276.6C505.747 276.381 505.921 276.112 506.041 275.791L507.933 276.132C507.782 276.689 507.51 277.177 507.117 277.596C506.73 278.011 506.242 278.334 505.653 278.565C505.069 278.793 504.403 278.906 503.654 278.906ZM510.278 278.699V268.429H512.211V270.06H512.318C512.505 269.508 512.835 269.073 513.307 268.757C513.784 268.436 514.324 268.275 514.925 268.275C515.05 268.275 515.197 268.28 515.367 268.289C515.541 268.297 515.677 268.309 515.775 268.322V270.234C515.694 270.212 515.552 270.187 515.347 270.161C515.142 270.129 514.937 270.114 514.732 270.114C514.259 270.114 513.838 270.214 513.468 270.415C513.102 270.611 512.813 270.885 512.599 271.237C512.385 271.585 512.278 271.982 512.278 272.427V278.699H510.278ZM517.505 278.699V268.429H519.424V270.101H519.551C519.765 269.534 520.115 269.093 520.601 268.777C521.086 268.456 521.668 268.295 522.346 268.295C523.032 268.295 523.607 268.456 524.071 268.777C524.539 269.098 524.884 269.539 525.107 270.101H525.214C525.459 269.552 525.849 269.115 526.384 268.79C526.919 268.46 527.557 268.295 528.297 268.295C529.228 268.295 529.988 268.587 530.577 269.171C531.17 269.755 531.466 270.635 531.466 271.812V278.699H529.467V271.999C529.467 271.304 529.277 270.8 528.898 270.488C528.519 270.176 528.067 270.02 527.541 270.02C526.89 270.02 526.384 270.221 526.023 270.622C525.662 271.019 525.482 271.529 525.482 272.153V278.699H523.489V271.872C523.489 271.315 523.315 270.867 522.968 270.528C522.62 270.19 522.167 270.02 521.61 270.02C521.231 270.02 520.881 270.121 520.56 270.321C520.244 270.517 519.988 270.791 519.792 271.144C519.6 271.496 519.504 271.904 519.504 272.367V278.699H517.505ZM537.134 278.927C536.484 278.927 535.895 278.806 535.369 278.565C534.843 278.32 534.426 277.966 534.119 277.502C533.816 277.039 533.664 276.47 533.664 275.797C533.664 275.218 533.776 274.741 533.998 274.366C534.221 273.992 534.522 273.696 534.901 273.477C535.28 273.259 535.703 273.094 536.172 272.982C536.64 272.871 537.117 272.786 537.602 272.728C538.218 272.657 538.717 272.599 539.1 272.554C539.483 272.505 539.762 272.427 539.936 272.32C540.11 272.213 540.197 272.04 540.197 271.799V271.752C540.197 271.168 540.032 270.716 539.702 270.395C539.377 270.074 538.891 269.913 538.244 269.913C537.571 269.913 537.041 270.063 536.653 270.361C536.27 270.655 536.004 270.983 535.857 271.344L533.978 270.916C534.201 270.292 534.527 269.788 534.955 269.405C535.387 269.017 535.884 268.736 536.446 268.563C537.007 268.384 537.598 268.295 538.218 268.295C538.628 268.295 539.062 268.344 539.521 268.442C539.985 268.536 540.417 268.71 540.819 268.964C541.224 269.218 541.556 269.581 541.815 270.054C542.073 270.522 542.203 271.13 542.203 271.879V278.699H540.25V277.295H540.17C540.041 277.554 539.847 277.808 539.588 278.057C539.33 278.307 538.998 278.514 538.592 278.679C538.186 278.844 537.7 278.927 537.134 278.927ZM537.569 277.322C538.122 277.322 538.594 277.213 538.986 276.994C539.383 276.776 539.684 276.49 539.889 276.138C540.099 275.782 540.203 275.401 540.203 274.995V273.671C540.132 273.742 539.994 273.809 539.789 273.872C539.588 273.93 539.359 273.981 539.1 274.025C538.842 274.066 538.59 274.103 538.345 274.139C538.099 274.17 537.894 274.197 537.729 274.219C537.342 274.268 536.987 274.351 536.666 274.467C536.35 274.583 536.096 274.75 535.904 274.968C535.717 275.182 535.623 275.467 535.623 275.824C535.623 276.319 535.806 276.693 536.172 276.947C536.537 277.197 537.003 277.322 537.569 277.322ZM546.865 272.601V278.699H544.865V268.429H546.784V270.101H546.912C547.148 269.557 547.518 269.12 548.021 268.79C548.53 268.46 549.169 268.295 549.94 268.295C550.64 268.295 551.253 268.442 551.779 268.736C552.305 269.026 552.713 269.459 553.003 270.034C553.293 270.609 553.437 271.32 553.437 272.167V278.699H551.438V272.407C551.438 271.663 551.244 271.081 550.856 270.662C550.469 270.239 549.936 270.027 549.258 270.027C548.795 270.027 548.383 270.127 548.021 270.328C547.665 270.528 547.382 270.823 547.172 271.21C546.967 271.594 546.865 272.057 546.865 272.601ZM557.015 282.551C556.716 282.551 556.444 282.526 556.199 282.477C555.954 282.432 555.771 282.383 555.651 282.33L556.132 280.692C556.498 280.79 556.823 280.832 557.108 280.819C557.394 280.805 557.645 280.698 557.864 280.498C558.087 280.297 558.283 279.97 558.452 279.515L558.7 278.833L554.942 268.429H557.082L559.683 276.399H559.79L562.391 268.429H564.537L560.304 280.07C560.108 280.605 559.859 281.057 559.555 281.427C559.252 281.802 558.891 282.083 558.472 282.27C558.053 282.457 557.567 282.551 557.015 282.551Z" fill="#6D7178"/>
</g>
<defs>
<clipPath id="clip0_3623_8913">
<rect width="640" height="480" fill="white"/>
</clipPath>
</defs>
</svg>