<svg width="640" height="480" viewBox="0 0 640 480" fill="none" xmlns="http://www.w3.org/2000/svg">
<g clip-path="url(#clip0_3623_8907)">
<rect width="640" height="480" fill="#F4F4F5"/>
<rect x="98.207" y="164.103" width="692.828" height="152.276" rx="16.5517" fill="white"/>
<rect x="98.207" y="164.103" width="692.828" height="152.276" rx="16.5517" stroke="#D2D3D6" stroke-width="2.2069"/>
<path d="M125.795 209.345C125.795 211.084 126.137 212.806 126.803 214.412C127.468 216.019 128.444 217.478 129.673 218.708C130.903 219.938 132.363 220.913 133.969 221.578C135.576 222.244 137.297 222.586 139.036 222.586C140.775 222.586 142.497 222.244 144.104 221.578C145.71 220.913 147.17 219.938 148.399 218.708C149.629 217.478 150.604 216.019 151.27 214.412C151.935 212.806 152.278 211.084 152.278 209.345C152.278 205.833 150.883 202.465 148.399 199.982C145.916 197.499 142.548 196.104 139.036 196.104C135.524 196.104 132.156 197.499 129.673 199.982C127.19 202.465 125.795 205.833 125.795 209.345Z" stroke="#1F2123" stroke-width="2.94253" stroke-linecap="round" stroke-linejoin="round"/>
<path d="M126.674 204.931H151.391" stroke="#1F2123" stroke-width="2.94253" stroke-linecap="round" stroke-linejoin="round"/>
<path d="M126.674 213.759H151.391" stroke="#1F2123" stroke-width="2.94253" stroke-linecap="round" stroke-linejoin="round"/>
<path d="M138.302 196.104C135.824 200.075 134.51 204.663 134.51 209.345C134.51 214.027 135.824 218.614 138.302 222.586" stroke="black" stroke-width="2.94253" stroke-linecap="round" stroke-linejoin="round"/>
<path d="M139.769 196.104C142.247 200.075 143.561 204.663 143.561 209.345C143.561 214.027 142.247 218.614 139.769 222.586" stroke="black" stroke-width="2.94253" stroke-linecap="round" stroke-linejoin="round"/>
<path d="M167.676 219.845H164.078L172.164 197.375H176.081L184.167 219.845H180.568L174.216 201.456H174.04L167.676 219.845ZM168.28 211.045H179.954V213.898H168.28V211.045ZM187.412 219.845V197.375H195.421C197.169 197.375 198.618 197.693 199.766 198.329C200.914 198.965 201.774 199.836 202.344 200.94C202.915 202.038 203.2 203.274 203.2 204.649C203.2 206.031 202.911 207.275 202.333 208.379C201.763 209.476 200.9 210.347 199.744 210.99C198.596 211.627 197.151 211.945 195.41 211.945H189.902V209.07H195.103C196.208 209.07 197.104 208.88 197.791 208.5C198.479 208.112 198.983 207.586 199.305 206.92C199.627 206.254 199.788 205.497 199.788 204.649C199.788 203.8 199.627 203.047 199.305 202.389C198.983 201.73 198.475 201.215 197.78 200.842C197.093 200.469 196.186 200.282 195.059 200.282H190.802V219.845H187.412ZM210.565 197.375V219.845H207.175V197.375H210.565ZM236.044 207.106L233.071 207.633C232.947 207.253 232.749 206.891 232.478 206.547C232.215 206.203 231.857 205.922 231.403 205.702C230.95 205.483 230.383 205.373 229.703 205.373C228.774 205.373 227.998 205.581 227.377 205.998C226.755 206.408 226.444 206.938 226.444 207.589C226.444 208.152 226.652 208.606 227.069 208.95C227.486 209.294 228.159 209.575 229.088 209.795L231.765 210.409C233.316 210.767 234.472 211.32 235.232 212.066C235.993 212.812 236.373 213.781 236.373 214.973C236.373 215.983 236.081 216.882 235.496 217.672C234.918 218.455 234.11 219.069 233.071 219.516C232.04 219.962 230.844 220.185 229.483 220.185C227.596 220.185 226.056 219.783 224.864 218.978C223.672 218.166 222.94 217.014 222.67 215.522L225.841 215.039C226.038 215.866 226.444 216.491 227.058 216.915C227.673 217.332 228.474 217.541 229.461 217.541C230.536 217.541 231.396 217.318 232.04 216.871C232.683 216.418 233.005 215.866 233.005 215.215C233.005 214.688 232.808 214.245 232.413 213.887C232.025 213.529 231.429 213.258 230.624 213.075L227.772 212.45C226.199 212.091 225.036 211.521 224.283 210.738C223.536 209.955 223.163 208.964 223.163 207.765C223.163 206.77 223.441 205.9 223.997 205.154C224.553 204.407 225.321 203.826 226.301 203.409C227.281 202.985 228.404 202.773 229.67 202.773C231.491 202.773 232.925 203.168 233.971 203.958C235.017 204.74 235.708 205.79 236.044 207.106ZM247.079 220.185C245.448 220.185 244.044 219.815 242.866 219.077C241.696 218.331 240.796 217.303 240.167 215.994C239.538 214.684 239.223 213.185 239.223 211.495C239.223 209.784 239.545 208.273 240.189 206.964C240.833 205.647 241.74 204.62 242.91 203.881C244.08 203.142 245.459 202.773 247.046 202.773C248.326 202.773 249.467 203.01 250.469 203.486C251.472 203.954 252.28 204.612 252.894 205.461C253.516 206.309 253.885 207.3 254.002 208.434H250.81C250.634 207.644 250.232 206.964 249.603 206.393C248.981 205.823 248.147 205.538 247.101 205.538C246.187 205.538 245.386 205.779 244.698 206.262C244.018 206.737 243.488 207.417 243.107 208.302C242.727 209.18 242.537 210.219 242.537 211.418C242.537 212.647 242.723 213.708 243.096 214.6C243.469 215.493 243.996 216.184 244.676 216.674C245.364 217.164 246.172 217.409 247.101 217.409C247.723 217.409 248.286 217.296 248.791 217.069C249.303 216.835 249.731 216.502 250.074 216.07C250.426 215.639 250.671 215.12 250.81 214.512H254.002C253.885 215.602 253.531 216.575 252.938 217.431C252.346 218.287 251.552 218.96 250.557 219.45C249.57 219.94 248.41 220.185 247.079 220.185ZM257.511 219.845V202.992H260.681V205.669H260.857C261.164 204.762 261.705 204.049 262.481 203.53C263.263 203.003 264.149 202.74 265.136 202.74C265.341 202.74 265.582 202.747 265.86 202.762C266.145 202.776 266.368 202.795 266.529 202.817V205.954C266.398 205.918 266.164 205.878 265.827 205.834C265.491 205.783 265.154 205.757 264.818 205.757C264.042 205.757 263.351 205.922 262.744 206.251C262.144 206.573 261.669 207.022 261.318 207.6C260.967 208.171 260.791 208.822 260.791 209.553V219.845H257.511ZM274.122 220.218C273.054 220.218 272.088 220.02 271.225 219.625C270.362 219.223 269.678 218.641 269.174 217.881C268.676 217.12 268.428 216.187 268.428 215.083C268.428 214.132 268.61 213.349 268.976 212.735C269.342 212.121 269.836 211.634 270.457 211.276C271.079 210.917 271.774 210.647 272.542 210.464C273.31 210.281 274.093 210.142 274.89 210.047C275.899 209.93 276.719 209.835 277.348 209.762C277.977 209.681 278.434 209.553 278.719 209.378C279.004 209.202 279.147 208.917 279.147 208.522V208.445C279.147 207.487 278.876 206.744 278.335 206.218C277.801 205.691 277.004 205.428 275.943 205.428C274.839 205.428 273.968 205.673 273.332 206.163C272.703 206.646 272.268 207.183 272.026 207.776L268.943 207.074C269.309 206.05 269.843 205.223 270.545 204.594C271.255 203.958 272.07 203.497 272.992 203.211C273.913 202.919 274.883 202.773 275.899 202.773C276.572 202.773 277.285 202.853 278.039 203.014C278.8 203.168 279.509 203.453 280.167 203.87C280.833 204.287 281.378 204.883 281.802 205.658C282.226 206.426 282.438 207.425 282.438 208.654V219.845H279.235V217.541H279.103C278.891 217.965 278.573 218.382 278.149 218.791C277.724 219.201 277.179 219.541 276.514 219.812C275.848 220.082 275.051 220.218 274.122 220.218ZM274.835 217.585C275.742 217.585 276.517 217.405 277.161 217.047C277.812 216.689 278.306 216.22 278.642 215.643C278.986 215.057 279.158 214.432 279.158 213.766V211.594C279.041 211.711 278.814 211.821 278.478 211.923C278.149 212.018 277.772 212.102 277.348 212.175C276.923 212.241 276.51 212.303 276.108 212.362C275.705 212.413 275.369 212.457 275.098 212.494C274.462 212.574 273.88 212.709 273.354 212.9C272.835 213.09 272.418 213.364 272.103 213.722C271.796 214.074 271.642 214.542 271.642 215.127C271.642 215.939 271.942 216.553 272.542 216.97C273.142 217.38 273.906 217.585 274.835 217.585ZM286.808 226.164V202.992H290.012V205.724H290.286C290.476 205.373 290.751 204.967 291.109 204.506C291.467 204.045 291.965 203.643 292.601 203.299C293.237 202.948 294.079 202.773 295.125 202.773C296.485 202.773 297.699 203.116 298.767 203.804C299.835 204.492 300.673 205.483 301.28 206.777C301.894 208.072 302.201 209.63 302.201 211.451C302.201 213.273 301.898 214.834 301.291 216.136C300.684 217.431 299.85 218.429 298.789 219.132C297.729 219.826 296.518 220.174 295.158 220.174C294.134 220.174 293.296 220.002 292.645 219.658C292.001 219.314 291.497 218.912 291.131 218.451C290.765 217.99 290.484 217.581 290.286 217.222H290.089V226.164H286.808ZM290.023 211.418C290.023 212.603 290.195 213.642 290.538 214.534C290.882 215.427 291.38 216.125 292.031 216.63C292.682 217.127 293.479 217.376 294.422 217.376C295.403 217.376 296.222 217.116 296.88 216.597C297.538 216.07 298.036 215.357 298.372 214.458C298.716 213.558 298.888 212.545 298.888 211.418C298.888 210.307 298.72 209.308 298.383 208.423C298.054 207.538 297.557 206.84 296.891 206.327C296.233 205.815 295.41 205.559 294.422 205.559C293.472 205.559 292.667 205.804 292.009 206.295C291.358 206.785 290.864 207.469 290.527 208.346C290.191 209.224 290.023 210.248 290.023 211.418ZM305.877 219.845V202.992H309.158V219.845H305.877ZM307.534 200.392C306.963 200.392 306.473 200.202 306.063 199.821C305.661 199.434 305.46 198.973 305.46 198.439C305.46 197.897 305.661 197.437 306.063 197.056C306.473 196.669 306.963 196.475 307.534 196.475C308.104 196.475 308.591 196.669 308.993 197.056C309.403 197.437 309.607 197.897 309.607 198.439C309.607 198.973 309.403 199.434 308.993 199.821C308.591 200.202 308.104 200.392 307.534 200.392ZM316.851 209.838V219.845H313.571V202.992H316.72V205.735H316.928C317.316 204.843 317.923 204.126 318.75 203.585C319.583 203.043 320.633 202.773 321.899 202.773C323.047 202.773 324.053 203.014 324.916 203.497C325.779 203.972 326.448 204.682 326.924 205.625C327.399 206.569 327.637 207.736 327.637 209.125V219.845H324.356V209.52C324.356 208.299 324.038 207.344 323.402 206.657C322.765 205.962 321.891 205.614 320.779 205.614C320.019 205.614 319.342 205.779 318.75 206.108C318.164 206.437 317.7 206.92 317.356 207.556C317.02 208.185 316.851 208.946 316.851 209.838ZM339.102 226.516C337.764 226.516 336.612 226.34 335.646 225.989C334.688 225.638 333.905 225.173 333.298 224.596C332.691 224.018 332.238 223.385 331.938 222.697L334.757 221.534C334.955 221.856 335.218 222.196 335.547 222.555C335.884 222.92 336.337 223.231 336.908 223.487C337.486 223.743 338.228 223.871 339.135 223.871C340.379 223.871 341.406 223.568 342.218 222.961C343.03 222.361 343.436 221.403 343.436 220.086V216.773H343.228C343.03 217.131 342.745 217.53 342.372 217.969C342.006 218.407 341.501 218.788 340.858 219.11C340.214 219.431 339.377 219.592 338.345 219.592C337.014 219.592 335.814 219.282 334.746 218.66C333.686 218.031 332.845 217.105 332.223 215.884C331.609 214.655 331.301 213.145 331.301 211.353C331.301 209.561 331.605 208.024 332.212 206.744C332.826 205.464 333.668 204.484 334.736 203.804C335.803 203.116 337.014 202.773 338.367 202.773C339.413 202.773 340.258 202.948 340.902 203.299C341.545 203.643 342.046 204.045 342.405 204.506C342.771 204.967 343.052 205.373 343.25 205.724H343.491V202.992H346.706V220.218C346.706 221.666 346.369 222.855 345.696 223.784C345.023 224.713 344.113 225.4 342.964 225.846C341.823 226.292 340.536 226.516 339.102 226.516ZM339.069 216.871C340.013 216.871 340.81 216.652 341.461 216.213C342.12 215.767 342.617 215.131 342.953 214.304C343.297 213.47 343.469 212.472 343.469 211.309C343.469 210.175 343.301 209.176 342.964 208.313C342.628 207.45 342.134 206.777 341.483 206.295C340.832 205.804 340.028 205.559 339.069 205.559C338.082 205.559 337.259 205.815 336.601 206.327C335.942 206.832 335.445 207.52 335.109 208.39C334.779 209.261 334.615 210.233 334.615 211.309C334.615 212.413 334.783 213.382 335.12 214.216C335.456 215.05 335.953 215.701 336.612 216.169C337.277 216.637 338.097 216.871 339.069 216.871Z" fill="#1F2123"/>
<rect x="121.379" y="249.069" width="646.483" height="44.1379" rx="8.82759" fill="#F4F4F5"/>
<path d="M136.845 259.334H139.731V267.597H139.864C140.005 267.244 140.181 266.908 140.393 266.591C140.623 266.255 140.897 265.973 141.214 265.743C141.532 265.496 141.903 265.302 142.327 265.161C142.75 265.019 143.245 264.949 143.81 264.949C145.187 264.949 146.299 265.399 147.146 266.299C147.994 267.2 148.418 268.48 148.418 270.139V278.932H145.531V270.563C145.531 268.392 144.586 267.306 142.697 267.306C142.327 267.306 141.965 267.359 141.612 267.465C141.258 267.553 140.941 267.694 140.658 267.888C140.376 268.083 140.146 268.33 139.97 268.63C139.811 268.93 139.731 269.274 139.731 269.663V278.932H136.845V259.334ZM159.265 278.932C158.065 278.932 157.182 278.614 156.617 277.978C156.052 277.325 155.769 276.486 155.769 275.462V267.597H151.559V265.267H154.551C155.063 265.267 155.425 265.169 155.637 264.975C155.849 264.763 155.955 264.393 155.955 263.863V260.447H158.656V265.267H164.482V267.597H158.656V276.601H164.482V278.932H159.265ZM175.145 278.932C173.944 278.932 173.061 278.614 172.496 277.978C171.931 277.325 171.649 276.486 171.649 275.462V267.597H167.438V265.267H170.431C170.943 265.267 171.305 265.169 171.516 264.975C171.728 264.763 171.834 264.393 171.834 263.863V260.447H174.535V265.267H180.362V267.597H174.535V276.601H180.362V278.932H175.145ZM184.35 265.267H187.237V267.597H187.396C187.802 266.767 188.34 266.123 189.011 265.664C189.682 265.187 190.521 264.949 191.527 264.949C193.134 264.949 194.414 265.549 195.367 266.75C196.32 267.95 196.797 269.733 196.797 272.099C196.797 274.465 196.32 276.248 195.367 277.449C194.414 278.649 193.134 279.249 191.527 279.249C190.521 279.249 189.682 279.02 189.011 278.561C188.34 278.084 187.802 277.431 187.396 276.601H187.237V284.228H184.35V265.267ZM190.335 276.892C191.43 276.892 192.269 276.557 192.851 275.886C193.451 275.215 193.752 274.324 193.752 273.211V270.987C193.752 269.875 193.451 268.983 192.851 268.312C192.269 267.641 191.43 267.306 190.335 267.306C189.912 267.306 189.514 267.359 189.144 267.465C188.773 267.571 188.446 267.729 188.164 267.941C187.881 268.153 187.652 268.418 187.475 268.736C187.316 269.036 187.237 269.398 187.237 269.822V274.377C187.237 274.8 187.316 275.171 187.475 275.489C187.652 275.789 187.881 276.045 188.164 276.257C188.446 276.469 188.773 276.628 189.144 276.734C189.514 276.84 189.912 276.892 190.335 276.892ZM206.109 279.249C204.626 279.249 203.346 279.011 202.269 278.534C201.209 278.058 200.353 277.422 199.7 276.628L201.474 275.039C202.074 275.692 202.745 276.195 203.487 276.548C204.246 276.884 205.138 277.051 206.162 277.051C207.097 277.051 207.848 276.892 208.413 276.575C208.995 276.257 209.287 275.763 209.287 275.092C209.287 274.809 209.234 274.571 209.128 274.377C209.022 274.182 208.872 274.024 208.677 273.9C208.483 273.776 208.254 273.679 207.989 273.609C207.742 273.538 207.477 273.485 207.194 273.45L205.023 273.105C204.493 273.035 203.955 272.92 203.407 272.761C202.86 272.602 202.366 272.382 201.924 272.099C201.501 271.799 201.148 271.419 200.865 270.96C200.6 270.501 200.468 269.919 200.468 269.212C200.468 267.818 200.997 266.758 202.057 266.035C203.134 265.311 204.546 264.949 206.294 264.949C207.565 264.949 208.66 265.143 209.578 265.531C210.514 265.902 211.29 266.423 211.908 267.094L210.293 268.789C209.94 268.383 209.437 268.012 208.783 267.676C208.13 267.323 207.265 267.147 206.188 267.147C204.264 267.147 203.301 267.756 203.301 268.974C203.301 269.557 203.505 269.963 203.911 270.192C204.334 270.404 204.829 270.545 205.394 270.616L207.565 270.96C208.113 271.049 208.651 271.163 209.181 271.305C209.728 271.446 210.213 271.667 210.637 271.967C211.079 272.249 211.432 272.62 211.697 273.079C211.979 273.538 212.12 274.121 212.12 274.827C212.12 276.204 211.582 277.29 210.505 278.084C209.445 278.861 207.98 279.249 206.109 279.249ZM221.961 279.196C221.114 279.196 220.514 279.02 220.161 278.667C219.825 278.314 219.657 277.881 219.657 277.369V276.681C219.657 276.169 219.825 275.736 220.161 275.383C220.514 275.03 221.114 274.853 221.961 274.853C222.809 274.853 223.4 275.03 223.736 275.383C224.089 275.736 224.265 276.169 224.265 276.681V277.369C224.265 277.881 224.089 278.314 223.736 278.667C223.4 279.02 222.809 279.196 221.961 279.196ZM221.961 269.345C221.114 269.345 220.514 269.168 220.161 268.815C219.825 268.462 219.657 268.03 219.657 267.518V266.829C219.657 266.317 219.825 265.884 220.161 265.531C220.514 265.178 221.114 265.002 221.961 265.002C222.809 265.002 223.4 265.178 223.736 265.531C224.089 265.884 224.265 266.317 224.265 266.829V267.518C224.265 268.03 224.089 268.462 223.736 268.815C223.4 269.168 222.809 269.345 221.961 269.345ZM232.094 282.586L241.019 258.805H243.588L234.663 282.586H232.094ZM247.973 282.586L256.898 258.805H259.467L250.542 282.586H247.973ZM274.684 278.932C273.854 278.932 273.228 278.72 272.804 278.296C272.398 277.872 272.151 277.316 272.062 276.628H271.93C271.665 277.457 271.18 278.102 270.473 278.561C269.785 279.02 268.902 279.249 267.825 279.249C266.43 279.249 265.318 278.888 264.488 278.164C263.658 277.422 263.244 276.407 263.244 275.118C263.244 273.794 263.729 272.788 264.7 272.099C265.689 271.393 267.198 271.04 269.229 271.04H271.85V269.98C271.85 268.127 270.871 267.2 268.911 267.2C268.028 267.2 267.313 267.376 266.766 267.729C266.218 268.065 265.759 268.515 265.389 269.08L263.667 267.676C264.056 266.935 264.709 266.299 265.627 265.77C266.545 265.222 267.728 264.949 269.176 264.949C270.906 264.949 272.265 265.364 273.254 266.193C274.243 267.023 274.737 268.224 274.737 269.795V276.654H276.458V278.932H274.684ZM268.646 277.131C269.582 277.131 270.35 276.919 270.95 276.495C271.55 276.072 271.85 275.524 271.85 274.853V272.867H269.282C267.198 272.867 266.157 273.494 266.157 274.747V275.277C266.157 275.895 266.377 276.363 266.819 276.681C267.26 276.981 267.869 277.131 268.646 277.131ZM279.626 265.267H282.513V267.597H282.672C283.078 266.767 283.616 266.123 284.287 265.664C284.958 265.187 285.797 264.949 286.803 264.949C288.409 264.949 289.689 265.549 290.643 266.75C291.596 267.95 292.073 269.733 292.073 272.099C292.073 274.465 291.596 276.248 290.643 277.449C289.689 278.649 288.409 279.249 286.803 279.249C285.797 279.249 284.958 279.02 284.287 278.561C283.616 278.084 283.078 277.431 282.672 276.601H282.513V284.228H279.626V265.267ZM285.611 276.892C286.706 276.892 287.544 276.557 288.127 275.886C288.727 275.215 289.027 274.324 289.027 273.211V270.987C289.027 269.875 288.727 268.983 288.127 268.312C287.544 267.641 286.706 267.306 285.611 267.306C285.187 267.306 284.79 267.359 284.419 267.465C284.049 267.571 283.722 267.729 283.44 267.941C283.157 268.153 282.928 268.418 282.751 268.736C282.592 269.036 282.513 269.398 282.513 269.822V274.377C282.513 274.8 282.592 275.171 282.751 275.489C282.928 275.789 283.157 276.045 283.44 276.257C283.722 276.469 284.049 276.628 284.419 276.734C284.79 276.84 285.187 276.892 285.611 276.892ZM302.205 262.777C301.464 262.777 300.943 262.627 300.643 262.327C300.361 262.027 300.219 261.656 300.219 261.215V260.659C300.219 260.217 300.361 259.846 300.643 259.546C300.943 259.246 301.455 259.096 302.179 259.096C302.921 259.096 303.433 259.246 303.715 259.546C304.015 259.846 304.165 260.217 304.165 260.659V261.215C304.165 261.656 304.015 262.027 303.715 262.327C303.433 262.627 302.929 262.777 302.205 262.777ZM296.088 276.601H300.749V267.597H296.088V265.267H303.636V276.601H308.005V278.932H296.088V276.601ZM313.238 272.311V269.424H321.236V272.311H313.238ZM331.342 278.932L326.443 265.267H329.436L331.316 271.04L333.09 276.522H333.249L335.023 271.04L336.904 265.267H339.79L334.891 278.932H331.342ZM355.484 278.932H342.72V276.098L348.758 270.828C349.711 269.98 350.444 269.177 350.956 268.418C351.485 267.659 351.75 266.856 351.75 266.008V265.717C351.75 264.746 351.485 264.004 350.956 263.492C350.426 262.963 349.658 262.698 348.652 262.698C347.628 262.698 346.833 262.971 346.268 263.519C345.721 264.066 345.324 264.763 345.077 265.611L342.481 264.631C342.658 264.048 342.914 263.492 343.249 262.963C343.585 262.415 344.008 261.93 344.52 261.506C345.05 261.082 345.668 260.747 346.374 260.5C347.098 260.252 347.928 260.129 348.864 260.129C349.817 260.129 350.664 260.27 351.406 260.553C352.165 260.817 352.801 261.188 353.313 261.665C353.825 262.142 354.213 262.715 354.478 263.386C354.743 264.04 354.875 264.763 354.875 265.558C354.875 266.299 354.76 266.988 354.531 267.624C354.319 268.241 354.01 268.842 353.604 269.424C353.216 269.989 352.748 270.537 352.2 271.066C351.653 271.596 351.053 272.126 350.4 272.655L345.924 276.416H355.484V278.932ZM364.875 279.196C364.028 279.196 363.428 279.02 363.074 278.667C362.739 278.314 362.571 277.881 362.571 277.369V276.681C362.571 276.169 362.739 275.736 363.074 275.383C363.428 275.03 364.028 274.853 364.875 274.853C365.723 274.853 366.314 275.03 366.65 275.383C367.003 275.736 367.179 276.169 367.179 276.681V277.369C367.179 277.881 367.003 278.314 366.65 278.667C366.314 279.02 365.723 279.196 364.875 279.196ZM373.339 265.267H375.802L377.126 276.76H377.365L379.404 265.267H382.211L384.224 276.76H384.462L385.813 265.267H388.17L386.263 278.932H382.714L380.887 268.339H380.649L378.795 278.932H375.246L373.339 265.267ZM396.925 279.249C395.884 279.249 394.948 279.082 394.118 278.746C393.288 278.411 392.591 277.934 392.026 277.316C391.461 276.698 391.028 275.957 390.728 275.092C390.428 274.209 390.278 273.22 390.278 272.126C390.278 271.031 390.428 270.042 390.728 269.16C391.046 268.277 391.479 267.526 392.026 266.908C392.591 266.273 393.271 265.787 394.065 265.452C394.86 265.116 395.742 264.949 396.713 264.949C397.667 264.949 398.532 265.116 399.309 265.452C400.085 265.77 400.748 266.229 401.295 266.829C401.842 267.429 402.257 268.144 402.54 268.974C402.84 269.804 402.99 270.722 402.99 271.728V272.814H393.191V273.264C393.191 274.341 393.527 275.224 394.197 275.913C394.868 276.584 395.795 276.919 396.978 276.919C397.861 276.919 398.611 276.734 399.229 276.363C399.865 275.974 400.377 275.462 400.765 274.827L402.566 276.416C402.107 277.21 401.401 277.881 400.447 278.428C399.512 278.976 398.338 279.249 396.925 279.249ZM396.713 267.147C396.201 267.147 395.725 267.235 395.283 267.412C394.86 267.588 394.489 267.844 394.171 268.18C393.871 268.497 393.633 268.877 393.456 269.318C393.279 269.76 393.191 270.245 393.191 270.775V270.96H400.05V270.696C400.05 269.619 399.741 268.762 399.123 268.127C398.523 267.473 397.72 267.147 396.713 267.147ZM406.661 259.334H409.547V267.597H409.706C410.112 266.767 410.651 266.123 411.321 265.664C411.992 265.187 412.831 264.949 413.837 264.949C415.444 264.949 416.724 265.549 417.677 266.75C418.631 267.95 419.107 269.733 419.107 272.099C419.107 274.465 418.631 276.248 417.677 277.449C416.724 278.649 415.444 279.249 413.837 279.249C412.831 279.249 411.992 279.02 411.321 278.561C410.651 278.084 410.112 277.431 409.706 276.601H409.547V278.932H406.661V259.334ZM412.646 276.892C413.74 276.892 414.579 276.557 415.161 275.886C415.762 275.215 416.062 274.324 416.062 273.211V270.987C416.062 269.875 415.762 268.983 415.161 268.312C414.579 267.641 413.74 267.306 412.646 267.306C412.222 267.306 411.825 267.359 411.454 267.465C411.083 267.571 410.757 267.729 410.474 267.941C410.192 268.153 409.962 268.418 409.785 268.736C409.627 269.036 409.547 269.398 409.547 269.822V274.377C409.547 274.8 409.627 275.171 409.785 275.489C409.962 275.789 410.192 276.045 410.474 276.257C410.757 276.469 411.083 276.628 411.454 276.734C411.825 276.84 412.222 276.892 412.646 276.892ZM428.419 279.249C426.936 279.249 425.656 279.011 424.579 278.534C423.52 278.058 422.663 277.422 422.01 276.628L423.785 275.039C424.385 275.692 425.056 276.195 425.797 276.548C426.556 276.884 427.448 277.051 428.472 277.051C429.408 277.051 430.158 276.892 430.723 276.575C431.306 276.257 431.597 275.763 431.597 275.092C431.597 274.809 431.544 274.571 431.438 274.377C431.332 274.182 431.182 274.024 430.988 273.9C430.794 273.776 430.564 273.679 430.299 273.609C430.052 273.538 429.787 273.485 429.505 273.45L427.333 273.105C426.804 273.035 426.265 272.92 425.718 272.761C425.17 272.602 424.676 272.382 424.235 272.099C423.811 271.799 423.458 271.419 423.175 270.96C422.911 270.501 422.778 269.919 422.778 269.212C422.778 267.818 423.308 266.758 424.367 266.035C425.444 265.311 426.857 264.949 428.604 264.949C429.876 264.949 430.97 265.143 431.888 265.531C432.824 265.902 433.601 266.423 434.219 267.094L432.603 268.789C432.25 268.383 431.747 268.012 431.094 267.676C430.441 267.323 429.575 267.147 428.498 267.147C426.574 267.147 425.612 267.756 425.612 268.974C425.612 269.557 425.815 269.963 426.221 270.192C426.645 270.404 427.139 270.545 427.704 270.616L429.876 270.96C430.423 271.049 430.961 271.163 431.491 271.305C432.038 271.446 432.524 271.667 432.948 271.967C433.389 272.249 433.742 272.62 434.007 273.079C434.289 273.538 434.431 274.121 434.431 274.827C434.431 276.204 433.892 277.29 432.815 278.084C431.756 278.861 430.29 279.249 428.419 279.249ZM445.119 262.777C444.378 262.777 443.857 262.627 443.557 262.327C443.274 262.027 443.133 261.656 443.133 261.215V260.659C443.133 260.217 443.274 259.846 443.557 259.546C443.857 259.246 444.369 259.096 445.093 259.096C445.834 259.096 446.346 259.246 446.629 259.546C446.929 259.846 447.079 260.217 447.079 260.659V261.215C447.079 261.656 446.929 262.027 446.629 262.327C446.346 262.627 445.843 262.777 445.119 262.777ZM439.002 276.601H443.663V267.597H439.002V265.267H446.549V276.601H450.919V278.932H439.002V276.601ZM460.972 278.932C459.772 278.932 458.889 278.614 458.324 277.978C457.759 277.325 457.476 276.486 457.476 275.462V267.597H453.266V265.267H456.258C456.77 265.267 457.132 265.169 457.344 264.975C457.556 264.763 457.662 264.393 457.662 263.863V260.447H460.363V265.267H466.189V267.597H460.363V276.601H466.189V278.932H460.972ZM476.322 279.249C475.28 279.249 474.344 279.082 473.515 278.746C472.685 278.411 471.987 277.934 471.422 277.316C470.857 276.698 470.425 275.957 470.125 275.092C469.825 274.209 469.675 273.22 469.675 272.126C469.675 271.031 469.825 270.042 470.125 269.16C470.443 268.277 470.875 267.526 471.422 266.908C471.987 266.273 472.667 265.787 473.462 265.452C474.256 265.116 475.139 264.949 476.11 264.949C477.063 264.949 477.928 265.116 478.705 265.452C479.482 265.77 480.144 266.229 480.691 266.829C481.239 267.429 481.654 268.144 481.936 268.974C482.236 269.804 482.386 270.722 482.386 271.728V272.814H472.588V273.264C472.588 274.341 472.923 275.224 473.594 275.913C474.265 276.584 475.192 276.919 476.375 276.919C477.257 276.919 478.008 276.734 478.626 276.363C479.261 275.974 479.773 275.462 480.162 274.827L481.963 276.416C481.504 277.21 480.797 277.881 479.844 278.428C478.908 278.976 477.734 279.249 476.322 279.249ZM476.11 267.147C475.598 267.147 475.121 267.235 474.68 267.412C474.256 267.588 473.885 267.844 473.568 268.18C473.267 268.497 473.029 268.877 472.853 269.318C472.676 269.76 472.588 270.245 472.588 270.775V270.96H479.447V270.696C479.447 269.619 479.138 268.762 478.52 268.127C477.92 267.473 477.116 267.147 476.11 267.147ZM491.91 279.196C491.062 279.196 490.462 279.02 490.109 278.667C489.773 278.314 489.606 277.881 489.606 277.369V276.681C489.606 276.169 489.773 275.736 490.109 275.383C490.462 275.03 491.062 274.853 491.91 274.853C492.757 274.853 493.349 275.03 493.684 275.383C494.037 275.736 494.214 276.169 494.214 276.681V277.369C494.214 277.881 494.037 278.314 493.684 278.667C493.349 279.02 492.757 279.196 491.91 279.196ZM508.292 279.249C507.268 279.249 506.35 279.082 505.538 278.746C504.744 278.411 504.064 277.934 503.499 277.316C502.952 276.698 502.528 275.948 502.228 275.065C501.945 274.182 501.804 273.194 501.804 272.099C501.804 271.004 501.945 270.016 502.228 269.133C502.528 268.25 502.952 267.5 503.499 266.882C504.064 266.264 504.744 265.787 505.538 265.452C506.35 265.116 507.259 264.949 508.266 264.949C509.678 264.949 510.808 265.249 511.656 265.849C512.521 266.449 513.165 267.226 513.589 268.18L511.338 269.398C511.091 268.762 510.711 268.259 510.199 267.888C509.705 267.518 509.06 267.332 508.266 267.332C507.171 267.332 506.324 267.668 505.723 268.339C505.123 268.992 504.823 269.866 504.823 270.96V273.238C504.823 274.315 505.123 275.189 505.723 275.86C506.324 276.531 507.189 276.866 508.319 276.866C509.166 276.866 509.855 276.672 510.384 276.283C510.932 275.895 511.364 275.365 511.682 274.694L513.801 275.992C513.359 276.945 512.688 277.731 511.788 278.349C510.888 278.949 509.722 279.249 508.292 279.249ZM523.668 279.249C522.662 279.249 521.753 279.082 520.941 278.746C520.146 278.411 519.466 277.934 518.901 277.316C518.354 276.698 517.93 275.948 517.63 275.065C517.33 274.182 517.18 273.194 517.18 272.099C517.18 271.004 517.33 270.016 517.63 269.133C517.93 268.25 518.354 267.5 518.901 266.882C519.466 266.264 520.146 265.787 520.941 265.452C521.753 265.116 522.662 264.949 523.668 264.949C524.675 264.949 525.575 265.116 526.37 265.452C527.182 265.787 527.861 266.264 528.409 266.882C528.974 267.5 529.406 268.25 529.706 269.133C530.007 270.016 530.157 271.004 530.157 272.099C530.157 273.194 530.007 274.182 529.706 275.065C529.406 275.948 528.974 276.698 528.409 277.316C527.861 277.934 527.182 278.411 526.37 278.746C525.575 279.082 524.675 279.249 523.668 279.249ZM523.668 276.972C524.728 276.972 525.566 276.654 526.184 276.019C526.82 275.365 527.138 274.403 527.138 273.132V271.066C527.138 269.795 526.82 268.842 526.184 268.206C525.566 267.553 524.728 267.226 523.668 267.226C522.609 267.226 521.762 267.553 521.126 268.206C520.508 268.842 520.199 269.795 520.199 271.066V273.132C520.199 274.403 520.508 275.365 521.126 276.019C521.762 276.654 522.609 276.972 523.668 276.972ZM532.768 278.932V265.267H535.231V267.041H535.363C535.575 266.458 535.875 265.964 536.264 265.558C536.67 265.152 537.244 264.949 537.985 264.949C538.709 264.949 539.265 265.152 539.654 265.558C540.06 265.946 540.316 266.485 540.422 267.173H540.528C540.775 266.555 541.119 266.035 541.56 265.611C542.002 265.169 542.637 264.949 543.467 264.949C544.526 264.949 545.259 265.32 545.665 266.061C546.089 266.803 546.301 267.888 546.301 269.318V278.932H543.838V269.689C543.838 268.736 543.723 268.083 543.494 267.729C543.264 267.359 542.893 267.173 542.381 267.173C541.922 267.173 541.534 267.332 541.216 267.65C540.916 267.95 540.766 268.409 540.766 269.027V278.932H538.303V269.689C538.303 268.736 538.188 268.083 537.959 267.729C537.747 267.359 537.385 267.173 536.873 267.173C536.396 267.173 535.999 267.332 535.681 267.65C535.381 267.95 535.231 268.409 535.231 269.027V278.932H532.768ZM549.68 282.586L558.605 258.805H561.174L552.249 282.586H549.68ZM574.14 276.601H574.008C573.866 276.954 573.681 277.299 573.451 277.634C573.24 277.952 572.975 278.234 572.657 278.481C572.339 278.711 571.968 278.896 571.545 279.038C571.121 279.179 570.627 279.249 570.062 279.249C568.685 279.249 567.572 278.799 566.725 277.899C565.877 276.998 565.454 275.718 565.454 274.059V265.267H568.34V273.635C568.34 275.807 569.285 276.892 571.174 276.892C571.545 276.892 571.907 276.848 572.26 276.76C572.613 276.654 572.931 276.504 573.213 276.31C573.496 276.116 573.716 275.877 573.875 275.595C574.052 275.295 574.14 274.942 574.14 274.536V265.267H577.027V278.932H574.14V276.601ZM587.212 279.249C585.729 279.249 584.449 279.011 583.372 278.534C582.313 278.058 581.457 277.422 580.803 276.628L582.578 275.039C583.178 275.692 583.849 276.195 584.59 276.548C585.349 276.884 586.241 277.051 587.265 277.051C588.201 277.051 588.951 276.892 589.516 276.575C590.099 276.257 590.39 275.763 590.39 275.092C590.39 274.809 590.337 274.571 590.231 274.377C590.125 274.182 589.975 274.024 589.781 273.9C589.587 273.776 589.357 273.679 589.092 273.609C588.845 273.538 588.58 273.485 588.298 273.45L586.126 273.105C585.597 273.035 585.058 272.92 584.511 272.761C583.964 272.602 583.469 272.382 583.028 272.099C582.604 271.799 582.251 271.419 581.969 270.96C581.704 270.501 581.571 269.919 581.571 269.212C581.571 267.818 582.101 266.758 583.16 266.035C584.237 265.311 585.65 264.949 587.397 264.949C588.669 264.949 589.763 265.143 590.681 265.531C591.617 265.902 592.394 266.423 593.012 267.094L591.396 268.789C591.043 268.383 590.54 268.012 589.887 267.676C589.234 267.323 588.369 267.147 587.292 267.147C585.367 267.147 584.405 267.756 584.405 268.974C584.405 269.557 584.608 269.963 585.014 270.192C585.438 270.404 585.932 270.545 586.497 270.616L588.669 270.96C589.216 271.049 589.754 271.163 590.284 271.305C590.831 271.446 591.317 271.667 591.741 271.967C592.182 272.249 592.535 272.62 592.8 273.079C593.082 273.538 593.224 274.121 593.224 274.827C593.224 276.204 592.685 277.29 591.608 278.084C590.549 278.861 589.084 279.249 587.212 279.249ZM603.356 279.249C602.315 279.249 601.379 279.082 600.549 278.746C599.719 278.411 599.022 277.934 598.457 277.316C597.892 276.698 597.459 275.957 597.159 275.092C596.859 274.209 596.709 273.22 596.709 272.126C596.709 271.031 596.859 270.042 597.159 269.16C597.477 268.277 597.91 267.526 598.457 266.908C599.022 266.273 599.702 265.787 600.496 265.452C601.291 265.116 602.173 264.949 603.144 264.949C604.098 264.949 604.963 265.116 605.74 265.452C606.517 265.77 607.179 266.229 607.726 266.829C608.273 267.429 608.688 268.144 608.971 268.974C609.271 269.804 609.421 270.722 609.421 271.728V272.814H599.622V273.264C599.622 274.341 599.958 275.224 600.629 275.913C601.299 276.584 602.226 276.919 603.409 276.919C604.292 276.919 605.042 276.734 605.66 276.363C606.296 275.974 606.808 275.462 607.196 274.827L608.997 276.416C608.538 277.21 607.832 277.881 606.878 278.428C605.943 278.976 604.769 279.249 603.356 279.249ZM603.144 267.147C602.632 267.147 602.156 267.235 601.714 267.412C601.291 267.588 600.92 267.844 600.602 268.18C600.302 268.497 600.064 268.877 599.887 269.318C599.71 269.76 599.622 270.245 599.622 270.775V270.96H606.481V270.696C606.481 269.619 606.172 268.762 605.554 268.127C604.954 267.473 604.151 267.147 603.144 267.147ZM613.012 276.601H616.64V267.597H613.012V265.267H619.527V268.895H619.686C619.809 268.418 619.986 267.959 620.215 267.518C620.445 267.076 620.736 266.697 621.089 266.379C621.442 266.043 621.875 265.779 622.387 265.584C622.899 265.372 623.499 265.267 624.188 265.267H625.83V268.021H623.129C622.069 268.021 621.204 268.339 620.533 268.974C619.862 269.592 619.527 270.431 619.527 271.49V276.601H624.479V278.932H613.012V276.601ZM634.85 279.249C633.367 279.249 632.087 279.011 631.01 278.534C629.951 278.058 629.094 277.422 628.441 276.628L630.216 275.039C630.816 275.692 631.487 276.195 632.228 276.548C632.987 276.884 633.879 277.051 634.903 277.051C635.839 277.051 636.589 276.892 637.154 276.575C637.737 276.257 638.028 275.763 638.028 275.092C638.028 274.809 637.975 274.571 637.869 274.377C637.763 274.182 637.613 274.024 637.419 273.9C637.225 273.776 636.995 273.679 636.73 273.609C636.483 273.538 636.218 273.485 635.936 273.45L633.764 273.105C633.235 273.035 632.696 272.92 632.149 272.761C631.601 272.602 631.107 272.382 630.666 272.099C630.242 271.799 629.889 271.419 629.606 270.96C629.342 270.501 629.209 269.919 629.209 269.212C629.209 267.818 629.739 266.758 630.798 266.035C631.875 265.311 633.288 264.949 635.035 264.949C636.307 264.949 637.401 265.143 638.319 265.531C639.255 265.902 640.032 266.423 640.65 267.094L639.034 268.789C638.681 268.383 638.178 268.012 637.525 267.676C636.872 267.323 636.006 267.147 634.929 267.147C633.005 267.147 632.043 267.756 632.043 268.974C632.043 269.557 632.246 269.963 632.652 270.192C633.076 270.404 633.57 270.545 634.135 270.616L636.307 270.96C636.854 271.049 637.392 271.163 637.922 271.305C638.469 271.446 638.955 271.667 639.379 271.967C639.82 272.249 640.173 272.62 640.438 273.079C640.72 273.538 640.862 274.121 640.862 274.827C640.862 276.204 640.323 277.29 639.246 278.084C638.187 278.861 636.721 279.249 634.85 279.249ZM644.956 282.586L653.881 258.805H656.45L647.525 282.586H644.956ZM660.968 278.932V276.469H666.158V262.618H665.947L661.656 267.2L659.829 265.558L664.543 260.447H669.125V276.469H673.6V278.932H660.968ZM684.103 278.932V275.33H675.311V272.788L683.044 260.447H686.937V273H689.532V275.33H686.937V278.932H684.103ZM677.827 273H684.103V263.174H683.945L677.827 273ZM692.726 278.932V276.469H697.917V262.618H697.705L693.415 267.2L691.588 265.558L696.302 260.447H700.883V276.469H705.359V278.932H692.726ZM710.751 278.932L717.61 262.91H710.407V266.326H707.838V260.447H720.576V263.042L713.902 278.932H710.751ZM730.099 279.249C728.934 279.249 727.919 279.038 727.054 278.614C726.206 278.172 725.5 277.546 724.935 276.734C724.388 275.921 723.982 274.924 723.717 273.741C723.452 272.558 723.32 271.208 723.32 269.689C723.32 268.188 723.452 266.847 723.717 265.664C723.982 264.463 724.388 263.457 724.935 262.645C725.5 261.833 726.206 261.215 727.054 260.791C727.919 260.35 728.934 260.129 730.099 260.129C731.265 260.129 732.271 260.35 733.118 260.791C733.984 261.215 734.69 261.833 735.237 262.645C735.802 263.457 736.217 264.463 736.482 265.664C736.747 266.847 736.879 268.188 736.879 269.689C736.879 271.208 736.747 272.558 736.482 273.741C736.217 274.924 735.802 275.921 735.237 276.734C734.69 277.546 733.984 278.172 733.118 278.614C732.271 279.038 731.265 279.249 730.099 279.249ZM730.099 276.813C731.441 276.813 732.395 276.319 732.96 275.33C733.542 274.324 733.833 272.973 733.833 271.278V268.1C733.833 266.405 733.542 265.064 732.96 264.075C732.395 263.068 731.441 262.565 730.099 262.565C729.429 262.565 728.855 262.698 728.378 262.963C727.901 263.21 727.513 263.58 727.213 264.075C726.913 264.552 726.692 265.134 726.551 265.823C726.427 266.494 726.365 267.253 726.365 268.1V271.278C726.365 272.126 726.427 272.894 726.551 273.582C726.692 274.253 726.913 274.836 727.213 275.33C727.513 275.807 727.901 276.177 728.378 276.442C728.855 276.689 729.429 276.813 730.099 276.813ZM730.099 271.252C729.481 271.252 729.049 271.128 728.802 270.881C728.572 270.634 728.457 270.334 728.457 269.98V269.398C728.457 269.045 728.572 268.745 728.802 268.497C729.049 268.25 729.481 268.127 730.099 268.127C730.717 268.127 731.141 268.25 731.371 268.497C731.618 268.745 731.741 269.045 731.741 269.398V269.98C731.741 270.334 731.618 270.634 731.371 270.881C731.141 271.128 730.717 271.252 730.099 271.252ZM742.509 278.932L749.368 262.91H742.165V266.326H739.596V260.447H752.335V263.042L745.661 278.932H742.509Z" fill="#6D7178"/>
</g>
<defs>
<clipPath id="clip0_3623_8907">
<rect width="640" height="480" fill="white"/>
</clipPath>
</defs>
</svg>