<svg width="460" height="200" viewBox="0 0 460 200" fill="none" xmlns="http://www.w3.org/2000/svg">
<g clip-path="url(#clip0_3959_11462)">
<rect width="460" height="200" fill="#F4F4F5"/>
<rect x="70.5861" y="45.2931" width="498.345" height="109.448" rx="11.8966" fill="white"/>
<rect x="70.5861" y="45.2931" width="498.345" height="109.448" rx="11.8966" stroke="#D2D3D6" stroke-width="1.58621"/>
<path d="M90.4141 77.8102C90.4141 79.06 90.6602 80.2976 91.1385 81.4523C91.6168 82.607 92.3178 83.6562 93.2016 84.5399C94.0854 85.4237 95.1345 86.1247 96.2892 86.603C97.4439 87.0813 98.6815 87.3275 99.9313 87.3275C101.181 87.3275 102.419 87.0813 103.573 86.603C104.728 86.1247 105.777 85.4237 106.661 84.5399C107.545 83.6562 108.246 82.607 108.724 81.4523C109.202 80.2976 109.449 79.06 109.449 77.8102C109.449 75.2861 108.446 72.8653 106.661 71.0805C104.876 69.2957 102.455 68.293 99.9313 68.293C97.4072 68.293 94.9864 69.2957 93.2016 71.0805C91.4168 72.8653 90.4141 75.2861 90.4141 77.8102Z" stroke="#1F2123" stroke-width="2.11494" stroke-linecap="round" stroke-linejoin="round"/>
<path d="M91.0469 74.6387H108.812" stroke="#1F2123" stroke-width="2.11494" stroke-linecap="round" stroke-linejoin="round"/>
<path d="M91.0469 80.9824H108.812" stroke="#1F2123" stroke-width="2.11494" stroke-linecap="round" stroke-linejoin="round"/>
<path d="M99.4056 68.293C97.6242 71.1477 96.6797 74.4452 96.6797 77.8102C96.6797 81.1752 97.6242 84.4727 99.4056 87.3275" stroke="black" stroke-width="2.11494" stroke-linecap="round" stroke-linejoin="round"/>
<path d="M100.459 68.293C102.24 71.1477 103.185 74.4452 103.185 77.8102C103.185 81.1752 102.24 84.4727 100.459 87.3275" stroke="black" stroke-width="2.11494" stroke-linecap="round" stroke-linejoin="round"/>
<path d="M120.518 85.8105H117.931L123.743 69.6601H126.558L132.37 85.8105H129.784L125.218 72.5937H125.091L120.518 85.8105ZM120.951 79.486H129.342V81.5364H120.951V79.486ZM134.702 85.8105V69.6601H140.459C141.716 69.6601 142.757 69.8888 143.582 70.3462C144.407 70.8035 145.025 71.4292 145.435 72.223C145.845 73.0116 146.05 73.9001 146.05 74.8885C146.05 75.8821 145.843 76.7759 145.427 77.5697C145.017 78.3583 144.397 78.9839 143.566 79.4466C142.741 79.904 141.703 80.1326 140.451 80.1326H136.493V78.0665H140.23C141.024 78.0665 141.668 77.9298 142.163 77.6565C142.657 77.3778 143.019 76.9993 143.251 76.5209C143.482 76.0425 143.598 75.4983 143.598 74.8885C143.598 74.2786 143.482 73.7371 143.251 73.264C143.019 72.7908 142.654 72.4202 142.155 72.152C141.66 71.8839 141.009 71.7499 140.199 71.7499H137.139V85.8105H134.702ZM151.344 69.6601V85.8105H148.907V69.6601H151.344ZM169.657 76.6549L167.52 77.0335C167.431 76.7601 167.289 76.4998 167.094 76.2527C166.905 76.0057 166.647 75.8032 166.321 75.6455C165.995 75.4878 165.588 75.409 165.099 75.409C164.431 75.409 163.874 75.5588 163.427 75.8585C162.98 76.1529 162.757 76.534 162.757 77.0019C162.757 77.4067 162.907 77.7327 163.206 77.9798C163.506 78.2269 163.99 78.4293 164.657 78.587L166.581 79.0286C167.696 79.2862 168.527 79.6831 169.073 80.2194C169.62 80.7556 169.894 81.4522 169.894 82.3092C169.894 83.0347 169.683 83.6813 169.263 84.2491C168.847 84.8117 168.266 85.2533 167.52 85.574C166.779 85.8947 165.919 86.055 164.941 86.055C163.585 86.055 162.478 85.7659 161.621 85.1876C160.764 84.604 160.239 83.776 160.044 82.7035L162.323 82.3565C162.465 82.9506 162.757 83.4001 163.198 83.705C163.64 84.0047 164.216 84.1545 164.925 84.1545C165.698 84.1545 166.316 83.9941 166.779 83.6734C167.241 83.3475 167.473 82.9506 167.473 82.4827C167.473 82.1041 167.331 81.7861 167.047 81.5285C166.768 81.2709 166.34 81.0763 165.761 80.9449L163.711 80.4954C162.581 80.2378 161.745 79.8277 161.203 79.2652C160.667 78.7027 160.399 77.9903 160.399 77.1281C160.399 76.4131 160.599 75.7875 160.998 75.2512C161.398 74.715 161.95 74.297 162.654 73.9974C163.359 73.6924 164.166 73.54 165.075 73.54C166.384 73.54 167.415 73.8239 168.167 74.3917C168.918 74.9542 169.415 75.7086 169.657 76.6549ZM177.588 86.055C176.416 86.055 175.407 85.7895 174.56 85.2585C173.719 84.7223 173.072 83.9836 172.62 83.0426C172.168 82.1015 171.942 81.0238 171.942 79.8093C171.942 78.5791 172.173 77.4935 172.636 76.5524C173.099 75.6061 173.75 74.8674 174.592 74.3365C175.433 73.8055 176.424 73.54 177.565 73.54C178.485 73.54 179.305 73.7108 180.025 74.0526C180.745 74.389 181.326 74.8622 181.768 75.472C182.215 76.0819 182.48 76.7943 182.564 77.6091H180.27C180.143 77.0413 179.854 76.5524 179.402 76.1423C178.955 75.7323 178.356 75.5272 177.604 75.5272C176.947 75.5272 176.371 75.7007 175.877 76.0477C175.388 76.3894 175.007 76.8784 174.734 77.5145C174.46 78.1454 174.324 78.8919 174.324 79.7541C174.324 80.6373 174.458 81.3997 174.726 82.0411C174.994 82.6824 175.372 83.1793 175.861 83.5315C176.355 83.8837 176.936 84.0599 177.604 84.0599C178.051 84.0599 178.456 83.9784 178.819 83.8154C179.187 83.6472 179.494 83.408 179.741 83.0978C179.994 82.7876 180.17 82.4143 180.27 81.978H182.564C182.48 82.7613 182.225 83.4605 181.799 84.0756C181.374 84.6907 180.803 85.1744 180.088 85.5267C179.378 85.8789 178.545 86.055 177.588 86.055ZM185.086 85.8105V73.6977H187.365V75.6219H187.491C187.712 74.97 188.101 74.4574 188.658 74.0841C189.221 73.7056 189.857 73.5163 190.567 73.5163C190.714 73.5163 190.887 73.5216 191.087 73.5321C191.292 73.5426 191.452 73.5557 191.568 73.5715V75.8269C191.474 75.8006 191.305 75.7717 191.063 75.7402C190.822 75.7034 190.58 75.685 190.338 75.685C189.781 75.685 189.284 75.8032 188.847 76.0398C188.416 76.2711 188.075 76.5945 187.822 77.0098C187.57 77.4199 187.444 77.8878 187.444 78.4135V85.8105H185.086ZM197.025 86.0787C196.258 86.0787 195.564 85.9367 194.943 85.6528C194.323 85.3637 193.831 84.9457 193.469 84.399C193.111 83.8522 192.932 83.1819 192.932 82.388C192.932 81.7046 193.064 81.1421 193.327 80.7004C193.59 80.2588 193.944 79.9092 194.391 79.6516C194.838 79.394 195.338 79.1995 195.89 79.068C196.442 78.9366 197.004 78.8367 197.577 78.7684C198.303 78.6843 198.892 78.6159 199.344 78.5633C199.796 78.5055 200.124 78.4135 200.329 78.2873C200.535 78.1612 200.637 77.9561 200.637 77.6722V77.617C200.637 76.9283 200.443 76.3947 200.053 76.0162C199.67 75.6376 199.097 75.4484 198.334 75.4484C197.54 75.4484 196.915 75.6245 196.457 75.9767C196.005 76.3237 195.693 76.7101 195.519 77.136L193.303 76.6313C193.566 75.8953 193.95 75.3012 194.454 74.849C194.964 74.3917 195.551 74.0604 196.213 73.8554C196.875 73.6451 197.572 73.54 198.303 73.54C198.786 73.54 199.299 73.5978 199.841 73.7135C200.387 73.8239 200.897 74.0289 201.37 74.3286C201.849 74.6282 202.241 75.0567 202.545 75.614C202.85 76.166 203.003 76.8836 203.003 77.7669V85.8105H200.7V84.1545H200.605C200.453 84.4594 200.224 84.7591 199.919 85.0535C199.614 85.3479 199.223 85.5924 198.744 85.7869C198.266 85.9814 197.693 86.0787 197.025 86.0787ZM197.538 84.186C198.19 84.186 198.747 84.0572 199.21 83.7996C199.678 83.542 200.032 83.2055 200.274 82.7902C200.521 82.3696 200.645 81.9201 200.645 81.4417V79.8803C200.561 79.9644 200.398 80.0433 200.156 80.1169C199.919 80.1852 199.649 80.2457 199.344 80.2983C199.039 80.3456 198.742 80.3903 198.453 80.4323C198.163 80.4691 197.922 80.5007 197.727 80.5269C197.27 80.5848 196.852 80.682 196.473 80.8187C196.1 80.9554 195.8 81.1526 195.574 81.4102C195.353 81.6625 195.243 81.999 195.243 82.4196C195.243 83.0031 195.459 83.4448 195.89 83.7444C196.321 84.0388 196.87 84.186 197.538 84.186ZM206.143 90.3529V73.6977H208.446V75.6613H208.643C208.78 75.409 208.977 75.1172 209.235 74.786C209.492 74.4547 209.85 74.1656 210.307 73.9185C210.765 73.6662 211.369 73.54 212.121 73.54C213.099 73.54 213.972 73.7871 214.739 74.2813C215.507 74.7754 216.109 75.4878 216.545 76.4184C216.987 77.3489 217.207 78.4687 217.207 79.7778C217.207 81.0868 216.989 82.2093 216.553 83.1451C216.117 84.0756 215.517 84.7933 214.755 85.298C213.993 85.7974 213.122 86.0471 212.145 86.0471C211.409 86.0471 210.807 85.9236 210.339 85.6765C209.876 85.4294 209.513 85.1402 209.25 84.809C208.988 84.4778 208.785 84.1834 208.643 83.9258H208.501V90.3529H206.143ZM208.454 79.7541C208.454 80.6058 208.578 81.3523 208.825 81.9937C209.072 82.6351 209.429 83.1372 209.897 83.5C210.365 83.8575 210.938 84.0362 211.616 84.0362C212.321 84.0362 212.91 83.8496 213.383 83.4763C213.856 83.0978 214.213 82.5852 214.455 81.9385C214.702 81.2919 214.826 80.5637 214.826 79.7541C214.826 78.955 214.705 78.2374 214.463 77.6013C214.227 76.9651 213.869 76.463 213.391 76.095C212.917 75.727 212.326 75.543 211.616 75.543C210.933 75.543 210.355 75.7191 209.881 76.0714C209.413 76.4236 209.059 76.9152 208.817 77.546C208.575 78.1769 208.454 78.913 208.454 79.7541ZM219.849 85.8105V73.6977H222.207V85.8105H219.849ZM221.04 71.8287C220.63 71.8287 220.278 71.692 219.983 71.4186C219.694 71.14 219.55 70.8088 219.55 70.425C219.55 70.036 219.694 69.7048 219.983 69.4314C220.278 69.1527 220.63 69.0134 221.04 69.0134C221.45 69.0134 221.8 69.1527 222.089 69.4314C222.383 69.7048 222.53 70.036 222.53 70.425C222.53 70.8088 222.383 71.14 222.089 71.4186C221.8 71.692 221.45 71.8287 221.04 71.8287ZM227.737 78.6185V85.8105H225.379V73.6977H227.643V75.6692H227.792C228.071 75.0278 228.507 74.5126 229.101 74.1235C229.701 73.7345 230.455 73.54 231.365 73.54C232.19 73.54 232.913 73.7135 233.533 74.0604C234.154 74.4022 234.635 74.9121 234.976 75.5903C235.318 76.2685 235.489 77.1071 235.489 78.106V85.8105H233.131V78.3898C233.131 77.5119 232.902 76.8258 232.445 76.3316C231.988 75.8322 231.359 75.5824 230.56 75.5824C230.014 75.5824 229.527 75.7007 229.101 75.9373C228.681 76.1739 228.347 76.5209 228.1 76.9783C227.858 77.4304 227.737 77.9771 227.737 78.6185ZM243.73 90.6052C242.768 90.6052 241.94 90.479 241.246 90.2267C240.557 89.9743 239.995 89.6405 239.558 89.2252C239.122 88.8098 238.796 88.3551 238.58 87.8609L240.607 87.025C240.749 87.2563 240.938 87.5008 241.175 87.7584C241.417 88.0212 241.743 88.2447 242.153 88.4287C242.568 88.6127 243.102 88.7047 243.754 88.7047C244.647 88.7047 245.386 88.4865 245.97 88.0502C246.553 87.6191 246.845 86.9304 246.845 85.984V83.6025H246.695C246.553 83.8601 246.348 84.1466 246.08 84.462C245.817 84.7775 245.454 85.0509 244.992 85.2822C244.529 85.5135 243.927 85.6292 243.186 85.6292C242.229 85.6292 241.367 85.4057 240.599 84.9589C239.837 84.5067 239.232 83.8417 238.785 82.9637C238.344 82.0805 238.123 80.9948 238.123 79.7068C238.123 78.4188 238.341 77.3147 238.778 76.3947C239.219 75.4747 239.824 74.7702 240.591 74.2813C241.359 73.7871 242.229 73.54 243.202 73.54C243.953 73.54 244.561 73.6662 245.023 73.9185C245.486 74.1656 245.846 74.4547 246.104 74.786C246.366 75.1172 246.569 75.409 246.711 75.6613H246.884V73.6977H249.195V86.0787C249.195 87.1196 248.953 87.9739 248.469 88.6416C247.986 89.3093 247.331 89.8035 246.506 90.1242C245.686 90.4449 244.76 90.6052 243.73 90.6052ZM243.706 83.6734C244.384 83.6734 244.957 83.5157 245.425 83.2003C245.899 82.8796 246.256 82.4222 246.498 81.8281C246.745 81.2288 246.869 80.5112 246.869 79.6753C246.869 78.8604 246.748 78.1428 246.506 77.5224C246.264 76.902 245.909 76.4184 245.441 76.0714C244.973 75.7191 244.395 75.543 243.706 75.543C242.997 75.543 242.405 75.727 241.932 76.095C241.459 76.4578 241.101 76.952 240.859 77.5776C240.623 78.2032 240.505 78.9024 240.505 79.6753C240.505 80.4691 240.625 81.1657 240.867 81.765C241.109 82.3644 241.467 82.8323 241.94 83.1687C242.418 83.5052 243.007 83.6734 243.706 83.6734Z" fill="#1F2123"/>
<rect x="87.2412" y="106.362" width="465.034" height="31.7241" rx="6.34483" fill="#F4F4F5"/>
<path d="M98.3577 113.552H100.432V119.491H100.528C100.629 119.237 100.756 118.996 100.908 118.768C101.073 118.527 101.27 118.323 101.498 118.159C101.727 117.981 101.993 117.841 102.298 117.74C102.602 117.638 102.958 117.587 103.364 117.587C104.354 117.587 105.153 117.911 105.762 118.558C106.371 119.205 106.676 120.125 106.676 121.318V127.638H104.601V121.623C104.601 120.062 103.922 119.282 102.564 119.282C102.298 119.282 102.038 119.32 101.784 119.396C101.53 119.459 101.302 119.561 101.099 119.7C100.896 119.84 100.731 120.018 100.604 120.233C100.49 120.449 100.432 120.696 100.432 120.976V127.638H98.3577V113.552ZM114.472 127.638C113.61 127.638 112.975 127.409 112.569 126.952C112.163 126.483 111.96 125.88 111.96 125.144V119.491H108.933V117.816H111.084C111.452 117.816 111.712 117.746 111.865 117.607C112.017 117.454 112.093 117.188 112.093 116.807V114.352H114.035V117.816H118.222V119.491H114.035V125.963H118.222V127.638H114.472ZM125.886 127.638C125.023 127.638 124.388 127.409 123.982 126.952C123.576 126.483 123.373 125.88 123.373 125.144V119.491H120.347V117.816H122.498C122.866 117.816 123.126 117.746 123.278 117.607C123.43 117.454 123.506 117.188 123.506 116.807V114.352H125.448V117.816H129.636V119.491H125.448V125.963H129.636V127.638H125.886ZM132.502 117.816H134.577V119.491H134.691C134.983 118.895 135.37 118.431 135.852 118.101C136.335 117.759 136.937 117.587 137.661 117.587C138.815 117.587 139.735 118.019 140.421 118.882C141.106 119.745 141.448 121.026 141.448 122.727C141.448 124.427 141.106 125.709 140.421 126.572C139.735 127.435 138.815 127.866 137.661 127.866C136.937 127.866 136.335 127.701 135.852 127.371C135.37 127.029 134.983 126.559 134.691 125.963H134.577V131.445H132.502V117.816ZM136.804 126.172C137.591 126.172 138.194 125.931 138.612 125.449C139.044 124.967 139.26 124.326 139.26 123.526V121.927C139.26 121.128 139.044 120.487 138.612 120.005C138.194 119.523 137.591 119.282 136.804 119.282C136.5 119.282 136.214 119.32 135.948 119.396C135.681 119.472 135.446 119.586 135.243 119.738C135.04 119.891 134.875 120.081 134.748 120.309C134.634 120.525 134.577 120.785 134.577 121.09V124.364C134.577 124.668 134.634 124.935 134.748 125.163C134.875 125.379 135.04 125.563 135.243 125.715C135.446 125.867 135.681 125.982 135.948 126.058C136.214 126.134 136.5 126.172 136.804 126.172ZM148.141 127.866C147.075 127.866 146.155 127.695 145.381 127.352C144.62 127.01 144.004 126.553 143.535 125.982L144.81 124.84C145.242 125.309 145.724 125.671 146.257 125.925C146.802 126.166 147.443 126.286 148.179 126.286C148.852 126.286 149.391 126.172 149.797 125.944C150.216 125.715 150.425 125.36 150.425 124.878C150.425 124.675 150.387 124.503 150.311 124.364C150.235 124.224 150.127 124.11 149.988 124.021C149.848 123.932 149.683 123.863 149.493 123.812C149.315 123.761 149.125 123.723 148.922 123.698L147.361 123.45C146.98 123.399 146.593 123.317 146.2 123.203C145.806 123.088 145.451 122.93 145.134 122.727C144.829 122.511 144.575 122.238 144.372 121.908C144.182 121.578 144.087 121.16 144.087 120.652C144.087 119.65 144.468 118.888 145.229 118.368C146.003 117.848 147.018 117.587 148.274 117.587C149.188 117.587 149.975 117.727 150.635 118.006C151.307 118.273 151.866 118.647 152.31 119.129L151.149 120.347C150.895 120.056 150.533 119.789 150.064 119.548C149.594 119.294 148.972 119.167 148.198 119.167C146.815 119.167 146.124 119.605 146.124 120.481C146.124 120.899 146.269 121.191 146.561 121.356C146.866 121.509 147.221 121.61 147.627 121.661L149.188 121.908C149.581 121.972 149.968 122.054 150.349 122.156C150.743 122.257 151.092 122.416 151.396 122.632C151.713 122.835 151.967 123.101 152.157 123.431C152.36 123.761 152.462 124.18 152.462 124.687C152.462 125.677 152.075 126.458 151.301 127.029C150.54 127.587 149.486 127.866 148.141 127.866ZM159.535 127.828C158.926 127.828 158.495 127.701 158.241 127.447C158 127.194 157.879 126.883 157.879 126.515V126.02C157.879 125.652 158 125.341 158.241 125.087C158.495 124.833 158.926 124.706 159.535 124.706C160.145 124.706 160.57 124.833 160.811 125.087C161.065 125.341 161.191 125.652 161.191 126.02V126.515C161.191 126.883 161.065 127.194 160.811 127.447C160.57 127.701 160.145 127.828 159.535 127.828ZM159.535 120.747C158.926 120.747 158.495 120.62 158.241 120.367C158 120.113 157.879 119.802 157.879 119.434V118.939C157.879 118.571 158 118.26 158.241 118.006C158.495 117.752 158.926 117.626 159.535 117.626C160.145 117.626 160.57 117.752 160.811 118.006C161.065 118.26 161.191 118.571 161.191 118.939V119.434C161.191 119.802 161.065 120.113 160.811 120.367C160.57 120.62 160.145 120.747 159.535 120.747ZM166.818 130.264L173.233 113.171H175.079L168.665 130.264H166.818ZM178.231 130.264L184.646 113.171H186.492L180.078 130.264H178.231ZM197.43 127.638C196.833 127.638 196.383 127.485 196.078 127.181C195.786 126.876 195.609 126.477 195.545 125.982H195.45C195.26 126.578 194.911 127.041 194.403 127.371C193.908 127.701 193.274 127.866 192.5 127.866C191.497 127.866 190.698 127.606 190.102 127.086C189.505 126.553 189.207 125.823 189.207 124.897C189.207 123.945 189.556 123.222 190.254 122.727C190.964 122.219 192.049 121.965 193.509 121.965H195.393V121.204C195.393 119.872 194.689 119.205 193.28 119.205C192.646 119.205 192.132 119.332 191.738 119.586C191.345 119.827 191.015 120.151 190.749 120.557L189.511 119.548C189.791 119.015 190.26 118.558 190.92 118.178C191.58 117.784 192.43 117.587 193.471 117.587C194.714 117.587 195.691 117.886 196.402 118.482C197.113 119.079 197.468 119.941 197.468 121.071V126.001H198.705V127.638H197.43ZM193.09 126.343C193.762 126.343 194.314 126.191 194.746 125.887C195.177 125.582 195.393 125.189 195.393 124.706V123.279H193.547C192.049 123.279 191.301 123.729 191.301 124.63V125.011C191.301 125.455 191.459 125.791 191.777 126.02C192.094 126.235 192.532 126.343 193.09 126.343ZM200.982 117.816H203.057V119.491H203.171C203.463 118.895 203.85 118.431 204.332 118.101C204.814 117.759 205.417 117.587 206.14 117.587C207.295 117.587 208.215 118.019 208.9 118.882C209.585 119.745 209.928 121.026 209.928 122.727C209.928 124.427 209.585 125.709 208.9 126.572C208.215 127.435 207.295 127.866 206.14 127.866C205.417 127.866 204.814 127.701 204.332 127.371C203.85 127.029 203.463 126.559 203.171 125.963H203.057V131.445H200.982V117.816ZM205.284 126.172C206.07 126.172 206.673 125.931 207.092 125.449C207.523 124.967 207.739 124.326 207.739 123.526V121.927C207.739 121.128 207.523 120.487 207.092 120.005C206.673 119.523 206.07 119.282 205.284 119.282C204.979 119.282 204.694 119.32 204.427 119.396C204.161 119.472 203.926 119.586 203.723 119.738C203.52 119.891 203.355 120.081 203.228 120.309C203.114 120.525 203.057 120.785 203.057 121.09V124.364C203.057 124.668 203.114 124.935 203.228 125.163C203.355 125.379 203.52 125.563 203.723 125.715C203.926 125.867 204.161 125.982 204.427 126.058C204.694 126.134 204.979 126.172 205.284 126.172ZM217.211 116.027C216.678 116.027 216.303 115.919 216.088 115.703C215.885 115.487 215.783 115.221 215.783 114.904V114.504C215.783 114.187 215.885 113.92 216.088 113.704C216.303 113.489 216.671 113.381 217.192 113.381C217.725 113.381 218.093 113.489 218.296 113.704C218.511 113.92 218.619 114.187 218.619 114.504V114.904C218.619 115.221 218.511 115.487 218.296 115.703C218.093 115.919 217.731 116.027 217.211 116.027ZM212.814 125.963H216.164V119.491H212.814V117.816H218.239V125.963H221.379V127.638H212.814V125.963ZM225.141 122.879V120.804H230.889V122.879H225.141ZM238.153 127.638L234.632 117.816H236.782L238.134 121.965L239.409 125.906H239.523L240.799 121.965L242.15 117.816H244.225L240.704 127.638H238.153ZM255.505 127.638H246.33V125.601L250.67 121.813C251.355 121.204 251.882 120.627 252.25 120.081C252.631 119.535 252.821 118.958 252.821 118.349V118.139C252.821 117.442 252.631 116.909 252.25 116.541C251.869 116.16 251.317 115.97 250.594 115.97C249.858 115.97 249.287 116.166 248.881 116.56C248.488 116.953 248.202 117.454 248.024 118.063L246.159 117.359C246.286 116.94 246.47 116.541 246.711 116.16C246.952 115.767 247.257 115.418 247.625 115.113C248.005 114.808 248.449 114.567 248.957 114.39C249.477 114.212 250.074 114.123 250.746 114.123C251.432 114.123 252.041 114.225 252.574 114.428C253.119 114.618 253.576 114.885 253.944 115.227C254.312 115.57 254.591 115.982 254.782 116.464C254.972 116.934 255.067 117.454 255.067 118.025C255.067 118.558 254.985 119.053 254.82 119.51C254.667 119.954 254.445 120.386 254.153 120.804C253.874 121.21 253.538 121.604 253.145 121.984C252.751 122.365 252.32 122.746 251.85 123.127L248.633 125.829H255.505V127.638ZM262.255 127.828C261.646 127.828 261.214 127.701 260.96 127.447C260.719 127.194 260.599 126.883 260.599 126.515V126.02C260.599 125.652 260.719 125.341 260.96 125.087C261.214 124.833 261.646 124.706 262.255 124.706C262.864 124.706 263.289 124.833 263.53 125.087C263.784 125.341 263.911 125.652 263.911 126.02V126.515C263.911 126.883 263.784 127.194 263.53 127.447C263.289 127.701 262.864 127.828 262.255 127.828ZM268.338 117.816H270.109L271.06 126.077H271.232L272.697 117.816H274.715L276.161 126.077H276.333L277.304 117.816H278.998L277.627 127.638H275.077L273.763 120.024H273.592L272.259 127.638H269.709L268.338 117.816ZM285.291 127.866C284.542 127.866 283.869 127.746 283.273 127.504C282.677 127.263 282.175 126.921 281.769 126.477C281.363 126.032 281.052 125.499 280.837 124.878C280.621 124.243 280.513 123.533 280.513 122.746C280.513 121.959 280.621 121.248 280.837 120.614C281.065 119.979 281.376 119.44 281.769 118.996C282.175 118.539 282.664 118.19 283.235 117.949C283.806 117.708 284.44 117.587 285.138 117.587C285.824 117.587 286.445 117.708 287.004 117.949C287.562 118.178 288.038 118.507 288.431 118.939C288.825 119.37 289.123 119.884 289.326 120.481C289.542 121.077 289.649 121.737 289.649 122.46V123.241H282.607V123.564C282.607 124.338 282.848 124.973 283.33 125.468C283.812 125.95 284.478 126.191 285.329 126.191C285.963 126.191 286.502 126.058 286.947 125.791C287.403 125.512 287.771 125.144 288.051 124.687L289.345 125.829C289.015 126.4 288.507 126.883 287.822 127.276C287.15 127.669 286.306 127.866 285.291 127.866ZM285.138 119.167C284.77 119.167 284.428 119.231 284.11 119.358C283.806 119.485 283.539 119.669 283.311 119.91C283.095 120.138 282.924 120.411 282.797 120.728C282.67 121.045 282.607 121.394 282.607 121.775V121.908H287.537V121.718C287.537 120.944 287.315 120.328 286.87 119.872C286.439 119.402 285.862 119.167 285.138 119.167ZM292.288 113.552H294.363V119.491H294.477C294.769 118.895 295.156 118.431 295.638 118.101C296.12 117.759 296.723 117.587 297.446 117.587C298.601 117.587 299.521 118.019 300.206 118.882C300.891 119.745 301.234 121.026 301.234 122.727C301.234 124.427 300.891 125.709 300.206 126.572C299.521 127.435 298.601 127.866 297.446 127.866C296.723 127.866 296.12 127.701 295.638 127.371C295.156 127.029 294.769 126.559 294.477 125.963H294.363V127.638H292.288V113.552ZM296.59 126.172C297.376 126.172 297.979 125.931 298.398 125.449C298.829 124.967 299.045 124.326 299.045 123.526V121.927C299.045 121.128 298.829 120.487 298.398 120.005C297.979 119.523 297.376 119.282 296.59 119.282C296.285 119.282 296 119.32 295.733 119.396C295.467 119.472 295.232 119.586 295.029 119.738C294.826 119.891 294.661 120.081 294.534 120.309C294.42 120.525 294.363 120.785 294.363 121.09V124.364C294.363 124.668 294.42 124.935 294.534 125.163C294.661 125.379 294.826 125.563 295.029 125.715C295.232 125.867 295.467 125.982 295.733 126.058C296 126.134 296.285 126.172 296.59 126.172ZM307.927 127.866C306.861 127.866 305.941 127.695 305.167 127.352C304.405 127.01 303.79 126.553 303.32 125.982L304.596 124.84C305.027 125.309 305.509 125.671 306.042 125.925C306.588 126.166 307.229 126.286 307.965 126.286C308.637 126.286 309.177 126.172 309.583 125.944C310.002 125.715 310.211 125.36 310.211 124.878C310.211 124.675 310.173 124.503 310.097 124.364C310.021 124.224 309.913 124.11 309.773 124.021C309.634 123.932 309.469 123.863 309.278 123.812C309.101 123.761 308.91 123.723 308.707 123.698L307.146 123.45C306.766 123.399 306.379 123.317 305.985 123.203C305.592 123.088 305.237 122.93 304.919 122.727C304.615 122.511 304.361 122.238 304.158 121.908C303.968 121.578 303.872 121.16 303.872 120.652C303.872 119.65 304.253 118.888 305.014 118.368C305.789 117.848 306.804 117.587 308.06 117.587C308.974 117.587 309.76 117.727 310.42 118.006C311.093 118.273 311.651 118.647 312.095 119.129L310.934 120.347C310.68 120.056 310.319 119.789 309.849 119.548C309.38 119.294 308.758 119.167 307.984 119.167C306.601 119.167 305.909 119.605 305.909 120.481C305.909 120.899 306.055 121.191 306.347 121.356C306.651 121.509 307.007 121.61 307.413 121.661L308.974 121.908C309.367 121.972 309.754 122.054 310.135 122.156C310.528 122.257 310.877 122.416 311.182 122.632C311.499 122.835 311.753 123.101 311.943 123.431C312.146 123.761 312.248 124.18 312.248 124.687C312.248 125.677 311.861 126.458 311.086 127.029C310.325 127.587 309.272 127.866 307.927 127.866ZM319.93 116.027C319.397 116.027 319.023 115.919 318.807 115.703C318.604 115.487 318.502 115.221 318.502 114.904V114.504C318.502 114.187 318.604 113.92 318.807 113.704C319.023 113.489 319.391 113.381 319.911 113.381C320.444 113.381 320.812 113.489 321.015 113.704C321.231 113.92 321.339 114.187 321.339 114.504V114.904C321.339 115.221 321.231 115.487 321.015 115.703C320.812 115.919 320.45 116.027 319.93 116.027ZM315.533 125.963H318.883V119.491H315.533V117.816H320.958V125.963H324.099V127.638H315.533V125.963ZM331.324 127.638C330.461 127.638 329.827 127.409 329.421 126.952C329.015 126.483 328.812 125.88 328.812 125.144V119.491H325.785V117.816H327.936C328.304 117.816 328.564 117.746 328.717 117.607C328.869 117.454 328.945 117.188 328.945 116.807V114.352H330.887V117.816H335.074V119.491H330.887V125.963H335.074V127.638H331.324ZM342.357 127.866C341.608 127.866 340.936 127.746 340.339 127.504C339.743 127.263 339.242 126.921 338.835 126.477C338.429 126.032 338.119 125.499 337.903 124.878C337.687 124.243 337.579 123.533 337.579 122.746C337.579 121.959 337.687 121.248 337.903 120.614C338.131 119.979 338.442 119.44 338.835 118.996C339.242 118.539 339.73 118.19 340.301 117.949C340.872 117.708 341.507 117.587 342.205 117.587C342.89 117.587 343.512 117.708 344.07 117.949C344.628 118.178 345.104 118.507 345.498 118.939C345.891 119.37 346.189 119.884 346.392 120.481C346.608 121.077 346.716 121.737 346.716 122.46V123.241H339.673V123.564C339.673 124.338 339.914 124.973 340.396 125.468C340.879 125.95 341.545 126.191 342.395 126.191C343.029 126.191 343.569 126.058 344.013 125.791C344.47 125.512 344.838 125.144 345.117 124.687L346.411 125.829C346.081 126.4 345.574 126.883 344.888 127.276C344.216 127.669 343.372 127.866 342.357 127.866ZM342.205 119.167C341.837 119.167 341.494 119.231 341.177 119.358C340.872 119.485 340.606 119.669 340.377 119.91C340.162 120.138 339.99 120.411 339.863 120.728C339.736 121.045 339.673 121.394 339.673 121.775V121.908H344.603V121.718C344.603 120.944 344.381 120.328 343.937 119.872C343.505 119.402 342.928 119.167 342.205 119.167ZM353.561 127.828C352.952 127.828 352.52 127.701 352.266 127.447C352.025 127.194 351.905 126.883 351.905 126.515V126.02C351.905 125.652 352.025 125.341 352.266 125.087C352.52 124.833 352.952 124.706 353.561 124.706C354.17 124.706 354.595 124.833 354.836 125.087C355.09 125.341 355.217 125.652 355.217 126.02V126.515C355.217 126.883 355.09 127.194 354.836 127.447C354.595 127.701 354.17 127.828 353.561 127.828ZM365.336 127.866C364.6 127.866 363.94 127.746 363.356 127.504C362.785 127.263 362.296 126.921 361.89 126.477C361.497 126.032 361.192 125.493 360.977 124.859C360.774 124.224 360.672 123.514 360.672 122.727C360.672 121.94 360.774 121.229 360.977 120.595C361.192 119.96 361.497 119.421 361.89 118.977C362.296 118.533 362.785 118.19 363.356 117.949C363.94 117.708 364.593 117.587 365.317 117.587C366.332 117.587 367.144 117.803 367.753 118.235C368.375 118.666 368.838 119.224 369.143 119.91L367.525 120.785C367.347 120.328 367.074 119.967 366.706 119.7C366.351 119.434 365.888 119.301 365.317 119.301C364.53 119.301 363.921 119.542 363.489 120.024C363.058 120.493 362.842 121.122 362.842 121.908V123.545C362.842 124.319 363.058 124.947 363.489 125.43C363.921 125.912 364.543 126.153 365.355 126.153C365.964 126.153 366.459 126.013 366.839 125.734C367.233 125.455 367.544 125.074 367.772 124.592L369.295 125.525C368.978 126.21 368.495 126.775 367.848 127.219C367.201 127.65 366.364 127.866 365.336 127.866ZM376.387 127.866C375.664 127.866 375.01 127.746 374.427 127.504C373.856 127.263 373.367 126.921 372.961 126.477C372.568 126.032 372.263 125.493 372.047 124.859C371.832 124.224 371.724 123.514 371.724 122.727C371.724 121.94 371.832 121.229 372.047 120.595C372.263 119.96 372.568 119.421 372.961 118.977C373.367 118.533 373.856 118.19 374.427 117.949C375.01 117.708 375.664 117.587 376.387 117.587C377.111 117.587 377.758 117.708 378.329 117.949C378.912 118.19 379.401 118.533 379.794 118.977C380.2 119.421 380.511 119.96 380.727 120.595C380.943 121.229 381.051 121.94 381.051 122.727C381.051 123.514 380.943 124.224 380.727 124.859C380.511 125.493 380.2 126.032 379.794 126.477C379.401 126.921 378.912 127.263 378.329 127.504C377.758 127.746 377.111 127.866 376.387 127.866ZM376.387 126.229C377.149 126.229 377.751 126.001 378.196 125.544C378.652 125.074 378.881 124.383 378.881 123.469V121.984C378.881 121.071 378.652 120.386 378.196 119.929C377.751 119.459 377.149 119.224 376.387 119.224C375.626 119.224 375.017 119.459 374.56 119.929C374.116 120.386 373.894 121.071 373.894 121.984V123.469C373.894 124.383 374.116 125.074 374.56 125.544C375.017 126.001 375.626 126.229 376.387 126.229ZM382.928 127.638V117.816H384.698V119.091H384.793C384.945 118.672 385.161 118.317 385.44 118.025C385.732 117.733 386.144 117.587 386.677 117.587C387.198 117.587 387.597 117.733 387.877 118.025C388.168 118.304 388.352 118.691 388.429 119.186H388.505C388.682 118.742 388.93 118.368 389.247 118.063C389.564 117.746 390.021 117.587 390.618 117.587C391.379 117.587 391.906 117.854 392.197 118.387C392.502 118.92 392.654 119.7 392.654 120.728V127.638H390.884V120.995C390.884 120.309 390.802 119.84 390.637 119.586C390.472 119.32 390.205 119.186 389.837 119.186C389.507 119.186 389.228 119.301 389 119.529C388.784 119.745 388.676 120.075 388.676 120.519V127.638H386.906V120.995C386.906 120.309 386.823 119.84 386.658 119.586C386.506 119.32 386.246 119.186 385.878 119.186C385.535 119.186 385.25 119.301 385.021 119.529C384.806 119.745 384.698 120.075 384.698 120.519V127.638H382.928ZM395.083 130.264L401.498 113.171H403.344L396.93 130.264H395.083ZM412.664 125.963H412.569C412.467 126.216 412.334 126.464 412.169 126.705C412.017 126.933 411.826 127.136 411.598 127.314C411.369 127.479 411.103 127.612 410.798 127.714C410.494 127.815 410.138 127.866 409.732 127.866C408.743 127.866 407.943 127.543 407.334 126.895C406.725 126.248 406.42 125.328 406.42 124.135V117.816H408.495V123.831C408.495 125.392 409.174 126.172 410.532 126.172C410.798 126.172 411.058 126.14 411.312 126.077C411.566 126.001 411.794 125.893 411.997 125.753C412.201 125.614 412.359 125.442 412.473 125.239C412.6 125.024 412.664 124.77 412.664 124.478V117.816H414.738V127.638H412.664V125.963ZM422.059 127.866C420.993 127.866 420.073 127.695 419.299 127.352C418.538 127.01 417.922 126.553 417.453 125.982L418.728 124.84C419.16 125.309 419.642 125.671 420.175 125.925C420.721 126.166 421.361 126.286 422.097 126.286C422.77 126.286 423.309 126.172 423.715 125.944C424.134 125.715 424.343 125.36 424.343 124.878C424.343 124.675 424.305 124.503 424.229 124.364C424.153 124.224 424.045 124.11 423.906 124.021C423.766 123.932 423.601 123.863 423.411 123.812C423.233 123.761 423.043 123.723 422.84 123.698L421.279 123.45C420.898 123.399 420.511 123.317 420.118 123.203C419.724 123.088 419.369 122.93 419.052 122.727C418.747 122.511 418.494 122.238 418.29 121.908C418.1 121.578 418.005 121.16 418.005 120.652C418.005 119.65 418.386 118.888 419.147 118.368C419.921 117.848 420.936 117.587 422.193 117.587C423.106 117.587 423.893 117.727 424.553 118.006C425.225 118.273 425.784 118.647 426.228 119.129L425.067 120.347C424.813 120.056 424.451 119.789 423.982 119.548C423.512 119.294 422.89 119.167 422.116 119.167C420.733 119.167 420.042 119.605 420.042 120.481C420.042 120.899 420.188 121.191 420.479 121.356C420.784 121.509 421.139 121.61 421.545 121.661L423.106 121.908C423.5 121.972 423.887 122.054 424.267 122.156C424.661 122.257 425.01 122.416 425.314 122.632C425.631 122.835 425.885 123.101 426.076 123.431C426.279 123.761 426.38 124.18 426.38 124.687C426.38 125.677 425.993 126.458 425.219 127.029C424.458 127.587 423.404 127.866 422.059 127.866ZM433.663 127.866C432.914 127.866 432.242 127.746 431.645 127.504C431.049 127.263 430.548 126.921 430.142 126.477C429.735 126.032 429.425 125.499 429.209 124.878C428.993 124.243 428.885 123.533 428.885 122.746C428.885 121.959 428.993 121.248 429.209 120.614C429.437 119.979 429.748 119.44 430.142 118.996C430.548 118.539 431.036 118.19 431.607 117.949C432.178 117.708 432.813 117.587 433.511 117.587C434.196 117.587 434.818 117.708 435.376 117.949C435.934 118.178 436.41 118.507 436.804 118.939C437.197 119.37 437.495 119.884 437.698 120.481C437.914 121.077 438.022 121.737 438.022 122.46V123.241H430.979V123.564C430.979 124.338 431.22 124.973 431.702 125.468C432.185 125.95 432.851 126.191 433.701 126.191C434.335 126.191 434.875 126.058 435.319 125.791C435.776 125.512 436.144 125.144 436.423 124.687L437.717 125.829C437.387 126.4 436.88 126.883 436.194 127.276C435.522 127.669 434.678 127.866 433.663 127.866ZM433.511 119.167C433.143 119.167 432.8 119.231 432.483 119.358C432.178 119.485 431.912 119.669 431.683 119.91C431.468 120.138 431.296 120.411 431.169 120.728C431.042 121.045 430.979 121.394 430.979 121.775V121.908H435.909V121.718C435.909 120.944 435.687 120.328 435.243 119.872C434.811 119.402 434.234 119.167 433.511 119.167ZM440.603 125.963H443.211V119.491H440.603V117.816H445.286V120.424H445.4C445.489 120.081 445.615 119.751 445.78 119.434C445.945 119.117 446.155 118.844 446.409 118.615C446.662 118.374 446.973 118.184 447.341 118.044C447.709 117.892 448.141 117.816 448.636 117.816H449.816V119.795H447.874C447.113 119.795 446.491 120.024 446.009 120.481C445.527 120.925 445.286 121.528 445.286 122.289V125.963H448.845V127.638H440.603V125.963ZM456.299 127.866C455.233 127.866 454.313 127.695 453.539 127.352C452.778 127.01 452.162 126.553 451.693 125.982L452.968 124.84C453.399 125.309 453.882 125.671 454.415 125.925C454.96 126.166 455.601 126.286 456.337 126.286C457.01 126.286 457.549 126.172 457.955 125.944C458.374 125.715 458.583 125.36 458.583 124.878C458.583 124.675 458.545 124.503 458.469 124.364C458.393 124.224 458.285 124.11 458.145 124.021C458.006 123.932 457.841 123.863 457.65 123.812C457.473 123.761 457.282 123.723 457.079 123.698L455.519 123.45C455.138 123.399 454.751 123.317 454.358 123.203C453.964 123.088 453.609 122.93 453.292 122.727C452.987 122.511 452.733 122.238 452.53 121.908C452.34 121.578 452.245 121.16 452.245 120.652C452.245 119.65 452.625 118.888 453.387 118.368C454.161 117.848 455.176 117.587 456.432 117.587C457.346 117.587 458.133 117.727 458.793 118.006C459.465 118.273 460.023 118.647 460.468 119.129L459.306 120.347C459.053 120.056 458.691 119.789 458.222 119.548C457.752 119.294 457.13 119.167 456.356 119.167C454.973 119.167 454.281 119.605 454.281 120.481C454.281 120.899 454.427 121.191 454.719 121.356C455.024 121.509 455.379 121.61 455.785 121.661L457.346 121.908C457.739 121.972 458.126 122.054 458.507 122.156C458.9 122.257 459.249 122.416 459.554 122.632C459.871 122.835 460.125 123.101 460.315 123.431C460.518 123.761 460.62 124.18 460.62 124.687C460.62 125.677 460.233 126.458 459.459 127.029C458.697 127.587 457.644 127.866 456.299 127.866ZM463.563 130.264L469.977 113.171H471.824L465.409 130.264H463.563ZM475.071 127.638V125.867H478.802V115.912H478.65L475.566 119.205L474.253 118.025L477.641 114.352H480.934V125.867H484.151V127.638H475.071ZM491.7 127.638V125.049H485.38V123.222L490.939 114.352H493.737V123.374H495.602V125.049H493.737V127.638H491.7ZM487.189 123.374H491.7V116.312H491.586L487.189 123.374ZM497.898 127.638V125.867H501.629V115.912H501.476L498.393 119.205L497.079 118.025L500.467 114.352H503.76V125.867H506.977V127.638H497.898ZM510.853 127.638L515.783 116.122H510.605V118.577H508.759V114.352H517.915V116.217L513.118 127.638H510.853ZM524.76 127.866C523.922 127.866 523.192 127.714 522.571 127.409C521.962 127.092 521.454 126.642 521.048 126.058C520.654 125.474 520.363 124.757 520.172 123.907C519.982 123.057 519.887 122.086 519.887 120.995C519.887 119.916 519.982 118.952 520.172 118.101C520.363 117.239 520.654 116.515 521.048 115.931C521.454 115.348 521.962 114.904 522.571 114.599C523.192 114.282 523.922 114.123 524.76 114.123C525.597 114.123 526.32 114.282 526.93 114.599C527.551 114.904 528.059 115.348 528.452 115.931C528.858 116.515 529.157 117.239 529.347 118.101C529.537 118.952 529.632 119.916 529.632 120.995C529.632 122.086 529.537 123.057 529.347 123.907C529.157 124.757 528.858 125.474 528.452 126.058C528.059 126.642 527.551 127.092 526.93 127.409C526.32 127.714 525.597 127.866 524.76 127.866ZM524.76 126.115C525.724 126.115 526.409 125.76 526.815 125.049C527.234 124.326 527.443 123.355 527.443 122.137V119.853C527.443 118.634 527.234 117.67 526.815 116.959C526.409 116.236 525.724 115.874 524.76 115.874C524.277 115.874 523.865 115.97 523.522 116.16C523.18 116.338 522.901 116.604 522.685 116.959C522.469 117.302 522.31 117.721 522.209 118.216C522.12 118.698 522.076 119.243 522.076 119.853V122.137C522.076 122.746 522.12 123.298 522.209 123.793C522.31 124.275 522.469 124.694 522.685 125.049C522.901 125.392 523.18 125.658 523.522 125.848C523.865 126.026 524.277 126.115 524.76 126.115ZM524.76 122.118C524.315 122.118 524.005 122.029 523.827 121.851C523.662 121.674 523.579 121.458 523.579 121.204V120.785C523.579 120.531 523.662 120.316 523.827 120.138C524.005 119.96 524.315 119.872 524.76 119.872C525.204 119.872 525.508 119.96 525.673 120.138C525.851 120.316 525.94 120.531 525.94 120.785V121.204C525.94 121.458 525.851 121.674 525.673 121.851C525.508 122.029 525.204 122.118 524.76 122.118ZM533.679 127.638L538.609 116.122H533.432V118.577H531.585V114.352H540.741V116.217L535.944 127.638H533.679Z" fill="#6D7178"/>
</g>
<defs>
<clipPath id="clip0_3959_11462">
<rect width="460" height="200" fill="white"/>
</clipPath>
</defs>
</svg>
