<svg width="460" height="200" viewBox="0 0 460 200" fill="none" xmlns="http://www.w3.org/2000/svg">
<g clip-path="url(#clip0_6821_16894)">
<rect width="460" height="200" fill="#0F0F0F"/>
<rect x="70.5861" y="45.2931" width="498.345" height="109.448" rx="11.8966" fill="#0F0F0F"/>
<rect x="70.5861" y="45.2931" width="498.345" height="109.448" rx="11.8966" stroke="#2A2A2A" stroke-width="1.58621"/>
<path d="M90.415 77.8103C90.415 79.0602 90.6612 80.2977 91.1395 81.4524C91.6178 82.6071 92.3188 83.6563 93.2026 84.54C94.0863 85.4238 95.1355 86.1248 96.2902 86.6031C97.4449 87.0814 98.6825 87.3276 99.9323 87.3276C101.182 87.3276 102.42 87.0814 103.574 86.6031C104.729 86.1248 105.778 85.4238 106.662 84.54C107.546 83.6563 108.247 82.6071 108.725 81.4524C109.203 80.2977 109.45 79.0602 109.45 77.8103C109.45 75.2862 108.447 72.8655 106.662 71.0806C104.877 69.2958 102.456 68.2931 99.9323 68.2931C97.4082 68.2931 94.9874 69.2958 93.2026 71.0806C91.4177 72.8655 90.415 75.2862 90.415 77.8103Z" stroke="#DFDFDF" stroke-width="2.11494" stroke-linecap="round" stroke-linejoin="round"/>
<path d="M91.0469 74.6379H108.812" stroke="#DFDFDF" stroke-width="2.11494" stroke-linecap="round" stroke-linejoin="round"/>
<path d="M91.0469 80.9828H108.812" stroke="#DFDFDF" stroke-width="2.11494" stroke-linecap="round" stroke-linejoin="round"/>
<path d="M99.4051 68.2931C97.6237 71.1479 96.6792 74.4453 96.6792 77.8103C96.6792 81.1753 97.6237 84.4728 99.4051 87.3276" stroke="black" stroke-width="2.11494" stroke-linecap="round" stroke-linejoin="round"/>
<path d="M100.459 68.2931C102.24 71.1479 103.185 74.4453 103.185 77.8103C103.185 81.1753 102.24 84.4728 100.459 87.3276" stroke="black" stroke-width="2.11494" stroke-linecap="round" stroke-linejoin="round"/>
<path d="M120.518 85.8103H117.931L123.743 69.6599H126.558L132.37 85.8103H129.784L125.218 72.5935H125.091L120.518 85.8103ZM120.951 79.4858H129.342V81.5362H120.951V79.4858ZM134.702 85.8103V69.6599H140.459C141.716 69.6599 142.757 69.8886 143.582 70.346C144.407 70.8033 145.025 71.429 145.435 72.2228C145.845 73.0114 146.05 73.8999 146.05 74.8883C146.05 75.8819 145.843 76.7757 145.427 77.5695C145.017 78.3581 144.397 78.9837 143.566 79.4464C142.741 79.9038 141.703 80.1324 140.451 80.1324H136.493V78.0663H140.23C141.024 78.0663 141.668 77.9296 142.163 77.6563C142.657 77.3776 143.019 76.9991 143.251 76.5207C143.482 76.0423 143.598 75.4981 143.598 74.8883C143.598 74.2784 143.482 73.7369 143.251 73.2638C143.019 72.7906 142.654 72.42 142.155 72.1518C141.66 71.8837 141.009 71.7497 140.199 71.7497H137.139V85.8103H134.702ZM151.344 69.6599V85.8103H148.907V69.6599H151.344ZM169.657 76.6547L167.52 77.0333C167.431 76.7599 167.289 76.4996 167.094 76.2526C166.905 76.0055 166.647 75.8031 166.321 75.6453C165.995 75.4876 165.588 75.4088 165.099 75.4088C164.431 75.4088 163.874 75.5586 163.427 75.8583C162.98 76.1527 162.757 76.5338 162.757 77.0017C162.757 77.4065 162.907 77.7325 163.206 77.9796C163.506 78.2267 163.99 78.4291 164.657 78.5868L166.581 79.0284C167.696 79.286 168.527 79.6829 169.073 80.2192C169.62 80.7554 169.894 81.452 169.894 82.309C169.894 83.0345 169.683 83.6811 169.263 84.2489C168.847 84.8115 168.266 85.2531 167.52 85.5738C166.779 85.8945 165.919 86.0548 164.941 86.0548C163.585 86.0548 162.478 85.7657 161.621 85.1874C160.764 84.6038 160.239 83.7758 160.044 82.7033L162.323 82.3563C162.465 82.9504 162.757 83.3999 163.198 83.7048C163.64 84.0045 164.216 84.1543 164.925 84.1543C165.698 84.1543 166.316 83.9939 166.779 83.6733C167.241 83.3473 167.473 82.9504 167.473 82.4825C167.473 82.1039 167.331 81.7859 167.047 81.5283C166.768 81.2707 166.34 81.0761 165.761 80.9447L163.711 80.4952C162.581 80.2376 161.745 79.8275 161.203 79.265C160.667 78.7025 160.399 77.9901 160.399 77.1279C160.399 76.4129 160.599 75.7873 160.998 75.251C161.398 74.7148 161.95 74.2968 162.654 73.9972C163.359 73.6922 164.166 73.5398 165.075 73.5398C166.384 73.5398 167.415 73.8237 168.167 74.3915C168.918 74.954 169.415 75.7084 169.657 76.6547ZM177.588 86.0548C176.416 86.0548 175.407 85.7893 174.56 85.2583C173.719 84.7221 173.072 83.9834 172.62 83.0424C172.168 82.1013 171.942 81.0236 171.942 79.8091C171.942 78.5789 172.173 77.4933 172.636 76.5522C173.099 75.6059 173.75 74.8672 174.592 74.3363C175.433 73.8053 176.424 73.5398 177.565 73.5398C178.485 73.5398 179.305 73.7106 180.025 74.0524C180.745 74.3888 181.326 74.862 181.768 75.4718C182.215 76.0817 182.48 76.7941 182.564 77.6089H180.27C180.143 77.0411 179.854 76.5522 179.402 76.1421C178.955 75.7321 178.356 75.527 177.604 75.527C176.947 75.527 176.371 75.7005 175.877 76.0475C175.388 76.3892 175.007 76.8782 174.734 77.5143C174.46 78.1452 174.324 78.8917 174.324 79.7539C174.324 80.6372 174.458 81.3995 174.726 82.0409C174.994 82.6822 175.372 83.1791 175.861 83.5313C176.355 83.8835 176.936 84.0597 177.604 84.0597C178.051 84.0597 178.456 83.9782 178.819 83.8152C179.187 83.647 179.494 83.4078 179.741 83.0976C179.994 82.7874 180.17 82.4141 180.27 81.9778H182.564C182.48 82.7611 182.225 83.4603 181.799 84.0754C181.374 84.6905 180.803 85.1742 180.088 85.5265C179.378 85.8787 178.545 86.0548 177.588 86.0548ZM185.086 85.8103V73.6975H187.365V75.6217H187.491C187.712 74.9698 188.101 74.4572 188.658 74.0839C189.221 73.7054 189.857 73.5161 190.567 73.5161C190.714 73.5161 190.887 73.5214 191.087 73.5319C191.292 73.5424 191.452 73.5555 191.568 73.5713V75.8267C191.474 75.8004 191.305 75.7715 191.063 75.74C190.822 75.7032 190.58 75.6848 190.338 75.6848C189.781 75.6848 189.284 75.8031 188.847 76.0396C188.416 76.271 188.075 76.5943 187.822 77.0096C187.57 77.4197 187.444 77.8876 187.444 78.4133V85.8103H185.086ZM197.025 86.0785C196.258 86.0785 195.564 85.9365 194.943 85.6526C194.323 85.3635 193.831 84.9455 193.469 84.3988C193.111 83.852 192.932 83.1817 192.932 82.3878C192.932 81.7044 193.064 81.1419 193.327 80.7002C193.59 80.2586 193.944 79.909 194.391 79.6514C194.838 79.3938 195.338 79.1993 195.89 79.0678C196.442 78.9364 197.004 78.8365 197.577 78.7682C198.303 78.6841 198.892 78.6157 199.344 78.5631C199.796 78.5053 200.124 78.4133 200.329 78.2871C200.535 78.161 200.637 77.9559 200.637 77.672V77.6168C200.637 76.9281 200.443 76.3945 200.053 76.016C199.67 75.6374 199.097 75.4482 198.334 75.4482C197.54 75.4482 196.915 75.6243 196.457 75.9765C196.005 76.3235 195.693 76.7099 195.519 77.1358L193.303 76.6311C193.566 75.8951 193.95 75.301 194.454 74.8488C194.964 74.3915 195.551 74.0603 196.213 73.8552C196.875 73.6449 197.572 73.5398 198.303 73.5398C198.786 73.5398 199.299 73.5976 199.841 73.7133C200.387 73.8237 200.897 74.0287 201.37 74.3284C201.849 74.628 202.241 75.0565 202.545 75.6138C202.85 76.1658 203.003 76.8834 203.003 77.7667V85.8103H200.7V84.1543H200.605C200.453 84.4592 200.224 84.7589 199.919 85.0533C199.614 85.3477 199.223 85.5922 198.744 85.7867C198.266 85.9812 197.693 86.0785 197.025 86.0785ZM197.538 84.1858C198.19 84.1858 198.747 84.057 199.21 83.7994C199.678 83.5418 200.032 83.2053 200.274 82.79C200.521 82.3694 200.645 81.9199 200.645 81.4415V79.8801C200.561 79.9642 200.398 80.0431 200.156 80.1167C199.919 80.185 199.649 80.2455 199.344 80.2981C199.039 80.3454 198.742 80.3901 198.453 80.4321C198.163 80.4689 197.922 80.5005 197.727 80.5267C197.27 80.5846 196.852 80.6818 196.473 80.8185C196.1 80.9552 195.8 81.1524 195.574 81.41C195.353 81.6623 195.243 81.9988 195.243 82.4194C195.243 83.0029 195.459 83.4446 195.89 83.7442C196.321 84.0386 196.87 84.1858 197.538 84.1858ZM206.143 90.3527V73.6975H208.446V75.6611H208.643C208.78 75.4088 208.977 75.117 209.235 74.7858C209.492 74.4545 209.85 74.1654 210.307 73.9183C210.765 73.666 211.369 73.5398 212.121 73.5398C213.099 73.5398 213.972 73.7869 214.739 74.2811C215.507 74.7752 216.109 75.4876 216.545 76.4182C216.987 77.3487 217.207 78.4685 217.207 79.7776C217.207 81.0867 216.989 82.2091 216.553 83.1449C216.117 84.0754 215.517 84.7931 214.755 85.2978C213.993 85.7972 213.122 86.0469 212.145 86.0469C211.409 86.0469 210.807 85.9234 210.339 85.6763C209.876 85.4292 209.513 85.14 209.25 84.8088C208.988 84.4776 208.785 84.1832 208.643 83.9256H208.501V90.3527H206.143ZM208.454 79.7539C208.454 80.6056 208.578 81.3521 208.825 81.9935C209.072 82.6349 209.429 83.137 209.897 83.4998C210.365 83.8573 210.938 84.036 211.616 84.036C212.321 84.036 212.91 83.8494 213.383 83.4761C213.856 83.0976 214.213 82.585 214.455 81.9383C214.702 81.2917 214.826 80.5635 214.826 79.7539C214.826 78.9548 214.705 78.2372 214.463 77.6011C214.227 76.9649 213.869 76.4628 213.391 76.0948C212.917 75.7268 212.326 75.5428 211.616 75.5428C210.933 75.5428 210.355 75.7189 209.881 76.0712C209.413 76.4234 209.059 76.915 208.817 77.5459C208.575 78.1767 208.454 78.9128 208.454 79.7539ZM219.849 85.8103V73.6975H222.207V85.8103H219.849ZM221.04 71.8285C220.63 71.8285 220.278 71.6918 219.983 71.4184C219.694 71.1398 219.55 70.8086 219.55 70.4248C219.55 70.0358 219.694 69.7046 219.983 69.4312C220.278 69.1525 220.63 69.0132 221.04 69.0132C221.45 69.0132 221.8 69.1525 222.089 69.4312C222.383 69.7046 222.53 70.0358 222.53 70.4248C222.53 70.8086 222.383 71.1398 222.089 71.4184C221.8 71.6918 221.45 71.8285 221.04 71.8285ZM227.737 78.6183V85.8103H225.379V73.6975H227.643V75.669H227.792C228.071 75.0276 228.507 74.5124 229.101 74.1233C229.701 73.7343 230.455 73.5398 231.365 73.5398C232.19 73.5398 232.913 73.7133 233.533 74.0603C234.154 74.402 234.635 74.9119 234.976 75.5901C235.318 76.2683 235.489 77.1069 235.489 78.1058V85.8103H233.131V78.3896C233.131 77.5117 232.902 76.8256 232.445 76.3314C231.988 75.832 231.359 75.5822 230.56 75.5822C230.014 75.5822 229.527 75.7005 229.101 75.9371C228.681 76.1737 228.347 76.5207 228.1 76.9781C227.858 77.4302 227.737 77.9769 227.737 78.6183ZM243.73 90.605C242.768 90.605 241.94 90.4788 241.246 90.2265C240.557 89.9741 239.995 89.6403 239.558 89.225C239.122 88.8096 238.796 88.3549 238.58 87.8607L240.607 87.0248C240.749 87.2561 240.938 87.5006 241.175 87.7582C241.417 88.021 241.743 88.2445 242.153 88.4285C242.568 88.6125 243.102 88.7045 243.754 88.7045C244.647 88.7045 245.386 88.4863 245.97 88.05C246.553 87.6189 246.845 86.9302 246.845 85.9838V83.6023H246.695C246.553 83.8599 246.348 84.1464 246.08 84.4618C245.817 84.7773 245.454 85.0507 244.992 85.282C244.529 85.5133 243.927 85.629 243.186 85.629C242.229 85.629 241.367 85.4055 240.599 84.9587C239.837 84.5065 239.232 83.8415 238.785 82.9635C238.344 82.0803 238.123 80.9946 238.123 79.7066C238.123 78.4186 238.341 77.3145 238.778 76.3945C239.219 75.4745 239.824 74.77 240.591 74.2811C241.359 73.7869 242.229 73.5398 243.202 73.5398C243.953 73.5398 244.561 73.666 245.023 73.9183C245.486 74.1654 245.846 74.4545 246.104 74.7858C246.366 75.117 246.569 75.4088 246.711 75.6611H246.884V73.6975H249.195V86.0785C249.195 87.1194 248.953 87.9737 248.469 88.6414C247.986 89.3091 247.331 89.8033 246.506 90.124C245.686 90.4447 244.76 90.605 243.73 90.605ZM243.706 83.6733C244.384 83.6733 244.957 83.5155 245.425 83.2001C245.899 82.8794 246.256 82.422 246.498 81.8279C246.745 81.2286 246.869 80.511 246.869 79.6751C246.869 78.8602 246.748 78.1426 246.506 77.5222C246.264 76.9018 245.909 76.4182 245.441 76.0712C244.973 75.7189 244.395 75.5428 243.706 75.5428C242.997 75.5428 242.405 75.7268 241.932 76.0948C241.459 76.4576 241.101 76.9518 240.859 77.5774C240.623 78.203 240.505 78.9022 240.505 79.6751C240.505 80.4689 240.625 81.1655 240.867 81.7648C241.109 82.3642 241.467 82.8321 241.94 83.1685C242.418 83.505 243.007 83.6733 243.706 83.6733Z" fill="#DFDFDF"/>
<rect x="87.2412" y="106.362" width="465.034" height="31.7241" rx="6.34483" fill="#1D1D1D"/>
<path d="M98.3572 113.552H100.432V119.491H100.527C100.629 119.237 100.756 118.996 100.908 118.768C101.073 118.527 101.269 118.324 101.498 118.159C101.726 117.981 101.993 117.841 102.297 117.74C102.602 117.638 102.957 117.588 103.363 117.588C104.353 117.588 105.153 117.911 105.762 118.558C106.371 119.206 106.675 120.126 106.675 121.318V127.638H104.601V121.623C104.601 120.062 103.922 119.282 102.564 119.282C102.297 119.282 102.037 119.32 101.783 119.396C101.53 119.459 101.301 119.561 101.098 119.701C100.895 119.84 100.73 120.018 100.603 120.233C100.489 120.449 100.432 120.697 100.432 120.976V127.638H98.3572V113.552ZM114.472 127.638C113.609 127.638 112.975 127.409 112.569 126.953C112.162 126.483 111.959 125.88 111.959 125.144V119.491H108.933V117.816H111.084C111.452 117.816 111.712 117.746 111.864 117.607C112.017 117.454 112.093 117.188 112.093 116.807V114.352H114.034V117.816H118.222V119.491H114.034V125.963H118.222V127.638H114.472ZM125.885 127.638C125.022 127.638 124.388 127.409 123.982 126.953C123.576 126.483 123.373 125.88 123.373 125.144V119.491H120.346V117.816H122.497C122.865 117.816 123.125 117.746 123.278 117.607C123.43 117.454 123.506 117.188 123.506 116.807V114.352H125.447V117.816H129.635V119.491H125.447V125.963H129.635V127.638H125.885ZM132.502 117.816H134.577V119.491H134.691C134.983 118.895 135.37 118.432 135.852 118.102C136.334 117.759 136.937 117.588 137.66 117.588C138.815 117.588 139.735 118.019 140.42 118.882C141.105 119.745 141.448 121.027 141.448 122.727C141.448 124.427 141.105 125.709 140.42 126.572C139.735 127.435 138.815 127.866 137.66 127.866C136.937 127.866 136.334 127.701 135.852 127.371C135.37 127.029 134.983 126.559 134.691 125.963H134.577V131.445H132.502V117.816ZM136.804 126.172C137.59 126.172 138.193 125.931 138.612 125.449C139.043 124.967 139.259 124.326 139.259 123.526V121.928C139.259 121.128 139.043 120.487 138.612 120.005C138.193 119.523 137.59 119.282 136.804 119.282C136.499 119.282 136.214 119.32 135.947 119.396C135.681 119.472 135.446 119.586 135.243 119.739C135.04 119.891 134.875 120.081 134.748 120.31C134.634 120.525 134.577 120.785 134.577 121.09V124.364C134.577 124.669 134.634 124.935 134.748 125.163C134.875 125.379 135.04 125.563 135.243 125.715C135.446 125.868 135.681 125.982 135.947 126.058C136.214 126.134 136.499 126.172 136.804 126.172ZM148.141 127.866C147.075 127.866 146.155 127.695 145.381 127.352C144.619 127.01 144.004 126.553 143.534 125.982L144.81 124.84C145.241 125.309 145.723 125.671 146.256 125.925C146.802 126.166 147.443 126.286 148.179 126.286C148.851 126.286 149.391 126.172 149.797 125.944C150.215 125.715 150.425 125.36 150.425 124.878C150.425 124.675 150.387 124.504 150.311 124.364C150.234 124.224 150.127 124.11 149.987 124.021C149.847 123.933 149.682 123.863 149.492 123.812C149.314 123.761 149.124 123.723 148.921 123.698L147.36 123.45C146.98 123.4 146.593 123.317 146.199 123.203C145.806 123.089 145.45 122.93 145.133 122.727C144.829 122.511 144.575 122.238 144.372 121.909C144.182 121.579 144.086 121.16 144.086 120.652C144.086 119.65 144.467 118.888 145.228 118.368C146.002 117.848 147.018 117.588 148.274 117.588C149.188 117.588 149.974 117.727 150.634 118.006C151.307 118.273 151.865 118.647 152.309 119.129L151.148 120.348C150.894 120.056 150.533 119.789 150.063 119.548C149.594 119.294 148.972 119.168 148.198 119.168C146.815 119.168 146.123 119.605 146.123 120.481C146.123 120.9 146.269 121.192 146.561 121.357C146.865 121.509 147.221 121.61 147.627 121.661L149.188 121.909C149.581 121.972 149.968 122.054 150.349 122.156C150.742 122.257 151.091 122.416 151.396 122.632C151.713 122.835 151.967 123.101 152.157 123.431C152.36 123.761 152.462 124.18 152.462 124.688C152.462 125.677 152.074 126.458 151.3 127.029C150.539 127.587 149.486 127.866 148.141 127.866ZM159.535 127.828C158.926 127.828 158.494 127.701 158.241 127.448C157.999 127.194 157.879 126.883 157.879 126.515V126.02C157.879 125.652 157.999 125.341 158.241 125.087C158.494 124.833 158.926 124.707 159.535 124.707C160.144 124.707 160.569 124.833 160.81 125.087C161.064 125.341 161.191 125.652 161.191 126.02V126.515C161.191 126.883 161.064 127.194 160.81 127.448C160.569 127.701 160.144 127.828 159.535 127.828ZM159.535 120.747C158.926 120.747 158.494 120.621 158.241 120.367C157.999 120.113 157.879 119.802 157.879 119.434V118.939C157.879 118.571 157.999 118.26 158.241 118.006C158.494 117.753 158.926 117.626 159.535 117.626C160.144 117.626 160.569 117.753 160.81 118.006C161.064 118.26 161.191 118.571 161.191 118.939V119.434C161.191 119.802 161.064 120.113 160.81 120.367C160.569 120.621 160.144 120.747 159.535 120.747ZM166.818 130.265L173.232 113.172H175.079L168.664 130.265H166.818ZM178.231 130.265L184.646 113.172H186.492L180.077 130.265H178.231ZM197.429 127.638C196.833 127.638 196.382 127.486 196.078 127.181C195.786 126.877 195.608 126.477 195.545 125.982H195.45C195.259 126.578 194.91 127.041 194.403 127.371C193.908 127.701 193.273 127.866 192.499 127.866C191.497 127.866 190.697 127.606 190.101 127.086C189.505 126.553 189.206 125.823 189.206 124.897C189.206 123.945 189.555 123.222 190.253 122.727C190.964 122.219 192.049 121.966 193.508 121.966H195.393V121.204C195.393 119.872 194.688 119.206 193.28 119.206C192.645 119.206 192.131 119.333 191.738 119.586C191.345 119.827 191.015 120.151 190.748 120.557L189.511 119.548C189.79 119.015 190.26 118.558 190.92 118.178C191.579 117.784 192.43 117.588 193.47 117.588C194.714 117.588 195.691 117.886 196.401 118.482C197.112 119.079 197.467 119.942 197.467 121.071V126.001H198.705V127.638H197.429ZM193.089 126.344C193.762 126.344 194.314 126.191 194.745 125.887C195.177 125.582 195.393 125.189 195.393 124.707V123.279H193.546C192.049 123.279 191.3 123.729 191.3 124.63V125.011C191.3 125.455 191.459 125.792 191.776 126.02C192.093 126.236 192.531 126.344 193.089 126.344ZM200.981 117.816H203.056V119.491H203.17C203.462 118.895 203.849 118.432 204.331 118.102C204.814 117.759 205.416 117.588 206.14 117.588C207.294 117.588 208.214 118.019 208.9 118.882C209.585 119.745 209.928 121.027 209.928 122.727C209.928 124.427 209.585 125.709 208.9 126.572C208.214 127.435 207.294 127.866 206.14 127.866C205.416 127.866 204.814 127.701 204.331 127.371C203.849 127.029 203.462 126.559 203.17 125.963H203.056V131.445H200.981V117.816ZM205.283 126.172C206.07 126.172 206.673 125.931 207.091 125.449C207.523 124.967 207.739 124.326 207.739 123.526V121.928C207.739 121.128 207.523 120.487 207.091 120.005C206.673 119.523 206.07 119.282 205.283 119.282C204.979 119.282 204.693 119.32 204.427 119.396C204.16 119.472 203.925 119.586 203.722 119.739C203.519 119.891 203.354 120.081 203.227 120.31C203.113 120.525 203.056 120.785 203.056 121.09V124.364C203.056 124.669 203.113 124.935 203.227 125.163C203.354 125.379 203.519 125.563 203.722 125.715C203.925 125.868 204.16 125.982 204.427 126.058C204.693 126.134 204.979 126.172 205.283 126.172ZM217.21 116.027C216.677 116.027 216.303 115.919 216.087 115.703C215.884 115.488 215.783 115.221 215.783 114.904V114.504C215.783 114.187 215.884 113.92 216.087 113.705C216.303 113.489 216.671 113.381 217.191 113.381C217.724 113.381 218.092 113.489 218.295 113.705C218.511 113.92 218.619 114.187 218.619 114.504V114.904C218.619 115.221 218.511 115.488 218.295 115.703C218.092 115.919 217.731 116.027 217.21 116.027ZM212.813 125.963H216.163V119.491H212.813V117.816H218.238V125.963H221.379V127.638H212.813V125.963ZM225.14 122.879V120.805H230.889V122.879H225.14ZM238.152 127.638L234.631 117.816H236.782L238.133 121.966L239.409 125.906H239.523L240.798 121.966L242.15 117.816H244.224L240.703 127.638H238.152ZM255.504 127.638H246.33V125.601L250.67 121.813C251.355 121.204 251.882 120.627 252.25 120.081C252.63 119.536 252.821 118.958 252.821 118.349V118.14C252.821 117.442 252.63 116.909 252.25 116.541C251.869 116.16 251.317 115.97 250.594 115.97C249.858 115.97 249.286 116.166 248.88 116.56C248.487 116.953 248.202 117.454 248.024 118.064L246.158 117.359C246.285 116.941 246.469 116.541 246.71 116.16C246.952 115.767 247.256 115.418 247.624 115.113C248.005 114.809 248.449 114.568 248.957 114.39C249.477 114.212 250.073 114.123 250.746 114.123C251.431 114.123 252.04 114.225 252.573 114.428C253.119 114.618 253.576 114.885 253.944 115.227C254.312 115.57 254.591 115.982 254.781 116.465C254.971 116.934 255.067 117.454 255.067 118.025C255.067 118.558 254.984 119.053 254.819 119.51C254.667 119.954 254.445 120.386 254.153 120.805C253.874 121.211 253.538 121.604 253.144 121.985C252.751 122.365 252.319 122.746 251.85 123.127L248.633 125.83H255.504V127.638ZM262.254 127.828C261.645 127.828 261.214 127.701 260.96 127.448C260.719 127.194 260.598 126.883 260.598 126.515V126.02C260.598 125.652 260.719 125.341 260.96 125.087C261.214 124.833 261.645 124.707 262.254 124.707C262.863 124.707 263.288 124.833 263.53 125.087C263.783 125.341 263.91 125.652 263.91 126.02V126.515C263.91 126.883 263.783 127.194 263.53 127.448C263.288 127.701 262.863 127.828 262.254 127.828ZM268.338 117.816H270.108L271.06 126.077H271.231L272.697 117.816H274.714L276.161 126.077H276.332L277.303 117.816H278.997L277.627 127.638H275.076L273.763 120.024H273.591L272.259 127.638H269.708L268.338 117.816ZM285.29 127.866C284.541 127.866 283.869 127.746 283.272 127.505C282.676 127.264 282.175 126.921 281.769 126.477C281.363 126.033 281.052 125.5 280.836 124.878C280.62 124.243 280.512 123.533 280.512 122.746C280.512 121.959 280.62 121.249 280.836 120.614C281.064 119.98 281.375 119.44 281.769 118.996C282.175 118.539 282.663 118.19 283.234 117.949C283.805 117.708 284.44 117.588 285.138 117.588C285.823 117.588 286.445 117.708 287.003 117.949C287.562 118.178 288.037 118.508 288.431 118.939C288.824 119.371 289.122 119.885 289.325 120.481C289.541 121.077 289.649 121.737 289.649 122.461V123.241H282.606V123.565C282.606 124.339 282.847 124.973 283.33 125.468C283.812 125.95 284.478 126.191 285.328 126.191C285.963 126.191 286.502 126.058 286.946 125.792C287.403 125.512 287.771 125.144 288.05 124.688L289.344 125.83C289.015 126.401 288.507 126.883 287.822 127.276C287.149 127.67 286.305 127.866 285.29 127.866ZM285.138 119.168C284.77 119.168 284.427 119.231 284.11 119.358C283.805 119.485 283.539 119.669 283.311 119.91C283.095 120.138 282.923 120.411 282.797 120.728C282.67 121.046 282.606 121.395 282.606 121.775V121.909H287.536V121.718C287.536 120.944 287.314 120.329 286.87 119.872C286.439 119.402 285.861 119.168 285.138 119.168ZM292.287 113.552H294.362V119.491H294.476C294.768 118.895 295.155 118.432 295.637 118.102C296.12 117.759 296.722 117.588 297.446 117.588C298.6 117.588 299.52 118.019 300.206 118.882C300.891 119.745 301.234 121.027 301.234 122.727C301.234 124.427 300.891 125.709 300.206 126.572C299.52 127.435 298.6 127.866 297.446 127.866C296.722 127.866 296.12 127.701 295.637 127.371C295.155 127.029 294.768 126.559 294.476 125.963H294.362V127.638H292.287V113.552ZM296.589 126.172C297.376 126.172 297.979 125.931 298.397 125.449C298.829 124.967 299.045 124.326 299.045 123.526V121.928C299.045 121.128 298.829 120.487 298.397 120.005C297.979 119.523 297.376 119.282 296.589 119.282C296.285 119.282 295.999 119.32 295.733 119.396C295.466 119.472 295.231 119.586 295.028 119.739C294.825 119.891 294.66 120.081 294.533 120.31C294.419 120.525 294.362 120.785 294.362 121.09V124.364C294.362 124.669 294.419 124.935 294.533 125.163C294.66 125.379 294.825 125.563 295.028 125.715C295.231 125.868 295.466 125.982 295.733 126.058C295.999 126.134 296.285 126.172 296.589 126.172ZM307.926 127.866C306.86 127.866 305.94 127.695 305.166 127.352C304.405 127.01 303.789 126.553 303.32 125.982L304.595 124.84C305.027 125.309 305.509 125.671 306.042 125.925C306.588 126.166 307.228 126.286 307.964 126.286C308.637 126.286 309.176 126.172 309.582 125.944C310.001 125.715 310.21 125.36 310.21 124.878C310.21 124.675 310.172 124.504 310.096 124.364C310.02 124.224 309.912 124.11 309.773 124.021C309.633 123.933 309.468 123.863 309.278 123.812C309.1 123.761 308.91 123.723 308.707 123.698L307.146 123.45C306.765 123.4 306.378 123.317 305.985 123.203C305.591 123.089 305.236 122.93 304.919 122.727C304.614 122.511 304.36 122.238 304.157 121.909C303.967 121.579 303.872 121.16 303.872 120.652C303.872 119.65 304.253 118.888 305.014 118.368C305.788 117.848 306.803 117.588 308.06 117.588C308.973 117.588 309.76 117.727 310.42 118.006C311.092 118.273 311.651 118.647 312.095 119.129L310.934 120.348C310.68 120.056 310.318 119.789 309.849 119.548C309.379 119.294 308.757 119.168 307.983 119.168C306.6 119.168 305.909 119.605 305.909 120.481C305.909 120.9 306.055 121.192 306.346 121.357C306.651 121.509 307.006 121.61 307.412 121.661L308.973 121.909C309.367 121.972 309.754 122.054 310.134 122.156C310.528 122.257 310.877 122.416 311.181 122.632C311.498 122.835 311.752 123.101 311.943 123.431C312.146 123.761 312.247 124.18 312.247 124.688C312.247 125.677 311.86 126.458 311.086 127.029C310.325 127.587 309.271 127.866 307.926 127.866ZM319.93 116.027C319.397 116.027 319.022 115.919 318.807 115.703C318.604 115.488 318.502 115.221 318.502 114.904V114.504C318.502 114.187 318.604 113.92 318.807 113.705C319.022 113.489 319.39 113.381 319.911 113.381C320.444 113.381 320.812 113.489 321.015 113.705C321.23 113.92 321.338 114.187 321.338 114.504V114.904C321.338 115.221 321.23 115.488 321.015 115.703C320.812 115.919 320.45 116.027 319.93 116.027ZM315.533 125.963H318.883V119.491H315.533V117.816H320.957V125.963H324.098V127.638H315.533V125.963ZM331.324 127.638C330.461 127.638 329.826 127.409 329.42 126.953C329.014 126.483 328.811 125.88 328.811 125.144V119.491H325.785V117.816H327.936C328.304 117.816 328.564 117.746 328.716 117.607C328.868 117.454 328.944 117.188 328.944 116.807V114.352H330.886V117.816H335.074V119.491H330.886V125.963H335.074V127.638H331.324ZM342.356 127.866C341.608 127.866 340.935 127.746 340.339 127.505C339.742 127.264 339.241 126.921 338.835 126.477C338.429 126.033 338.118 125.5 337.902 124.878C337.687 124.243 337.579 123.533 337.579 122.746C337.579 121.959 337.687 121.249 337.902 120.614C338.131 119.98 338.442 119.44 338.835 118.996C339.241 118.539 339.73 118.19 340.301 117.949C340.872 117.708 341.506 117.588 342.204 117.588C342.889 117.588 343.511 117.708 344.069 117.949C344.628 118.178 345.104 118.508 345.497 118.939C345.89 119.371 346.189 119.885 346.392 120.481C346.607 121.077 346.715 121.737 346.715 122.461V123.241H339.673V123.565C339.673 124.339 339.914 124.973 340.396 125.468C340.878 125.95 341.544 126.191 342.394 126.191C343.029 126.191 343.568 126.058 344.012 125.792C344.469 125.512 344.837 125.144 345.116 124.688L346.411 125.83C346.081 126.401 345.573 126.883 344.888 127.276C344.215 127.67 343.372 127.866 342.356 127.866ZM342.204 119.168C341.836 119.168 341.493 119.231 341.176 119.358C340.872 119.485 340.605 119.669 340.377 119.91C340.161 120.138 339.99 120.411 339.863 120.728C339.736 121.046 339.673 121.395 339.673 121.775V121.909H344.602V121.718C344.602 120.944 344.38 120.329 343.936 119.872C343.505 119.402 342.927 119.168 342.204 119.168ZM353.56 127.828C352.951 127.828 352.52 127.701 352.266 127.448C352.025 127.194 351.904 126.883 351.904 126.515V126.02C351.904 125.652 352.025 125.341 352.266 125.087C352.52 124.833 352.951 124.707 353.56 124.707C354.169 124.707 354.594 124.833 354.836 125.087C355.089 125.341 355.216 125.652 355.216 126.02V126.515C355.216 126.883 355.089 127.194 354.836 127.448C354.594 127.701 354.169 127.828 353.56 127.828ZM365.335 127.866C364.599 127.866 363.939 127.746 363.356 127.505C362.785 127.264 362.296 126.921 361.89 126.477C361.497 126.033 361.192 125.493 360.976 124.859C360.773 124.224 360.672 123.514 360.672 122.727C360.672 121.94 360.773 121.23 360.976 120.595C361.192 119.961 361.497 119.421 361.89 118.977C362.296 118.533 362.785 118.19 363.356 117.949C363.939 117.708 364.593 117.588 365.316 117.588C366.331 117.588 367.143 117.803 367.753 118.235C368.374 118.666 368.837 119.225 369.142 119.91L367.524 120.785C367.346 120.329 367.074 119.967 366.706 119.701C366.35 119.434 365.887 119.301 365.316 119.301C364.529 119.301 363.92 119.542 363.489 120.024C363.057 120.494 362.842 121.122 362.842 121.909V123.545C362.842 124.32 363.057 124.948 363.489 125.43C363.92 125.912 364.542 126.153 365.354 126.153C365.963 126.153 366.458 126.014 366.839 125.734C367.232 125.455 367.543 125.075 367.772 124.592L369.294 125.525C368.977 126.21 368.495 126.775 367.848 127.219C367.201 127.651 366.363 127.866 365.335 127.866ZM376.387 127.866C375.663 127.866 375.01 127.746 374.426 127.505C373.855 127.264 373.367 126.921 372.961 126.477C372.567 126.033 372.263 125.493 372.047 124.859C371.831 124.224 371.723 123.514 371.723 122.727C371.723 121.94 371.831 121.23 372.047 120.595C372.263 119.961 372.567 119.421 372.961 118.977C373.367 118.533 373.855 118.19 374.426 117.949C375.01 117.708 375.663 117.588 376.387 117.588C377.11 117.588 377.757 117.708 378.328 117.949C378.912 118.19 379.401 118.533 379.794 118.977C380.2 119.421 380.511 119.961 380.727 120.595C380.942 121.23 381.05 121.94 381.05 122.727C381.05 123.514 380.942 124.224 380.727 124.859C380.511 125.493 380.2 126.033 379.794 126.477C379.401 126.921 378.912 127.264 378.328 127.505C377.757 127.746 377.11 127.866 376.387 127.866ZM376.387 126.229C377.148 126.229 377.751 126.001 378.195 125.544C378.652 125.075 378.88 124.383 378.88 123.469V121.985C378.88 121.071 378.652 120.386 378.195 119.929C377.751 119.459 377.148 119.225 376.387 119.225C375.625 119.225 375.016 119.459 374.559 119.929C374.115 120.386 373.893 121.071 373.893 121.985V123.469C373.893 124.383 374.115 125.075 374.559 125.544C375.016 126.001 375.625 126.229 376.387 126.229ZM382.927 127.638V117.816H384.697V119.091H384.793C384.945 118.673 385.161 118.317 385.44 118.025C385.732 117.734 386.144 117.588 386.677 117.588C387.197 117.588 387.597 117.734 387.876 118.025C388.168 118.305 388.352 118.692 388.428 119.187H388.504C388.682 118.742 388.929 118.368 389.247 118.064C389.564 117.746 390.021 117.588 390.617 117.588C391.378 117.588 391.905 117.854 392.197 118.387C392.502 118.92 392.654 119.701 392.654 120.728V127.638H390.884V120.995C390.884 120.31 390.801 119.84 390.636 119.586C390.471 119.32 390.205 119.187 389.837 119.187C389.507 119.187 389.228 119.301 388.999 119.529C388.783 119.745 388.676 120.075 388.676 120.519V127.638H386.905V120.995C386.905 120.31 386.823 119.84 386.658 119.586C386.506 119.32 386.246 119.187 385.878 119.187C385.535 119.187 385.249 119.301 385.021 119.529C384.805 119.745 384.697 120.075 384.697 120.519V127.638H382.927ZM395.083 130.265L401.497 113.172H403.344L396.929 130.265H395.083ZM412.663 125.963H412.568C412.467 126.217 412.333 126.464 412.168 126.705C412.016 126.934 411.826 127.137 411.597 127.314C411.369 127.479 411.102 127.613 410.798 127.714C410.493 127.816 410.138 127.866 409.732 127.866C408.742 127.866 407.943 127.543 407.334 126.896C406.724 126.248 406.42 125.328 406.42 124.136V117.816H408.495V123.831C408.495 125.392 409.174 126.172 410.531 126.172C410.798 126.172 411.058 126.141 411.312 126.077C411.566 126.001 411.794 125.893 411.997 125.753C412.2 125.614 412.359 125.443 412.473 125.24C412.6 125.024 412.663 124.77 412.663 124.478V117.816H414.738V127.638H412.663V125.963ZM422.059 127.866C420.993 127.866 420.073 127.695 419.299 127.352C418.537 127.01 417.922 126.553 417.452 125.982L418.728 124.84C419.159 125.309 419.641 125.671 420.174 125.925C420.72 126.166 421.361 126.286 422.097 126.286C422.769 126.286 423.309 126.172 423.715 125.944C424.134 125.715 424.343 125.36 424.343 124.878C424.343 124.675 424.305 124.504 424.229 124.364C424.153 124.224 424.045 124.11 423.905 124.021C423.766 123.933 423.601 123.863 423.41 123.812C423.233 123.761 423.042 123.723 422.839 123.698L421.278 123.45C420.898 123.4 420.511 123.317 420.117 123.203C419.724 123.089 419.369 122.93 419.051 122.727C418.747 122.511 418.493 122.238 418.29 121.909C418.1 121.579 418.004 121.16 418.004 120.652C418.004 119.65 418.385 118.888 419.147 118.368C419.921 117.848 420.936 117.588 422.192 117.588C423.106 117.588 423.892 117.727 424.552 118.006C425.225 118.273 425.783 118.647 426.227 119.129L425.066 120.348C424.812 120.056 424.451 119.789 423.981 119.548C423.512 119.294 422.89 119.168 422.116 119.168C420.733 119.168 420.041 119.605 420.041 120.481C420.041 120.9 420.187 121.192 420.479 121.357C420.784 121.509 421.139 121.61 421.545 121.661L423.106 121.909C423.499 121.972 423.886 122.054 424.267 122.156C424.66 122.257 425.009 122.416 425.314 122.632C425.631 122.835 425.885 123.101 426.075 123.431C426.278 123.761 426.38 124.18 426.38 124.688C426.38 125.677 425.993 126.458 425.219 127.029C424.457 127.587 423.404 127.866 422.059 127.866ZM433.662 127.866C432.914 127.866 432.241 127.746 431.645 127.505C431.048 127.264 430.547 126.921 430.141 126.477C429.735 126.033 429.424 125.5 429.208 124.878C428.993 124.243 428.885 123.533 428.885 122.746C428.885 121.959 428.993 121.249 429.208 120.614C429.437 119.98 429.748 119.44 430.141 118.996C430.547 118.539 431.036 118.19 431.607 117.949C432.178 117.708 432.812 117.588 433.51 117.588C434.195 117.588 434.817 117.708 435.376 117.949C435.934 118.178 436.41 118.508 436.803 118.939C437.196 119.371 437.495 119.885 437.698 120.481C437.913 121.077 438.021 121.737 438.021 122.461V123.241H430.979V123.565C430.979 124.339 431.22 124.973 431.702 125.468C432.184 125.95 432.85 126.191 433.7 126.191C434.335 126.191 434.874 126.058 435.318 125.792C435.775 125.512 436.143 125.144 436.422 124.688L437.717 125.83C437.387 126.401 436.879 126.883 436.194 127.276C435.521 127.67 434.678 127.866 433.662 127.866ZM433.51 119.168C433.142 119.168 432.8 119.231 432.482 119.358C432.178 119.485 431.911 119.669 431.683 119.91C431.467 120.138 431.296 120.411 431.169 120.728C431.042 121.046 430.979 121.395 430.979 121.775V121.909H435.908V121.718C435.908 120.944 435.686 120.329 435.242 119.872C434.811 119.402 434.233 119.168 433.51 119.168ZM440.603 125.963H443.21V119.491H440.603V117.816H445.285V120.424H445.399C445.488 120.081 445.615 119.751 445.78 119.434C445.945 119.117 446.154 118.844 446.408 118.616C446.662 118.374 446.973 118.184 447.341 118.045C447.709 117.892 448.14 117.816 448.635 117.816H449.815V119.796H447.874C447.112 119.796 446.491 120.024 446.008 120.481C445.526 120.925 445.285 121.528 445.285 122.289V125.963H448.844V127.638H440.603V125.963ZM456.299 127.866C455.233 127.866 454.313 127.695 453.539 127.352C452.777 127.01 452.162 126.553 451.692 125.982L452.968 124.84C453.399 125.309 453.881 125.671 454.414 125.925C454.96 126.166 455.601 126.286 456.337 126.286C457.009 126.286 457.548 126.172 457.955 125.944C458.373 125.715 458.583 125.36 458.583 124.878C458.583 124.675 458.545 124.504 458.468 124.364C458.392 124.224 458.284 124.11 458.145 124.021C458.005 123.933 457.84 123.863 457.65 123.812C457.472 123.761 457.282 123.723 457.079 123.698L455.518 123.45C455.137 123.4 454.75 123.317 454.357 123.203C453.964 123.089 453.608 122.93 453.291 122.727C452.987 122.511 452.733 122.238 452.53 121.909C452.339 121.579 452.244 121.16 452.244 120.652C452.244 119.65 452.625 118.888 453.386 118.368C454.16 117.848 455.176 117.588 456.432 117.588C457.345 117.588 458.132 117.727 458.792 118.006C459.465 118.273 460.023 118.647 460.467 119.129L459.306 120.348C459.052 120.056 458.691 119.789 458.221 119.548C457.752 119.294 457.13 119.168 456.356 119.168C454.972 119.168 454.281 119.605 454.281 120.481C454.281 120.9 454.427 121.192 454.719 121.357C455.023 121.509 455.379 121.61 455.785 121.661L457.345 121.909C457.739 121.972 458.126 122.054 458.507 122.156C458.9 122.257 459.249 122.416 459.553 122.632C459.871 122.835 460.124 123.101 460.315 123.431C460.518 123.761 460.619 124.18 460.619 124.688C460.619 125.677 460.232 126.458 459.458 127.029C458.697 127.587 457.644 127.866 456.299 127.866ZM463.562 130.265L469.977 113.172H471.823L465.409 130.265H463.562ZM475.071 127.638V125.868H478.802V115.913H478.649L475.566 119.206L474.252 118.025L477.64 114.352H480.933V125.868H484.15V127.638H475.071ZM491.699 127.638V125.049H485.38V123.222L490.938 114.352H493.736V123.374H495.602V125.049H493.736V127.638H491.699ZM487.188 123.374H491.699V116.312H491.585L487.188 123.374ZM497.897 127.638V125.868H501.628V115.913H501.476L498.392 119.206L497.079 118.025L500.467 114.352H503.76V125.868H506.977V127.638H497.897ZM510.852 127.638L515.782 116.122H510.605V118.577H508.759V114.352H517.914V116.217L513.117 127.638H510.852ZM524.759 127.866C523.922 127.866 523.192 127.714 522.57 127.409C521.961 127.092 521.453 126.642 521.047 126.058C520.654 125.474 520.362 124.757 520.172 123.907C519.981 123.057 519.886 122.086 519.886 120.995C519.886 119.916 519.981 118.952 520.172 118.102C520.362 117.239 520.654 116.515 521.047 115.932C521.453 115.348 521.961 114.904 522.57 114.599C523.192 114.282 523.922 114.123 524.759 114.123C525.597 114.123 526.32 114.282 526.929 114.599C527.551 114.904 528.058 115.348 528.452 115.932C528.858 116.515 529.156 117.239 529.346 118.102C529.537 118.952 529.632 119.916 529.632 120.995C529.632 122.086 529.537 123.057 529.346 123.907C529.156 124.757 528.858 125.474 528.452 126.058C528.058 126.642 527.551 127.092 526.929 127.409C526.32 127.714 525.597 127.866 524.759 127.866ZM524.759 126.115C525.723 126.115 526.409 125.76 526.815 125.049C527.234 124.326 527.443 123.355 527.443 122.137V119.853C527.443 118.635 527.234 117.67 526.815 116.96C526.409 116.236 525.723 115.875 524.759 115.875C524.277 115.875 523.864 115.97 523.522 116.16C523.179 116.338 522.9 116.604 522.684 116.96C522.469 117.302 522.31 117.721 522.208 118.216C522.12 118.698 522.075 119.244 522.075 119.853V122.137C522.075 122.746 522.12 123.298 522.208 123.793C522.31 124.275 522.469 124.694 522.684 125.049C522.9 125.392 523.179 125.658 523.522 125.849C523.864 126.026 524.277 126.115 524.759 126.115ZM524.759 122.118C524.315 122.118 524.004 122.029 523.826 121.851C523.661 121.674 523.579 121.458 523.579 121.204V120.785C523.579 120.532 523.661 120.316 523.826 120.138C524.004 119.961 524.315 119.872 524.759 119.872C525.203 119.872 525.508 119.961 525.673 120.138C525.85 120.316 525.939 120.532 525.939 120.785V121.204C525.939 121.458 525.85 121.674 525.673 121.851C525.508 122.029 525.203 122.118 524.759 122.118ZM533.679 127.638L538.609 116.122H533.431V118.577H531.585V114.352H540.741V116.217L535.944 127.638H533.679Z" fill="#888888"/>
</g>
<defs>
<clipPath id="clip0_6821_16894">
<rect width="460" height="200" fill="white"/>
</clipPath>
</defs>
</svg>
