<?xml version="1.0" encoding="UTF-8"?>
<svg width="600px" height="260px" viewBox="0 0 600 260" version="1.1" xmlns="http://www.w3.org/2000/svg" xmlns:xlink="http://www.w3.org/1999/xlink">
    <!-- Generator: Sketch 55.1 (78136) - https://sketchapp.com -->
    <title>illustration_intro</title>
    <desc>Created with Sketch.</desc>
    <defs>
        <linearGradient x1="19.1326531%" y1="-1.96352186%" x2="80.8673469%" y2="100%" id="linearGradient-1">
            <stop stop-color="#FFDEB8" offset="0%"></stop>
            <stop stop-color="#FFFAF5" offset="100%"></stop>
        </linearGradient>
        <linearGradient x1="37.5%" y1="0%" x2="62.5%" y2="100%" id="linearGradient-2">
            <stop stop-color="#FFFFFF" offset="0%"></stop>
            <stop stop-color="#FFFFFF" stop-opacity="0.5" offset="100%"></stop>
        </linearGradient>
        <linearGradient x1="-1.11022302e-14%" y1="23.3109578%" x2="100%" y2="75.6805556%" id="linearGradient-3">
            <stop stop-color="#FFDEB8" offset="0%"></stop>
            <stop stop-color="#FFFAF5" offset="100%"></stop>
        </linearGradient>
        <linearGradient x1="31.4098751%" y1="0%" x2="68.5901249%" y2="100%" id="linearGradient-4">
            <stop stop-color="#FFFFFF" offset="0%"></stop>
            <stop stop-color="#FFFFFF" stop-opacity="0.5" offset="100%"></stop>
        </linearGradient>
        <linearGradient x1="7.3964497%" y1="0%" x2="92.6035503%" y2="100%" id="linearGradient-5">
            <stop stop-color="#FFFFFF" offset="0%"></stop>
            <stop stop-color="#FFFFFF" stop-opacity="0.5" offset="100%"></stop>
        </linearGradient>
        <linearGradient x1="75.5102041%" y1="100%" x2="24.4897959%" y2="-1.96352186%" id="linearGradient-6">
            <stop stop-color="#FFD2A0" offset="0%"></stop>
            <stop stop-color="#FFFAF5" offset="100%"></stop>
        </linearGradient>
        <linearGradient x1="100%" y1="100%" x2="0%" y2="1.72254642e-14%" id="linearGradient-7">
            <stop stop-color="#FFFFFF" offset="0%"></stop>
            <stop stop-color="#FFFFFF" stop-opacity="0.5" offset="100%"></stop>
        </linearGradient>
        <linearGradient x1="100%" y1="62.5%" x2="0%" y2="37.5%" id="linearGradient-8">
            <stop stop-color="#FFFFFF" offset="0%"></stop>
            <stop stop-color="#FFFFFF" stop-opacity="0.5" offset="100%"></stop>
        </linearGradient>
        <linearGradient x1="73.12%" y1="100%" x2="26.88%" y2="-1.96352186%" id="linearGradient-9">
            <stop stop-color="#FFD2A0" offset="0%"></stop>
            <stop stop-color="#FFFAF5" offset="100%"></stop>
        </linearGradient>
        <linearGradient x1="74.5%" y1="100%" x2="25.5%" y2="1.72254642e-14%" id="linearGradient-10">
            <stop stop-color="#FFFFFF" offset="0%"></stop>
            <stop stop-color="#FFFFFF" stop-opacity="0.5" offset="100%"></stop>
        </linearGradient>
        <linearGradient x1="-1.11022302e-14%" y1="-1.96352186%" x2="100%" y2="100%" id="linearGradient-11">
            <stop stop-color="#FFDEB8" offset="0%"></stop>
            <stop stop-color="#FFFAF5" offset="100%"></stop>
        </linearGradient>
        <linearGradient x1="0%" y1="0%" x2="100%" y2="100%" id="linearGradient-12">
            <stop stop-color="#FFFFFF" offset="0%"></stop>
            <stop stop-color="#FFFFFF" stop-opacity="0.5" offset="100%"></stop>
        </linearGradient>
        <linearGradient x1="100%" y1="50.4535147%" x2="0%" y2="49.5286755%" id="linearGradient-13">
            <stop stop-color="#FF9013" offset="0%"></stop>
            <stop stop-color="#FFCA8B" offset="100%"></stop>
        </linearGradient>
        <linearGradient x1="100%" y1="74.9134948%" x2="0%" y2="24.1081414%" id="linearGradient-14">
            <stop stop-color="#FFCA8B" offset="0%"></stop>
            <stop stop-color="#FF9013" offset="100%"></stop>
        </linearGradient>
        <linearGradient x1="100%" y1="71.6175643%" x2="0.659839527%" y2="28.6677182%" id="linearGradient-15">
            <stop stop-color="#FFFFFF" offset="0%"></stop>
            <stop stop-color="#FFFFFF" stop-opacity="0.9" offset="100%"></stop>
        </linearGradient>
        <linearGradient x1="72.4304199%" y1="100%" x2="37.5%" y2="-13.6047363%" id="linearGradient-16">
            <stop stop-color="#FF9013" stop-opacity="0.5" offset="0%"></stop>
            <stop stop-color="#FF9013" offset="100%"></stop>
        </linearGradient>
        <linearGradient x1="100.468445%" y1="100%" x2="21.875%" y2="-13.6047363%" id="linearGradient-17">
            <stop stop-color="#FF9013" offset="0%"></stop>
            <stop stop-color="#FF9013" stop-opacity="0.5" offset="100%"></stop>
        </linearGradient>
    </defs>
    <g id="Design" stroke="none" stroke-width="1" fill="none" fill-rule="evenodd">
        <g id="enterprise" transform="translate(-108.000000, -626.000000)">
            <g id="illustration_intro" transform="translate(108.000000, 626.000000)">
                <rect id="Rectangle" fill-opacity="0.01" fill="#D8D8D8" x="0" y="0" width="600" height="260"></rect>
                <g id="Group-14" transform="translate(67.000000, 3.000000)">
                    <g id="Group-11" transform="translate(378.000000, 112.000000)">
                        <path d="M10,0 L78,0 C83.5228475,-1.01453063e-15 88,4.4771525 88,10 L88,108 C88,110.209139 86.209139,112 84,112 L6,112 C2.6862915,112 4.05812251e-16,109.313708 0,106 L0,10 C-6.76353751e-16,4.4771525 4.4771525,1.01453063e-15 10,0 Z" id="Rectangle" fill="url(#linearGradient-1)"></path>
                        <rect id="Rectangle" fill="url(#linearGradient-2)" x="54" y="14" width="20" height="40" rx="2"></rect>
                        <rect id="Rectangle" fill="url(#linearGradient-2)" x="54" y="60" width="20" height="40" rx="2"></rect>
                        <rect id="Rectangle" fill="url(#linearGradient-2)" x="28" y="14" width="20" height="40" rx="2"></rect>
                        <rect id="Rectangle" fill="url(#linearGradient-2)" x="28" y="60" width="20" height="40" rx="2"></rect>
                    </g>
                    <g id="Group-10" transform="translate(0.000000, 138.000000)">
                        <path d="M10,0 L110,0 C115.522847,-1.01453063e-15 120,4.4771525 120,10 L120,80 C120,83.3137085 117.313708,86 114,86 L6,86 C2.6862915,86 4.05812251e-16,83.3137085 0,80 L0,10 C-6.76353751e-16,4.4771525 4.4771525,1.01453063e-15 10,0 Z" id="Rectangle" fill="url(#linearGradient-3)"></path>
                        <rect id="Rectangle" fill="url(#linearGradient-4)" x="14" y="45" width="25" height="41" rx="2"></rect>
                        <rect id="Rectangle" fill="url(#linearGradient-5)" x="44" y="45" width="24" height="26" rx="2"></rect>
                        <rect id="Rectangle" fill="url(#linearGradient-5)" x="73" y="45" width="24" height="26" rx="2"></rect>
                        <rect id="Rectangle" fill="url(#linearGradient-5)" x="102" y="45" width="24" height="26" rx="2"></rect>
                        <rect id="Rectangle" fill="url(#linearGradient-5)" x="14" y="14" width="24" height="26" rx="2"></rect>
                        <rect id="Rectangle" fill="url(#linearGradient-5)" x="43" y="14" width="24" height="26" rx="2"></rect>
                        <rect id="Rectangle" fill="url(#linearGradient-5)" x="72" y="14" width="24" height="26" rx="2"></rect>
                        <rect id="Rectangle" fill="url(#linearGradient-5)" x="101" y="14" width="24" height="26" rx="2"></rect>
                    </g>
                    <g id="Group-13" transform="translate(250.000000, 0.000000)">
                        <path d="M10,0 L150,0 C155.522847,-1.01453063e-15 160,4.4771525 160,10 L160,224 L0,224 L0,10 C-6.76353751e-16,4.4771525 4.4771525,1.01453063e-15 10,0 Z" id="Rectangle" fill="url(#linearGradient-6)"></path>
                        <rect id="Rectangle" fill="url(#linearGradient-7)" x="12" y="12" width="28" height="28" rx="2"></rect>
                        <rect id="Rectangle" fill="url(#linearGradient-7)" x="12" y="48" width="28" height="28" rx="2"></rect>
                        <rect id="Rectangle" fill="url(#linearGradient-7)" x="12" y="84" width="28" height="28" rx="2"></rect>
                        <rect id="Rectangle" fill="url(#linearGradient-7)" x="12" y="120" width="28" height="28" rx="2"></rect>
                        <rect id="Rectangle" fill="url(#linearGradient-7)" x="12" y="156" width="28" height="28" rx="2"></rect>
                        <rect id="Rectangle" fill="url(#linearGradient-7)" x="48" y="12" width="28" height="28" rx="2"></rect>
                        <rect id="Rectangle" fill="url(#linearGradient-7)" x="48" y="48" width="28" height="28" rx="2"></rect>
                        <rect id="Rectangle" fill="url(#linearGradient-7)" x="48" y="84" width="28" height="28" rx="2"></rect>
                        <rect id="Rectangle" fill="url(#linearGradient-7)" x="48" y="120" width="28" height="28" rx="2"></rect>
                        <rect id="Rectangle" fill="url(#linearGradient-7)" x="48" y="156" width="28" height="28" rx="2"></rect>
                        <rect id="Rectangle" fill="url(#linearGradient-8)" x="48" y="192" width="64" height="32" rx="2"></rect>
                        <rect id="Rectangle" fill="url(#linearGradient-7)" x="84" y="12" width="28" height="28" rx="2"></rect>
                        <rect id="Rectangle" fill="url(#linearGradient-7)" x="84" y="48" width="28" height="28" rx="2"></rect>
                        <rect id="Rectangle" fill="url(#linearGradient-7)" x="84" y="84" width="28" height="28" rx="2"></rect>
                        <rect id="Rectangle" fill="url(#linearGradient-7)" x="84" y="120" width="28" height="28" rx="2"></rect>
                        <rect id="Rectangle" fill="url(#linearGradient-7)" x="84" y="156" width="28" height="28" rx="2"></rect>
                        <rect id="Rectangle" fill="url(#linearGradient-7)" x="120" y="12" width="28" height="28" rx="2"></rect>
                        <rect id="Rectangle" fill="url(#linearGradient-7)" x="120" y="48" width="28" height="28" rx="2"></rect>
                        <rect id="Rectangle" fill="url(#linearGradient-7)" x="120" y="84" width="28" height="28" rx="2"></rect>
                        <rect id="Rectangle" fill="url(#linearGradient-7)" x="120" y="120" width="28" height="28" rx="2"></rect>
                        <rect id="Rectangle" fill="url(#linearGradient-7)" x="120" y="156" width="28" height="28" rx="2"></rect>
                    </g>
                    <g id="Group-9" transform="translate(54.000000, 24.000000)">
                        <path d="M10,0 L126,0 C131.522847,-1.01453063e-15 136,4.4771525 136,10 L136,200 L0,200 L0,10 C-6.76353751e-16,4.4771525 4.4771525,1.01453063e-15 10,0 Z" id="Rectangle" fill="url(#linearGradient-9)"></path>
                        <rect id="Rectangle" fill="url(#linearGradient-10)" x="16" y="16" width="28" height="40" rx="2"></rect>
                        <rect id="Rectangle" fill="url(#linearGradient-10)" x="16" y="64" width="28" height="40" rx="2"></rect>
                        <rect id="Rectangle" fill="url(#linearGradient-10)" x="16" y="112" width="28" height="40" rx="2"></rect>
                        <rect id="Rectangle" fill="url(#linearGradient-10)" x="54" y="16" width="28" height="40" rx="2"></rect>
                        <rect id="Rectangle" fill="url(#linearGradient-10)" x="54" y="64" width="28" height="40" rx="2"></rect>
                        <rect id="Rectangle" fill="url(#linearGradient-10)" x="54" y="112" width="28" height="40" rx="2"></rect>
                        <rect id="Rectangle" fill="url(#linearGradient-10)" x="54" y="160" width="28" height="40" rx="2"></rect>
                        <rect id="Rectangle" fill="url(#linearGradient-10)" x="92" y="16" width="28" height="40" rx="2"></rect>
                        <rect id="Rectangle" fill="url(#linearGradient-10)" x="92" y="64" width="28" height="40" rx="2"></rect>
                        <rect id="Rectangle" fill="url(#linearGradient-10)" x="92" y="112" width="28" height="40" rx="2"></rect>
                    </g>
                    <g id="Group" transform="translate(123.000000, 80.000000)">
                        <path d="M10,0 L134,0 C139.522847,-1.01453063e-15 144,4.4771525 144,10 L144,144 L0,144 L0,10 C-6.76353751e-16,4.4771525 4.4771525,1.01453063e-15 10,0 Z" id="Rectangle" fill="url(#linearGradient-11)"></path>
                        <rect id="Rectangle" fill="url(#linearGradient-12)" x="18" y="18" width="28" height="28" rx="2"></rect>
                        <rect id="Rectangle" fill="url(#linearGradient-12)" x="18" y="58" width="28" height="28" rx="2"></rect>
                        <rect id="Rectangle" fill="url(#linearGradient-12)" x="18" y="98" width="28" height="28" rx="2"></rect>
                        <rect id="Rectangle" fill="url(#linearGradient-12)" x="58" y="18" width="28" height="28" rx="2"></rect>
                        <rect id="Rectangle" fill="url(#linearGradient-12)" x="58" y="58" width="28" height="28" rx="2"></rect>
                        <rect id="Rectangle" fill="url(#linearGradient-12)" x="58" y="98" width="28" height="28" rx="2"></rect>
                        <rect id="Rectangle" fill="url(#linearGradient-12)" x="98" y="18" width="28" height="28" rx="2"></rect>
                        <rect id="Rectangle" fill="url(#linearGradient-12)" x="98" y="58" width="28" height="28" rx="2"></rect>
                        <rect id="Rectangle" fill="url(#linearGradient-12)" x="98" y="98" width="28" height="28" rx="2"></rect>
                    </g>
                    <g id="Group-3" transform="translate(132.000000, 90.000000)">
                        <path d="M2,124 L208,124 C209.104569,124 210,124.895431 210,126 L210,136 C210,140.418278 206.418278,144 202,144 L8,144 C3.581722,144 5.41083001e-16,140.418278 0,136 L0,126 C-1.3527075e-16,124.895431 0.8954305,124 2,124 Z" id="Rectangle" fill="url(#linearGradient-13)"></path>
                        <path d="M30,0 L180,0 C185.522847,-1.01453063e-15 190,4.4771525 190,10 L190,120 L20,120 L20,10 C20,4.4771525 24.4771525,1.01453063e-15 30,0 Z" id="Rectangle" fill="url(#linearGradient-14)"></path>
                        <path d="M34,12 L176,12 C177.104569,12 178,12.8954305 178,14 L178,108 L32,108 L32,14 C32,12.8954305 32.8954305,12 34,12 Z" id="Rectangle" fill="url(#linearGradient-15)"></path>
                        <g id="Group" transform="translate(64.000000, 45.000000)" stroke-linecap="round" stroke-linejoin="round" stroke-width="8">
                            <polyline id="Path-4" stroke="url(#linearGradient-16)" points="15 0 0 15 15 30"></polyline>
                            <path d="M30,0 L52.5,30" id="Path-5" stroke="url(#linearGradient-17)"></path>
                            <polyline id="Path-8" stroke="url(#linearGradient-16)" points="67.5 0 82.5 15 67.5 30"></polyline>
                        </g>
                        <rect id="Rectangle" fill="#FFFFFF" x="85" y="121" width="40" height="8" rx="4"></rect>
                    </g>
                </g>
            </g>
        </g>
    </g>
</svg>