<svg id="Layer_1" data-name="Layer 1" xmlns="http://www.w3.org/2000/svg" xmlns:xlink="http://www.w3.org/1999/xlink" viewBox="0 0 600 260"><defs><style>.cls-1,.cls-3,.cls-7{fill:#fff;}.cls-1{fill-opacity:0.06;}.cls-2{opacity:0.4;}.cls-3{fill-opacity:0.01;}.cls-13,.cls-14,.cls-15,.cls-17,.cls-18,.cls-19,.cls-20,.cls-21,.cls-22,.cls-24,.cls-25,.cls-29,.cls-34,.cls-4,.cls-5,.cls-6{fill-rule:evenodd;}.cls-4{fill:url(#gradient_61);}.cls-5{fill:url(#gradient_61-2);}.cls-6{fill:url(#gradient_56);}.cls-10,.cls-45,.cls-46,.cls-47,.cls-8,.cls-9{fill:none;stroke-linecap:round;stroke-linejoin:round;}.cls-10,.cls-8,.cls-9{stroke-width:5px;}.cls-8{stroke:url(#gradient_61-3);}.cls-9{stroke:url(#gradient_61-4);}.cls-10{stroke:url(#gradient_61-5);}.cls-11{opacity:0.1;fill:url(#gradient_61-6);}.cls-12{opacity:0.3;fill:url(#gradient_61-7);}.cls-13{fill:url(#gradient_61-8);}.cls-14{fill:url(#gradient_49);}.cls-15{fill:url(#gradient_49-2);}.cls-16{fill:url(#gradient_49-3);}.cls-17{fill:url(#gradient_49-4);}.cls-18{fill:url(#gradient_49-5);}.cls-19{fill:url(#gradient_49-6);}.cls-20{fill:url(#gradient_49-7);}.cls-21{fill:url(#gradient_49-8);}.cls-22{fill:url(#gradient_49-9);}.cls-23{fill:url(#gradient_49-10);}.cls-24{fill:url(#gradient_49-11);}.cls-25{fill:url(#gradient_61-9);}.cls-26{fill:url(#gradient_49-12);}.cls-27{fill:url(#gradient_49-13);}.cls-28{fill:url(#gradient_49-14);}.cls-29{fill:url(#gradient_61-10);}.cls-30{fill:url(#gradient_55);}.cls-31{fill:url(#gradient_55-2);}.cls-32{fill:url(#gradient_55-3);}.cls-33{fill:url(#gradient_55-4);}.cls-34{fill:url(#gradient_30);}.cls-35{fill:url(#gradient_56-2);}.cls-36{fill:url(#gradient_55-5);}.cls-37{fill:url(#gradient_55-6);}.cls-38{fill:url(#gradient_55-7);}.cls-39{fill:url(#gradient_55-8);}.cls-40{fill:url(#gradient_56-3);}.cls-41{fill:url(#gradient_55-9);}.cls-42{fill:url(#gradient_55-10);}.cls-43{fill:url(#gradient_55-11);}.cls-44{fill:url(#gradient_55-12);}.cls-45,.cls-46,.cls-47{stroke-width:4px;}.cls-45{stroke:url(#gradient_54);}.cls-46{stroke:url(#gradient_54-2);}.cls-47{stroke:url(#gradient_54-3);}</style><linearGradient id="gradient_61" x1="-197.05" y1="615.32" x2="-197.83" y2="615.33" gradientTransform="matrix(182.36, 0, 0, -24.32, 36129.26, 15161.03)" gradientUnits="userSpaceOnUse"><stop offset="0" stop-color="#69bbff"/><stop offset="1" stop-color="#257aff"/></linearGradient><linearGradient id="gradient_61-2" x1="-196.91" y1="627.15" x2="-197.7" y2="627.63" gradientTransform="matrix(164.12, 0, 0, -118.54, 32509.45, 74490.63)" xlink:href="#gradient_61"/><linearGradient id="gradient_56" x1="-196.55" y1="626.23" x2="-197.55" y2="626.67" gradientTransform="matrix(136.77, 0, 0, -91.18, 27079.74, 57243.4)" gradientUnits="userSpaceOnUse"><stop offset="0" stop-color="#fff"/><stop offset="1" stop-color="#fff" stop-opacity="0.8"/></linearGradient><linearGradient id="gradient_61-3" x1="86.65" y1="121.64" x2="106.84" y2="121.64" gradientTransform="matrix(1, 0, 0, 1, 0, 0)" xlink:href="#gradient_61"/><linearGradient id="gradient_61-4" x1="117.04" y1="121.64" x2="144.84" y2="121.64" gradientTransform="matrix(1, 0, 0, 1, 0, 0)" xlink:href="#gradient_61"/><linearGradient id="gradient_61-5" x1="155.03" y1="121.64" x2="175.23" y2="121.64" gradientTransform="matrix(1, 0, 0, 1, 0, 0)" xlink:href="#gradient_61"/><linearGradient id="gradient_61-6" x1="-197.04" y1="627.73" x2="-197.83" y2="628.31" gradientTransform="matrix(186.05, 0, 0, -148.5, 37199, 93420.55)" xlink:href="#gradient_61"/><linearGradient id="gradient_61-7" x1="-197.04" y1="627.73" x2="-197.83" y2="628.31" gradientTransform="matrix(186.05, 0, 0, -148.5, 37186.6, 93408.17)" xlink:href="#gradient_61"/><linearGradient id="gradient_61-8" x1="-197.04" y1="627.73" x2="-197.83" y2="628.31" gradientTransform="matrix(186.05, 0, 0, -148.5, 37174.2, 93395.8)" xlink:href="#gradient_61"/><linearGradient id="gradient_49" x1="-192.31" y1="580.83" x2="-191.31" y2="580.77" gradientTransform="matrix(29.77, 0, 0, -7.42, 6092.2, 4413.5)" gradientUnits="userSpaceOnUse"><stop offset="0" stop-color="#fff"/><stop offset="1" stop-color="#fff" stop-opacity="0.5"/></linearGradient><linearGradient id="gradient_49-2" x1="-172.26" y1="581.3" x2="-171.26" y2="580.3" gradientTransform="matrix(7.44, 0, 0, -7.42, 1687.88, 4413.5)" xlink:href="#gradient_49"/><linearGradient id="gradient_49-3" x1="-172.26" y1="581.3" x2="-171.26" y2="580.3" gradientTransform="matrix(7.44, 0, 0, -7.42, 1715.17, 4482.8)" xlink:href="#gradient_49"/><linearGradient id="gradient_49-4" x1="-172.26" y1="581.3" x2="-171.26" y2="580.3" gradientTransform="matrix(7.44, 0, 0, -7.42, 1742.46, 4448.15)" xlink:href="#gradient_49"/><linearGradient id="gradient_49-5" x1="-195.66" y1="580.81" x2="-194.66" y2="580.79" gradientTransform="matrix(59.53, 0, 0, -7.42, 12023.33, 4430.83)" xlink:href="#gradient_49"/><linearGradient id="gradient_49-6" x1="-188.97" y1="580.87" x2="-187.97" y2="580.73" gradientTransform="matrix(19.84, 0, 0, -7.42, 4193.3, 4430.83)" xlink:href="#gradient_49"/><linearGradient id="gradient_49-7" x1="-196.14" y1="580.81" x2="-195.13" y2="580.8" gradientTransform="matrix(69.46, 0, 0, -7.42, 14005.33, 4448.15)" xlink:href="#gradient_49"/><linearGradient id="gradient_49-8" x1="-190.56" y1="580.85" x2="-189.56" y2="580.75" gradientTransform="matrix(23.57, 0, 0, -7.42, 4872.98, 4465.48)" xlink:href="#gradient_49"/><linearGradient id="gradient_49-9" x1="-196.14" y1="580.81" x2="-195.13" y2="580.8" gradientTransform="matrix(69.46, 0, 0, -7.42, 14037.58, 4465.48)" xlink:href="#gradient_49"/><linearGradient id="gradient_49-10" x1="-194.99" y1="580.81" x2="-193.99" y2="580.79" gradientTransform="matrix(49.61, 0, 0, -7.42, 10048.77, 4482.8)" xlink:href="#gradient_49"/><linearGradient id="gradient_49-11" x1="-192.31" y1="580.83" x2="-191.31" y2="580.77" gradientTransform="matrix(29.77, 0, 0, -7.42, 6092.2, 4500.13)" xlink:href="#gradient_49"/><linearGradient id="gradient_61-9" x1="-197.07" y1="600.68" x2="-197.86" y2="600.68" gradientTransform="matrix(186.05, 0, 0, -12.37, 37174.2, 7502.26)" xlink:href="#gradient_61"/><linearGradient id="gradient_49-12" x1="-158.89" y1="556.45" x2="-157.89" y2="555.46" gradientTransform="matrix(4.96, 0, 0, -4.95, 1143.39, 2820.87)" xlink:href="#gradient_49"/><linearGradient id="gradient_49-13" x1="-158.89" y1="556.45" x2="-157.89" y2="555.46" gradientTransform="matrix(4.96, 0, 0, -4.95, 1152.07, 2820.87)" xlink:href="#gradient_49"/><linearGradient id="gradient_49-14" x1="-158.89" y1="556.45" x2="-157.89" y2="555.46" gradientTransform="matrix(4.96, 0, 0, -4.95, 1160.76, 2820.87)" xlink:href="#gradient_49"/><linearGradient id="gradient_61-10" x1="-196.98" y1="628.13" x2="-197.61" y2="629.13" gradientTransform="matrix(159.56, 0, 0, -200.6, 31751.52, 126234.96)" xlink:href="#gradient_61"/><linearGradient id="gradient_55" x1="-190.49" y1="615.23" x2="-189.5" y2="614.23" gradientTransform="matrix(23.4, 0, 0, -23.4, 4675.15, 14484.51)" gradientUnits="userSpaceOnUse"><stop offset="0" stop-color="#fff" stop-opacity="0.5"/><stop offset="1" stop-color="#fff" stop-opacity="0.1"/></linearGradient><linearGradient id="gradient_55-2" x1="-190.49" y1="615.23" x2="-189.5" y2="614.23" gradientTransform="matrix(23.4, 0, 0, -23.4, 4675.15, 14516.28)" xlink:href="#gradient_55"/><linearGradient id="gradient_55-3" x1="-190.49" y1="615.23" x2="-189.5" y2="614.23" gradientTransform="matrix(23.4, 0, 0, -23.4, 4675.15, 14548.04)" xlink:href="#gradient_55"/><linearGradient id="gradient_55-4" x1="-190.49" y1="615.23" x2="-189.5" y2="614.23" gradientTransform="matrix(23.4, 0, 0, -23.4, 4675.15, 14579.8)" xlink:href="#gradient_55"/><linearGradient id="gradient_30" x1="-194.86" y1="622.68" x2="-193.86" y2="621.68" gradientTransform="matrix(45.59, 0, 0, -45.59, 9184.71, 28423.17)" gradientUnits="userSpaceOnUse"><stop offset="0" stop-color="#fff"/><stop offset="1" stop-color="#fff" stop-opacity="0.6"/></linearGradient><linearGradient id="gradient_56-2" x1="-195.27" y1="575.32" x2="-194.28" y2="575.31" gradientTransform="matrix(53.49, 0, 0, -6.69, 10662.88, 3894.39)" xlink:href="#gradient_56"/><linearGradient id="gradient_55-5" x1="-196.61" y1="575.32" x2="-195.62" y2="575.31" gradientTransform="matrix(83.58, 0, 0, -6.69, 16687.38, 3969.62)" xlink:href="#gradient_55"/><linearGradient id="gradient_55-6" x1="-196.61" y1="575.32" x2="-195.62" y2="575.31" gradientTransform="matrix(83.58, 0, 0, -6.69, 16687.38, 4001.38)" xlink:href="#gradient_55"/><linearGradient id="gradient_55-7" x1="-196.61" y1="575.32" x2="-195.62" y2="575.31" gradientTransform="matrix(83.58, 0, 0, -6.69, 16687.38, 4033.14)" xlink:href="#gradient_55"/><linearGradient id="gradient_55-8" x1="-196.61" y1="575.32" x2="-195.62" y2="575.31" gradientTransform="matrix(83.58, 0, 0, -6.69, 16687.38, 3937.86)" xlink:href="#gradient_55"/><linearGradient id="gradient_56-3" x1="-191.55" y1="575.35" x2="-190.56" y2="575.28" gradientTransform="matrix(26.75, 0, 0, -6.69, 5340.45, 3907.77)" xlink:href="#gradient_56"/><linearGradient id="gradient_55-9" x1="-194.58" y1="575.33" x2="-193.59" y2="575.31" gradientTransform="matrix(45.13, 0, 0, -6.69, 9036.39, 3982.99)" xlink:href="#gradient_55"/><linearGradient id="gradient_55-10" x1="-195.94" y1="575.32" x2="-194.95" y2="575.31" gradientTransform="matrix(65.19, 0, 0, -6.69, 13028.21, 4014.75)" xlink:href="#gradient_55"/><linearGradient id="gradient_55-11" x1="-194.23" y1="575.33" x2="-193.24" y2="575.3" gradientTransform="matrix(41.79, 0, 0, -6.69, 8371.09, 4046.52)" xlink:href="#gradient_55"/><linearGradient id="gradient_55-12" x1="-196.29" y1="575.32" x2="-195.29" y2="575.31" gradientTransform="matrix(73.55, 0, 0, -6.69, 14691.47, 3951.23)" xlink:href="#gradient_55"/><linearGradient id="gradient_54" x1="-189.99" y1="605.87" x2="-188.65" y2="606.05" gradientTransform="matrix(21.73, 0, 0, -15.05, 4349.18, 9243.79)" gradientUnits="userSpaceOnUse"><stop offset="0" stop-color="#fff"/><stop offset="1" stop-color="#fff" stop-opacity="0.75"/></linearGradient><linearGradient id="gradient_54-2" x1="-189.99" y1="605.87" x2="-188.65" y2="606.05" gradientTransform="matrix(21.73, 0, 0, -15.05, 4349.18, 9307.3)" xlink:href="#gradient_54"/><linearGradient id="gradient_54-3" x1="-189.99" y1="605.87" x2="-188.65" y2="606.05" gradientTransform="matrix(21.73, 0, 0, -15.05, 4349.18, 9212.02)" xlink:href="#gradient_54"/></defs><rect id="Rectangle" class="cls-1" width="600" height="260"/><g id="icon_development" data-name="icon development" class="cls-2"><rect id="Rectangle-2" data-name="Rectangle" class="cls-3" x="39" y="45.66" width="182.36" height="182.37"/><path id="Rectangle-3" data-name="Rectangle" class="cls-4" d="M41,187H219.36a2,2,0,0,1,2,2V205.3a6,6,0,0,1-6,6H45a6,6,0,0,1-6-6V189A2,2,0,0,1,41,187Z"/><path id="Rectangle-4" data-name="Rectangle" class="cls-5" d="M54.12,62.37H206.24a6,6,0,0,1,6,6V180.91H48.12V68.37A6,6,0,0,1,54.12,62.37Z"/><path id="Rectangle-5" data-name="Rectangle" class="cls-6" d="M63.79,76.05H196.56a2,2,0,0,1,2,2v89.18H61.79V78.05A2,2,0,0,1,63.79,76.05Z"/><rect id="Rectangle-6" data-name="Rectangle" class="cls-7" x="107.38" y="182.43" width="45.59" height="9.12" rx="2"/><g id="Group"><polyline id="Path-4" class="cls-8" points="104.34 106.44 89.15 121.64 104.34 136.84"/><line id="Path-5" class="cls-9" x1="119.54" y1="106.44" x2="142.34" y2="136.84"/><polyline id="Path-8" class="cls-10" points="157.53 106.44 172.73 121.64 157.53 136.84"/></g></g><g id="Group-17" class="cls-2"><rect id="Mask" class="cls-11" x="374.95" y="87.5" width="186.05" height="148.5" rx="6"/><rect id="Mask-2" data-name="Mask" class="cls-12" x="362.55" y="75.13" width="186.05" height="148.5" rx="6"/><path id="Mask-3" data-name="Mask" class="cls-13" d="M356.15,62.75h174a6,6,0,0,1,6,6v134.5a8,8,0,0,1-8,8h-170a8,8,0,0,1-8-8V68.75A6,6,0,0,1,356.15,62.75Z"/><g id="Group-16"><path id="Rectangle-7" data-name="Rectangle" class="cls-14" d="M371.23,97.4h22.34a3.71,3.71,0,0,1,3.71,3.71h0a3.72,3.72,0,0,1-3.71,3.72H371.23a3.72,3.72,0,0,1-3.72-3.72h0A3.71,3.71,0,0,1,371.23,97.4Z"/><path id="Rectangle-8" data-name="Rectangle" class="cls-15" d="M409.67,97.4h0a3.71,3.71,0,0,1,3.71,3.71h0a3.72,3.72,0,0,1-3.71,3.72h0a3.72,3.72,0,0,1-3.71-3.72h0A3.71,3.71,0,0,1,409.67,97.4Z"/><rect id="Rectangle-9" data-name="Rectangle" class="cls-16" x="433.25" y="166.7" width="7.44" height="7.42" rx="3.71"/><path id="Rectangle-10" data-name="Rectangle" class="cls-17" d="M464.25,132.05h0a3.71,3.71,0,0,1,3.72,3.71h0a3.72,3.72,0,0,1-3.72,3.72h0a3.72,3.72,0,0,1-3.71-3.72h0A3.71,3.71,0,0,1,464.25,132.05Z"/><path id="Rectangle-11" data-name="Rectangle" class="cls-18" d="M378.67,114.73h52.11a3.71,3.71,0,0,1,3.71,3.71h0a3.71,3.71,0,0,1-3.71,3.71H378.67a3.72,3.72,0,0,1-3.72-3.71h0A3.72,3.72,0,0,1,378.67,114.73Z"/><path id="Rectangle-12" data-name="Rectangle" class="cls-19" d="M446.88,114.73H459.3a3.72,3.72,0,0,1,3.72,3.71h0a3.72,3.72,0,0,1-3.72,3.71H446.88a3.71,3.71,0,0,1-3.71-3.71h0A3.71,3.71,0,0,1,446.88,114.73Z"/><path id="Rectangle-13" data-name="Rectangle" class="cls-20" d="M386.11,132.05h62a3.71,3.71,0,0,1,3.71,3.71h0a3.72,3.72,0,0,1-3.71,3.72h-62a3.72,3.72,0,0,1-3.71-3.72h0A3.71,3.71,0,0,1,386.11,132.05Z"/><path id="Rectangle-14" data-name="Rectangle" class="cls-21" d="M386.11,149.38h16.14a3.71,3.71,0,0,1,3.71,3.71h0a3.71,3.71,0,0,1-3.71,3.71H386.11a3.71,3.71,0,0,1-3.71-3.71h0A3.71,3.71,0,0,1,386.11,149.38Z"/><path id="Rectangle-15" data-name="Rectangle" class="cls-22" d="M418.36,149.38h62a3.71,3.71,0,0,1,3.71,3.71h0a3.71,3.71,0,0,1-3.71,3.71h-62a3.72,3.72,0,0,1-3.72-3.71h0A3.72,3.72,0,0,1,418.36,149.38Z"/><rect id="Rectangle-16" data-name="Rectangle" class="cls-23" x="374.95" y="166.7" width="49.61" height="7.42" rx="3.71"/><path id="Rectangle-17" data-name="Rectangle" class="cls-24" d="M371.23,184h22.34a3.71,3.71,0,0,1,3.71,3.71h0a3.71,3.71,0,0,1-3.71,3.71H371.23a3.71,3.71,0,0,1-3.72-3.71h0A3.71,3.71,0,0,1,371.23,184Z"/></g><path id="Rectangle-18" data-name="Rectangle" class="cls-25" d="M356.15,62.75h174a6,6,0,0,1,6,6v6.38h-186V68.75A6,6,0,0,1,356.15,62.75Z"/><ellipse id="Oval" class="cls-26" cx="357.59" cy="68.94" rx="2.48" ry="2.47"/><ellipse id="Oval-2" data-name="Oval" class="cls-27" cx="366.27" cy="68.94" rx="2.48" ry="2.47"/><ellipse id="Oval-3" data-name="Oval" class="cls-28" cx="374.95" cy="68.94" rx="2.48" ry="2.47"/></g><rect id="Rectangle-19" data-name="Rectangle" class="cls-3" x="176.91" y="24" width="200.59" height="200.6"/><path id="Rectangle-20" data-name="Rectangle" class="cls-29" d="M205.42,24h106L357,69.59v147a8,8,0,0,1-8,8H205.42a8,8,0,0,1-8-8V32A8,8,0,0,1,205.42,24Z"/><rect id="Rectangle-21" data-name="Rectangle" class="cls-30" x="217.03" y="85.85" width="23.4" height="23.4" rx="3"/><rect id="Rectangle-22" data-name="Rectangle" class="cls-31" x="217.03" y="117.61" width="23.4" height="23.4" rx="3"/><rect id="Rectangle-23" data-name="Rectangle" class="cls-32" x="217.03" y="149.38" width="23.4" height="23.4" rx="3"/><rect id="Rectangle-24" data-name="Rectangle" class="cls-33" x="217.03" y="181.14" width="23.4" height="23.4" rx="3"/><path id="Path-3" class="cls-34" d="M311.4,24V61.59a8,8,0,0,0,8,8H357Z"/><rect id="Rectangle-25" data-name="Rectangle" class="cls-35" x="217.03" y="44.06" width="53.49" height="6.69" rx="2"/><rect id="Rectangle-26" data-name="Rectangle" class="cls-36" x="253.8" y="119.29" width="83.58" height="6.69" rx="2"/><rect id="Rectangle-27" data-name="Rectangle" class="cls-37" x="253.8" y="151.05" width="83.58" height="6.69" rx="2"/><rect id="Rectangle-28" data-name="Rectangle" class="cls-38" x="253.8" y="182.81" width="83.58" height="6.69" rx="2"/><rect id="Rectangle-29" data-name="Rectangle" class="cls-39" x="253.8" y="87.52" width="83.58" height="6.69" rx="2"/><rect id="Rectangle-30" data-name="Rectangle" class="cls-40" x="217.03" y="57.43" width="26.75" height="6.69" rx="2"/><rect id="Rectangle-31" data-name="Rectangle" class="cls-41" x="253.8" y="132.66" width="45.13" height="6.69" rx="2"/><rect id="Rectangle-32" data-name="Rectangle" class="cls-42" x="253.8" y="164.42" width="65.19" height="6.69" rx="2"/><rect id="Rectangle-33" data-name="Rectangle" class="cls-43" x="253.8" y="196.18" width="41.79" height="6.69" rx="2"/><rect id="Rectangle-34" data-name="Rectangle" class="cls-44" x="253.8" y="100.9" width="73.55" height="6.69" rx="2"/><polyline id="Path-2" class="cls-45" points="223.71 127.64 230.4 134.33 245.44 119.29"/><polyline id="Path-2-2" data-name="Path-2" class="cls-46" points="223.71 191.17 230.4 197.85 245.44 182.81"/><polyline id="Path-2-3" data-name="Path-2" class="cls-47" points="223.71 95.88 230.4 102.57 245.44 87.52"/></svg>
