<svg width="640" height="480" viewBox="0 0 640 480" fill="none" xmlns="http://www.w3.org/2000/svg">
<g clip-path="url(#clip0_3623_8389)">
<rect width="640" height="480" fill="#F4F4F5"/>
<path d="M147.454 109.509H822.088C830.418 109.509 837.171 116.262 837.171 124.592V412.546C837.171 420.876 830.418 427.629 822.088 427.629H147.454C139.124 427.629 132.371 420.876 132.371 412.546V124.592C132.371 116.262 139.124 109.509 147.454 109.509Z" fill="white" stroke="#D2D3D6" stroke-width="2.74241"/>
<rect x="155.683" y="198.638" width="10.9697" height="10.9697" rx="2.74241" fill="#EDEEEF"/>
<rect width="10.9697" height="10.9697" rx="2.74241" transform="matrix(1 0 0 -1 155.683 280.91)" fill="#EDEEEF"/>
<rect x="172.137" y="198.638" width="10.9697" height="10.9697" rx="2.74241" fill="#EDEEEF"/>
<rect width="10.9697" height="10.9697" rx="2.74241" transform="matrix(1 0 0 -1 172.137 280.91)" fill="#EDEEEF"/>
<rect x="188.591" y="198.638" width="10.9697" height="10.9697" rx="2.74241" fill="#EDEEEF"/>
<rect x="205.047" y="198.638" width="10.9697" height="10.9697" rx="2.74241" fill="#EDEEEF"/>
<rect width="10.9697" height="10.9697" rx="2.74241" transform="matrix(1 0 0 -1 205.047 280.91)" fill="#EDEEEF"/>
<rect x="221.501" y="198.638" width="10.9697" height="10.9697" rx="2.74241" fill="#EDEEEF"/>
<rect width="10.9697" height="10.9697" rx="2.74241" transform="matrix(1 0 0 -1 221.501 280.91)" fill="#EDEEEF"/>
<rect x="237.955" y="198.638" width="10.9697" height="10.9697" rx="2.74241" fill="#EDEEEF"/>
<rect width="10.9697" height="10.9697" rx="2.74241" transform="matrix(1 0 0 -1 237.955 280.91)" fill="#EDEEEF"/>
<rect x="254.409" y="198.638" width="10.9697" height="10.9697" rx="2.74241" fill="#EDEEEF"/>
<rect x="270.863" y="198.638" width="10.9697" height="10.9697" rx="2.74241" fill="#EDEEEF"/>
<rect width="10.9697" height="10.9697" rx="2.74241" transform="matrix(1 0 0 -1 270.863 280.91)" fill="#EDEEEF"/>
<rect x="287.317" y="198.638" width="10.9697" height="10.9697" rx="2.74241" fill="#EDEEEF"/>
<rect width="10.9697" height="10.9697" rx="2.74241" transform="matrix(1 0 0 -1 287.317 280.91)" fill="#EDEEEF"/>
<rect x="303.773" y="198.638" width="10.9697" height="10.9697" rx="2.74241" fill="#EDEEEF"/>
<rect width="10.9697" height="10.9697" rx="2.74241" transform="matrix(1 0 0 -1 303.773 280.91)" fill="#EDEEEF"/>
<rect x="320.228" y="198.638" width="10.9697" height="10.9697" rx="2.74241" fill="#EDEEEF"/>
<rect width="10.9697" height="10.9697" rx="2.74241" transform="matrix(1 0 0 -1 320.228 280.91)" fill="#EDEEEF"/>
<rect x="336.682" y="198.638" width="10.9697" height="10.9697" rx="2.74241" fill="#EDEEEF"/>
<rect x="353.136" y="198.638" width="10.9697" height="10.9697" rx="2.74241" fill="#EDEEEF"/>
<rect width="10.9697" height="10.9697" rx="2.74241" transform="matrix(1 0 0 -1 353.136 280.91)" fill="#EDEEEF"/>
<rect x="369.591" y="198.638" width="10.9697" height="10.9697" rx="2.74241" fill="#EDEEEF"/>
<rect width="10.9697" height="10.9697" rx="2.74241" transform="matrix(1 0 0 -1 369.591 280.91)" fill="#EDEEEF"/>
<rect x="386.045" y="198.638" width="10.9697" height="10.9697" rx="2.74241" fill="#EDEEEF"/>
<rect width="10.9697" height="10.9697" rx="2.74241" transform="matrix(1 0 0 -1 386.045 280.91)" fill="#EDEEEF"/>
<rect x="402.5" y="198.638" width="10.9697" height="10.9697" rx="2.74241" fill="#EDEEEF"/>
<rect width="10.9697" height="10.9697" rx="2.74241" transform="matrix(1 0 0 -1 402.5 280.91)" fill="#EDEEEF"/>
<rect x="418.954" y="198.638" width="10.9697" height="10.9697" rx="2.74241" fill="#EDEEEF"/>
<rect width="10.9697" height="10.9697" rx="2.74241" transform="matrix(1 0 0 -1 418.954 280.91)" fill="#EDEEEF"/>
<rect x="517.682" y="198.638" width="10.9697" height="10.9697" rx="2.74241" fill="#EDEEEF"/>
<rect x="462.833" y="198.638" width="10.9697" height="10.9697" rx="2.74241" fill="#EDEEEF"/>
<rect x="479.287" y="198.638" width="10.9697" height="10.9697" rx="2.74241" fill="#EDEEEF"/>
<rect x="567.044" y="198.638" width="10.9697" height="10.9697" rx="2.74241" fill="#EDEEEF"/>
<rect x="616.408" y="198.638" width="10.9697" height="10.9697" rx="2.74241" fill="#EDEEEF"/>
<rect x="632.862" y="198.638" width="10.9697" height="10.9697" rx="2.74241" fill="#EDEEEF"/>
<rect x="534.136" y="198.638" width="10.9697" height="10.9697" rx="2.74241" fill="#EDEEEF"/>
<rect x="550.59" y="198.638" width="10.9697" height="10.9697" rx="2.74241" fill="#EDEEEF"/>
<rect x="155.683" y="215.092" width="10.9697" height="10.9697" rx="2.74241" fill="#EDEEEF"/>
<rect width="10.9697" height="10.9697" rx="2.74241" transform="matrix(1 0 0 -1 155.683 264.455)" fill="#EDEEEF"/>
<rect x="172.137" y="215.092" width="10.9697" height="10.9697" rx="2.74241" fill="#C9CBCF"/>
<rect width="10.9697" height="10.9697" rx="2.74241" transform="matrix(1 0 0 -1 172.137 264.455)" fill="#C9CBCF"/>
<rect x="188.591" y="215.092" width="10.9697" height="10.9697" rx="2.74241" fill="#C9CBCF"/>
<rect x="205.047" y="215.092" width="10.9697" height="10.9697" rx="2.74241" fill="#C9CBCF"/>
<rect width="10.9697" height="10.9697" rx="2.74241" transform="matrix(1 0 0 -1 205.047 264.455)" fill="#C9CBCF"/>
<rect x="221.501" y="215.092" width="10.9697" height="10.9697" rx="2.74241" fill="#C9CBCF"/>
<rect width="10.9697" height="10.9697" rx="2.74241" transform="matrix(1 0 0 -1 221.501 264.455)" fill="#C9CBCF"/>
<rect x="237.955" y="215.092" width="10.9697" height="10.9697" rx="2.74241" fill="#C9CBCF"/>
<rect width="10.9697" height="10.9697" rx="2.74241" transform="matrix(1 0 0 -1 237.955 264.455)" fill="#C9CBCF"/>
<rect x="254.409" y="215.092" width="10.9697" height="10.9697" rx="2.74241" fill="#C9CBCF"/>
<rect x="270.863" y="215.092" width="10.9697" height="10.9697" rx="2.74241" fill="#C9CBCF"/>
<rect width="10.9697" height="10.9697" rx="2.74241" transform="matrix(1 0 0 -1 270.863 264.455)" fill="#C9CBCF"/>
<rect x="287.317" y="215.092" width="10.9697" height="10.9697" rx="2.74241" fill="#C9CBCF"/>
<rect width="10.9697" height="10.9697" rx="2.74241" transform="matrix(1 0 0 -1 287.317 264.455)" fill="#C9CBCF"/>
<rect x="303.773" y="215.092" width="10.9697" height="10.9697" rx="2.74241" fill="#C9CBCF"/>
<rect width="10.9697" height="10.9697" rx="2.74241" transform="matrix(1 0 0 -1 303.773 264.455)" fill="#C9CBCF"/>
<rect x="320.228" y="215.092" width="10.9697" height="10.9697" rx="2.74241" fill="#C9CBCF"/>
<rect width="10.9697" height="10.9697" rx="2.74241" transform="matrix(1 0 0 -1 320.228 264.455)" fill="#C9CBCF"/>
<rect x="336.682" y="215.092" width="10.9697" height="10.9697" rx="2.74241" fill="#C9CBCF"/>
<rect x="353.136" y="215.092" width="10.9697" height="10.9697" rx="2.74241" fill="#C9CBCF"/>
<rect width="10.9697" height="10.9697" rx="2.74241" transform="matrix(1 0 0 -1 353.136 264.455)" fill="#C9CBCF"/>
<rect x="369.591" y="215.092" width="10.9697" height="10.9697" rx="2.74241" fill="#C9CBCF"/>
<rect width="10.9697" height="10.9697" rx="2.74241" transform="matrix(1 0 0 -1 369.591 264.455)" fill="#C9CBCF"/>
<rect x="386.045" y="215.092" width="10.9697" height="10.9697" rx="2.74241" fill="#C9CBCF"/>
<rect width="10.9697" height="10.9697" rx="2.74241" transform="matrix(1 0 0 -1 386.045 264.455)" fill="#C9CBCF"/>
<rect x="402.5" y="215.092" width="10.9697" height="10.9697" rx="2.74241" fill="#C9CBCF"/>
<rect width="10.9697" height="10.9697" rx="2.74241" transform="matrix(1 0 0 -1 402.5 264.455)" fill="#C9CBCF"/>
<rect x="418.954" y="215.092" width="10.9697" height="10.9697" rx="2.74241" fill="#C9CBCF"/>
<rect width="10.9697" height="10.9697" rx="2.74241" transform="matrix(1 0 0 -1 418.954 264.455)" fill="#C9CBCF"/>
<rect x="517.682" y="215.092" width="10.9697" height="10.9697" rx="2.74241" fill="#C9CBCF"/>
<rect x="462.833" y="215.092" width="10.9697" height="10.9697" rx="2.74241" fill="#C9CBCF"/>
<rect x="479.287" y="215.092" width="10.9697" height="10.9697" rx="2.74241" fill="#C9CBCF"/>
<rect x="567.044" y="215.092" width="10.9697" height="10.9697" rx="2.74241" fill="#C9CBCF"/>
<rect x="616.408" y="215.092" width="10.9697" height="10.9697" rx="2.74241" fill="#C9CBCF"/>
<rect x="632.862" y="215.092" width="10.9697" height="10.9697" rx="2.74241" fill="#C9CBCF"/>
<rect x="534.136" y="215.092" width="10.9697" height="10.9697" rx="2.74241" fill="#C9CBCF"/>
<rect x="550.59" y="215.092" width="10.9697" height="10.9697" rx="2.74241" fill="#C9CBCF"/>
<rect width="10.9697" height="10.9697" rx="2.74241" transform="matrix(1 0 0 -1 462.833 280.91)" fill="#EDEEEF"/>
<rect width="10.9697" height="10.9697" rx="2.74241" transform="matrix(1 0 0 -1 512.196 280.91)" fill="#EDEEEF"/>
<rect width="10.9697" height="10.9697" rx="2.74241" transform="matrix(1 0 0 -1 528.65 280.91)" fill="#EDEEEF"/>
<rect width="10.9697" height="10.9697" rx="2.74241" transform="matrix(1 0 0 -1 545.104 280.91)" fill="#EDEEEF"/>
<rect width="10.9697" height="10.9697" rx="2.74241" transform="matrix(1 0 0 -1 561.56 280.91)" fill="#EDEEEF"/>
<rect x="616.408" y="253.486" width="10.9697" height="10.9697" rx="2.74241" fill="#EDEEEF"/>
<rect x="632.862" y="253.486" width="10.9697" height="10.9697" rx="2.74241" fill="#EDEEEF"/>
<rect width="10.9697" height="10.9697" rx="2.74241" transform="matrix(1 0 0 -1 479.287 280.91)" fill="#EDEEEF"/>
<rect width="10.9697" height="10.9697" rx="2.74241" transform="matrix(1 0 0 -1 495.742 280.91)" fill="#EDEEEF"/>
<rect width="10.9697" height="10.9697" rx="2.74241" transform="matrix(1 0 0 -1 462.833 264.455)" fill="#C9CBCF"/>
<rect width="10.9697" height="10.9697" rx="2.74241" transform="matrix(1 0 0 -1 512.196 264.455)" fill="#C9CBCF"/>
<rect width="10.9697" height="10.9697" rx="2.74241" transform="matrix(1 0 0 -1 528.65 264.455)" fill="#C9CBCF"/>
<rect width="10.9697" height="10.9697" rx="2.74241" transform="matrix(1 0 0 -1 545.104 264.455)" fill="#C9CBCF"/>
<rect width="10.9697" height="10.9697" rx="2.74241" transform="matrix(1 0 0 -1 561.56 264.455)" fill="#C9CBCF"/>
<rect x="616.408" y="269.94" width="10.9697" height="10.9697" rx="2.74241" fill="#C9CBCF"/>
<rect x="632.862" y="269.94" width="10.9697" height="10.9697" rx="2.74241" fill="#C9CBCF"/>
<rect width="10.9697" height="10.9697" rx="2.74241" transform="matrix(1 0 0 -1 479.287 264.455)" fill="#C9CBCF"/>
<rect width="10.9697" height="10.9697" rx="2.74241" transform="matrix(1 0 0 -1 495.742 264.455)" fill="#C9CBCF"/>
<rect x="517.682" y="308.334" width="10.9697" height="10.9697" rx="2.74241" fill="#EDEEEF"/>
<rect x="567.044" y="308.334" width="10.9697" height="10.9697" rx="2.74241" fill="#EDEEEF"/>
<rect x="616.408" y="308.334" width="10.9697" height="10.9697" rx="2.74241" fill="#EDEEEF"/>
<rect x="632.862" y="308.334" width="10.9697" height="10.9697" rx="2.74241" fill="#EDEEEF"/>
<rect x="534.136" y="308.334" width="10.9697" height="10.9697" rx="2.74241" fill="#EDEEEF"/>
<rect x="550.59" y="308.334" width="10.9697" height="10.9697" rx="2.74241" fill="#EDEEEF"/>
<rect x="517.682" y="324.788" width="10.9697" height="10.9697" rx="2.74241" fill="#C9CBCF"/>
<rect x="567.044" y="324.788" width="10.9697" height="10.9697" rx="2.74241" fill="#C9CBCF"/>
<rect x="616.408" y="324.788" width="10.9697" height="10.9697" rx="2.74241" fill="#C9CBCF"/>
<rect x="632.862" y="324.788" width="10.9697" height="10.9697" rx="2.74241" fill="#C9CBCF"/>
<rect x="534.136" y="324.788" width="10.9697" height="10.9697" rx="2.74241" fill="#C9CBCF"/>
<rect x="550.59" y="324.788" width="10.9697" height="10.9697" rx="2.74241" fill="#C9CBCF"/>
<rect x="369.591" y="308.334" width="10.9697" height="10.9697" rx="2.74241" fill="#EDEEEF"/>
<rect x="418.954" y="308.334" width="10.9697" height="10.9697" rx="2.74241" fill="#EDEEEF"/>
<rect x="386.045" y="308.334" width="10.9697" height="10.9697" rx="2.74241" fill="#EDEEEF"/>
<rect x="402.5" y="308.334" width="10.9697" height="10.9697" rx="2.74241" fill="#EDEEEF"/>
<rect x="369.591" y="324.788" width="10.9697" height="10.9697" rx="2.74241" fill="#C9CBCF"/>
<rect x="418.954" y="324.788" width="10.9697" height="10.9697" rx="2.74241" fill="#C9CBCF"/>
<rect x="386.045" y="324.788" width="10.9697" height="10.9697" rx="2.74241" fill="#C9CBCF"/>
<rect x="402.5" y="324.788" width="10.9697" height="10.9697" rx="2.74241" fill="#C9CBCF"/>
<rect x="259.895" y="308.334" width="10.9697" height="10.9697" rx="2.74241" fill="#EDEEEF"/>
<rect x="309.257" y="308.334" width="10.9697" height="10.9697" rx="2.74241" fill="#EDEEEF"/>
<rect x="276.349" y="308.334" width="10.9697" height="10.9697" rx="2.74241" fill="#EDEEEF"/>
<rect x="292.803" y="308.334" width="10.9697" height="10.9697" rx="2.74241" fill="#EDEEEF"/>
<rect x="259.895" y="324.788" width="10.9697" height="10.9697" rx="2.74241" fill="#C9CBCF"/>
<rect x="309.257" y="324.788" width="10.9697" height="10.9697" rx="2.74241" fill="#C9CBCF"/>
<rect x="276.349" y="324.788" width="10.9697" height="10.9697" rx="2.74241" fill="#C9CBCF"/>
<rect x="292.803" y="324.788" width="10.9697" height="10.9697" rx="2.74241" fill="#C9CBCF"/>
<rect x="155.683" y="308.334" width="10.9697" height="10.9697" rx="2.74241" fill="#EDEEEF"/>
<rect x="205.047" y="308.334" width="10.9697" height="10.9697" rx="2.74241" fill="#EDEEEF"/>
<rect x="172.137" y="308.334" width="10.9697" height="10.9697" rx="2.74241" fill="#EDEEEF"/>
<rect x="188.591" y="308.334" width="10.9697" height="10.9697" rx="2.74241" fill="#EDEEEF"/>
<rect x="155.683" y="324.788" width="10.9697" height="10.9697" rx="2.74241" fill="#C9CBCF"/>
<rect x="205.047" y="324.788" width="10.9697" height="10.9697" rx="2.74241" fill="#C9CBCF"/>
<rect x="172.137" y="324.788" width="10.9697" height="10.9697" rx="2.74241" fill="#C9CBCF"/>
<rect x="188.591" y="324.788" width="10.9697" height="10.9697" rx="2.74241" fill="#C9CBCF"/>
<rect width="10.9697" height="10.9697" rx="2.74241" transform="matrix(1 0 0 -1 517.682 390.606)" fill="#EDEEEF"/>
<rect width="10.9697" height="10.9697" rx="2.74241" transform="matrix(1 0 0 -1 567.044 390.606)" fill="#EDEEEF"/>
<rect width="10.9697" height="10.9697" rx="2.74241" transform="matrix(1 0 0 -1 616.408 390.606)" fill="#EDEEEF"/>
<rect width="10.9697" height="10.9697" rx="2.74241" transform="matrix(1 0 0 -1 632.862 390.606)" fill="#EDEEEF"/>
<rect width="10.9697" height="10.9697" rx="2.74241" transform="matrix(1 0 0 -1 534.136 390.606)" fill="#EDEEEF"/>
<rect width="10.9697" height="10.9697" rx="2.74241" transform="matrix(1 0 0 -1 550.59 390.606)" fill="#EDEEEF"/>
<rect width="10.9697" height="10.9697" rx="2.74241" transform="matrix(1 0 0 -1 517.682 374.152)" fill="#C9CBCF"/>
<rect width="10.9697" height="10.9697" rx="2.74241" transform="matrix(1 0 0 -1 567.044 374.152)" fill="#C9CBCF"/>
<rect width="10.9697" height="10.9697" rx="2.74241" transform="matrix(1 0 0 -1 616.408 374.152)" fill="#C9CBCF"/>
<rect width="10.9697" height="10.9697" rx="2.74241" transform="matrix(1 0 0 -1 632.862 374.152)" fill="#C9CBCF"/>
<rect width="10.9697" height="10.9697" rx="2.74241" transform="matrix(1 0 0 -1 534.136 374.152)" fill="#C9CBCF"/>
<rect width="10.9697" height="10.9697" rx="2.74241" transform="matrix(1 0 0 -1 550.59 374.152)" fill="#C9CBCF"/>
<mask id="path-146-inside-1_3623_8389" fill="white">
<path d="M131 124.592C131 115.505 138.367 108.138 147.454 108.138H822.088C831.176 108.138 838.543 115.505 838.543 124.592V168.471H131V124.592Z"/>
</mask>
<path d="M131 124.592C131 115.505 138.367 108.138 147.454 108.138H822.088C831.176 108.138 838.543 115.505 838.543 124.592V168.471H131V124.592Z" fill="#F7F7F7"/>
<path d="M128.258 124.592C128.258 113.99 136.852 105.395 147.454 105.395H822.088C832.69 105.395 841.285 113.99 841.285 124.592L835.8 124.592C835.8 117.019 829.661 110.88 822.088 110.88H147.454C139.882 110.88 133.742 117.019 133.742 124.592L128.258 124.592ZM838.543 168.471H131H838.543ZM128.258 168.471V124.592C128.258 113.99 136.852 105.395 147.454 105.395L147.454 110.88C139.882 110.88 133.742 117.019 133.742 124.592V168.471H128.258ZM822.088 105.395C832.69 105.395 841.285 113.99 841.285 124.592V168.471H835.8V124.592C835.8 117.019 829.661 110.88 822.088 110.88L822.088 105.395Z" fill="#D2D3D6" mask="url(#path-146-inside-1_3623_8389)"/>
<rect x="361.364" y="121.851" width="246.817" height="32.909" rx="6.95343" fill="black" fill-opacity="0.05"/>
<g clip-path="url(#clip1_3623_8389)">
<path d="M397.155 144.474H403.62C404.496 144.474 404.924 144.039 404.924 143.089V138.104C404.924 137.249 404.571 136.807 403.844 136.733V135.021C403.844 132.461 402.167 131.226 400.388 131.226C398.608 131.226 396.931 132.461 396.931 135.021V136.767C396.266 136.868 395.852 137.303 395.852 138.104V143.089C395.852 144.039 396.279 144.474 397.155 144.474ZM398.025 134.879C398.025 133.174 399.118 132.271 400.388 132.271C401.657 132.271 402.751 133.174 402.751 134.879V136.726L398.025 136.733V134.879Z" fill="#9E9E9E"/>
<path d="M415.246 142.989C413.738 142.989 412.598 142.077 412.598 140.635V140.621C412.598 139.208 413.642 138.392 415.489 138.281L417.762 138.142V137.421C417.762 136.442 417.166 135.913 415.982 135.913C415.033 135.913 414.408 136.266 414.202 136.884L414.194 136.906H412.914L412.922 136.862C413.128 135.618 414.334 134.78 416.026 134.78C417.961 134.78 419.042 135.773 419.042 137.421V142.85H417.762V141.68H417.644C417.144 142.526 416.313 142.989 415.246 142.989ZM413.907 140.606C413.907 141.408 414.591 141.879 415.511 141.879C416.813 141.879 417.762 141.025 417.762 139.892V139.171L415.643 139.304C414.437 139.377 413.907 139.804 413.907 140.591V140.606ZM421.321 142.85V134.919H422.601V136.111H422.719C423.116 135.273 423.859 134.78 425.029 134.78C426.809 134.78 427.802 135.832 427.802 137.715V142.85H426.522V138.024C426.522 136.597 425.933 135.913 424.668 135.913C423.403 135.913 422.601 136.766 422.601 138.156V142.85H421.321ZM430.442 145.63C430.272 145.63 430.052 145.616 429.875 145.586V144.534C430.03 144.564 430.228 144.571 430.405 144.571C431.133 144.571 431.574 144.24 431.861 143.328L432.008 142.857L429.073 134.919H430.442L432.619 141.445H432.737L434.907 134.919H436.253L433.156 143.335C432.501 145.115 431.847 145.63 430.442 145.63ZM437.627 139.171V137.98H442.571V139.171H437.627ZM446.167 142.85L443.945 134.919H445.225L446.784 141.261H446.902L448.675 134.919H449.889L451.662 141.261H451.779L453.339 134.919H454.612L452.39 142.85H451.103L449.33 136.714H449.212L447.447 142.85H446.167ZM459.186 142.989C456.92 142.989 455.552 141.4 455.552 138.914V138.907C455.552 136.457 456.95 134.78 459.105 134.78C461.26 134.78 462.57 136.383 462.57 138.752V139.252H456.861C456.898 140.893 457.803 141.849 459.215 141.849C460.289 141.849 460.951 141.342 461.165 140.863L461.194 140.797H462.474L462.459 140.856C462.187 141.93 461.054 142.989 459.186 142.989ZM459.098 135.92C457.921 135.92 457.023 136.722 456.883 138.23H461.268C461.135 136.663 460.267 135.92 459.098 135.92ZM468.439 142.989C467.335 142.989 466.452 142.467 465.967 141.584H465.849V142.85H464.569V131.771H465.849V136.17H465.967C466.401 135.324 467.35 134.78 468.439 134.78C470.454 134.78 471.764 136.391 471.764 138.877V138.892C471.764 141.364 470.447 142.989 468.439 142.989ZM468.144 141.857C469.594 141.857 470.454 140.738 470.454 138.892V138.877C470.454 137.031 469.594 135.913 468.144 135.913C466.703 135.913 465.82 137.045 465.82 138.877V138.892C465.82 140.724 466.703 141.857 468.144 141.857ZM476.412 142.989C474.646 142.989 473.432 142.136 473.285 140.827H474.595C474.808 141.489 475.441 141.923 476.456 141.923C477.522 141.923 478.28 141.415 478.28 140.694V140.679C478.28 140.142 477.875 139.767 476.897 139.532L475.669 139.238C474.183 138.885 473.513 138.237 473.513 137.097V137.09C473.513 135.773 474.778 134.78 476.463 134.78C478.126 134.78 479.281 135.611 479.457 136.906H478.199C478.03 136.28 477.412 135.846 476.456 135.846C475.514 135.846 474.823 136.332 474.823 137.031V137.045C474.823 137.582 475.22 137.921 476.154 138.149L477.375 138.443C478.869 138.804 479.589 139.451 479.589 140.584V140.599C479.589 142.011 478.214 142.989 476.412 142.989ZM482.192 133.389C481.707 133.389 481.309 132.992 481.309 132.507C481.309 132.021 481.707 131.624 482.192 131.624C482.678 131.624 483.075 132.021 483.075 132.507C483.075 132.992 482.678 133.389 482.192 133.389ZM481.545 142.85V134.919H482.825V142.85H481.545ZM487.995 142.908C486.362 142.908 485.678 142.305 485.678 140.79V135.979H484.427V134.919H485.678V132.867H487.002V134.919H488.738V135.979H487.002V140.466C487.002 141.4 487.326 141.776 488.149 141.776C488.377 141.776 488.503 141.768 488.738 141.746V142.835C488.488 142.879 488.245 142.908 487.995 142.908ZM493.709 142.989C491.444 142.989 490.075 141.4 490.075 138.914V138.907C490.075 136.457 491.473 134.78 493.628 134.78C495.784 134.78 497.093 136.383 497.093 138.752V139.252H491.385C491.422 140.893 492.326 141.849 493.739 141.849C494.813 141.849 495.475 141.342 495.688 140.863L495.718 140.797H496.998L496.983 140.856C496.711 141.93 495.578 142.989 493.709 142.989ZM493.621 135.92C492.444 135.92 491.547 136.722 491.407 138.23H495.791C495.659 136.663 494.791 135.92 493.621 135.92ZM498.909 139.171V137.98H503.852V139.171H498.909ZM506.595 145.63C506.426 145.63 506.205 145.616 506.028 145.586V144.534C506.183 144.564 506.382 144.571 506.558 144.571C507.286 144.571 507.728 144.24 508.015 143.328L508.162 142.857L505.227 134.919H506.595L508.772 141.445H508.89L511.06 134.919H512.406L509.309 143.335C508.655 145.115 508 145.63 506.595 145.63ZM517.003 142.989C514.744 142.989 513.347 141.43 513.347 138.892V138.877C513.347 136.332 514.744 134.78 517.003 134.78C519.261 134.78 520.659 136.332 520.659 138.877V138.892C520.659 141.43 519.261 142.989 517.003 142.989ZM517.003 141.857C518.503 141.857 519.349 140.76 519.349 138.892V138.877C519.349 137.001 518.503 135.913 517.003 135.913C515.502 135.913 514.656 137.001 514.656 138.877V138.892C514.656 140.76 515.502 141.857 517.003 141.857ZM525.24 142.989C523.438 142.989 522.511 141.93 522.511 140.054V134.919H523.791V139.745C523.791 141.172 524.306 141.857 525.571 141.857C526.969 141.857 527.712 141.003 527.712 139.613V134.919H528.992V142.85H527.712V141.665H527.594C527.205 142.511 526.403 142.989 525.24 142.989ZM531.212 139.171V137.98H536.156V139.171H531.212ZM538.369 142.85V134.919H539.649V136.111H539.766C540.164 135.273 540.907 134.78 542.076 134.78C543.856 134.78 544.85 135.832 544.85 137.715V142.85H543.57V138.024C543.57 136.597 542.981 135.913 541.716 135.913C540.45 135.913 539.649 136.766 539.649 138.156V142.85H538.369ZM550.343 142.989C548.078 142.989 546.709 141.4 546.709 138.914V138.907C546.709 136.457 548.107 134.78 550.262 134.78C552.418 134.78 553.727 136.383 553.727 138.752V139.252H548.019C548.055 140.893 548.96 141.849 550.373 141.849C551.447 141.849 552.109 141.342 552.322 140.863L552.352 140.797H553.632L553.617 140.856C553.345 141.93 552.212 142.989 550.343 142.989ZM550.255 135.92C549.078 135.92 548.181 136.722 548.041 138.23H552.425C552.293 136.663 551.425 135.92 550.255 135.92ZM558.89 142.989C556.624 142.989 555.256 141.4 555.256 138.914V138.907C555.256 136.457 556.654 134.78 558.809 134.78C560.964 134.78 562.274 136.383 562.274 138.752V139.252H556.565C556.602 140.893 557.507 141.849 558.919 141.849C559.993 141.849 560.655 141.342 560.869 140.863L560.898 140.797H562.178L562.164 140.856C561.891 141.93 560.758 142.989 558.89 142.989ZM558.802 135.92C557.625 135.92 556.727 136.722 556.587 138.23H560.972C560.839 136.663 559.971 135.92 558.802 135.92ZM567.128 142.989C565.119 142.989 563.803 141.364 563.803 138.892V138.877C563.803 136.391 565.112 134.78 567.128 134.78C568.216 134.78 569.165 135.324 569.599 136.17H569.717V131.771H570.997V142.85H569.717V141.584H569.599C569.114 142.467 568.231 142.989 567.128 142.989ZM567.422 141.857C568.864 141.857 569.747 140.724 569.747 138.892V138.877C569.747 137.045 568.864 135.913 567.422 135.913C565.973 135.913 565.112 137.031 565.112 138.877V138.892C565.112 140.738 565.973 141.857 567.422 141.857Z" fill="#4C4C4C"/>
</g>
<path d="M594.786 137.404C594.955 137.404 595.084 137.349 595.18 137.248L597.977 134.436C598.099 134.321 598.147 134.185 598.147 134.029C598.147 133.88 598.086 133.73 597.977 133.622L595.18 130.783C595.084 130.674 594.949 130.62 594.786 130.62C594.48 130.62 594.249 130.865 594.249 131.177C594.249 131.32 594.304 131.455 594.399 131.564L596.212 133.343C595.825 133.275 595.431 133.234 595.037 133.234C591.71 133.234 589.034 135.903 589.034 139.23C589.034 142.565 591.71 145.24 595.037 145.24C598.364 145.24 601.033 142.565 601.033 139.23C601.033 138.904 600.802 138.667 600.469 138.667C600.15 138.667 599.94 138.904 599.94 139.23C599.94 141.96 597.76 144.147 595.037 144.147C592.314 144.147 590.127 141.96 590.127 139.23C590.127 136.507 592.314 134.328 595.037 134.328C595.553 134.328 596.028 134.368 596.436 134.457L594.405 136.473C594.304 136.582 594.249 136.718 594.249 136.861C594.249 137.173 594.48 137.404 594.786 137.404Z" fill="#797979"/>
<path d="M161.156 130.422C165.511 130.422 169.04 133.952 169.04 138.307C169.04 142.661 165.51 146.19 161.156 146.19C156.802 146.19 153.272 142.661 153.271 138.307C153.271 133.952 156.802 130.422 161.156 130.422Z" fill="#DB6965" stroke="#DB6965" stroke-width="0.685603"/>
<path d="M188.57 130.422C192.925 130.422 196.454 133.952 196.454 138.307C196.454 142.661 192.925 146.19 188.57 146.19C184.216 146.19 180.686 142.661 180.686 138.307C180.686 133.952 184.216 130.422 188.57 130.422Z" fill="#FFCE50" stroke="#FFCE50" stroke-width="0.685603"/>
<path d="M215.997 130.422C220.351 130.422 223.881 133.952 223.881 138.307C223.881 142.661 220.351 146.19 215.997 146.19C211.643 146.19 208.112 142.661 208.112 138.307C208.112 133.952 211.643 130.422 215.997 130.422Z" fill="#65DB69" stroke="#65DB69" stroke-width="0.685603"/>
<rect x="56.2763" y="65.1034" width="139.034" height="139.034" rx="16.5517" fill="white"/>
<rect x="56.2763" y="65.1034" width="139.034" height="139.034" rx="16.5517" stroke="#D2D3D6" stroke-width="2.2069"/>
<path d="M81.6553 96.3777C81.6553 93.1218 84.2947 90.4824 87.5506 90.4824H164.036C167.292 90.4824 169.931 93.1218 169.931 96.3777V172.863C169.931 176.119 167.292 178.758 164.036 178.758H87.5506C84.2947 178.758 81.6553 176.119 81.6553 172.863V96.3777Z" fill="#F7DF1E"/>
<path d="M137.516 154.275C139.24 157.206 141.654 159.275 145.619 159.275C149.068 159.275 151.309 157.551 151.309 155.137C151.309 152.379 149.068 151.344 145.275 149.62L143.206 148.758C137.171 146.172 133.206 143.068 133.206 136.344C133.206 130.137 137.861 125.31 145.275 125.31C150.619 125.31 154.412 127.206 156.999 132.034L150.619 136.172C149.24 133.585 147.688 132.551 145.275 132.551C142.861 132.551 141.309 134.103 141.309 136.172C141.309 138.585 142.861 139.62 146.481 141.172L148.55 142.034C155.619 145.137 159.585 148.068 159.585 155.137C159.585 162.551 153.723 166.689 145.792 166.689C138.033 166.689 133.033 163.068 130.619 158.241L137.516 154.275ZM108.206 154.965C109.585 157.206 110.619 159.275 113.55 159.275C116.309 159.275 118.033 158.241 118.033 154.103V125.482H126.309V153.758C126.309 162.379 121.309 166.172 113.895 166.172C107.171 166.172 103.378 162.723 101.481 158.585L108.206 154.965Z" fill="black"/>
</g>
<defs>
<clipPath id="clip0_3623_8389">
<rect width="640" height="480" fill="white"/>
</clipPath>
<clipPath id="clip1_3623_8389">
<rect x="395.852" y="128.85" width="177.025" height="18" fill="white"/>
</clipPath>
</defs>
</svg>