<svg width="460" height="200" viewBox="0 0 460 200" fill="none" xmlns="http://www.w3.org/2000/svg">
  <style>
    :root {
      --color-01: #F4F4F5;
      --color-02: #D2D3D6;
      --color-03: white;
      --color-04: #F7F7F7;
      --color-05: #D2D3D6;
      --color-06: white;
    }
    @media (prefers-color-scheme: dark) {
      :root {
      --color-01: #242528;
      --color-02: #3D3F43;
      --color-03: #161718;
      --color-04: #1F2123;
      --color-05: #3D3F43;
      --color-06: #1B1C1D;
      }
    }
  </style>

<g clip-path="url(#clip0_3959_10716)">
<rect width="460" height="200" fill="var(--color-01)"/>
<path d="M102.389 68.7041H587.282C593.269 68.7042 598.123 73.5578 598.123 79.5449V286.512C598.123 292.499 593.27 297.352 587.282 297.353H102.39C96.4023 297.353 91.5479 292.499 91.5479 286.512V79.5459C91.5479 73.5587 96.4015 68.7044 102.389 68.7041Z" fill="var(--color-03)" stroke="var(--color-02)" stroke-width="1.97111"/>
<rect x="108.303" y="132.766" width="7.88444" height="7.88444" rx="1.97111" fill="#EDEEEF"/>
<rect width="7.88444" height="7.88444" rx="1.97111" transform="matrix(1 0 0 -1 108.303 191.899)" fill="#EDEEEF"/>
<rect x="120.13" y="132.766" width="7.88444" height="7.88444" rx="1.97111" fill="#EDEEEF"/>
<rect width="7.88444" height="7.88444" rx="1.97111" transform="matrix(1 0 0 -1 120.13 191.899)" fill="#EDEEEF"/>
<rect x="131.956" y="132.766" width="7.88444" height="7.88444" rx="1.97111" fill="#EDEEEF"/>
<rect x="143.783" y="132.766" width="7.88444" height="7.88444" rx="1.97111" fill="#EDEEEF"/>
<rect width="7.88444" height="7.88444" rx="1.97111" transform="matrix(1 0 0 -1 143.783 191.899)" fill="#EDEEEF"/>
<rect x="155.61" y="132.766" width="7.88444" height="7.88444" rx="1.97111" fill="#EDEEEF"/>
<rect width="7.88444" height="7.88444" rx="1.97111" transform="matrix(1 0 0 -1 155.61 191.899)" fill="#EDEEEF"/>
<rect x="167.437" y="132.766" width="7.88444" height="7.88444" rx="1.97111" fill="#EDEEEF"/>
<rect width="7.88444" height="7.88444" rx="1.97111" transform="matrix(1 0 0 -1 167.437 191.899)" fill="#EDEEEF"/>
<rect x="179.263" y="132.766" width="7.88444" height="7.88444" rx="1.97111" fill="#EDEEEF"/>
<rect x="191.089" y="132.766" width="7.88444" height="7.88444" rx="1.97111" fill="#EDEEEF"/>
<rect width="7.88444" height="7.88444" rx="1.97111" transform="matrix(1 0 0 -1 191.089 191.899)" fill="#EDEEEF"/>
<rect x="202.916" y="132.766" width="7.88444" height="7.88444" rx="1.97111" fill="#EDEEEF"/>
<rect width="7.88444" height="7.88444" rx="1.97111" transform="matrix(1 0 0 -1 202.916 191.899)" fill="#EDEEEF"/>
<rect x="214.743" y="132.766" width="7.88444" height="7.88444" rx="1.97111" fill="#EDEEEF"/>
<rect width="7.88444" height="7.88444" rx="1.97111" transform="matrix(1 0 0 -1 214.743 191.899)" fill="#EDEEEF"/>
<rect x="226.569" y="132.766" width="7.88444" height="7.88444" rx="1.97111" fill="#EDEEEF"/>
<rect width="7.88444" height="7.88444" rx="1.97111" transform="matrix(1 0 0 -1 226.569 191.899)" fill="#EDEEEF"/>
<rect x="238.396" y="132.766" width="7.88444" height="7.88444" rx="1.97111" fill="#EDEEEF"/>
<rect x="250.223" y="132.766" width="7.88444" height="7.88444" rx="1.97111" fill="#EDEEEF"/>
<rect width="7.88444" height="7.88444" rx="1.97111" transform="matrix(1 0 0 -1 250.223 191.899)" fill="#EDEEEF"/>
<rect x="262.05" y="132.766" width="7.88444" height="7.88444" rx="1.97111" fill="#EDEEEF"/>
<rect width="7.88444" height="7.88444" rx="1.97111" transform="matrix(1 0 0 -1 262.05 191.899)" fill="#EDEEEF"/>
<rect x="273.876" y="132.766" width="7.88444" height="7.88444" rx="1.97111" fill="#EDEEEF"/>
<rect width="7.88444" height="7.88444" rx="1.97111" transform="matrix(1 0 0 -1 273.876 191.899)" fill="#EDEEEF"/>
<rect x="285.703" y="132.766" width="7.88444" height="7.88444" rx="1.97111" fill="#EDEEEF"/>
<rect width="7.88444" height="7.88444" rx="1.97111" transform="matrix(1 0 0 -1 285.703 191.899)" fill="#EDEEEF"/>
<rect x="297.529" y="132.766" width="7.88444" height="7.88444" rx="1.97111" fill="#EDEEEF"/>
<rect width="7.88444" height="7.88444" rx="1.97111" transform="matrix(1 0 0 -1 297.529 191.899)" fill="#EDEEEF"/>
<rect x="368.49" y="132.766" width="7.88444" height="7.88444" rx="1.97111" fill="#EDEEEF"/>
<rect x="329.067" y="132.766" width="7.88444" height="7.88444" rx="1.97111" fill="#EDEEEF"/>
<rect x="340.894" y="132.766" width="7.88444" height="7.88444" rx="1.97111" fill="#EDEEEF"/>
<rect x="403.969" y="132.766" width="7.88444" height="7.88444" rx="1.97111" fill="#EDEEEF"/>
<rect x="439.449" y="132.766" width="7.88444" height="7.88444" rx="1.97111" fill="#EDEEEF"/>
<rect x="451.276" y="132.766" width="7.88444" height="7.88444" rx="1.97111" fill="#EDEEEF"/>
<rect x="380.316" y="132.766" width="7.88444" height="7.88444" rx="1.97111" fill="#EDEEEF"/>
<rect x="392.143" y="132.766" width="7.88444" height="7.88444" rx="1.97111" fill="#EDEEEF"/>
<rect x="108.303" y="144.592" width="7.88444" height="7.88444" rx="1.97111" fill="#EDEEEF"/>
<rect width="7.88444" height="7.88444" rx="1.97111" transform="matrix(1 0 0 -1 108.303 180.072)" fill="#EDEEEF"/>
<rect x="120.13" y="144.592" width="7.88444" height="7.88444" rx="1.97111" fill="#C9CBCF"/>
<rect width="7.88444" height="7.88444" rx="1.97111" transform="matrix(1 0 0 -1 120.13 180.072)" fill="#C9CBCF"/>
<rect x="131.956" y="144.592" width="7.88444" height="7.88444" rx="1.97111" fill="#C9CBCF"/>
<rect x="143.783" y="144.592" width="7.88444" height="7.88444" rx="1.97111" fill="#C9CBCF"/>
<rect width="7.88444" height="7.88444" rx="1.97111" transform="matrix(1 0 0 -1 143.783 180.072)" fill="#C9CBCF"/>
<rect x="155.61" y="144.592" width="7.88444" height="7.88444" rx="1.97111" fill="#C9CBCF"/>
<rect width="7.88444" height="7.88444" rx="1.97111" transform="matrix(1 0 0 -1 155.61 180.072)" fill="#C9CBCF"/>
<rect x="167.437" y="144.592" width="7.88444" height="7.88444" rx="1.97111" fill="#C9CBCF"/>
<rect width="7.88444" height="7.88444" rx="1.97111" transform="matrix(1 0 0 -1 167.437 180.072)" fill="#C9CBCF"/>
<rect x="179.263" y="144.592" width="7.88444" height="7.88444" rx="1.97111" fill="#C9CBCF"/>
<rect x="191.089" y="144.592" width="7.88444" height="7.88444" rx="1.97111" fill="#C9CBCF"/>
<rect width="7.88444" height="7.88444" rx="1.97111" transform="matrix(1 0 0 -1 191.089 180.072)" fill="#C9CBCF"/>
<rect x="202.916" y="144.592" width="7.88444" height="7.88444" rx="1.97111" fill="#C9CBCF"/>
<rect width="7.88444" height="7.88444" rx="1.97111" transform="matrix(1 0 0 -1 202.916 180.072)" fill="#C9CBCF"/>
<rect x="214.743" y="144.592" width="7.88444" height="7.88444" rx="1.97111" fill="#C9CBCF"/>
<rect width="7.88444" height="7.88444" rx="1.97111" transform="matrix(1 0 0 -1 214.743 180.072)" fill="#C9CBCF"/>
<rect x="226.569" y="144.592" width="7.88444" height="7.88444" rx="1.97111" fill="#C9CBCF"/>
<rect width="7.88444" height="7.88444" rx="1.97111" transform="matrix(1 0 0 -1 226.569 180.072)" fill="#C9CBCF"/>
<rect x="238.396" y="144.592" width="7.88444" height="7.88444" rx="1.97111" fill="#C9CBCF"/>
<rect x="250.223" y="144.592" width="7.88444" height="7.88444" rx="1.97111" fill="#C9CBCF"/>
<rect width="7.88444" height="7.88444" rx="1.97111" transform="matrix(1 0 0 -1 250.223 180.072)" fill="#C9CBCF"/>
<rect x="262.05" y="144.592" width="7.88444" height="7.88444" rx="1.97111" fill="#C9CBCF"/>
<rect width="7.88444" height="7.88444" rx="1.97111" transform="matrix(1 0 0 -1 262.05 180.072)" fill="#C9CBCF"/>
<rect x="273.876" y="144.592" width="7.88444" height="7.88444" rx="1.97111" fill="#C9CBCF"/>
<rect width="7.88444" height="7.88444" rx="1.97111" transform="matrix(1 0 0 -1 273.876 180.072)" fill="#C9CBCF"/>
<rect x="285.703" y="144.592" width="7.88444" height="7.88444" rx="1.97111" fill="#C9CBCF"/>
<rect width="7.88444" height="7.88444" rx="1.97111" transform="matrix(1 0 0 -1 285.703 180.072)" fill="#C9CBCF"/>
<rect x="297.529" y="144.592" width="7.88444" height="7.88444" rx="1.97111" fill="#C9CBCF"/>
<rect width="7.88444" height="7.88444" rx="1.97111" transform="matrix(1 0 0 -1 297.529 180.072)" fill="#C9CBCF"/>
<rect x="368.49" y="144.592" width="7.88444" height="7.88444" rx="1.97111" fill="#C9CBCF"/>
<rect x="329.067" y="144.592" width="7.88444" height="7.88444" rx="1.97111" fill="#C9CBCF"/>
<rect x="340.894" y="144.592" width="7.88444" height="7.88444" rx="1.97111" fill="#C9CBCF"/>
<rect x="403.969" y="144.592" width="7.88444" height="7.88444" rx="1.97111" fill="#C9CBCF"/>
<rect x="439.449" y="144.592" width="7.88444" height="7.88444" rx="1.97111" fill="#C9CBCF"/>
<rect x="451.276" y="144.592" width="7.88444" height="7.88444" rx="1.97111" fill="#C9CBCF"/>
<rect x="380.316" y="144.592" width="7.88444" height="7.88444" rx="1.97111" fill="#C9CBCF"/>
<rect x="392.143" y="144.592" width="7.88444" height="7.88444" rx="1.97111" fill="#C9CBCF"/>
<rect width="7.88444" height="7.88444" rx="1.97111" transform="matrix(1 0 0 -1 329.067 191.899)" fill="#EDEEEF"/>
<rect width="7.88444" height="7.88444" rx="1.97111" transform="matrix(1 0 0 -1 364.547 191.899)" fill="#EDEEEF"/>
<rect width="7.88444" height="7.88444" rx="1.97111" transform="matrix(1 0 0 -1 376.374 191.899)" fill="#EDEEEF"/>
<rect width="7.88444" height="7.88444" rx="1.97111" transform="matrix(1 0 0 -1 388.2 191.899)" fill="#EDEEEF"/>
<rect width="7.88444" height="7.88444" rx="1.97111" transform="matrix(1 0 0 -1 400.027 191.899)" fill="#EDEEEF"/>
<rect x="439.449" y="172.188" width="7.88444" height="7.88444" rx="1.97111" fill="#EDEEEF"/>
<rect x="451.276" y="172.188" width="7.88444" height="7.88444" rx="1.97111" fill="#EDEEEF"/>
<rect width="7.88444" height="7.88444" rx="1.97111" transform="matrix(1 0 0 -1 340.894 191.899)" fill="#EDEEEF"/>
<rect width="7.88444" height="7.88444" rx="1.97111" transform="matrix(1 0 0 -1 352.721 191.899)" fill="#EDEEEF"/>
<rect width="7.88444" height="7.88444" rx="1.97111" transform="matrix(1 0 0 -1 329.067 180.072)" fill="#C9CBCF"/>
<rect width="7.88444" height="7.88444" rx="1.97111" transform="matrix(1 0 0 -1 364.547 180.072)" fill="#C9CBCF"/>
<rect width="7.88444" height="7.88444" rx="1.97111" transform="matrix(1 0 0 -1 376.374 180.072)" fill="#C9CBCF"/>
<rect width="7.88444" height="7.88444" rx="1.97111" transform="matrix(1 0 0 -1 388.2 180.072)" fill="#C9CBCF"/>
<rect width="7.88444" height="7.88444" rx="1.97111" transform="matrix(1 0 0 -1 400.027 180.072)" fill="#C9CBCF"/>
<rect x="439.449" y="184.015" width="7.88444" height="7.88444" rx="1.97111" fill="#C9CBCF"/>
<rect x="451.276" y="184.015" width="7.88444" height="7.88444" rx="1.97111" fill="#C9CBCF"/>
<rect width="7.88444" height="7.88444" rx="1.97111" transform="matrix(1 0 0 -1 340.894 180.072)" fill="#C9CBCF"/>
<rect width="7.88444" height="7.88444" rx="1.97111" transform="matrix(1 0 0 -1 352.721 180.072)" fill="#C9CBCF"/>
<mask id="path-98-inside-1_3959_10716" fill="white">
<path d="M90.5625 79.5454C90.5625 73.0137 95.8575 67.7188 102.389 67.7188H587.282C593.814 67.7188 599.109 73.0137 599.109 79.5454V111.083H90.5625V79.5454Z"/>
</mask>
<path d="M90.5625 79.5454C90.5625 73.0137 95.8575 67.7188 102.389 67.7188H587.282C593.814 67.7188 599.109 73.0137 599.109 79.5454V111.083H90.5625V79.5454Z" fill="var(--color-04)"/>
<path d="M88.5914 79.5454C88.5914 71.9251 94.7689 65.7476 102.389 65.7476H587.282C594.902 65.7476 601.08 71.9251 601.08 79.5454L597.138 79.5454C597.138 74.1023 592.725 69.6899 587.282 69.6899H102.389C96.9461 69.6899 92.5336 74.1023 92.5336 79.5454L88.5914 79.5454ZM599.109 111.083H90.5625H599.109ZM88.5914 111.083V79.5454C88.5914 71.9251 94.7689 65.7476 102.389 65.7476L102.389 69.6899C96.9461 69.6899 92.5336 74.1023 92.5336 79.5454V111.083H88.5914ZM587.282 65.7476C594.902 65.7476 601.08 71.9251 601.08 79.5454V111.083H597.138V79.5454C597.138 74.1023 592.725 69.6899 587.282 69.6899L587.282 65.7476Z" fill="var(--color-05)" mask="url(#path-98-inside-1_3959_10716)"/>
<rect x="256.137" y="77.5752" width="177.4" height="23.6533" rx="4.99778" fill="black" fill-opacity="0.05"/>
<g clip-path="url(#clip1_3959_10716)">
<path d="M282.315 94.3366H286.961C287.591 94.3366 287.898 94.0242 287.898 93.3409V89.7585C287.898 89.1436 287.645 88.8263 287.122 88.7727V87.5427C287.122 85.7027 285.917 84.8145 284.638 84.8145C283.359 84.8145 282.154 85.7027 282.154 87.5427V88.7971C281.676 88.8703 281.378 89.1826 281.378 89.7585V93.3409C281.378 94.0242 281.685 94.3366 282.315 94.3366ZM282.94 87.4402C282.94 86.2152 283.726 85.5661 284.638 85.5661C285.551 85.5661 286.337 86.2152 286.337 87.4402V88.7678L282.94 88.7727V87.4402Z" fill="#9E9E9E"/>
<path d="M295.318 93.1757C294.234 93.1757 293.415 92.52 293.415 91.4837V91.4731C293.415 90.4579 294.165 89.8711 295.493 89.7917L297.126 89.6913V89.1731C297.126 88.4699 296.698 88.0892 295.847 88.0892C295.165 88.0892 294.715 88.343 294.567 88.7871L294.562 88.803H293.642L293.647 88.7713C293.795 87.8777 294.662 87.275 295.879 87.275C297.269 87.275 298.046 87.9887 298.046 89.1731V93.0752H297.126V92.2345H297.042C296.682 92.8426 296.085 93.1757 295.318 93.1757ZM294.356 91.4625C294.356 92.0389 294.848 92.3773 295.508 92.3773C296.444 92.3773 297.126 91.7639 297.126 90.9497V90.4315L295.604 90.5267C294.736 90.5796 294.356 90.8862 294.356 91.452V91.4625ZM299.684 93.0752V87.3754H300.604V88.232H300.689C300.975 87.6292 301.509 87.275 302.349 87.275C303.629 87.275 304.343 88.031 304.343 89.3846V93.0752H303.423V89.6067C303.423 88.5809 303 88.0892 302.09 88.0892C301.181 88.0892 300.604 88.7025 300.604 89.7019V93.0752H299.684ZM306.24 95.0738C306.118 95.0738 305.96 95.0632 305.833 95.0421V94.286C305.944 94.3072 306.086 94.3124 306.213 94.3124C306.737 94.3124 307.054 94.0745 307.26 93.4189L307.366 93.0805L305.256 87.3754H306.24L307.805 92.0653H307.889L309.449 87.3754H310.417L308.191 93.4242C307.72 94.7037 307.25 95.0738 306.24 95.0738ZM311.405 90.4315V89.575H314.958V90.4315H311.405ZM317.542 93.0752L315.945 87.3754H316.865L317.986 91.9331H318.071L319.345 87.3754H320.218L321.492 91.9331H321.576L322.697 87.3754H323.612L322.015 93.0752H321.09L319.816 88.6655H319.731L318.462 93.0752H317.542ZM326.9 93.1757C325.271 93.1757 324.288 92.0336 324.288 90.2465V90.2412C324.288 88.4805 325.292 87.275 326.842 87.275C328.391 87.275 329.332 88.4276 329.332 90.1301V90.4897H325.229C325.255 91.6688 325.906 92.3561 326.921 92.3561C327.693 92.3561 328.169 91.9913 328.322 91.6476L328.343 91.6H329.263L329.253 91.6423C329.057 92.4143 328.243 93.1757 326.9 93.1757ZM326.836 88.0945C325.99 88.0945 325.345 88.6708 325.245 89.7547H328.396C328.301 88.6285 327.677 88.0945 326.836 88.0945ZM333.55 93.1757C332.757 93.1757 332.123 92.8003 331.774 92.1658H331.689V93.0752H330.769V85.1124H331.689V88.2743H331.774C332.086 87.6662 332.768 87.275 333.55 87.275C334.999 87.275 335.94 88.4329 335.94 90.22V90.2306C335.94 92.0071 334.994 93.1757 333.55 93.1757ZM333.339 92.3614C334.38 92.3614 334.999 91.5577 334.999 90.2306V90.22C334.999 88.8929 334.38 88.0892 333.339 88.0892C332.302 88.0892 331.668 88.9035 331.668 90.22V90.2306C331.668 91.5471 332.302 92.3614 333.339 92.3614ZM339.281 93.1757C338.012 93.1757 337.139 92.5623 337.034 91.6212H337.975C338.128 92.097 338.583 92.409 339.312 92.409C340.079 92.409 340.624 92.0442 340.624 91.526V91.5154C340.624 91.1294 340.333 90.8598 339.63 90.6906L338.747 90.4791C337.679 90.2253 337.198 89.76 337.198 88.9405V88.9352C337.198 87.9887 338.107 87.275 339.318 87.275C340.513 87.275 341.343 87.8724 341.47 88.803H340.566C340.444 88.3536 340 88.0416 339.312 88.0416C338.636 88.0416 338.139 88.3906 338.139 88.8929V88.9035C338.139 89.2894 338.424 89.5327 339.096 89.6966L339.973 89.9081C341.047 90.1671 341.565 90.6324 341.565 91.4467V91.4573C341.565 92.4724 340.576 93.1757 339.281 93.1757ZM343.436 86.2756C343.087 86.2756 342.801 85.9901 342.801 85.6412C342.801 85.2922 343.087 85.0067 343.436 85.0067C343.785 85.0067 344.07 85.2922 344.07 85.6412C344.07 85.9901 343.785 86.2756 343.436 86.2756ZM342.97 93.0752V87.3754H343.89V93.0752H342.97ZM347.606 93.1175C346.433 93.1175 345.941 92.6839 345.941 91.5947V88.1368H345.042V87.3754H345.941V85.9002H346.893V87.3754H348.14V88.1368H346.893V91.3621C346.893 92.0336 347.125 92.3032 347.717 92.3032C347.881 92.3032 347.971 92.298 348.14 92.2821V93.0646C347.961 93.0963 347.786 93.1175 347.606 93.1175ZM351.714 93.1757C350.085 93.1757 349.102 92.0336 349.102 90.2465V90.2412C349.102 88.4805 350.106 87.275 351.655 87.275C353.205 87.275 354.146 88.4276 354.146 90.1301V90.4897H350.043C350.069 91.6688 350.72 92.3561 351.735 92.3561C352.507 92.3561 352.983 91.9913 353.136 91.6476L353.157 91.6H354.077L354.066 91.6423C353.871 92.4143 353.057 93.1757 351.714 93.1757ZM351.65 88.0945C350.804 88.0945 350.159 88.6708 350.059 89.7547H353.21C353.115 88.6285 352.491 88.0945 351.65 88.0945ZM355.451 90.4315V89.575H359.004V90.4315H355.451ZM360.975 95.0738C360.853 95.0738 360.695 95.0632 360.568 95.0421V94.286C360.679 94.3072 360.822 94.3124 360.949 94.3124C361.472 94.3124 361.789 94.0745 361.995 93.4189L362.101 93.0805L359.992 87.3754H360.975L362.54 92.0653H362.625L364.184 87.3754H365.152L362.926 93.4242C362.455 94.7037 361.985 95.0738 360.975 95.0738ZM368.456 93.1757C366.832 93.1757 365.828 92.0547 365.828 90.2306V90.22C365.828 88.3906 366.832 87.275 368.456 87.275C370.079 87.275 371.083 88.3906 371.083 90.22V90.2306C371.083 92.0547 370.079 93.1757 368.456 93.1757ZM368.456 92.3614C369.534 92.3614 370.142 91.5736 370.142 90.2306V90.22C370.142 88.8717 369.534 88.0892 368.456 88.0892C367.377 88.0892 366.769 88.8717 366.769 90.22V90.2306C366.769 91.5736 367.377 92.3614 368.456 92.3614ZM374.376 93.1757C373.081 93.1757 372.415 92.4143 372.415 91.066V87.3754H373.335V90.8439C373.335 91.8697 373.705 92.3614 374.614 92.3614C375.619 92.3614 376.153 91.7481 376.153 90.7488V87.3754H377.073V93.0752H376.153V92.2239H376.068C375.788 92.832 375.212 93.1757 374.376 93.1757ZM378.669 90.4315V89.575H382.222V90.4315H378.669ZM383.812 93.0752V87.3754H384.732V88.232H384.817C385.102 87.6292 385.637 87.275 386.477 87.275C387.757 87.275 388.471 88.031 388.471 89.3846V93.0752H387.551V89.6067C387.551 88.5809 387.128 88.0892 386.218 88.0892C385.309 88.0892 384.732 88.7025 384.732 89.7019V93.0752H383.812ZM392.419 93.1757C390.791 93.1757 389.807 92.0336 389.807 90.2465V90.2412C389.807 88.4805 390.812 87.275 392.361 87.275C393.91 87.275 394.851 88.4276 394.851 90.1301V90.4897H390.748C390.775 91.6688 391.425 92.3561 392.44 92.3561C393.212 92.3561 393.688 91.9913 393.841 91.6476L393.863 91.6H394.783L394.772 91.6423C394.576 92.4143 393.762 93.1757 392.419 93.1757ZM392.356 88.0945C391.51 88.0945 390.865 88.6708 390.764 89.7547H393.916C393.82 88.6285 393.196 88.0945 392.356 88.0945ZM398.562 93.1757C396.934 93.1757 395.95 92.0336 395.95 90.2465V90.2412C395.95 88.4805 396.955 87.275 398.504 87.275C400.053 87.275 400.994 88.4276 400.994 90.1301V90.4897H396.891C396.918 91.6688 397.568 92.3561 398.583 92.3561C399.355 92.3561 399.831 91.9913 399.984 91.6476L400.006 91.6H400.926L400.915 91.6423C400.719 92.4143 399.905 93.1757 398.562 93.1757ZM398.499 88.0945C397.653 88.0945 397.008 88.6708 396.907 89.7547H400.058C399.963 88.6285 399.339 88.0945 398.499 88.0945ZM404.483 93.1757C403.039 93.1757 402.093 92.0071 402.093 90.2306V90.22C402.093 88.4329 403.034 87.275 404.483 87.275C405.265 87.275 405.948 87.6662 406.259 88.2743H406.344V85.1124H407.264V93.0752H406.344V92.1658H406.259C405.911 92.8003 405.276 93.1757 404.483 93.1757ZM404.694 92.3614C405.731 92.3614 406.365 91.5471 406.365 90.2306V90.22C406.365 88.9035 405.731 88.0892 404.694 88.0892C403.653 88.0892 403.034 88.8929 403.034 90.22V90.2306C403.034 91.5577 403.653 92.3614 404.694 92.3614Z" fill="#4C4C4C"/>
</g>
<path d="M423.377 89.2547C423.499 89.2547 423.592 89.2156 423.66 89.1424L425.671 87.1218C425.759 87.0389 425.793 86.9412 425.793 86.829C425.793 86.7216 425.749 86.6142 425.671 86.5362L423.66 84.496C423.592 84.418 423.494 84.3789 423.377 84.3789C423.157 84.3789 422.991 84.5546 422.991 84.7791C422.991 84.8816 423.031 84.9792 423.099 85.0573L424.402 86.336C424.124 86.2872 423.841 86.258 423.558 86.258C421.166 86.258 419.243 88.176 419.243 90.5676C419.243 92.964 421.166 94.8869 423.558 94.8869C425.949 94.8869 427.867 92.964 427.867 90.5676C427.867 90.3333 427.701 90.1625 427.462 90.1625C427.233 90.1625 427.081 90.3333 427.081 90.5676C427.081 92.5296 425.515 94.1012 423.558 94.1012C421.601 94.1012 420.029 92.5296 420.029 90.5676C420.029 88.6104 421.601 87.0437 423.558 87.0437C423.929 87.0437 424.27 87.073 424.563 87.1365L423.104 88.586C423.031 88.6641 422.991 88.7617 422.991 88.8642C422.991 89.0887 423.157 89.2547 423.377 89.2547Z" fill="#797979"/>
<path d="M112.237 83.7354C115.367 83.7354 117.904 86.2727 117.904 89.4023C117.904 92.5321 115.367 95.0693 112.237 95.0693C109.108 95.0692 106.57 92.532 106.57 89.4023C106.57 86.2728 109.108 83.7355 112.237 83.7354Z" fill="#DB6965" stroke="#DB6965" stroke-width="0.492777"/>
<path d="M131.94 83.7354C135.07 83.7354 137.607 86.2727 137.607 89.4023C137.607 92.5321 135.07 95.0693 131.94 95.0693C128.811 95.0692 126.273 92.532 126.273 89.4023C126.274 86.2728 128.811 83.7355 131.94 83.7354Z" fill="#FFCE50" stroke="#FFCE50" stroke-width="0.492777"/>
<path d="M151.653 83.7354C154.783 83.7354 157.32 86.2727 157.32 89.4023C157.32 92.5321 154.783 95.0693 151.653 95.0693C148.524 95.0692 145.986 92.532 145.986 89.4023C145.986 86.2728 148.524 83.7355 151.653 83.7354Z" fill="#65DB69" stroke="#65DB69" stroke-width="0.492777"/>
<rect x="40.4484" y="33.2931" width="99.931" height="99.931" rx="11.8966" fill="var(--color-06)"/>
<rect x="40.4484" y="33.2931" width="99.931" height="99.931" rx="11.8966" stroke="var(--color-02)" stroke-width="1.58621"/>
<path d="M58.6895 55.7714C58.6895 53.4313 60.5865 51.5342 62.9267 51.5342H117.9C120.241 51.5342 122.138 53.4313 122.138 55.7714V110.745C122.138 113.085 120.241 114.982 117.9 114.982H62.9267C60.5865 114.982 58.6895 113.085 58.6895 110.745V55.7714Z" fill="#F7DF1E"/>
<path d="M98.8392 97.3854C100.078 99.4921 101.813 100.979 104.664 100.979C107.142 100.979 108.753 99.7399 108.753 98.005C108.753 96.0222 107.142 95.2787 104.416 94.0395L102.929 93.4199C98.5914 91.561 95.7412 89.3304 95.7412 84.4974C95.7412 80.0362 99.0871 76.5664 104.416 76.5664C108.257 76.5664 110.984 77.9296 112.842 81.3994L108.257 84.3735C107.266 82.5147 106.151 81.7711 104.416 81.7711C102.681 81.7711 101.566 82.8865 101.566 84.3735C101.566 86.1084 102.681 86.852 105.283 87.9673L106.77 88.5869C111.851 90.8175 114.701 92.9242 114.701 98.005C114.701 103.334 110.488 106.308 104.788 106.308C99.211 106.308 95.6173 103.705 93.8823 100.236L98.8392 97.3854ZM77.7724 97.8811C78.7638 99.4921 79.5073 100.979 81.614 100.979C83.5968 100.979 84.836 100.236 84.836 97.2615V76.6903H90.7843V97.0136C90.7843 103.21 87.1905 105.936 81.8619 105.936C77.0289 105.936 74.3026 103.458 72.9395 100.483L77.7724 97.8811Z" fill="black"/>
</g>
<defs>
<clipPath id="clip0_3959_10716">
<rect width="460" height="200" fill="white"/>
</clipPath>
<clipPath id="clip1_3959_10716">
<rect x="281.378" y="83.0752" width="127.518" height="13" fill="white"/>
</clipPath>
</defs>
</svg>
