<svg width="460" height="200" viewBox="0 0 460 200" fill="none" xmlns="http://www.w3.org/2000/svg">
<g clip-path="url(#clip0_6821_16604)">
<rect width="460" height="200" fill="#0F0F0F"/>
<path d="M102.389 68.7041H587.282C593.269 68.7042 598.123 73.5578 598.123 79.5449V286.512C598.123 292.499 593.27 297.352 587.282 297.353H102.39C96.4023 297.353 91.5479 292.499 91.5479 286.512V79.5459C91.5479 73.5587 96.4015 68.7044 102.389 68.7041Z" fill="#020202" stroke="#2A2A2A" stroke-width="1.97111"/>
<rect x="108.303" y="132.766" width="7.88444" height="7.88444" rx="1.97111" fill="#ECECEC"/>
<rect width="7.88444" height="7.88444" rx="1.97111" transform="matrix(1 0 0 -1 108.303 191.899)" fill="#ECECEC"/>
<rect x="120.129" y="132.766" width="7.88444" height="7.88444" rx="1.97111" fill="#ECECEC"/>
<rect width="7.88444" height="7.88444" rx="1.97111" transform="matrix(1 0 0 -1 120.129 191.899)" fill="#ECECEC"/>
<rect x="131.956" y="132.766" width="7.88444" height="7.88444" rx="1.97111" fill="#ECECEC"/>
<rect x="143.784" y="132.766" width="7.88444" height="7.88444" rx="1.97111" fill="#ECECEC"/>
<rect width="7.88444" height="7.88444" rx="1.97111" transform="matrix(1 0 0 -1 143.784 191.899)" fill="#ECECEC"/>
<rect x="155.61" y="132.766" width="7.88444" height="7.88444" rx="1.97111" fill="#ECECEC"/>
<rect width="7.88444" height="7.88444" rx="1.97111" transform="matrix(1 0 0 -1 155.61 191.899)" fill="#ECECEC"/>
<rect x="167.437" y="132.766" width="7.88444" height="7.88444" rx="1.97111" fill="#ECECEC"/>
<rect width="7.88444" height="7.88444" rx="1.97111" transform="matrix(1 0 0 -1 167.437 191.899)" fill="#ECECEC"/>
<rect x="179.263" y="132.766" width="7.88444" height="7.88444" rx="1.97111" fill="#ECECEC"/>
<rect x="191.089" y="132.766" width="7.88444" height="7.88444" rx="1.97111" fill="#ECECEC"/>
<rect width="7.88444" height="7.88444" rx="1.97111" transform="matrix(1 0 0 -1 191.089 191.899)" fill="#ECECEC"/>
<rect x="202.916" y="132.766" width="7.88444" height="7.88444" rx="1.97111" fill="#ECECEC"/>
<rect width="7.88444" height="7.88444" rx="1.97111" transform="matrix(1 0 0 -1 202.916 191.899)" fill="#ECECEC"/>
<rect x="214.743" y="132.766" width="7.88444" height="7.88444" rx="1.97111" fill="#ECECEC"/>
<rect width="7.88444" height="7.88444" rx="1.97111" transform="matrix(1 0 0 -1 214.743 191.899)" fill="#ECECEC"/>
<rect x="226.57" y="132.766" width="7.88444" height="7.88444" rx="1.97111" fill="#ECECEC"/>
<rect width="7.88444" height="7.88444" rx="1.97111" transform="matrix(1 0 0 -1 226.57 191.899)" fill="#ECECEC"/>
<rect x="238.396" y="132.766" width="7.88444" height="7.88444" rx="1.97111" fill="#ECECEC"/>
<rect x="250.223" y="132.766" width="7.88444" height="7.88444" rx="1.97111" fill="#ECECEC"/>
<rect width="7.88444" height="7.88444" rx="1.97111" transform="matrix(1 0 0 -1 250.223 191.899)" fill="#ECECEC"/>
<rect x="262.05" y="132.766" width="7.88444" height="7.88444" rx="1.97111" fill="#ECECEC"/>
<rect width="7.88444" height="7.88444" rx="1.97111" transform="matrix(1 0 0 -1 262.05 191.899)" fill="#ECECEC"/>
<rect x="273.876" y="132.766" width="7.88444" height="7.88444" rx="1.97111" fill="#ECECEC"/>
<rect width="7.88444" height="7.88444" rx="1.97111" transform="matrix(1 0 0 -1 273.876 191.899)" fill="#ECECEC"/>
<rect x="285.703" y="132.766" width="7.88444" height="7.88444" rx="1.97111" fill="#ECECEC"/>
<rect width="7.88444" height="7.88444" rx="1.97111" transform="matrix(1 0 0 -1 285.703 191.899)" fill="#ECECEC"/>
<rect x="297.529" y="132.766" width="7.88444" height="7.88444" rx="1.97111" fill="#ECECEC"/>
<rect width="7.88444" height="7.88444" rx="1.97111" transform="matrix(1 0 0 -1 297.529 191.899)" fill="#ECECEC"/>
<rect x="368.49" y="132.766" width="7.88444" height="7.88444" rx="1.97111" fill="#ECECEC"/>
<rect x="329.067" y="132.766" width="7.88444" height="7.88444" rx="1.97111" fill="#ECECEC"/>
<rect x="340.894" y="132.766" width="7.88444" height="7.88444" rx="1.97111" fill="#ECECEC"/>
<rect x="403.969" y="132.766" width="7.88444" height="7.88444" rx="1.97111" fill="#ECECEC"/>
<rect x="439.45" y="132.766" width="7.88444" height="7.88444" rx="1.97111" fill="#ECECEC"/>
<rect x="451.276" y="132.766" width="7.88444" height="7.88444" rx="1.97111" fill="#ECECEC"/>
<rect x="380.316" y="132.766" width="7.88444" height="7.88444" rx="1.97111" fill="#ECECEC"/>
<rect x="392.143" y="132.766" width="7.88444" height="7.88444" rx="1.97111" fill="#ECECEC"/>
<rect x="108.303" y="144.592" width="7.88444" height="7.88444" rx="1.97111" fill="#ECECEC"/>
<rect width="7.88444" height="7.88444" rx="1.97111" transform="matrix(1 0 0 -1 108.303 180.072)" fill="#ECECEC"/>
<rect x="120.129" y="144.592" width="7.88444" height="7.88444" rx="1.97111" fill="#CBCBCB"/>
<rect width="7.88444" height="7.88444" rx="1.97111" transform="matrix(1 0 0 -1 120.129 180.072)" fill="#CBCBCB"/>
<rect x="131.956" y="144.592" width="7.88444" height="7.88444" rx="1.97111" fill="#CBCBCB"/>
<rect x="143.784" y="144.592" width="7.88444" height="7.88444" rx="1.97111" fill="#CBCBCB"/>
<rect width="7.88444" height="7.88444" rx="1.97111" transform="matrix(1 0 0 -1 143.784 180.072)" fill="#CBCBCB"/>
<rect x="155.61" y="144.592" width="7.88444" height="7.88444" rx="1.97111" fill="#CBCBCB"/>
<rect width="7.88444" height="7.88444" rx="1.97111" transform="matrix(1 0 0 -1 155.61 180.072)" fill="#CBCBCB"/>
<rect x="167.437" y="144.592" width="7.88444" height="7.88444" rx="1.97111" fill="#CBCBCB"/>
<rect width="7.88444" height="7.88444" rx="1.97111" transform="matrix(1 0 0 -1 167.437 180.072)" fill="#CBCBCB"/>
<rect x="179.263" y="144.592" width="7.88444" height="7.88444" rx="1.97111" fill="#CBCBCB"/>
<rect x="191.089" y="144.592" width="7.88444" height="7.88444" rx="1.97111" fill="#CBCBCB"/>
<rect width="7.88444" height="7.88444" rx="1.97111" transform="matrix(1 0 0 -1 191.089 180.072)" fill="#CBCBCB"/>
<rect x="202.916" y="144.592" width="7.88444" height="7.88444" rx="1.97111" fill="#CBCBCB"/>
<rect width="7.88444" height="7.88444" rx="1.97111" transform="matrix(1 0 0 -1 202.916 180.072)" fill="#CBCBCB"/>
<rect x="214.743" y="144.592" width="7.88444" height="7.88444" rx="1.97111" fill="#CBCBCB"/>
<rect width="7.88444" height="7.88444" rx="1.97111" transform="matrix(1 0 0 -1 214.743 180.072)" fill="#CBCBCB"/>
<rect x="226.57" y="144.592" width="7.88444" height="7.88444" rx="1.97111" fill="#CBCBCB"/>
<rect width="7.88444" height="7.88444" rx="1.97111" transform="matrix(1 0 0 -1 226.57 180.072)" fill="#CBCBCB"/>
<rect x="238.396" y="144.592" width="7.88444" height="7.88444" rx="1.97111" fill="#CBCBCB"/>
<rect x="250.223" y="144.592" width="7.88444" height="7.88444" rx="1.97111" fill="#CBCBCB"/>
<rect width="7.88444" height="7.88444" rx="1.97111" transform="matrix(1 0 0 -1 250.223 180.072)" fill="#CBCBCB"/>
<rect x="262.05" y="144.592" width="7.88444" height="7.88444" rx="1.97111" fill="#CBCBCB"/>
<rect width="7.88444" height="7.88444" rx="1.97111" transform="matrix(1 0 0 -1 262.05 180.072)" fill="#CBCBCB"/>
<rect x="273.876" y="144.592" width="7.88444" height="7.88444" rx="1.97111" fill="#CBCBCB"/>
<rect width="7.88444" height="7.88444" rx="1.97111" transform="matrix(1 0 0 -1 273.876 180.072)" fill="#CBCBCB"/>
<rect x="285.703" y="144.592" width="7.88444" height="7.88444" rx="1.97111" fill="#CBCBCB"/>
<rect width="7.88444" height="7.88444" rx="1.97111" transform="matrix(1 0 0 -1 285.703 180.072)" fill="#CBCBCB"/>
<rect x="297.529" y="144.592" width="7.88444" height="7.88444" rx="1.97111" fill="#CBCBCB"/>
<rect width="7.88444" height="7.88444" rx="1.97111" transform="matrix(1 0 0 -1 297.529 180.072)" fill="#CBCBCB"/>
<rect x="368.49" y="144.592" width="7.88444" height="7.88444" rx="1.97111" fill="#CBCBCB"/>
<rect x="329.067" y="144.592" width="7.88444" height="7.88444" rx="1.97111" fill="#CBCBCB"/>
<rect x="340.894" y="144.592" width="7.88444" height="7.88444" rx="1.97111" fill="#CBCBCB"/>
<rect x="403.969" y="144.592" width="7.88444" height="7.88444" rx="1.97111" fill="#CBCBCB"/>
<rect x="439.45" y="144.592" width="7.88444" height="7.88444" rx="1.97111" fill="#CBCBCB"/>
<rect x="451.276" y="144.592" width="7.88444" height="7.88444" rx="1.97111" fill="#CBCBCB"/>
<rect x="380.316" y="144.592" width="7.88444" height="7.88444" rx="1.97111" fill="#CBCBCB"/>
<rect x="392.143" y="144.592" width="7.88444" height="7.88444" rx="1.97111" fill="#CBCBCB"/>
<rect width="7.88444" height="7.88444" rx="1.97111" transform="matrix(1 0 0 -1 329.067 191.899)" fill="#ECECEC"/>
<rect width="7.88444" height="7.88444" rx="1.97111" transform="matrix(1 0 0 -1 364.547 191.899)" fill="#ECECEC"/>
<rect width="7.88444" height="7.88444" rx="1.97111" transform="matrix(1 0 0 -1 376.374 191.899)" fill="#ECECEC"/>
<rect width="7.88444" height="7.88444" rx="1.97111" transform="matrix(1 0 0 -1 388.2 191.899)" fill="#ECECEC"/>
<rect width="7.88444" height="7.88444" rx="1.97111" transform="matrix(1 0 0 -1 400.027 191.899)" fill="#ECECEC"/>
<rect x="439.45" y="172.188" width="7.88444" height="7.88444" rx="1.97111" fill="#ECECEC"/>
<rect x="451.276" y="172.188" width="7.88444" height="7.88444" rx="1.97111" fill="#ECECEC"/>
<rect width="7.88444" height="7.88444" rx="1.97111" transform="matrix(1 0 0 -1 340.894 191.899)" fill="#ECECEC"/>
<rect width="7.88444" height="7.88444" rx="1.97111" transform="matrix(1 0 0 -1 352.721 191.899)" fill="#ECECEC"/>
<rect width="7.88444" height="7.88444" rx="1.97111" transform="matrix(1 0 0 -1 329.067 180.072)" fill="#CBCBCB"/>
<rect width="7.88444" height="7.88444" rx="1.97111" transform="matrix(1 0 0 -1 364.547 180.072)" fill="#CBCBCB"/>
<rect width="7.88444" height="7.88444" rx="1.97111" transform="matrix(1 0 0 -1 376.374 180.072)" fill="#CBCBCB"/>
<rect width="7.88444" height="7.88444" rx="1.97111" transform="matrix(1 0 0 -1 388.2 180.072)" fill="#CBCBCB"/>
<rect width="7.88444" height="7.88444" rx="1.97111" transform="matrix(1 0 0 -1 400.027 180.072)" fill="#CBCBCB"/>
<rect x="439.45" y="184.014" width="7.88444" height="7.88444" rx="1.97111" fill="#CBCBCB"/>
<rect x="451.276" y="184.014" width="7.88444" height="7.88444" rx="1.97111" fill="#CBCBCB"/>
<rect width="7.88444" height="7.88444" rx="1.97111" transform="matrix(1 0 0 -1 340.894 180.072)" fill="#CBCBCB"/>
<rect width="7.88444" height="7.88444" rx="1.97111" transform="matrix(1 0 0 -1 352.721 180.072)" fill="#CBCBCB"/>
<mask id="path-98-inside-1_6821_16604" fill="white">
<path d="M90.5625 79.5454C90.5625 73.0137 95.8575 67.7188 102.389 67.7188H587.282C593.814 67.7188 599.109 73.0137 599.109 79.5454V111.083H90.5625V79.5454Z"/>
</mask>
<path d="M90.5625 79.5454C90.5625 73.0137 95.8575 67.7188 102.389 67.7188H587.282C593.814 67.7188 599.109 73.0137 599.109 79.5454V111.083H90.5625V79.5454Z" fill="#0F0F0F"/>
<path d="M88.5914 79.5454C88.5914 71.9251 94.7689 65.7476 102.389 65.7476H587.282C594.902 65.7476 601.08 71.9251 601.08 79.5454H597.138C597.138 74.1023 592.725 69.6899 587.282 69.6899H102.389C96.9461 69.6899 92.5336 74.1023 92.5336 79.5454H88.5914ZM92.5336 79.5454M599.109 111.083H90.5625H599.109M88.5914 111.083V79.5454C88.5914 71.9251 94.7689 65.7476 102.389 65.7476V69.6899C96.9461 69.6899 92.5336 74.1023 92.5336 79.5454V111.083H88.5914ZM587.282 65.7476C594.902 65.7476 601.08 71.9251 601.08 79.5454V111.083H597.138V79.5454C597.138 74.1023 592.725 69.6899 587.282 69.6899V65.7476Z" fill="#2A2A2A" mask="url(#path-98-inside-1_6821_16604)"/>
<rect x="256.137" y="77.5752" width="177.4" height="23.6533" rx="4.99778" fill="black" fill-opacity="0.05"/>
<g clip-path="url(#clip1_6821_16604)">
<path d="M282.315 94.3363H286.961C287.591 94.3363 287.898 94.0239 287.898 93.3406V89.7582C287.898 89.1433 287.644 88.826 287.122 88.7723V87.5424C287.122 85.7024 285.916 84.8141 284.638 84.8141C283.359 84.8141 282.153 85.7024 282.153 87.5424V88.7967C281.675 88.8699 281.377 89.1823 281.377 89.7582V93.3406C281.377 94.0239 281.685 94.3363 282.315 94.3363ZM282.939 87.4399C282.939 86.2149 283.725 85.5658 284.638 85.5658C285.55 85.5658 286.336 86.2149 286.336 87.4399V88.7675L282.939 88.7723V87.4399Z" fill="#9E9E9E"/>
<path d="M295.318 93.1757C294.234 93.1757 293.414 92.52 293.414 91.4837V91.4731C293.414 90.4579 294.165 89.8711 295.492 89.7917L297.126 89.6913V89.1731C297.126 88.4699 296.698 88.0892 295.846 88.0892C295.164 88.0892 294.715 88.343 294.567 88.7871L294.562 88.803H293.642L293.647 88.7713C293.795 87.8777 294.662 87.275 295.878 87.275C297.269 87.275 298.046 87.9887 298.046 89.1731V93.0752H297.126V92.2345H297.041C296.682 92.8426 296.084 93.1757 295.318 93.1757ZM294.355 91.4625C294.355 92.0389 294.847 92.3773 295.508 92.3773C296.444 92.3773 297.126 91.7639 297.126 90.9497V90.4315L295.603 90.5267C294.736 90.5796 294.355 90.8862 294.355 91.452V91.4625ZM299.684 93.0752V87.3754H300.604V88.232H300.689C300.974 87.6292 301.508 87.275 302.349 87.275C303.628 87.275 304.342 88.031 304.342 89.3846V93.0752H303.422V89.6067C303.422 88.5809 302.999 88.0892 302.09 88.0892C301.18 88.0892 300.604 88.7025 300.604 89.7019V93.0752H299.684ZM306.239 95.0738C306.118 95.0738 305.959 95.0632 305.832 95.0421V94.286C305.943 94.3072 306.086 94.3124 306.213 94.3124C306.736 94.3124 307.054 94.0745 307.26 93.4189L307.365 93.0805L305.256 87.3754H306.239L307.804 92.0653H307.889L309.449 87.3754H310.416L308.19 93.4242C307.72 94.7037 307.249 95.0738 306.239 95.0738ZM311.404 90.4315V89.575H314.957V90.4315H311.404ZM317.542 93.0752L315.945 87.3754H316.865L317.986 91.9331H318.07L319.345 87.3754H320.217L321.491 91.9331H321.576L322.697 87.3754H323.612L322.015 93.0752H321.089L319.815 88.6655H319.731L318.462 93.0752H317.542ZM326.899 93.1757C325.271 93.1757 324.287 92.0336 324.287 90.2465V90.2412C324.287 88.4805 325.292 87.275 326.841 87.275C328.39 87.275 329.331 88.4276 329.331 90.1301V90.4897H325.228C325.255 91.6688 325.905 92.3561 326.92 92.3561C327.692 92.3561 328.168 91.9913 328.322 91.6476L328.343 91.6H329.263L329.252 91.6423C329.057 92.4143 328.242 93.1757 326.899 93.1757ZM326.836 88.0945C325.99 88.0945 325.345 88.6708 325.244 89.7547H328.396C328.3 88.6285 327.676 88.0945 326.836 88.0945ZM333.55 93.1757C332.757 93.1757 332.122 92.8003 331.773 92.1658H331.689V93.0752H330.769V85.1124H331.689V88.2743H331.773C332.085 87.6662 332.767 87.275 333.55 87.275C334.998 87.275 335.94 88.4329 335.94 90.22V90.2306C335.94 92.0071 334.993 93.1757 333.55 93.1757ZM333.338 92.3614C334.38 92.3614 334.998 91.5577 334.998 90.2306V90.22C334.998 88.8929 334.38 88.0892 333.338 88.0892C332.302 88.0892 331.667 88.9035 331.667 90.22V90.2306C331.667 91.5471 332.302 92.3614 333.338 92.3614ZM339.28 93.1757C338.011 93.1757 337.139 92.5623 337.033 91.6212H337.974C338.128 92.097 338.582 92.409 339.312 92.409C340.079 92.409 340.623 92.0442 340.623 91.526V91.5154C340.623 91.1294 340.332 90.8598 339.629 90.6906L338.746 90.4791C337.678 90.2253 337.197 89.76 337.197 88.9405V88.9352C337.197 87.9887 338.106 87.275 339.317 87.275C340.512 87.275 341.342 87.8724 341.469 88.803H340.565C340.443 88.3536 339.999 88.0416 339.312 88.0416C338.635 88.0416 338.138 88.3906 338.138 88.8929V88.9035C338.138 89.2894 338.424 89.5327 339.095 89.6966L339.973 89.9081C341.046 90.1671 341.564 90.6324 341.564 91.4467V91.4573C341.564 92.4724 340.576 93.1757 339.28 93.1757ZM343.435 86.2756C343.086 86.2756 342.801 85.9901 342.801 85.6412C342.801 85.2922 343.086 85.0067 343.435 85.0067C343.784 85.0067 344.07 85.2922 344.07 85.6412C344.07 85.9901 343.784 86.2756 343.435 86.2756ZM342.97 93.0752V87.3754H343.89V93.0752H342.97ZM347.606 93.1175C346.432 93.1175 345.94 92.6839 345.94 91.5947V88.1368H345.041V87.3754H345.94V85.9002H346.892V87.3754H348.14V88.1368H346.892V91.3621C346.892 92.0336 347.125 92.3032 347.717 92.3032C347.881 92.3032 347.971 92.298 348.14 92.2821V93.0646C347.96 93.0963 347.786 93.1175 347.606 93.1175ZM351.724 93.1757C350.095 93.1757 349.112 92.0336 349.112 90.2465V90.2412C349.112 88.4805 350.116 87.275 351.665 87.275C353.215 87.275 354.156 88.4276 354.156 90.1301V90.4897H350.053C350.079 91.6688 350.73 92.3561 351.745 92.3561C352.517 92.3561 352.993 91.9913 353.146 91.6476L353.167 91.6H354.087L354.077 91.6423C353.881 92.4143 353.067 93.1757 351.724 93.1757ZM351.66 88.0945C350.814 88.0945 350.169 88.6708 350.069 89.7547H353.22C353.125 88.6285 352.501 88.0945 351.66 88.0945ZM355.461 90.4315V89.575H359.014V90.4315H355.461ZM360.985 95.0738C360.863 95.0738 360.705 95.0632 360.578 95.0421V94.286C360.689 94.3072 360.832 94.3124 360.959 94.3124C361.482 94.3124 361.799 94.0745 362.006 93.4189L362.111 93.0805L360.002 87.3754H360.985L362.55 92.0653H362.635L364.195 87.3754H365.162L362.936 93.4242C362.466 94.7037 361.995 95.0738 360.985 95.0738ZM368.466 93.1757C366.842 93.1757 365.838 92.0547 365.838 90.2306V90.22C365.838 88.3906 366.842 87.275 368.466 87.275C370.089 87.275 371.094 88.3906 371.094 90.22V90.2306C371.094 92.0547 370.089 93.1757 368.466 93.1757ZM368.466 92.3614C369.544 92.3614 370.152 91.5736 370.152 90.2306V90.22C370.152 88.8717 369.544 88.0892 368.466 88.0892C367.387 88.0892 366.779 88.8717 366.779 90.22V90.2306C366.779 91.5736 367.387 92.3614 368.466 92.3614ZM374.387 93.1757C373.091 93.1757 372.425 92.4143 372.425 91.066V87.3754H373.345V90.8439C373.345 91.8697 373.715 92.3614 374.624 92.3614C375.629 92.3614 376.163 91.7481 376.163 90.7488V87.3754H377.083V93.0752H376.163V92.2239H376.078C375.798 92.832 375.222 93.1757 374.387 93.1757ZM378.679 90.4315V89.575H382.232V90.4315H378.679ZM383.822 93.0752V87.3754H384.742V88.232H384.827C385.113 87.6292 385.647 87.275 386.487 87.275C387.767 87.275 388.481 88.031 388.481 89.3846V93.0752H387.561V89.6067C387.561 88.5809 387.138 88.0892 386.228 88.0892C385.319 88.0892 384.742 88.7025 384.742 89.7019V93.0752H383.822ZM392.429 93.1757C390.801 93.1757 389.817 92.0336 389.817 90.2465V90.2412C389.817 88.4805 390.822 87.275 392.371 87.275C393.92 87.275 394.861 88.4276 394.861 90.1301V90.4897H390.758C390.785 91.6688 391.435 92.3561 392.45 92.3561C393.222 92.3561 393.698 91.9913 393.852 91.6476L393.873 91.6H394.793L394.782 91.6423C394.587 92.4143 393.772 93.1757 392.429 93.1757ZM392.366 88.0945C391.52 88.0945 390.875 88.6708 390.774 89.7547H393.926C393.83 88.6285 393.207 88.0945 392.366 88.0945ZM398.572 93.1757C396.944 93.1757 395.96 92.0336 395.96 90.2465V90.2412C395.96 88.4805 396.965 87.275 398.514 87.275C400.063 87.275 401.004 88.4276 401.004 90.1301V90.4897H396.901C396.928 91.6688 397.578 92.3561 398.593 92.3561C399.365 92.3561 399.841 91.9913 399.994 91.6476L400.016 91.6H400.936L400.925 91.6423C400.729 92.4143 399.915 93.1757 398.572 93.1757ZM398.509 88.0945C397.663 88.0945 397.018 88.6708 396.917 89.7547H400.068C399.973 88.6285 399.349 88.0945 398.509 88.0945ZM404.493 93.1757C403.05 93.1757 402.103 92.0071 402.103 90.2306V90.22C402.103 88.4329 403.044 87.275 404.493 87.275C405.276 87.275 405.958 87.6662 406.27 88.2743H406.354V85.1124H407.274V93.0752H406.354V92.1658H406.27C405.921 92.8003 405.286 93.1757 404.493 93.1757ZM404.705 92.3614C405.741 92.3614 406.375 91.5471 406.375 90.2306V90.22C406.375 88.9035 405.741 88.0892 404.705 88.0892C403.663 88.0892 403.044 88.8929 403.044 90.22V90.2306C403.044 91.5577 403.663 92.3614 404.705 92.3614Z" fill="#4C4C4C"/>
</g>
<path d="M423.377 89.2547C423.499 89.2547 423.592 89.2157 423.66 89.1424L425.671 87.1219C425.759 87.0389 425.793 86.9413 425.793 86.829C425.793 86.7216 425.749 86.6143 425.671 86.5362L423.66 84.4961C423.592 84.418 423.494 84.3789 423.377 84.3789C423.157 84.3789 422.991 84.5546 422.991 84.7791C422.991 84.8816 423.031 84.9793 423.099 85.0573L424.402 86.3361C424.124 86.2873 423.841 86.258 423.558 86.258C421.166 86.258 419.243 88.1761 419.243 90.5676C419.243 92.964 421.166 94.887 423.558 94.887C425.949 94.887 427.867 92.964 427.867 90.5676C427.867 90.3333 427.701 90.1625 427.462 90.1625C427.233 90.1625 427.081 90.3333 427.081 90.5676C427.081 92.5296 425.515 94.1012 423.558 94.1012C421.601 94.1012 420.029 92.5296 420.029 90.5676C420.029 88.6105 421.601 87.0438 423.558 87.0438C423.929 87.0438 424.27 87.0731 424.563 87.1365L423.104 88.5861C423.031 88.6641 422.991 88.7618 422.991 88.8643C422.991 89.0888 423.157 89.2547 423.377 89.2547Z" fill="#797979"/>
<path d="M112.237 83.7357C115.367 83.7357 117.904 86.273 117.904 89.4026C117.904 92.5324 115.367 95.0696 112.237 95.0696C109.108 95.0695 106.57 92.5323 106.57 89.4026C106.57 86.2731 109.108 83.7358 112.237 83.7357Z" fill="#DB6965" stroke="#DB6965" stroke-width="0.492777"/>
<path d="M131.941 83.7357C135.071 83.7357 137.608 86.273 137.608 89.4026C137.608 92.5324 135.071 95.0696 131.941 95.0696C128.812 95.0695 126.274 92.5323 126.274 89.4026C126.275 86.2731 128.812 83.7358 131.941 83.7357Z" fill="#FFCE50" stroke="#FFCE50" stroke-width="0.492777"/>
<path d="M151.654 83.7357C154.784 83.7357 157.321 86.273 157.321 89.4026C157.321 92.5324 154.784 95.0696 151.654 95.0696C148.525 95.0695 145.987 92.5323 145.987 89.4026C145.987 86.2731 148.525 83.7358 151.654 83.7357Z" fill="#65DB69" stroke="#65DB69" stroke-width="0.492777"/>
<rect x="40.4484" y="33.2931" width="99.931" height="99.931" rx="11.8966" fill="#0F0F0F"/>
<rect x="40.4484" y="33.2931" width="99.931" height="99.931" rx="11.8966" stroke="#2A2A2A" stroke-width="1.58621"/>
<g clip-path="url(#clip2_6821_16604)">
<path d="M90.0819 51.535C87.4618 51.5471 84.9597 51.7685 82.7582 52.1546C76.2726 53.2902 75.0951 55.667 75.0951 60.0502V65.8392H90.4212V67.7688H75.0951H69.3433C64.8891 67.7688 60.9888 70.4222 59.7689 75.4697C58.3617 81.2554 58.2993 84.8658 59.7689 90.9069C60.8583 95.4037 63.46 98.6078 67.9143 98.6078H73.1837V91.6682C73.1837 86.6547 77.5606 82.2324 82.7582 82.2324H98.0665C102.328 82.2324 105.73 78.7551 105.73 74.5138V60.0502C105.73 55.9338 102.226 52.8416 98.0665 52.1546C95.4337 51.7203 92.7019 51.5229 90.0819 51.535ZM81.7936 56.1909C83.3767 56.1909 84.6695 57.4931 84.6695 59.0943C84.6695 60.6897 83.3767 61.9799 81.7936 61.9799C80.2048 61.9799 78.9177 60.6897 78.9177 59.0943C78.9177 57.4931 80.2048 56.1909 81.7936 56.1909Z" fill="url(#paint0_linear_6821_16604)"/>
<path d="M107.642 67.769V74.5139C107.642 79.7431 103.168 84.1444 98.0671 84.1444H82.7588C78.5656 84.1444 75.0957 87.7012 75.0957 91.863V106.327C75.0957 110.443 78.7074 112.864 82.7588 114.045C87.6102 115.459 92.2625 115.714 98.0671 114.045C101.926 112.938 105.73 110.71 105.73 106.327V100.538H90.4219V98.6079H105.73H113.393C117.848 98.6079 119.507 95.5288 121.056 90.907C122.657 86.1491 122.588 81.5735 121.056 75.4699C119.956 71.0752 117.853 67.769 113.393 67.769H107.642ZM99.0317 104.397C100.62 104.397 101.908 105.687 101.908 107.283C101.908 108.884 100.62 110.186 99.0317 110.186C97.4486 110.186 96.1558 108.884 96.1558 107.283C96.1558 105.687 97.4486 104.397 99.0317 104.397Z" fill="url(#paint1_linear_6821_16604)"/>
</g>
</g>
<defs>
<linearGradient id="paint0_linear_6821_16604" x1="58.6899" y1="51.5345" x2="93.7634" y2="81.6912" gradientUnits="userSpaceOnUse">
<stop stop-color="#5A9FD4"/>
<stop offset="1" stop-color="#306998"/>
</linearGradient>
<linearGradient id="paint1_linear_6821_16604" x1="98.6634" y1="106.796" x2="86.1348" y2="89.0814" gradientUnits="userSpaceOnUse">
<stop stop-color="#FFD43B"/>
<stop offset="1" stop-color="#FFE873"/>
</linearGradient>
<clipPath id="clip0_6821_16604">
<rect width="460" height="200" fill="white"/>
</clipPath>
<clipPath id="clip1_6821_16604">
<rect x="281.377" y="83.0752" width="127.518" height="13" fill="white"/>
</clipPath>
<clipPath id="clip2_6821_16604">
<rect width="63.4483" height="63.4483" fill="white" transform="translate(58.6899 51.5345)"/>
</clipPath>
</defs>
</svg>
