<svg width="640" height="480" viewBox="0 0 640 480" fill="none" xmlns="http://www.w3.org/2000/svg">
<g clip-path="url(#clip0_3691_29587)">
<rect width="640" height="480" fill="#F4F4F5"/>
<path d="M142.454 114.371H817.088C825.418 114.371 832.171 121.124 832.171 129.454V417.408C832.171 425.738 825.418 432.491 817.088 432.491H142.454C134.124 432.491 127.371 425.738 127.371 417.408V129.454C127.371 121.124 134.124 114.371 142.454 114.371Z" fill="white" stroke="#D2D3D6" stroke-width="2.74241"/>
<rect x="150.683" y="203.5" width="10.9697" height="10.9697" rx="2.74241" fill="#EDEEEF"/>
<rect width="10.9697" height="10.9697" rx="2.74241" transform="matrix(1 0 0 -1 150.683 285.772)" fill="#EDEEEF"/>
<rect x="167.137" y="203.5" width="10.9697" height="10.9697" rx="2.74241" fill="#EDEEEF"/>
<rect width="10.9697" height="10.9697" rx="2.74241" transform="matrix(1 0 0 -1 167.137 285.772)" fill="#EDEEEF"/>
<rect x="183.591" y="203.5" width="10.9697" height="10.9697" rx="2.74241" fill="#EDEEEF"/>
<rect x="200.047" y="203.5" width="10.9697" height="10.9697" rx="2.74241" fill="#EDEEEF"/>
<rect width="10.9697" height="10.9697" rx="2.74241" transform="matrix(1 0 0 -1 200.047 285.772)" fill="#EDEEEF"/>
<rect x="216.501" y="203.5" width="10.9697" height="10.9697" rx="2.74241" fill="#EDEEEF"/>
<rect width="10.9697" height="10.9697" rx="2.74241" transform="matrix(1 0 0 -1 216.501 285.772)" fill="#EDEEEF"/>
<rect x="232.955" y="203.5" width="10.9697" height="10.9697" rx="2.74241" fill="#EDEEEF"/>
<rect width="10.9697" height="10.9697" rx="2.74241" transform="matrix(1 0 0 -1 232.955 285.772)" fill="#EDEEEF"/>
<rect x="249.409" y="203.5" width="10.9697" height="10.9697" rx="2.74241" fill="#EDEEEF"/>
<rect x="265.863" y="203.5" width="10.9697" height="10.9697" rx="2.74241" fill="#EDEEEF"/>
<rect width="10.9697" height="10.9697" rx="2.74241" transform="matrix(1 0 0 -1 265.863 285.772)" fill="#EDEEEF"/>
<rect x="282.317" y="203.5" width="10.9697" height="10.9697" rx="2.74241" fill="#EDEEEF"/>
<rect width="10.9697" height="10.9697" rx="2.74241" transform="matrix(1 0 0 -1 282.317 285.772)" fill="#EDEEEF"/>
<rect x="298.773" y="203.5" width="10.9697" height="10.9697" rx="2.74241" fill="#EDEEEF"/>
<rect width="10.9697" height="10.9697" rx="2.74241" transform="matrix(1 0 0 -1 298.773 285.772)" fill="#EDEEEF"/>
<rect x="315.228" y="203.5" width="10.9697" height="10.9697" rx="2.74241" fill="#EDEEEF"/>
<rect width="10.9697" height="10.9697" rx="2.74241" transform="matrix(1 0 0 -1 315.228 285.772)" fill="#EDEEEF"/>
<rect x="331.682" y="203.5" width="10.9697" height="10.9697" rx="2.74241" fill="#EDEEEF"/>
<rect x="348.136" y="203.5" width="10.9697" height="10.9697" rx="2.74241" fill="#EDEEEF"/>
<rect width="10.9697" height="10.9697" rx="2.74241" transform="matrix(1 0 0 -1 348.136 285.772)" fill="#EDEEEF"/>
<rect x="364.591" y="203.5" width="10.9697" height="10.9697" rx="2.74241" fill="#EDEEEF"/>
<rect width="10.9697" height="10.9697" rx="2.74241" transform="matrix(1 0 0 -1 364.591 285.772)" fill="#EDEEEF"/>
<rect x="381.045" y="203.5" width="10.9697" height="10.9697" rx="2.74241" fill="#EDEEEF"/>
<rect width="10.9697" height="10.9697" rx="2.74241" transform="matrix(1 0 0 -1 381.045 285.772)" fill="#EDEEEF"/>
<rect x="397.5" y="203.5" width="10.9697" height="10.9697" rx="2.74241" fill="#EDEEEF"/>
<rect width="10.9697" height="10.9697" rx="2.74241" transform="matrix(1 0 0 -1 397.5 285.772)" fill="#EDEEEF"/>
<rect x="413.954" y="203.5" width="10.9697" height="10.9697" rx="2.74241" fill="#EDEEEF"/>
<rect width="10.9697" height="10.9697" rx="2.74241" transform="matrix(1 0 0 -1 413.954 285.772)" fill="#EDEEEF"/>
<rect x="512.682" y="203.5" width="10.9697" height="10.9697" rx="2.74241" fill="#EDEEEF"/>
<rect x="457.833" y="203.5" width="10.9697" height="10.9697" rx="2.74241" fill="#EDEEEF"/>
<rect x="474.287" y="203.5" width="10.9697" height="10.9697" rx="2.74241" fill="#EDEEEF"/>
<rect x="562.044" y="203.5" width="10.9697" height="10.9697" rx="2.74241" fill="#EDEEEF"/>
<rect x="611.408" y="203.5" width="10.9697" height="10.9697" rx="2.74241" fill="#EDEEEF"/>
<rect x="627.862" y="203.5" width="10.9697" height="10.9697" rx="2.74241" fill="#EDEEEF"/>
<rect x="529.136" y="203.5" width="10.9697" height="10.9697" rx="2.74241" fill="#EDEEEF"/>
<rect x="545.59" y="203.5" width="10.9697" height="10.9697" rx="2.74241" fill="#EDEEEF"/>
<rect x="150.683" y="219.954" width="10.9697" height="10.9697" rx="2.74241" fill="#EDEEEF"/>
<rect width="10.9697" height="10.9697" rx="2.74241" transform="matrix(1 0 0 -1 150.683 269.317)" fill="#EDEEEF"/>
<rect x="167.137" y="219.954" width="10.9697" height="10.9697" rx="2.74241" fill="#C9CBCF"/>
<rect width="10.9697" height="10.9697" rx="2.74241" transform="matrix(1 0 0 -1 167.137 269.317)" fill="#C9CBCF"/>
<rect x="183.591" y="219.954" width="10.9697" height="10.9697" rx="2.74241" fill="#C9CBCF"/>
<rect x="200.047" y="219.954" width="10.9697" height="10.9697" rx="2.74241" fill="#C9CBCF"/>
<rect width="10.9697" height="10.9697" rx="2.74241" transform="matrix(1 0 0 -1 200.047 269.317)" fill="#C9CBCF"/>
<rect x="216.501" y="219.954" width="10.9697" height="10.9697" rx="2.74241" fill="#C9CBCF"/>
<rect width="10.9697" height="10.9697" rx="2.74241" transform="matrix(1 0 0 -1 216.501 269.317)" fill="#C9CBCF"/>
<rect x="232.955" y="219.954" width="10.9697" height="10.9697" rx="2.74241" fill="#C9CBCF"/>
<rect width="10.9697" height="10.9697" rx="2.74241" transform="matrix(1 0 0 -1 232.955 269.317)" fill="#C9CBCF"/>
<rect x="249.409" y="219.954" width="10.9697" height="10.9697" rx="2.74241" fill="#C9CBCF"/>
<rect x="265.863" y="219.954" width="10.9697" height="10.9697" rx="2.74241" fill="#C9CBCF"/>
<rect width="10.9697" height="10.9697" rx="2.74241" transform="matrix(1 0 0 -1 265.863 269.317)" fill="#C9CBCF"/>
<rect x="282.317" y="219.954" width="10.9697" height="10.9697" rx="2.74241" fill="#C9CBCF"/>
<rect width="10.9697" height="10.9697" rx="2.74241" transform="matrix(1 0 0 -1 282.317 269.317)" fill="#C9CBCF"/>
<rect x="298.773" y="219.954" width="10.9697" height="10.9697" rx="2.74241" fill="#C9CBCF"/>
<rect width="10.9697" height="10.9697" rx="2.74241" transform="matrix(1 0 0 -1 298.773 269.317)" fill="#C9CBCF"/>
<rect x="315.228" y="219.954" width="10.9697" height="10.9697" rx="2.74241" fill="#C9CBCF"/>
<rect width="10.9697" height="10.9697" rx="2.74241" transform="matrix(1 0 0 -1 315.228 269.317)" fill="#C9CBCF"/>
<rect x="331.682" y="219.954" width="10.9697" height="10.9697" rx="2.74241" fill="#C9CBCF"/>
<rect x="348.136" y="219.954" width="10.9697" height="10.9697" rx="2.74241" fill="#C9CBCF"/>
<rect width="10.9697" height="10.9697" rx="2.74241" transform="matrix(1 0 0 -1 348.136 269.317)" fill="#C9CBCF"/>
<rect x="364.591" y="219.954" width="10.9697" height="10.9697" rx="2.74241" fill="#C9CBCF"/>
<rect width="10.9697" height="10.9697" rx="2.74241" transform="matrix(1 0 0 -1 364.591 269.317)" fill="#C9CBCF"/>
<rect x="381.045" y="219.954" width="10.9697" height="10.9697" rx="2.74241" fill="#C9CBCF"/>
<rect width="10.9697" height="10.9697" rx="2.74241" transform="matrix(1 0 0 -1 381.045 269.317)" fill="#C9CBCF"/>
<rect x="397.5" y="219.954" width="10.9697" height="10.9697" rx="2.74241" fill="#C9CBCF"/>
<rect width="10.9697" height="10.9697" rx="2.74241" transform="matrix(1 0 0 -1 397.5 269.317)" fill="#C9CBCF"/>
<rect x="413.954" y="219.954" width="10.9697" height="10.9697" rx="2.74241" fill="#C9CBCF"/>
<rect width="10.9697" height="10.9697" rx="2.74241" transform="matrix(1 0 0 -1 413.954 269.317)" fill="#C9CBCF"/>
<rect x="512.682" y="219.954" width="10.9697" height="10.9697" rx="2.74241" fill="#C9CBCF"/>
<rect x="457.833" y="219.954" width="10.9697" height="10.9697" rx="2.74241" fill="#C9CBCF"/>
<rect x="474.287" y="219.954" width="10.9697" height="10.9697" rx="2.74241" fill="#C9CBCF"/>
<rect x="562.044" y="219.954" width="10.9697" height="10.9697" rx="2.74241" fill="#C9CBCF"/>
<rect x="611.408" y="219.954" width="10.9697" height="10.9697" rx="2.74241" fill="#C9CBCF"/>
<rect x="627.862" y="219.954" width="10.9697" height="10.9697" rx="2.74241" fill="#C9CBCF"/>
<rect x="529.136" y="219.954" width="10.9697" height="10.9697" rx="2.74241" fill="#C9CBCF"/>
<rect x="545.59" y="219.954" width="10.9697" height="10.9697" rx="2.74241" fill="#C9CBCF"/>
<rect width="10.9697" height="10.9697" rx="2.74241" transform="matrix(1 0 0 -1 457.833 285.772)" fill="#EDEEEF"/>
<rect width="10.9697" height="10.9697" rx="2.74241" transform="matrix(1 0 0 -1 507.196 285.772)" fill="#EDEEEF"/>
<rect width="10.9697" height="10.9697" rx="2.74241" transform="matrix(1 0 0 -1 523.65 285.772)" fill="#EDEEEF"/>
<rect width="10.9697" height="10.9697" rx="2.74241" transform="matrix(1 0 0 -1 540.104 285.772)" fill="#EDEEEF"/>
<rect width="10.9697" height="10.9697" rx="2.74241" transform="matrix(1 0 0 -1 556.56 285.772)" fill="#EDEEEF"/>
<rect x="611.408" y="258.349" width="10.9697" height="10.9697" rx="2.74241" fill="#EDEEEF"/>
<rect x="627.862" y="258.349" width="10.9697" height="10.9697" rx="2.74241" fill="#EDEEEF"/>
<rect width="10.9697" height="10.9697" rx="2.74241" transform="matrix(1 0 0 -1 474.287 285.772)" fill="#EDEEEF"/>
<rect width="10.9697" height="10.9697" rx="2.74241" transform="matrix(1 0 0 -1 490.742 285.772)" fill="#EDEEEF"/>
<rect width="10.9697" height="10.9697" rx="2.74241" transform="matrix(1 0 0 -1 457.833 269.317)" fill="#C9CBCF"/>
<rect width="10.9697" height="10.9697" rx="2.74241" transform="matrix(1 0 0 -1 507.196 269.317)" fill="#C9CBCF"/>
<rect width="10.9697" height="10.9697" rx="2.74241" transform="matrix(1 0 0 -1 523.65 269.317)" fill="#C9CBCF"/>
<rect width="10.9697" height="10.9697" rx="2.74241" transform="matrix(1 0 0 -1 540.104 269.317)" fill="#C9CBCF"/>
<rect width="10.9697" height="10.9697" rx="2.74241" transform="matrix(1 0 0 -1 556.56 269.317)" fill="#C9CBCF"/>
<rect x="611.408" y="274.803" width="10.9697" height="10.9697" rx="2.74241" fill="#C9CBCF"/>
<rect x="627.862" y="274.803" width="10.9697" height="10.9697" rx="2.74241" fill="#C9CBCF"/>
<rect width="10.9697" height="10.9697" rx="2.74241" transform="matrix(1 0 0 -1 474.287 269.317)" fill="#C9CBCF"/>
<rect width="10.9697" height="10.9697" rx="2.74241" transform="matrix(1 0 0 -1 490.742 269.317)" fill="#C9CBCF"/>
<rect x="512.682" y="313.196" width="10.9697" height="10.9697" rx="2.74241" fill="#EDEEEF"/>
<rect x="562.044" y="313.196" width="10.9697" height="10.9697" rx="2.74241" fill="#EDEEEF"/>
<rect x="611.408" y="313.196" width="10.9697" height="10.9697" rx="2.74241" fill="#EDEEEF"/>
<rect x="627.862" y="313.196" width="10.9697" height="10.9697" rx="2.74241" fill="#EDEEEF"/>
<rect x="529.136" y="313.196" width="10.9697" height="10.9697" rx="2.74241" fill="#EDEEEF"/>
<rect x="545.59" y="313.196" width="10.9697" height="10.9697" rx="2.74241" fill="#EDEEEF"/>
<rect x="512.682" y="329.65" width="10.9697" height="10.9697" rx="2.74241" fill="#C9CBCF"/>
<rect x="562.044" y="329.65" width="10.9697" height="10.9697" rx="2.74241" fill="#C9CBCF"/>
<rect x="611.408" y="329.65" width="10.9697" height="10.9697" rx="2.74241" fill="#C9CBCF"/>
<rect x="627.862" y="329.65" width="10.9697" height="10.9697" rx="2.74241" fill="#C9CBCF"/>
<rect x="529.136" y="329.65" width="10.9697" height="10.9697" rx="2.74241" fill="#C9CBCF"/>
<rect x="545.59" y="329.65" width="10.9697" height="10.9697" rx="2.74241" fill="#C9CBCF"/>
<rect x="364.591" y="313.196" width="10.9697" height="10.9697" rx="2.74241" fill="#EDEEEF"/>
<rect x="413.954" y="313.196" width="10.9697" height="10.9697" rx="2.74241" fill="#EDEEEF"/>
<rect x="381.045" y="313.196" width="10.9697" height="10.9697" rx="2.74241" fill="#EDEEEF"/>
<rect x="397.5" y="313.196" width="10.9697" height="10.9697" rx="2.74241" fill="#EDEEEF"/>
<rect x="364.591" y="329.65" width="10.9697" height="10.9697" rx="2.74241" fill="#C9CBCF"/>
<rect x="413.954" y="329.65" width="10.9697" height="10.9697" rx="2.74241" fill="#C9CBCF"/>
<rect x="381.045" y="329.65" width="10.9697" height="10.9697" rx="2.74241" fill="#C9CBCF"/>
<rect x="397.5" y="329.65" width="10.9697" height="10.9697" rx="2.74241" fill="#C9CBCF"/>
<rect x="254.895" y="313.196" width="10.9697" height="10.9697" rx="2.74241" fill="#EDEEEF"/>
<rect x="304.257" y="313.196" width="10.9697" height="10.9697" rx="2.74241" fill="#EDEEEF"/>
<rect x="271.349" y="313.196" width="10.9697" height="10.9697" rx="2.74241" fill="#EDEEEF"/>
<rect x="287.803" y="313.196" width="10.9697" height="10.9697" rx="2.74241" fill="#EDEEEF"/>
<rect x="254.895" y="329.65" width="10.9697" height="10.9697" rx="2.74241" fill="#C9CBCF"/>
<rect x="304.257" y="329.65" width="10.9697" height="10.9697" rx="2.74241" fill="#C9CBCF"/>
<rect x="271.349" y="329.65" width="10.9697" height="10.9697" rx="2.74241" fill="#C9CBCF"/>
<rect x="287.803" y="329.65" width="10.9697" height="10.9697" rx="2.74241" fill="#C9CBCF"/>
<rect x="150.683" y="313.196" width="10.9697" height="10.9697" rx="2.74241" fill="#EDEEEF"/>
<rect x="200.047" y="313.196" width="10.9697" height="10.9697" rx="2.74241" fill="#EDEEEF"/>
<rect x="167.137" y="313.196" width="10.9697" height="10.9697" rx="2.74241" fill="#EDEEEF"/>
<rect x="183.591" y="313.196" width="10.9697" height="10.9697" rx="2.74241" fill="#EDEEEF"/>
<rect x="150.683" y="329.65" width="10.9697" height="10.9697" rx="2.74241" fill="#C9CBCF"/>
<rect x="200.047" y="329.65" width="10.9697" height="10.9697" rx="2.74241" fill="#C9CBCF"/>
<rect x="167.137" y="329.65" width="10.9697" height="10.9697" rx="2.74241" fill="#C9CBCF"/>
<rect x="183.591" y="329.65" width="10.9697" height="10.9697" rx="2.74241" fill="#C9CBCF"/>
<rect width="10.9697" height="10.9697" rx="2.74241" transform="matrix(1 0 0 -1 512.682 395.469)" fill="#EDEEEF"/>
<rect width="10.9697" height="10.9697" rx="2.74241" transform="matrix(1 0 0 -1 562.044 395.469)" fill="#EDEEEF"/>
<rect width="10.9697" height="10.9697" rx="2.74241" transform="matrix(1 0 0 -1 611.408 395.469)" fill="#EDEEEF"/>
<rect width="10.9697" height="10.9697" rx="2.74241" transform="matrix(1 0 0 -1 627.862 395.469)" fill="#EDEEEF"/>
<rect width="10.9697" height="10.9697" rx="2.74241" transform="matrix(1 0 0 -1 529.136 395.469)" fill="#EDEEEF"/>
<rect width="10.9697" height="10.9697" rx="2.74241" transform="matrix(1 0 0 -1 545.59 395.469)" fill="#EDEEEF"/>
<rect width="10.9697" height="10.9697" rx="2.74241" transform="matrix(1 0 0 -1 512.682 379.015)" fill="#C9CBCF"/>
<rect width="10.9697" height="10.9697" rx="2.74241" transform="matrix(1 0 0 -1 562.044 379.015)" fill="#C9CBCF"/>
<rect width="10.9697" height="10.9697" rx="2.74241" transform="matrix(1 0 0 -1 611.408 379.015)" fill="#C9CBCF"/>
<rect width="10.9697" height="10.9697" rx="2.74241" transform="matrix(1 0 0 -1 627.862 379.015)" fill="#C9CBCF"/>
<rect width="10.9697" height="10.9697" rx="2.74241" transform="matrix(1 0 0 -1 529.136 379.015)" fill="#C9CBCF"/>
<rect width="10.9697" height="10.9697" rx="2.74241" transform="matrix(1 0 0 -1 545.59 379.015)" fill="#C9CBCF"/>
<mask id="path-146-inside-1_3691_29587" fill="white">
<path d="M126 129.454C126 120.367 133.367 113 142.454 113H817.088C826.176 113 833.543 120.367 833.543 129.454V173.333H126V129.454Z"/>
</mask>
<path d="M126 129.454C126 120.367 133.367 113 142.454 113H817.088C826.176 113 833.543 120.367 833.543 129.454V173.333H126V129.454Z" fill="#F7F7F7"/>
<path d="M123.258 129.454C123.258 118.852 131.852 110.258 142.454 110.258H817.088C827.69 110.258 836.285 118.852 836.285 129.454L830.8 129.454C830.8 121.882 824.661 115.742 817.088 115.742H142.454C134.882 115.742 128.742 121.882 128.742 129.454L123.258 129.454ZM833.543 173.333H126H833.543ZM123.258 173.333V129.454C123.258 118.852 131.852 110.258 142.454 110.258L142.454 115.742C134.882 115.742 128.742 121.882 128.742 129.454V173.333H123.258ZM817.088 110.258C827.69 110.258 836.285 118.852 836.285 129.454V173.333H830.8V129.454C830.8 121.882 824.661 115.742 817.088 115.742L817.088 110.258Z" fill="#D2D3D6" mask="url(#path-146-inside-1_3691_29587)"/>
<rect x="356.364" y="126.713" width="246.817" height="32.909" rx="6.95343" fill="black" fill-opacity="0.05"/>
<g clip-path="url(#clip1_3691_29587)">
<path d="M392.155 149.336H398.62C399.496 149.336 399.924 148.901 399.924 147.951V142.967C399.924 142.111 399.571 141.67 398.844 141.595V139.884C398.844 137.324 397.167 136.088 395.388 136.088C393.608 136.088 391.931 137.324 391.931 139.884V141.629C391.266 141.731 390.852 142.165 390.852 142.967V147.951C390.852 148.901 391.279 149.336 392.155 149.336ZM393.025 139.741C393.025 138.037 394.118 137.134 395.388 137.134C396.657 137.134 397.751 138.037 397.751 139.741V141.588L393.025 141.595V139.741Z" fill="#9E9E9E"/>
<path d="M410.246 147.852C408.738 147.852 407.598 146.939 407.598 145.498V145.483C407.598 144.071 408.642 143.254 410.489 143.144L412.762 143.004V142.283C412.762 141.305 412.166 140.775 410.982 140.775C410.033 140.775 409.408 141.128 409.202 141.746L409.194 141.768H407.914L407.922 141.724C408.128 140.481 409.334 139.642 411.026 139.642C412.961 139.642 414.042 140.635 414.042 142.283V147.712H412.762V146.542H412.644C412.144 147.388 411.313 147.852 410.246 147.852ZM408.907 145.468C408.907 146.27 409.591 146.741 410.511 146.741C411.813 146.741 412.762 145.888 412.762 144.755V144.034L410.643 144.166C409.437 144.24 408.907 144.666 408.907 145.454V145.468ZM416.321 147.712V139.782H417.601V140.974H417.719C418.116 140.135 418.859 139.642 420.029 139.642C421.809 139.642 422.802 140.694 422.802 142.577V147.712H421.522V142.886C421.522 141.459 420.933 140.775 419.668 140.775C418.403 140.775 417.601 141.628 417.601 143.019V147.712H416.321ZM425.442 150.493C425.272 150.493 425.052 150.478 424.875 150.448V149.397C425.03 149.426 425.228 149.433 425.405 149.433C426.133 149.433 426.574 149.102 426.861 148.19L427.008 147.719L424.073 139.782H425.442L427.619 146.307H427.737L429.907 139.782H431.253L428.156 148.197C427.501 149.978 426.847 150.493 425.442 150.493ZM432.627 144.034V142.842H437.571V144.034H432.627ZM441.167 147.712L438.945 139.782H440.225L441.784 146.123H441.902L443.675 139.782H444.889L446.662 146.123H446.779L448.339 139.782H449.612L447.39 147.712H446.103L444.33 141.577H444.212L442.447 147.712H441.167ZM454.186 147.852C451.92 147.852 450.552 146.263 450.552 143.776V143.769C450.552 141.319 451.95 139.642 454.105 139.642C456.26 139.642 457.57 141.246 457.57 143.614V144.115H451.861C451.898 145.755 452.803 146.711 454.215 146.711C455.289 146.711 455.951 146.204 456.165 145.726L456.194 145.659H457.474L457.459 145.718C457.187 146.792 456.054 147.852 454.186 147.852ZM454.098 140.782C452.921 140.782 452.023 141.584 451.883 143.092H456.268C456.135 141.525 455.267 140.782 454.098 140.782ZM463.439 147.852C462.335 147.852 461.452 147.329 460.967 146.447H460.849V147.712H459.569V136.633H460.849V141.032H460.967C461.401 140.186 462.35 139.642 463.439 139.642C465.454 139.642 466.764 141.253 466.764 143.739V143.754C466.764 146.226 465.447 147.852 463.439 147.852ZM463.144 146.719C464.594 146.719 465.454 145.601 465.454 143.754V143.739C465.454 141.893 464.594 140.775 463.144 140.775C461.703 140.775 460.82 141.908 460.82 143.739V143.754C460.82 145.586 461.703 146.719 463.144 146.719ZM471.412 147.852C469.646 147.852 468.432 146.998 468.285 145.689H469.595C469.808 146.351 470.441 146.785 471.456 146.785C472.522 146.785 473.28 146.277 473.28 145.557V145.542C473.28 145.005 472.875 144.63 471.897 144.394L470.669 144.1C469.183 143.747 468.513 143.099 468.513 141.959V141.952C468.513 140.635 469.778 139.642 471.463 139.642C473.126 139.642 474.281 140.473 474.457 141.768H473.199C473.03 141.143 472.412 140.709 471.456 140.709C470.514 140.709 469.823 141.194 469.823 141.893V141.908C469.823 142.445 470.22 142.783 471.154 143.011L472.375 143.305C473.869 143.666 474.589 144.313 474.589 145.446V145.461C474.589 146.873 473.214 147.852 471.412 147.852ZM477.192 138.252C476.707 138.252 476.309 137.854 476.309 137.369C476.309 136.883 476.707 136.486 477.192 136.486C477.678 136.486 478.075 136.883 478.075 137.369C478.075 137.854 477.678 138.252 477.192 138.252ZM476.545 147.712V139.782H477.825V147.712H476.545ZM482.995 147.771C481.362 147.771 480.678 147.168 480.678 145.652V140.841H479.427V139.782H480.678V137.729H482.002V139.782H483.738V140.841H482.002V145.328C482.002 146.263 482.326 146.638 483.149 146.638C483.377 146.638 483.503 146.631 483.738 146.608V147.697C483.488 147.741 483.245 147.771 482.995 147.771ZM488.709 147.852C486.444 147.852 485.075 146.263 485.075 143.776V143.769C485.075 141.319 486.473 139.642 488.628 139.642C490.784 139.642 492.093 141.246 492.093 143.614V144.115H486.385C486.422 145.755 487.326 146.711 488.739 146.711C489.813 146.711 490.475 146.204 490.688 145.726L490.718 145.659H491.998L491.983 145.718C491.711 146.792 490.578 147.852 488.709 147.852ZM488.621 140.782C487.444 140.782 486.547 141.584 486.407 143.092H490.791C490.659 141.525 489.791 140.782 488.621 140.782ZM493.909 144.034V142.842H498.852V144.034H493.909ZM501.595 150.493C501.426 150.493 501.205 150.478 501.028 150.448V149.397C501.183 149.426 501.382 149.433 501.558 149.433C502.286 149.433 502.728 149.102 503.015 148.19L503.162 147.719L500.227 139.782H501.595L503.772 146.307H503.89L506.06 139.782H507.406L504.309 148.197C503.655 149.978 503 150.493 501.595 150.493ZM512.003 147.852C509.744 147.852 508.347 146.292 508.347 143.754V143.739C508.347 141.194 509.744 139.642 512.003 139.642C514.261 139.642 515.659 141.194 515.659 143.739V143.754C515.659 146.292 514.261 147.852 512.003 147.852ZM512.003 146.719C513.503 146.719 514.349 145.623 514.349 143.754V143.739C514.349 141.864 513.503 140.775 512.003 140.775C510.502 140.775 509.656 141.864 509.656 143.739V143.754C509.656 145.623 510.502 146.719 512.003 146.719ZM520.24 147.852C518.438 147.852 517.511 146.792 517.511 144.917V139.782H518.791V144.608C518.791 146.035 519.306 146.719 520.571 146.719C521.969 146.719 522.712 145.865 522.712 144.475V139.782H523.992V147.712H522.712V146.528H522.594C522.205 147.374 521.403 147.852 520.24 147.852ZM526.212 144.034V142.842H531.156V144.034H526.212ZM533.369 147.712V139.782H534.649V140.974H534.766C535.164 140.135 535.907 139.642 537.076 139.642C538.856 139.642 539.85 140.694 539.85 142.577V147.712H538.57V142.886C538.57 141.459 537.981 140.775 536.716 140.775C535.45 140.775 534.649 141.628 534.649 143.019V147.712H533.369ZM545.343 147.852C543.078 147.852 541.709 146.263 541.709 143.776V143.769C541.709 141.319 543.107 139.642 545.262 139.642C547.418 139.642 548.727 141.246 548.727 143.614V144.115H543.019C543.055 145.755 543.96 146.711 545.373 146.711C546.447 146.711 547.109 146.204 547.322 145.726L547.352 145.659H548.632L548.617 145.718C548.345 146.792 547.212 147.852 545.343 147.852ZM545.255 140.782C544.078 140.782 543.181 141.584 543.041 143.092H547.425C547.293 141.525 546.425 140.782 545.255 140.782ZM553.89 147.852C551.624 147.852 550.256 146.263 550.256 143.776V143.769C550.256 141.319 551.654 139.642 553.809 139.642C555.964 139.642 557.274 141.246 557.274 143.614V144.115H551.565C551.602 145.755 552.507 146.711 553.919 146.711C554.993 146.711 555.655 146.204 555.869 145.726L555.898 145.659H557.178L557.164 145.718C556.891 146.792 555.758 147.852 553.89 147.852ZM553.802 140.782C552.625 140.782 551.727 141.584 551.587 143.092H555.972C555.839 141.525 554.971 140.782 553.802 140.782ZM562.128 147.852C560.119 147.852 558.803 146.226 558.803 143.754V143.739C558.803 141.253 560.112 139.642 562.128 139.642C563.216 139.642 564.165 140.186 564.599 141.032H564.717V136.633H565.997V147.712H564.717V146.447H564.599C564.114 147.329 563.231 147.852 562.128 147.852ZM562.422 146.719C563.864 146.719 564.747 145.586 564.747 143.754V143.739C564.747 141.908 563.864 140.775 562.422 140.775C560.973 140.775 560.112 141.893 560.112 143.739V143.754C560.112 145.601 560.973 146.719 562.422 146.719Z" fill="#4C4C4C"/>
</g>
<path d="M589.786 142.266C589.955 142.266 590.084 142.212 590.18 142.11L592.977 139.299C593.099 139.183 593.147 139.047 593.147 138.891C593.147 138.742 593.086 138.592 592.977 138.484L590.18 135.645C590.084 135.537 589.949 135.482 589.786 135.482C589.48 135.482 589.249 135.727 589.249 136.039C589.249 136.182 589.304 136.318 589.399 136.426L591.212 138.205C590.825 138.137 590.431 138.097 590.037 138.097C586.71 138.097 584.034 140.765 584.034 144.093C584.034 147.427 586.71 150.102 590.037 150.102C593.364 150.102 596.033 147.427 596.033 144.093C596.033 143.767 595.802 143.529 595.469 143.529C595.15 143.529 594.94 143.767 594.94 144.093C594.94 146.822 592.76 149.009 590.037 149.009C587.314 149.009 585.127 146.822 585.127 144.093C585.127 141.37 587.314 139.19 590.037 139.19C590.553 139.19 591.028 139.231 591.436 139.319L589.405 141.336C589.304 141.444 589.249 141.58 589.249 141.723C589.249 142.035 589.48 142.266 589.786 142.266Z" fill="#797979"/>
<path d="M156.156 135.284C160.511 135.284 164.04 138.815 164.04 143.169C164.04 147.523 160.51 151.053 156.156 151.053C151.802 151.053 148.272 147.523 148.271 143.169C148.271 138.814 151.802 135.284 156.156 135.284Z" fill="#DB6965" stroke="#DB6965" stroke-width="0.685603"/>
<path d="M183.57 135.284C187.925 135.284 191.454 138.815 191.454 143.169C191.454 147.523 187.925 151.053 183.57 151.053C179.216 151.053 175.686 147.523 175.686 143.169C175.686 138.814 179.216 135.284 183.57 135.284Z" fill="#FFCE50" stroke="#FFCE50" stroke-width="0.685603"/>
<path d="M210.997 135.284C215.351 135.284 218.881 138.815 218.881 143.169C218.881 147.523 215.351 151.053 210.997 151.053C206.643 151.053 203.112 147.523 203.112 143.169C203.112 138.814 206.643 135.284 210.997 135.284Z" fill="#65DB69" stroke="#65DB69" stroke-width="0.685603"/>
<rect x="56.2763" y="65.1034" width="139.034" height="139.034" rx="16.5517" fill="white"/>
<rect x="56.2763" y="65.1034" width="139.034" height="139.034" rx="16.5517" stroke="#D2D3D6" stroke-width="2.2069"/>
<g clip-path="url(#clip2_3691_29587)">
<path d="M125.331 90.4831C121.686 90.4999 118.205 90.808 115.141 91.3452C106.118 92.9251 104.48 96.232 104.48 102.33V110.385H125.803V113.069H104.48H96.4773C90.2801 113.069 84.8537 116.761 83.1564 123.784C81.1986 131.833 81.1117 136.856 83.1564 145.261C84.6721 151.518 88.2919 155.976 94.4891 155.976H101.821V146.321C101.821 139.345 107.91 133.193 115.141 133.193H136.44C142.369 133.193 147.102 128.355 147.102 122.454V102.33C147.102 96.6033 142.227 92.3011 136.44 91.3452C132.777 90.7409 128.976 90.4664 125.331 90.4831ZM113.799 96.961C116.002 96.961 117.801 98.7727 117.801 101C117.801 103.22 116.002 105.015 113.799 105.015C111.589 105.015 109.798 103.22 109.798 101C109.798 98.7727 111.589 96.961 113.799 96.961Z" fill="url(#paint0_linear_3691_29587)"/>
<path d="M149.76 113.068V122.453C149.76 129.728 143.536 135.852 136.439 135.852H115.14C109.306 135.852 104.479 140.8 104.479 146.591V166.714C104.479 172.441 109.504 175.81 115.14 177.453C121.89 179.42 128.363 179.775 136.439 177.453C141.807 175.912 147.1 172.812 147.1 166.714V158.659H125.802V155.975H147.1H157.762C163.959 155.975 166.269 151.691 168.424 145.26C170.65 138.641 170.555 132.275 168.424 123.783C166.892 117.668 163.967 113.068 157.762 113.068H149.76ZM137.781 164.029C139.991 164.029 141.782 165.824 141.782 168.044C141.782 170.271 139.991 172.083 137.781 172.083C135.578 172.083 133.78 170.271 133.78 168.044C133.78 165.824 135.578 164.029 137.781 164.029Z" fill="url(#paint1_linear_3691_29587)"/>
</g>
</g>
<defs>
<linearGradient id="paint0_linear_3691_29587" x1="81.6553" y1="90.4824" x2="130.453" y2="132.44" gradientUnits="userSpaceOnUse">
<stop stop-color="#5A9FD4"/>
<stop offset="1" stop-color="#306998"/>
</linearGradient>
<linearGradient id="paint1_linear_3691_29587" x1="137.268" y1="167.367" x2="119.837" y2="142.72" gradientUnits="userSpaceOnUse">
<stop stop-color="#FFD43B"/>
<stop offset="1" stop-color="#FFE873"/>
</linearGradient>
<clipPath id="clip0_3691_29587">
<rect width="640" height="480" fill="white"/>
</clipPath>
<clipPath id="clip1_3691_29587">
<rect x="390.852" y="133.712" width="177.025" height="18" fill="white"/>
</clipPath>
<clipPath id="clip2_3691_29587">
<rect width="88.2759" height="88.2759" fill="white" transform="translate(81.6553 90.4824)"/>
</clipPath>
</defs>
</svg>