<svg width="512" height="512" viewBox="0 0 512 512" fill="none" xmlns="http://www.w3.org/2000/svg">
<path d="M290.695 17H487.742C491.751 17 495 20.2493 495 24.2576V325.394C495 332.607 485.619 335.404 481.669 329.368L284.622 28.2314C281.463 23.4045 284.926 17 290.695 17Z" fill="#246DFF"/>
<path d="M220.305 17H23.2576C19.2493 17 16 20.2493 16 24.2576V325.394C16 332.607 25.3812 335.404 29.3306 329.368L226.378 28.2314C229.537 23.4045 226.074 17 220.305 17Z" fill="#20A34E"/>
<path d="M252.124 258.1L28.2779 483.63C23.7323 488.21 26.9762 496 33.429 496H477.755C484.182 496 487.437 488.264 482.945 483.669L262.465 258.14C259.633 255.243 254.978 255.225 252.124 258.1Z" fill="#F86606"/>
</svg>
