<svg width="572" height="100" viewBox="0 0 572 100" fill="none" xmlns="http://www.w3.org/2000/svg">
<path d="M57.3476 0H98.4848C99.3216 0 100 0.678356 100 1.51515V64.3829C100 65.8888 98.0415 66.4726 97.217 65.2125L56.0797 2.34476C55.4203 1.33706 56.1433 0 57.3476 0Z" fill="#246DFF"/>
<path d="M42.6524 0H1.51515C0.678356 0 0 0.678356 0 1.51515V64.3829C0 65.8888 1.95849 66.4726 2.783 65.2125L43.9203 2.34476C44.5797 1.33706 43.8567 0 42.6524 0Z" fill="#20A34E"/>
<path d="M49.2952 50.3341L2.56323 97.4175C1.61425 98.3736 2.29149 100 3.63861 100H96.3999C97.7415 100 98.4212 98.385 97.4833 97.4257L51.454 50.3423C50.8628 49.7376 49.891 49.7339 49.2952 50.3341Z" fill="#F86606"/>
<path d="M319.483 13.257H301.997C296.527 13.2571 294.182 15.9921 294.182 20.974V25.7608L319.659 25.7615L334.214 59.3661L348.77 25.7615H361.47L330.991 96H318.486L327.865 74.3131L310.432 36.3112H294.182V75.1918H281.678V36.3112H268.099V25.7608H281.678V18.5323C281.678 8.95877 286.953 3.29266 298.187 3.29266H319.483V13.257Z" fill="#F3F4FA"/>
<path fill-rule="evenodd" clip-rule="evenodd" d="M219.964 24.6869C232.859 24.6871 243.409 34.3585 243.409 50.477C243.409 66.6931 232.859 76.2662 219.964 76.2663C209.219 76.2663 203.845 69.6237 202.868 67.6699V95.9024H190.56V25.7615H202.966V33.5768C203.845 31.7207 209.219 24.6869 219.964 24.6869ZM216.74 35.6283C208.241 35.6285 202.771 41.9782 202.771 50.477C202.771 58.878 208.241 65.3255 216.74 65.3257C225.336 65.3257 230.807 58.8781 230.807 50.477C230.807 41.9781 225.337 35.6283 216.74 35.6283Z" fill="#F3F4FA"/>
<path fill-rule="evenodd" clip-rule="evenodd" d="M158.129 24.4911C173.466 24.4912 181.965 32.5016 181.965 44.224V60.9292C181.966 63.8597 183.04 65.2271 185.873 65.4225V75.4844H181.965C175.811 75.3867 171.806 73.0421 170.438 68.6461C167.996 72.1629 162.916 76.2662 154.417 76.2663C142.792 76.2663 134 69.6232 134 59.5612C134 49.5971 141.522 44.2241 153.733 44.224H169.95C169.949 38.2652 165.358 34.4556 158.129 34.4555C151.291 34.4555 148.556 38.1673 147.872 39.4373H135.27C136.247 34.1621 142.597 24.4911 158.129 24.4911ZM155.784 52.7229C150.021 52.723 146.309 54.8724 146.309 59.3661C146.309 64.1528 150.803 66.9855 157.055 66.9855C164.088 66.9854 169.95 63.4686 169.95 56.9236V52.7229H155.784Z" fill="#F3F4FA"/>
<path d="M262.148 75.1918H249.645V25.7615H262.148V75.1918Z" fill="#F3F4FA"/>
<path d="M262.344 17.8487H249.351V3H262.344V17.8487Z" fill="#F3F4FA"/>
<path d="M554.883 53.4329L547.829 52.7274C538.154 51.6188 531.905 47.4868 531.905 39.0213C531.905 30.6565 539.565 25.1135 550.046 25.1135C563.954 25.1135 569.295 32.7729 570.907 37.308H564.659C562.946 35.0908 559.217 30.7572 550.046 30.7572C542.487 30.7572 538.154 33.9822 538.154 38.8197C538.154 43.3548 541.379 45.8743 548.635 46.6806L555.589 47.386C566.171 48.5954 571.714 53.1305 571.714 61.8985C571.714 69.9609 565.163 76.3101 553.069 76.3101C538.254 76.3101 531.502 67.4414 530.494 62.7047H536.944C538.053 65.2242 542.487 70.4648 553.069 70.4648C561.031 70.4648 565.465 66.9375 565.465 62.1C565.465 57.1618 562.643 54.2391 554.883 53.4329Z" fill="#F3F4FA"/>
<path d="M527.247 39.9283H520.998C519.587 36.9049 515.858 31.0596 507.393 31.0596C498.121 31.0596 492.276 39.5252 492.276 50.7118C492.276 61.7977 498.323 70.364 507.494 70.364C516.06 70.364 519.89 64.5187 521.2 61.2938H527.347C526.037 65.5266 521.301 76.2093 507.494 76.2093C494.896 76.2093 485.725 65.5266 485.725 50.7118C485.725 35.8971 494.795 25.1135 507.393 25.1135C520.998 25.1135 526.138 35.3931 527.247 39.9283Z" fill="#F3F4FA"/>
<path d="M458.291 25.2144C471.997 25.2144 480.664 36.401 480.664 50.7119C480.664 65.1235 471.997 76.2094 458.291 76.2094C444.887 76.2094 435.917 65.1235 435.917 50.7119C435.917 36.401 444.887 25.2144 458.291 25.2144ZM458.291 70.2633C468.469 70.2633 474.214 61.4954 474.214 50.7119C474.214 39.9283 468.469 31.0596 458.291 31.0596C448.212 31.0596 442.468 39.9283 442.468 50.7119C442.468 61.4954 448.011 70.2633 458.291 70.2633Z" fill="#F3F4FA"/>
<path d="M421.444 75V64.8211C420.336 67.5422 416.304 76.2094 405.017 76.2094C392.218 76.2094 383.752 65.5266 383.752 50.7119C383.752 35.8971 392.218 25.2144 405.017 25.2144C416.304 25.2144 420.336 34.083 421.444 36.3002V0.825439H427.693V75H421.444ZM421.545 50.7119C421.545 40.3314 415.901 31.0596 405.823 31.0596C395.745 31.0596 390.303 40.2307 390.303 50.7119C390.303 61.0923 395.745 70.2633 405.823 70.2633C415.901 70.2633 421.545 60.8907 421.545 50.7119Z" fill="#F3F4FA"/>
</svg>
