<svg width="48" height="48" viewBox="0 0 48 48" fill="none" xmlns="http://www.w3.org/2000/svg">
<path d="M26.3512 8H39.5152C39.7829 8 40 8.21707 40 8.48485V28.6025C40 29.0844 39.3733 29.2712 39.1094 28.868L25.9455 8.75032C25.7345 8.42786 25.9659 8 26.3512 8Z" fill="#246DFF"/>
<path d="M21.6488 8H8.48485C8.21707 8 8 8.21707 8 8.48485V28.6025C8 29.0844 8.62672 29.2712 8.89056 28.868L22.0545 8.75032C22.2655 8.42786 22.0341 8 21.6488 8Z" fill="#20A34E"/>
<path d="M23.7745 24.1069L8.82023 39.1736C8.51656 39.4796 8.73328 40 9.16436 40H38.848C39.2773 40 39.4948 39.4832 39.1947 39.1762L24.4653 24.1095C24.2761 23.916 23.9651 23.9148 23.7745 24.1069Z" fill="#F86606"/>
</svg>
