<svg width="256" height="256" viewBox="0 0 256 256" fill="none" xmlns="http://www.w3.org/2000/svg">
<path d="M145.499 8.91699H243.474C245.467 8.91699 247.083 10.5326 247.083 12.5256V162.255C247.083 165.841 242.418 167.232 240.455 164.231L142.48 14.5014C140.909 12.1014 142.631 8.91699 145.499 8.91699Z" fill="#246DFF"/>
<path d="M110.501 8.91699H12.526C10.5331 8.91699 8.91748 10.5326 8.91748 12.5256V162.255C8.91748 165.841 13.5819 167.232 15.5456 164.231L113.52 14.5014C115.091 12.1014 113.369 8.91699 110.501 8.91699Z" fill="#20A34E"/>
<path d="M126.322 128.795L15.0222 240.932C12.7621 243.209 14.375 247.082 17.5834 247.082H238.508C241.704 247.082 243.322 243.236 241.089 240.951L131.463 128.815C130.055 127.375 127.741 127.366 126.322 128.795Z" fill="#F86606"/>
</svg>
