<svg width="90" height="24" viewBox="0 0 90 24" fill="none" xmlns="http://www.w3.org/2000/svg">
<g clip-path="url(#clip0_227_3977)">
<path d="M14.7852 0H24.6738C24.875 0 25.0381 0.162651 25.0381 0.36329V15.4372C25.0381 15.7982 24.5673 15.9382 24.369 15.6361L14.4805 0.562206C14.322 0.320589 14.4957 0 14.7852 0Z" fill="#246DFF"/>
<path d="M11.2529 0H1.36422C1.16306 0 1 0.162651 1 0.36329V15.4372C1 15.7982 1.47079 15.9382 1.66898 15.6361L11.5576 0.562206C11.7161 0.320589 11.5423 0 11.2529 0Z" fill="#20A34E"/>
<path d="M12.8497 12.0687L1.61621 23.3579C1.38809 23.5872 1.55089 23.9772 1.87471 23.9772H24.1728C24.4953 23.9772 24.6588 23.5899 24.4333 23.3598L13.3687 12.0706C13.2266 11.9256 12.9929 11.9247 12.8497 12.0687Z" fill="#F86606"/>
<path d="M78.2674 3.29845H74.0596C72.743 3.29845 72.1789 3.95494 72.1789 5.15074V6.29968L78.3097 6.29986L81.8122 14.3659L85.315 6.29986H88.371L81.0364 23.1589H78.0274L80.2842 17.9535L76.0892 8.83207H72.1789V18.1644H69.17V8.83207H65.9023V6.29968H69.17V4.56465C69.17 2.26676 70.4393 0.906738 73.1427 0.906738H78.2674V3.29845Z" fill="white"/>
<path fill-rule="evenodd" clip-rule="evenodd" d="M54.3197 6.04187C57.4225 6.0419 59.9614 8.3633 59.9614 12.2322C59.9614 16.1245 57.4225 18.4223 54.3197 18.4223C51.7337 18.4223 50.4407 16.8279 50.2057 16.3589V23.1355H47.2437V6.29979H50.2291V8.17566C50.4407 7.73016 51.7337 6.04187 54.3197 6.04187ZM53.5437 8.66808C51.4985 8.66813 50.1822 10.1922 50.1822 12.2322C50.1822 14.2486 51.4985 15.7962 53.5437 15.7962C55.6123 15.7962 56.9288 14.2487 56.9288 12.2322C56.9288 10.1922 55.6123 8.66808 53.5437 8.66808Z" fill="white"/>
<path fill-rule="evenodd" clip-rule="evenodd" d="M39.4394 5.995C43.13 5.99503 45.1751 7.91772 45.1751 10.7314V14.7411C45.1751 15.4445 45.4337 15.7727 46.1154 15.8196V18.2347H45.1751C43.6943 18.2112 42.7303 17.6485 42.4013 16.5934C41.8136 17.4374 40.5912 18.4225 38.5461 18.4225C35.7487 18.4225 33.6328 16.8279 33.6328 14.4127C33.633 12.0211 35.443 10.7314 38.3814 10.7314H42.2837C42.2837 9.30116 41.1788 8.38674 39.4394 8.38672C37.7938 8.38672 37.1355 9.27765 36.971 9.58248H33.9384C34.1736 8.31629 35.7017 5.995 39.4394 5.995ZM38.8751 12.7714C37.488 12.7714 36.5947 13.2873 36.5947 14.3659C36.5949 15.5149 37.6763 16.1948 39.1807 16.1948C40.8733 16.1948 42.2837 15.3506 42.2837 13.7797V12.7714H38.8751Z" fill="white"/>
<path d="M64.4703 18.1644H61.4614V6.29993H64.4703V18.1644Z" fill="white"/>
<path d="M64.5177 4.4005H61.3911V0.836426H64.5177V4.4005Z" fill="white"/>
</g>
<defs>
<clipPath id="clip0_227_3977">
<rect width="87.3708" height="24" fill="white" transform="translate(1)"/>
</clipPath>
</defs>
</svg>
