<svg id="Layer_1" data-name="Layer 1" xmlns="http://www.w3.org/2000/svg" xmlns:xlink="http://www.w3.org/1999/xlink" viewBox="0 0 600 240"><defs><style>.cls-1,.cls-23{fill:#fff;}.cls-1{fill-opacity:0.01;}.cls-10,.cls-11,.cls-12,.cls-13,.cls-14,.cls-15,.cls-16,.cls-17,.cls-19,.cls-2,.cls-20,.cls-21,.cls-22,.cls-23,.cls-24,.cls-25,.cls-26,.cls-27,.cls-28,.cls-29,.cls-30,.cls-31,.cls-32,.cls-33,.cls-34,.cls-35,.cls-36,.cls-37,.cls-38,.cls-39,.cls-4,.cls-40,.cls-41,.cls-42,.cls-43,.cls-44,.cls-5,.cls-6,.cls-7,.cls-9{fill-rule:evenodd;}.cls-13,.cls-2,.cls-24{opacity:0.6;}.cls-2{fill:url(#gradient_44);}.cls-3{fill:url(#gradient_66);}.cls-4{fill:url(#gradient_66-2);}.cls-5{fill:url(#gradient_66-3);}.cls-6{fill:url(#gradient_66-4);}.cls-7{fill:url(#gradient_66-5);}.cls-8{fill:url(#gradient_66-6);}.cls-9{fill:url(#gradient_66-7);}.cls-10{fill:url(#gradient_66-8);}.cls-11{fill:url(#gradient_66-9);}.cls-12{fill:url(#gradient_66-10);}.cls-13{fill:url(#gradient_44-2);}.cls-14{fill:url(#gradient_66-11);}.cls-15{fill:url(#gradient_66-12);}.cls-16{fill:url(#gradient_66-13);}.cls-17{fill:url(#gradient_66-14);}.cls-18{fill:url(#gradient_66-15);}.cls-19{fill:url(#gradient_66-16);}.cls-20{fill:url(#gradient_66-17);}.cls-21{fill:url(#gradient_66-18);}.cls-22{fill:url(#gradient_66-19);}.cls-24{fill:url(#gradient_44-3);}.cls-25{fill:url(#gradient_66-20);}.cls-26{fill:url(#gradient_66-21);}.cls-27{fill:url(#gradient_66-22);}.cls-28{fill:url(#gradient_66-23);}.cls-29,.cls-30{opacity:0.15;}.cls-29{fill:url(#gradient_61);}.cls-30{fill:url(#gradient_61-2);}.cls-31{fill:url(#gradient_61-3);}.cls-32{fill:url(#gradient_61-4);}.cls-33{fill:url(#gradient_61-5);}.cls-34{fill:url(#gradient_61-6);}.cls-35{fill:url(#gradient_61-7);}.cls-36{fill:url(#gradient_61-8);}.cls-37{fill:url(#gradient_61-9);}.cls-38{fill:url(#gradient_61-10);}.cls-39{fill:url(#gradient_61-11);}.cls-40{fill:url(#gradient_61-12);}.cls-41{fill:url(#gradient_61-13);}.cls-42{fill:url(#gradient_61-14);}.cls-43{fill:url(#gradient_61-15);}.cls-44{fill:url(#gradient_61-16);}</style><linearGradient id="gradient_44" x1="-653.35" y1="1073.89" x2="-653.98" y2="1074.86" gradientTransform="matrix(112, 0, 0, -140, 73560, 150495.46)" gradientUnits="userSpaceOnUse"><stop offset="0" stop-color="#69bbff"/><stop offset="1" stop-color="#a5cbf9"/></linearGradient><linearGradient id="gradient_66" x1="313.99" y1="112.9" x2="344.96" y2="112.9" gradientUnits="userSpaceOnUse"><stop offset="0" stop-color="#69bbff"/><stop offset="1" stop-color="#257aff" stop-opacity="0"/></linearGradient><linearGradient id="gradient_66-2" x1="374.6" y1="28.64" x2="411.9" y2="28.64" xlink:href="#gradient_66"/><linearGradient id="gradient_66-3" x1="313.99" y1="26.31" x2="351.29" y2="26.31" xlink:href="#gradient_66"/><linearGradient id="gradient_66-4" x1="356.95" y1="94.25" x2="396.91" y2="94.25" xlink:href="#gradient_66"/><linearGradient id="gradient_66-5" x1="356.95" y1="115.23" x2="396.91" y2="115.23" xlink:href="#gradient_66"/><linearGradient id="gradient_66-6" x1="313.99" y1="68.27" x2="397.91" y2="68.27" xlink:href="#gradient_66"/><linearGradient id="gradient_66-7" x1="313.99" y1="35.63" x2="332.64" y2="35.63" xlink:href="#gradient_66"/><linearGradient id="gradient_66-8" x1="356.95" y1="104.74" x2="377.93" y2="104.74" xlink:href="#gradient_66"/><linearGradient id="gradient_66-9" x1="356.95" y1="125.72" x2="387.92" y2="125.72" xlink:href="#gradient_66"/><linearGradient id="gradient_66-10" x1="313.99" y1="78.76" x2="387.42" y2="78.76" xlink:href="#gradient_66"/><linearGradient id="gradient_44-2" x1="-653.35" y1="1073.89" x2="-653.98" y2="1074.86" gradientTransform="matrix(112, 0, 0, -140, 73355, 150535.46)" xlink:href="#gradient_44"/><linearGradient id="gradient_66-11" x1="-642.04" y1="1057.16" x2="-641.7" y2="1058.33" gradientTransform="matrix(37.33, 0, 0, -37.33, 24149.67, 39564.11)" xlink:href="#gradient_66"/><linearGradient id="gradient_66-12" x1="-642.24" y1="900.67" x2="-641.59" y2="900.55" gradientTransform="matrix(37.33, 0, 0, -4.67, 24089, 4269.04)" xlink:href="#gradient_66"/><linearGradient id="gradient_66-13" x1="-652.14" y1="900.62" x2="-651.43" y2="900.6" gradientTransform="matrix(84, 0, 0, -4.67, 54889, 4332.04)" xlink:href="#gradient_66"/><linearGradient id="gradient_66-14" x1="-652.14" y1="900.62" x2="-651.43" y2="900.6" gradientTransform="matrix(84, 0, 0, -4.67, 54889, 4353.04)" xlink:href="#gradient_66"/><linearGradient id="gradient_66-15" x1="-652.14" y1="900.62" x2="-651.43" y2="900.6" gradientTransform="matrix(84, 0, 0, -4.67, 54889, 4311.04)" xlink:href="#gradient_66"/><linearGradient id="gradient_66-16" x1="-624.56" y1="900.9" x2="-623.91" y2="900.43" gradientTransform="matrix(18.67, 0, 0, -4.67, 11769, 4278.38)" xlink:href="#gradient_66"/><linearGradient id="gradient_66-17" x1="-644.71" y1="900.66" x2="-643.99" y2="900.58" gradientTransform="matrix(43.17, 0, 0, -4.67, 27939, 4342.54)" xlink:href="#gradient_66"/><linearGradient id="gradient_66-18" x1="-649.71" y1="900.64" x2="-649" y2="900.6" gradientTransform="matrix(64.17, 0, 0, -4.67, 41799, 4363.54)" xlink:href="#gradient_66"/><linearGradient id="gradient_66-19" x1="-651.02" y1="900.62" x2="-650.3" y2="900.6" gradientTransform="matrix(73.5, 0, 0, -4.67, 47959, 4321.54)" xlink:href="#gradient_66"/><linearGradient id="gradient_44-3" x1="390.92" y1="128.88" x2="502.81" y2="128.88" gradientTransform="matrix(1, 0, 0, 1, 0, 0)" xlink:href="#gradient_44"/><linearGradient id="gradient_66-20" x1="404.9" y1="153.86" x2="488.83" y2="153.86" xlink:href="#gradient_66"/><linearGradient id="gradient_66-21" x1="465.51" y1="77.6" x2="502.81" y2="77.6" xlink:href="#gradient_66"/><linearGradient id="gradient_66-22" x1="404.9" y1="75.26" x2="442.2" y2="75.26" xlink:href="#gradient_66"/><linearGradient id="gradient_66-23" x1="404.9" y1="84.59" x2="423.55" y2="84.59" xlink:href="#gradient_66"/><linearGradient id="gradient_61" x1="-656.25" y1="1069.35" x2="-655.47" y2="1069.35" gradientTransform="matrix(176, 0, 0, -76, 115666, 81450.18)" gradientUnits="userSpaceOnUse"><stop offset="0" stop-color="#69bbff"/><stop offset="1" stop-color="#257aff"/></linearGradient><linearGradient id="gradient_61-2" x1="-654.48" y1="1063.6" x2="-653.41" y2="1063.62" gradientTransform="matrix(118, 0, 0, -50, 77480, 53379.38)" xlink:href="#gradient_61"/><linearGradient id="gradient_61-3" x1="-653.92" y1="1067.57" x2="-654.92" y2="1067.45" gradientTransform="matrix(130, 0, 0, -65, 85329, 69554.72)" xlink:href="#gradient_61"/><linearGradient id="gradient_61-4" x1="-654.93" y1="1060.97" x2="-653.91" y2="1061.08" gradientTransform="matrix(130, 0, 0, -43.33, 85329, 46113.78)" xlink:href="#gradient_61"/><linearGradient id="gradient_61-5" x1="-653.92" y1="1067.57" x2="-654.92" y2="1067.45" gradientTransform="matrix(130, 0, 0, -65, 85329, 69505.55)" xlink:href="#gradient_61"/><linearGradient id="gradient_61-6" x1="-654.93" y1="1060.97" x2="-653.91" y2="1061.08" gradientTransform="matrix(130, 0, 0, -43.33, 85329, 46064.61)" xlink:href="#gradient_61"/><linearGradient id="gradient_61-7" x1="-653.92" y1="1067.57" x2="-654.92" y2="1067.45" gradientTransform="matrix(130, 0, 0, -65, 85329, 69456.39)" xlink:href="#gradient_61"/><linearGradient id="gradient_61-8" x1="-654.93" y1="1060.97" x2="-653.91" y2="1061.08" gradientTransform="matrix(130, 0, 0, -43.33, 85329, 46015.44)" xlink:href="#gradient_61"/><linearGradient id="gradient_61-9" x1="-643.77" y1="1022.24" x2="-644.77" y2="1022.36" gradientTransform="matrix(43.33, 0, 0, -14.44, 28172.33, 14804.19)" xlink:href="#gradient_61"/><linearGradient id="gradient_61-10" x1="-651.66" y1="1061.84" x2="-652.66" y2="1061.71" gradientTransform="matrix(90, 0, 0, -45, 59014, 47969.01)" xlink:href="#gradient_61"/><linearGradient id="gradient_61-11" x1="-652.68" y1="1052.37" x2="-651.66" y2="1052.48" gradientTransform="matrix(90, 0, 0, -30, 59014, 31740.66)" xlink:href="#gradient_61"/><linearGradient id="gradient_61-12" x1="-651.66" y1="1061.84" x2="-652.66" y2="1061.71" gradientTransform="matrix(90, 0, 0, -45, 59014, 47934.97)" xlink:href="#gradient_61"/><linearGradient id="gradient_61-13" x1="-652.68" y1="1052.37" x2="-651.66" y2="1052.48" gradientTransform="matrix(90, 0, 0, -30, 59014, 31706.62)" xlink:href="#gradient_61"/><linearGradient id="gradient_61-14" x1="-651.66" y1="1061.84" x2="-652.66" y2="1061.71" gradientTransform="matrix(90, 0, 0, -45, 59014, 47900.93)" xlink:href="#gradient_61"/><linearGradient id="gradient_61-15" x1="-652.68" y1="1052.37" x2="-651.66" y2="1052.48" gradientTransform="matrix(90, 0, 0, -30, 59014, 31672.58)" xlink:href="#gradient_61"/><linearGradient id="gradient_61-16" x1="-637" y1="996.43" x2="-638" y2="996.54" gradientTransform="matrix(30, 0, 0, -10, 19444, 10064.79)" xlink:href="#gradient_61"/></defs><title>storage-01</title><g id="Design"><g id="storage"><g id="Intro"><g id="illustration_intro" data-name="illustration intro"><g id="icon_specify" data-name="icon specify"><rect id="Rectangle" class="cls-1" x="286.01" y="9.99" width="139.87" height="139.87"/><path id="Rectangle-2" data-name="Rectangle" class="cls-2" d="M308,10H374.6l37.3,37.3v94.58a8,8,0,0,1-8,8H308a8,8,0,0,1-8-8V18A8,8,0,0,1,308,10Z"/><rect id="Rectangle-3" data-name="Rectangle" class="cls-3" x="313.99" y="91.92" width="30.97" height="41.96" rx="2.33"/><path id="Path-3" class="cls-4" d="M374.6,10V39.3a8,8,0,0,0,8,8H411.9Z"/><path id="Rectangle-4" data-name="Rectangle" class="cls-5" d="M316.32,24H349a2.33,2.33,0,0,1,2.34,2.33h0A2.33,2.33,0,0,1,349,28.64H316.32A2.33,2.33,0,0,1,314,26.31h0A2.33,2.33,0,0,1,316.32,24Z"/><path id="Rectangle-5" data-name="Rectangle" class="cls-6" d="M359.28,91.92h35.3a2.33,2.33,0,0,1,2.33,2.33h0a2.33,2.33,0,0,1-2.33,2.33h-35.3A2.33,2.33,0,0,1,357,94.25h0A2.33,2.33,0,0,1,359.28,91.92Z"/><path id="Rectangle-6" data-name="Rectangle" class="cls-7" d="M359.28,112.9h35.3a2.33,2.33,0,0,1,2.33,2.33h0a2.33,2.33,0,0,1-2.33,2.33h-35.3a2.33,2.33,0,0,1-2.33-2.33h0A2.33,2.33,0,0,1,359.28,112.9Z"/><rect id="Rectangle-7" data-name="Rectangle" class="cls-8" x="313.99" y="65.94" width="83.92" height="4.66" rx="2.33"/><path id="Rectangle-8" data-name="Rectangle" class="cls-9" d="M316.32,33.3h14a2.34,2.34,0,0,1,2.34,2.33h0A2.34,2.34,0,0,1,330.3,38h-14A2.33,2.33,0,0,1,314,35.63h0A2.33,2.33,0,0,1,316.32,33.3Z"/><path id="Rectangle-9" data-name="Rectangle" class="cls-10" d="M359.28,102.41H375.6a2.33,2.33,0,0,1,2.33,2.33h0a2.34,2.34,0,0,1-2.33,2.33H359.28a2.33,2.33,0,0,1-2.33-2.33h0A2.33,2.33,0,0,1,359.28,102.41Z"/><path id="Rectangle-10" data-name="Rectangle" class="cls-11" d="M359.28,123.39h26.31a2.33,2.33,0,0,1,2.33,2.33h0a2.33,2.33,0,0,1-2.33,2.33H359.28a2.33,2.33,0,0,1-2.33-2.33h0A2.33,2.33,0,0,1,359.28,123.39Z"/><path id="Rectangle-11" data-name="Rectangle" class="cls-12" d="M316.32,76.43h68.77a2.33,2.33,0,0,1,2.33,2.33h0a2.33,2.33,0,0,1-2.33,2.33H316.32A2.33,2.33,0,0,1,314,78.76h0A2.33,2.33,0,0,1,316.32,76.43Z"/></g><g id="icon_specify-2" data-name="icon specify"><rect id="Rectangle-12" data-name="Rectangle" class="cls-1" x="81.2" y="49.95" width="139.87" height="139.87"/><path id="Rectangle-13" data-name="Rectangle" class="cls-13" d="M103.18,50h66.61l37.29,37.3v94.58a8,8,0,0,1-8,8H103.18a8,8,0,0,1-8-8V58A8,8,0,0,1,103.18,50Z"/><path id="Path-3-2" data-name="Path-3" class="cls-14" d="M169.79,50V79.26a8,8,0,0,0,8,8h29.3Z"/><path id="Rectangle-14" data-name="Rectangle" class="cls-15" d="M111.51,63.94h32.63a2.33,2.33,0,0,1,2.33,2.33h0a2.33,2.33,0,0,1-2.33,2.33H111.51a2.33,2.33,0,0,1-2.34-2.33h0A2.33,2.33,0,0,1,111.51,63.94Z"/><path id="Rectangle-15" data-name="Rectangle" class="cls-16" d="M111.51,126.88h79.26a2.34,2.34,0,0,1,2.33,2.33h0a2.34,2.34,0,0,1-2.33,2.34H111.51a2.34,2.34,0,0,1-2.34-2.34h0A2.34,2.34,0,0,1,111.51,126.88Z"/><path id="Rectangle-16" data-name="Rectangle" class="cls-17" d="M111.51,147.86h79.26a2.34,2.34,0,0,1,2.33,2.34h0a2.34,2.34,0,0,1-2.33,2.33H111.51a2.34,2.34,0,0,1-2.34-2.33h0A2.34,2.34,0,0,1,111.51,147.86Z"/><rect id="Rectangle-17" data-name="Rectangle" class="cls-18" x="109.17" y="105.9" width="83.92" height="4.66" rx="2.33"/><path id="Rectangle-18" data-name="Rectangle" class="cls-19" d="M111.51,73.27h14a2.33,2.33,0,0,1,2.33,2.33h0a2.33,2.33,0,0,1-2.33,2.33h-14a2.34,2.34,0,0,1-2.34-2.33h0A2.33,2.33,0,0,1,111.51,73.27Z"/><path id="Rectangle-19" data-name="Rectangle" class="cls-20" d="M111.51,137.37H150a2.33,2.33,0,0,1,2.33,2.33h0A2.33,2.33,0,0,1,150,142H111.51a2.34,2.34,0,0,1-2.34-2.34h0A2.34,2.34,0,0,1,111.51,137.37Z"/><path id="Rectangle-20" data-name="Rectangle" class="cls-21" d="M111.51,158.35H171a2.33,2.33,0,0,1,2.33,2.34h0A2.33,2.33,0,0,1,171,163H111.51a2.34,2.34,0,0,1-2.34-2.33h0A2.34,2.34,0,0,1,111.51,158.35Z"/><path id="Rectangle-21" data-name="Rectangle" class="cls-22" d="M111.51,116.39h68.77a2.34,2.34,0,0,1,2.33,2.33h0a2.34,2.34,0,0,1-2.33,2.34H111.51a2.34,2.34,0,0,1-2.34-2.34h0A2.34,2.34,0,0,1,111.51,116.39Z"/></g><g id="icon_specify-3" data-name="icon specify"><rect id="Rectangle-22" data-name="Rectangle" class="cls-1" x="376.93" y="58.95" width="139.87" height="139.87"/><path id="Rectangle-23" data-name="Rectangle" class="cls-23" d="M398.91,59h66.6l37.3,37.29v94.58a8,8,0,0,1-8,8H398.91a8,8,0,0,1-8-8V66.94A8,8,0,0,1,398.91,59Z"/><path id="Rectangle-24" data-name="Rectangle" class="cls-24" d="M398.91,59h66.6l37.3,37.29v94.58a8,8,0,0,1-8,8H398.91a8,8,0,0,1-8-8V66.94A8,8,0,0,1,398.91,59Z"/><path id="Fill-1" class="cls-25" d="M468.84,137.87v-10h15a1,1,0,0,1,1,1v9Zm0,14h16v-10h-16Zm0,14h16v-10h-16Zm16,13a1,1,0,0,1-1,1h-15v-10h16Zm-36,1h16v-10h-16Zm-20,0h16v-10h-16Zm-4,0h-15a1,1,0,0,1-1-1v-9h16Zm-16-14h16v-10h-16Zm0-14h16v-10h-16Zm0-23a1,1,0,0,1,1-1h15v10h-16Zm20,9h16v-10h-16Zm0,14h16v-10h-16Zm0,14h16v-10h-16Zm20,0h16v-10h-16Zm0-14h16v-10h-16Zm0-14h16v-10h-16Zm34.95-14H409.92a5,5,0,0,0-5,5v49.91a5,5,0,0,0,5,5h73.89a5,5,0,0,0,5-5V128.9a5,5,0,0,0-5-5Z"/><path id="Path-3-3" data-name="Path-3" class="cls-26" d="M465.51,59v29.3a8,8,0,0,0,8,8h29.3Z"/><path id="Rectangle-25" data-name="Rectangle" class="cls-27" d="M407.23,72.93h32.64a2.33,2.33,0,0,1,2.33,2.33h0a2.33,2.33,0,0,1-2.33,2.34H407.23a2.34,2.34,0,0,1-2.33-2.34h0A2.34,2.34,0,0,1,407.23,72.93Z"/><path id="Rectangle-26" data-name="Rectangle" class="cls-28" d="M407.23,82.26h14a2.33,2.33,0,0,1,2.33,2.33h0a2.33,2.33,0,0,1-2.33,2.33h-14a2.33,2.33,0,0,1-2.33-2.33h0A2.33,2.33,0,0,1,407.23,82.26Z"/></g><rect id="Rectangle-27" data-name="Rectangle" class="cls-1" x="158.13" width="239.78" height="239.78"/><path id="Fill-11" class="cls-29" d="M342,179.5c0,21-39.36,38-87.92,38s-87.92-17-87.92-38,39.36-38,87.92-38,87.92,17,87.92,38"/><path id="Fill-11-2" data-name="Fill-11" class="cls-30" d="M377.93,198.82c0,13.79-26.39,25-58.95,25S260,212.61,260,198.82s26.39-25,58.94-25,58.95,11.18,58.95,25"/><g id="Group-15"><path id="Fill-1-2" data-name="Fill-1" class="cls-31" d="M189.1,135.88v43.29c0,12,29.08,21.65,64.94,21.65S319,191.12,319,179.17V135.88Z"/><path id="Fill-3" class="cls-32" d="M319,135.88c0,12-29.07,21.64-64.94,21.64s-64.94-9.69-64.94-21.64,29.08-21.65,64.94-21.65S319,123.92,319,135.88"/><path id="Fill-5" class="cls-33" d="M189.1,86.75v43.3c0,11.95,29.08,21.64,64.94,21.64S319,142,319,130.05V86.75Z"/><path id="Fill-7" class="cls-34" d="M319,86.75c0,12-29.07,21.65-64.94,21.65S189.1,98.71,189.1,86.75,218.18,65.11,254,65.11,319,74.8,319,86.75"/><path id="Fill-9" class="cls-35" d="M189.1,37.63v43.3c0,11.95,29.08,21.64,64.94,21.64S319,92.88,319,80.93V37.63Z"/><path id="Fill-11-3" data-name="Fill-11" class="cls-36" d="M319,37.63c0,12-29.07,21.65-64.94,21.65S189.1,49.59,189.1,37.63,218.18,16,254,16,319,25.68,319,37.63"/><path id="Fill-13" class="cls-37" d="M275.69,37.63c0,4-9.69,7.22-21.65,7.22s-21.65-3.23-21.65-7.22,9.7-7.21,21.65-7.21,21.65,3.23,21.65,7.21"/></g><g id="Group-15-2" data-name="Group-15"><path id="Fill-1-3" data-name="Fill-1" class="cls-38" d="M274,167.92v30c0,8.28,20.13,15,45,15s45-6.71,45-15v-30Z"/><path id="Fill-3-2" data-name="Fill-3" class="cls-39" d="M363.94,167.92c0,8.28-20.13,15-45,15s-45-6.71-45-15,20.13-15,45-15,45,6.71,45,15"/><path id="Fill-5-2" data-name="Fill-5" class="cls-40" d="M274,133.92v30c0,8.27,20.13,15,45,15s45-6.71,45-15v-30Z"/><path id="Fill-7-2" data-name="Fill-7" class="cls-41" d="M363.94,133.92c0,8.27-20.13,15-45,15s-45-6.71-45-15,20.13-15,45-15,45,6.71,45,15"/><path id="Fill-9-2" data-name="Fill-9" class="cls-42" d="M274,99.91v30c0,8.28,20.13,15,45,15s45-6.71,45-15v-30Z"/><path id="Fill-11-4" data-name="Fill-11" class="cls-43" d="M363.94,99.91c0,8.27-20.13,15-45,15s-45-6.71-45-15,20.13-15,45-15,45,6.71,45,15"/><path id="Fill-13-2" data-name="Fill-13" class="cls-44" d="M334,99.91c0,2.76-6.71,5-15,5s-15-2.23-15-5,6.7-5,15-5,15,2.24,15,5"/></g></g></g></g></g></svg>
