<svg width="56" height="53" viewBox="0 0 56 53" fill="none" xmlns="http://www.w3.org/2000/svg">
<rect x="0.5" y="0.5" width="55" height="52" rx="7.5" fill="white"/>
<rect x="0.5" y="0.5" width="55" height="52" rx="7.5" stroke="#E4E5E6"/>
<path d="M38.4668 23.041C39.003 23.041 39.4879 23.3616 39.6943 23.8555L48.1719 44.1562C48.3861 44.6699 48.0056 45.2322 47.4512 45.2324H39.4209C38.7368 45.2324 38.1185 44.8222 37.8555 44.1924L34.0137 34.9922C33.9366 34.8078 33.7552 34.6866 33.5527 34.6865H22.4473C22.2448 34.6866 22.0634 34.8078 21.9863 34.9922L18.1445 44.1924C17.8815 44.8222 17.2632 45.2324 16.5791 45.2324H8.54883C7.99439 45.2322 7.61389 44.6699 7.82812 44.1562L16.3057 23.8555C16.5121 23.3616 16.997 23.041 17.5332 23.041H38.4668ZM32.0898 7.76758C32.626 7.76773 33.1101 8.08919 33.3164 8.58301L38.377 20.7012C38.5915 21.215 38.211 21.7773 37.6562 21.7773H18.3438C17.789 21.7773 17.4085 21.215 17.623 20.7012L22.6836 8.58301C22.8899 8.08919 23.374 7.76773 23.9102 7.76758H32.0898Z" fill="black" stroke="white" stroke-width="0.463918"/>
</svg>
