<svg width="384" height="124" viewBox="0 0 384 124" fill="none" xmlns="http://www.w3.org/2000/svg">
<g clip-path="url(#clip0_6821_17170)">
<rect width="384" height="124" rx="12" fill="#0F0F0F"/>
<g clip-path="url(#clip1_6821_17170)">
<rect x="224.226" y="34.2256" width="226.549" height="139.362" rx="2.48211" fill="#020202" stroke="url(#paint0_linear_6821_17170)" stroke-width="0.451292"/>
<rect x="263.716" y="45.7524" width="179.123" height="6.48409" rx="2.70775" fill="#222222"/>
<g clip-path="url(#clip2_6821_17170)">
<path d="M249.161 44H252.864C252.939 44 253 44.0611 253 44.1364V49.7945C253 49.93 252.824 49.9825 252.75 49.8691L249.047 44.211C248.988 44.1203 249.053 44 249.161 44Z" fill="#246DFF"/>
<path d="M247.839 44H244.136C244.061 44 244 44.0611 244 44.1364V49.7945C244 49.93 244.176 49.9825 244.25 49.8691L247.953 44.211C248.012 44.1203 247.947 44 247.839 44Z" fill="#20A34E"/>
<path d="M248.437 48.5301L244.231 52.7676C244.145 52.8536 244.206 53 244.327 53H252.676C252.797 53 252.858 52.8547 252.773 52.7683L248.631 48.5308C248.578 48.4764 248.49 48.476 248.437 48.5301Z" fill="#F86606"/>
</g>
<path d="M247.451 101.12V121.088C247.451 128.439 262.351 134.4 280.731 134.4C299.11 134.4 314.011 128.439 314.011 121.088V101.12" fill="#2C2C2C"/>
<path d="M247.451 101.12V121.088C247.451 128.439 262.351 134.4 280.731 134.4C299.11 134.4 314.011 128.439 314.011 121.088V101.12" stroke="url(#paint1_linear_6821_17170)" stroke-width="0.747576" stroke-linecap="round" stroke-linejoin="round"/>
<path d="M247.451 81.7571V101.722C247.451 109.073 262.351 115.034 280.731 115.034C299.11 115.034 314.011 109.076 314.011 101.722V81.7571" fill="#2C2C2C"/>
<path d="M247.451 81.7571V101.722C247.451 109.073 262.351 115.034 280.731 115.034C299.11 115.034 314.011 109.076 314.011 101.722V81.7571" stroke="url(#paint2_linear_6821_17170)" stroke-width="0.747576" stroke-linecap="round" stroke-linejoin="round"/>
<path d="M280.73 94.6655C299.111 94.6655 314.01 88.7055 314.01 81.3535C314.01 74.0015 299.111 68.0415 280.73 68.0415C262.35 68.0415 247.45 74.0015 247.45 81.3535C247.45 88.7055 262.35 94.6655 280.73 94.6655Z" fill="#2C2C2C" stroke="url(#paint3_linear_6821_17170)" stroke-width="0.747576" stroke-linecap="round" stroke-linejoin="round"/>
<path d="M313.912 101.12V121.088C313.912 128.439 328.813 134.4 347.192 134.4C365.572 134.4 380.472 128.439 380.472 121.088V101.12" fill="#2C2C2C"/>
<path d="M313.912 101.12V121.088C313.912 128.439 328.813 134.4 347.192 134.4C365.572 134.4 380.472 128.439 380.472 121.088V101.12" stroke="url(#paint4_linear_6821_17170)" stroke-width="0.747576" stroke-linecap="round" stroke-linejoin="round"/>
<path d="M313.912 81.7571V101.722C313.912 109.073 328.813 115.034 347.192 115.034C365.572 115.034 380.472 109.076 380.472 101.722V81.7571" fill="#2C2C2C"/>
<path d="M313.912 81.7571V101.722C313.912 109.073 328.813 115.034 347.192 115.034C365.572 115.034 380.472 109.076 380.472 101.722V81.7571" stroke="url(#paint5_linear_6821_17170)" stroke-width="0.747576" stroke-linecap="round" stroke-linejoin="round"/>
<path d="M347.192 94.6655C365.572 94.6655 380.472 88.7055 380.472 81.3535C380.472 74.0015 365.572 68.0415 347.192 68.0415C328.812 68.0415 313.912 74.0015 313.912 81.3535C313.912 88.7055 328.812 94.6655 347.192 94.6655Z" fill="#2C2C2C" stroke="url(#paint6_linear_6821_17170)" stroke-width="0.747576" stroke-linecap="round" stroke-linejoin="round"/>
<path d="M280.681 106.072V126.037C280.681 133.389 295.582 139.349 313.961 139.349C332.341 139.349 347.241 133.391 347.241 126.037V106.072" fill="#2C2C2C"/>
<path d="M280.681 106.072V126.037C280.681 133.389 295.582 139.349 313.961 139.349C332.341 139.349 347.241 133.391 347.241 126.037V106.072" stroke="url(#paint7_linear_6821_17170)" stroke-width="0.747576" stroke-linecap="round" stroke-linejoin="round"/>
<path d="M313.961 118.981C332.341 118.981 347.241 113.021 347.241 105.669C347.241 98.3168 332.341 92.3568 313.961 92.3568C295.581 92.3568 280.681 98.3168 280.681 105.669C280.681 113.021 295.581 118.981 313.961 118.981Z" fill="#2C2C2C" stroke="url(#paint8_linear_6821_17170)" stroke-width="0.747576" stroke-linecap="round" stroke-linejoin="round"/>
<path d="M347.144 106.072V126.037C347.144 133.389 362.044 139.349 380.424 139.349C398.803 139.349 413.704 133.391 413.704 126.037V106.072" fill="#E5EBFD"/>
<path d="M347.144 106.072V126.037C347.144 133.389 362.044 139.349 380.424 139.349C398.803 139.349 413.704 133.391 413.704 126.037V106.072" stroke="url(#paint9_linear_6821_17170)" stroke-width="0.747576" stroke-linecap="round" stroke-linejoin="round"/>
<path d="M380.424 118.981C398.804 118.981 413.704 113.021 413.704 105.669C413.704 98.3168 398.804 92.3568 380.424 92.3568C362.044 92.3568 347.144 98.3168 347.144 105.669C347.144 113.021 362.044 118.981 380.424 118.981Z" fill="#E5EBFD" stroke="url(#paint10_linear_6821_17170)" stroke-width="0.747576" stroke-linecap="round" stroke-linejoin="round"/>
</g>
<g clip-path="url(#clip3_6821_17170)">
<rect x="-46.7941" y="12.2058" width="206.588" height="127.083" rx="2.26342" fill="#020202" stroke="url(#paint11_linear_6821_17170)" stroke-width="0.411531"/>
<rect x="-10.7836" y="22.717" width="163.341" height="5.9128" rx="2.46918" fill="#222222"/>
<path d="M-5.08667 73.2061V91.4148C-5.08667 98.1183 8.50108 103.554 25.2612 103.554C42.0213 103.554 55.6091 98.1183 55.6091 91.4148V73.2061" fill="#2C2C2C"/>
<path d="M-5.08667 73.2061V91.4148C-5.08667 98.1183 8.50108 103.554 25.2612 103.554C42.0213 103.554 55.6091 98.1183 55.6091 91.4148V73.2061" stroke="url(#paint12_linear_6821_17170)" stroke-width="0.68171" stroke-linecap="round" stroke-linejoin="round"/>
<path d="M-5.08667 55.5494V73.7555C-5.08667 80.459 8.50108 85.8946 25.2612 85.8946C42.0213 85.8946 55.6091 80.4617 55.6091 73.7555V55.5494" fill="#2C2C2C"/>
<path d="M-5.08667 55.5494V73.7555C-5.08667 80.459 8.50108 85.8946 25.2612 85.8946C42.0213 85.8946 55.6091 80.4617 55.6091 73.7555V55.5494" stroke="url(#paint13_linear_6821_17170)" stroke-width="0.68171" stroke-linecap="round" stroke-linejoin="round"/>
<path d="M25.2611 67.3205C42.0217 67.3205 55.6089 61.8856 55.6089 55.1814C55.6089 48.4771 42.0217 43.0422 25.2611 43.0422C8.50041 43.0422 -5.08679 48.4771 -5.08679 55.1814C-5.08679 61.8856 8.50041 67.3205 25.2611 67.3205Z" fill="#2C2C2C" stroke="url(#paint14_linear_6821_17170)" stroke-width="0.68171" stroke-linecap="round" stroke-linejoin="round"/>
<path d="M55.5192 73.2061V91.4148C55.5192 98.1183 69.1069 103.554 85.867 103.554C102.627 103.554 116.215 98.1183 116.215 91.4148V73.2061" fill="#2C2C2C"/>
<path d="M55.5192 73.2061V91.4148C55.5192 98.1183 69.1069 103.554 85.867 103.554C102.627 103.554 116.215 98.1183 116.215 91.4148V73.2061" stroke="url(#paint15_linear_6821_17170)" stroke-width="0.68171" stroke-linecap="round" stroke-linejoin="round"/>
<path d="M55.5192 55.5494V73.7555C55.5192 80.459 69.1069 85.8946 85.867 85.8946C102.627 85.8946 116.215 80.4617 116.215 73.7555V55.5494" fill="#2C2C2C"/>
<path d="M55.5192 55.5494V73.7555C55.5192 80.459 69.1069 85.8946 85.867 85.8946C102.627 85.8946 116.215 80.4617 116.215 73.7555V55.5494" stroke="url(#paint16_linear_6821_17170)" stroke-width="0.68171" stroke-linecap="round" stroke-linejoin="round"/>
<path d="M85.8673 67.3205C102.628 67.3205 116.215 61.8856 116.215 55.1814C116.215 48.4771 102.628 43.0422 85.8673 43.0422C69.1066 43.0422 55.5194 48.4771 55.5194 55.1814C55.5194 61.8856 69.1066 67.3205 85.8673 67.3205Z" fill="#2C2C2C" stroke="url(#paint17_linear_6821_17170)" stroke-width="0.68171" stroke-linecap="round" stroke-linejoin="round"/>
<path d="M25.2168 95.3792V113.588C25.2168 120.291 38.8045 125.727 55.5647 125.727C72.3248 125.727 85.9125 120.291 85.9125 113.588V95.3792" fill="#2C2C2C"/>
<path d="M25.2168 95.3792V113.588C25.2168 120.291 38.8045 125.727 55.5647 125.727C72.3248 125.727 85.9125 120.291 85.9125 113.588V95.3792" stroke="url(#paint18_linear_6821_17170)" stroke-width="0.68171" stroke-linecap="round" stroke-linejoin="round"/>
<path d="M25.2168 77.7224V95.9284C25.2168 102.632 38.8045 108.068 55.5647 108.068C72.3248 108.068 85.9125 102.635 85.9125 95.9284V77.7224" fill="#2C2C2C"/>
<path d="M25.2168 77.7224V95.9284C25.2168 102.632 38.8045 108.068 55.5647 108.068C72.3248 108.068 85.9125 102.635 85.9125 95.9284V77.7224" stroke="url(#paint19_linear_6821_17170)" stroke-width="0.68171" stroke-linecap="round" stroke-linejoin="round"/>
<path d="M55.5647 89.4936C72.3253 89.4936 85.9125 84.0587 85.9125 77.3545C85.9125 70.6502 72.3253 65.2153 55.5647 65.2153C38.804 65.2153 25.2168 70.6502 25.2168 77.3545C25.2168 84.0587 38.804 89.4936 55.5647 89.4936Z" fill="#2C2C2C" stroke="url(#paint20_linear_6821_17170)" stroke-width="0.68171" stroke-linecap="round" stroke-linejoin="round"/>
<path d="M85.8226 95.379V113.588C85.8226 120.291 99.4104 125.727 116.17 125.727C132.931 125.727 146.518 120.291 146.518 113.588V95.379" fill="#2C2C2C"/>
<path d="M85.8226 95.379V113.588C85.8226 120.291 99.4104 125.727 116.17 125.727C132.931 125.727 146.518 120.291 146.518 113.588V95.379" stroke="url(#paint21_linear_6821_17170)" stroke-width="0.68171" stroke-linecap="round" stroke-linejoin="round"/>
<path d="M85.8226 77.7224V95.9284C85.8226 102.632 99.4104 108.068 116.17 108.068C132.931 108.068 146.518 102.635 146.518 95.9284V77.7224" fill="#2C2C2C"/>
<path d="M85.8226 77.7224V95.9284C85.8226 102.632 99.4104 108.068 116.17 108.068C132.931 108.068 146.518 102.635 146.518 95.9284V77.7224" stroke="url(#paint22_linear_6821_17170)" stroke-width="0.68171" stroke-linecap="round" stroke-linejoin="round"/>
<path d="M116.17 89.4935C132.931 89.4935 146.518 84.0586 146.518 77.3544C146.518 70.6501 132.931 65.2152 116.17 65.2152C99.4097 65.2152 85.8225 70.6501 85.8225 77.3544C85.8225 84.0586 99.4097 89.4935 116.17 89.4935Z" fill="#2C2C2C" stroke="url(#paint23_linear_6821_17170)" stroke-width="0.68171" stroke-linecap="round" stroke-linejoin="round"/>
</g>
<path d="M163 70H220" stroke="#528FFF" stroke-width="0.777302" stroke-dasharray="1.55 1.55"/>
<rect width="70" height="124" fill="url(#paint24_linear_6821_17170)"/>
<rect width="70" height="124" transform="matrix(-1 0 0 1 384 0)" fill="url(#paint25_linear_6821_17170)"/>
<rect width="384" height="37" fill="url(#paint26_linear_6821_17170)"/>
<rect width="384" height="37" transform="matrix(1 0 0 -1 0 124)" fill="url(#paint27_linear_6821_17170)"/>
</g>
<defs>
<linearGradient id="paint0_linear_6821_17170" x1="451" y1="173.813" x2="350.19" y2="-28.7891" gradientUnits="userSpaceOnUse">
<stop stop-color="#323232" stop-opacity="0.58"/>
<stop offset="0.958166" stop-color="#161616"/>
</linearGradient>
<linearGradient id="paint1_linear_6821_17170" x1="305.943" y1="155.578" x2="253.502" y2="111.205" gradientUnits="userSpaceOnUse">
<stop stop-color="#C7C7C7"/>
<stop offset="1" stop-color="#CFD4EB" stop-opacity="0"/>
</linearGradient>
<linearGradient id="paint2_linear_6821_17170" x1="304.733" y1="129.358" x2="255.519" y2="86.5978" gradientUnits="userSpaceOnUse">
<stop stop-color="#C6C6C6"/>
<stop offset="1" stop-color="#CFD4EB" stop-opacity="0"/>
</linearGradient>
<linearGradient id="paint3_linear_6821_17170" x1="316.027" y1="103.54" x2="254.712" y2="65.2177" gradientUnits="userSpaceOnUse">
<stop stop-color="#BABABA"/>
<stop offset="1" stop-color="#CFD4EB" stop-opacity="0"/>
</linearGradient>
<linearGradient id="paint4_linear_6821_17170" x1="372.405" y1="155.578" x2="319.963" y2="111.205" gradientUnits="userSpaceOnUse">
<stop stop-color="#C7C7C7"/>
<stop offset="1" stop-color="#CFD4EB" stop-opacity="0"/>
</linearGradient>
<linearGradient id="paint5_linear_6821_17170" x1="371.194" y1="129.358" x2="321.98" y2="86.5978" gradientUnits="userSpaceOnUse">
<stop stop-color="#C6C6C6"/>
<stop offset="1" stop-color="#CFD4EB" stop-opacity="0"/>
</linearGradient>
<linearGradient id="paint6_linear_6821_17170" x1="382.489" y1="103.54" x2="321.173" y2="65.2177" gradientUnits="userSpaceOnUse">
<stop stop-color="#BABABA"/>
<stop offset="1" stop-color="#CFD4EB" stop-opacity="0"/>
</linearGradient>
<linearGradient id="paint7_linear_6821_17170" x1="337.963" y1="153.673" x2="288.749" y2="110.913" gradientUnits="userSpaceOnUse">
<stop stop-color="#C6C6C6"/>
<stop offset="1" stop-color="#CFD4EB" stop-opacity="0"/>
</linearGradient>
<linearGradient id="paint8_linear_6821_17170" x1="349.258" y1="127.856" x2="287.942" y2="89.533" gradientUnits="userSpaceOnUse">
<stop stop-color="#BABABA"/>
<stop offset="1" stop-color="#CFD4EB" stop-opacity="0"/>
</linearGradient>
<linearGradient id="paint9_linear_6821_17170" x1="404.426" y1="153.673" x2="355.211" y2="110.913" gradientUnits="userSpaceOnUse">
<stop stop-color="#A6B5F7"/>
<stop offset="1" stop-color="#CFD4EB" stop-opacity="0"/>
</linearGradient>
<linearGradient id="paint10_linear_6821_17170" x1="415.721" y1="127.856" x2="354.405" y2="89.533" gradientUnits="userSpaceOnUse">
<stop stop-color="#B7C4FF"/>
<stop offset="1" stop-color="#CFD4EB" stop-opacity="0"/>
</linearGradient>
<linearGradient id="paint11_linear_6821_17170" x1="160" y1="139.495" x2="68.0725" y2="-45.257" gradientUnits="userSpaceOnUse">
<stop stop-color="#1C1C1C" stop-opacity="0.58"/>
<stop offset="0.958166" stop-color="#0A0A0A"/>
</linearGradient>
<linearGradient id="paint12_linear_6821_17170" x1="48.252" y1="122.866" x2="0.431123" y2="82.4024" gradientUnits="userSpaceOnUse">
<stop stop-color="#C7C7C7"/>
<stop offset="1" stop-color="#CFD4EB" stop-opacity="0"/>
</linearGradient>
<linearGradient id="paint13_linear_6821_17170" x1="47.1484" y1="98.9561" x2="2.27038" y2="59.9637" gradientUnits="userSpaceOnUse">
<stop stop-color="#C6C6C6"/>
<stop offset="1" stop-color="#CFD4EB" stop-opacity="0"/>
</linearGradient>
<linearGradient id="paint14_linear_6821_17170" x1="57.4482" y1="75.4133" x2="1.53456" y2="40.4673" gradientUnits="userSpaceOnUse">
<stop stop-color="#BABABA"/>
<stop offset="1" stop-color="#CFD4EB" stop-opacity="0"/>
</linearGradient>
<linearGradient id="paint15_linear_6821_17170" x1="108.858" y1="122.866" x2="61.037" y2="82.4024" gradientUnits="userSpaceOnUse">
<stop stop-color="#C7C7C7"/>
<stop offset="1" stop-color="#CFD4EB" stop-opacity="0"/>
</linearGradient>
<linearGradient id="paint16_linear_6821_17170" x1="107.754" y1="98.9561" x2="62.8762" y2="59.9637" gradientUnits="userSpaceOnUse">
<stop stop-color="#C6C6C6"/>
<stop offset="1" stop-color="#CFD4EB" stop-opacity="0"/>
</linearGradient>
<linearGradient id="paint17_linear_6821_17170" x1="118.054" y1="75.4133" x2="62.1408" y2="40.4673" gradientUnits="userSpaceOnUse">
<stop stop-color="#BABABA"/>
<stop offset="1" stop-color="#CFD4EB" stop-opacity="0"/>
</linearGradient>
<linearGradient id="paint18_linear_6821_17170" x1="78.5555" y1="145.039" x2="30.7346" y2="104.575" gradientUnits="userSpaceOnUse">
<stop stop-color="#C7C7C7"/>
<stop offset="1" stop-color="#CFD4EB" stop-opacity="0"/>
</linearGradient>
<linearGradient id="paint19_linear_6821_17170" x1="77.4519" y1="121.129" x2="32.5739" y2="82.1367" gradientUnits="userSpaceOnUse">
<stop stop-color="#C6C6C6"/>
<stop offset="1" stop-color="#CFD4EB" stop-opacity="0"/>
</linearGradient>
<linearGradient id="paint20_linear_6821_17170" x1="87.7518" y1="97.5864" x2="31.8381" y2="62.6404" gradientUnits="userSpaceOnUse">
<stop stop-color="#BABABA"/>
<stop offset="1" stop-color="#CFD4EB" stop-opacity="0"/>
</linearGradient>
<linearGradient id="paint21_linear_6821_17170" x1="139.161" y1="145.039" x2="91.3404" y2="104.575" gradientUnits="userSpaceOnUse">
<stop stop-color="#C7C7C7"/>
<stop offset="1" stop-color="#CFD4EB" stop-opacity="0"/>
</linearGradient>
<linearGradient id="paint22_linear_6821_17170" x1="138.058" y1="121.129" x2="93.1797" y2="82.1367" gradientUnits="userSpaceOnUse">
<stop stop-color="#C6C6C6"/>
<stop offset="1" stop-color="#CFD4EB" stop-opacity="0"/>
</linearGradient>
<linearGradient id="paint23_linear_6821_17170" x1="148.358" y1="97.5863" x2="92.4439" y2="62.6402" gradientUnits="userSpaceOnUse">
<stop stop-color="#BABABA"/>
<stop offset="1" stop-color="#CFD4EB" stop-opacity="0"/>
</linearGradient>
<linearGradient id="paint24_linear_6821_17170" x1="1.04308e-06" y1="62" x2="70" y2="62" gradientUnits="userSpaceOnUse">
<stop stop-color="#0F0F0F"/>
<stop offset="1" stop-color="#0F0F0F" stop-opacity="0"/>
</linearGradient>
<linearGradient id="paint25_linear_6821_17170" x1="1.04308e-06" y1="62" x2="70" y2="62" gradientUnits="userSpaceOnUse">
<stop stop-color="#0F0F0F"/>
<stop offset="1" stop-color="#0F0F0F" stop-opacity="0"/>
</linearGradient>
<linearGradient id="paint26_linear_6821_17170" x1="192" y1="0" x2="192" y2="37" gradientUnits="userSpaceOnUse">
<stop stop-color="#0F0F0F"/>
<stop offset="1" stop-color="#0F0F0F" stop-opacity="0"/>
</linearGradient>
<linearGradient id="paint27_linear_6821_17170" x1="192" y1="0" x2="192" y2="37" gradientUnits="userSpaceOnUse">
<stop stop-color="#0F0F0F"/>
<stop offset="1" stop-color="#0F0F0F" stop-opacity="0"/>
</linearGradient>
<clipPath id="clip0_6821_17170">
<rect width="384" height="124" rx="12" fill="white"/>
</clipPath>
<clipPath id="clip1_6821_17170">
<rect width="227" height="139.813" fill="white" transform="translate(224 34)"/>
</clipPath>
<clipPath id="clip2_6821_17170">
<rect width="9" height="9" fill="white" transform="translate(244 44)"/>
</clipPath>
<clipPath id="clip3_6821_17170">
<rect width="207" height="127.495" fill="white" transform="translate(-47 12)"/>
</clipPath>
</defs>
</svg>
