<svg width="384" height="124" viewBox="0 0 384 124" fill="none" xmlns="http://www.w3.org/2000/svg">
<g clip-path="url(#clip0_2165_32404)">
<rect width="384" height="124" rx="12" fill="#F8F9FC"/>
<path d="M238 40H292C293.657 40 295 41.3431 295 43V63" stroke="#1672EB" stroke-width="0.777302" stroke-dasharray="1.55 1.55"/>
<g filter="url(#filter0_ddd_2165_32404)">
<g clip-path="url(#clip1_2165_32404)">
<rect x="28" y="15" width="209.711" height="150.88" rx="7.45639" fill="white"/>
<g filter="url(#filter1_di_2165_32404)">
<path d="M28 21.1821C28 17.7678 30.7678 15 34.1821 15H231.529C234.943 15 237.711 17.7678 237.711 21.1821V32.3098H28V21.1821Z" fill="white"/>
<g filter="url(#filter2_i_2165_32404)">
<path fill-rule="evenodd" clip-rule="evenodd" d="M44.6917 27.3641C46.7402 27.3641 48.4009 25.7035 48.4009 23.6549C48.4009 21.6064 46.7402 19.9457 44.6917 19.9457C42.6431 19.9457 40.9824 21.6064 40.9824 23.6549C40.9824 25.7035 42.6431 27.3641 44.6917 27.3641Z" fill="#EE6A5F"/>
</g>
<path d="M48.2463 23.6549C48.2463 25.6181 46.6549 27.2096 44.6917 27.2096C42.7285 27.2096 41.137 25.6181 41.137 23.6549C41.137 21.6917 42.7285 20.1002 44.6917 20.1002C46.6549 20.1002 48.2463 21.6917 48.2463 23.6549Z" stroke="#CE5347" stroke-width="0.309103"/>
<g filter="url(#filter3_i_2165_32404)">
<path fill-rule="evenodd" clip-rule="evenodd" d="M57.0559 27.3641C59.1045 27.3641 60.7651 25.7035 60.7651 23.6549C60.7651 21.6064 59.1045 19.9457 57.0559 19.9457C55.0074 19.9457 53.3467 21.6064 53.3467 23.6549C53.3467 25.7035 55.0074 27.3641 57.0559 27.3641Z" fill="#F5BD4F"/>
</g>
<path d="M60.6106 23.6549C60.6106 25.6181 59.0191 27.2096 57.0559 27.2096C55.0927 27.2096 53.5012 25.6181 53.5012 23.6549C53.5012 21.6917 55.0927 20.1002 57.0559 20.1002C59.0191 20.1002 60.6106 21.6917 60.6106 23.6549Z" stroke="#D6A243" stroke-width="0.309103"/>
<g filter="url(#filter4_i_2165_32404)">
<path fill-rule="evenodd" clip-rule="evenodd" d="M69.4202 27.3641C71.4687 27.3641 73.1294 25.7035 73.1294 23.6549C73.1294 21.6064 71.4687 19.9457 69.4202 19.9457C67.3716 19.9457 65.7109 21.6064 65.7109 23.6549C65.7109 25.7035 67.3716 27.3641 69.4202 27.3641Z" fill="#61C454"/>
</g>
<path d="M72.9749 23.6549C72.9749 25.6181 71.3834 27.2096 69.4202 27.2096C67.457 27.2096 65.8655 25.6181 65.8655 23.6549C65.8655 21.6917 67.457 20.1002 69.4202 20.1002C71.3834 20.1002 72.9749 21.6917 72.9749 23.6549Z" stroke="#58A942" stroke-width="0.309103"/>
<path d="M123.734 26.6863C122.863 26.6863 122.498 26.3645 122.498 25.5561V22.9897H121.831V22.4247H122.498V21.3298H123.205V22.4247H124.131V22.9897H123.205V25.3835C123.205 25.8818 123.377 26.082 123.817 26.082C123.938 26.082 124.005 26.0781 124.131 26.0663V26.6471C123.997 26.6706 123.868 26.6863 123.734 26.6863ZM126.783 26.7295C125.574 26.7295 124.844 25.8818 124.844 24.5555V24.5516C124.844 23.2448 125.59 22.3501 126.74 22.3501C127.889 22.3501 128.588 23.2056 128.588 24.4692V24.736H125.543C125.562 25.6111 126.045 26.1212 126.798 26.1212C127.371 26.1212 127.724 25.8505 127.838 25.5954L127.854 25.5601H128.537L128.529 25.5915C128.384 26.1644 127.779 26.7295 126.783 26.7295ZM126.736 22.9584C126.108 22.9584 125.629 23.3861 125.554 24.1905H127.893C127.823 23.3547 127.36 22.9584 126.736 22.9584ZM129.615 26.6549V22.4247H130.298V23.0525H130.361C130.522 22.6091 130.918 22.3501 131.491 22.3501C131.62 22.3501 131.766 22.3658 131.832 22.3776V23.0408C131.691 23.0172 131.562 23.0015 131.412 23.0015C130.761 23.0015 130.298 23.4136 130.298 24.0336V26.6549H129.615ZM132.722 26.6549V22.4247H133.405V23.0682H133.468C133.656 22.613 134.057 22.3501 134.61 22.3501C135.183 22.3501 135.583 22.6523 135.779 23.0918H135.842C136.07 22.6444 136.552 22.3501 137.137 22.3501C138 22.3501 138.483 22.8446 138.483 23.7314V26.6549H137.8V23.8884C137.8 23.2644 137.514 22.9544 136.917 22.9544C136.329 22.9544 135.94 23.3979 135.94 23.9355V26.6549H135.257V23.7824C135.257 23.2801 134.912 22.9544 134.378 22.9544C133.825 22.9544 133.405 23.4371 133.405 24.0336V26.6549H132.722ZM140.044 21.6084C139.785 21.6084 139.573 21.3965 139.573 21.1375C139.573 20.8785 139.785 20.6666 140.044 20.6666C140.303 20.6666 140.515 20.8785 140.515 21.1375C140.515 21.3965 140.303 21.6084 140.044 21.6084ZM139.699 26.6549V22.4247H140.382V26.6549H139.699ZM141.637 26.6549V22.4247H142.319V23.0604H142.382C142.594 22.613 142.99 22.3501 143.614 22.3501C144.564 22.3501 145.094 22.9113 145.094 23.9158V26.6549H144.411V24.0807C144.411 23.3194 144.097 22.9544 143.422 22.9544C142.747 22.9544 142.319 23.4096 142.319 24.1513V26.6549H141.637ZM147.459 26.7295C146.655 26.7295 146.047 26.2429 146.047 25.4737V25.4659C146.047 24.7124 146.604 24.2769 147.589 24.218L148.801 24.1434V23.7589C148.801 23.237 148.483 22.9544 147.852 22.9544C147.345 22.9544 147.012 23.1428 146.902 23.4724L146.898 23.4842H146.215L146.219 23.4606C146.329 22.7975 146.973 22.3501 147.875 22.3501C148.907 22.3501 149.484 22.8799 149.484 23.7589V26.6549H148.801V26.031H148.738C148.472 26.4822 148.028 26.7295 147.459 26.7295ZM146.745 25.458C146.745 25.8858 147.11 26.1369 147.6 26.1369C148.295 26.1369 148.801 25.6817 148.801 25.0774V24.6928L147.671 24.7635C147.028 24.8027 146.745 25.0303 146.745 25.4502V25.458ZM150.739 26.6549V20.7451H151.422V26.6549H150.739ZM161.228 23.3679V23.9144H155.386V23.3679H161.228ZM165.102 24.6928V24.0571H167.739V24.6928H165.102ZM168.743 26.6549V26.1605L171.184 23.0525V22.9897H168.747V22.4247H171.989V22.9309L169.559 26.027V26.0898H172V26.6549H168.743ZM174.593 26.7295C173.652 26.7295 173.004 26.2743 172.926 25.5758H173.624C173.738 25.9289 174.075 26.1605 174.617 26.1605C175.186 26.1605 175.59 25.8897 175.59 25.5051V25.4973C175.59 25.2108 175.374 25.0107 174.852 24.8851L174.197 24.7281C173.404 24.5398 173.047 24.1945 173.047 23.5862V23.5823C173.047 22.8799 173.722 22.3501 174.621 22.3501C175.508 22.3501 176.124 22.7935 176.218 23.4842H175.547C175.457 23.1506 175.127 22.9191 174.617 22.9191C174.115 22.9191 173.746 23.1781 173.746 23.5509V23.5587C173.746 23.8452 173.958 24.0257 174.456 24.1474L175.107 24.3043C175.904 24.4966 176.289 24.8419 176.289 25.4463V25.4541C176.289 26.2076 175.555 26.7295 174.593 26.7295ZM177.355 26.6549V20.7451H178.038V23.0604H178.101C178.313 22.613 178.709 22.3501 179.333 22.3501C180.283 22.3501 180.812 22.9113 180.812 23.9158V26.6549H180.13V24.0807C180.13 23.3194 179.816 22.9544 179.141 22.9544C178.466 22.9544 178.038 23.4096 178.038 24.1513V26.6549H177.355ZM188.316 23.3679V23.9144H182.474V23.3679H188.316Z" fill="#333333"/>
</g>
<g clip-path="url(#clip2_2165_32404)">
<path d="M37.8362 50.8527C36.8942 50.8527 36.2661 50.2611 36.2661 49.3645C36.2661 48.4907 36.8942 47.9719 38.0183 47.9127L39.3745 47.8445V47.3985C39.3745 46.7795 38.9967 46.4382 38.3095 46.4382C37.7407 46.4382 37.3402 46.6794 37.2127 47.1027H36.4527C36.5437 46.3108 37.3083 45.7692 38.3186 45.7692C39.4792 45.7692 40.1436 46.3608 40.1436 47.3894V50.7708H39.4063V50.029H39.329C39.0923 50.5569 38.5553 50.8527 37.8362 50.8527ZM38.0592 50.1746C38.8056 50.1746 39.3745 49.6785 39.3745 49.0186V48.4361L38.1047 48.4953C37.413 48.5271 37.0489 48.823 37.0489 49.3372C37.0489 49.856 37.4357 50.1746 38.0592 50.1746ZM44.4079 45.7465C45.5502 45.7465 46.2966 46.5702 46.2966 47.8399V48.7592C46.2966 50.0244 45.5502 50.8482 44.4079 50.8482C43.6934 50.8482 43.17 50.5432 42.9561 50.0017H42.8697V52.4319H42.0823V45.8284H42.8469V46.5838H42.9288C43.1882 46.0377 43.7025 45.7465 44.4079 45.7465ZM44.1849 46.4564C43.3703 46.4564 42.8515 47.039 42.8515 47.9492V48.6591C42.8515 49.5739 43.3703 50.1564 44.1849 50.1564C44.9995 50.1564 45.5184 49.5693 45.5184 48.6591V47.9492C45.5184 47.039 44.9995 46.4564 44.1849 46.4564ZM49.9465 44.6178C49.5824 44.6178 49.3048 44.3447 49.3048 43.9807C49.3048 43.6211 49.5824 43.3481 49.9465 43.3481C50.3106 43.3481 50.5882 43.6211 50.5882 43.9807C50.5882 44.3447 50.3106 44.6178 49.9465 44.6178ZM52.0172 50.7662H47.9258V50.1245H49.6188V46.4701H47.9395V45.8284H50.3834V50.1245H52.0172V50.7662ZM54.8935 50.7662V46.5019H53.5691V45.842H54.8935V45.346C54.8935 44.3903 55.4851 43.9443 56.7002 43.9443C56.9869 43.9443 57.6741 43.967 57.838 43.9898V44.6224C57.6241 44.5996 56.9869 44.5814 56.7093 44.5814C56.0221 44.5814 55.658 44.8363 55.658 45.3323V45.842H57.838V46.5019H55.6671V50.7662H54.8935ZM59.9997 52.5229C59.8859 52.5229 59.7357 52.5184 59.6675 52.5093V51.8312C59.7266 51.8448 59.8677 51.8494 59.9405 51.8494C60.4047 51.8494 60.6596 51.64 60.8644 51.0666L60.9509 50.7981L59.135 45.8284H59.9769L61.3605 49.9607H61.4196L62.7986 45.8284H63.6223L61.7609 50.9483C61.3286 52.1634 60.9145 52.5229 59.9997 52.5229ZM73.2159 45.7465C74.3582 45.7465 75.1045 46.5702 75.1045 47.8399V48.7592C75.1045 50.0244 74.3582 50.8482 73.2159 50.8482C72.5013 50.8482 71.978 50.5432 71.7641 50.0017H71.6776V52.4319H70.8903V45.8284H71.6549V46.5838H71.7368C71.9962 46.0377 72.5104 45.7465 73.2159 45.7465ZM72.9929 46.4564C72.1782 46.4564 71.6594 47.039 71.6594 47.9492V48.6591C71.6594 49.5739 72.1782 50.1564 72.9929 50.1564C73.8075 50.1564 74.3263 49.5693 74.3263 48.6591V47.9492C74.3263 47.039 73.8075 46.4564 72.9929 46.4564ZM80.6886 45.8284V50.7662H79.9468V49.897H79.8831C79.6191 50.5114 79.0548 50.8573 78.3039 50.8573C77.2299 50.8573 76.6473 50.2156 76.6473 49.0323V45.8284H77.421V48.8366C77.421 49.7286 77.7851 50.1473 78.5542 50.1473C79.3688 50.1473 79.915 49.5784 79.915 48.7365V45.8284H80.6886ZM82.6319 47.1618C82.6319 46.3062 83.3601 45.7328 84.4478 45.7328C85.4763 45.7328 86.1726 46.2471 86.2636 47.0708H85.5173C85.4262 46.6385 85.0121 46.3745 84.4341 46.3745C83.8061 46.3745 83.401 46.6658 83.401 47.1163C83.401 47.4941 83.6559 47.708 84.2748 47.8445L84.9711 48.0038C85.9314 48.2222 86.3683 48.6409 86.3683 49.3554C86.3683 50.2656 85.6083 50.8573 84.4387 50.8573C83.3191 50.8573 82.5773 50.3339 82.4908 49.4874H83.2782C83.3919 49.9425 83.8288 50.2065 84.466 50.2065C85.1395 50.2065 85.5673 49.9015 85.5673 49.4282C85.5673 49.0368 85.3261 48.8275 84.6981 48.6864L83.9654 48.518C83.0734 48.3132 82.6319 47.8627 82.6319 47.1618ZM88.1659 50.7662V43.8896H88.9123V46.7022H88.976C89.2354 46.0878 89.8043 45.7419 90.5598 45.7419C91.6338 45.7419 92.2164 46.3882 92.2164 47.5669V50.7662H91.4427V47.7626C91.4427 46.8751 91.0786 46.4519 90.3049 46.4519C89.4903 46.4519 88.9396 47.0207 88.9396 47.8627V50.7662H88.1659Z" fill="#242836"/>
</g>
</g>
</g>
<rect x="157.737" y="55.2433" width="235.019" height="144.565" rx="3.64936" fill="white" stroke="url(#paint0_linear_2165_32404)" stroke-width="0.486582"/>
<rect x="198.698" y="67.1929" width="185.835" height="6.72704" rx="3.36352" fill="#F3F3F3"/>
<path d="M173.277 65.805C172.825 65.8681 172.415 66.1092 172.139 66.4753C171.863 66.8415 171.744 67.3027 171.806 67.7576L172.826 75.0723L177.117 65.2671L173.277 65.805Z" fill="#97D700"/>
<path d="M183.629 71.8997L183.228 66.2763C183.195 65.8189 182.982 65.3936 182.637 65.0934C182.292 64.7932 181.842 64.6425 181.387 64.6742C181.348 64.6757 181.31 64.6799 181.272 64.6868L179.616 64.9166L183.254 73.108C183.526 72.7674 183.661 72.3357 183.629 71.8997Z" fill="#71C5E8"/>
<path d="M174.391 76.8519C174.684 76.8853 174.982 76.8419 175.254 76.7258L181.499 74.0785L178.527 67.39L174.391 76.8519Z" fill="#FF9013"/>
<rect x="165.279" y="88.0875" width="33.0876" height="3.89265" rx="1.94633" fill="#F3F3F3"/>
<rect x="165.279" y="98.7924" width="33.0876" height="3.89265" rx="1.94633" fill="#F3F3F3"/>
<rect x="217.83" y="101.712" width="175.169" height="138.189" rx="7.78531" fill="#F3F3F3"/>
<rect x="165.279" y="109.497" width="33.0876" height="3.89265" rx="1.94633" fill="#F3F3F3"/>
<rect x="165.279" y="120.202" width="33.0876" height="3.89265" rx="1.94633" fill="#F3F3F3"/>
<path d="M218.6 94.2218V89.0994H219.427V89.8787H219.503C219.731 89.3275 220.215 89.0091 220.885 89.0091C221.579 89.0091 222.064 89.375 222.301 89.9072H222.378C222.653 89.3655 223.238 89.0091 223.946 89.0091C224.991 89.0091 225.575 89.6078 225.575 90.6817V94.2218H224.749V90.8718C224.749 90.1163 224.402 89.7409 223.68 89.7409C222.967 89.7409 222.496 90.2778 222.496 90.9288V94.2218H221.67V90.7435C221.67 90.1353 221.251 89.7409 220.605 89.7409C219.935 89.7409 219.427 90.3253 219.427 91.0476V94.2218H218.6ZM227.315 96.018C227.205 96.018 227.063 96.0085 226.949 95.9895V95.31C227.049 95.329 227.177 95.3337 227.291 95.3337C227.761 95.3337 228.046 95.1199 228.232 94.5307L228.327 94.2266L226.431 89.0994H227.315L228.721 93.3142H228.797L230.199 89.0994H231.069L229.068 94.5354C228.645 95.6853 228.222 96.018 227.315 96.018ZM231.995 91.8459V91.0761H235.188V91.8459H231.995ZM238.752 94.3121C237.317 94.3121 236.4 93.2714 236.4 91.6463V91.6368C236.4 90.045 237.312 89.0091 238.747 89.0091C239.992 89.0091 240.738 89.7266 240.89 90.639L240.895 90.6675H240.073L240.068 90.6532C239.94 90.1495 239.484 89.7409 238.747 89.7409C237.826 89.7409 237.246 90.4822 237.246 91.6368V91.6463C237.246 92.8248 237.835 93.5803 238.747 93.5803C239.436 93.5803 239.874 93.2762 240.064 92.706L240.073 92.6775L240.89 92.6727L240.881 92.725C240.672 93.6516 239.983 94.3121 238.752 94.3121ZM242.102 94.2218V89.0994H242.929V89.8597H243.005C243.2 89.3227 243.68 89.0091 244.373 89.0091C244.53 89.0091 244.706 89.0281 244.787 89.0424V89.8454C244.616 89.8169 244.459 89.7979 244.278 89.7979C243.49 89.7979 242.929 90.2968 242.929 91.0476V94.2218H242.102ZM247.215 94.3121C246.241 94.3121 245.504 93.7229 245.504 92.7915V92.782C245.504 91.8697 246.179 91.3422 247.372 91.2709L248.84 91.1807V90.715C248.84 90.083 248.455 89.7409 247.69 89.7409C247.077 89.7409 246.673 89.969 246.54 90.3681L246.536 90.3824H245.709L245.713 90.3539C245.847 89.5508 246.626 89.0091 247.719 89.0091C248.968 89.0091 249.667 89.6506 249.667 90.715V94.2218H248.84V93.4663H248.764C248.441 94.0127 247.904 94.3121 247.215 94.3121ZM246.35 92.7725C246.35 93.2905 246.792 93.5946 247.386 93.5946C248.227 93.5946 248.84 93.0434 248.84 92.3116V91.8459L247.472 91.9314C246.692 91.979 246.35 92.2546 246.35 92.763V92.7725ZM251.929 94.2218L250.494 89.0994H251.321L252.328 93.1954H252.404L253.549 89.0994H254.333L255.478 93.1954H255.554L256.562 89.0994H257.384L255.949 94.2218H255.117L253.972 90.2588H253.896L252.756 94.2218H251.929ZM258.524 94.2218V87.0656H259.351V94.2218H258.524ZM263.029 94.3121C261.565 94.3121 260.682 93.2857 260.682 91.6796V91.6748C260.682 90.0925 261.584 89.0091 262.977 89.0091C264.369 89.0091 265.215 90.045 265.215 91.5751V91.8982H261.527C261.551 92.9578 262.136 93.5756 263.048 93.5756C263.742 93.5756 264.169 93.2477 264.307 92.9388L264.326 92.8961H265.153L265.144 92.9341C264.968 93.6278 264.236 94.3121 263.029 94.3121ZM262.972 89.7456C262.212 89.7456 261.632 90.2636 261.542 91.2377H264.374C264.288 90.2256 263.727 89.7456 262.972 89.7456ZM266.498 94.2218V89.0994H267.325V89.8597H267.401C267.595 89.3227 268.075 89.0091 268.769 89.0091C268.926 89.0091 269.102 89.0281 269.183 89.0424V89.8454C269.011 89.8169 268.855 89.7979 268.674 89.7979C267.885 89.7979 267.325 90.2968 267.325 91.0476V94.2218H266.498Z" fill="#898989"/>
<rect width="70" height="124" fill="url(#paint1_linear_2165_32404)"/>
<rect width="70" height="124" transform="matrix(-1 0 0 1 384 0)" fill="url(#paint2_linear_2165_32404)"/>
<rect width="384" height="37" fill="url(#paint3_linear_2165_32404)"/>
<rect width="384" height="37" transform="matrix(1 0 0 -1 0 124)" fill="url(#paint4_linear_2165_32404)"/>
</g>
<defs>
<filter id="filter0_ddd_2165_32404" x="23.0544" y="12.5272" width="219.602" height="160.771" filterUnits="userSpaceOnUse" color-interpolation-filters="sRGB">
<feFlood flood-opacity="0" result="BackgroundImageFix"/>
<feColorMatrix in="SourceAlpha" type="matrix" values="0 0 0 0 0 0 0 0 0 0 0 0 0 0 0 0 0 0 127 0" result="hardAlpha"/>
<feOffset/>
<feGaussianBlur stdDeviation="0.309103"/>
<feColorMatrix type="matrix" values="0 0 0 0 0.141176 0 0 0 0 0.152941 0 0 0 0 0.211765 0 0 0 0.24 0"/>
<feBlend mode="normal" in2="BackgroundImageFix" result="effect1_dropShadow_2165_32404"/>
<feColorMatrix in="SourceAlpha" type="matrix" values="0 0 0 0 0 0 0 0 0 0 0 0 0 0 0 0 0 0 127 0" result="hardAlpha"/>
<feOffset dy="1.23641"/>
<feGaussianBlur stdDeviation="1.23641"/>
<feColorMatrix type="matrix" values="0 0 0 0 0.141176 0 0 0 0 0.152941 0 0 0 0 0.211765 0 0 0 0.08 0"/>
<feBlend mode="normal" in2="effect1_dropShadow_2165_32404" result="effect2_dropShadow_2165_32404"/>
<feColorMatrix in="SourceAlpha" type="matrix" values="0 0 0 0 0 0 0 0 0 0 0 0 0 0 0 0 0 0 127 0" result="hardAlpha"/>
<feOffset dy="2.47282"/>
<feGaussianBlur stdDeviation="2.47282"/>
<feColorMatrix type="matrix" values="0 0 0 0 0.141176 0 0 0 0 0.152941 0 0 0 0 0.211765 0 0 0 0.12 0"/>
<feBlend mode="normal" in2="effect2_dropShadow_2165_32404" result="effect3_dropShadow_2165_32404"/>
<feBlend mode="normal" in="SourceGraphic" in2="effect3_dropShadow_2165_32404" result="shape"/>
</filter>
<filter id="filter1_di_2165_32404" x="28" y="15" width="209.711" height="17.6189" filterUnits="userSpaceOnUse" color-interpolation-filters="sRGB">
<feFlood flood-opacity="0" result="BackgroundImageFix"/>
<feColorMatrix in="SourceAlpha" type="matrix" values="0 0 0 0 0 0 0 0 0 0 0 0 0 0 0 0 0 0 127 0" result="hardAlpha"/>
<feOffset dy="0.309103"/>
<feColorMatrix type="matrix" values="0 0 0 0 0 0 0 0 0 0 0 0 0 0 0 0 0 0 0.15 0"/>
<feBlend mode="normal" in2="BackgroundImageFix" result="effect1_dropShadow_2165_32404"/>
<feBlend mode="normal" in="SourceGraphic" in2="effect1_dropShadow_2165_32404" result="shape"/>
<feColorMatrix in="SourceAlpha" type="matrix" values="0 0 0 0 0 0 0 0 0 0 0 0 0 0 0 0 0 0 127 0" result="hardAlpha"/>
<feOffset dy="-0.309103"/>
<feComposite in2="hardAlpha" operator="arithmetic" k2="-1" k3="1"/>
<feColorMatrix type="matrix" values="0 0 0 0 0 0 0 0 0 0 0 0 0 0 0 0 0 0 0.05 0"/>
<feBlend mode="normal" in2="shape" result="effect2_innerShadow_2165_32404"/>
</filter>
<filter id="filter2_i_2165_32404" x="40.9824" y="19.9457" width="7.41895" height="7.41846" filterUnits="userSpaceOnUse" color-interpolation-filters="sRGB">
<feFlood flood-opacity="0" result="BackgroundImageFix"/>
<feBlend mode="normal" in="SourceGraphic" in2="BackgroundImageFix" result="shape"/>
<feColorMatrix in="SourceAlpha" type="matrix" values="0 0 0 0 0 0 0 0 0 0 0 0 0 0 0 0 0 0 127 0" result="hardAlpha"/>
<feOffset/>
<feGaussianBlur stdDeviation="1.85462"/>
<feComposite in2="hardAlpha" operator="arithmetic" k2="-1" k3="1"/>
<feColorMatrix type="matrix" values="0 0 0 0 0.92549 0 0 0 0 0.427451 0 0 0 0 0.384314 0 0 0 1 0"/>
<feBlend mode="normal" in2="shape" result="effect1_innerShadow_2165_32404"/>
</filter>
<filter id="filter3_i_2165_32404" x="53.3467" y="19.9457" width="7.41895" height="7.41846" filterUnits="userSpaceOnUse" color-interpolation-filters="sRGB">
<feFlood flood-opacity="0" result="BackgroundImageFix"/>
<feBlend mode="normal" in="SourceGraphic" in2="BackgroundImageFix" result="shape"/>
<feColorMatrix in="SourceAlpha" type="matrix" values="0 0 0 0 0 0 0 0 0 0 0 0 0 0 0 0 0 0 127 0" result="hardAlpha"/>
<feOffset/>
<feGaussianBlur stdDeviation="1.85462"/>
<feComposite in2="hardAlpha" operator="arithmetic" k2="-1" k3="1"/>
<feColorMatrix type="matrix" values="0 0 0 0 0.960784 0 0 0 0 0.768627 0 0 0 0 0.317647 0 0 0 1 0"/>
<feBlend mode="normal" in2="shape" result="effect1_innerShadow_2165_32404"/>
</filter>
<filter id="filter4_i_2165_32404" x="65.7109" y="19.9457" width="7.41895" height="7.41846" filterUnits="userSpaceOnUse" color-interpolation-filters="sRGB">
<feFlood flood-opacity="0" result="BackgroundImageFix"/>
<feBlend mode="normal" in="SourceGraphic" in2="BackgroundImageFix" result="shape"/>
<feColorMatrix in="SourceAlpha" type="matrix" values="0 0 0 0 0 0 0 0 0 0 0 0 0 0 0 0 0 0 127 0" result="hardAlpha"/>
<feOffset/>
<feGaussianBlur stdDeviation="1.85462"/>
<feComposite in2="hardAlpha" operator="arithmetic" k2="-1" k3="1"/>
<feColorMatrix type="matrix" values="0 0 0 0 0.407843 0 0 0 0 0.8 0 0 0 0 0.345098 0 0 0 1 0"/>
<feBlend mode="normal" in2="shape" result="effect1_innerShadow_2165_32404"/>
</filter>
<linearGradient id="paint0_linear_2165_32404" x1="393" y1="200.052" x2="288.413" y2="-10.1417" gradientUnits="userSpaceOnUse">
<stop stop-color="#D7D7D7" stop-opacity="0.58"/>
<stop offset="0.958166" stop-color="#F5F5F5"/>
</linearGradient>
<linearGradient id="paint1_linear_2165_32404" x1="1.04308e-06" y1="62" x2="70" y2="62" gradientUnits="userSpaceOnUse">
<stop stop-color="#F3F4FA"/>
<stop offset="1" stop-color="#F3F4FA" stop-opacity="0"/>
</linearGradient>
<linearGradient id="paint2_linear_2165_32404" x1="1.04308e-06" y1="62" x2="70" y2="62" gradientUnits="userSpaceOnUse">
<stop stop-color="#F3F4FA"/>
<stop offset="1" stop-color="#F3F4FA" stop-opacity="0"/>
</linearGradient>
<linearGradient id="paint3_linear_2165_32404" x1="192" y1="0" x2="192" y2="37" gradientUnits="userSpaceOnUse">
<stop stop-color="#F3F4FA"/>
<stop offset="1" stop-color="#F3F4FA" stop-opacity="0"/>
</linearGradient>
<linearGradient id="paint4_linear_2165_32404" x1="192" y1="0" x2="192" y2="37" gradientUnits="userSpaceOnUse">
<stop stop-color="#F3F4FA"/>
<stop offset="1" stop-color="#F3F4FA" stop-opacity="0"/>
</linearGradient>
<clipPath id="clip0_2165_32404">
<rect width="384" height="124" rx="12" fill="white"/>
</clipPath>
<clipPath id="clip1_2165_32404">
<rect x="28" y="15" width="209.711" height="150.88" rx="7.45639" fill="white"/>
</clipPath>
<clipPath id="clip2_2165_32404">
<rect x="28" y="32.3098" width="209.711" height="133.57" rx="2.47282" fill="white"/>
</clipPath>
</defs>
</svg>
