<svg width="384" height="124" viewBox="0 0 384 124" fill="none" xmlns="http://www.w3.org/2000/svg">
<g clip-path="url(#clip0_2165_34594)">
<rect width="384" height="124" rx="12" fill="#252832"/>
<g filter="url(#filter0_ddd_2165_34594)">
<g clip-path="url(#clip1_2165_34594)">
<rect x="28.9492" y="15" width="218.05" height="156.88" rx="7.7529" fill="black"/>
<g filter="url(#filter1_di_2165_34594)">
<path d="M28.9492 21.4279C28.9492 17.8779 31.8271 15 35.3771 15H240.572C244.122 15 247 17.8779 247 21.4279V32.9981H28.9492V21.4279Z" fill="#131313"/>
<g filter="url(#filter2_i_2165_34594)">
<path fill-rule="evenodd" clip-rule="evenodd" d="M46.305 27.8558C48.435 27.8558 50.1617 26.1291 50.1617 23.9991C50.1617 21.8691 48.435 20.1423 46.305 20.1423C44.175 20.1423 42.4482 21.8691 42.4482 23.9991C42.4482 26.1291 44.175 27.8558 46.305 27.8558Z" fill="#EE6A5F"/>
</g>
<path d="M50.001 23.9991C50.001 26.0403 48.3462 27.6951 46.305 27.6951C44.2637 27.6951 42.6089 26.0403 42.6089 23.9991C42.6089 21.9578 44.2637 20.303 46.305 20.303C48.3462 20.303 50.001 21.9578 50.001 23.9991Z" stroke="#CE5347" stroke-width="0.321395"/>
<g filter="url(#filter3_i_2165_34594)">
<path fill-rule="evenodd" clip-rule="evenodd" d="M59.1604 27.8558C61.2905 27.8558 63.0172 26.1291 63.0172 23.9991C63.0172 21.8691 61.2905 20.1423 59.1604 20.1423C57.0304 20.1423 55.3037 21.8691 55.3037 23.9991C55.3037 26.1291 57.0304 27.8558 59.1604 27.8558Z" fill="#F5BD4F"/>
</g>
<path d="M62.8565 23.9991C62.8565 26.0403 61.2017 27.6951 59.1604 27.6951C57.1192 27.6951 55.4644 26.0403 55.4644 23.9991C55.4644 21.9578 57.1192 20.303 59.1604 20.303C61.2017 20.303 62.8565 21.9578 62.8565 23.9991Z" stroke="#D6A243" stroke-width="0.321395"/>
<g filter="url(#filter4_i_2165_34594)">
<path fill-rule="evenodd" clip-rule="evenodd" d="M72.0169 27.8558C74.1469 27.8558 75.8736 26.1291 75.8736 23.9991C75.8736 21.8691 74.1469 20.1423 72.0169 20.1423C69.8869 20.1423 68.1602 21.8691 68.1602 23.9991C68.1602 26.1291 69.8869 27.8558 72.0169 27.8558Z" fill="#61C454"/>
</g>
<path d="M75.7129 23.9991C75.7129 26.0403 74.0582 27.6951 72.0169 27.6951C69.9756 27.6951 68.3209 26.0403 68.3209 23.9991C68.3209 21.9578 69.9756 20.303 72.0169 20.303C74.0582 20.303 75.7129 21.9578 75.7129 23.9991Z" stroke="#58A942" stroke-width="0.321395"/>
<path d="M128.49 27.0317C127.585 27.0317 127.205 26.6971 127.205 25.8566V23.1881H126.511V22.6006H127.205V21.4622H127.939V22.6006H128.902V23.1881H127.939V25.677C127.939 26.1952 128.119 26.4033 128.576 26.4033C128.702 26.4033 128.772 26.3992 128.902 26.387V26.9909C128.764 27.0153 128.629 27.0317 128.49 27.0317ZM131.66 27.0765C130.403 27.0765 129.644 26.1952 129.644 24.8161V24.812C129.644 23.4533 130.419 22.523 131.615 22.523C132.81 22.523 133.537 23.4125 133.537 24.7263V25.0038H130.371C130.391 25.9137 130.893 26.4441 131.676 26.4441C132.272 26.4441 132.639 26.1626 132.757 25.8974L132.774 25.8606H133.484L133.476 25.8933C133.325 26.489 132.696 27.0765 131.66 27.0765ZM131.611 23.1555C130.958 23.1555 130.46 23.6002 130.383 24.4367H132.815C132.741 23.5676 132.26 23.1555 131.611 23.1555ZM134.605 26.999V22.6006H135.315V23.2534H135.38C135.548 22.7923 135.96 22.523 136.555 22.523C136.69 22.523 136.841 22.5394 136.91 22.5516V23.2412C136.763 23.2167 136.629 23.2004 136.474 23.2004C135.796 23.2004 135.315 23.6288 135.315 24.2734V26.999H134.605ZM137.836 26.999V22.6006H138.546V23.2697H138.611C138.807 22.7964 139.223 22.523 139.798 22.523C140.394 22.523 140.81 22.8372 141.014 23.2942H141.079C141.316 22.8291 141.818 22.523 142.426 22.523C143.324 22.523 143.825 23.0371 143.825 23.9593V26.999H143.116V24.1225C143.116 23.4737 142.818 23.1514 142.197 23.1514C141.585 23.1514 141.181 23.6125 141.181 24.1714V26.999H140.472V24.0123C140.472 23.49 140.112 23.1514 139.558 23.1514C138.982 23.1514 138.546 23.6533 138.546 24.2734V26.999H137.836ZM145.449 21.7519C145.179 21.7519 144.959 21.5315 144.959 21.2623C144.959 20.993 145.179 20.7726 145.449 20.7726C145.718 20.7726 145.938 20.993 145.938 21.2623C145.938 21.5315 145.718 21.7519 145.449 21.7519ZM145.09 26.999V22.6006H145.799V26.999H145.09ZM147.104 26.999V22.6006H147.814V23.2616H147.88C148.1 22.7964 148.512 22.523 149.161 22.523C150.148 22.523 150.699 23.1065 150.699 24.151V26.999H149.989V24.3224C149.989 23.5308 149.663 23.1514 148.961 23.1514C148.259 23.1514 147.814 23.6247 147.814 24.3959V26.999H147.104ZM153.159 27.0765C152.322 27.0765 151.69 26.5706 151.69 25.7709V25.7627C151.69 24.9793 152.269 24.5264 153.293 24.4652L154.554 24.3877V23.9878C154.554 23.4452 154.224 23.1514 153.567 23.1514C153.04 23.1514 152.693 23.3472 152.579 23.69L152.575 23.7022H151.865L151.869 23.6777C151.984 22.9882 152.653 22.523 153.591 22.523C154.664 22.523 155.264 23.0739 155.264 23.9878V26.999H154.554V26.3503H154.489C154.211 26.8195 153.75 27.0765 153.159 27.0765ZM152.416 25.7546C152.416 26.1993 152.795 26.4604 153.306 26.4604C154.028 26.4604 154.554 25.9871 154.554 25.3588V24.9589L153.379 25.0324C152.71 25.0732 152.416 25.3098 152.416 25.7464V25.7546ZM156.569 26.999V20.8542H157.279V26.999H156.569ZM167.475 23.5813V24.1495H161.4V23.5813H167.475ZM171.503 24.9589V24.2979H174.245V24.9589H171.503ZM175.289 26.999V26.4849L177.827 23.2534V23.1881H175.293V22.6006H178.663V23.1269L176.138 26.3462V26.4115H178.676V26.999H175.289ZM181.372 27.0765C180.393 27.0765 179.719 26.6032 179.638 25.877H180.364C180.482 26.2442 180.833 26.4849 181.396 26.4849C181.988 26.4849 182.408 26.2034 182.408 25.8035V25.7954C182.408 25.4975 182.184 25.2894 181.641 25.1589L180.96 24.9956C180.136 24.7998 179.764 24.4407 179.764 23.8083V23.8042C179.764 23.0739 180.466 22.523 181.4 22.523C182.323 22.523 182.963 22.9841 183.061 23.7022H182.363C182.269 23.3554 181.927 23.1147 181.396 23.1147C180.874 23.1147 180.491 23.384 180.491 23.7716V23.7797C180.491 24.0776 180.711 24.2653 181.229 24.3918L181.906 24.555C182.735 24.7549 183.135 25.114 183.135 25.7423V25.7505C183.135 26.5339 182.372 27.0765 181.372 27.0765ZM184.244 26.999V20.8542H184.953V23.2616H185.019C185.239 22.7964 185.651 22.523 186.3 22.523C187.287 22.523 187.838 23.1065 187.838 24.151V26.999H187.128V24.3224C187.128 23.5308 186.802 23.1514 186.1 23.1514C185.398 23.1514 184.953 23.6247 184.953 24.3959V26.999H184.244ZM195.641 23.5813V24.1495H189.565V23.5813H195.641Z" fill="#EBEBEB"/>
</g>
<g clip-path="url(#clip2_2165_34594)">
<path d="M39.177 51.841C38.1975 51.841 37.5444 51.2258 37.5444 50.2936C37.5444 49.3851 38.1975 48.8457 39.3663 48.7841L40.7764 48.7132V48.2494C40.7764 47.6059 40.3836 47.251 39.6691 47.251C39.0776 47.251 38.6612 47.5018 38.5287 47.9418H37.7385C37.8331 47.1185 38.6281 46.5554 39.6786 46.5554C40.8852 46.5554 41.5761 47.1705 41.5761 48.24V51.7558H40.8095V50.9845H40.7291C40.483 51.5334 39.9246 51.841 39.177 51.841ZM39.4089 51.1359C40.1849 51.1359 40.7764 50.6202 40.7764 49.934V49.3283L39.4562 49.3898C38.7369 49.423 38.3583 49.7305 38.3583 50.2653C38.3583 50.8047 38.7606 51.1359 39.4089 51.1359ZM46.01 46.5317C47.1977 46.5317 47.9738 47.3882 47.9738 48.7084V49.6643C47.9738 50.9798 47.1977 51.8363 46.01 51.8363C45.2671 51.8363 44.7229 51.5192 44.5005 50.9561H44.4106V53.483H43.5919V46.6169H44.3869V47.4024H44.4721C44.7418 46.8346 45.2765 46.5317 46.01 46.5317ZM45.7781 47.2699C44.9311 47.2699 44.3916 47.8756 44.3916 48.822V49.5602C44.3916 50.5113 44.9311 51.117 45.7781 51.117C46.6251 51.117 47.1646 50.5066 47.1646 49.5602V48.822C47.1646 47.8756 46.6251 47.2699 45.7781 47.2699ZM51.7688 45.3582C51.3903 45.3582 51.1016 45.0743 51.1016 44.6957C51.1016 44.3219 51.3903 44.0379 51.7688 44.0379C52.1474 44.0379 52.436 44.3219 52.436 44.6957C52.436 45.0743 52.1474 45.3582 51.7688 45.3582ZM53.9219 51.7511H49.6678V51.0839H51.4281V47.2841H49.682V46.6169H52.2231V51.0839H53.9219V51.7511ZM56.9125 51.7511V47.3172H55.5355V46.6311H56.9125V46.1153C56.9125 45.1216 57.5277 44.6578 58.7911 44.6578C59.0892 44.6578 59.8038 44.6815 59.9741 44.7052V45.3629C59.7517 45.3392 59.0892 45.3203 58.8006 45.3203C58.086 45.3203 57.7075 45.5853 57.7075 46.1011V46.6311H59.9741V47.3172H57.7169V51.7511H56.9125ZM62.2218 53.5776C62.1035 53.5776 61.9474 53.5729 61.8764 53.5635V52.8584C61.9379 52.8726 62.0846 52.8773 62.1603 52.8773C62.643 52.8773 62.9079 52.6596 63.1209 52.0634L63.2108 51.7842L61.3227 46.6169H62.1981L63.6367 50.9135H63.6982L65.132 46.6169H65.9885L64.0531 51.9404C63.6036 53.2038 63.1729 53.5776 62.2218 53.5776ZM75.9635 46.5317C77.1513 46.5317 77.9273 47.3882 77.9273 48.7084V49.6643C77.9273 50.9798 77.1513 51.8363 75.9635 51.8363C75.2206 51.8363 74.6764 51.5192 74.454 50.9561H74.3641V53.483H73.5455V46.6169H74.3405V47.4024H74.4256C74.6954 46.8346 75.2301 46.5317 75.9635 46.5317ZM75.7317 47.2699C74.8846 47.2699 74.3452 47.8756 74.3452 48.822V49.5602C74.3452 50.5113 74.8846 51.117 75.7317 51.117C76.5787 51.117 77.1181 50.5066 77.1181 49.5602V48.822C77.1181 47.8756 76.5787 47.2699 75.7317 47.2699ZM83.7335 46.6169V51.7511H82.9621V50.8473H82.8959C82.6214 51.4861 82.0347 51.8457 81.2539 51.8457C80.1371 51.8457 79.5315 51.1785 79.5315 49.9482V46.6169H80.3359V49.7447C80.3359 50.6722 80.7145 51.1075 81.5142 51.1075C82.3612 51.1075 82.929 50.516 82.929 49.6406V46.6169H83.7335ZM85.754 48.0034C85.754 47.1137 86.5111 46.5175 87.6421 46.5175C88.7115 46.5175 89.4355 47.0522 89.5302 47.9087H88.7541C88.6595 47.4592 88.2289 47.1847 87.6279 47.1847C86.9749 47.1847 86.5537 47.4876 86.5537 47.956C86.5537 48.3488 86.8187 48.5712 87.4623 48.7132L88.1863 48.8788C89.1847 49.1059 89.639 49.5413 89.639 50.2842C89.639 51.2306 88.8488 51.8457 87.6326 51.8457C86.4686 51.8457 85.6972 51.3016 85.6073 50.4214H86.426C86.5443 50.8946 86.9985 51.1691 87.661 51.1691C88.3614 51.1691 88.8062 50.852 88.8062 50.3599C88.8062 49.9529 88.5554 49.7353 87.9024 49.5886L87.1405 49.4135C86.213 49.2006 85.754 48.7321 85.754 48.0034ZM91.5081 51.7511V44.6011H92.2842V47.5254H92.3504C92.6202 46.8866 93.2117 46.527 93.9972 46.527C95.1139 46.527 95.7196 47.1989 95.7196 48.4245V51.7511H94.9152V48.628C94.9152 47.7052 94.5366 47.2652 93.7322 47.2652C92.8851 47.2652 92.3126 47.8567 92.3126 48.7321V51.7511H91.5081Z" fill="#F3F4FA"/>
</g>
</g>
</g>
<path d="M247 41H301C302.657 41 304 42.3431 304 44V64" stroke="#5990FF" stroke-width="0.777302" stroke-dasharray="1.55 1.55"/>
<rect x="157.737" y="55.2433" width="235.019" height="144.565" rx="3.64936" fill="#1A1B21" stroke="url(#paint0_linear_2165_34594)" stroke-width="0.486582"/>
<rect x="198.698" y="67.1929" width="185.835" height="6.72704" rx="3.36352" fill="#2C2C2C"/>
<path d="M173.277 65.805C172.825 65.8681 172.415 66.1092 172.139 66.4753C171.863 66.8415 171.744 67.3027 171.806 67.7576L172.826 75.0723L177.117 65.2671L173.277 65.805Z" fill="#97D700"/>
<path d="M183.629 71.8997L183.228 66.2763C183.195 65.8189 182.982 65.3936 182.637 65.0934C182.292 64.7932 181.842 64.6425 181.387 64.6742C181.348 64.6757 181.31 64.6799 181.272 64.6868L179.616 64.9166L183.254 73.108C183.526 72.7674 183.661 72.3357 183.629 71.8997Z" fill="#71C5E8"/>
<path d="M174.391 76.8519C174.684 76.8853 174.982 76.8419 175.254 76.7258L181.499 74.0785L178.527 67.39L174.391 76.8519Z" fill="#FF9013"/>
<rect x="165.279" y="88.0875" width="33.0876" height="3.89265" rx="1.94633" fill="#2C2C2C"/>
<rect x="165.279" y="98.7924" width="33.0876" height="3.89265" rx="1.94633" fill="#2C2C2C"/>
<rect x="217.83" y="101.712" width="175.169" height="138.189" rx="7.78531" fill="#2C2C2C"/>
<rect x="165.279" y="109.497" width="33.0876" height="3.89265" rx="1.94633" fill="#2C2C2C"/>
<rect x="165.279" y="120.202" width="33.0876" height="3.89265" rx="1.94633" fill="#2C2C2C"/>
<path d="M218.6 94.2218V89.0994H219.427V89.8787H219.503C219.731 89.3275 220.215 89.0091 220.885 89.0091C221.579 89.0091 222.064 89.375 222.301 89.9072H222.378C222.653 89.3655 223.238 89.0091 223.946 89.0091C224.991 89.0091 225.575 89.6078 225.575 90.6817V94.2218H224.749V90.8718C224.749 90.1163 224.402 89.7409 223.68 89.7409C222.967 89.7409 222.496 90.2778 222.496 90.9288V94.2218H221.67V90.7435C221.67 90.1353 221.251 89.7409 220.605 89.7409C219.935 89.7409 219.427 90.3253 219.427 91.0476V94.2218H218.6ZM227.315 96.018C227.205 96.018 227.063 96.0085 226.949 95.9895V95.31C227.049 95.329 227.177 95.3337 227.291 95.3337C227.761 95.3337 228.046 95.1199 228.232 94.5307L228.327 94.2266L226.431 89.0994H227.315L228.721 93.3142H228.797L230.199 89.0994H231.069L229.068 94.5354C228.645 95.6853 228.222 96.018 227.315 96.018ZM231.995 91.8459V91.0761H235.188V91.8459H231.995ZM238.752 94.3121C237.317 94.3121 236.4 93.2714 236.4 91.6463V91.6368C236.4 90.045 237.312 89.0091 238.747 89.0091C239.992 89.0091 240.738 89.7266 240.89 90.639L240.895 90.6675H240.073L240.068 90.6532C239.94 90.1495 239.484 89.7409 238.747 89.7409C237.826 89.7409 237.246 90.4822 237.246 91.6368V91.6463C237.246 92.8248 237.835 93.5803 238.747 93.5803C239.436 93.5803 239.874 93.2762 240.064 92.706L240.073 92.6775L240.89 92.6727L240.881 92.725C240.672 93.6516 239.983 94.3121 238.752 94.3121ZM242.102 94.2218V89.0994H242.929V89.8597H243.005C243.2 89.3227 243.68 89.0091 244.373 89.0091C244.53 89.0091 244.706 89.0281 244.787 89.0424V89.8454C244.616 89.8169 244.459 89.7979 244.278 89.7979C243.49 89.7979 242.929 90.2968 242.929 91.0476V94.2218H242.102ZM247.215 94.3121C246.241 94.3121 245.504 93.7229 245.504 92.7915V92.782C245.504 91.8697 246.179 91.3422 247.372 91.2709L248.84 91.1807V90.715C248.84 90.083 248.455 89.7409 247.69 89.7409C247.077 89.7409 246.673 89.969 246.54 90.3681L246.536 90.3824H245.709L245.713 90.3539C245.847 89.5508 246.626 89.0091 247.719 89.0091C248.968 89.0091 249.667 89.6506 249.667 90.715V94.2218H248.84V93.4663H248.764C248.441 94.0127 247.904 94.3121 247.215 94.3121ZM246.35 92.7725C246.35 93.2905 246.792 93.5946 247.386 93.5946C248.227 93.5946 248.84 93.0434 248.84 92.3116V91.8459L247.472 91.9314C246.692 91.979 246.35 92.2546 246.35 92.763V92.7725ZM251.929 94.2218L250.494 89.0994H251.321L252.328 93.1954H252.404L253.549 89.0994H254.333L255.478 93.1954H255.554L256.562 89.0994H257.384L255.949 94.2218H255.117L253.972 90.2588H253.896L252.756 94.2218H251.929ZM258.524 94.2218V87.0656H259.351V94.2218H258.524ZM263.029 94.3121C261.565 94.3121 260.682 93.2857 260.682 91.6796V91.6748C260.682 90.0925 261.584 89.0091 262.977 89.0091C264.369 89.0091 265.215 90.045 265.215 91.5751V91.8982H261.527C261.551 92.9578 262.136 93.5756 263.048 93.5756C263.742 93.5756 264.169 93.2477 264.307 92.9388L264.326 92.8961H265.153L265.144 92.9341C264.968 93.6278 264.236 94.3121 263.029 94.3121ZM262.972 89.7456C262.212 89.7456 261.632 90.2636 261.542 91.2377H264.374C264.288 90.2256 263.727 89.7456 262.972 89.7456ZM266.498 94.2218V89.0994H267.325V89.8597H267.401C267.595 89.3227 268.075 89.0091 268.769 89.0091C268.926 89.0091 269.102 89.0281 269.183 89.0424V89.8454C269.011 89.8169 268.855 89.7979 268.674 89.7979C267.885 89.7979 267.325 90.2968 267.325 91.0476V94.2218H266.498Z" fill="#8C93A8"/>
<rect width="70" height="124" fill="url(#paint1_linear_2165_34594)"/>
<rect width="70" height="124" transform="matrix(-1 0 0 1 384 0)" fill="url(#paint2_linear_2165_34594)"/>
<rect width="384" height="37" fill="url(#paint3_linear_2165_34594)"/>
<rect width="384" height="37" transform="matrix(1 0 0 -1 0 124)" fill="url(#paint4_linear_2165_34594)"/>
</g>
<defs>
<filter id="filter0_ddd_2165_34594" x="23.8069" y="12.4288" width="228.335" height="167.165" filterUnits="userSpaceOnUse" color-interpolation-filters="sRGB">
<feFlood flood-opacity="0" result="BackgroundImageFix"/>
<feColorMatrix in="SourceAlpha" type="matrix" values="0 0 0 0 0 0 0 0 0 0 0 0 0 0 0 0 0 0 127 0" result="hardAlpha"/>
<feOffset/>
<feGaussianBlur stdDeviation="0.321395"/>
<feColorMatrix type="matrix" values="0 0 0 0 0.141176 0 0 0 0 0.152941 0 0 0 0 0.211765 0 0 0 0.24 0"/>
<feBlend mode="normal" in2="BackgroundImageFix" result="effect1_dropShadow_2165_34594"/>
<feColorMatrix in="SourceAlpha" type="matrix" values="0 0 0 0 0 0 0 0 0 0 0 0 0 0 0 0 0 0 127 0" result="hardAlpha"/>
<feOffset dy="1.28558"/>
<feGaussianBlur stdDeviation="1.28558"/>
<feColorMatrix type="matrix" values="0 0 0 0 0.141176 0 0 0 0 0.152941 0 0 0 0 0.211765 0 0 0 0.08 0"/>
<feBlend mode="normal" in2="effect1_dropShadow_2165_34594" result="effect2_dropShadow_2165_34594"/>
<feColorMatrix in="SourceAlpha" type="matrix" values="0 0 0 0 0 0 0 0 0 0 0 0 0 0 0 0 0 0 127 0" result="hardAlpha"/>
<feOffset dy="2.57116"/>
<feGaussianBlur stdDeviation="2.57116"/>
<feColorMatrix type="matrix" values="0 0 0 0 0.141176 0 0 0 0 0.152941 0 0 0 0 0.211765 0 0 0 0.12 0"/>
<feBlend mode="normal" in2="effect2_dropShadow_2165_34594" result="effect3_dropShadow_2165_34594"/>
<feBlend mode="normal" in="SourceGraphic" in2="effect3_dropShadow_2165_34594" result="shape"/>
</filter>
<filter id="filter1_di_2165_34594" x="28.9492" y="15" width="218.051" height="18.3196" filterUnits="userSpaceOnUse" color-interpolation-filters="sRGB">
<feFlood flood-opacity="0" result="BackgroundImageFix"/>
<feColorMatrix in="SourceAlpha" type="matrix" values="0 0 0 0 0 0 0 0 0 0 0 0 0 0 0 0 0 0 127 0" result="hardAlpha"/>
<feOffset dy="0.321395"/>
<feColorMatrix type="matrix" values="0 0 0 0 0 0 0 0 0 0 0 0 0 0 0 0 0 0 0.15 0"/>
<feBlend mode="normal" in2="BackgroundImageFix" result="effect1_dropShadow_2165_34594"/>
<feBlend mode="normal" in="SourceGraphic" in2="effect1_dropShadow_2165_34594" result="shape"/>
<feColorMatrix in="SourceAlpha" type="matrix" values="0 0 0 0 0 0 0 0 0 0 0 0 0 0 0 0 0 0 127 0" result="hardAlpha"/>
<feOffset dy="-0.321395"/>
<feComposite in2="hardAlpha" operator="arithmetic" k2="-1" k3="1"/>
<feColorMatrix type="matrix" values="0 0 0 0 0 0 0 0 0 0 0 0 0 0 0 0 0 0 0.05 0"/>
<feBlend mode="normal" in2="shape" result="effect2_innerShadow_2165_34594"/>
</filter>
<filter id="filter2_i_2165_34594" x="42.4482" y="20.1423" width="7.71387" height="7.7135" filterUnits="userSpaceOnUse" color-interpolation-filters="sRGB">
<feFlood flood-opacity="0" result="BackgroundImageFix"/>
<feBlend mode="normal" in="SourceGraphic" in2="BackgroundImageFix" result="shape"/>
<feColorMatrix in="SourceAlpha" type="matrix" values="0 0 0 0 0 0 0 0 0 0 0 0 0 0 0 0 0 0 127 0" result="hardAlpha"/>
<feOffset/>
<feGaussianBlur stdDeviation="1.92837"/>
<feComposite in2="hardAlpha" operator="arithmetic" k2="-1" k3="1"/>
<feColorMatrix type="matrix" values="0 0 0 0 0.92549 0 0 0 0 0.427451 0 0 0 0 0.384314 0 0 0 1 0"/>
<feBlend mode="normal" in2="shape" result="effect1_innerShadow_2165_34594"/>
</filter>
<filter id="filter3_i_2165_34594" x="55.3037" y="20.1423" width="7.71387" height="7.7135" filterUnits="userSpaceOnUse" color-interpolation-filters="sRGB">
<feFlood flood-opacity="0" result="BackgroundImageFix"/>
<feBlend mode="normal" in="SourceGraphic" in2="BackgroundImageFix" result="shape"/>
<feColorMatrix in="SourceAlpha" type="matrix" values="0 0 0 0 0 0 0 0 0 0 0 0 0 0 0 0 0 0 127 0" result="hardAlpha"/>
<feOffset/>
<feGaussianBlur stdDeviation="1.92837"/>
<feComposite in2="hardAlpha" operator="arithmetic" k2="-1" k3="1"/>
<feColorMatrix type="matrix" values="0 0 0 0 0.960784 0 0 0 0 0.768627 0 0 0 0 0.317647 0 0 0 1 0"/>
<feBlend mode="normal" in2="shape" result="effect1_innerShadow_2165_34594"/>
</filter>
<filter id="filter4_i_2165_34594" x="68.1602" y="20.1423" width="7.71387" height="7.7135" filterUnits="userSpaceOnUse" color-interpolation-filters="sRGB">
<feFlood flood-opacity="0" result="BackgroundImageFix"/>
<feBlend mode="normal" in="SourceGraphic" in2="BackgroundImageFix" result="shape"/>
<feColorMatrix in="SourceAlpha" type="matrix" values="0 0 0 0 0 0 0 0 0 0 0 0 0 0 0 0 0 0 127 0" result="hardAlpha"/>
<feOffset/>
<feGaussianBlur stdDeviation="1.92837"/>
<feComposite in2="hardAlpha" operator="arithmetic" k2="-1" k3="1"/>
<feColorMatrix type="matrix" values="0 0 0 0 0.407843 0 0 0 0 0.8 0 0 0 0 0.345098 0 0 0 1 0"/>
<feBlend mode="normal" in2="shape" result="effect1_innerShadow_2165_34594"/>
</filter>
<linearGradient id="paint0_linear_2165_34594" x1="393" y1="200.052" x2="288.413" y2="-10.1417" gradientUnits="userSpaceOnUse">
<stop stop-color="#141414" stop-opacity="0.58"/>
<stop offset="0.958166" stop-color="#161616"/>
</linearGradient>
<linearGradient id="paint1_linear_2165_34594" x1="1.04308e-06" y1="62" x2="70" y2="62" gradientUnits="userSpaceOnUse">
<stop stop-color="#2A2D39"/>
<stop offset="1" stop-color="#2A2D39" stop-opacity="0"/>
</linearGradient>
<linearGradient id="paint2_linear_2165_34594" x1="1.04308e-06" y1="62" x2="70" y2="62" gradientUnits="userSpaceOnUse">
<stop stop-color="#2A2D39"/>
<stop offset="1" stop-color="#2A2D39" stop-opacity="0"/>
</linearGradient>
<linearGradient id="paint3_linear_2165_34594" x1="192" y1="0" x2="192" y2="37" gradientUnits="userSpaceOnUse">
<stop stop-color="#2A2D39"/>
<stop offset="1" stop-color="#2A2D39" stop-opacity="0"/>
</linearGradient>
<linearGradient id="paint4_linear_2165_34594" x1="192" y1="0" x2="192" y2="37" gradientUnits="userSpaceOnUse">
<stop stop-color="#2A2D39"/>
<stop offset="1" stop-color="#211A1A" stop-opacity="0"/>
</linearGradient>
<clipPath id="clip0_2165_34594">
<rect width="384" height="124" rx="12" fill="white"/>
</clipPath>
<clipPath id="clip1_2165_34594">
<rect x="28.9492" y="15" width="218.05" height="156.88" rx="7.7529" fill="white"/>
</clipPath>
<clipPath id="clip2_2165_34594">
<rect x="28.9492" y="32.9982" width="218.05" height="138.882" rx="2.57116" fill="white"/>
</clipPath>
</defs>
</svg>
