<svg width="40" height="40" viewBox="0 0 40 40" fill="none" xmlns="http://www.w3.org/2000/svg">
<path d="M33.8838 7.59322C31.2945 6.38176 28.526 5.50133 25.6315 5C25.276 5.64268 24.8607 6.50711 24.5744 7.19476C21.4975 6.73203 18.4489 6.73203 15.4286 7.19476C15.1423 6.50711 14.7176 5.64268 14.3589 5C11.4613 5.50133 8.68959 6.385 6.10032 7.59963C0.877738 15.4916 -0.538019 23.1876 0.169861 30.7743C3.63375 33.3611 6.99068 34.9325 10.291 35.9607C11.1058 34.8392 11.8326 33.6471 12.4586 32.3907C11.2663 31.9376 10.1242 31.3785 9.04512 30.7294C9.3314 30.5173 9.61143 30.2955 9.88197 30.0674C16.4637 33.1458 23.6148 33.1458 30.1179 30.0674C30.3916 30.2955 30.6716 30.5173 30.9547 30.7294C29.8725 31.3817 28.7273 31.9408 27.5349 32.3939C28.161 33.6471 28.8846 34.8425 29.7026 35.9639C33.0061 34.9356 36.3661 33.3643 39.83 30.7743C40.6606 21.9794 38.4111 14.3541 33.8838 7.59322ZM13.3553 26.1086C11.3795 26.1086 9.75925 24.2641 9.75925 22.018C9.75925 19.7718 11.3449 17.9242 13.3553 17.9242C15.3657 17.9242 16.9859 19.7686 16.9513 22.018C16.9545 24.2641 15.3657 26.1086 13.3553 26.1086ZM26.6446 26.1086C24.6688 26.1086 23.0485 24.2641 23.0485 22.018C23.0485 19.7718 24.6342 17.9242 26.6446 17.9242C28.6549 17.9242 30.2752 19.7686 30.2406 22.018C30.2406 24.2641 28.6549 26.1086 26.6446 26.1086Z" fill="#5865F2"/>
</svg>
