<svg width="384" height="124" viewBox="0 0 384 124" fill="none" xmlns="http://www.w3.org/2000/svg">
<rect width="384" height="124" rx="12" fill="#252832"/>
<rect x="164.5" y="34.5" width="55" height="55" rx="7.5" fill="#F3F4FA"/>
<path d="M212 62C212 67.3043 209.893 72.3914 206.142 76.1421C202.391 79.8929 197.304 82 192 82C186.696 82 181.609 79.8929 177.858 76.1421C174.107 72.3914 172 67.3043 172 62C172 59.3736 172.517 56.7728 173.522 54.3463C174.528 51.9198 176.001 49.715 177.858 47.8579C179.715 46.0007 181.92 44.5275 184.346 43.5224C186.773 42.5173 189.374 42 192 42C194.626 42 197.227 42.5173 199.654 43.5224C202.08 44.5275 204.285 46.0007 206.142 47.8579C207.999 49.715 209.472 51.9198 210.478 54.3463C211.483 56.7728 212 59.3736 212 62Z" fill="black"/>
<path d="M207.858 61.9999C207.858 66.2058 206.187 70.2394 203.213 73.2134C200.239 76.1874 196.206 77.8582 192 77.8582C187.794 77.8582 183.76 76.1874 180.786 73.2134C177.812 70.2394 176.142 66.2058 176.142 61.9999C176.142 59.9174 176.552 57.8552 177.349 55.9312C178.146 54.0072 179.314 52.259 180.786 50.7864C182.259 49.3138 184.007 48.1457 185.931 47.3487C187.855 46.5518 189.917 46.1416 192 46.1416C194.082 46.1416 196.145 46.5518 198.069 47.3487C199.993 48.1457 201.741 49.3138 203.213 50.7864C204.686 52.259 205.854 54.0072 206.651 55.9312C207.448 57.8552 207.858 59.9174 207.858 61.9999Z" fill="white"/>
<path d="M203.608 62C203.608 65.0785 202.385 68.0309 200.208 70.2078C198.031 72.3847 195.079 73.6076 192 73.6076C188.922 73.6076 185.969 72.3847 183.792 70.2078C181.616 68.0309 180.393 65.0785 180.393 62C180.393 60.4756 180.693 58.9662 181.276 57.5579C181.859 56.1496 182.715 54.87 183.792 53.7921C184.87 52.7143 186.15 51.8593 187.558 51.2759C188.966 50.6926 190.476 50.3923 192 50.3923C193.525 50.3923 195.034 50.6926 196.442 51.2759C197.851 51.8593 199.13 52.7143 200.208 53.7921C201.286 54.87 202.141 56.1496 202.724 57.5579C203.308 58.9662 203.608 60.4756 203.608 62Z" fill="black"/>
<path d="M199.575 62C199.575 64.009 198.777 65.9357 197.356 67.3563C195.935 68.7768 194.009 69.5749 192 69.5749C189.991 69.5749 188.064 68.7768 186.643 67.3563C185.223 65.9357 184.425 64.009 184.425 62C184.425 61.0052 184.621 60.0202 185.001 59.1012C185.382 58.1821 185.94 57.3471 186.643 56.6437C187.347 55.9403 188.182 55.3823 189.101 55.0017C190.02 54.621 191.005 54.425 192 54.425C192.994 54.425 193.98 54.621 194.899 55.0017C195.818 55.3823 196.653 55.9403 197.356 56.6437C198.059 57.3471 198.617 58.1821 198.998 59.1012C199.379 60.0202 199.575 61.0052 199.575 62Z" fill="white"/>
<path d="M185.297 69.3025C189.984 73.8257 189.275 81.1826 189.275 81.1826" stroke="black" stroke-width="3.45201"/>
<path d="M196.734 45.1335C201.421 49.6567 200.713 57.0137 200.713 57.0137" stroke="black" stroke-width="3.45201"/>
<path d="M193.111 60.0696C197.798 64.5927 196.396 71.2561 196.396 71.2561" stroke="black" stroke-width="3.45201"/>
<path d="M195.978 61.9999C195.978 63.055 195.559 64.0669 194.813 64.8129C194.067 65.559 193.055 65.9781 192 65.9781C190.945 65.9781 189.933 65.559 189.187 64.8129C188.441 64.0669 188.021 63.055 188.021 61.9999C188.021 61.4775 188.124 60.9602 188.324 60.4775C188.524 59.9949 188.817 59.5563 189.187 59.1869C189.556 58.8175 189.995 58.5245 190.477 58.3246C190.96 58.1246 191.477 58.0217 192 58.0217C193.055 58.0217 194.067 58.4409 194.813 59.1869C195.559 59.933 195.978 60.9448 195.978 61.9999Z" fill="#800000"/>
<path d="M186.762 53.8091C178.696 57.8963 176.462 71.0298 176.462 71.0298" stroke="black" stroke-width="3.45201"/>
<rect x="164.5" y="34.5" width="55" height="55" rx="7.5" stroke="#343847"/>
</svg>
