<svg width="56" height="56" viewBox="0 0 56 56" fill="none" xmlns="http://www.w3.org/2000/svg">
<rect x="0.5" y="0.5" width="55" height="55" rx="7.5" fill="white"/>
<rect x="0.5" y="0.5" width="55" height="55" rx="7.5" stroke="#E4E5E6"/>
<path d="M48 28C48 33.3043 45.8929 38.3914 42.1421 42.1421C38.3914 45.8929 33.3043 48 28 48C22.6957 48 17.6086 45.8929 13.8579 42.1421C10.1071 38.3914 8 33.3043 8 28C8 25.3736 8.51732 22.7728 9.52241 20.3463C10.5275 17.9198 12.0007 15.715 13.8579 13.8579C15.715 12.0007 17.9198 10.5275 20.3463 9.52241C22.7728 8.51731 25.3736 8 28 8C30.6264 8 33.2272 8.51731 35.6537 9.52241C38.0802 10.5275 40.285 12.0007 42.1421 13.8579C43.9993 15.715 45.4725 17.9198 46.4776 20.3463C47.4827 22.7728 48 25.3736 48 28Z" fill="black"/>
<path d="M43.8582 28.0009C43.8582 32.2068 42.1874 36.2404 39.2134 39.2144C36.2394 42.1884 32.2058 43.8592 27.9999 43.8592C23.794 43.8592 19.7604 42.1884 16.7864 39.2144C13.8124 36.2404 12.1416 32.2068 12.1416 28.0009C12.1416 25.9183 12.5518 23.8562 13.3487 21.9322C14.1457 20.0082 15.3138 18.2599 16.7864 16.7874C18.259 15.3148 20.0072 14.1467 21.9312 13.3497C23.8552 12.5528 25.9174 12.1426 27.9999 12.1426C30.0825 12.1426 32.1446 12.5528 34.0686 13.3497C35.9926 14.1467 37.7409 15.3148 39.2134 16.7874C40.686 18.2599 41.8541 20.0082 42.6511 21.9322C43.448 23.8562 43.8582 25.9183 43.8582 28.0009Z" fill="white"/>
<path d="M39.6078 28.0002C39.6078 31.0787 38.3849 34.0312 36.208 36.208C34.0312 38.3849 31.0787 39.6078 28.0002 39.6078C24.9217 39.6078 21.9692 38.3849 19.7924 36.208C17.6155 34.0312 16.3926 31.0787 16.3926 28.0002C16.3926 26.4759 16.6928 24.9665 17.2762 23.5582C17.8595 22.1499 18.7145 20.8702 19.7924 19.7924C20.8702 18.7145 22.1499 17.8595 23.5582 17.2762C24.9665 16.6928 26.4759 16.3926 28.0002 16.3926C29.5245 16.3926 31.034 16.6928 32.4423 17.2762C33.8506 17.8595 35.1302 18.7145 36.208 19.7924C37.2859 20.8702 38.1409 22.1499 38.7243 23.5582C39.3076 24.9665 39.6078 26.4759 39.6078 28.0002Z" fill="black"/>
<path d="M35.5752 28.0007C35.5752 30.0097 34.7771 31.9364 33.3565 33.357C31.9359 34.7776 30.0092 35.5756 28.0002 35.5756C25.9912 35.5756 24.0645 34.7776 22.6439 33.357C21.2234 31.9364 20.4253 30.0097 20.4253 28.0007C20.4253 27.006 20.6212 26.0209 21.0019 25.1019C21.3826 24.1829 21.9405 23.3478 22.6439 22.6444C23.3473 21.941 24.1824 21.3831 25.1014 21.0024C26.0205 20.6217 27.0055 20.4258 28.0002 20.4258C28.995 20.4258 29.98 20.6217 30.899 21.0024C31.8181 21.3831 32.6531 21.941 33.3565 22.6444C34.0599 23.3478 34.6179 24.1829 34.9985 25.1019C35.3792 26.0209 35.5752 27.006 35.5752 28.0007Z" fill="white"/>
<path d="M21.2969 35.3027C25.9835 39.8259 25.2751 47.1828 25.2751 47.1828" stroke="black" stroke-width="3.45201"/>
<path d="M32.7339 11.1328C37.4205 15.656 36.7121 23.0129 36.7121 23.0129" stroke="black" stroke-width="3.45201"/>
<path d="M29.1118 26.0703C33.7985 30.5935 32.3964 37.2568 32.3964 37.2568" stroke="black" stroke-width="3.45201"/>
<path d="M31.9779 27.9997C31.9779 29.0548 31.5588 30.0666 30.8127 30.8127C30.0666 31.5588 29.0548 31.9779 27.9997 31.9779C26.9446 31.9779 25.9327 31.5588 25.1867 30.8127C24.4406 30.0666 24.0215 29.0548 24.0215 27.9997C24.0215 27.4773 24.1244 26.96 24.3243 26.4773C24.5242 25.9946 24.8173 25.5561 25.1867 25.1867C25.5561 24.8173 25.9946 24.5242 26.4773 24.3243C26.96 24.1244 27.4773 24.0215 27.9997 24.0215C29.0548 24.0215 30.0666 24.4406 30.8127 25.1867C31.5588 25.9327 31.9779 26.9446 31.9779 27.9997Z" fill="#800000"/>
<path d="M22.7616 19.8086C14.6962 23.8958 12.4619 37.0293 12.4619 37.0293" stroke="black" stroke-width="3.45201"/>
</svg>
