<svg width="384" height="124" viewBox="0 0 384 124" fill="none" xmlns="http://www.w3.org/2000/svg">
<rect width="384" height="124" rx="12" fill="#252832"/>
<rect x="164.5" y="34.5" width="55" height="55" rx="7.5" fill="#F3F4FA"/>
<path d="M200.115 63.5583L192.72 70.7908V43.0001C192.72 42.349 192.418 42.0466 192.022 42.0466C191.627 42.0466 191.185 42.349 191.185 43.0001L191.278 70.7908L184.069 63.5583C183.208 62.6978 182.185 63.7676 183.022 64.628L192.162 73.7676C198.673 67.2559 194.859 71.1164 201.348 64.628C202.208 63.7676 200.952 62.6978 200.115 63.5583Z" fill="#43DEA4"/>
<path d="M207.929 64.8605C208.232 74.5349 200.697 81.9535 191.999 81.9535C183.348 81.9535 175.813 74.5349 176.069 64.8605C176.301 57.4884 180.813 50.907 187.976 49.186C188.139 49.6744 188.232 50.2093 188.348 50.7442C181.72 52.1395 177.953 58.1163 177.767 64.907C177.511 73.5349 184.232 80.3953 191.999 80.3953C199.813 80.3953 206.534 73.5349 206.278 64.907C206.092 58.4186 201.929 52.6279 195.65 50.9302C195.72 50.3488 195.86 49.8837 195.999 49.3488C202.953 51.2791 207.743 57.6744 207.929 64.8605Z" fill="#8085BB"/>
<rect x="164.5" y="34.5" width="55" height="55" rx="7.5" stroke="#343847"/>
</svg>
