<svg width="40" height="40" viewBox="0 0 40 40" fill="none" xmlns="http://www.w3.org/2000/svg">
<g clip-path="url(#clip0_2499_5189)">
<path d="M34.2448 21.9865C34.2448 22.3426 34.1084 22.6842 33.8655 22.9361C33.6227 23.1879 33.2933 23.3294 32.9498 23.3294C32.6064 23.3294 32.277 23.1879 32.0341 22.9361C31.7912 22.6842 31.6548 22.3426 31.6548 21.9865V9.98895C31.6548 9.63276 31.7912 9.29117 32.0341 9.03935C32.277 8.78748 32.6064 8.64598 32.9498 8.64598C33.2933 8.64598 33.6227 8.78748 33.8655 9.03935C34.1084 9.29117 34.2448 9.63276 34.2448 9.98895V21.9865ZM33.7953 30.2993C33.6241 30.4769 28.808 34.6389 19.9785 34.6389C11.149 34.6389 6.36506 30.4991 6.16171 30.3215C6.03354 30.2095 5.928 30.0723 5.85108 29.9179C5.77415 29.7634 5.72743 29.5947 5.71347 29.4215C5.69957 29.2483 5.71875 29.0739 5.76994 28.9084C5.82114 28.7429 5.90334 28.5894 6.01186 28.457C6.23539 28.1888 6.55205 28.0231 6.89289 27.9961C7.23373 27.969 7.57106 28.0829 7.83124 28.3127C7.9062 28.3682 12.2085 31.9863 19.9678 31.9863C27.727 31.9863 32.0615 28.346 32.1043 28.3127C32.3674 28.0849 32.7059 27.9726 33.0476 27.9996C33.3894 28.0265 33.7075 28.1906 33.9344 28.457C34.1528 28.7211 34.2618 29.064 34.2377 29.4111C34.2137 29.7582 34.0585 30.0813 33.806 30.3104L33.7953 30.2993ZM5.70149 9.98895C5.72082 9.63164 5.8758 9.29682 6.13252 9.05762C6.38919 8.81848 6.72678 8.69441 7.07141 8.71257C7.39089 8.73138 7.69236 8.87223 7.91765 9.10791C8.14294 9.34359 8.27613 9.65743 8.29147 9.98895V21.9643C8.29147 22.3205 8.15504 22.6621 7.91216 22.9139C7.66934 23.1658 7.33996 23.3072 6.9965 23.3072C6.65305 23.3072 6.32366 23.1658 6.08079 22.9139C5.83792 22.6621 5.70149 22.3205 5.70149 21.9643V9.98895ZM12.1978 7.32529C12.2172 6.96798 12.3721 6.63316 12.6289 6.39396C12.8855 6.15482 13.2231 6.03075 13.5678 6.04891C13.8872 6.06772 14.1887 6.20857 14.414 6.44425C14.6393 6.67993 14.7725 6.99377 14.7878 7.32529V25.083C14.7878 25.4391 14.6514 25.7807 14.4086 26.0326C14.1657 26.2844 13.8363 26.4259 13.4929 26.4259C13.1494 26.4259 12.82 26.2844 12.5771 26.0326C12.3343 25.7807 12.1978 25.4391 12.1978 25.083V7.32529ZM18.7263 6.65937C18.7263 6.30319 18.8627 5.9616 19.1056 5.70978C19.3485 5.4579 19.6779 5.31641 20.0213 5.31641C20.3648 5.31641 20.6942 5.4579 20.937 5.70978C21.1799 5.9616 21.3163 6.30319 21.3163 6.65937V25.9709C21.3163 26.327 21.1799 26.6686 20.937 26.9205C20.6942 27.1723 20.3648 27.3138 20.0213 27.3138C19.6779 27.3138 19.3485 27.1723 19.1056 26.9205C18.8627 26.6686 18.7263 26.327 18.7263 25.9709V6.65937ZM25.1478 7.32529C25.1478 6.9691 25.2842 6.62751 25.5271 6.37569C25.7699 6.12382 26.0993 5.98232 26.4428 5.98232C26.7862 5.98232 27.1156 6.12382 27.3584 6.37569C27.6013 6.62751 27.7377 6.9691 27.7377 7.32529V25.083C27.7377 25.4391 27.6013 25.7807 27.3584 26.0326C27.1156 26.2844 26.7862 26.4259 26.4428 26.4259C26.0993 26.4259 25.7699 26.2844 25.5271 26.0326C25.2842 25.7807 25.1478 25.4391 25.1478 25.083V7.32529ZM34.598 0.000107082H5.40182C4.76564 -0.00420194 4.13488 0.121576 3.54568 0.370362C2.95642 0.619095 2.42034 0.985934 1.96799 1.44984C1.51565 1.91379 1.156 2.46565 0.909667 3.07392C0.663279 3.68214 0.53505 4.33485 0.532227 4.99458V34.9607C0.53505 35.6204 0.663279 36.2731 0.909667 36.8814C1.156 37.4896 1.51565 38.0415 1.96799 38.5055C2.42034 38.9694 2.95642 39.3362 3.54568 39.5849C4.13488 39.8337 4.76564 39.9593 5.40182 39.9552H34.598C35.2333 39.9593 35.8631 39.8341 36.4517 39.586C37.0402 39.338 37.5759 38.9721 38.028 38.5093C38.4802 38.0466 38.8401 37.496 39.0871 36.8891C39.3341 36.2821 39.4634 35.6306 39.4676 34.9718V4.99458C39.4648 4.33575 39.3369 3.68401 39.0912 3.07648C38.8455 2.46895 38.4868 1.91758 38.0356 1.45378C37.5844 0.990036 37.0495 0.622984 36.4615 0.373558C35.8736 0.124133 35.244 -0.00271029 34.6087 0.000107082" fill="white"/>
</g>
<defs>
<clipPath id="clip0_2499_5189">
<rect width="40" height="40" fill="white"/>
</clipPath>
</defs>
</svg>
