<svg width="56" height="56" viewBox="0 0 56 56" fill="none" xmlns="http://www.w3.org/2000/svg">
<rect x="0.5" y="0.5" width="55" height="55" rx="7.5" fill="white"/>
<rect x="0.5" y="0.5" width="55" height="55" rx="7.5" stroke="#E4E5E6"/>
<path fill-rule="evenodd" clip-rule="evenodd" d="M34.5863 11.8716C32.916 10.2012 30.2077 10.2012 28.5372 11.8717L12.7353 27.6736C12.2239 28.1849 11.3949 28.1849 10.8835 27.6736C10.3722 27.1622 10.3722 26.3331 10.8835 25.8218L26.6854 10.0199C29.3786 7.32673 33.7451 7.32668 36.4382 10.0199C38.0633 11.6449 38.7078 13.8793 38.3716 15.9876C40.4801 15.6519 42.7144 16.2968 44.3394 17.9217L44.4215 18.004C47.1148 20.6972 47.1148 25.0637 44.4215 27.7568L30.1302 42.0483C29.9143 42.2641 29.9143 42.6141 30.1302 42.8299L33.0647 45.7647C33.5761 46.2761 33.5761 47.1052 33.0647 47.6165C32.5533 48.1279 31.7242 48.1278 31.2129 47.6165L28.2784 44.6818C27.0398 43.4432 27.0398 41.4351 28.2784 40.1965L42.5698 25.905C44.2403 24.2346 44.2403 21.5263 42.5698 19.8558L42.4876 19.7735C40.8168 18.1028 38.1084 18.1025 36.4381 19.7726L24.6692 31.5427C24.6587 31.5531 24.6481 31.5634 24.6374 31.5734L24.5045 31.7064C23.9931 32.2177 23.164 32.2177 22.6527 31.7064C22.1413 31.195 22.1413 30.366 22.6527 29.8546L34.5863 17.9209C36.2568 16.2504 36.2568 13.542 34.5863 11.8716ZM32.4878 13.9709C32.9992 14.4823 32.9992 15.3113 32.4878 15.8227L20.8009 27.5095C19.1305 29.18 19.1305 31.8882 20.8009 33.5588C22.4714 35.2291 25.1797 35.229 26.8501 33.5588L38.537 21.8719C39.0483 21.3605 39.8774 21.3605 40.3888 21.8719C40.9001 22.3832 40.9001 23.2123 40.3888 23.7236L28.7019 35.4105C26.0087 38.1035 21.6423 38.1035 18.9492 35.4106C16.256 32.7173 16.256 28.3509 18.9491 25.6578L30.636 13.9709C31.1474 13.4595 31.9765 13.4595 32.4878 13.9709Z" fill="black"/>
</svg>
