<svg width="503" height="178" viewBox="0 0 503 178" fill="none" xmlns="http://www.w3.org/2000/svg">
<rect x="175.179" y="33.0224" width="150.99" height="92.9097" rx="1.96814" fill="white" stroke="url(#paint0_linear_932_91687)" stroke-width="0.357843"/>
<rect x="186.026" y="95.0219" width="129.297" height="18.0518" rx="2.14706" fill="#F8F8F8"/>
<rect x="186.026" y="80.9816" width="129.297" height="6.01726" rx="2.14706" fill="#F3F3F3"/>
<rect x="221.106" y="51.8981" width="94.2166" height="6.01726" rx="2.14706" fill="#F3F3F3"/>
<ellipse cx="199.055" cy="55.9096" rx="13.03" ry="13.0374" fill="#F3F4FA"/>
<g clip-path="url(#clip0_932_91687)">
<path fill-rule="evenodd" clip-rule="evenodd" d="M205.467 58.8745C205.177 58.7881 203.692 58.3748 203.038 58.7758C202.965 58.816 202.901 58.8707 202.849 58.9365C202.798 59.0024 202.761 59.0779 202.739 59.1587C202.718 59.2394 202.713 59.3237 202.725 59.4063C202.738 59.4889 202.766 59.5682 202.81 59.6394C202.894 59.774 203.027 59.871 203.181 59.9101C203.335 59.9491 203.498 59.9273 203.636 59.8491C203.94 59.8166 204.247 59.8396 204.542 59.917C198.045 62.7853 193.328 59.4605 193.119 59.3001C193.058 59.2328 192.983 59.1797 192.899 59.1448C192.815 59.1099 192.724 59.094 192.634 59.0981C192.543 59.1023 192.454 59.1265 192.374 59.1689C192.294 59.2114 192.224 59.2711 192.169 59.3437C192.115 59.4164 192.077 59.5002 192.058 59.5892C192.04 59.6782 192.041 59.7701 192.062 59.8585C192.084 59.9469 192.124 60.0294 192.181 60.1003C192.238 60.1712 192.31 60.2287 192.391 60.2686C194.433 61.6107 196.829 62.313 199.271 62.2857C201.202 62.26 203.107 61.8402 204.869 61.052C204.743 61.3001 204.557 61.5124 204.327 61.6688C204.206 61.7339 204.111 61.8373 204.055 61.9627C204 62.0881 203.988 62.2283 204.021 62.3612C204.055 62.4942 204.131 62.6123 204.239 62.6969C204.347 62.7815 204.479 62.8278 204.616 62.8285C204.715 62.8289 204.812 62.8056 204.9 62.7606C205.96 62.1993 206.552 60.3302 206.663 59.9601C206.897 59.2014 205.523 58.8745 205.467 58.8745Z" fill="#FF9900"/>
<path fill-rule="evenodd" clip-rule="evenodd" d="M194.567 56.2159C194.533 56.5827 194.578 56.9526 194.7 57.3003C194.822 57.6479 195.018 57.9651 195.274 58.2299C195.53 58.4948 195.84 58.7011 196.183 58.8348C196.526 58.9684 196.894 59.0261 197.262 59.004C197.826 59.0379 198.39 58.9363 198.907 58.7078C199.424 58.4792 199.878 58.1303 200.233 57.6902C200.51 58.1381 200.858 58.5381 201.263 58.8745C201.332 58.9078 201.409 58.9224 201.486 58.917C201.562 58.9116 201.636 58.8863 201.7 58.8437C202.076 58.5291 202.73 57.9677 203.075 57.6531C203.138 57.5933 203.177 57.5117 203.182 57.4248C203.188 57.3379 203.161 57.252 203.106 57.1843C202.887 56.9672 202.713 56.7088 202.595 56.4239C202.476 56.1391 202.415 55.8336 202.415 55.525V52.706C202.415 51.5155 202.514 50.4175 201.633 49.6218C200.865 49.0049 199.904 48.6793 198.92 48.7027C196.91 48.7027 195.246 49.5231 194.882 51.4723C194.869 51.513 194.865 51.5562 194.871 51.5986C194.877 51.6409 194.892 51.6814 194.916 51.717C194.939 51.7526 194.971 51.7824 195.008 51.8041C195.045 51.8258 195.086 51.8389 195.128 51.8424L196.886 52.0645C196.966 52.0459 197.039 52.0027 197.095 51.9408C197.15 51.8789 197.184 51.8015 197.194 51.7191C197.272 51.3915 197.462 51.1016 197.731 50.899C198 50.6963 198.331 50.5937 198.667 50.6087C198.86 50.6037 199.052 50.644 199.226 50.7265C199.401 50.809 199.553 50.9314 199.672 51.0837C199.89 51.5751 199.965 52.1183 199.888 52.6505C197.089 52.8602 194.567 53.3229 194.567 56.2159ZM199.543 56.3763C198.926 57.5668 197.194 57.573 197.194 55.9075C197.177 55.5094 197.304 55.1185 197.552 54.8068C197.8 54.4952 198.152 54.2836 198.544 54.2111C198.986 54.1214 199.437 54.08 199.888 54.0878V54.464C199.972 55.1318 199.852 55.8093 199.543 56.4071V56.3763Z" fill="#323232"/>
</g>
<rect x="351.179" y="16.1789" width="150.99" height="92.9097" rx="1.96814" fill="white" stroke="url(#paint1_linear_932_91687)" stroke-width="0.357843"/>
<rect x="362.026" y="78.1784" width="129.297" height="18.0518" rx="2.14706" fill="#F8F8F8"/>
<rect x="362.026" y="64.1381" width="129.297" height="6.01726" rx="2.14706" fill="#F3F3F3"/>
<rect x="397.106" y="35.0546" width="94.2166" height="6.01726" rx="2.14706" fill="#F3F3F3"/>
<ellipse cx="375.055" cy="39.0661" rx="13.0299" ry="13.0374" fill="#F3F4FA"/>
<g clip-path="url(#clip1_932_91687)">
<path d="M382.811 38.8981C382.809 38.5086 382.685 38.1296 382.455 37.815C382.226 37.5004 381.903 37.2663 381.533 37.146C381.163 37.0257 380.764 37.0254 380.393 37.145C380.023 37.2647 379.7 37.4982 379.47 37.8124C378.38 37.1644 377.148 36.7957 375.882 36.7391C375.919 36.0852 376.11 34.9502 376.739 34.5925C377.127 34.3704 377.688 34.4753 378.409 34.8762C378.446 35.2392 378.611 35.5773 378.875 35.8297C379.138 36.0822 379.482 36.2325 379.847 36.2539C380.211 36.2753 380.57 36.1662 380.862 35.9463C381.153 35.7264 381.356 35.41 381.435 35.0538C381.514 34.6975 381.464 34.3248 381.293 34.0022C381.123 33.6797 380.843 33.4284 380.504 33.2935C380.165 33.1585 379.789 33.1487 379.444 33.2658C379.099 33.3829 378.806 33.6192 378.619 33.9324C378.273 33.7116 377.876 33.5827 377.466 33.5578C377.056 33.533 376.647 33.6131 376.276 33.7905C375.179 34.4074 374.988 36.042 374.957 36.7391C373.686 36.7927 372.449 37.1615 371.357 37.8124C371.186 37.5764 370.961 37.384 370.702 37.2511C370.443 37.1182 370.156 37.0484 369.865 37.0475C369.374 37.0475 368.904 37.2425 368.557 37.5895C368.21 37.9366 368.015 38.4073 368.015 38.8981C368.016 39.2857 368.138 39.6634 368.365 39.9777C368.592 40.292 368.911 40.5272 369.279 40.6499C369.26 40.7848 369.249 40.9208 369.248 41.057C369.248 43.4381 372.016 45.375 375.413 45.375C378.81 45.375 381.578 43.4381 381.578 41.057C381.577 40.9208 381.567 40.7848 381.547 40.6499C381.915 40.5272 382.234 40.292 382.461 39.9777C382.688 39.6634 382.81 39.2857 382.811 38.8981ZM372.022 40.1318C372.022 39.9488 372.077 39.7699 372.178 39.6177C372.28 39.4655 372.424 39.3469 372.593 39.2769C372.762 39.2069 372.948 39.1886 373.128 39.2243C373.307 39.26 373.472 39.3481 373.601 39.4775C373.73 39.6069 373.818 39.7718 373.854 39.9512C373.89 40.1307 373.871 40.3168 373.801 40.4858C373.731 40.6549 373.613 40.7994 373.461 40.9011C373.309 41.0028 373.13 41.057 372.947 41.057C372.702 41.057 372.467 40.9595 372.293 40.786C372.12 40.6125 372.022 40.3772 372.022 40.1318ZM377.824 43.216C377.087 43.6275 376.256 43.8401 375.413 43.8329C374.566 43.8408 373.731 43.6283 372.99 43.216C372.887 43.1554 372.812 43.0569 372.781 42.9416C372.75 42.8263 372.765 42.7033 372.824 42.5992C372.884 42.4963 372.982 42.421 373.097 42.3888C373.212 42.3566 373.335 42.3701 373.44 42.4264C374.046 42.7342 374.715 42.8946 375.395 42.8946C376.074 42.8946 376.743 42.7342 377.349 42.4264C377.454 42.3716 377.577 42.3589 377.691 42.391C377.806 42.4231 377.904 42.4975 377.965 42.5992C378.03 42.7024 378.052 42.827 378.025 42.946C377.999 43.065 377.926 43.1687 377.824 43.2345V43.216ZM377.879 41.057C377.696 41.057 377.517 41.0028 377.365 40.9011C377.213 40.7994 377.095 40.6549 377.025 40.4858C376.955 40.3168 376.936 40.1307 376.972 39.9512C377.008 39.7718 377.096 39.6069 377.225 39.4775C377.355 39.3481 377.519 39.26 377.699 39.2243C377.878 39.1886 378.064 39.2069 378.233 39.2769C378.402 39.3469 378.546 39.4655 378.648 39.6177C378.75 39.7699 378.804 39.9488 378.804 40.1318C378.804 40.3772 378.706 40.6125 378.533 40.786C378.36 40.9595 378.124 41.057 377.879 41.057Z" fill="#FF4500"/>
</g>
<rect x="175.179" y="143.952" width="150.99" height="92.9097" rx="1.96814" fill="white" stroke="url(#paint2_linear_932_91687)" stroke-width="0.357843"/>
<rect x="221.106" y="162.828" width="94.2166" height="6.01726" rx="2.14706" fill="#F3F3F3"/>
<ellipse cx="199.055" cy="166.839" rx="13.03" ry="13.0374" fill="#F3F4FA"/>
<g clip-path="url(#clip2_932_91687)">
<path d="M206.392 163.29C206.436 163.254 206.469 163.206 206.487 163.152C206.505 163.097 206.508 163.039 206.495 162.984C206.483 162.928 206.455 162.877 206.415 162.837C206.375 162.796 206.324 162.767 206.269 162.753L205.782 162.636C205.737 162.625 205.695 162.603 205.66 162.574C205.625 162.544 205.597 162.506 205.578 162.463C205.558 162.422 205.548 162.377 205.548 162.331C205.548 162.285 205.558 162.24 205.578 162.198L205.856 161.649C205.882 161.596 205.892 161.535 205.885 161.476C205.878 161.416 205.853 161.36 205.815 161.315C205.776 161.269 205.725 161.235 205.668 161.218C205.61 161.201 205.549 161.201 205.492 161.217L204.259 161.563C204.213 161.575 204.166 161.577 204.12 161.567C204.073 161.558 204.03 161.537 203.994 161.507C203.536 161.164 202.991 160.954 202.421 160.903C201.851 160.852 201.278 160.96 200.766 161.216C200.254 161.472 199.823 161.866 199.522 162.353C199.221 162.841 199.062 163.402 199.062 163.975V164.197C199.062 164.235 199.048 164.271 199.023 164.3C198.998 164.328 198.964 164.347 198.926 164.351C197.194 164.555 195.535 163.673 193.748 161.612C193.71 161.568 193.66 161.535 193.605 161.517C193.549 161.5 193.49 161.499 193.433 161.514C193.379 161.536 193.333 161.574 193.301 161.622C193.268 161.67 193.25 161.727 193.248 161.785C192.998 162.8 193.098 163.869 193.532 164.82C193.545 164.844 193.552 164.872 193.552 164.9C193.552 164.928 193.545 164.956 193.532 164.98C193.515 165.005 193.492 165.024 193.464 165.035C193.437 165.046 193.407 165.048 193.378 165.042L192.681 164.906C192.632 164.9 192.582 164.904 192.535 164.92C192.487 164.937 192.445 164.963 192.41 164.999C192.376 165.035 192.351 165.078 192.338 165.125C192.324 165.172 192.321 165.222 192.33 165.27C192.383 165.744 192.542 166.199 192.795 166.603C193.048 167.006 193.388 167.348 193.791 167.602C193.815 167.616 193.835 167.637 193.848 167.662C193.861 167.687 193.867 167.716 193.865 167.744C193.864 167.773 193.855 167.801 193.839 167.826C193.823 167.85 193.799 167.868 193.772 167.879L193.439 168.009C193.361 168.044 193.298 168.108 193.267 168.188C193.25 168.227 193.242 168.269 193.242 168.311C193.242 168.354 193.25 168.396 193.267 168.435C193.447 168.83 193.721 169.176 194.065 169.442C194.409 169.709 194.812 169.888 195.24 169.964C195.27 169.973 195.297 169.991 195.318 170.015C195.339 170.039 195.352 170.069 195.357 170.1C195.36 170.133 195.352 170.166 195.336 170.195C195.319 170.224 195.294 170.247 195.264 170.26C194.429 170.603 193.534 170.775 192.632 170.766C192.55 170.75 192.465 170.767 192.396 170.813C192.326 170.859 192.278 170.931 192.262 171.013C192.245 171.095 192.262 171.18 192.309 171.249C192.355 171.319 192.427 171.367 192.508 171.383C194.078 172.131 195.789 172.537 197.527 172.574C199.055 172.596 200.556 172.167 201.842 171.34C202.9 170.634 203.767 169.678 204.366 168.555C204.964 167.432 205.274 166.179 205.27 164.906V164.37C205.27 164.325 205.28 164.28 205.299 164.24C205.318 164.199 205.346 164.164 205.381 164.135L206.392 163.29Z" fill="#1DA1F2"/>
<path d="M202.276 164.944C202.066 165.037 201.839 165.1 201.602 165.129C201.844 164.984 202.03 164.753 202.118 164.479C201.891 164.613 201.64 164.711 201.372 164.764C201.158 164.536 200.853 164.393 200.515 164.393C199.866 164.393 199.34 164.919 199.34 165.568C199.34 165.658 199.35 165.748 199.371 165.835C198.394 165.786 197.529 165.318 196.949 164.608C196.848 164.782 196.79 164.984 196.79 165.198C196.79 165.606 196.998 165.966 197.313 166.176C197.126 166.17 196.944 166.12 196.781 166.029V166.044C196.781 166.614 197.186 167.088 197.723 167.196C197.622 167.223 197.518 167.237 197.414 167.237C197.34 167.237 197.266 167.23 197.193 167.216C197.342 167.683 197.776 168.023 198.29 168.032C197.888 168.347 197.381 168.535 196.831 168.535C196.736 168.535 196.643 168.529 196.551 168.519C197.071 168.852 197.688 169.046 198.351 169.046C200.512 169.046 201.693 167.257 201.693 165.704C201.693 165.654 201.692 165.603 201.69 165.552C201.919 165.387 202.119 165.18 202.276 164.945L202.276 164.944Z" fill="#1DA1F2"/>
</g>
<rect x="0.178922" y="111.108" width="150.99" height="92.9097" rx="1.96814" fill="white" stroke="url(#paint3_linear_932_91687)" stroke-width="0.357843"/>
<rect x="11.0254" y="173.108" width="129.297" height="18.0518" rx="2.14706" fill="#F8F8F8"/>
<rect x="11.0254" y="159.068" width="129.297" height="6.01726" rx="2.14706" fill="#F3F3F3"/>
<rect x="46.106" y="129.984" width="94.2166" height="6.01726" rx="2.14706" fill="#F3F3F3"/>
<ellipse cx="24.0553" cy="133.996" rx="13.03" ry="13.0374" fill="#F3F4FA"/>
<g clip-path="url(#clip3_932_91687)">
<path d="M29.3822 128.633H19.4443C18.803 128.643 18.1907 128.902 17.7373 129.355C17.2838 129.809 17.0248 130.422 17.0153 131.063V136.689C17.0248 137.331 17.2838 137.943 17.7373 138.397C18.1907 138.851 18.803 139.11 19.4443 139.119H29.3822C30.0234 139.11 30.6357 138.851 31.0892 138.397C31.5427 137.943 31.8016 137.331 31.8112 136.689V131.063C31.8016 130.422 31.5427 129.809 31.0892 129.355C30.6357 128.902 30.0234 128.643 29.3822 128.633ZM27.2121 133.876L23.0384 136.566C22.9897 136.6 22.9313 136.617 22.872 136.615C22.8203 136.615 22.7695 136.603 22.724 136.578C22.6758 136.551 22.6356 136.511 22.6074 136.464C22.5793 136.416 22.5642 136.362 22.5637 136.307V130.965C22.5642 130.909 22.5793 130.855 22.6074 130.807C22.6356 130.76 22.6758 130.72 22.724 130.693C22.7714 130.664 22.8258 130.649 22.8812 130.649C22.9367 130.649 22.9911 130.664 23.0384 130.693L27.2121 133.364C27.2554 133.392 27.2909 133.431 27.3156 133.476C27.3402 133.521 27.3531 133.572 27.3531 133.623C27.3531 133.675 27.3402 133.726 27.3156 133.771C27.2909 133.816 27.2554 133.854 27.2121 133.882V133.876Z" fill="#FF0000"/>
</g>
<rect x="351.179" y="127.108" width="150.99" height="92.9097" rx="1.96814" fill="white" stroke="url(#paint4_linear_932_91687)" stroke-width="0.357843"/>
<rect x="362.026" y="175.068" width="129.297" height="6.01726" rx="2.14706" fill="#F3F3F3"/>
<rect x="397.106" y="145.984" width="94.2166" height="6.01726" rx="2.14706" fill="#F3F3F3"/>
<ellipse cx="375.055" cy="149.996" rx="13.0299" ry="13.0374" fill="#F3F4FA"/>
<path d="M372.023 147.717H369.557C369.386 147.717 369.248 147.855 369.248 148.026V156.045C369.248 156.215 369.386 156.353 369.557 156.353H372.023C372.193 156.353 372.331 156.215 372.331 156.045V148.026C372.331 147.855 372.193 147.717 372.023 147.717Z" fill="#0A66C2"/>
<path d="M370.778 146.484C371.083 146.486 371.382 146.398 371.637 146.23C371.892 146.062 372.092 145.822 372.21 145.54C372.329 145.259 372.361 144.948 372.303 144.648C372.245 144.348 372.099 144.072 371.884 143.855C371.669 143.639 371.394 143.49 371.095 143.43C370.796 143.369 370.485 143.399 370.203 143.516C369.921 143.632 369.679 143.83 369.509 144.083C369.339 144.337 369.249 144.636 369.249 144.941C369.248 145.143 369.287 145.343 369.363 145.53C369.44 145.716 369.552 145.886 369.694 146.029C369.836 146.173 370.005 146.286 370.191 146.364C370.377 146.442 370.576 146.483 370.778 146.484Z" fill="#0A66C2"/>
<path d="M379.42 156.353H381.27C381.352 156.353 381.43 156.321 381.488 156.263C381.546 156.205 381.578 156.127 381.578 156.045V150.863C381.578 148.538 380.265 147.409 378.428 147.409C378.064 147.396 377.702 147.46 377.364 147.596C377.026 147.732 376.721 147.937 376.467 148.198C376.433 148.236 376.388 148.261 376.338 148.271C376.288 148.281 376.236 148.275 376.19 148.254C376.143 148.237 376.103 148.205 376.075 148.165C376.046 148.124 376.03 148.076 376.03 148.026C376.03 147.944 375.997 147.865 375.939 147.808C375.882 147.75 375.803 147.717 375.721 147.717H373.872C373.79 147.717 373.712 147.75 373.654 147.808C373.596 147.865 373.564 147.944 373.564 148.026V156.045C373.564 156.127 373.596 156.205 373.654 156.263C373.712 156.321 373.79 156.353 373.872 156.353H375.721C375.803 156.353 375.882 156.321 375.939 156.263C375.997 156.205 376.03 156.127 376.03 156.045V151.418C376.03 151.009 376.192 150.617 376.481 150.328C376.77 150.039 377.162 149.876 377.571 149.876C377.98 149.876 378.372 150.039 378.661 150.328C378.95 150.617 379.112 151.009 379.112 151.418V156.045C379.112 156.127 379.145 156.205 379.202 156.263C379.26 156.321 379.339 156.353 379.42 156.353Z" fill="#0A66C2"/>
<rect x="0.178922" y="0.178922" width="150.99" height="92.9097" rx="1.96814" fill="white" stroke="url(#paint5_linear_932_91687)" stroke-width="0.357843"/>
<rect x="11.0254" y="62.1784" width="129.297" height="18.0518" rx="2.14706" fill="#F8F8F8"/>
<rect x="11.0254" y="48.138" width="129.297" height="6.01726" rx="2.14706" fill="#F3F3F3"/>
<rect x="46.106" y="19.0546" width="94.2166" height="6.01726" rx="2.14706" fill="#F3F3F3"/>
<ellipse cx="24.0553" cy="23.0661" rx="13.03" ry="13.0374" fill="#F3F4FA"/>
<g clip-path="url(#clip4_932_91687)">
<path d="M22.2778 16.4357C20.4757 17.0533 18.9386 18.4045 18.0852 20.1081C17.787 20.6969 17.5714 21.3226 17.4431 21.9694C17.116 23.5776 17.3437 25.2897 18.0852 26.7568C18.5658 27.7142 19.2576 28.564 20.0945 29.2273C20.8857 29.8573 21.8053 30.3217 22.7832 30.5828C24.0137 30.9145 25.3268 30.9061 26.5695 30.6242C27.6922 30.3671 28.7527 29.8284 29.5977 29.0492C30.4924 28.2242 31.1305 27.1425 31.4703 25.9778C31.8391 24.7053 31.8888 23.3498 31.6567 22.0483C29.3368 22.0483 27.0168 22.0483 24.6928 22.0483C24.6928 23.01 24.6928 23.9758 24.6928 24.9375C26.0351 24.9375 27.3815 24.9375 28.7235 24.9375C28.566 25.8619 28.0193 26.7033 27.2405 27.2255C26.7515 27.5528 26.1923 27.7685 25.6123 27.868C25.0283 27.9675 24.4275 27.9799 23.8475 27.864C23.2551 27.748 22.6916 27.4991 22.1989 27.1509C21.4117 26.5995 20.8112 25.7873 20.5046 24.8794C20.1899 23.955 20.1855 22.923 20.5046 21.9986C20.7242 21.3477 21.0929 20.7425 21.5776 20.2536C22.174 19.64 22.9488 19.2048 23.7857 19.0267C24.5024 18.8735 25.2563 18.9024 25.9565 19.1138C26.553 19.2962 27.1 19.6195 27.5514 20.0506C28.0071 19.5987 28.4585 19.143 28.9143 18.691C29.1504 18.4464 29.4032 18.2142 29.635 17.9615C28.9472 17.3231 28.1355 16.8093 27.2529 16.486C25.6704 15.8927 23.8767 15.8802 22.2778 16.4357Z" fill="white"/>
<path d="M22.2778 16.4357C23.8768 15.8802 25.6708 15.8927 27.2613 16.4814C28.1436 16.8046 28.9516 17.3187 29.6434 17.9569C29.4114 18.2056 29.1628 18.4418 28.9227 18.6864C28.467 19.1383 28.0156 19.594 27.5599 20.046C27.1082 19.6149 26.5614 19.2875 25.965 19.1091C25.2648 18.8978 24.5108 18.8689 23.7941 19.0221C22.9572 19.2002 22.1828 19.6397 21.586 20.249C21.1014 20.7382 20.7326 21.3434 20.513 21.994C19.7053 21.368 18.8973 20.7379 18.0896 20.1122C18.9386 18.4045 20.4757 17.0533 22.2778 16.4357Z" fill="#E94435"/>
<path d="M17.4431 21.9694C17.5714 21.3229 17.791 20.6968 18.0852 20.1081C18.8929 20.7341 19.7009 21.3642 20.5086 21.9899C20.1896 22.9143 20.1939 23.9463 20.5086 24.8707C19.7009 25.4967 18.8929 26.1268 18.0852 26.7525C17.3437 25.2937 17.116 23.5776 17.4431 21.9694Z" fill="#F8BB15"/>
<path d="M24.6969 22.044C27.0169 22.044 29.3368 22.044 31.6608 22.044C31.8929 23.3454 31.8432 24.701 31.4744 25.9735C31.1349 27.1382 30.4968 28.2242 29.6018 29.0448C28.819 28.4356 28.0318 27.8261 27.253 27.2168C28.0318 26.6987 28.5785 25.8532 28.736 24.9288C27.3937 24.9288 26.0473 24.9288 24.7053 24.9288C24.6929 23.9715 24.6969 23.0097 24.6969 22.044Z" fill="#547DBE"/>
<path d="M18.0853 26.7568C18.893 26.1308 19.701 25.5008 20.5087 24.875C20.8153 25.787 21.4159 26.5952 22.203 27.1466C22.696 27.4947 23.2593 27.7393 23.8517 27.8596C24.4317 27.9756 25.0365 27.9631 25.6165 27.8637C26.1965 27.7642 26.7557 27.5488 27.2446 27.2212C28.0275 27.8304 28.8147 28.4399 29.5935 29.0492C28.7485 29.8325 27.6879 30.3674 26.5652 30.6242C25.3267 30.9061 24.0132 30.9142 22.779 30.5828C21.8014 30.3217 20.8815 29.8573 20.0903 29.2273C19.2577 28.5599 18.5659 27.7101 18.0853 26.7568Z" fill="#34A751"/>
</g>
<defs>
<linearGradient id="paint0_linear_932_91687" x1="326.348" y1="126.111" x2="259.077" y2="-9.01361" gradientUnits="userSpaceOnUse">
<stop stop-color="#D7D7D7" stop-opacity="0.58"/>
<stop offset="0.958166" stop-color="#F5F5F5"/>
</linearGradient>
<linearGradient id="paint1_linear_932_91687" x1="502.348" y1="109.268" x2="435.077" y2="-25.8571" gradientUnits="userSpaceOnUse">
<stop stop-color="#D7D7D7" stop-opacity="0.58"/>
<stop offset="0.958166" stop-color="#F5F5F5"/>
</linearGradient>
<linearGradient id="paint2_linear_932_91687" x1="326.348" y1="237.041" x2="259.077" y2="101.916" gradientUnits="userSpaceOnUse">
<stop stop-color="#D7D7D7" stop-opacity="0.58"/>
<stop offset="0.958166" stop-color="#F5F5F5"/>
</linearGradient>
<linearGradient id="paint3_linear_932_91687" x1="151.348" y1="204.197" x2="84.0775" y2="69.0723" gradientUnits="userSpaceOnUse">
<stop stop-color="#D7D7D7" stop-opacity="0.58"/>
<stop offset="0.958166" stop-color="#F5F5F5"/>
</linearGradient>
<linearGradient id="paint4_linear_932_91687" x1="502.348" y1="220.197" x2="435.077" y2="85.0723" gradientUnits="userSpaceOnUse">
<stop stop-color="#D7D7D7" stop-opacity="0.58"/>
<stop offset="0.958166" stop-color="#F5F5F5"/>
</linearGradient>
<linearGradient id="paint5_linear_932_91687" x1="151.348" y1="93.2676" x2="84.0775" y2="-41.8571" gradientUnits="userSpaceOnUse">
<stop stop-color="#D7D7D7" stop-opacity="0.58"/>
<stop offset="0.958166" stop-color="#F5F5F5"/>
</linearGradient>
<clipPath id="clip0_932_91687">
<rect width="14.7959" height="14.8044" fill="white" transform="translate(192.015 48.3881)"/>
</clipPath>
<clipPath id="clip1_932_91687">
<rect width="14.7959" height="14.8044" fill="white" transform="translate(368.015 31.8043)"/>
</clipPath>
<clipPath id="clip2_932_91687">
<rect width="14.7959" height="14.8044" fill="white" transform="translate(192.015 159.318)"/>
</clipPath>
<clipPath id="clip3_932_91687">
<rect width="14.7959" height="14.8044" fill="white" transform="translate(17.0153 126.474)"/>
</clipPath>
<clipPath id="clip4_932_91687">
<rect width="14.7959" height="14.8044" fill="white" transform="translate(17.1504 16.03)"/>
</clipPath>
</defs>
</svg>
