<svg width="503" height="178" viewBox="0 0 503 178" fill="none" xmlns="http://www.w3.org/2000/svg">
<rect x="175.179" y="33.0224" width="150.99" height="92.9097" rx="1.96814" fill="white" stroke="url(#paint0_linear_2123_36858)" stroke-width="0.357843"/>
<rect x="186.025" y="95.0219" width="129.297" height="18.0518" rx="2.14706" fill="#F8F8F8"/>
<rect x="186.025" y="80.9816" width="129.297" height="6.01726" rx="2.14706" fill="#F3F3F3"/>
<rect x="221.106" y="51.8981" width="94.2166" height="6.01726" rx="2.14706" fill="#F3F3F3"/>
<ellipse cx="199.055" cy="55.9096" rx="13.03" ry="13.0374" fill="#F4F4F5"/>
<g clip-path="url(#clip0_2123_36858)">
<path fill-rule="evenodd" clip-rule="evenodd" d="M205.468 58.8745C205.178 58.7881 203.692 58.3748 203.039 58.7758C202.966 58.816 202.901 58.8707 202.85 58.9365C202.799 59.0023 202.761 59.0779 202.74 59.1587C202.718 59.2394 202.714 59.3237 202.726 59.4063C202.738 59.4889 202.767 59.5682 202.811 59.6394C202.895 59.774 203.028 59.871 203.182 59.9101C203.335 59.9491 203.498 59.9273 203.637 59.8491C203.94 59.8166 204.247 59.8396 204.543 59.9169C198.045 62.7853 193.329 59.4605 193.119 59.3001C193.058 59.2327 192.983 59.1797 192.899 59.1448C192.815 59.1099 192.725 59.0939 192.634 59.0981C192.543 59.1023 192.455 59.1265 192.374 59.1689C192.294 59.2114 192.224 59.2711 192.17 59.3437C192.115 59.4164 192.077 59.5002 192.059 59.5892C192.04 59.6781 192.042 59.7701 192.063 59.8585C192.084 59.9468 192.125 60.0294 192.182 60.1003C192.238 60.1712 192.31 60.2286 192.392 60.2685C194.434 61.6107 196.829 62.313 199.272 62.2856C201.202 62.26 203.107 61.8402 204.87 61.0519C204.744 61.3001 204.557 61.5123 204.327 61.6688C204.207 61.7339 204.111 61.8373 204.056 61.9627C204.001 62.088 203.989 62.2283 204.022 62.3612C204.055 62.4942 204.132 62.6123 204.239 62.6969C204.347 62.7815 204.48 62.8278 204.617 62.8285C204.715 62.8289 204.813 62.8056 204.9 62.7606C205.961 62.1993 206.553 60.3302 206.664 59.9601C206.898 59.2014 205.523 58.8745 205.468 58.8745Z" fill="#FF9900"/>
<path fill-rule="evenodd" clip-rule="evenodd" d="M194.568 56.2159C194.533 56.5827 194.579 56.9526 194.701 57.3003C194.822 57.6479 195.018 57.965 195.274 58.2299C195.53 58.4948 195.84 58.7011 196.183 58.8347C196.526 58.9684 196.894 59.0261 197.262 59.004C197.826 59.0379 198.39 58.9363 198.907 58.7077C199.424 58.4792 199.879 58.1303 200.233 57.6901C200.51 58.1381 200.858 58.5381 201.263 58.8745C201.332 58.9077 201.409 58.9224 201.486 58.917C201.563 58.9116 201.637 58.8863 201.701 58.8436C202.077 58.5291 202.73 57.9677 203.075 57.6531C203.139 57.5933 203.177 57.5117 203.183 57.4248C203.189 57.3378 203.161 57.252 203.106 57.1843C202.887 56.9672 202.713 56.7087 202.595 56.4239C202.476 56.1391 202.415 55.8335 202.416 55.525V52.706C202.416 51.5155 202.514 50.4175 201.633 49.6218C200.865 49.0049 199.905 48.6793 198.92 48.7026C196.911 48.7026 195.246 49.5231 194.882 51.4723C194.869 51.513 194.865 51.5562 194.871 51.5985C194.877 51.6409 194.892 51.6814 194.916 51.717C194.94 51.7526 194.971 51.7824 195.008 51.8041C195.045 51.8258 195.086 51.8389 195.129 51.8424L196.886 52.0645C196.967 52.0459 197.04 52.0027 197.095 51.9408C197.15 51.8789 197.185 51.8014 197.194 51.719C197.273 51.3915 197.463 51.1016 197.731 50.8989C198 50.6963 198.331 50.5937 198.668 50.6087C198.861 50.6037 199.052 50.644 199.227 50.7265C199.401 50.809 199.554 50.9313 199.672 51.0837C199.891 51.5751 199.965 52.1183 199.888 52.6505C197.089 52.8602 194.568 53.3228 194.568 56.2159ZM199.543 56.3763C198.926 57.5668 197.194 57.5729 197.194 55.9074C197.177 55.5094 197.304 55.1185 197.552 54.8068C197.8 54.4951 198.153 54.2836 198.544 54.2111C198.986 54.1214 199.437 54.08 199.888 54.0877V54.464C199.972 55.1317 199.852 55.8093 199.543 56.4071V56.3763Z" fill="#323232"/>
</g>
<rect x="351.179" y="16.1789" width="150.99" height="92.9097" rx="1.96814" fill="white" stroke="url(#paint1_linear_2123_36858)" stroke-width="0.357843"/>
<rect x="362.025" y="78.1783" width="129.297" height="18.0518" rx="2.14706" fill="#F8F8F8"/>
<rect x="362.025" y="64.1381" width="129.297" height="6.01726" rx="2.14706" fill="#F3F3F3"/>
<rect x="397.106" y="35.0546" width="94.2166" height="6.01726" rx="2.14706" fill="#F3F3F3"/>
<ellipse cx="375.055" cy="39.0661" rx="13.0299" ry="13.0374" fill="#F4F4F5"/>
<g clip-path="url(#clip1_2123_36858)">
<path d="M382.811 38.8981C382.809 38.5086 382.685 38.1296 382.455 37.815C382.226 37.5004 381.903 37.2663 381.533 37.146C381.163 37.0257 380.764 37.0254 380.393 37.145C380.023 37.2647 379.7 37.4982 379.47 37.8124C378.38 37.1644 377.148 36.7957 375.882 36.7391C375.919 36.0852 376.11 34.9502 376.739 34.5925C377.127 34.3704 377.688 34.4753 378.409 34.8762C378.446 35.2393 378.611 35.5773 378.875 35.8297C379.138 36.0822 379.482 36.2325 379.847 36.2539C380.211 36.2753 380.57 36.1662 380.862 35.9463C381.153 35.7264 381.356 35.41 381.435 35.0538C381.514 34.6975 381.464 34.3248 381.293 34.0022C381.123 33.6797 380.843 33.4284 380.504 33.2935C380.165 33.1586 379.789 33.1487 379.444 33.2658C379.099 33.3829 378.806 33.6192 378.619 33.9324C378.273 33.7116 377.876 33.5827 377.466 33.5578C377.056 33.533 376.647 33.6131 376.276 33.7906C375.179 34.4074 374.988 36.0421 374.957 36.7391C373.686 36.7927 372.449 37.1615 371.357 37.8124C371.186 37.5764 370.961 37.384 370.702 37.2511C370.443 37.1182 370.156 37.0484 369.865 37.0475C369.374 37.0475 368.904 37.2425 368.557 37.5895C368.21 37.9366 368.015 38.4073 368.015 38.8981C368.016 39.2857 368.138 39.6634 368.365 39.9777C368.592 40.292 368.911 40.5272 369.279 40.6499C369.26 40.7848 369.249 40.9208 369.248 41.057C369.248 43.4381 372.016 45.375 375.413 45.375C378.81 45.375 381.578 43.4381 381.578 41.057C381.577 40.9208 381.567 40.7848 381.547 40.6499C381.915 40.5272 382.234 40.292 382.461 39.9777C382.688 39.6634 382.81 39.2857 382.811 38.8981ZM372.022 40.1318C372.022 39.9488 372.077 39.7699 372.178 39.6177C372.28 39.4656 372.424 39.347 372.593 39.2769C372.762 39.2069 372.948 39.1886 373.128 39.2243C373.307 39.26 373.472 39.3481 373.601 39.4775C373.73 39.6069 373.818 39.7718 373.854 39.9513C373.89 40.1307 373.871 40.3168 373.801 40.4859C373.731 40.6549 373.613 40.7994 373.461 40.9011C373.309 41.0028 373.13 41.057 372.947 41.057C372.702 41.057 372.467 40.9596 372.293 40.786C372.12 40.6125 372.022 40.3772 372.022 40.1318ZM377.824 43.216C377.087 43.6275 376.256 43.8401 375.413 43.8329C374.566 43.8408 373.731 43.6283 372.99 43.216C372.887 43.1554 372.812 43.0569 372.781 42.9416C372.75 42.8263 372.765 42.7033 372.824 42.5992C372.884 42.4963 372.982 42.421 373.097 42.3888C373.212 42.3566 373.335 42.3701 373.44 42.4264C374.046 42.7342 374.715 42.8946 375.395 42.8946C376.074 42.8946 376.743 42.7342 377.349 42.4264C377.454 42.3716 377.577 42.3589 377.691 42.391C377.806 42.4231 377.904 42.4975 377.965 42.5992C378.03 42.7024 378.052 42.827 378.025 42.946C377.999 43.065 377.926 43.1687 377.824 43.2345V43.216ZM377.879 41.057C377.696 41.057 377.517 41.0028 377.365 40.9011C377.213 40.7994 377.095 40.6549 377.025 40.4859C376.955 40.3168 376.936 40.1307 376.972 39.9513C377.008 39.7718 377.096 39.6069 377.225 39.4775C377.355 39.3481 377.519 39.26 377.699 39.2243C377.878 39.1886 378.064 39.2069 378.233 39.2769C378.402 39.347 378.546 39.4656 378.648 39.6177C378.75 39.7699 378.804 39.9488 378.804 40.1318C378.804 40.3772 378.706 40.6125 378.533 40.786C378.36 40.9596 378.124 41.057 377.879 41.057Z" fill="#FF4500"/>
</g>
<rect x="175.179" y="136.952" width="150.99" height="92.9097" rx="1.96814" fill="white" stroke="url(#paint2_linear_2123_36858)" stroke-width="0.357843"/>
<rect x="221.106" y="155.828" width="94.2166" height="6.01726" rx="2.14706" fill="#F3F3F3"/>
<ellipse cx="199.055" cy="159.839" rx="13.03" ry="13.0374" fill="#F4F4F5"/>
<g clip-path="url(#clip2_2123_36858)">
<g clip-path="url(#clip3_2123_36858)">
<path d="M200.645 158.848L205.465 153.243H204.323L200.138 158.11L196.796 153.243H192.94L197.995 160.603L192.94 166.481H194.083L198.502 161.341L202.032 166.481H205.887L200.645 158.848H200.645ZM199.081 160.668L198.569 159.935L194.494 154.103H196.248L199.537 158.81L200.049 159.542L204.323 165.66H202.569L199.081 160.668V160.668Z" fill="black"/>
</g>
</g>
<rect x="0.178922" y="104.108" width="150.99" height="92.9097" rx="1.96814" fill="white" stroke="url(#paint3_linear_2123_36858)" stroke-width="0.357843"/>
<rect x="11.0254" y="166.108" width="129.297" height="18.0518" rx="2.14706" fill="#F8F8F8"/>
<rect x="11.0254" y="152.068" width="129.297" height="6.01726" rx="2.14706" fill="#F3F3F3"/>
<rect x="46.106" y="122.984" width="94.2166" height="6.01726" rx="2.14706" fill="#F3F3F3"/>
<ellipse cx="24.0553" cy="126.996" rx="13.03" ry="13.0374" fill="#F4F4F5"/>
<g clip-path="url(#clip4_2123_36858)">
<path d="M29.3821 121.633H19.4441C18.8029 121.643 18.1906 121.902 17.7371 122.355C17.2837 122.809 17.0247 123.422 17.0151 124.063V129.689C17.0247 130.331 17.2837 130.943 17.7371 131.397C18.1906 131.851 18.8029 132.11 19.4441 132.119H29.3821C30.0233 132.11 30.6356 131.851 31.0891 131.397C31.5425 130.943 31.8015 130.331 31.8111 129.689V124.063C31.8015 123.422 31.5425 122.809 31.0891 122.355C30.6356 121.902 30.0233 121.643 29.3821 121.633ZM27.212 126.876L23.0383 129.566C22.9895 129.6 22.9312 129.617 22.8719 129.615C22.8202 129.615 22.7693 129.603 22.7239 129.578C22.6757 129.551 22.6355 129.511 22.6073 129.464C22.5792 129.416 22.5641 129.362 22.5636 129.307V123.965C22.5641 123.909 22.5792 123.855 22.6073 123.807C22.6355 123.76 22.6757 123.72 22.7239 123.693C22.7713 123.664 22.8256 123.649 22.8811 123.649C22.9366 123.649 22.991 123.664 23.0383 123.693L27.212 126.364C27.2553 126.392 27.2908 126.431 27.3155 126.476C27.3401 126.521 27.353 126.572 27.353 126.623C27.353 126.675 27.3401 126.726 27.3155 126.771C27.2908 126.816 27.2553 126.854 27.212 126.882V126.876Z" fill="#FF0000"/>
</g>
<rect x="351.179" y="120.108" width="150.99" height="92.9097" rx="1.96814" fill="white" stroke="url(#paint4_linear_2123_36858)" stroke-width="0.357843"/>
<rect x="362.025" y="168.068" width="129.297" height="6.01726" rx="2.14706" fill="#F3F3F3"/>
<rect x="397.106" y="138.984" width="94.2166" height="6.01726" rx="2.14706" fill="#F3F3F3"/>
<ellipse cx="375.055" cy="142.996" rx="13.0299" ry="13.0374" fill="#F4F4F5"/>
<path d="M372.022 140.717H369.556C369.386 140.717 369.248 140.855 369.248 141.026V149.045C369.248 149.215 369.386 149.353 369.556 149.353H372.022C372.193 149.353 372.331 149.215 372.331 149.045V141.026C372.331 140.855 372.193 140.717 372.022 140.717Z" fill="#0A66C2"/>
<path d="M370.777 139.484C371.082 139.486 371.382 139.398 371.637 139.23C371.892 139.062 372.091 138.822 372.21 138.54C372.328 138.259 372.36 137.948 372.302 137.648C372.244 137.348 372.099 137.072 371.883 136.855C371.668 136.639 371.394 136.49 371.095 136.43C370.795 136.369 370.485 136.399 370.202 136.516C369.92 136.632 369.679 136.83 369.509 137.083C369.339 137.337 369.248 137.636 369.248 137.941C369.247 138.143 369.286 138.343 369.363 138.53C369.439 138.716 369.551 138.886 369.693 139.029C369.835 139.173 370.004 139.286 370.19 139.364C370.376 139.442 370.575 139.483 370.777 139.484Z" fill="#0A66C2"/>
<path d="M379.42 149.353H381.27C381.351 149.353 381.43 149.321 381.488 149.263C381.545 149.205 381.578 149.127 381.578 149.045V143.863C381.578 141.538 380.265 140.409 378.428 140.409C378.064 140.396 377.701 140.46 377.364 140.596C377.026 140.732 376.721 140.937 376.467 141.198C376.433 141.236 376.387 141.261 376.337 141.271C376.288 141.281 376.236 141.275 376.19 141.254C376.143 141.237 376.103 141.205 376.074 141.165C376.046 141.124 376.03 141.076 376.029 141.026C376.029 140.944 375.997 140.865 375.939 140.808C375.881 140.75 375.803 140.717 375.721 140.717H373.872C373.79 140.717 373.712 140.75 373.654 140.808C373.596 140.865 373.563 140.944 373.563 141.026V149.045C373.563 149.127 373.596 149.205 373.654 149.263C373.712 149.321 373.79 149.353 373.872 149.353H375.721C375.803 149.353 375.881 149.321 375.939 149.263C375.997 149.205 376.029 149.127 376.029 149.045V144.418C376.029 144.009 376.192 143.617 376.481 143.328C376.77 143.039 377.162 142.876 377.571 142.876C377.979 142.876 378.371 143.039 378.661 143.328C378.95 143.617 379.112 144.009 379.112 144.418V149.045C379.112 149.127 379.144 149.205 379.202 149.263C379.26 149.321 379.338 149.353 379.42 149.353Z" fill="#0A66C2"/>
<rect x="0.178922" y="0.178922" width="150.99" height="92.9097" rx="1.96814" fill="white" stroke="url(#paint5_linear_2123_36858)" stroke-width="0.357843"/>
<rect x="11.0254" y="62.1783" width="129.297" height="18.0518" rx="2.14706" fill="#F8F8F8"/>
<rect x="11.0254" y="48.138" width="129.297" height="6.01726" rx="2.14706" fill="#F3F3F3"/>
<rect x="46.106" y="19.0546" width="94.2166" height="6.01726" rx="2.14706" fill="#F3F3F3"/>
<ellipse cx="24.0553" cy="23.0661" rx="13.03" ry="13.0374" fill="#F4F4F5"/>
<g clip-path="url(#clip5_2123_36858)">
<path d="M22.2778 16.4357C20.4757 17.0533 18.9386 18.4045 18.0852 20.1082C17.787 20.6969 17.5714 21.3226 17.4431 21.9694C17.116 23.5776 17.3437 25.2897 18.0852 26.7568C18.5658 27.7142 19.2576 28.564 20.0945 29.2273C20.8857 29.8574 21.8053 30.3217 22.7832 30.5828C24.0137 30.9145 25.3268 30.9061 26.5695 30.6242C27.6922 30.3671 28.7527 29.8284 29.5977 29.0492C30.4924 28.2242 31.1305 27.1425 31.4703 25.9779C31.8391 24.7053 31.8888 23.3498 31.6567 22.0483C29.3368 22.0483 27.0168 22.0483 24.6928 22.0483C24.6928 23.01 24.6928 23.9758 24.6928 24.9375C26.0351 24.9375 27.3815 24.9375 28.7235 24.9375C28.566 25.8619 28.0193 26.7033 27.2405 27.2255C26.7515 27.5528 26.1923 27.7686 25.6123 27.868C25.0283 27.9675 24.4275 27.9799 23.8475 27.864C23.2551 27.748 22.6916 27.4991 22.1989 27.1509C21.4117 26.5995 20.8112 25.7873 20.5046 24.8794C20.1899 23.955 20.1855 22.923 20.5046 21.9986C20.7242 21.3477 21.0929 20.7425 21.5776 20.2536C22.174 19.64 22.9488 19.2049 23.7857 19.0267C24.5024 18.8735 25.2563 18.9024 25.9565 19.1138C26.553 19.2962 27.1 19.6195 27.5514 20.0506C28.0071 19.5987 28.4585 19.143 28.9143 18.691C29.1504 18.4464 29.4032 18.2142 29.635 17.9615C28.9472 17.3231 28.1355 16.8093 27.2529 16.486C25.6704 15.8927 23.8767 15.8802 22.2778 16.4357Z" fill="white"/>
<path d="M22.2776 16.4357C23.8765 15.8802 25.6705 15.8927 27.2611 16.4814C28.1434 16.8047 28.9514 17.3188 29.6432 17.9569C29.4111 18.2056 29.1626 18.4418 28.9225 18.6864C28.4667 19.1384 28.0153 19.5941 27.5596 20.046C27.1079 19.6149 26.5612 19.2876 25.9647 19.1092C25.2645 18.8978 24.5106 18.8689 23.7939 19.0221C22.957 19.2002 22.1825 19.6397 21.5858 20.249C21.1011 20.7382 20.7324 21.3434 20.5128 21.994C19.7051 21.368 18.8971 20.7379 18.0894 20.1122C18.9384 18.4045 20.4755 17.0533 22.2776 16.4357Z" fill="#E94435"/>
<path d="M17.4431 21.9694C17.5714 21.3229 17.791 20.6969 18.0852 20.1082C18.8929 20.7342 19.7009 21.3642 20.5086 21.9899C20.1896 22.9143 20.1939 23.9463 20.5086 24.8707C19.7009 25.4967 18.8929 26.1268 18.0852 26.7525C17.3437 25.2937 17.116 23.5776 17.4431 21.9694Z" fill="#F8BB15"/>
<path d="M24.6969 22.044C27.0169 22.044 29.3368 22.044 31.6608 22.044C31.8929 23.3454 31.8432 24.701 31.4744 25.9735C31.1349 27.1382 30.4968 28.2242 29.6018 29.0448C28.819 28.4356 28.0318 27.8261 27.253 27.2168C28.0318 26.6987 28.5785 25.8532 28.736 24.9288C27.3937 24.9288 26.0473 24.9288 24.7053 24.9288C24.6929 23.9714 24.6969 23.0097 24.6969 22.044Z" fill="#547DBE"/>
<path d="M18.085 26.7568C18.8927 26.1308 19.7007 25.5007 20.5084 24.875C20.815 25.787 21.4155 26.5952 22.2027 27.1466C22.6957 27.4947 23.2589 27.7393 23.8513 27.8596C24.4313 27.9756 25.0362 27.9631 25.6161 27.8637C26.1961 27.7642 26.7553 27.5488 27.2443 27.2212C28.0271 27.8304 28.8143 28.4399 29.5931 29.0492C28.7481 29.8325 27.6876 30.3674 26.5649 30.6242C25.3263 30.9061 24.0129 30.9142 22.7786 30.5828C21.801 30.3217 20.8812 29.8573 20.0899 29.2273C19.2574 28.5599 18.5655 27.7101 18.085 26.7568Z" fill="#34A751"/>
</g>
<defs>
<linearGradient id="paint0_linear_2123_36858" x1="326.348" y1="126.111" x2="259.077" y2="-9.01361" gradientUnits="userSpaceOnUse">
<stop stop-color="#D7D7D7" stop-opacity="0.58"/>
<stop offset="0.958166" stop-color="#F5F5F5"/>
</linearGradient>
<linearGradient id="paint1_linear_2123_36858" x1="502.348" y1="109.268" x2="435.077" y2="-25.8571" gradientUnits="userSpaceOnUse">
<stop stop-color="#D7D7D7" stop-opacity="0.58"/>
<stop offset="0.958166" stop-color="#F5F5F5"/>
</linearGradient>
<linearGradient id="paint2_linear_2123_36858" x1="326.348" y1="230.041" x2="259.077" y2="94.9158" gradientUnits="userSpaceOnUse">
<stop stop-color="#D7D7D7" stop-opacity="0.58"/>
<stop offset="0.958166" stop-color="#F5F5F5"/>
</linearGradient>
<linearGradient id="paint3_linear_2123_36858" x1="151.348" y1="197.197" x2="84.0775" y2="62.0723" gradientUnits="userSpaceOnUse">
<stop stop-color="#D7D7D7" stop-opacity="0.58"/>
<stop offset="0.958166" stop-color="#F5F5F5"/>
</linearGradient>
<linearGradient id="paint4_linear_2123_36858" x1="502.348" y1="213.197" x2="435.077" y2="78.0723" gradientUnits="userSpaceOnUse">
<stop stop-color="#D7D7D7" stop-opacity="0.58"/>
<stop offset="0.958166" stop-color="#F5F5F5"/>
</linearGradient>
<linearGradient id="paint5_linear_2123_36858" x1="151.348" y1="93.2676" x2="84.0775" y2="-41.8571" gradientUnits="userSpaceOnUse">
<stop stop-color="#D7D7D7" stop-opacity="0.58"/>
<stop offset="0.958166" stop-color="#F5F5F5"/>
</linearGradient>
<clipPath id="clip0_2123_36858">
<rect width="14.7959" height="14.8044" fill="white" transform="translate(192.016 48.3881)"/>
</clipPath>
<clipPath id="clip1_2123_36858">
<rect width="14.7959" height="14.8044" fill="white" transform="translate(368.015 31.8043)"/>
</clipPath>
<clipPath id="clip2_2123_36858">
<rect width="14.7959" height="14.8044" fill="white" transform="translate(192.016 152.318)"/>
</clipPath>
<clipPath id="clip3_2123_36858">
<rect width="14.7959" height="14.8044" fill="white" transform="translate(192.016 152.318)"/>
</clipPath>
<clipPath id="clip4_2123_36858">
<rect width="14.7959" height="14.8044" fill="white" transform="translate(17.0151 119.474)"/>
</clipPath>
<clipPath id="clip5_2123_36858">
<rect width="14.7959" height="14.8044" fill="white" transform="translate(17.1504 16.03)"/>
</clipPath>
</defs>
</svg>
