<svg width="503" height="178" viewBox="0 0 503 178" fill="none" xmlns="http://www.w3.org/2000/svg">
<rect x="175.179" y="33.0224" width="150.99" height="92.9097" rx="1.96814" fill="#1A1B21" stroke="#414758" stroke-width="0.357843"/>
<rect x="186.025" y="95.0219" width="129.297" height="18.0518" rx="2.14706" fill="#373737"/>
<rect x="186.204" y="81.1605" width="128.939" height="5.65942" rx="1.96814" fill="#353535" stroke="#414758" stroke-width="0.357843"/>
<rect x="221.285" y="52.0771" width="93.8587" height="5.65942" rx="1.96814" fill="#353535" stroke="#414758" stroke-width="0.357843"/>
<path d="M211.906 55.9096C211.906 63.0112 206.153 68.7681 199.055 68.7681C191.958 68.7681 186.204 63.0112 186.204 55.9096C186.204 48.808 191.958 43.0511 199.055 43.0511C206.153 43.0511 211.906 48.808 211.906 55.9096Z" fill="#F3F4FA" stroke="#414758" stroke-width="0.357843"/>
<g clip-path="url(#clip0_2165_34396)">
<path fill-rule="evenodd" clip-rule="evenodd" d="M205.468 58.8745C205.178 58.7881 203.692 58.3748 203.039 58.7758C202.966 58.816 202.901 58.8707 202.85 58.9365C202.799 59.0023 202.761 59.0779 202.74 59.1587C202.718 59.2394 202.714 59.3237 202.726 59.4063C202.738 59.4889 202.767 59.5682 202.811 59.6394C202.895 59.774 203.028 59.871 203.182 59.9101C203.335 59.9491 203.498 59.9273 203.637 59.8491C203.94 59.8166 204.247 59.8396 204.543 59.9169C198.045 62.7853 193.329 59.4605 193.119 59.3001C193.058 59.2327 192.983 59.1797 192.899 59.1448C192.815 59.1099 192.725 59.0939 192.634 59.0981C192.543 59.1023 192.455 59.1265 192.374 59.1689C192.294 59.2114 192.224 59.2711 192.17 59.3437C192.115 59.4164 192.077 59.5002 192.059 59.5892C192.04 59.6781 192.042 59.7701 192.063 59.8585C192.084 59.9468 192.125 60.0294 192.182 60.1003C192.238 60.1712 192.31 60.2286 192.392 60.2685C194.434 61.6107 196.829 62.313 199.272 62.2856C201.202 62.26 203.107 61.8402 204.87 61.0519C204.744 61.3001 204.557 61.5123 204.327 61.6688C204.207 61.7339 204.111 61.8373 204.056 61.9627C204.001 62.088 203.989 62.2283 204.022 62.3612C204.055 62.4942 204.132 62.6123 204.239 62.6969C204.347 62.7815 204.48 62.8278 204.617 62.8285C204.715 62.8289 204.813 62.8056 204.9 62.7606C205.961 62.1993 206.553 60.3302 206.664 59.9601C206.898 59.2014 205.523 58.8745 205.468 58.8745Z" fill="#FF9900"/>
<path fill-rule="evenodd" clip-rule="evenodd" d="M194.568 56.2159C194.533 56.5827 194.579 56.9526 194.701 57.3003C194.822 57.6479 195.018 57.965 195.274 58.2299C195.53 58.4948 195.84 58.7011 196.183 58.8347C196.526 58.9684 196.894 59.0261 197.262 59.004C197.826 59.0379 198.39 58.9363 198.907 58.7077C199.424 58.4792 199.879 58.1303 200.233 57.6901C200.51 58.1381 200.858 58.5381 201.263 58.8745C201.332 58.9077 201.409 58.9224 201.486 58.917C201.563 58.9116 201.637 58.8863 201.701 58.8436C202.077 58.5291 202.73 57.9677 203.075 57.6531C203.139 57.5933 203.177 57.5117 203.183 57.4248C203.189 57.3378 203.161 57.252 203.106 57.1843C202.887 56.9672 202.713 56.7087 202.595 56.4239C202.476 56.1391 202.415 55.8335 202.416 55.525V52.706C202.416 51.5155 202.514 50.4175 201.633 49.6218C200.865 49.0049 199.905 48.6793 198.92 48.7026C196.911 48.7026 195.246 49.5231 194.882 51.4723C194.869 51.513 194.865 51.5562 194.871 51.5985C194.877 51.6409 194.892 51.6814 194.916 51.717C194.94 51.7526 194.971 51.7824 195.008 51.8041C195.045 51.8258 195.086 51.8389 195.129 51.8424L196.886 52.0645C196.967 52.0459 197.04 52.0027 197.095 51.9408C197.15 51.8789 197.185 51.8014 197.194 51.719C197.273 51.3915 197.463 51.1016 197.731 50.8989C198 50.6963 198.331 50.5937 198.668 50.6087C198.861 50.6037 199.052 50.644 199.227 50.7265C199.401 50.809 199.554 50.9313 199.672 51.0837C199.891 51.5751 199.965 52.1183 199.888 52.6505C197.089 52.8602 194.568 53.3228 194.568 56.2159ZM199.543 56.3763C198.926 57.5668 197.194 57.5729 197.194 55.9074C197.177 55.5094 197.304 55.1185 197.552 54.8068C197.8 54.4951 198.153 54.2836 198.544 54.2111C198.986 54.1214 199.437 54.08 199.888 54.0877V54.464C199.972 55.1317 199.852 55.8093 199.543 56.4071V56.3763Z" fill="#323232"/>
</g>
<rect x="351.179" y="16.1789" width="150.99" height="92.9097" rx="1.96814" fill="#1A1B21" stroke="#414758" stroke-width="0.357843"/>
<rect x="362.025" y="78.1783" width="129.297" height="18.0518" rx="2.14706" fill="#373737"/>
<rect x="362.204" y="64.317" width="128.939" height="5.65942" rx="1.96814" fill="#353535" stroke="#414758" stroke-width="0.357843"/>
<rect x="397.285" y="35.2335" width="93.8587" height="5.65942" rx="1.96814" fill="#353535" stroke="#414758" stroke-width="0.357843"/>
<path d="M387.906 39.0661C387.906 46.1677 382.153 51.9245 375.055 51.9245C367.958 51.9245 362.204 46.1677 362.204 39.0661C362.204 31.9644 367.958 26.2076 375.055 26.2076C382.153 26.2076 387.906 31.9644 387.906 39.0661Z" fill="#F3F4FA" stroke="#414758" stroke-width="0.357843"/>
<g clip-path="url(#clip1_2165_34396)">
<path d="M382.812 38.8981C382.81 38.5086 382.685 38.1296 382.456 37.815C382.226 37.5004 381.904 37.2663 381.533 37.146C381.163 37.0257 380.764 37.0254 380.394 37.145C380.023 37.2647 379.7 37.4982 379.47 37.8124C378.381 37.1644 377.148 36.7957 375.882 36.7391C375.919 36.0852 376.11 34.9502 376.739 34.5925C377.127 34.3704 377.688 34.4753 378.41 34.8762C378.447 35.2393 378.612 35.5773 378.875 35.8297C379.138 36.0822 379.483 36.2325 379.847 36.2539C380.211 36.2753 380.571 36.1662 380.862 35.9463C381.153 35.7264 381.356 35.41 381.435 35.0538C381.515 34.6975 381.464 34.3248 381.294 34.0022C381.123 33.6797 380.843 33.4284 380.505 33.2935C380.166 33.1586 379.79 33.1487 379.444 33.2658C379.099 33.3829 378.807 33.6192 378.619 33.9324C378.273 33.7116 377.876 33.5827 377.466 33.5578C377.057 33.533 376.647 33.6131 376.277 33.7906C375.179 34.4074 374.988 36.0421 374.957 36.7391C373.687 36.7927 372.45 37.1615 371.357 37.8124C371.186 37.5764 370.962 37.384 370.703 37.2511C370.443 37.1182 370.156 37.0484 369.865 37.0475C369.375 37.0475 368.904 37.2425 368.557 37.5895C368.21 37.9366 368.016 38.4073 368.016 38.8981C368.016 39.2857 368.139 39.6634 368.365 39.9777C368.592 40.292 368.912 40.5272 369.279 40.6499C369.26 40.7848 369.25 40.9208 369.249 41.057C369.249 43.4381 372.017 45.375 375.414 45.375C378.81 45.375 381.579 43.4381 381.579 41.057C381.577 40.9208 381.567 40.7848 381.548 40.6499C381.915 40.5272 382.235 40.292 382.462 39.9777C382.688 39.6634 382.811 39.2857 382.812 38.8981ZM372.023 40.1318C372.023 39.9488 372.077 39.7699 372.179 39.6177C372.28 39.4656 372.425 39.347 372.594 39.2769C372.763 39.2069 372.949 39.1886 373.128 39.2243C373.307 39.26 373.472 39.3481 373.601 39.4775C373.731 39.6069 373.819 39.7718 373.855 39.9513C373.89 40.1307 373.872 40.3168 373.802 40.4859C373.732 40.6549 373.613 40.7994 373.461 40.9011C373.309 41.0028 373.13 41.057 372.948 41.057C372.702 41.057 372.467 40.9596 372.294 40.786C372.12 40.6125 372.023 40.3772 372.023 40.1318ZM377.824 43.216C377.088 43.6275 376.257 43.8401 375.414 43.8329C374.566 43.8408 373.731 43.6283 372.991 43.216C372.888 43.1554 372.813 43.0569 372.782 42.9416C372.751 42.8263 372.766 42.7033 372.824 42.5992C372.885 42.4963 372.983 42.421 373.098 42.3888C373.213 42.3566 373.336 42.3701 373.441 42.4264C374.046 42.7342 374.716 42.8946 375.395 42.8946C376.074 42.8946 376.744 42.7342 377.349 42.4264C377.455 42.3716 377.577 42.3589 377.692 42.391C377.806 42.4231 377.904 42.4975 377.966 42.5992C378.031 42.7024 378.052 42.827 378.026 42.946C377.999 43.065 377.927 43.1687 377.824 43.2345V43.216ZM377.88 41.057C377.697 41.057 377.518 41.0028 377.366 40.9011C377.214 40.7994 377.095 40.6549 377.025 40.4859C376.955 40.3168 376.937 40.1307 376.973 39.9513C377.008 39.7718 377.096 39.6069 377.226 39.4775C377.355 39.3481 377.52 39.26 377.699 39.2243C377.879 39.1886 378.064 39.2069 378.233 39.2769C378.402 39.347 378.547 39.4656 378.648 39.6177C378.75 39.7699 378.804 39.9488 378.804 40.1318C378.804 40.3772 378.707 40.6125 378.533 40.786C378.36 40.9596 378.125 41.057 377.88 41.057Z" fill="#FF4500"/>
</g>
<rect x="175.179" y="143.952" width="150.99" height="92.9097" rx="1.96814" fill="#1A1B21" stroke="#414758" stroke-width="0.357843"/>
<rect x="221.285" y="163.007" width="93.8587" height="5.65942" rx="1.96814" fill="#353535" stroke="#414758" stroke-width="0.357843"/>
<path d="M211.906 166.839C211.906 173.941 206.153 179.698 199.055 179.698C191.958 179.698 186.204 173.941 186.204 166.839C186.204 159.737 191.958 153.981 199.055 153.981C206.153 153.981 211.906 159.737 211.906 166.839Z" fill="#F3F4FA" stroke="#414758" stroke-width="0.357843"/>
<g clip-path="url(#clip2_2165_34396)">
<path d="M206.392 163.29C206.436 163.254 206.469 163.206 206.487 163.152C206.505 163.097 206.508 163.039 206.495 162.984C206.483 162.928 206.455 162.877 206.415 162.836C206.375 162.796 206.324 162.767 206.269 162.753L205.782 162.636C205.737 162.625 205.695 162.603 205.66 162.574C205.625 162.544 205.597 162.506 205.578 162.463C205.559 162.422 205.548 162.377 205.548 162.331C205.548 162.285 205.559 162.24 205.578 162.198L205.856 161.649C205.882 161.595 205.892 161.535 205.885 161.476C205.878 161.416 205.853 161.36 205.815 161.315C205.776 161.269 205.725 161.235 205.668 161.218C205.61 161.201 205.549 161.201 205.492 161.217L204.259 161.563C204.214 161.575 204.166 161.577 204.12 161.567C204.074 161.558 204.03 161.537 203.994 161.507C203.536 161.164 202.991 160.954 202.421 160.903C201.851 160.852 201.278 160.96 200.766 161.216C200.254 161.472 199.823 161.866 199.522 162.353C199.221 162.841 199.062 163.402 199.062 163.975V164.197C199.062 164.235 199.049 164.271 199.024 164.3C198.998 164.328 198.964 164.346 198.926 164.351C197.194 164.555 195.536 163.672 193.748 161.612C193.71 161.568 193.66 161.535 193.605 161.517C193.549 161.5 193.49 161.499 193.433 161.514C193.38 161.536 193.334 161.574 193.301 161.622C193.268 161.67 193.25 161.727 193.248 161.785C192.999 162.8 193.098 163.869 193.532 164.82C193.545 164.844 193.553 164.872 193.553 164.9C193.553 164.928 193.545 164.956 193.532 164.98C193.515 165.005 193.492 165.024 193.464 165.035C193.437 165.046 193.407 165.048 193.378 165.042L192.681 164.906C192.632 164.9 192.582 164.904 192.535 164.92C192.488 164.936 192.445 164.963 192.41 164.999C192.376 165.035 192.352 165.078 192.338 165.125C192.324 165.172 192.321 165.222 192.33 165.27C192.383 165.744 192.542 166.199 192.795 166.603C193.048 167.006 193.388 167.348 193.791 167.602C193.815 167.616 193.835 167.637 193.848 167.662C193.861 167.687 193.867 167.716 193.865 167.744C193.865 167.773 193.856 167.801 193.839 167.826C193.823 167.85 193.799 167.868 193.772 167.879L193.439 168.009C193.361 168.043 193.299 168.108 193.267 168.188C193.25 168.227 193.242 168.269 193.242 168.311C193.242 168.354 193.25 168.396 193.267 168.435C193.448 168.83 193.721 169.176 194.065 169.442C194.409 169.709 194.812 169.888 195.24 169.964C195.27 169.973 195.297 169.991 195.318 170.015C195.339 170.039 195.352 170.069 195.357 170.1C195.36 170.133 195.353 170.166 195.336 170.195C195.319 170.224 195.294 170.247 195.264 170.26C194.429 170.603 193.534 170.775 192.632 170.766C192.55 170.75 192.465 170.767 192.396 170.813C192.326 170.859 192.278 170.931 192.262 171.013C192.246 171.095 192.262 171.18 192.309 171.249C192.355 171.319 192.427 171.367 192.509 171.383C194.078 172.131 195.789 172.537 197.527 172.574C199.055 172.596 200.556 172.167 201.842 171.34C202.901 170.634 203.767 169.678 204.366 168.555C204.964 167.432 205.275 166.178 205.27 164.906V164.37C205.27 164.325 205.28 164.28 205.299 164.24C205.318 164.199 205.346 164.164 205.381 164.135L206.392 163.29Z" fill="#1DA1F2"/>
<path d="M202.276 164.944C202.066 165.037 201.84 165.1 201.602 165.129C201.844 164.984 202.03 164.753 202.118 164.479C201.891 164.613 201.64 164.711 201.372 164.764C201.158 164.536 200.853 164.393 200.515 164.393C199.866 164.393 199.34 164.919 199.34 165.568C199.34 165.658 199.351 165.748 199.371 165.835C198.394 165.786 197.529 165.318 196.949 164.608C196.849 164.782 196.791 164.984 196.791 165.198C196.791 165.606 196.998 165.966 197.313 166.176C197.127 166.17 196.944 166.12 196.781 166.029V166.044C196.781 166.614 197.186 167.088 197.723 167.196C197.622 167.224 197.518 167.237 197.414 167.237C197.34 167.237 197.266 167.23 197.193 167.216C197.342 167.683 197.776 168.023 198.29 168.032C197.888 168.347 197.381 168.535 196.831 168.535C196.736 168.535 196.643 168.529 196.551 168.519C197.071 168.852 197.688 169.046 198.351 169.046C200.512 169.046 201.694 167.257 201.694 165.704C201.694 165.654 201.692 165.603 201.69 165.552C201.919 165.387 202.119 165.18 202.276 164.945L202.276 164.944Z" fill="#1DA1F2"/>
</g>
<rect x="0.178922" y="111.108" width="150.99" height="92.9097" rx="1.96814" fill="#1A1B21" stroke="#414758" stroke-width="0.357843"/>
<rect x="11.0254" y="173.108" width="129.297" height="18.0518" rx="2.14706" fill="#373737"/>
<rect x="11.2043" y="159.246" width="128.939" height="5.65942" rx="1.96814" fill="#353535" stroke="#414758" stroke-width="0.357843"/>
<rect x="46.2844" y="130.163" width="93.8587" height="5.65942" rx="1.96814" fill="#353535" stroke="#414758" stroke-width="0.357843"/>
<path d="M36.9064 133.996C36.9064 141.097 31.1527 146.854 24.0553 146.854C16.958 146.854 11.2043 141.097 11.2043 133.996C11.2043 126.894 16.958 121.137 24.0553 121.137C31.1527 121.137 36.9064 126.894 36.9064 133.996Z" fill="#F3F4FA" stroke="#414758" stroke-width="0.357843"/>
<g clip-path="url(#clip3_2165_34396)">
<path d="M29.3825 128.633H19.4446C18.8034 128.643 18.1911 128.902 17.7376 129.355C17.2842 129.809 17.0252 130.422 17.0156 131.063V136.689C17.0252 137.331 17.2842 137.943 17.7376 138.397C18.1911 138.851 18.8034 139.11 19.4446 139.119H29.3825C30.0238 139.11 30.6361 138.851 31.0895 138.397C31.543 137.943 31.802 137.331 31.8115 136.689V131.063C31.802 130.422 31.543 129.809 31.0895 129.355C30.6361 128.902 30.0238 128.643 29.3825 128.633ZM27.2125 133.876L23.0388 136.566C22.99 136.6 22.9317 136.617 22.8723 136.615C22.8207 136.615 22.7698 136.603 22.7244 136.578C22.6762 136.551 22.636 136.511 22.6078 136.464C22.5797 136.416 22.5646 136.362 22.5641 136.307V130.965C22.5646 130.909 22.5797 130.855 22.6078 130.807C22.636 130.76 22.6762 130.72 22.7244 130.693C22.7717 130.664 22.8261 130.649 22.8816 130.649C22.9371 130.649 22.9914 130.664 23.0388 130.693L27.2125 133.364C27.2557 133.392 27.2913 133.431 27.3159 133.476C27.3406 133.521 27.3535 133.572 27.3535 133.623C27.3535 133.675 27.3406 133.726 27.3159 133.771C27.2913 133.816 27.2557 133.854 27.2125 133.882V133.876Z" fill="#FF0000"/>
</g>
<rect x="351.179" y="127.108" width="150.99" height="92.9097" rx="1.96814" fill="#1A1B21" stroke="#414758" stroke-width="0.357843"/>
<rect x="362.204" y="175.246" width="128.939" height="5.65942" rx="1.96814" fill="#353535" stroke="#414758" stroke-width="0.357843"/>
<rect x="397.285" y="146.163" width="93.8587" height="5.65942" rx="1.96814" fill="#353535" stroke="#414758" stroke-width="0.357843"/>
<path d="M387.906 149.996C387.906 157.097 382.153 162.854 375.055 162.854C367.958 162.854 362.204 157.097 362.204 149.996C362.204 142.894 367.958 137.137 375.055 137.137C382.153 137.137 387.906 142.894 387.906 149.996Z" fill="#F3F4FA" stroke="#414758" stroke-width="0.357843"/>
<path d="M372.023 147.717H369.557C369.387 147.717 369.249 147.855 369.249 148.026V156.045C369.249 156.215 369.387 156.353 369.557 156.353H372.023C372.194 156.353 372.332 156.215 372.332 156.045V148.026C372.332 147.855 372.194 147.717 372.023 147.717Z" fill="#0A66C2"/>
<path d="M370.778 146.484C371.083 146.486 371.382 146.398 371.638 146.23C371.893 146.062 372.092 145.822 372.211 145.54C372.329 145.259 372.361 144.948 372.303 144.648C372.245 144.348 372.1 144.072 371.884 143.855C371.669 143.639 371.395 143.49 371.096 143.43C370.796 143.369 370.486 143.399 370.203 143.516C369.921 143.632 369.68 143.83 369.51 144.083C369.34 144.337 369.249 144.636 369.249 144.941C369.248 145.143 369.287 145.343 369.364 145.53C369.44 145.716 369.552 145.886 369.694 146.029C369.836 146.173 370.005 146.286 370.191 146.364C370.377 146.442 370.576 146.483 370.778 146.484Z" fill="#0A66C2"/>
<path d="M379.421 156.353H381.271C381.352 156.353 381.431 156.321 381.489 156.263C381.546 156.205 381.579 156.127 381.579 156.045V150.863C381.579 148.538 380.266 147.409 378.429 147.409C378.065 147.396 377.702 147.46 377.365 147.596C377.027 147.732 376.722 147.937 376.468 148.198C376.434 148.236 376.388 148.261 376.338 148.271C376.289 148.281 376.237 148.275 376.191 148.254C376.144 148.237 376.104 148.205 376.075 148.165C376.047 148.124 376.031 148.076 376.03 148.026C376.03 147.944 375.998 147.865 375.94 147.808C375.882 147.75 375.804 147.717 375.722 147.717H373.873C373.791 147.717 373.713 147.75 373.655 147.808C373.597 147.865 373.564 147.944 373.564 148.026V156.045C373.564 156.127 373.597 156.205 373.655 156.263C373.713 156.321 373.791 156.353 373.873 156.353H375.722C375.804 156.353 375.882 156.321 375.94 156.263C375.998 156.205 376.03 156.127 376.03 156.045V151.418C376.03 151.009 376.193 150.617 376.482 150.328C376.771 150.039 377.163 149.876 377.572 149.876C377.98 149.876 378.372 150.039 378.662 150.328C378.951 150.617 379.113 151.009 379.113 151.418V156.045C379.113 156.127 379.145 156.205 379.203 156.263C379.261 156.321 379.339 156.353 379.421 156.353Z" fill="#0A66C2"/>
<rect x="0.178922" y="0.178922" width="150.99" height="92.9097" rx="1.96814" fill="#1A1B21" stroke="#414758" stroke-width="0.357843"/>
<rect x="11.0254" y="62.1784" width="129.297" height="18.0518" rx="2.14706" fill="#373737"/>
<rect x="11.2043" y="48.3169" width="128.939" height="5.65942" rx="1.96814" fill="#353535" stroke="#414758" stroke-width="0.357843"/>
<rect x="46.2844" y="19.2335" width="93.8587" height="5.65942" rx="1.96814" fill="#353535" stroke="#414758" stroke-width="0.357843"/>
<path d="M36.9064 23.0661C36.9064 30.1677 31.1527 35.9246 24.0553 35.9246C16.958 35.9246 11.2043 30.1677 11.2043 23.0661C11.2043 15.9644 16.958 10.2076 24.0553 10.2076C31.1527 10.2076 36.9064 15.9644 36.9064 23.0661Z" fill="#F3F4FA" stroke="#414758" stroke-width="0.357843"/>
<g clip-path="url(#clip4_2165_34396)">
<path d="M22.2783 16.4357C20.4762 17.0533 18.9391 18.4045 18.0857 20.1082C17.7875 20.6969 17.5719 21.3226 17.4436 21.9694C17.1164 23.5776 17.3442 25.2897 18.0857 26.7568C18.5663 27.7142 19.2581 28.564 20.095 29.2273C20.8862 29.8574 21.8058 30.3217 22.7837 30.5828C24.0142 30.9145 25.3273 30.9061 26.5699 30.6242C27.6926 30.3671 28.7532 29.8284 29.5982 29.0492C30.4929 28.2242 31.131 27.1425 31.4708 25.9779C31.8395 24.7053 31.8893 23.3498 31.6572 22.0483C29.3372 22.0483 27.0173 22.0483 24.6933 22.0483C24.6933 23.01 24.6933 23.9758 24.6933 24.9375C26.0356 24.9375 27.382 24.9375 28.724 24.9375C28.5665 25.8619 28.0198 26.7033 27.241 27.2255C26.752 27.5528 26.1928 27.7686 25.6128 27.868C25.0288 27.9675 24.428 27.9799 23.848 27.864C23.2556 27.748 22.6921 27.4991 22.1994 27.1509C21.4122 26.5995 20.8117 25.7873 20.5051 24.8794C20.1904 23.955 20.186 22.923 20.5051 21.9986C20.7247 21.3477 21.0934 20.7425 21.5781 20.2536C22.1745 19.64 22.9493 19.2049 23.7862 19.0267C24.5028 18.8735 25.2568 18.9024 25.957 19.1138C26.5535 19.2962 27.1005 19.6195 27.5519 20.0506C28.0076 19.5987 28.459 19.143 28.9147 18.691C29.1508 18.4464 29.4037 18.2142 29.6355 17.9615C28.9477 17.3231 28.1359 16.8093 27.2534 16.486C25.6709 15.8927 23.8772 15.8802 22.2783 16.4357Z" fill="white"/>
<path d="M22.2781 16.4357C23.877 15.8802 25.671 15.8927 27.2616 16.4814C28.1438 16.8047 28.9518 17.3188 29.6437 17.9569C29.4116 18.2056 29.1631 18.4418 28.9229 18.6864C28.4672 19.1384 28.0158 19.5941 27.5601 20.046C27.1084 19.6149 26.5617 19.2876 25.9652 19.1092C25.265 18.8978 24.511 18.8689 23.7944 19.0221C22.9575 19.2002 22.183 19.6397 21.5862 20.249C21.1016 20.7382 20.7329 21.3434 20.5133 21.994C19.7055 21.368 18.8976 20.7379 18.0898 20.1122C18.9389 18.4045 20.476 17.0533 22.2781 16.4357Z" fill="#E94435"/>
<path d="M17.4436 21.9694C17.5719 21.3229 17.7915 20.6969 18.0857 20.1082C18.8934 20.7342 19.7014 21.3642 20.5091 21.9899C20.1901 22.9143 20.1944 23.9463 20.5091 24.8707C19.7014 25.4967 18.8934 26.1268 18.0857 26.7525C17.3442 25.2937 17.1164 23.5776 17.4436 21.9694Z" fill="#F8BB15"/>
<path d="M24.6969 22.044C27.0169 22.044 29.3368 22.044 31.6608 22.044C31.8929 23.3454 31.8432 24.701 31.4744 25.9735C31.1349 27.1382 30.4968 28.2242 29.6018 29.0448C28.819 28.4356 28.0318 27.8261 27.253 27.2168C28.0318 26.6987 28.5785 25.8532 28.736 24.9288C27.3937 24.9288 26.0473 24.9288 24.7053 24.9288C24.6929 23.9714 24.6969 23.0097 24.6969 22.044Z" fill="#547DBE"/>
<path d="M18.085 26.7568C18.8927 26.1308 19.7007 25.5007 20.5084 24.875C20.815 25.787 21.4155 26.5952 22.2027 27.1466C22.6957 27.4947 23.2589 27.7393 23.8513 27.8596C24.4313 27.9756 25.0362 27.9631 25.6161 27.8637C26.1961 27.7642 26.7553 27.5488 27.2443 27.2212C28.0271 27.8304 28.8143 28.4399 29.5931 29.0492C28.7481 29.8325 27.6876 30.3674 26.5649 30.6242C25.3263 30.9061 24.0129 30.9142 22.7786 30.5828C21.801 30.3217 20.8812 29.8573 20.0899 29.2273C19.2574 28.5599 18.5655 27.7101 18.085 26.7568Z" fill="#34A751"/>
</g>
<defs>
<clipPath id="clip0_2165_34396">
<rect width="14.7959" height="14.8044" fill="white" transform="translate(192.016 48.3881)"/>
</clipPath>
<clipPath id="clip1_2165_34396">
<rect width="14.7959" height="14.8044" fill="white" transform="translate(368.016 31.8043)"/>
</clipPath>
<clipPath id="clip2_2165_34396">
<rect width="14.7959" height="14.8044" fill="white" transform="translate(192.016 159.318)"/>
</clipPath>
<clipPath id="clip3_2165_34396">
<rect width="14.7959" height="14.8044" fill="white" transform="translate(17.0156 126.474)"/>
</clipPath>
<clipPath id="clip4_2165_34396">
<rect width="14.7959" height="14.8044" fill="white" transform="translate(17.1504 16.03)"/>
</clipPath>
</defs>
</svg>
