<svg width="56" height="56" viewBox="0 0 56 56" fill="none" xmlns="http://www.w3.org/2000/svg">
<rect x="0.5" y="0.5" width="55" height="55" rx="7.5" fill="white"/>
<rect x="0.5" y="0.5" width="55" height="55" rx="7.5" stroke="#E4E5E6"/>
<path d="M43.0283 16.6641C43.7772 16.6641 44.3848 17.2716 44.3848 18.0205C44.3845 18.7692 43.7771 19.376 43.0283 19.376C42.6607 19.376 42.3282 19.2288 42.084 18.9912L29.4463 26.2871L45.3418 21.9834C45.5054 21.4185 46.026 21.005 46.6436 21.0049C47.3924 21.0049 48 21.6124 48 22.3613C47.9999 23.1101 47.3924 23.7168 46.6436 23.7168C46.1046 23.7167 45.6404 23.4018 45.4219 22.9463L29.8555 27.1182L40.126 27.1035C40.3411 26.6391 40.8109 26.3164 41.3564 26.3164C42.1051 26.3167 42.7119 26.9241 42.7119 27.6729C42.7117 28.4214 42.105 29.0281 41.3564 29.0283C40.7584 29.0283 40.2515 28.6408 40.0713 28.1035H29.8242L45.4199 32.2822C45.6377 31.8248 46.1032 31.5079 46.6436 31.5078C47.3924 31.5078 48 32.1154 48 32.8643C47.9998 33.613 47.3923 34.2197 46.6436 34.2197C46.0275 34.2196 45.5078 33.8088 45.3428 33.2461L29.2402 28.8867L43.2881 36.998C43.5316 36.7649 43.8619 36.6221 44.2256 36.6221C44.9744 36.6221 45.582 37.2287 45.582 37.9775C45.582 38.7264 44.9745 39.334 44.2256 39.334C43.4768 39.3339 42.8701 38.7264 42.8701 37.9775C42.8701 37.937 42.8725 37.897 42.876 37.8574L28.4912 29.5029C28.1757 29.6853 27.8106 29.7919 27.4199 29.792C26.3917 29.792 25.5335 29.0687 25.3232 28.1035H10.6416C10.4617 28.6413 9.95469 29.0291 9.35645 29.0293C8.60772 29.0293 8.00026 28.4225 8 27.6738C8 26.9249 8.60756 26.3174 9.35645 26.3174C9.919 26.3176 10.4013 26.6604 10.6064 27.1484L25.3379 27.126C25.5701 26.1911 26.4133 25.498 27.4199 25.498C27.8125 25.4981 28.1795 25.605 28.4961 25.7891L41.6777 18.1328C41.6747 18.0958 41.6729 18.0583 41.6729 18.0205C41.6729 17.2716 42.2795 16.6641 43.0283 16.6641Z" fill="#1F2123"/>
</svg>
