<svg width="20" height="20" viewBox="0 0 20 20" fill="none" xmlns="http://www.w3.org/2000/svg">
<g clip-path="url(#clip0_966_4664)">
<path d="M7.01301 3.21971C7.27925 3.486 7.30343 3.90266 7.08555 4.19626L7.01292 4.28037L1.64638 9.64608C1.47287 9.81964 1.4536 10.089 1.58849 10.2838L1.6463 10.353L7.01296 15.7197C7.30586 16.0126 7.30586 16.4874 7.01296 16.7803C6.7467 17.0466 6.33003 17.0708 6.03642 16.8529L5.9523 16.7803L0.585558 11.4136C-0.154113 10.6737 -0.193043 9.4985 0.468871 8.71268L0.585679 8.58546L5.95235 3.21963C6.24526 2.92676 6.72014 2.9268 7.01301 3.21971ZM13.9661 3.14702L14.0503 3.21963L19.4171 8.58558C20.1567 9.32548 20.1957 10.5007 19.5338 11.2864L19.417 11.4137L14.0503 16.7803C13.7574 17.0732 13.2825 17.0732 12.9897 16.7803C12.7234 16.5141 12.6992 16.0974 12.917 15.8038L12.9897 15.7197L18.3562 10.3531C18.5297 10.1795 18.549 9.91017 18.4142 9.71541L18.3564 9.6462L12.9897 4.28037C12.6968 3.9875 12.6967 3.51263 12.9896 3.21971C13.2559 2.95342 13.6725 2.92919 13.9661 3.14702Z" fill="#1672EB"/>
</g>
<defs>
<clipPath id="clip0_966_4664">
<rect width="20" height="20" fill="white"/>
</clipPath>
</defs>
</svg>
