<svg width="20" height="20" viewBox="0 0 20 20" fill="none" xmlns="http://www.w3.org/2000/svg">
<g clip-path="url(#clip0_966_4963)">
<path d="M10 12.5C11.3807 12.5 12.5 11.3807 12.5 10C12.5 8.61929 11.3807 7.5 10 7.5C8.61929 7.5 7.5 8.61929 7.5 10C7.5 11.3807 8.61929 12.5 10 12.5Z" stroke="#1672EB" stroke-width="1.5" stroke-linecap="round" stroke-linejoin="round"/>
<path d="M8.72734 7.84766C8.11016 6.68437 7.5 5.30078 7.5 4.375C7.5 3.71196 7.76339 3.07607 8.23223 2.60723C8.70107 2.13839 9.33696 1.875 10 1.875C10.663 1.875 11.2989 2.13839 11.7678 2.60723C12.2366 3.07607 12.5 3.71196 12.5 4.375C12.5 5.30078 11.8898 6.68437 11.2727 7.84766" stroke="#1672EB" stroke-width="1.5" stroke-linecap="round" stroke-linejoin="round"/>
<path d="M7.49998 10.0258C6.18357 9.97889 4.68045 9.81561 3.87889 9.35233C3.59031 9.19041 3.33674 8.97282 3.13289 8.71216C2.92904 8.45151 2.77897 8.15298 2.69137 7.83389C2.60377 7.51479 2.58039 7.18148 2.62258 6.85328C2.66477 6.52508 2.7717 6.20852 2.93716 5.92196C3.10263 5.6354 3.32333 5.38454 3.58648 5.18392C3.84963 4.98331 4.14999 4.83693 4.47014 4.75327C4.79029 4.66961 5.12387 4.65035 5.45152 4.69659C5.77917 4.74283 6.09439 4.85365 6.37889 5.02264C7.18045 5.48514 8.0742 6.70545 8.77264 7.82186" stroke="#1672EB" stroke-width="1.5" stroke-linecap="round" stroke-linejoin="round"/>
<path d="M8.77264 12.1781C8.0742 13.2946 7.18045 14.5149 6.37889 14.9774C6.09439 15.1464 5.77917 15.2572 5.45152 15.3034C5.12387 15.3497 4.79029 15.3304 4.47014 15.2467C4.14999 15.1631 3.84963 15.0167 3.58648 14.8161C3.32333 14.6155 3.10263 14.3646 2.93716 14.078C2.7717 13.7915 2.66477 13.4749 2.62258 13.1467C2.58039 12.8185 2.60377 12.4852 2.69137 12.1661C2.77897 11.847 2.92904 11.5485 3.13289 11.2878C3.33674 11.0272 3.59031 10.8096 3.87889 10.6477C4.68045 10.1844 6.18357 10.0227 7.49998 9.97424" stroke="#1672EB" stroke-width="1.5" stroke-linecap="round" stroke-linejoin="round"/>
<path d="M11.2727 12.1523C11.8898 13.3156 12.5 14.6992 12.5 15.625C12.5 16.288 12.2366 16.9239 11.7678 17.3928C11.2989 17.8616 10.663 18.125 10 18.125C9.33696 18.125 8.70107 17.8616 8.23223 17.3928C7.76339 16.9239 7.5 16.288 7.5 15.625C7.5 14.6992 8.11016 13.3156 8.72734 12.1523" stroke="#1672EB" stroke-width="1.5" stroke-linecap="round" stroke-linejoin="round"/>
<path d="M12.5 9.97424C13.8164 10.0211 15.3195 10.1844 16.121 10.6477C16.4096 10.8096 16.6632 11.0272 16.867 11.2878C17.0709 11.5485 17.221 11.847 17.3086 12.1661C17.3962 12.4852 17.4195 12.8185 17.3774 13.1467C17.3352 13.4749 17.2282 13.7915 17.0628 14.078C16.8973 14.3646 16.6766 14.6155 16.4134 14.8161C16.1503 15.0167 15.8499 15.1631 15.5298 15.2467C15.2096 15.3304 14.8761 15.3497 14.5484 15.3034C14.2208 15.2572 13.9055 15.1464 13.621 14.9774C12.8195 14.5149 11.9257 13.2946 11.2273 12.1781" stroke="#1672EB" stroke-width="1.5" stroke-linecap="round" stroke-linejoin="round"/>
<path d="M11.2273 7.82186C11.9257 6.70545 12.8195 5.48514 13.621 5.02264C13.9055 4.85365 14.2208 4.74283 14.5484 4.69659C14.8761 4.65035 15.2096 4.66961 15.5298 4.75327C15.8499 4.83693 16.1503 4.98331 16.4134 5.18392C16.6766 5.38454 16.8973 5.6354 17.0628 5.92196C17.2282 6.20852 17.3352 6.52508 17.3774 6.85328C17.4195 7.18148 17.3962 7.51479 17.3086 7.83389C17.221 8.15298 17.0709 8.45151 16.867 8.71216C16.6632 8.97282 16.4096 9.19041 16.121 9.35233C15.3195 9.81561 13.8164 9.97733 12.5 10.0258" stroke="#1672EB" stroke-width="1.5" stroke-linecap="round" stroke-linejoin="round"/>
</g>
<defs>
<clipPath id="clip0_966_4963">
<rect width="20" height="20" fill="white"/>
</clipPath>
</defs>
</svg>
