<svg width="20" height="20" viewBox="0 0 20 20" fill="none" xmlns="http://www.w3.org/2000/svg">
<path d="M7.67 3.018L7.60938 2.89162C7.02691 1.76788 5.85316 1 4.50009 1C2.56712 1 1 2.56712 1 4.50009L1.00518 4.69212C1.07394 5.9636 1.82139 7.05465 2.89162 7.60938L3.018 7.67L1.54173 9.14774C0.81945 9.87024 0.81945 11.0413 1.54165 11.7637L3.0904 13.3088C3.46714 13.6846 4.10457 13.5595 4.31123 13.0691C4.66159 12.2378 5.52514 11.7439 6.41932 11.8635C7.3135 11.9831 8.01693 12.6865 8.13652 13.5807C8.2561 14.4749 7.76224 15.3384 6.93091 15.6888C6.44024 15.8956 6.31531 16.5335 6.69172 16.9101L8.2361 18.4552L8.36053 18.5689C9.08745 19.1754 10.1699 19.1375 10.8522 18.4554L12.328 16.98L12.3906 17.1083C12.9731 18.232 14.1468 18.9999 15.4999 18.9999C17.4329 18.9999 19 17.4329 19 15.4999L18.9948 15.3079C18.9261 14.0364 18.1786 12.9454 17.1084 12.3906L16.981 12.329L18.4583 10.8523C19.1806 10.1298 19.1806 8.95872 18.4584 8.2363L16.9096 6.69122C16.5329 6.31537 15.8954 6.44052 15.6888 6.93091C15.3384 7.76224 14.4749 8.2561 13.5807 8.13652C12.6865 8.01693 11.9831 7.3135 11.8635 6.41932C11.7439 5.52514 12.2378 4.66159 13.0691 4.31123C13.5595 4.10457 13.6846 3.46714 13.3088 3.0904L11.7644 1.54236C11.0413 0.81945 9.87024 0.81945 9.14782 1.54165L7.67 3.018ZM4.50009 2.49999C5.55439 2.49999 6.41821 3.31595 6.49456 4.35082L6.50004 4.50009C6.50004 5.16827 7.3079 5.50289 7.78037 5.03042L10.2084 2.60239L10.2716 2.55223C10.4066 2.46863 10.5861 2.48536 10.7032 2.60247L11.583 3.484L11.5137 3.54401C10.6667 4.30106 10.2198 5.44453 10.3767 6.61816C10.586 8.18299 11.817 9.414 13.3818 9.62328L13.5771 9.64388C14.6813 9.72935 15.741 9.28627 16.456 8.4863L16.515 8.416L17.3982 9.29751C17.5342 9.43347 17.5342 9.65501 17.3975 9.79168L14.9696 12.2196C14.522 12.6672 14.7987 13.4158 15.3973 13.4934L15.4999 13.5C16.6045 13.5 17.5001 14.3954 17.5001 15.4999C17.5001 16.6044 16.6045 17.4999 15.4999 17.4999C14.4456 17.4999 13.5818 16.684 13.5054 15.6492L13.5 15.4999C13.5 14.832 12.6926 14.4972 12.2199 14.9693L9.79192 17.3944L9.72856 17.4446C9.59345 17.5284 9.41395 17.5117 9.2968 17.3946L8.417 16.514L8.4863 16.456C9.33333 15.6989 9.78024 14.5555 9.62328 13.3818C9.414 11.817 8.18299 10.586 6.61816 10.3767L6.42289 10.3561C5.31867 10.2707 4.259 10.7137 3.54401 11.5137L3.484 11.583L2.60176 10.7025C2.46584 10.5665 2.46584 10.345 2.60247 10.2083L5.03042 7.78037C5.47802 7.33277 5.20125 6.58415 4.60275 6.50659L4.50009 6.50004C3.39551 6.50004 2.49991 5.6046 2.49991 4.50009C2.49991 3.39554 3.39554 2.49999 4.50009 2.49999Z" fill="#1672EB"/>
</svg>
