<svg width="20" height="20" viewBox="0 0 20 20" fill="none" xmlns="http://www.w3.org/2000/svg">
<g clip-path="url(#clip0_966_4500)">
<path d="M10 0C15.5228 0 20 4.47715 20 10C20 15.5228 15.5228 20 10 20C4.47715 20 0 15.5228 0 10C0 4.47715 4.47715 0 10 0ZM12.7083 15.5014L7.29176 15.5017C7.57274 16.4983 7.92916 17.3582 8.34356 18.0238L8.47344 18.2233L8.58016 18.3819C9.04187 18.4596 9.51622 18.5 10 18.5C10.4838 18.5 10.9581 18.4596 11.4198 18.3819L11.5266 18.2233C11.9967 17.5339 12.3984 16.6008 12.7083 15.5014ZM5.73923 15.5014L3.51991 15.501C4.3319 16.4566 5.35149 17.2303 6.50897 17.7523C6.20819 17.0834 5.94979 16.3258 5.73923 15.5014ZM16.4801 15.501L14.2608 15.5014C14.0502 16.3257 13.7918 17.0834 13.491 17.7524C14.6485 17.2303 15.6681 16.4566 16.4801 15.501ZM5.10476 10.7504L1.5327 10.7508C1.63481 11.9175 1.97262 13.0166 2.49823 14.0002L5.42167 14.0008C5.24645 12.977 5.13809 11.8825 5.10476 10.7504ZM13.3945 10.7506L6.60554 10.7512C6.64155 11.8957 6.75915 12.9933 6.94538 14.0011L13.0546 14.0015C13.2409 12.9934 13.3585 11.8954 13.3945 10.7506ZM18.4673 10.7508L14.8952 10.751C14.8619 11.8831 14.7535 12.9774 14.5783 14.0011L17.5018 14.0002C18.0274 13.0166 18.3652 11.9175 18.4673 10.7508ZM5.42157 5.99985L2.4977 6.00075C1.97224 6.98442 1.63458 8.08353 1.53262 9.2502L5.10475 9.25001C5.13806 8.11794 5.24639 7.02357 5.42157 5.99985ZM13.0548 5.99987L6.94526 5.99952C6.75902 7.00766 6.64143 8.10557 6.60549 9.25045L13.3945 9.24984C13.3585 8.10531 13.241 7.00774 13.0548 5.99987ZM17.5023 6.00075L14.5785 6.00025C14.7537 7.02404 14.862 8.11849 14.8953 9.25064L18.4674 9.2502C18.3654 8.08353 18.0278 6.98442 17.5023 6.00075ZM6.50898 2.24762L6.41661 2.29001C5.29683 2.81134 4.30953 3.56944 3.51906 4.49997L5.73898 4.4996C5.94957 3.67486 6.20806 2.91687 6.50898 2.24762ZM10 1.5C9.51622 1.5 9.04187 1.54042 8.58016 1.61806L8.47344 1.77675C8.00321 2.46634 7.60137 3.39974 7.29139 4.49956L12.7085 4.49926C12.4275 3.50223 12.071 2.64199 11.6564 1.97618L11.5266 1.77675L11.4198 1.61806C10.9581 1.54042 10.4838 1.5 10 1.5ZM13.491 2.24769L13.574 2.43694C13.8397 3.05867 14.07 3.75169 14.261 4.49959L16.4809 4.49997C15.6688 3.54394 14.6489 2.76992 13.491 2.24769Z" fill="#1672EB"/>
</g>
<defs>
<clipPath id="clip0_966_4500">
<rect width="20" height="20" fill="white"/>
</clipPath>
</defs>
</svg>
