<svg width="20" height="20" viewBox="0 0 20 20" fill="none" xmlns="http://www.w3.org/2000/svg">
<path d="M10.75 5.625C10.75 5.21079 10.4142 4.875 10 4.875C9.58579 4.875 9.25 5.21079 9.25 5.625V10C9.25 10.4142 9.58579 10.75 10 10.75H14.375C14.7892 10.75 15.125 10.4142 15.125 10C15.125 9.58579 14.7892 9.25 14.375 9.25H10.75V5.625Z" fill="#1672EB"/>
<path fill-rule="evenodd" clip-rule="evenodd" d="M10 1.75C5.44365 1.75 1.75 5.44365 1.75 10C1.75 14.5563 5.44365 18.25 10 18.25C14.5563 18.25 18.25 14.5563 18.25 10C18.25 5.44365 14.5563 1.75 10 1.75ZM3.25 10C3.25 6.27208 6.27208 3.25 10 3.25C13.7279 3.25 16.75 6.27208 16.75 10C16.75 13.7279 13.7279 16.75 10 16.75C6.27208 16.75 3.25 13.7279 3.25 10Z" fill="#1672EB"/>
</svg>
