<svg width="20" height="20" viewBox="0 0 20 20" fill="none" xmlns="http://www.w3.org/2000/svg">
<g clip-path="url(#clip0_966_4875)">
<path d="M16.25 6.875H3.75C3.40482 6.875 3.125 7.15482 3.125 7.5V16.25C3.125 16.5952 3.40482 16.875 3.75 16.875H16.25C16.5952 16.875 16.875 16.5952 16.875 16.25V7.5C16.875 7.15482 16.5952 6.875 16.25 6.875Z" stroke="#1672EB" stroke-width="1.5" stroke-linecap="round" stroke-linejoin="round"/>
<path d="M6.875 6.875V4.375C6.875 3.5462 7.20424 2.75134 7.79029 2.16529C8.37634 1.57924 9.1712 1.25 10 1.25C10.8288 1.25 11.6237 1.57924 12.2097 2.16529C12.7958 2.75134 13.125 3.5462 13.125 4.375V6.875" stroke="#1672EB" stroke-width="1.5" stroke-linecap="round" stroke-linejoin="round"/>
<path d="M10 12.8125C10.8629 12.8125 11.5625 12.1129 11.5625 11.25C11.5625 10.3871 10.8629 9.6875 10 9.6875C9.13706 9.6875 8.4375 10.3871 8.4375 11.25C8.4375 12.1129 9.13706 12.8125 10 12.8125Z" stroke="#1672EB" stroke-width="1.5" stroke-linecap="round" stroke-linejoin="round"/>
<path d="M10 12.8125V14.0625" stroke="#1672EB" stroke-width="1.5" stroke-linecap="round" stroke-linejoin="round"/>
</g>
<defs>
<clipPath id="clip0_966_4875">
<rect width="20" height="20" fill="white"/>
</clipPath>
</defs>
</svg>
