<svg width="20" height="20" viewBox="0 0 20 20" fill="none" xmlns="http://www.w3.org/2000/svg">
<path d="M17.25 9.5C17.6297 9.5 17.9435 9.78215 17.9932 10.1482L18 10.25V15.25C18 16.8207 16.8267 17.9164 15.2766 17.9954L15.0962 18H4.90385C3.32599 18 2.09424 16.9625 2.00516 15.4291L2 15.25V10.25C2 9.83579 2.33579 9.5 2.75 9.5C3.1297 9.5 3.44349 9.78215 3.49315 10.1482L3.5 10.25V15.25C3.5 15.9614 3.9882 16.4376 4.74827 16.4943L4.90385 16.5H15.0962C15.8915 16.5 16.4294 16.0683 16.4936 15.3891L16.5 15.25V10.25C16.5 9.83579 16.8358 9.5 17.25 9.5ZM12.25 9C12.6642 9 13 9.33579 13 9.75C13 10.1642 12.6642 10.5 12.25 10.5H7.75C7.33579 10.5 7 10.1642 7 9.75C7 9.33579 7.33579 9 7.75 9H12.25ZM17.1833 2C18.2281 2 19 2.96492 19 4.08333V7.25C19 7.66421 18.6642 8 18.25 8H1.75C1.33579 8 1 7.66421 1 7.25V4.08333C1 2.96492 1.77194 2 2.81667 2H17.1833ZM17.1833 3.5H2.81667C2.68319 3.5 2.5 3.72898 2.5 4.08333V6.5H17.5V4.08333C17.5 3.76836 17.3553 3.55243 17.2293 3.50834L17.1833 3.5Z" fill="#1672EB"/>
</svg>
