<svg width="20" height="20" viewBox="0 0 20 20" fill="none" xmlns="http://www.w3.org/2000/svg">
<g clip-path="url(#clip0_966_4705)">
<path d="M13.3333 13.9583C13.3333 14.0136 13.3114 14.0666 13.2723 14.1057C13.2332 14.1447 13.1803 14.1667 13.125 14.1667H1.875C1.81975 14.1667 1.76676 14.1447 1.72769 14.1057C1.68862 14.0666 1.66667 14.0136 1.66667 13.9583V6.87501C1.66667 6.81975 1.68862 6.76676 1.72769 6.72769C1.76676 6.68862 1.81975 6.66667 1.875 6.66667H8.81667C8.85414 6.66677 8.89095 6.65676 8.92322 6.6377C8.95549 6.61863 8.98201 6.59122 9 6.55834L9.65833 5.30834C9.67662 5.27667 9.68624 5.24074 9.68624 5.20417C9.68624 5.1676 9.67662 5.13168 9.65833 5.10001C9.63995 5.06806 9.61311 5.04182 9.58076 5.02418C9.5484 5.00653 9.5118 4.99817 9.475 5.00001H1.66667C1.22464 5.00001 0.800716 5.1756 0.488155 5.48816C0.175595 5.80072 0 6.22464 0 6.66667L0 15.4167C0 15.8587 0.175595 16.2826 0.488155 16.5952C0.800716 16.9077 1.22464 17.0833 1.66667 17.0833H6.45833C6.51359 17.0833 6.56658 17.1053 6.60565 17.1444C6.64472 17.1834 6.66667 17.2364 6.66667 17.2917V18.125C6.66667 18.1803 6.64472 18.2332 6.60565 18.2723C6.56658 18.3114 6.51359 18.3333 6.45833 18.3333H4.16667C3.94565 18.3333 3.73369 18.4211 3.57741 18.5774C3.42113 18.7337 3.33333 18.9457 3.33333 19.1667C3.33333 19.3877 3.42113 19.5996 3.57741 19.7559C3.73369 19.9122 3.94565 20 4.16667 20H10.8333C11.0543 20 11.2663 19.9122 11.4226 19.7559C11.5789 19.5996 11.6667 19.3877 11.6667 19.1667C11.6667 18.9457 11.5789 18.7337 11.4226 18.5774C11.2663 18.4211 11.0543 18.3333 10.8333 18.3333H8.54167C8.48641 18.3333 8.43342 18.3114 8.39435 18.2723C8.35528 18.2332 8.33333 18.1803 8.33333 18.125V17.2917C8.33333 17.2364 8.35528 17.1834 8.39435 17.1444C8.43342 17.1053 8.48641 17.0833 8.54167 17.0833H13.3333C13.7754 17.0833 14.1993 16.9077 14.5118 16.5952C14.8244 16.2826 15 15.8587 15 15.4167V11.875C15 11.8198 14.9781 11.7668 14.939 11.7277C14.8999 11.6886 14.8469 11.6667 14.7917 11.6667H13.5417C13.4864 11.6667 13.4334 11.6886 13.3944 11.7277C13.3553 11.7668 13.3333 11.8198 13.3333 11.875V13.9583Z" fill="#1672EB"/>
<path d="M15.65 0.641725C15.547 0.448241 15.3933 0.286411 15.2054 0.173563C15.0175 0.0607147 14.8025 0.00109863 14.5833 0.00109863C14.3641 0.00109863 14.1491 0.0607147 13.9612 0.173563C13.7733 0.286411 13.6196 0.448241 13.5166 0.641725L9.29997 8.66672C9.20563 8.84966 9.15993 9.05378 9.16727 9.25948C9.1746 9.46517 9.23472 9.66553 9.34184 9.84128C9.44897 10.017 9.5995 10.1623 9.77897 10.2631C9.95844 10.3638 10.1608 10.4167 10.3666 10.4167H18.8C19.0055 10.4184 19.208 10.3668 19.3877 10.2671C19.5675 10.1673 19.7184 10.0228 19.8257 9.84747C19.9331 9.67217 19.9933 9.47208 20.0004 9.26665C20.0076 9.06121 19.9615 8.85741 19.8666 8.67506L15.65 0.641725ZM14.5833 3.14172C14.7484 3.14388 14.9061 3.21042 15.0229 3.32717C15.1396 3.44392 15.2061 3.60164 15.2083 3.76672V6.26672C15.2083 6.43248 15.1425 6.59146 15.0252 6.70867C14.908 6.82588 14.7491 6.89172 14.5833 6.89172C14.4175 6.89172 14.2586 6.82588 14.1414 6.70867C14.0241 6.59146 13.9583 6.43248 13.9583 6.26672V3.76672C13.9572 3.68355 13.9725 3.60098 14.0033 3.52372C14.0341 3.44645 14.0799 3.37602 14.1379 3.31643C14.1959 3.25685 14.2651 3.20928 14.3416 3.17644C14.418 3.14361 14.5001 3.12615 14.5833 3.12506V3.14172ZM13.75 8.14172C13.75 7.97691 13.7988 7.81579 13.8904 7.67875C13.982 7.54171 14.1121 7.4349 14.2644 7.37182C14.4167 7.30875 14.5842 7.29225 14.7459 7.3244C14.9075 7.35656 15.056 7.43592 15.1726 7.55247C15.2891 7.66901 15.3685 7.8175 15.4006 7.97915C15.4328 8.1408 15.4163 8.30836 15.3532 8.46063C15.2901 8.6129 15.1833 8.74305 15.0463 8.83462C14.9092 8.92618 14.7481 8.97506 14.5833 8.97506C14.4724 8.97508 14.3627 8.95298 14.2605 8.91007C14.1583 8.86715 14.0657 8.80427 13.9881 8.72512C13.9105 8.64596 13.8494 8.55212 13.8086 8.44908C13.7677 8.34604 13.7478 8.23589 13.75 8.12506V8.14172Z" fill="#1672EB"/>
</g>
<defs>
<clipPath id="clip0_966_4705">
<rect width="20" height="20" fill="white"/>
</clipPath>
</defs>
</svg>
