<svg width="20" height="20" viewBox="0 0 20 20" fill="none" xmlns="http://www.w3.org/2000/svg">
<g clip-path="url(#clip0_966_4833)">
<path d="M5.87502 17.675C5.87547 17.6386 5.86552 17.6027 5.84633 17.5717C5.82714 17.5407 5.79951 17.5159 5.76668 17.5C5.73565 17.4799 5.69948 17.4692 5.66252 17.4692C5.62555 17.4692 5.58938 17.4799 5.55835 17.5C4.75628 17.9451 3.85045 18.1694 2.93335 18.15C2.01888 18.1696 1.11571 17.9452 0.316682 17.5C0.285654 17.4799 0.249478 17.4692 0.212515 17.4692C0.175551 17.4692 0.139376 17.4799 0.108348 17.5C0.0755177 17.5159 0.0478875 17.5407 0.0286992 17.5717C0.00951086 17.6027 -0.000439705 17.6386 1.49091e-05 17.675V18.5083C1.49091e-05 19.2167 1.20835 20 2.93335 20C4.65835 20 5.87502 19.2167 5.87502 18.5167V17.675Z" fill="#1672EB"/>
<path d="M1.49091e-05 15.8333C1.49091e-05 16.5333 1.20835 17.3166 2.93335 17.3166C4.65835 17.3166 5.87502 16.5333 5.87502 15.8333V15C5.87547 14.9635 5.86552 14.9277 5.84633 14.8967C5.82714 14.8657 5.79951 14.8408 5.76668 14.825C5.73565 14.8049 5.69948 14.7942 5.66252 14.7942C5.62555 14.7942 5.58938 14.8049 5.55835 14.825C4.75628 15.2701 3.85045 15.4944 2.93335 15.475C2.01888 15.4945 1.11571 15.2702 0.316682 14.825C0.285654 14.8049 0.249478 14.7942 0.212515 14.7942C0.175551 14.7942 0.139376 14.8049 0.108348 14.825C0.0755177 14.8408 0.0478875 14.8657 0.0286992 14.8967C0.00951086 14.9277 -0.000439705 14.9635 1.49091e-05 15V15.8333Z" fill="#1672EB"/>
<path d="M2.93333 14.6333C4.55337 14.6333 5.86667 13.9692 5.86667 13.15C5.86667 12.3307 4.55337 11.6666 2.93333 11.6666C1.3133 11.6666 0 12.3307 0 13.15C0 13.9692 1.3133 14.6333 2.93333 14.6333Z" fill="#1672EB"/>
<path d="M20 17.675C20.0005 17.6386 19.9905 17.6027 19.9713 17.5717C19.9521 17.5407 19.9245 17.5159 19.8917 17.5C19.8607 17.4799 19.8245 17.4692 19.7875 17.4692C19.7506 17.4692 19.7144 17.4799 19.6833 17.5C18.8843 17.9452 17.9811 18.1696 17.0667 18.15C16.1496 18.1694 15.2437 17.9451 14.4417 17.5C14.4107 17.4799 14.3745 17.4692 14.3375 17.4692C14.3006 17.4692 14.2644 17.4799 14.2333 17.5C14.2005 17.5159 14.1729 17.5407 14.1537 17.5717C14.1345 17.6027 14.1246 17.6386 14.125 17.675V18.5083C14.1667 19.2167 15.3333 20 17.0667 20C18.8 20 20 19.2167 20 18.5167V17.675Z" fill="#1672EB"/>
<path d="M14.1667 15.8333C14.1667 16.5333 15.3751 17.3166 17.1084 17.3166C18.8417 17.3166 20.0001 16.5333 20.0001 15.8333V15C20.0005 14.9635 19.9906 14.9277 19.9714 14.8967C19.9522 14.8657 19.9246 14.8408 19.8917 14.825C19.8607 14.8049 19.8245 14.7942 19.7876 14.7942C19.7506 14.7942 19.7144 14.8049 19.6834 14.825C18.8844 15.2702 17.9812 15.4945 17.0667 15.475C16.1496 15.4944 15.2438 15.2701 14.4417 14.825C14.4107 14.8049 14.3745 14.7942 14.3376 14.7942C14.3006 14.7942 14.2644 14.8049 14.2334 14.825C14.2082 14.846 14.1889 14.8731 14.1772 14.9038C14.1656 14.9344 14.1619 14.9675 14.1667 15V15.8333Z" fill="#1672EB"/>
<path d="M17.0668 14.6333C18.6868 14.6333 20.0001 13.9692 20.0001 13.15C20.0001 12.3307 18.6868 11.6666 17.0668 11.6666C15.4467 11.6666 14.1334 12.3307 14.1334 13.15C14.1334 13.9692 15.4467 14.6333 17.0668 14.6333Z" fill="#1672EB"/>
<path d="M20 6.00839C20.0005 5.97194 19.9905 5.93611 19.9713 5.90511C19.9521 5.87412 19.9245 5.84924 19.8917 5.83339C19.8607 5.8133 19.8245 5.80261 19.7875 5.80261C19.7506 5.80261 19.7144 5.8133 19.6833 5.83339C18.8843 6.27858 17.9811 6.50294 17.0667 6.48339C16.1496 6.50282 15.2437 6.27852 14.4417 5.83339C14.4107 5.8133 14.3745 5.80261 14.3375 5.80261C14.3006 5.80261 14.2644 5.8133 14.2333 5.83339C14.2005 5.84924 14.1729 5.87412 14.1537 5.90511C14.1345 5.93611 14.1246 5.97194 14.125 6.00839V6.84172C14.1667 7.55006 15.3333 8.33339 17.0667 8.33339C18.8 8.33339 20 7.55006 20 6.85006V6.00839Z" fill="#1672EB"/>
<path d="M14.1667 4.16667C14.1667 4.86667 15.3751 5.65001 17.1084 5.65001C18.8417 5.65001 20.0001 4.86667 20.0001 4.16667V3.33334C20.0005 3.29689 19.9906 3.26106 19.9714 3.23007C19.9522 3.19907 19.9246 3.17419 19.8917 3.15834C19.8607 3.13825 19.8245 3.12756 19.7876 3.12756C19.7506 3.12756 19.7144 3.13825 19.6834 3.15834C18.8844 3.60353 17.9812 3.82789 17.0667 3.80834C16.1496 3.82777 15.2438 3.60347 14.4417 3.15834C14.4107 3.13825 14.3745 3.12756 14.3376 3.12756C14.3006 3.12756 14.2644 3.13825 14.2334 3.15834C14.2082 3.17937 14.1889 3.20651 14.1772 3.23714C14.1656 3.26778 14.1619 3.3009 14.1667 3.33334V4.16667Z" fill="#1672EB"/>
<path d="M17.0668 2.96667C18.6868 2.96667 20.0001 2.30256 20.0001 1.48333C20.0001 0.664111 18.6868 0 17.0668 0C15.4467 0 14.1334 0.664111 14.1334 1.48333C14.1334 2.30256 15.4467 2.96667 17.0668 2.96667Z" fill="#1672EB"/>
<path d="M5.87502 6.00839C5.87547 5.97194 5.86552 5.93611 5.84633 5.90511C5.82714 5.87412 5.79951 5.84924 5.76668 5.83339C5.73565 5.8133 5.69948 5.80261 5.66252 5.80261C5.62555 5.80261 5.58938 5.8133 5.55835 5.83339C4.75628 6.27852 3.85045 6.50282 2.93335 6.48339C2.01888 6.50294 1.11571 6.27858 0.316682 5.83339C0.285654 5.8133 0.249478 5.80261 0.212515 5.80261C0.175551 5.80261 0.139376 5.8133 0.108348 5.83339C0.0755177 5.84924 0.0478875 5.87412 0.0286992 5.90511C0.00951086 5.93611 -0.000439705 5.97194 1.49091e-05 6.00839V6.84172C1.49091e-05 7.55006 1.20835 8.33339 2.93335 8.33339C4.65835 8.33339 5.87502 7.55006 5.87502 6.85006V6.00839Z" fill="#1672EB"/>
<path d="M4.86988e-05 4.16671C4.86988e-05 4.86671 1.20838 5.65004 2.93338 5.65004C4.65838 5.65004 5.87505 4.86671 5.87505 4.16671V3.33337C5.8755 3.29692 5.86555 3.2611 5.84636 3.2301C5.82718 3.1991 5.79955 3.17422 5.76672 3.15837C5.73569 3.13828 5.69951 3.1276 5.66255 3.1276C5.62559 3.1276 5.58941 3.13828 5.55838 3.15837C4.75631 3.6035 3.85048 3.8278 2.93338 3.80837C2.01815 3.82538 1.11493 3.59813 0.316715 3.15004C0.285687 3.12995 0.249512 3.11926 0.212549 3.11926C0.175585 3.11926 0.13941 3.12995 0.108382 3.15004C0.0742202 3.16646 0.0456946 3.19264 0.0264117 3.22528C0.00712878 3.25791 -0.00204552 3.29553 4.86988e-05 3.33337V4.16671Z" fill="#1672EB"/>
<path d="M2.93333 2.96667C4.55337 2.96667 5.86667 2.30256 5.86667 1.48333C5.86667 0.664111 4.55337 0 2.93333 0C1.3133 0 0 0.664111 0 1.48333C0 2.30256 1.3133 2.96667 2.93333 2.96667Z" fill="#1672EB"/>
<path d="M6.43339 12.9666C6.31635 13.0838 6.25061 13.2427 6.25061 13.4083C6.25061 13.5739 6.31635 13.7328 6.43339 13.85C6.55954 13.9529 6.71309 14.0166 6.87506 14.0333C6.95718 14.0337 7.03854 14.0177 7.11439 13.9862C7.19023 13.9547 7.25902 13.9084 7.31673 13.85L9.81673 11.35C9.83616 11.3298 9.85946 11.3138 9.88523 11.3028C9.91101 11.2919 9.93872 11.2862 9.96673 11.2862C9.99473 11.2862 10.0224 11.2919 10.0482 11.3028C10.074 11.3138 10.0973 11.3298 10.1167 11.35L12.6834 13.9166C12.8024 14.0309 12.9601 14.0964 13.1251 14.1C13.1803 14.1078 13.2364 14.1078 13.2917 14.1C13.3938 14.0719 13.4879 14.0206 13.5667 13.95C13.6838 13.8328 13.7495 13.6739 13.7495 13.5083C13.7495 13.3427 13.6838 13.1838 13.5667 13.0666L13.3334 12.8083L11.0001 10.4666C10.9799 10.4472 10.9639 10.4239 10.9529 10.3981C10.942 10.3724 10.9363 10.3446 10.9363 10.3166C10.9363 10.2886 10.942 10.2609 10.9529 10.2351C10.9639 10.2094 10.9799 10.1861 11.0001 10.1666L13.4501 7.71663C13.4742 7.68461 13.4964 7.65122 13.5167 7.61663C13.5985 7.4987 13.6366 7.35595 13.6244 7.21296C13.6122 7.06998 13.5506 6.93571 13.4501 6.8333C13.4154 6.79535 13.3762 6.76177 13.3334 6.7333C13.2181 6.66904 13.085 6.64404 12.9542 6.66208C12.8234 6.68012 12.702 6.74021 12.6084 6.8333L10.1584 9.2833C10.139 9.30346 10.1157 9.3195 10.0899 9.33045C10.0641 9.34141 10.0364 9.34705 10.0084 9.34705C9.98039 9.34705 9.95267 9.34141 9.9269 9.33045C9.90113 9.3195 9.87783 9.30346 9.85839 9.2833L7.40839 6.86663C7.31704 6.77911 7.20184 6.72054 7.07729 6.6983C6.95274 6.67606 6.8244 6.69114 6.70839 6.74163C6.64116 6.77353 6.57931 6.8157 6.52506 6.86663C6.41079 6.97183 6.34109 7.11676 6.33024 7.2717C6.3194 7.42665 6.36823 7.57987 6.46673 7.69996C6.48026 7.73145 6.50011 7.75981 6.52506 7.7833L8.93339 10.2C8.95356 10.2194 8.96959 10.2427 8.98055 10.2685C8.9915 10.2942 8.99715 10.322 8.99715 10.35C8.99715 10.378 8.9915 10.4057 8.98055 10.4315C8.96959 10.4572 8.95356 10.4805 8.93339 10.5L6.66673 12.7583L6.43339 12.9666Z" fill="#1672EB"/>
</g>
<defs>
<clipPath id="clip0_966_4833">
<rect width="20" height="20" fill="white"/>
</clipPath>
</defs>
</svg>
