<svg width="20" height="20" viewBox="0 0 20 20" fill="none" xmlns="http://www.w3.org/2000/svg">
<g clip-path="url(#clip0_966_4688)">
<path d="M7.56668 3.65832C6.1953 3.20571 4.77357 2.92305 3.33335 2.81665C3.1692 2.80256 3.00602 2.85298 2.87844 2.95723C2.75086 3.06147 2.66892 3.21132 2.65002 3.37499C2.63372 3.53959 2.68333 3.70393 2.78799 3.83202C2.89264 3.96011 3.0438 4.04148 3.20835 4.05832C4.55226 4.15567 5.87899 4.41878 7.15835 4.84165C7.31527 4.8958 7.48727 4.8854 7.63652 4.81273C7.78577 4.74006 7.90003 4.61107 7.95418 4.45415C8.00833 4.29723 7.99793 4.12523 7.92525 3.97598C7.85258 3.82674 7.7236 3.71247 7.56668 3.65832Z" fill="#1672EB"/>
<path d="M7.56668 6.66664C6.1939 6.22083 4.77267 5.94106 3.33335 5.8333C3.1679 5.81933 3.00359 5.87089 2.87578 5.97688C2.74798 6.08286 2.6669 6.2348 2.65002 6.39997C2.63372 6.56457 2.68333 6.72892 2.78799 6.857C2.89264 6.98509 3.0438 7.06646 3.20835 7.0833C4.55175 7.17913 5.87833 7.4394 7.15835 7.8583C7.2366 7.88511 7.31936 7.89625 7.40191 7.89108C7.48446 7.88591 7.56518 7.86452 7.63947 7.82815C7.71375 7.79178 7.78015 7.74114 7.83486 7.67911C7.88958 7.61708 7.93154 7.54488 7.95835 7.46663C7.98516 7.38839 7.9963 7.30563 7.99113 7.22308C7.98595 7.14053 7.96457 7.05981 7.9282 6.98552C7.89183 6.91123 7.84119 6.84484 7.77916 6.79012C7.71713 6.73541 7.64493 6.69345 7.56668 6.66664Z" fill="#1672EB"/>
<path d="M7.56668 9.71669C6.195 9.26667 4.77325 8.9868 3.33335 8.88336C3.16837 8.87153 3.0052 8.92387 2.87788 9.02945C2.75056 9.13504 2.66893 9.28571 2.65002 9.45002C2.63372 9.61462 2.68333 9.77897 2.78799 9.90706C2.89264 10.0351 3.0438 10.1165 3.20835 10.1334C4.55281 10.2266 5.88004 10.4898 7.15835 10.9167C7.31527 10.9696 7.48678 10.9581 7.63522 10.8847C7.78365 10.8112 7.89687 10.6819 7.95002 10.525C7.98018 10.447 7.99415 10.3636 7.99105 10.2799C7.98795 10.1963 7.96785 10.1141 7.93199 10.0385C7.89613 9.96289 7.84524 9.89535 7.78244 9.84003C7.71964 9.7847 7.64623 9.74273 7.56668 9.71669Z" fill="#1672EB"/>
<path d="M16.25 2.67498C14.8062 2.84119 13.386 3.17109 12.0167 3.65831C11.8598 3.71246 11.7308 3.82673 11.6581 3.97597C11.5855 4.12522 11.5751 4.29722 11.6292 4.45414C11.6834 4.61106 11.7976 4.74005 11.9469 4.81272C12.0961 4.88539 12.2681 4.89579 12.425 4.84164C13.7015 4.38326 15.0272 4.07562 16.375 3.92498C16.5396 3.90814 16.6907 3.82676 16.7954 3.69868C16.9001 3.57059 16.9497 3.40624 16.9334 3.24164C16.9165 3.07647 16.8354 2.92454 16.7076 2.81855C16.5798 2.71257 16.4155 2.66101 16.25 2.67498Z" fill="#1672EB"/>
<path d="M16.25 5.70828C14.8066 5.86277 13.386 6.18437 12.0167 6.66662C11.939 6.69343 11.8674 6.73528 11.8058 6.78979C11.7443 6.84429 11.6941 6.91038 11.6581 6.98428C11.6222 7.05818 11.6011 7.13844 11.5961 7.22049C11.5911 7.30253 11.6024 7.38475 11.6292 7.46245C11.656 7.54015 11.6979 7.61181 11.7524 7.67333C11.8069 7.73485 11.873 7.78504 11.9469 7.82102C12.0208 7.85701 12.101 7.87808 12.1831 7.88304C12.2651 7.88801 12.3473 7.87676 12.425 7.84995C13.7015 7.39157 15.0272 7.08392 16.375 6.93328C16.5326 6.90822 16.6746 6.82385 16.772 6.69745C16.8694 6.57104 16.9147 6.41219 16.8987 6.25344C16.8828 6.09468 16.8067 5.94805 16.686 5.8436C16.5654 5.73914 16.4094 5.68477 16.25 5.69162V5.70828Z" fill="#1672EB"/>
<path d="M16.25 8.73328C14.8048 8.8915 13.3837 9.22161 12.0167 9.71661C11.9391 9.74282 11.8675 9.78421 11.8061 9.83838C11.7447 9.89254 11.6947 9.95839 11.6591 10.0321C11.6234 10.1058 11.6027 10.1858 11.5983 10.2676C11.5939 10.3494 11.6058 10.4312 11.6334 10.5083C11.6865 10.6651 11.7997 10.7945 11.9482 10.8679C12.0966 10.9413 12.2681 10.9529 12.425 10.8999C13.7021 10.4469 15.0278 10.1449 16.375 9.99994C16.5326 9.97488 16.6746 9.89051 16.772 9.76411C16.8694 9.6377 16.9147 9.47885 16.8987 9.3201C16.8827 9.16134 16.8066 9.01471 16.686 8.91026C16.5654 8.8058 16.4094 8.75143 16.25 8.75828V8.73328Z" fill="#1672EB"/>
<path d="M12.5 13.0165C12.5005 12.9352 12.4815 12.8549 12.4445 12.7825C12.4076 12.71 12.3538 12.6475 12.2876 12.6001C12.2215 12.5528 12.145 12.522 12.0645 12.5103C11.984 12.4987 11.9019 12.5065 11.825 12.5332C11.5333 12.6332 11.2583 12.7499 10.9917 12.8582C10.9309 12.8933 10.8619 12.9118 10.7917 12.9118C10.7215 12.9118 10.6525 12.8933 10.5917 12.8582C10.5349 12.8179 10.4891 12.7639 10.4585 12.7013C10.428 12.6387 10.4136 12.5695 10.4167 12.4999V3.33319C10.4167 2.69986 13.1417 1.38319 18.15 1.24152C18.1997 1.24566 18.2466 1.26618 18.2833 1.29986C18.2994 1.31101 18.3124 1.32601 18.3211 1.34348C18.3298 1.36095 18.334 1.38034 18.3333 1.39986V11.3999C18.3271 11.4448 18.3036 11.4856 18.2679 11.5136C18.2321 11.5416 18.1868 11.5546 18.1417 11.5499H17.7083C17.5403 11.5563 17.3813 11.6277 17.2648 11.7489C17.1483 11.8701 17.0832 12.0317 17.0833 12.1999C17.0833 12.2808 17.0996 12.3609 17.1313 12.4354C17.163 12.5099 17.2094 12.5772 17.2678 12.6332C17.3262 12.6893 17.3953 12.7329 17.4711 12.7616C17.5468 12.7902 17.6275 12.8032 17.7083 12.7999H18.175C18.5458 12.7956 18.9002 12.647 19.1632 12.3856C19.4261 12.1242 19.5769 11.7706 19.5833 11.3999V1.39986C19.5841 1.21504 19.5476 1.03197 19.476 0.861589C19.4044 0.691204 19.2992 0.536999 19.1667 0.40819C19.0265 0.272882 18.8606 0.167036 18.6788 0.0969029C18.4971 0.0267697 18.3031 -0.00622843 18.1083 -0.000142911C14.9417 0.0915238 11.5917 0.708191 10.0417 1.87486C9.97073 1.93166 9.88256 1.96261 9.79168 1.96261C9.7008 1.96261 9.61262 1.93166 9.54168 1.87486C7.99168 0.708191 4.64168 0.0915238 1.47501 -0.000142911C1.28155 -0.00605183 1.08887 0.0270578 0.908475 0.0972117C0.728079 0.167366 0.563657 0.273127 0.425013 0.40819C0.289955 0.53726 0.182616 0.692498 0.109545 0.864429C0.0364743 1.03636 -0.000794595 1.22138 1.28445e-05 1.40819V11.4082C0.00649294 11.7789 0.157209 12.1325 0.420162 12.3939C0.683116 12.6553 1.0376 12.8039 1.40835 12.8082C6.40835 12.9415 9.16668 14.2582 9.16668 14.8999C9.16668 15.0656 9.23253 15.2246 9.34974 15.3418C9.46695 15.459 9.62592 15.5249 9.79168 15.5249C9.95744 15.5249 10.1164 15.459 10.2336 15.3418C10.3508 15.2246 10.4167 15.0656 10.4167 14.8999C10.4167 14.6165 10.9417 14.2082 11.95 13.8249C12.1152 13.7652 12.2572 13.655 12.356 13.5098C12.4548 13.3647 12.5052 13.192 12.5 13.0165ZM9.16668 12.4999C9.16656 12.5696 9.14896 12.6381 9.11547 12.6993C9.08198 12.7604 9.03369 12.8122 8.97501 12.8499C8.91421 12.885 8.84523 12.9034 8.77501 12.9034C8.7048 12.9034 8.63582 12.885 8.57501 12.8499C6.29598 11.9857 3.87903 11.5424 1.44168 11.5415C1.39651 11.5463 1.35127 11.5333 1.3155 11.5053C1.27973 11.4773 1.25625 11.4365 1.25001 11.3915V1.39152C1.24931 1.372 1.25352 1.35262 1.26225 1.33514C1.27099 1.31767 1.28397 1.30267 1.30001 1.29152C1.31595 1.27185 1.33638 1.25628 1.35958 1.24613C1.38278 1.23598 1.40808 1.23154 1.43335 1.23319C6.44168 1.39152 9.16668 2.70819 9.16668 3.33319V12.4999Z" fill="#1672EB"/>
<path d="M17.7084 16.6666H16.25C16.1395 16.6666 16.0335 16.6227 15.9554 16.5446C15.8773 16.4664 15.8334 16.3605 15.8334 16.25V12.7083C15.8334 12.432 15.7236 12.1671 15.5283 11.9717C15.3329 11.7764 15.068 11.6666 14.7917 11.6666C14.5154 11.6666 14.2505 11.7764 14.0551 11.9717C13.8598 12.1671 13.75 12.432 13.75 12.7083V18.1C13.7494 18.1437 13.7355 18.1862 13.7102 18.2219C13.6849 18.2576 13.6494 18.2848 13.6084 18.3C13.5657 18.3129 13.52 18.3118 13.478 18.2967C13.4359 18.2817 13.3999 18.2537 13.375 18.2166L12.5 16.9666C12.4295 16.8225 12.3188 16.7018 12.1814 16.619C12.0439 16.5362 11.8854 16.4949 11.725 16.5C11.5829 16.5003 11.4429 16.5346 11.3167 16.6C11.1126 16.7097 10.9597 16.8952 10.8911 17.1166C10.8226 17.3379 10.8437 17.5774 10.95 17.7833L12 19.775C12.0349 19.8423 12.0875 19.8988 12.1521 19.9384C12.2167 19.9781 12.2909 19.9994 12.3667 20H19.5834C19.6939 20 19.7998 19.9561 19.878 19.8779C19.9561 19.7998 20 19.6938 20 19.5833V19.0833C20.0029 18.4628 19.7662 17.8652 19.3393 17.415C18.9123 16.9648 18.3281 16.6967 17.7084 16.6666Z" fill="#1672EB"/>
</g>
<defs>
<clipPath id="clip0_966_4688">
<rect width="20" height="20" fill="white"/>
</clipPath>
</defs>
</svg>
