<svg width="20" height="20" viewBox="0 0 20 20" fill="none" xmlns="http://www.w3.org/2000/svg">
<path d="M4.53333 12.9167H2.5C2.27899 12.9167 2.06702 12.8289 1.91074 12.6726C1.75446 12.5163 1.66667 12.3043 1.66667 12.0833V5C1.66667 4.77899 1.75446 4.56702 1.91074 4.41074C2.06702 4.25446 2.27899 4.16667 2.5 4.16667H15.4167C15.6377 4.16667 15.8496 4.25446 16.0059 4.41074C16.1622 4.56702 16.25 4.77899 16.25 5V5.41667C16.25 5.63768 16.3378 5.84964 16.4941 6.00592C16.6504 6.1622 16.8623 6.25 17.0833 6.25C17.3043 6.25 17.5163 6.1622 17.6726 6.00592C17.8289 5.84964 17.9167 5.63768 17.9167 5.41667V2.5C17.9167 1.83696 17.6533 1.20107 17.1844 0.732233C16.7156 0.263392 16.0797 0 15.4167 0L2.5 0C1.83696 0 1.20107 0.263392 0.732233 0.732233C0.263392 1.20107 0 1.83696 0 2.5L0 12.0833C0 12.7464 0.263392 13.3823 0.732233 13.8511C1.20107 14.3199 1.83696 14.5833 2.5 14.5833H4.53333C4.75435 14.5833 4.96631 14.4955 5.12259 14.3393C5.27887 14.183 5.36667 13.971 5.36667 13.75C5.36667 13.529 5.27887 13.317 5.12259 13.1607C4.96631 13.0045 4.75435 12.9167 4.53333 12.9167ZM5 2.08333C5 1.91852 5.04887 1.7574 5.14044 1.62036C5.23201 1.48332 5.36216 1.37651 5.51443 1.31343C5.6667 1.25036 5.83426 1.23386 5.99591 1.26601C6.15756 1.29817 6.30605 1.37753 6.42259 1.49408C6.53913 1.61062 6.6185 1.75911 6.65065 1.92076C6.68281 2.08241 6.66631 2.24996 6.60323 2.40224C6.54016 2.55451 6.43335 2.68466 6.29631 2.77622C6.15927 2.86779 5.99815 2.91667 5.83333 2.91667C5.61232 2.91667 5.40036 2.82887 5.24408 2.67259C5.0878 2.51631 5 2.30435 5 2.08333ZM8.75 2.91667C8.58518 2.91667 8.42407 2.86779 8.28702 2.77622C8.14998 2.68466 8.04317 2.55451 7.9801 2.40224C7.91703 2.24996 7.90052 2.08241 7.93268 1.92076C7.96483 1.75911 8.0442 1.61062 8.16074 1.49408C8.27729 1.37753 8.42577 1.29817 8.58742 1.26601C8.74907 1.23386 8.91663 1.25036 9.0689 1.31343C9.22117 1.37651 9.35132 1.48332 9.44289 1.62036C9.53446 1.7574 9.58333 1.91852 9.58333 2.08333C9.58333 2.30435 9.49554 2.51631 9.33926 2.67259C9.18297 2.82887 8.97101 2.91667 8.75 2.91667ZM3.75 2.08333C3.75 2.24815 3.70113 2.40927 3.60956 2.54631C3.51799 2.68335 3.38784 2.79016 3.23557 2.85323C3.0833 2.91631 2.91574 2.93281 2.75409 2.90065C2.59244 2.8685 2.44395 2.78913 2.32741 2.67259C2.21087 2.55605 2.1315 2.40756 2.09935 2.24591C2.06719 2.08426 2.08369 1.9167 2.14677 1.76443C2.20984 1.61216 2.31665 1.48201 2.45369 1.39044C2.59073 1.29887 2.75185 1.25 2.91667 1.25C3.13768 1.25 3.34964 1.3378 3.50592 1.49408C3.6622 1.65036 3.75 1.86232 3.75 2.08333Z" fill="#1672EB"/>
<path d="M13.3333 6.66663C12.0148 6.66663 10.7258 7.05762 9.62949 7.79016C8.53317 8.5227 7.67868 9.5639 7.1741 10.7821C6.66951 12.0002 6.53749 13.3407 6.79473 14.6339C7.05196 15.9271 7.6869 17.115 8.61925 18.0473C9.5516 18.9797 10.7395 19.6146 12.0327 19.8719C13.3259 20.1291 14.6663 19.9971 15.8845 19.4925C17.1027 18.9879 18.1439 18.1334 18.8764 17.0371C19.609 15.9408 20 14.6518 20 13.3333C20 11.5652 19.2976 9.86949 18.0473 8.61925C16.7971 7.369 15.1014 6.66663 13.3333 6.66663ZM18.4583 12.5916H16.1583C16.066 11.1016 15.6173 9.65552 14.85 8.37496C15.7887 8.66441 16.6261 9.21427 17.2648 9.96068C17.9036 10.7071 18.3174 11.6194 18.4583 12.5916ZM13.3333 17.9083C12.5462 16.7761 12.0824 15.4509 11.9916 14.075H14.675C14.5842 15.4509 14.1204 16.7761 13.3333 17.9083ZM11.9916 12.5916C12.0824 11.2157 12.5462 9.89051 13.3333 8.75829C14.1204 9.89051 14.5842 11.2157 14.675 12.5916H11.9916ZM11.8166 8.37496C11.0493 9.65552 10.6006 11.1016 10.5083 12.5916H8.2083C8.34918 11.6194 8.76302 10.7071 9.40174 9.96068C10.0405 9.21427 10.8779 8.66441 11.8166 8.37496ZM8.2083 14.075H10.5083C10.594 15.5793 11.0429 17.0404 11.8166 18.3333C10.8721 18.0408 10.0308 17.4846 9.39153 16.7303C8.7523 15.9759 8.3418 15.0547 8.2083 14.075ZM14.875 18.2916C15.6423 17.0111 16.091 15.565 16.1833 14.075H18.4833C18.3478 15.0577 17.9336 15.9811 17.2897 16.7357C16.6458 17.4904 15.7991 18.0448 14.85 18.3333L14.875 18.2916Z" fill="#1672EB"/>
</svg>
