<svg width="20" height="20" viewBox="0 0 20 20" fill="none" xmlns="http://www.w3.org/2000/svg">
<g clip-path="url(#clip0_966_4728)">
<path d="M11.25 12.0833H8.75C8.58424 12.0833 8.42527 12.1491 8.30806 12.2663C8.19085 12.3835 8.125 12.5425 8.125 12.7083C8.125 12.874 8.19085 13.033 8.30806 13.1502C8.42527 13.2674 8.58424 13.3333 8.75 13.3333H11.25C11.4158 13.3333 11.5747 13.2674 11.6919 13.1502C11.8092 13.033 11.875 12.874 11.875 12.7083C11.875 12.5425 11.8092 12.3835 11.6919 12.2663C11.5747 12.1491 11.4158 12.0833 11.25 12.0833Z" fill="#1672EB"/>
<path d="M16.6667 4.79163C16.4457 4.79163 16.2337 4.87942 16.0775 5.0357C15.9212 5.19198 15.8334 5.40395 15.8334 5.62496C15.8334 5.84597 15.9212 6.05793 16.0775 6.21421C16.2337 6.3705 16.4457 6.45829 16.6667 6.45829H17.5C17.7211 6.45829 17.933 6.3705 18.0893 6.21421C18.2456 6.05793 18.3334 5.84597 18.3334 5.62496C18.3334 5.40395 18.2456 5.19198 18.0893 5.0357C17.933 4.87942 17.7211 4.79163 17.5 4.79163H16.6667Z" fill="#1672EB"/>
<path d="M15.8333 3.12496C15.943 3.12559 16.0517 3.10457 16.1532 3.0631C16.2547 3.02163 16.3471 2.96053 16.4249 2.88329L17.2583 2.04996C17.3382 1.97226 17.402 1.87959 17.446 1.77723C17.4901 1.67488 17.5136 1.56484 17.5151 1.45341C17.5167 1.34198 17.4963 1.23134 17.4551 1.1278C17.4139 1.02426 17.3526 0.929848 17.2749 0.849961C17.1972 0.770073 17.1046 0.706272 17.0022 0.6622C16.8999 0.618127 16.7898 0.594647 16.6784 0.593099C16.567 0.591552 16.4563 0.611967 16.3528 0.65318C16.2492 0.694393 16.1548 0.755595 16.0749 0.833294L15.2416 1.66663C15.1635 1.7441 15.1015 1.83626 15.0592 1.93781C15.0169 2.03936 14.9951 2.14828 14.9951 2.25829C14.9951 2.3683 15.0169 2.47723 15.0592 2.57877C15.1015 2.68032 15.1635 2.77249 15.2416 2.84996C15.3167 2.93324 15.4078 3.00052 15.5094 3.04777C15.6111 3.09503 15.7212 3.12128 15.8333 3.12496Z" fill="#1672EB"/>
<path d="M2.49996 6.45829H3.33329C3.55431 6.45829 3.76627 6.3705 3.92255 6.21421C4.07883 6.05793 4.16663 5.84597 4.16663 5.62496C4.16663 5.40395 4.07883 5.19198 3.92255 5.0357C3.76627 4.87942 3.55431 4.79163 3.33329 4.79163H2.49996C2.27895 4.79163 2.06698 4.87942 1.9107 5.0357C1.75442 5.19198 1.66663 5.40395 1.66663 5.62496C1.66663 5.84597 1.75442 6.05793 1.9107 6.21421C2.06698 6.3705 2.27895 6.45829 2.49996 6.45829Z" fill="#1672EB"/>
<path d="M3.57502 2.88329C3.65249 2.9614 3.74465 3.0234 3.8462 3.0657C3.94775 3.10801 4.05667 3.12979 4.16668 3.12979C4.27669 3.12979 4.38562 3.10801 4.48717 3.0657C4.58871 3.0234 4.68088 2.9614 4.75835 2.88329C4.84161 2.80534 4.90798 2.71113 4.95336 2.60649C4.99873 2.50185 5.02215 2.38901 5.02215 2.27496C5.02215 2.16091 4.99873 2.04807 4.95336 1.94343C4.90798 1.83879 4.84161 1.74458 4.75835 1.66663L3.92502 0.833294C3.84513 0.755595 3.75072 0.694392 3.64718 0.65318C3.54364 0.611967 3.433 0.591552 3.32157 0.593099C3.09652 0.596225 2.88194 0.688621 2.72502 0.849961C2.5681 1.0113 2.4817 1.22837 2.48482 1.45341C2.48795 1.67846 2.58034 1.89304 2.74168 2.04996L3.57502 2.88329Z" fill="#1672EB"/>
<path d="M16.075 10.3833C16.1525 10.4614 16.2446 10.5234 16.3462 10.5657C16.4477 10.608 16.5566 10.6298 16.6667 10.6298C16.7767 10.6298 16.8856 10.608 16.9871 10.5657C17.0887 10.5234 17.1809 10.4614 17.2583 10.3833C17.3364 10.3059 17.3984 10.2137 17.4407 10.1121C17.483 10.0106 17.5048 9.90167 17.5048 9.79166C17.5048 9.68165 17.483 9.57273 17.4407 9.47118C17.3984 9.36963 17.3364 9.27746 17.2583 9.19999L16.425 8.36666C16.3473 8.28896 16.2551 8.22733 16.1535 8.18527C16.052 8.14322 15.9432 8.12158 15.8333 8.12158C15.6114 8.12158 15.3986 8.20974 15.2417 8.36666C15.164 8.44436 15.1023 8.5366 15.0603 8.63812C15.0182 8.73963 14.9966 8.84844 14.9966 8.95832C14.9966 9.18024 15.0847 9.39307 15.2417 9.54999L16.075 10.3833Z" fill="#1672EB"/>
<path d="M3.57495 8.33333L2.74162 9.16667C2.66351 9.24414 2.60151 9.3363 2.55921 9.43785C2.5169 9.5394 2.49512 9.64832 2.49512 9.75833C2.49512 9.86834 2.5169 9.97726 2.55921 10.0788C2.60151 10.1804 2.66351 10.2725 2.74162 10.35C2.81908 10.4281 2.91125 10.4901 3.0128 10.5324C3.11435 10.5747 3.22327 10.5965 3.33328 10.5965C3.44329 10.5965 3.55221 10.5747 3.65376 10.5324C3.75531 10.4901 3.84748 10.4281 3.92495 10.35L4.75828 9.51667C4.9152 9.35975 5.00336 9.14692 5.00336 8.925C5.00336 8.70308 4.9152 8.49025 4.75828 8.33333C4.60136 8.17641 4.38853 8.08826 4.16662 8.08826C3.9447 8.08826 3.73187 8.17641 3.57495 8.33333Z" fill="#1672EB"/>
<path d="M14.5834 5.625C14.5864 4.81489 14.3746 4.01845 13.9696 3.31681C13.5647 2.61517 12.981 2.03341 12.278 1.63078C11.575 1.22816 10.7778 1.01905 9.96773 1.02477C9.15763 1.03049 8.36352 1.25083 7.66628 1.66333C6.96905 2.07584 6.39361 2.66579 5.99857 3.37307C5.60354 4.08035 5.40303 4.8797 5.41748 5.6897C5.43192 6.49969 5.66079 7.29139 6.08079 7.98414C6.50078 8.67689 7.09689 9.24594 7.80838 9.63334C7.84126 9.65133 7.86868 9.67785 7.88774 9.71012C7.90681 9.74238 7.91682 9.77919 7.91672 9.81667V10.2083C7.91672 10.4293 8.00451 10.6413 8.16079 10.7976C8.31707 10.9539 8.52904 11.0417 8.75005 11.0417H11.25C11.4711 11.0417 11.683 10.9539 11.8393 10.7976C11.9956 10.6413 12.0834 10.4293 12.0834 10.2083V9.81667C12.0833 9.77919 12.0933 9.74238 12.1124 9.71012C12.1314 9.67785 12.1588 9.65133 12.1917 9.63334C12.914 9.24209 13.5174 8.66325 13.9383 7.95782C14.3593 7.25238 14.5821 6.44647 14.5834 5.625Z" fill="#1672EB"/>
<path d="M6.66667 14.3333C6.65857 14.2691 6.63646 14.2074 6.6019 14.1527C6.56733 14.098 6.52117 14.0515 6.46667 14.0166C6.40832 13.9879 6.34418 13.973 6.27917 13.973C6.21415 13.973 6.15001 13.9879 6.09167 14.0166L2.43333 15.45C1.71903 15.7178 1.1034 16.1971 0.668624 16.824C0.233845 17.4509 0.000593792 18.1954 0 18.9583C0 19.0688 0.0438987 19.1748 0.122039 19.2529C0.200179 19.3311 0.30616 19.375 0.416667 19.375H6.66667C6.72435 19.3744 6.78133 19.3623 6.83428 19.3394C6.88723 19.3165 6.93507 19.2832 6.975 19.2416C7.05101 19.1509 7.08973 19.0348 7.08333 18.9166L6.66667 14.3333Z" fill="#1672EB"/>
<path d="M17.575 15.4499L13.9084 13.9916C13.85 13.9629 13.7859 13.948 13.7209 13.948C13.6559 13.948 13.5917 13.9629 13.5334 13.9916C13.4789 14.0265 13.4327 14.073 13.3981 14.1277C13.3636 14.1824 13.3415 14.244 13.3334 14.3083L12.9167 18.8916C12.9103 19.0097 12.949 19.1259 13.025 19.2166C13.065 19.2582 13.1128 19.2915 13.1658 19.3144C13.2187 19.3373 13.2757 19.3493 13.3334 19.3499H19.5834C19.6939 19.3499 19.7999 19.306 19.878 19.2279C19.9561 19.1497 20 19.0438 20 18.9333C19.9916 18.1765 19.7559 17.4397 19.3234 16.8185C18.891 16.1974 18.2818 15.7205 17.575 15.4499Z" fill="#1672EB"/>
<path d="M10.3834 15.6749C10.3488 15.6026 10.2944 15.5416 10.2266 15.4989C10.1587 15.4561 10.0802 15.4335 10 15.4335C9.91988 15.4335 9.84134 15.4561 9.77352 15.4989C9.70569 15.5416 9.65132 15.6026 9.61671 15.6749L8.33337 18.7999C8.30511 18.8631 8.29407 18.9326 8.30139 19.0014C8.30871 19.0702 8.33412 19.1358 8.37504 19.1916C8.41178 19.2486 8.46241 19.2954 8.52217 19.3274C8.58194 19.3595 8.64889 19.3759 8.71671 19.3749H11.2167C11.2845 19.3759 11.3515 19.3595 11.4112 19.3274C11.471 19.2954 11.5216 19.2486 11.5584 19.1916C11.5993 19.1358 11.6247 19.0702 11.632 19.0014C11.6393 18.9326 11.6283 18.8631 11.6 18.7999L10.3834 15.6749Z" fill="#1672EB"/>
</g>
<defs>
<clipPath id="clip0_966_4728">
<rect width="20" height="20" fill="white"/>
</clipPath>
</defs>
</svg>
