<svg width="20" height="20" viewBox="0 0 20 20" fill="none" xmlns="http://www.w3.org/2000/svg">
<path d="M2.5 5V11.25" stroke="#1672EB" stroke-width="1.5" stroke-linecap="round" stroke-linejoin="round"/>
<path d="M4.375 16.875C5.60156 14.9938 7.58672 13.75 10 13.75C12.4133 13.75 14.3984 14.9938 15.625 16.875" stroke="#1672EB" stroke-width="1.5" stroke-linecap="round" stroke-linejoin="round"/>
<path d="M17.5 5L10 7.5L2.5 5L10 2.5L17.5 5Z" stroke="#1672EB" stroke-width="1.5" stroke-linecap="round" stroke-linejoin="round"/>
<path d="M13.2297 6.42346C13.8021 7.04986 14.18 7.82918 14.3173 8.66652C14.4547 9.50385 14.3455 10.3631 14.0033 11.1395C13.661 11.9159 13.1003 12.5761 12.3895 13.0395C11.6787 13.5029 10.8485 13.7497 10 13.7497C9.15148 13.7497 8.32126 13.5029 7.61048 13.0395C6.89969 12.5761 6.33902 11.9159 5.99674 11.1395C5.65446 10.3631 5.54535 9.50385 5.6827 8.66652C5.82005 7.82918 6.19793 7.04986 6.77032 6.42346" stroke="#1672EB" stroke-width="1.5" stroke-linecap="round" stroke-linejoin="round"/>
</svg>
