<svg width="16" height="16" viewBox="0 0 16 16" fill="none" xmlns="http://www.w3.org/2000/svg">
<path d="M7.14694 1.16897L1.18262 3.63699C0.850944 3.77425 0.85438 4.24547 1.18813 4.37776L7.17732 6.75291C7.70354 6.96162 8.28957 6.96162 8.81579 6.75291L14.8051 4.37767C15.1387 4.24547 15.1424 3.77434 14.8105 3.63708L8.84635 1.16888C8.30223 0.943708 7.69098 0.943708 7.14685 1.16888" fill="#FCB400"/>
<path d="M8.52705 8.05014V13.9837C8.52705 14.2658 8.81162 14.4591 9.07393 14.3552L15.7477 11.7646C15.8222 11.7351 15.886 11.6839 15.931 11.6177C15.976 11.5514 16 11.4732 16 11.3931V5.45968C16 5.17746 15.7154 4.98422 15.4531 5.08821L8.77933 7.67876C8.70492 7.70829 8.64108 7.75948 8.5961 7.82572C8.55112 7.89195 8.52706 7.97008 8.52705 8.05014Z" fill="#18BFFF"/>
<path d="M6.96603 8.35466L4.9854 9.31102L4.7843 9.40823L0.603304 11.4116C0.338364 11.5395 0 11.3463 0 11.0519V5.48289C0 5.37636 0.0546157 5.2844 0.127859 5.21522C0.157906 5.1853 0.191995 5.15973 0.229133 5.13927C0.32896 5.07931 0.471467 5.06331 0.592634 5.11123L6.93276 7.62347C7.25502 7.75134 7.28034 8.20284 6.96603 8.35466Z" fill="#F82B60"/>
<path d="M6.96887 8.35466L4.98824 9.31102L0.130699 5.21513C0.160753 5.18524 0.194841 5.15971 0.231973 5.13927C0.331801 5.07931 0.474308 5.06331 0.595475 5.11123L6.9356 7.62347C7.25786 7.75134 7.28318 8.20284 6.96887 8.35466Z" fill="black" fill-opacity="0.25"/>
</svg>
