<svg width="33" height="30" viewBox="0 0 33 30" fill="none" xmlns="http://www.w3.org/2000/svg">
<path d="M23.1587 7.15996C23.1587 11.0021 20.0435 14.1198 16.2014 14.1198C12.3568 14.1198 9.24161 11.0045 9.24161 7.15996C9.24161 3.31543 12.3568 0.200195 16.2014 0.200195C20.0435 0.200195 23.1587 3.31543 23.1587 7.15996ZM7.15996 15.8584C3.31784 15.8584 0.200195 18.9737 0.200195 22.8158C0.200195 26.658 3.31542 29.7756 7.15996 29.7756C11.0045 29.7756 14.1197 26.6603 14.1197 22.8158C14.1197 18.9737 11.0045 15.8584 7.15996 15.8584ZM25.2403 15.8584C21.3959 15.8584 18.2806 18.9737 18.2806 22.8183C18.2806 26.6627 21.3959 29.778 25.2403 29.778C29.0825 29.778 32.2002 26.6627 32.2002 22.8183C32.2002 18.9737 29.0849 15.8584 25.2403 15.8584Z" fill="#F06A6A"/>
</svg>
