<svg width="17" height="16" viewBox="0 0 17 16" fill="none" xmlns="http://www.w3.org/2000/svg">
<g clip-path="url(#clip0_505_366)">
<path d="M11.8972 10.5653L12.5929 12.9639L14.4159 14.9271C14.6624 14.7851 14.8723 14.5788 15.0199 14.3231L16.7136 11.3902C16.8612 11.1354 16.9345 10.8504 16.9345 10.5653L14.3334 10.0612L11.8972 10.5653Z" fill="#EA4335"/>
<path d="M11.4527 1.07089C11.2061 0.928823 10.9229 0.85 10.6278 0.85H7.2412C6.94791 0.85 6.66195 0.930656 6.41631 1.07089L7.14588 3.52812L8.92763 5.41986L8.93404 5.43269L10.7286 3.51804L11.4527 1.07089Z" fill="#188038"/>
<path d="M5.97087 10.5653L3.37432 9.96954L0.934494 10.5653C0.934494 10.8494 1.00782 11.1335 1.15446 11.3893L2.84822 14.3231C2.99579 14.5779 3.20567 14.7841 3.45222 14.9271L5.24772 13.0775L5.97087 10.5653Z" fill="#1967D2"/>
<path d="M14.3847 5.70766L12.0567 1.6749C11.9091 1.41918 11.6992 1.21296 11.4527 1.0709L8.93404 5.4327L11.8972 10.5653H16.9336C16.9336 10.2803 16.8603 9.99614 16.7127 9.74043L14.3847 5.70766Z" fill="#FBBC04"/>
<path d="M11.8972 10.5653H5.97086L3.45222 14.9271C3.69877 15.0692 3.98198 15.148 4.2771 15.148H13.59C13.8852 15.148 14.1684 15.0692 14.4149 14.9271L11.8972 10.5653Z" fill="#4285F4"/>
<path d="M8.93404 5.4327L6.41631 1.0709C6.16976 1.21296 5.96079 1.41827 5.81322 1.67307L1.15446 9.74318C1.00782 9.99798 0.934494 10.2821 0.934494 10.5653H5.97087L8.93404 5.4327Z" fill="#34A853"/>
</g>
<defs>
<clipPath id="clip0_505_366">
<rect width="16" height="16" fill="white" transform="translate(0.934494)"/>
</clipPath>
</defs>
</svg>
