<svg width="17" height="16" viewBox="0 0 17 16" fill="none" xmlns="http://www.w3.org/2000/svg">
<g clip-path="url(#clip0_419_306)">
<path d="M8.93449 0.186676C7.02996 0.186111 5.1877 0.865023 3.73898 2.10133C2.29027 3.33765 1.33014 5.05024 1.03125 6.93118C0.732355 8.81211 1.11431 10.738 2.10842 12.3625C3.10254 13.987 4.6436 15.2035 6.45449 15.7933H6.64116C6.81145 15.8016 6.97845 15.7444 7.10783 15.6333C7.18566 15.5656 7.24754 15.4814 7.28903 15.3869C7.33052 15.2924 7.3506 15.1899 7.34783 15.0867V14.9467C7.34783 14.8333 7.34783 14.68 7.34783 14.22C7.34246 14.1767 7.32849 14.135 7.30674 14.0972C7.28498 14.0594 7.25589 14.0264 7.22116 14C7.18322 13.9696 7.13909 13.9479 7.09187 13.9364C7.04466 13.9249 6.99549 13.9239 6.94783 13.9333C5.15449 14.32 4.77449 13.2 4.75449 13.1267C4.52899 12.5332 4.12632 12.0235 3.60116 11.6667L3.50116 11.5933C3.57988 11.5553 3.66739 11.5392 3.75449 11.5467C3.92064 11.5717 4.07766 11.6387 4.21066 11.7413C4.34367 11.844 4.44825 11.9789 4.51449 12.1333C4.77239 12.5824 5.19442 12.9139 5.69177 13.0581C6.18912 13.2024 6.72303 13.1481 7.18116 12.9067C7.23066 12.8847 7.27445 12.8516 7.30913 12.81C7.34381 12.7684 7.36845 12.7193 7.38116 12.6667C7.40819 12.3607 7.54006 12.0733 7.75449 11.8533C7.80393 11.8107 7.83976 11.7545 7.85754 11.6917C7.87531 11.6289 7.87425 11.5622 7.85449 11.5C7.83629 11.4377 7.79993 11.3822 7.75006 11.3407C7.70019 11.2991 7.63907 11.2733 7.57449 11.2667C5.99449 11.0867 4.37449 10.5333 4.37449 7.80668C4.36299 7.12102 4.61607 6.45728 5.08116 5.95334C5.1232 5.90731 5.15118 5.8502 5.16182 5.78878C5.17245 5.72735 5.16528 5.66416 5.14116 5.60668C4.95652 5.08663 4.95888 4.5185 5.14783 4.00001C5.76345 4.11002 6.34132 4.37373 6.82783 4.76668C6.86831 4.79435 6.91462 4.81236 6.96317 4.81929C7.01172 4.82623 7.06121 4.82191 7.10783 4.80668C7.70372 4.64776 8.31777 4.56708 8.93449 4.56668C9.55363 4.56374 10.1703 4.64447 10.7678 4.80668C10.8133 4.82186 10.8618 4.82614 10.9093 4.8192C10.9567 4.81225 11.0019 4.79426 11.0412 4.76668C11.5271 4.37273 12.1052 4.1089 12.7212 4.00001C12.9043 4.51305 12.9043 5.07364 12.7212 5.58668C12.697 5.64463 12.6905 5.70839 12.7024 5.77003C12.7142 5.83167 12.7439 5.88847 12.7878 5.93334C13.2457 6.43326 13.496 7.0888 13.4878 7.76668C13.4878 10.5 11.8678 11.0467 10.2812 11.22C10.2166 11.2267 10.1555 11.2524 10.1056 11.294C10.0557 11.3356 10.0194 11.391 10.0012 11.4533C9.98194 11.5146 9.98117 11.5801 9.99896 11.6417C10.0167 11.7034 10.0523 11.7584 10.1012 11.8C10.2486 11.9539 10.3613 12.1378 10.4314 12.3391C10.5016 12.5404 10.5276 12.7544 10.5078 12.9667V15.0867C10.5063 15.1903 10.5277 15.293 10.5703 15.3875C10.6129 15.4819 10.6758 15.5659 10.7545 15.6333C10.8538 15.709 10.9697 15.76 11.0925 15.782C11.2154 15.804 11.3418 15.7965 11.4612 15.76C13.2513 15.1508 14.7678 13.9272 15.7416 12.3063C16.7154 10.6853 17.0835 8.77187 16.7807 6.90532C16.4778 5.03878 15.5236 3.33984 14.0873 2.10993C12.651 0.88001 10.8254 0.198632 8.93449 0.186676Z" fill="#0A0B0D"/>
</g>
<defs>
<clipPath id="clip0_419_306">
<rect width="16" height="16" fill="white" transform="translate(0.934494)"/>
</clipPath>
</defs>
</svg>
