<svg viewBox="120 145 100 100" fill="none" xmlns="http://www.w3.org/2000/svg">
    <style>
        path {
            fill: black;
        }
        @media (prefers-color-scheme: dark) {
            path {
                fill: white;
            }
        }
    </style>
    <path d="M148.832 150.512C150.776 149.685 154.421 148.687 157.07 148.273C159.063 147.932 161.275 147.859 167.156 147.835H195.515H211.069C209.956 161.216 197.769 161.303 195.515 161.538C193.261 161.773 175.784 161.538 175.784 161.538C160.181 161.733 158.14 161.976 153.401 163.972C146.669 166.82 141.589 171.639 138.381 178.211C136.461 182.129 136.024 183.955 135.781 189.358C135.416 196.465 137.628 202.672 142.61 208.708C145.186 211.824 150.436 215.402 154.519 216.813C157.945 218.006 158.845 218.152 162.903 218.298C166.403 218.42 167.229 218.371 169.416 217.909C172.211 217.324 174.763 216.375 177.607 214.866C182.589 212.213 186.89 207.589 189.418 202.185C191.8 197.074 192.675 190.015 191.216 187.703C190.9 187.192 190.317 186.559 189.928 186.291C188.324 185.123 188.13 185.123 174.909 185.245L162.49 185.391L161.469 186.072C160.91 186.437 160.133 187.265 159.719 187.873C158.796 189.358 158.796 190.575 159.695 192.352C160.23 193.447 160.57 193.788 161.664 194.323L163 195.005H172.551H182.103V195.589C182.103 196.246 180.887 198.997 179.94 200.481C176.124 206.493 168.857 209.974 161.907 209.122C157.216 208.562 153.474 206.761 150.314 203.548C147.349 200.554 145.624 197.171 145.016 193.18C143.971 186.437 146.596 179.525 151.699 175.46C154.227 173.489 155.977 172.564 158.796 171.736L161.08 171.055L174.447 171.128C182.224 171.152 188.47 171.274 189.394 171.444C191.435 171.761 194.157 172.564 195.226 173.172C197.414 174.389 198.313 174.949 198.872 175.46C199.212 175.777 199.528 176.02 199.625 176.02C199.893 176.02 201.472 177.602 202.031 178.454C202.347 178.916 202.687 179.355 202.76 179.428C203.489 180.085 205.434 184.953 205.847 187.095C206.503 190.6 205.798 198.461 204.437 202.721C201.764 211.142 196.15 219.223 189.637 224.067C181.787 229.884 173.354 232.731 163.997 232.731C156.827 232.731 150.922 231.368 144.919 228.35C134.614 223.166 127.007 214.404 123.581 203.767C122.438 200.189 122.195 199.167 121.709 195.735C120.47 186.851 122.414 177.091 127.032 169.205C130.701 162.901 136.121 157.425 142.367 153.725C144.822 152.265 145.308 152.021 146.863 151.34C147.325 151.145 148.224 150.78 148.832 150.512Z"/>
</svg>
