<svg xmlns="http://www.w3.org/2000/svg" viewBox="0 0 24 24" id="hubspot">
  <path fill="#F8761F" d="M22.75 14.358c0-3.056-2.221-5.587-5.132-6.033V5.437c.815-.347 1.313-1.116 1.313-2.011 0-1.223-.974-2.245-2.189-2.245s-2.175 1.022-2.175 2.245c0 .895.499 1.664 1.313 2.011v2.869a5.979 5.979 0 0 0-1.989.638c-1.286-.98-5.472-4.017-7.865-5.85a2.46 2.46 0 0 0 .093-.647A2.443 2.443 0 0 0 3.681 0 2.441 2.441 0 0 0 1.25 2.447a2.442 2.442 0 0 0 2.431 2.452c.456 0 .88-.136 1.248-.356l7.6 5.377-.002-.001a6.099 6.099 0 0 0-1.9 4.434c0 1.373.452 2.639 1.211 3.656l-2.305 2.334a1.892 1.892 0 0 0-.652-.117c-.503 0-.974.197-1.327.553-.354.356-.549.834-.549 1.341s.196.98.549 1.336c.354.356.829.544 1.328.544.503 0 .974-.183 1.332-.544a1.888 1.888 0 0 0 .461-1.903l2.329-2.353a6.006 6.006 0 0 0 3.693 1.261c3.347 0 6.053-2.733 6.053-6.103zm-6.055 3.229c-1.774 0-3.213-1.448-3.213-3.234s1.438-3.234 3.213-3.234c1.774 0 3.213 1.448 3.213 3.234s-1.439 3.234-3.213 3.234z"></path>
</svg>
