<svg width="17" height="16" viewBox="0 0 17 16" fill="none" xmlns="http://www.w3.org/2000/svg">
<path d="M8.08262 7.78952C8.44019 7.78952 8.73003 8.07395 8.73003 8.42393C8.73003 8.775 8.44019 9.05888 8.08262 9.05888C7.72506 9.05888 7.43521 8.775 7.43521 8.42393C7.43521 8.07395 7.72506 7.78952 8.08262 7.78952ZM9.78594 7.78952C10.1435 7.78952 10.4333 8.07395 10.4333 8.42393C10.4333 8.775 10.1435 9.05888 9.78594 9.05888C9.42837 9.05888 9.13853 8.775 9.13853 8.42393C9.13853 8.07395 9.42837 7.78952 9.78594 7.78952ZM8.9955 10.0016C11.0044 10.0016 12.7722 7.30844 12.7722 3.89747C12.7722 0.487048 11.4865 0 8.9955 0C6.50446 0 5.09695 0.487048 5.09695 3.89747C5.09695 7.30843 6.78618 10.0016 8.9955 10.0016ZM13.4255 13.1146C13.1541 12.6633 12.8502 12.3111 12.5381 12.0218C12.225 11.732 11.9107 11.5033 11.6046 11.2747C11.46 11.1664 11.3116 11.0667 11.1604 10.9762C11.3116 10.8857 11.46 10.7855 11.6046 10.6771C12.3035 10.1554 12.9114 9.45166 13.4255 8.59676C13.607 8.29499 13.5041 7.906 13.1964 7.7283C12.8881 7.55061 12.4915 7.65083 12.3095 7.9526C11.8647 8.69319 11.3587 9.26638 10.8207 9.66729C10.2443 10.0947 9.67704 10.3066 9.0941 10.3402C9.04101 10.3385 8.98792 10.3369 8.93428 10.3369C8.88119 10.3369 8.82755 10.3386 8.77446 10.3402C8.19152 10.3066 7.62483 10.0947 7.04785 9.66729C6.50987 9.26638 6.00441 8.69319 5.55907 7.9526C5.37758 7.65083 4.98047 7.5506 4.67274 7.7283C4.36448 7.906 4.26208 8.29499 4.44358 8.5973C4.95771 9.45166 5.56503 10.1554 6.26391 10.6771C6.40856 10.7855 6.55701 10.8857 6.7087 10.9762C6.55701 11.0667 6.40856 11.1664 6.26391 11.2747C5.95836 11.5033 5.64359 11.732 5.33099 12.0218C5.01893 12.3111 4.71446 12.6633 4.44358 13.1145C4.26208 13.4163 4.36448 13.8058 4.67274 13.9835C4.98047 14.1612 5.37758 14.061 5.55907 13.7593C5.76765 13.4131 5.98165 13.1671 6.2222 12.9423C6.4622 12.7185 6.73525 12.5181 7.04839 12.2846C7.20117 12.1713 7.35286 12.0733 7.5051 11.9898C7.48668 12.0223 7.4688 12.0554 7.45092 12.0895C7.01155 12.9152 6.55918 14.061 6.55701 15.3661C6.55701 15.7161 6.84685 16 7.20442 16C7.56199 16 7.85183 15.7161 7.85183 15.3661C7.84966 14.3584 8.21698 13.3887 8.59784 12.6779C8.71378 12.4612 8.82972 12.2689 8.93428 12.1069C9.0448 12.277 9.16724 12.4807 9.2886 12.7115C9.6635 13.419 10.0189 14.3736 10.0167 15.3661C10.0167 15.7161 10.3066 16 10.6647 16C11.0223 16 11.3121 15.7161 11.3121 15.3661C11.3099 14.061 10.857 12.9152 10.4182 12.0895C10.3998 12.0554 10.3819 12.0224 10.364 11.9898C10.5157 12.0733 10.6679 12.1713 10.8207 12.2846C11.1333 12.5181 11.4064 12.7185 11.6469 12.9423C11.8875 13.1671 12.1009 13.4131 12.3095 13.7587C12.4303 13.9597 12.6465 14.0713 12.8681 14.0713C12.9797 14.0713 13.0929 14.0431 13.1964 13.9835C13.5041 13.8058 13.607 13.4163 13.4255 13.1145L13.4255 13.1146Z" fill="#3CA0FF"/>
</svg>
