<svg width="84" height="84" viewBox="0 0 84 84" fill="none" xmlns="http://www.w3.org/2000/svg">
<path fill-rule="evenodd" clip-rule="evenodd" d="M84 29.4C84 34.0375 80.143 37.8 75.383 37.8C71.372 37.8 67.998 35.1225 67.039 31.5H55.013C52.906 31.5 51.1105 32.984 50.764 35.0105L50.4105 37.0825C50.0796 38.9982 49.0891 40.7378 47.6105 42C49.0525 43.239 50.0745 44.954 50.4105 46.9175L50.7605 48.9895C50.9414 49.9829 51.4679 50.8802 52.2468 51.5227C53.0257 52.1652 54.0069 52.5114 55.0165 52.5H58.429C59.3845 48.8775 62.7585 46.2 66.773 46.2C71.533 46.2 75.3865 49.9625 75.3865 54.6C75.3865 59.2375 71.526 63 66.773 63C62.7585 63 59.388 60.3225 58.429 56.7H55.0165C50.8025 56.7 47.2115 53.732 46.5185 49.6825L46.165 47.6105C45.9843 46.6183 45.4588 45.7219 44.6814 45.0796C43.9039 44.4372 42.9244 44.0903 41.916 44.1H38.395C37.317 47.544 34.034 50.05 30.149 50.05C26.264 50.05 22.981 47.544 21.9065 44.1H16.8595C15.7815 47.544 12.4985 50.05 8.617 50.05C3.857 50.05 0 46.2875 0 41.65C0 37.0125 3.857 33.25 8.617 33.25C12.7575 33.25 16.219 36.1025 17.045 39.9H21.7245C22.5505 36.1025 26.012 33.25 30.1525 33.25C34.2965 33.25 37.7545 36.1025 38.5805 39.9H41.9125C44.016 39.9 45.815 38.416 46.158 36.3895L46.515 34.3175C47.208 30.268 50.8025 27.3 55.013 27.3H67.039C67.998 23.6775 71.372 21 75.383 21C80.143 21 84 24.7625 84 29.4ZM79.695 29.4C79.695 31.7205 77.763 33.6 75.383 33.6C73.003 33.6 71.078 31.7205 71.078 29.4C71.078 27.0795 73.003 25.2 75.383 25.2C77.763 25.2 79.6915 27.0795 79.6915 29.4H79.695ZM8.6135 45.85C10.9935 45.85 12.9185 43.9705 12.9185 41.65C12.9185 39.3295 10.9935 37.45 8.6135 37.45C6.2335 37.45 4.305 39.3295 4.305 41.65C4.305 43.9705 6.2335 45.85 8.6135 45.85ZM30.149 45.85C32.529 45.85 34.4575 43.9705 34.4575 41.65C34.4575 39.3295 32.5325 37.45 30.1525 37.45C27.7725 37.45 25.844 39.3295 25.844 41.65C25.844 43.9705 27.769 45.85 30.149 45.85ZM66.766 58.8C69.146 58.8 71.071 56.9205 71.071 54.6C71.071 52.2795 69.146 50.4 66.766 50.4C64.386 50.4 62.461 52.2795 62.461 54.6C62.461 56.9205 64.386 58.8 66.766 58.8Z" fill="#EA4B71"/>
</svg>
