<?xml version="1.0" encoding="UTF-8" standalone="no"?>
<svg
   width="149.55701"
   height="172.698"
   viewBox="0 0 149.55701 172.698"
   version="1.1"
   id="svg29"
   xmlns="http://www.w3.org/2000/svg"
   xmlns:svg="http://www.w3.org/2000/svg">
  <defs
     id="defs7">
    <linearGradient
       id="logosQdrant0"
       x1="94.702589"
       x2="62.805393"
       y1="88.903812"
       y2="88.903812"
       gradientTransform="scale(0.74339564,1.3451787)"
       gradientUnits="userSpaceOnUse">
      <stop
         offset="0%"
         stop-color="#ff3364"
         id="stop2" />
      <stop
         offset="100%"
         stop-color="#c91540"
         stop-opacity="0"
         id="stop4" />
    </linearGradient>
  </defs>
  <path
     fill="#24386c"
     d="m 117.61,158.742 -3.443,-94.939 -6.236,-25.03 41.626,4.406 v 114.844 l -25.428,14.675 z"
     id="path11" />
  <path
     fill="#7589be"
     d="M 149.554,43.173 124.126,57.858 71.653,46.348 10.233,71.355 0,43.173 37.382,21.586 74.776,0 112.159,21.586 Z"
     id="path13" />
  <path
     fill="#b2bfe8"
     d="m 0.002,43.173 25.427,14.685 14.74,43.837 49.769,39.821 L 74.779,172.691 37.385,151.103 0.002,129.517 V 43.172"
     id="path15" />
  <path
     fill="#24386c"
     d="m 91.637,118.481 -16.858,24.852 v 29.36 l 23.92,-13.802 12.326,-18.404"
     id="path17" />
  <path
     fill="#7589be"
     d="M 74.789,113.983 50.858,72.549 56.013,58.817 75.608,49.316 98.699,72.55 Z"
     id="path19" />
  <path
     fill="#b2bfe8"
     d="m 50.858,72.546 23.921,13.802 v 27.626 L 52.655,114.925 39.273,97.838 Z"
     id="path21" />
  <path
     fill="#24386c"
     d="m 74.779,86.345 23.92,-13.8 16.28,27.107 -19.7,16.277 -20.5,-1.957 z"
     id="path23" />
  <path
     fill="#dc244c"
     d="m 98.7,158.889 25.427,13.803 V 57.859 L 99.447,43.616 74.78,29.372 50.1,43.616 25.432,57.859 v 56.985 L 50.1,129.087 74.78,143.332 98.7,129.518 Z m 0,-58.73 -23.922,13.811 -23.92,-13.813 V 72.544 l 23.92,-13.813 23.92,13.813 z"
     id="path25" />
  <path
     fill="url(#logosQdrant0)"
     d="M 74.789,143.342 V 113.978 L 50.993,100.283 v 29.315 z"
     id="path27"
     style="fill:url(#logosQdrant0)" />
</svg>
