<svg width="40" height="40" viewBox="0 0 40 40" fill="none" xmlns="http://www.w3.org/2000/svg">
<path d="M21.6258 26.8161C21.6258 24.9989 21.6258 24.0903 21.9795 23.3962C22.2906 22.7856 22.7869 22.2892 23.3975 21.9782C24.0916 21.6245 25.0002 21.6245 26.8174 21.6245H30.1842C32.0015 21.6245 32.9101 21.6245 33.6042 21.9782C34.2147 22.2892 34.7111 22.7856 35.0222 23.3962C35.3758 24.0903 35.3758 24.9989 35.3758 26.8161V30.1829C35.3758 32.0001 35.3758 32.9087 35.0222 33.6028C34.7111 34.2134 34.2147 34.7098 33.6042 35.0208C32.9101 35.3745 32.0015 35.3745 30.1842 35.3745H26.8174C25.0002 35.3745 24.0916 35.3745 23.3975 35.0208C22.7869 34.7098 22.2906 34.2134 21.9795 33.6028C21.6258 32.9087 21.6258 32.0001 21.6258 30.1829V26.8161Z" fill="#386AF5"/>
<path d="M4.62402 28.4995C4.62402 24.7025 7.70207 21.6245 11.499 21.6245C15.296 21.6245 18.374 24.7025 18.374 28.4995C18.374 32.2965 15.296 35.3745 11.499 35.3745C7.70207 35.3745 4.62402 32.2965 4.62402 28.4995Z" fill="#F53878"/>
<path d="M4.62402 9.81708C4.62402 7.99985 4.62402 7.09124 4.97768 6.39715C5.28876 5.78661 5.78515 5.29023 6.39569 4.97914C7.08978 4.62549 7.99839 4.62549 9.81562 4.62549H30.1842C32.0015 4.62549 32.9101 4.62549 33.6042 4.97914C34.2147 5.29023 34.7111 5.78661 35.0222 6.39715C35.3758 7.09124 35.3758 7.99985 35.3758 9.81708V13.1839C35.3758 15.0011 35.3758 15.9097 35.0222 16.6038C34.7111 17.2144 34.2147 17.7107 33.6042 18.0218C32.9101 18.3755 32.0015 18.3755 30.1842 18.3755H9.81562C7.99839 18.3755 7.08978 18.3755 6.39569 18.0218C5.78515 17.7107 5.28876 17.2144 4.97768 16.6038C4.62402 15.9097 4.62402 15.0011 4.62402 13.1839V9.81708Z" fill="#FCB500"/>
</svg>
