<svg width="17" height="16" viewBox="0 0 17 16" fill="none" xmlns="http://www.w3.org/2000/svg">
<path fill-rule="evenodd" clip-rule="evenodd" d="M14.5637 0H2.37076C1.86613 0.000694604 1.38237 0.201466 1.02554 0.558293C0.668713 0.91512 0.467942 1.39888 0.467247 1.90351V14.0965C0.467942 14.6011 0.668713 15.0849 1.02554 15.4417C1.38237 15.7985 1.86613 15.9993 2.37076 16H14.5637C15.0684 15.9993 15.5521 15.7985 15.909 15.4417C16.2658 15.0849 16.4666 14.6011 16.4672 14.0965V1.90351C16.4666 1.39888 16.2658 0.91512 15.909 0.558293C15.5521 0.201466 15.0684 0.000694604 14.5637 0ZM7.35927 11.5235C7.35927 11.6913 7.29261 11.8522 7.17394 11.9709C7.05528 12.0896 6.89434 12.1562 6.72652 12.1562H4.05373C3.88591 12.1562 3.72497 12.0896 3.6063 11.9709C3.48764 11.8522 3.42097 11.6913 3.42097 11.5235V3.58648C3.42097 3.41866 3.48764 3.25772 3.6063 3.13905C3.72497 3.02039 3.88591 2.95373 4.05373 2.95373H6.72652C6.89434 2.95373 7.05528 3.02039 7.17394 3.13905C7.29261 3.25772 7.35927 3.41866 7.35927 3.58648V11.5235ZM13.5135 7.87923C13.5153 7.96342 13.5002 8.04711 13.4692 8.1254C13.4382 8.20369 13.3918 8.27501 13.3329 8.33516C13.274 8.39532 13.2036 8.4431 13.126 8.47572C13.0483 8.50833 12.965 8.52513 12.8808 8.52511H10.208C10.0402 8.52511 9.87922 8.45844 9.76055 8.33978C9.64189 8.22111 9.57522 8.06017 9.57522 7.89235V3.58648C9.57522 3.41866 9.64189 3.25772 9.76055 3.13905C9.87922 3.02039 10.0402 2.95373 10.208 2.95373H12.8808C13.0486 2.95373 13.2095 3.02039 13.3282 3.13905C13.4469 3.25772 13.5135 3.41866 13.5135 3.58648V7.87923Z" fill="url(#paint0_linear_1007_203)"/>
<defs>
<linearGradient id="paint0_linear_1007_203" x1="8.46725" y1="16" x2="8.46725" y2="0" gradientUnits="userSpaceOnUse">
<stop stop-color="#0052CC"/>
<stop offset="1" stop-color="#2684FF"/>
</linearGradient>
</defs>
</svg>
