<svg width="17" height="16" viewBox="0 0 17 16" fill="none" xmlns="http://www.w3.org/2000/svg">
<g clip-path="url(#clip0_616_162)">
<path d="M15.0145 0H2.85449C1.79411 0 0.934494 0.859613 0.934494 1.92V14.08C0.934494 15.1404 1.79411 16 2.85449 16H15.0145C16.0749 16 16.9345 15.1404 16.9345 14.08V1.92C16.9345 0.859613 16.0749 0 15.0145 0Z" fill="#FF4F00"/>
<path d="M3.34575 13.0159L3.34346 13.0087L4.78608 11.6881V11.0517H2.47164V11.6881H3.85405L3.85634 11.6941L2.42783 13.0159V13.6523H4.80932V13.0159H3.34575Z" fill="#FFFDF9"/>
<path d="M6.23021 10.991C5.96323 10.991 5.74565 11.0314 5.57749 11.1119C5.42083 11.182 5.28888 11.2977 5.19874 11.4438C5.1125 11.5908 5.05835 11.7544 5.03984 11.9238L5.7421 12.0225C5.7675 11.8729 5.81831 11.7669 5.89451 11.7044C5.98114 11.639 6.08789 11.606 6.1963 11.611C6.33881 11.611 6.44219 11.6492 6.50646 11.7253C6.5701 11.8015 6.60249 11.9071 6.60249 12.0461V12.1155H5.92728C5.58359 12.1155 5.33667 12.1917 5.18654 12.3441C5.03641 12.4966 4.96147 12.6977 4.96172 12.9477C4.96172 13.2038 5.03667 13.3943 5.18654 13.5193C5.33642 13.6442 5.5249 13.7064 5.752 13.7056C6.03372 13.7056 6.2504 13.6087 6.40206 13.4149C6.49162 13.2957 6.55557 13.1594 6.58991 13.0144H6.61544L6.71222 13.6508H7.34857V12.0393C7.34857 11.7063 7.2608 11.4483 7.08526 11.2654C6.90973 11.0825 6.62471 10.991 6.23021 10.991ZM6.45273 12.9774C6.35176 13.0616 6.21954 13.1036 6.05493 13.1036C5.91928 13.1036 5.82504 13.0798 5.7722 13.0323C5.74645 13.0099 5.72597 12.982 5.71221 12.9507C5.69845 12.9194 5.69174 12.8854 5.69257 12.8513C5.69106 12.8191 5.69613 12.7869 5.70746 12.7567C5.7188 12.7265 5.73616 12.6989 5.75848 12.6757C5.78263 12.653 5.81112 12.6355 5.84223 12.6241C5.87334 12.6128 5.90642 12.6079 5.93948 12.6097H6.60362V12.6536C6.60498 12.7155 6.59207 12.7769 6.5659 12.8331C6.53974 12.8892 6.50102 12.9386 6.45273 12.9774Z" fill="#FFFDF9"/>
<path d="M11.1964 11.0517H10.4446V13.6527H11.1964V11.0517Z" fill="#FFFDF9"/>
<path d="M15.6352 11.0517C15.4228 11.0517 15.2554 11.1267 15.133 11.2765C15.0451 11.3842 14.9783 11.5434 14.9325 11.754H14.9104L14.8121 11.0517H14.1701V13.6523H14.9219V12.3187C14.9219 12.1505 14.9612 12.0216 15.04 11.9319C15.1187 11.8422 15.264 11.7974 15.4759 11.7974H15.7613V11.0517H15.6352Z" fill="#FFFDF9"/>
<path d="M13.4239 11.1366C13.2483 11.0322 13.027 10.9802 12.7598 10.9804C12.3391 10.9804 12.0099 11.1002 11.7721 11.3398C11.5343 11.5793 11.4155 11.9096 11.4155 12.3305C11.4094 12.585 11.4649 12.8371 11.5774 13.0655C11.6803 13.269 11.8406 13.4379 12.0384 13.5513C12.2376 13.6664 12.4745 13.724 12.7491 13.7243C12.9866 13.7243 13.185 13.6877 13.3443 13.6146C13.494 13.5489 13.6244 13.4459 13.723 13.3154C13.8169 13.1874 13.8866 13.0433 13.9288 12.8902L13.281 12.7089C13.2537 12.8084 13.2012 12.8992 13.1286 12.9725C13.0555 13.0457 12.9329 13.0822 12.7609 13.0822C12.5564 13.0822 12.404 13.0237 12.3036 12.9066C12.2309 12.822 12.1851 12.7012 12.165 12.5446H13.9387C13.9459 12.4714 13.9497 12.4101 13.9497 12.3606V12.1986C13.954 11.981 13.9091 11.7654 13.8183 11.5676C13.7333 11.3875 13.5958 11.2372 13.4239 11.1366ZM12.738 11.6004C13.0428 11.6004 13.2157 11.7504 13.2566 12.0504H12.1783C12.1954 11.9503 12.2369 11.8559 12.299 11.7757C12.3979 11.6586 12.5442 11.6001 12.738 11.6004Z" fill="#FFFDF9"/>
<path d="M10.8288 10.0035C10.7723 10.0015 10.7159 10.011 10.6631 10.0313C10.6103 10.0516 10.5621 10.0823 10.5214 10.1216C10.4812 10.1612 10.4497 10.2088 10.4289 10.2613C10.4082 10.3138 10.3985 10.37 10.4005 10.4264C10.3985 10.4832 10.4082 10.5398 10.429 10.5926C10.4498 10.6454 10.4813 10.6935 10.5215 10.7336C10.5617 10.7738 10.6098 10.8052 10.6626 10.826C10.7155 10.8467 10.7721 10.8564 10.8288 10.8543C10.8853 10.8565 10.9415 10.8468 10.994 10.826C11.0464 10.8052 11.094 10.7737 11.1337 10.7335C11.173 10.6929 11.2037 10.6448 11.2239 10.592C11.2442 10.5392 11.2535 10.4829 11.2514 10.4264C11.254 10.3702 11.2449 10.3142 11.2246 10.2618C11.2043 10.2094 11.1733 10.1617 11.1336 10.122C11.0939 10.0822 11.0462 10.0511 10.9938 10.0308C10.9415 10.0105 10.8854 10.0013 10.8292 10.0038L10.8288 10.0035Z" fill="#FFFDF9"/>
<path d="M9.2758 10.9804C9.01974 10.9804 8.81398 11.0609 8.65852 11.2216C8.54345 11.3408 8.45897 11.5186 8.40508 11.7551H8.38108L8.28278 11.0529H7.64073V14.3999H8.39254V13.0213H8.42C8.44291 13.1132 8.4751 13.2026 8.516 13.288C8.57961 13.4272 8.68387 13.5439 8.81513 13.6226C8.9512 13.6968 9.10448 13.7338 9.25942 13.7297C9.57411 13.7297 9.81379 13.6071 9.9784 13.3619C10.143 13.1168 10.2253 12.7748 10.2253 12.3358C10.2253 11.9118 10.1457 11.58 9.9864 11.3402C9.82716 11.1004 9.5903 10.9804 9.2758 10.9804ZM9.35196 12.8651C9.26435 12.9921 9.1272 13.0556 8.94044 13.0556C8.86345 13.0591 8.78678 13.0443 8.71664 13.0123C8.64656 12.9803 8.58505 12.932 8.53731 12.8716C8.44003 12.7494 8.39152 12.5821 8.39177 12.3697V12.3202C8.39177 12.1045 8.44028 11.9394 8.53731 11.8248C8.6344 11.7103 8.76873 11.6536 8.94044 11.6549C9.13046 11.6549 9.26857 11.7152 9.35465 11.8359C9.4408 11.9566 9.4838 12.1249 9.4838 12.3407C9.48431 12.564 9.44067 12.7388 9.35273 12.8651H9.35196Z" fill="#FFFDF9"/>
</g>
<defs>
<clipPath id="clip0_616_162">
<rect width="16" height="16" fill="white" transform="translate(0.934494)"/>
</clipPath>
</defs>
</svg>
