<svg id="Layer_1" data-name="Layer 1" xmlns="http://www.w3.org/2000/svg" xmlns:xlink="http://www.w3.org/1999/xlink" viewBox="0 0 600 260"><defs><style>.cls-1{fill:#fff;}.cls-2{fill:url(#gradient_10);}.cls-28,.cls-29,.cls-3,.cls-30,.cls-45,.cls-5{fill:none;}.cls-3,.cls-5{stroke-width:1.2px;}.cls-3{stroke:url(#gradient_7);}.cls-4{fill:url(#gradient_7-2);}.cls-5{stroke:url(#gradient_7-3);}.cls-6{fill:url(#gradient_7-4);}.cls-7{fill:url(#gradient_7-5);}.cls-8{fill:url(#gradient_7-6);}.cls-10,.cls-11,.cls-12,.cls-13,.cls-14,.cls-15,.cls-16,.cls-17,.cls-18,.cls-19,.cls-20,.cls-46,.cls-48,.cls-49,.cls-50,.cls-51,.cls-52,.cls-53,.cls-54,.cls-9{fill-rule:evenodd;}.cls-9{fill:url(#gradient_17);}.cls-10{fill:url(#gradient_17-2);}.cls-11{fill:url(#gradient_17-3);}.cls-12{fill:url(#gradient_17-4);}.cls-13{fill:url(#gradient_17-5);}.cls-14{fill:url(#gradient_17-6);}.cls-15{fill:url(#gradient_17-7);}.cls-16{fill:url(#gradient_17-8);}.cls-17{fill:url(#gradient_17-9);}.cls-18{fill:url(#gradient_61);}.cls-19{fill:url(#gradient_61-2);}.cls-20{fill:url(#gradient_61-3);}.cls-21{fill:url(#gradient_17-10);}.cls-22{fill:url(#gradient_61-4);}.cls-23{mask:url(#mask);}.cls-24{fill:url(#gradient_22);}.cls-25{fill:url(#gradient_17-11);}.cls-26{fill:url(#gradient_61-5);}.cls-27{mask:url(#mask-2);}.cls-28,.cls-29,.cls-30{stroke-linecap:round;stroke-linejoin:round;stroke-width:2px;}.cls-28{stroke:url(#gradient_27);}.cls-29{stroke:url(#gradient_27-2);}.cls-30{stroke:url(#gradient_27-3);}.cls-31{fill:url(#gradient_61-6);}.cls-32{fill:url(#gradient_17-12);}.cls-33{fill:url(#gradient_17-13);}.cls-34{fill:url(#gradient_17-14);}.cls-35,.cls-37{opacity:0;}.cls-35{fill:url(#gradient_61-7);}.cls-36{fill:url(#gradient_61-8);}.cls-37{fill:url(#gradient_61-9);}.cls-38{fill:url(#gradient_61-10);}.cls-39{fill:url(#gradient_61-11);}.cls-40{fill:url(#gradient_61-12);}.cls-41{mask:url(#mask-4);}.cls-42{fill:url(#gradient_40);}.cls-43{fill:url(#gradient_61-13);}.cls-44{fill:url(#gradient_17-15);}.cls-46{fill:url(#gradient_61-14);}.cls-47{fill:url(#gradient_40-2);}.cls-48{fill:url(#gradient_61-15);}.cls-49{fill:url(#gradient_44);}.cls-50{fill:url(#gradient_61-16);}.cls-51{fill:url(#gradient_44-2);}.cls-52{fill:url(#gradient_61-17);}.cls-53{fill:url(#gradient_61-18);}.cls-54{fill:url(#gradient_61-19);}.cls-55{fill:url(#gradient_17-16);}.cls-56{fill:url(#gradient_61-20);}.cls-57{fill:url(#gradient_61-21);}.cls-58{fill:url(#gradient_61-22);}</style><linearGradient id="gradient_10" x1="240.05" y1="50.09" x2="191.47" y2="50.37" gradientUnits="userSpaceOnUse"><stop offset="0" stop-color="#12acf1" stop-opacity="0.12"/><stop offset="0.3" stop-color="#12acf1" stop-opacity="0.2"/><stop offset="1" stop-color="#12acf1" stop-opacity="0.12"/></linearGradient><linearGradient id="gradient_7" x1="-295.93" y1="441.97" x2="-296.68" y2="441.98" gradientTransform="matrix(142, 0, 0, -50.74, 42317, 22535.46)" gradientUnits="userSpaceOnUse"><stop offset="0" stop-color="#12acf1" stop-opacity="0.12"/><stop offset="0.3" stop-color="#12acf1" stop-opacity="0.2"/><stop offset="0.99" stop-color="#12acf1" stop-opacity="0.12"/></linearGradient><linearGradient id="gradient_7-2" x1="447.38" y1="193.86" x2="344.54" y2="195.75" gradientTransform="matrix(1, 0, 0, 1, 0, 0)" xlink:href="#gradient_7"/><linearGradient id="gradient_7-3" x1="-295.89" y1="441.29" x2="-296.6" y2="441.3" gradientTransform="matrix(125, 0, 0, -45, 37403, 19965)" xlink:href="#gradient_7"/><linearGradient id="gradient_7-4" x1="446.81" y1="229.21" x2="404.2" y2="229.74" gradientTransform="matrix(1, 0, 0, 1, 0, 0)" xlink:href="#gradient_7"/><linearGradient id="gradient_7-5" x1="170.55" y1="218.17" x2="131.08" y2="218.64" gradientTransform="matrix(1, 0, 0, 1, 0, 0)" xlink:href="#gradient_7"/><linearGradient id="gradient_7-6" x1="178.49" y1="176.05" x2="117.54" y2="177.12" gradientTransform="matrix(1, 0, 0, 1, 0, 0)" xlink:href="#gradient_7"/><linearGradient id="gradient_17" x1="-295.19" y1="442.24" x2="-296.01" y2="442.24" gradientTransform="matrix(99.85, 0, 0, -57.06, 29756.57, 25374.43)" gradientUnits="userSpaceOnUse"><stop offset="0" stop-color="#69bbff" stop-opacity="0.2"/><stop offset="1" stop-color="#257aff" stop-opacity="0"/></linearGradient><linearGradient id="gradient_17-2" x1="-292.34" y1="443.83" x2="-292.66" y2="442.88" gradientTransform="matrix(49.93, 0, 0, -85.59, 14878.62, 38126.88)" xlink:href="#gradient_17"/><linearGradient id="gradient_17-3" x1="-292.73" y1="443.12" x2="-292.37" y2="443.46" gradientTransform="matrix(49.93, 0, 0, -85.59, 14828.79, 38126.88)" xlink:href="#gradient_17"/><linearGradient id="gradient_17-4" x1="-295.18" y1="442.24" x2="-296" y2="442.24" gradientTransform="matrix(99.85, 0, 0, -57.06, 29856.51, 25374.43)" xlink:href="#gradient_17"/><linearGradient id="gradient_17-5" x1="-292.31" y1="443.83" x2="-292.63" y2="442.88" gradientTransform="matrix(49.93, 0, 0, -85.59, 14978.56, 38126.88)" xlink:href="#gradient_17"/><linearGradient id="gradient_17-6" x1="-292.68" y1="443.14" x2="-292.33" y2="443.48" gradientTransform="matrix(49.93, 0, 0, -85.59, 14928.63, 38126.88)" xlink:href="#gradient_17"/><linearGradient id="gradient_17-7" x1="-296.01" y1="442.26" x2="-295.16" y2="442.26" gradientTransform="matrix(99.85, 0, 0, -57.06, 29806.41, 25288.94)" xlink:href="#gradient_17"/><linearGradient id="gradient_17-8" x1="-292.59" y1="443.06" x2="-292.31" y2="443.83" gradientTransform="matrix(49.93, 0, 0, -85.59, 14928.64, 38041.3)" xlink:href="#gradient_17"/><linearGradient id="gradient_17-9" x1="-292.69" y1="443.16" x2="-292.35" y2="443.49" gradientTransform="matrix(49.93, 0, 0, -85.59, 14878.71, 38041.3)" xlink:href="#gradient_17"/><linearGradient id="gradient_61" x1="-295" y1="442.25" x2="-295.91" y2="442.25" gradientTransform="matrix(99.85, 0, 0, -57.06, 29806.5, 25345.9)" gradientUnits="userSpaceOnUse"><stop offset="0" stop-color="#69bbff"/><stop offset="1" stop-color="#257aff"/></linearGradient><linearGradient id="gradient_61-2" x1="-292.68" y1="443.08" x2="-292.34" y2="443.54" gradientTransform="matrix(49.93, 0, 0, -85.59, 14928.64, 38098.35)" xlink:href="#gradient_61"/><linearGradient id="gradient_61-3" x1="-292.69" y1="443.08" x2="-292.35" y2="443.54" gradientTransform="matrix(49.93, 0, 0, -85.59, 14878.71, 38098.35)" xlink:href="#gradient_61"/><linearGradient id="gradient_17-10" x1="-294" y1="442.91" x2="-293.11" y2="442.05" gradientTransform="matrix(60, 0, 0, -60, 18052, 26633)" xlink:href="#gradient_17"/><linearGradient id="gradient_61-4" x1="-287.95" y1="436.83" x2="-288.93" y2="437.3" gradientTransform="matrix(30, 0, 0, -22, 9097, 9704)" xlink:href="#gradient_61"/><mask id="mask" x="427.96" y="77.28" width="30.36" height="22.27" maskUnits="userSpaceOnUse"><g id="mask-22"><rect id="path-21" class="cls-1" x="427.96" y="77.28" width="30.36" height="22.27" rx="2.02"/></g></mask><linearGradient id="gradient_22" x1="-288.2" y1="432.41" x2="-288.84" y2="432.66" gradientTransform="matrix(29.77, 0, 0, -14.14, 9028.07, 6199.39)" gradientUnits="userSpaceOnUse"><stop offset="0" stop-color="#fff" stop-opacity="0.6"/><stop offset="1" stop-color="#fff" stop-opacity="0"/></linearGradient><linearGradient id="gradient_17-11" x1="-293.98" y1="442.9" x2="-293.09" y2="442.04" gradientTransform="matrix(60, 0, 0, -60, 18151, 26667)" xlink:href="#gradient_17"/><linearGradient id="gradient_61-5" x1="-287.91" y1="437.46" x2="-288.89" y2="438.03" gradientTransform="matrix(30, 0, 0, -24, 9196, 10629)" xlink:href="#gradient_61"/><mask id="mask-2" x="528.15" y="110.68" width="30.36" height="24.29" maskUnits="userSpaceOnUse"><g id="mask-26"><rect id="path-25" class="cls-1" x="528.15" y="110.68" width="30.36" height="24.29" rx="2.02"/></g></mask><linearGradient id="gradient_27" x1="-204.5" y1="422.75" x2="-204.33" y2="421.88" gradientTransform="matrix(3.21, 0, 0, -7.99, 1206.07, 3497.18)" gradientUnits="userSpaceOnUse"><stop offset="0" stop-color="#fff" stop-opacity="0.5"/><stop offset="1" stop-color="#fff"/></linearGradient><linearGradient id="gradient_27-2" x1="-392.75" y1="422.75" x2="-392.58" y2="421.88" gradientTransform="translate(-724.22 3497.18) rotate(180) scale(3.21 7.99)" xlink:href="#gradient_27"/><linearGradient id="gradient_27-3" x1="-149.93" y1="422.74" x2="-149.86" y2="421.88" gradientTransform="matrix(2.03, 0, 0, -7.99, 848.13, 3497.18)" xlink:href="#gradient_27"/><linearGradient id="gradient_61-6" x1="-288.84" y1="383.6" x2="-287.96" y2="383.61" gradientTransform="matrix(30, 0, 0, -3, 9196, 1263)" xlink:href="#gradient_61"/><linearGradient id="gradient_17-12" x1="-293.88" y1="442.99" x2="-292.99" y2="442.14" gradientTransform="matrix(60, 0, 0, -60, 18105, 26749)" xlink:href="#gradient_17"/><linearGradient id="gradient_17-13" x1="-294.07" y1="442.89" x2="-293.18" y2="442.03" gradientTransform="matrix(60, 0, 0, -60, 17690, 26744)" xlink:href="#gradient_17"/><linearGradient id="gradient_17-14" x1="-294.07" y1="442.9" x2="-293.19" y2="442.05" gradientTransform="matrix(60, 0, 0, -60, 17663, 26662)" xlink:href="#gradient_17"/><linearGradient id="gradient_61-7" x1="37.3" y1="117.76" x2="61.59" y2="117.76" gradientTransform="matrix(1, 0, 0, 1, 0, 0)" xlink:href="#gradient_61"/><linearGradient id="gradient_61-8" x1="-286.25" y1="437.88" x2="-286.04" y2="437.62" gradientTransform="matrix(24, 0, 0, -24, 6917, 10624)" xlink:href="#gradient_61"/><linearGradient id="gradient_61-9" x1="44.39" y1="117.76" x2="54.51" y2="117.76" gradientTransform="matrix(1, 0, 0, 1, 0, 0)" xlink:href="#gradient_61"/><linearGradient id="gradient_61-10" x1="-268.87" y1="437.88" x2="-268.84" y2="437.62" gradientTransform="matrix(10, 0, 0, -24, 2738, 10624)" xlink:href="#gradient_61"/><linearGradient id="gradient_61-11" x1="-286.53" y1="383.59" x2="-285.73" y2="383.57" gradientTransform="matrix(24, 0, 0, -3, 6917, 1268.5)" xlink:href="#gradient_61"/><linearGradient id="gradient_61-12" x1="-288.1" y1="437.42" x2="-289.07" y2="437.99" gradientTransform="matrix(30, 0, 0, -24, 8735, 10706)" xlink:href="#gradient_61"/><mask id="mask-4" x="61.59" y="188.61" width="30.36" height="24.29" maskUnits="userSpaceOnUse"><g id="mask-34"><rect id="path-33" class="cls-1" x="61.59" y="188.61" width="30.36" height="24.29" rx="2.02"/></g></mask><linearGradient id="gradient_40" x1="-264.77" y1="429.46" x2="-265.12" y2="430.57" gradientTransform="matrix(8.84, 0, 0, -12, 2419.18, 5363.61)" gradientUnits="userSpaceOnUse"><stop offset="0" stop-color="#fff"/><stop offset="1" stop-color="#fff" stop-opacity="0.5"/></linearGradient><linearGradient id="gradient_61-13" x1="-289.03" y1="383.29" x2="-288.15" y2="383.3" gradientTransform="matrix(30, 0, 0, -3, 8735, 1340)" xlink:href="#gradient_61"/><linearGradient id="gradient_17-15" x1="-294.05" y1="442.9" x2="-293.17" y2="442.05" gradientTransform="matrix(60, 0, 0, -60, 17769, 26659)" xlink:href="#gradient_17"/><linearGradient id="gradient_61-14" x1="-287.8" y1="438.95" x2="-286.82" y2="438.07" gradientTransform="matrix(26.67, 0, 0, -26.67, 7819, 11809)" xlink:href="#gradient_61"/><linearGradient id="gradient_40-2" x1="-259.86" y1="430.3" x2="-259.37" y2="429.29" gradientTransform="matrix(7.64, 0, 0, -11.86, 2140.58, 5210.31)" xlink:href="#gradient_40"/><linearGradient id="gradient_61-15" x1="-284.99" y1="429.23" x2="-283.98" y2="429.12" gradientTransform="matrix(22, 0, 0, -11.03, 6762, 4944.75)" xlink:href="#gradient_61"/><linearGradient id="gradient_44" x1="-283.98" y1="420.96" x2="-284.99" y2="421.02" gradientTransform="matrix(22, 0, 0, -7.36, 6762, 3300.61)" gradientUnits="userSpaceOnUse"><stop offset="0" stop-color="#fbfeff"/><stop offset="1" stop-color="#ceeefc"/></linearGradient><linearGradient id="gradient_61-16" x1="-284.99" y1="429.24" x2="-283.98" y2="429.13" gradientTransform="matrix(22, 0, 0, -11.03, 6762, 4936.4)" xlink:href="#gradient_61"/><linearGradient id="gradient_44-2" x1="-283.98" y1="420.97" x2="-284.99" y2="421.03" gradientTransform="matrix(22, 0, 0, -7.36, 6762, 3292.27)" xlink:href="#gradient_44"/><linearGradient id="gradient_61-17" x1="-284.99" y1="429.25" x2="-283.98" y2="429.14" gradientTransform="matrix(22, 0, 0, -11.03, 6762, 4928.06)" xlink:href="#gradient_61"/><linearGradient id="gradient_61-18" x1="-283.98" y1="421.01" x2="-284.89" y2="421.01" gradientTransform="matrix(22, 0, 0, -7.36, 6762, 3283.92)" xlink:href="#gradient_61"/><linearGradient id="gradient_61-19" x1="-256.86" y1="372.04" x2="-255.95" y2="372.04" gradientTransform="matrix(7.33, 0, 0, -2.45, 2384, 1099.09)" xlink:href="#gradient_61"/><linearGradient id="gradient_17-16" x1="-294.06" y1="442.92" x2="-293.17" y2="442.06" gradientTransform="matrix(60, 0, 0, -60, 17743, 26576)" xlink:href="#gradient_17"/><linearGradient id="gradient_61-20" x1="-279.33" y1="383.92" x2="-280.41" y2="383.92" gradientTransform="matrix(16, 0, 0, -3, 4622.5, 1182.5)" xlink:href="#gradient_61"/><linearGradient id="gradient_61-21" x1="-277.72" y1="432.72" x2="-276.74" y2="431.84" gradientTransform="matrix(14, 0, 0, -14, 4013, 6083)" xlink:href="#gradient_61"/><linearGradient id="gradient_61-22" x1="108.65" y1="30.73" x2="133.86" y2="30.73" gradientTransform="matrix(1, 0, 0, 1, 0, 0)" xlink:href="#gradient_61"/></defs><g id="Path-24"><path class="cls-2" d="M277.67,38.6,263.2,30.91a8.7,8.7,0,0,0-8.61.26L194,68.17a7.51,7.51,0,0,1-7.71.06l-32-18.85-.61,1,32,18.85a8.65,8.65,0,0,0,8.94-.07l60.64-37a7.52,7.52,0,0,1,7.42-.22l13.79,7.33Z"/></g><path id="Path-23" class="cls-3" d="M184.38,102.18l18.91-11.34a8.11,8.11,0,0,1,8.15-.11l89,50.31"/><g id="Path-22"><path class="cls-4" d="M275.86,212.87l58.48,35.41a8.62,8.62,0,0,0,9.09-.05l42.32-26.32,1.14-.71,127.24-79.13,4-2.12-.55-1.07L513.54,141,385.73,220.51l-1.14.71-41.79,26a7.46,7.46,0,0,1-7.84,0l-57.91-35.08Z"/></g><path id="Path-19" class="cls-5" d="M417.25,104.28,406.81,111a8.09,8.09,0,0,1-8.44.21l-18-10.4a8.08,8.08,0,0,0-8,0l-44.55,25.06"/><g id="Path-20"><path class="cls-6" d="M373.65,214.73l10.94,6.49,1.16.69,37.67,22.39a8.68,8.68,0,0,0,9-.1l45.45-28.29-.64-1-45.45,28.29a7.45,7.45,0,0,1-7.79.08L386.89,221.2l-1.16-.69L374.85,214Z"/></g><g id="Path-15"><path class="cls-7" d="M199.77,199.21,141.2,236.89a8.7,8.7,0,0,1-9.42,0L102,217.62l.65-1,29.76,19.25a7.49,7.49,0,0,0,8.12,0l58.68-37.75Z"/></g><g id="Path-15-2" data-name="Path-15"><path class="cls-8" d="M223.08,212.53,215,217.71a8.76,8.76,0,0,1-9.33,0L74.27,135.3l.64-1,131.42,82.46a7.53,7.53,0,0,0,8,0l7.53-4.84"/></g><g id="Group-13"><polygon id="Fill-1" class="cls-9" points="199.23 141.16 249.76 170.03 300.29 141.16 249.76 112.29 199.23 141.16"/><polygon id="Fill-2" class="cls-10" points="249.76 170.03 249.76 227.78 300.29 198.91 300.29 141.16 249.76 170.03"/><polygon id="Fill-3" class="cls-11" points="199.23 198.91 249.76 227.78 249.76 170.03 199.23 141.16 199.23 198.91"/><polygon id="Fill-4" class="cls-12" points="300.29 141.16 350.82 170.03 401.35 141.16 350.82 112.29 300.29 141.16"/><polygon id="Fill-5" class="cls-13" points="350.82 170.03 350.82 227.78 401.35 198.91 401.35 141.16 350.82 170.03"/><polygon id="Fill-6" class="cls-14" points="300.29 198.91 350.82 227.78 350.82 170.03 300.29 141.16 300.29 198.91"/><polygon id="Fill-7" class="cls-15" points="300.29 25.67 249.76 54.54 300.29 83.41 350.82 54.54 300.29 25.67"/><polygon id="Fill-8" class="cls-16" points="300.29 83.41 300.29 141.16 350.82 112.29 350.82 54.54 300.29 83.41"/><polygon id="Fill-9" class="cls-17" points="300.29 83.41 300.29 141.16 249.76 112.29 249.76 54.54 300.29 83.41"/><polygon id="Fill-10" class="cls-18" points="350.82 112.29 300.29 141.16 249.76 112.29 300.29 83.41 350.82 112.29"/><polygon id="Fill-11" class="cls-19" points="300.29 141.16 300.29 198.91 350.82 170.03 350.82 112.29 300.29 141.16"/><polygon id="Fill-12" class="cls-20" points="300.29 141.16 300.29 198.91 249.76 170.03 249.76 112.29 300.29 141.16"/></g><circle id="Oval" class="cls-21" cx="443.14" cy="88.41" r="30.36"/><g id="Rectangle"><g id="Mask-6" data-name="Mask"><rect id="path-21-2" data-name="path-21" class="cls-22" x="427.96" y="77.28" width="30.36" height="22.27" rx="2.02"/></g><g class="cls-23"><path id="Path" class="cls-24" d="M458.2,78.63,446.72,90.11a5.06,5.06,0,0,1-7.16,0L428.08,78.63a2,2,0,0,1,1.9-1.35H456.3A2,2,0,0,1,458.2,78.63Z"/></g></g><circle id="Oval-2" data-name="Oval" class="cls-25" cx="543.33" cy="122.82" r="30.36"/><g id="Mask-7" data-name="Mask"><rect id="path-25-3" data-name="path-25" class="cls-26" x="528.15" y="110.68" width="30.36" height="24.29" rx="2.02"/><g class="cls-27"><g id="Group"><polyline id="Path-6" class="cls-28" points="548.02 119.79 551.27 123.83 548.02 127.87"/><polyline id="Path-6-2" data-name="Path-6" class="cls-29" points="538.49 119.79 535.24 123.83 538.49 127.87"/><path id="Path-7" class="cls-30" d="M542.17,127.87l2.06-8.08"/></g></g><g class="cls-27"><rect class="cls-31" x="528.15" y="110.68" width="30.36" height="3.04"/></g></g><circle id="Oval-3" data-name="Oval" class="cls-32" cx="503.32" cy="199.28" r="30.36"/><circle id="Oval-4" data-name="Oval" class="cls-33" cx="76.77" cy="200.75" r="30.36"/><circle id="Oval-5" data-name="Oval" class="cls-34" cx="49.45" cy="117.76" r="30.36"/><g id="Group-10"><g id="Oval-6" data-name="Oval"><circle class="cls-35" cx="49.45" cy="117.76" r="12.14"/><path class="cls-36" d="M49.45,130.76a13,13,0,1,1,13-13A13,13,0,0,1,49.45,130.76Zm0-24.28a11.29,11.29,0,1,0,11.29,11.28A11.29,11.29,0,0,0,49.45,106.48Z"/></g><g id="Oval-7" data-name="Oval"><ellipse class="cls-37" cx="49.45" cy="117.76" rx="5.06" ry="12.14"/><path class="cls-38" d="M49.45,130.76c-3.37,0-5.92-5.58-5.92-13s2.55-13,5.92-13,5.92,5.59,5.92,13S52.82,130.76,49.45,130.76Zm0-24.28c-2,0-4.21,4.63-4.21,11.28s2.22,11.29,4.21,11.29,4.2-4.63,4.2-11.29S51.44,106.48,49.45,106.48Z"/></g><polygon id="Path-2" class="cls-39" points="37.3 119.28 61.59 119.28 61.59 116.25 37.3 116.25 37.3 119.28"/></g><g id="Mask-8" data-name="Mask"><rect id="path-33-3" data-name="path-33" class="cls-40" x="61.59" y="188.61" width="30.36" height="24.29" rx="2.02"/><g class="cls-41"><path id="Fill-1-2" data-name="Fill-1" class="cls-42" d="M81.45,202.67l-7.82-5.85a.56.56,0,0,0-.9.52L73.89,207a.56.56,0,0,0,1,.31l2-2.25,2,3.48a.57.57,0,0,0,.77.21l.43-.25a.56.56,0,0,0,.2-.77l-2-3.48,3-.61a.56.56,0,0,0,.23-1"/></g><g class="cls-41"><rect class="cls-43" x="61.59" y="188.61" width="30.36" height="3.04"/></g></g><circle id="Oval-8" data-name="Oval" class="cls-44" cx="156.73" cy="114.73" r="30.36"/><g id="round-query_builder-24px" data-name="round-query builder-24px"><polygon id="Path-2-2" data-name="Path" class="cls-45" points="140.53 98.53 172.92 98.53 172.92 130.92 140.53 130.92 140.53 98.53"/><path id="Shape" class="cls-46" d="M156.71,101.23a13.5,13.5,0,1,0,13.51,13.5A13.49,13.49,0,0,0,156.71,101.23Z"/><path id="Path-3" data-name="Path" class="cls-47" d="M156.43,108h-.08a1,1,0,0,0-1,1v6.37a1.33,1.33,0,0,0,.66,1.16l5.6,3.36a1,1,0,1,0,1-1.66l-5.22-3.1V109a1,1,0,0,0-1-1Z"/></g><g id="Group-15"><path id="Fill-1-3" data-name="Fill-1" class="cls-48" d="M492.18,203.7v7.44c0,2.06,5,3.73,11.14,3.73s11.13-1.67,11.13-3.73V203.7Z"/><path id="Fill-3-2" data-name="Fill-3" class="cls-49" d="M514.45,203.7c0,2.06-5,3.72-11.13,3.72s-11.14-1.66-11.14-3.72,5-3.72,11.14-3.72,11.13,1.66,11.13,3.72"/><path id="Fill-5-2" data-name="Fill-5" class="cls-50" d="M492.18,195.25v7.45c0,2.05,5,3.72,11.14,3.72s11.13-1.67,11.13-3.72v-7.45Z"/><path id="Fill-7-2" data-name="Fill-7" class="cls-51" d="M514.45,195.25c0,2.06-5,3.72-11.13,3.72s-11.14-1.66-11.14-3.72,5-3.72,11.14-3.72,11.13,1.67,11.13,3.72"/><path id="Fill-9-2" data-name="Fill-9" class="cls-52" d="M492.18,186.8v7.45c0,2.06,5,3.72,11.14,3.72s11.13-1.66,11.13-3.72V186.8Z"/><path id="Fill-11-2" data-name="Fill-11" class="cls-53" d="M514.45,186.8c0,2.06-5,3.73-11.13,3.73s-11.14-1.67-11.14-3.73,5-3.72,11.14-3.72,11.13,1.67,11.13,3.72"/><path id="Fill-13" class="cls-54" d="M507,186.8c0,.69-1.66,1.25-3.71,1.25s-3.71-.56-3.71-1.25,1.66-1.24,3.71-1.24,3.71.56,3.71,1.24"/></g><circle id="Oval-9" data-name="Oval" class="cls-55" cx="130.41" cy="30.73" r="30.36"/><path id="Path-8" class="cls-56" d="M150.65,29.21H137.5a1.52,1.52,0,0,0,0,3h13.15a1.52,1.52,0,0,0,0-3Z"/><circle id="Oval-10" data-name="Oval" class="cls-57" cx="131.43" cy="30.73" r="7.08"/><path class="cls-58" d="M131.43,42a11.29,11.29,0,0,1,0-22.58.86.86,0,0,0,0-1.71,13,13,0,0,0-12.92,11.5l-.24,0h-8.1a1.52,1.52,0,1,0,0,3h8.1l.24,0a13,13,0,0,0,12.92,11.51.86.86,0,0,0,.85-.86A.85.85,0,0,0,131.43,42Z"/></svg>
