<svg id="layer_1" data-name="layer 1" xmlns="http://www.w3.org/2000/svg" xmlns:xlink="http://www.w3.org/1999/xlink" viewBox="0 0 808 240"><defs><style>.cls-1,.cls-2{fill:#fff;}.cls-2{fill-opacity:0.01;}.cls-3,.cls-4,.cls-5,.cls-6,.cls-7,.cls-8{fill:none;stroke-linecap:round;stroke-miterlimit:10;stroke-width:1.5px;}.cls-3{stroke:url(#gradient_35);}.cls-4{stroke:url(#gradient_35-2);}.cls-5{stroke:url(#gradient_35-3);}.cls-6{stroke:url(#gradient_35-4);}.cls-7{stroke:url(#gradient_35-5);}.cls-8{stroke:url(#gradient_35-6);}.cls-9{mask:url(#mask);}.cls-10{fill:#12181d;}.cls-11{fill:#9fa5a9;fill-opacity:0.3;}.cls-12{mask:url(#mask-11);}.cls-13,.cls-14,.cls-15,.cls-16,.cls-19,.cls-20,.cls-21,.cls-22,.cls-23,.cls-25,.cls-26,.cls-27,.cls-28,.cls-29,.cls-30,.cls-31,.cls-32,.cls-33,.cls-34,.cls-35,.cls-36,.cls-37,.cls-38{fill-rule:evenodd;}.cls-13{fill:url(#gradient_35-7);}.cls-14{fill:url(#gradient_35-8);}.cls-15{fill:url(#gradient_35-9);}.cls-16{fill:url(#gradient_35-10);}.cls-17{mask:url(#mask-15);}.cls-18{fill:url(#gradient_35-11);}.cls-19{fill:url(#gradient_35-12);}.cls-20{fill:url(#gradient_35-13);}.cls-21{fill:url(#gradient_35-14);}.cls-22{fill:url(#gradient_35-15);}.cls-23{fill:url(#gradient_35-16);}.cls-24{mask:url(#mask-21);}.cls-25{fill:url(#gradient_35-17);}.cls-26{fill:url(#gradient_35-18);}.cls-27{fill:url(#gradient_35-19);}.cls-28{fill:url(#gradient_35-20);}.cls-29{fill:url(#gradient_35-21);}.cls-30{fill:url(#gradient_35-22);}.cls-31{fill:url(#gradient_35-23);}.cls-32{fill:url(#gradient_35-24);}.cls-33{fill:url(#gradient_35-25);}.cls-34{fill:url(#gradient_35-26);}.cls-35{fill:url(#gradient_35-27);}.cls-36{fill:url(#gradient_35-28);}.cls-37{fill:url(#gradient_35-29);}.cls-38{fill:url(#gradient_35-30);}</style><linearGradient id="gradient_35" x1="273.25" y1="160" x2="281.06" y2="160" gradientUnits="userSpaceOnUse"><stop offset="0" stop-color="#69bbff" stop-opacity="0.5"/><stop offset="1" stop-color="#257aff"/></linearGradient><linearGradient id="gradient_35-2" x1="243.25" y1="160" x2="280.75" y2="160" xlink:href="#gradient_35"/><linearGradient id="gradient_35-3" x1="589.25" y1="127" x2="597.06" y2="127" xlink:href="#gradient_35"/><linearGradient id="gradient_35-4" x1="559.25" y1="127" x2="596.75" y2="127" xlink:href="#gradient_35"/><linearGradient id="gradient_35-5" x1="558.94" y1="113" x2="566.75" y2="113" xlink:href="#gradient_35"/><linearGradient id="gradient_35-6" x1="559.25" y1="113" x2="596.75" y2="113" xlink:href="#gradient_35"/><mask id="mask" x="292" y="20" width="256" height="200" maskUnits="userSpaceOnUse"><g id="mask-3"><rect id="path-2" class="cls-1" x="292" y="20" width="256" height="200" rx="8"/></g></mask><mask id="mask-11" x="38" y="45" width="188" height="120" maskUnits="userSpaceOnUse"><g id="mask-26"><rect id="path-25" class="cls-1" x="38" y="45" width="188" height="120" rx="2"/></g></mask><linearGradient id="gradient_35-7" x1="105.32" y1="490.22" x2="104.34" y2="490.23" gradientTransform="matrix(64, 0, 0, -6, -6624, 3033.34)" xlink:href="#gradient_35"/><linearGradient id="gradient_35-8" x1="105.34" y1="490.22" x2="104.34" y2="490.23" gradientTransform="matrix(64, 0, 0, -6, -6624, 3045.34)" xlink:href="#gradient_35"/><linearGradient id="gradient_35-9" x1="105.34" y1="490.22" x2="104.34" y2="490.23" gradientTransform="matrix(64, 0, 0, -6, -6624, 3057.34)" xlink:href="#gradient_35"/><linearGradient id="gradient_35-10" x1="105.34" y1="490.22" x2="104.34" y2="490.23" gradientTransform="matrix(64, 0, 0, -6, -6624, 3069.34)" xlink:href="#gradient_35"/><mask id="mask-15" x="38" y="45" width="188" height="133" maskUnits="userSpaceOnUse"><g id="mask-26-5" data-name="mask-26"><rect id="path-25-5" data-name="path-25" class="cls-1" x="38" y="45" width="188" height="120" rx="2"/></g></mask><linearGradient id="gradient_35-11" x1="105.62" y1="536.12" x2="104.85" y2="537.56" gradientTransform="matrix(78, 0, 0, -89, -8030, 47927.19)" xlink:href="#gradient_35"/><linearGradient id="gradient_35-12" x1="101.09" y1="490.15" x2="100.11" y2="490.3" gradientTransform="matrix(18, 0, 0, -6, -1748, 3005.34)" xlink:href="#gradient_35"/><linearGradient id="gradient_35-13" x1="100.36" y1="490.13" x2="99.38" y2="490.32" gradientTransform="matrix(16, 0, 0, -6, -1396, 3005.34)" xlink:href="#gradient_35"/><linearGradient id="gradient_35-14" x1="100.36" y1="490.13" x2="99.38" y2="490.32" gradientTransform="matrix(16, 0, 0, -6, -1418, 3005.34)" xlink:href="#gradient_35"/><linearGradient id="gradient_35-15" x1="100.36" y1="490.13" x2="99.38" y2="490.32" gradientTransform="matrix(16, 0, 0, -6, -1440, 3005.34)" xlink:href="#gradient_35"/><linearGradient id="gradient_35-16" x1="104.75" y1="490.21" x2="103.75" y2="490.23" gradientTransform="matrix(47, 0, 0, -6, -4822, 3081.34)" xlink:href="#gradient_35"/><mask id="mask-21" x="614" y="45" width="188" height="120" maskUnits="userSpaceOnUse"><g id="mask-34"><rect id="path-33" class="cls-1" x="614" y="45" width="188" height="120" rx="2"/></g></mask><linearGradient id="gradient_35-17" x1="105.78" y1="490.22" x2="104.81" y2="490.23" gradientTransform="matrix(89, 0, 0, -6, -8698, 3009.34)" xlink:href="#gradient_35"/><linearGradient id="gradient_35-18" x1="105.34" y1="490.22" x2="104.37" y2="490.23" gradientTransform="matrix(65, 0, 0, -6, -6154, 3022.34)" xlink:href="#gradient_35"/><linearGradient id="gradient_35-19" x1="105.68" y1="490.22" x2="104.71" y2="490.23" gradientTransform="matrix(82, 0, 0, -6, -7956, 3035.34)" xlink:href="#gradient_35"/><linearGradient id="gradient_35-20" x1="105.9" y1="490.22" x2="104.93" y2="490.23" gradientTransform="matrix(99, 0, 0, -6, -9758, 3048.34)" xlink:href="#gradient_35"/><linearGradient id="gradient_35-21" x1="104.03" y1="490.2" x2="103.06" y2="490.24" gradientTransform="matrix(36, 0, 0, -6, -3080, 3061.34)" xlink:href="#gradient_35"/><linearGradient id="gradient_35-22" x1="105.42" y1="490.22" x2="104.44" y2="490.23" gradientTransform="matrix(68, 0, 0, -6, -6472, 3074.34)" xlink:href="#gradient_35"/><linearGradient id="gradient_35-23" x1="105.78" y1="490.22" x2="104.81" y2="490.23" gradientTransform="matrix(89, 0, 0, -6, -8698, 3087.34)" xlink:href="#gradient_35"/><linearGradient id="gradient_35-24" x1="100.36" y1="490.13" x2="99.38" y2="490.32" gradientTransform="matrix(16, 0, 0, -6, -820, 3009.34)" xlink:href="#gradient_35"/><linearGradient id="gradient_35-25" x1="101.68" y1="490.16" x2="100.7" y2="490.29" gradientTransform="matrix(20, 0, 0, -6, -1248, 3022.34)" xlink:href="#gradient_35"/><linearGradient id="gradient_35-26" x1="96.41" y1="489.96" x2="95.43" y2="490.47" gradientTransform="matrix(10, 0, 0, -6, -178, 3035.34)" xlink:href="#gradient_35"/><linearGradient id="gradient_35-27" x1="101.68" y1="490.16" x2="100.7" y2="490.29" gradientTransform="matrix(20, 0, 0, -6, -1248, 3048.34)" xlink:href="#gradient_35"/><linearGradient id="gradient_35-28" x1="100.36" y1="490.13" x2="99.38" y2="490.32" gradientTransform="matrix(16, 0, 0, -6, -820, 3061.34)" xlink:href="#gradient_35"/><linearGradient id="gradient_35-29" x1="101.68" y1="490.16" x2="100.7" y2="490.29" gradientTransform="matrix(20, 0, 0, -6, -1248, 3074.34)" xlink:href="#gradient_35"/><linearGradient id="gradient_35-30" x1="101.68" y1="490.16" x2="100.7" y2="490.29" gradientTransform="matrix(20, 0, 0, -6, -1248, 3087.34)" xlink:href="#gradient_35"/></defs><title>storage-07</title><g id="Design"><g id="Group-10"><rect id="Rectangle" class="cls-2" width="808" height="240"/><g id="Group-8"><polyline id="Path-17" class="cls-3" points="274 166 280 160 274 154"/><path id="Path-18" class="cls-4" d="M280,160H244"/></g><g id="Group-9"><g id="Group-8-2" data-name="Group-8"><polyline id="Path-17-2" data-name="Path-17" class="cls-5" points="590 133 596 127 590 121"/><path id="Path-18-2" data-name="Path-18" class="cls-6" d="M596,127H560"/></g><g id="Group-8-3" data-name="Group-8"><polyline id="Path-17-3" data-name="Path-17" class="cls-7" points="566 119 560 113 566 107"/><path id="Path-18-3" data-name="Path-18" class="cls-8" d="M560,113h36"/></g></g><g id="Row-_-Row-_-Row-_-Row-_-Row-_-Row-_-Row-_-Row-_-Row-_-Row-Mask" data-name="Row-+-Row-+-Row-+-Row-+-Row-+-Row-+-Row-+-Row-+-Row-+-Row-Mask"><g id="Mask-35" data-name="Mask"><rect id="path-2-11" data-name="path-2" x="292" y="20" width="256" height="200" rx="8"/><rect id="path-2-12" data-name="path-2" class="cls-1" x="292" y="20" width="256" height="200" rx="8"/></g><g class="cls-9"><g id="Row"><g id="Base"><rect id="path-5" x="460" y="180" width="88" height="40"/><rect id="path-5-2" data-name="path-5" class="cls-1" x="460" y="180" width="88" height="40"/></g><path id="_642Kb" data-name="642Kb" class="cls-10" d="M480.44,205.13c-2.73,0-3.6-2-3.6-4.55v-.24c0-3.6,1.62-5.48,3.92-5.48a2.73,2.73,0,0,1,2.93,2.43h-1.17a1.65,1.65,0,0,0-1.84-1.43c-1.52,0-2.58,1.36-2.64,4a2.93,2.93,0,0,1,2.58-1.36,3.16,3.16,0,0,1,3.28,3.28A3.21,3.21,0,0,1,480.44,205.13Zm0-1a2.36,2.36,0,1,0-2.31-2.5A2.22,2.22,0,0,0,480.44,204.17Zm9.78.83v-2.1h-5v-.39l4.58-7.52h1.62v6.92h1.39v1h-1.39V205Zm-3.47-3.09h3.47v-6Zm6.82,3.09v-.28l4-4.19a4.26,4.26,0,0,0,1.44-2.89,1.65,1.65,0,0,0-1.79-1.8c-1.17,0-1.92.66-2.12,2.23H494a3.14,3.14,0,0,1,3.25-3.21,2.73,2.73,0,0,1,3,2.82,5.43,5.43,0,0,1-2,3.64L495.45,204h4.83v1ZM506,205V195h1.22v4.82L511.6,195H513l-4.45,4.87,4.67,5.15h-1.47l-4.46-4.89V205Zm12.18.13a2.81,2.81,0,0,1-2.48-1.33V205h-1.16V194.18h1.16v4.73a3,3,0,0,1,2.48-1.36c1.92,0,3.33,1.4,3.33,3.68v.12C521.54,203.59,520.23,205.13,518.21,205.13Zm-.11-1c1.45,0,2.24-1,2.24-2.76v-.11c0-1.85-1-2.77-2.26-2.77s-2.39.89-2.39,2.77v.11C515.69,203.28,516.67,204.16,518.1,204.16Z"/></g></g><g class="cls-9"><g id="Row-2" data-name="Row"><g id="Base-2" data-name="Base"><rect id="path-7" x="460" y="140" width="88" height="40"/><rect id="path-7-2" data-name="path-7" class="cls-1" x="460" y="140" width="88" height="40"/></g><path id="_525KB" data-name="525KB" class="cls-10" d="M479.93,165.13c-2.15,0-3.19-1.19-3.33-2.83h1.16a1.9,1.9,0,0,0,2.16,1.85,2.14,2.14,0,0,0,2.2-2.43,2.09,2.09,0,0,0-2.1-2.33,2.87,2.87,0,0,0-2.37,1h-.45V155h5.63v1h-4.62v3.05a3,3,0,0,1,2.05-.68,3,3,0,0,1,3.1,3.31A3.27,3.27,0,0,1,479.93,165.13Zm4.55-.13v-.28l4-4.19a4.26,4.26,0,0,0,1.44-2.89,1.65,1.65,0,0,0-1.79-1.8c-1.16,0-1.92.66-2.11,2.23h-1.14a3.15,3.15,0,0,1,3.25-3.21,2.73,2.73,0,0,1,3,2.82,5.46,5.46,0,0,1-2,3.64L486.36,164h4.83v1Zm11.43.13c-2.16,0-3.19-1.19-3.33-2.83h1.16a1.89,1.89,0,0,0,2.15,1.85,2.14,2.14,0,0,0,2.2-2.43,2.08,2.08,0,0,0-2.1-2.33,2.85,2.85,0,0,0-2.36,1h-.45V155h5.63v1h-4.62v3.05a2.93,2.93,0,0,1,2-.68,3,3,0,0,1,3.11,3.31A3.27,3.27,0,0,1,495.91,165.13Zm9.25-.13V155h1.22v4.82l4.35-4.83h1.36l-4.45,4.87,4.68,5.15h-1.47l-4.47-4.89V165Zm8.63,0V155h3c1.86,0,3.22.62,3.22,2.59v.06a2,2,0,0,1-1.52,2.11,2.2,2.2,0,0,1,2,2.39v.06c0,1.89-1.29,2.8-3.29,2.8Zm1.19-.95h2.21c1.45,0,2.13-.65,2.13-1.86v-.06c0-1.23-.69-1.82-2.3-1.82h-2Zm0-4.69h1.82c1.47,0,2-.53,2-1.77v-.05c0-1.14-.66-1.6-2.06-1.6H515Z"/></g></g><g class="cls-9"><g id="Row-3" data-name="Row"><g id="Base-3" data-name="Base"><rect id="path-9" x="460" y="100" width="88" height="40"/><rect id="path-9-2" data-name="path-9" class="cls-1" x="460" y="100" width="88" height="40"/></g><path id="_1.2MB" data-name="1.2MB" class="cls-10" d="M478.7,125v-8.81l-2.24,1.61v-1.13l2.33-1.68h1.13v10Zm4.86.07a.9.9,0,1,1,.9-.9A.9.9,0,0,1,483.56,125.07Zm2.24-.07v-.28l4-4.19a4.26,4.26,0,0,0,1.44-2.89,1.65,1.65,0,0,0-1.79-1.8c-1.17,0-1.92.66-2.12,2.23h-1.13a3.14,3.14,0,0,1,3.25-3.21,2.73,2.73,0,0,1,3,2.82,5.43,5.43,0,0,1-2,3.64L487.68,124h4.83v1Zm12.46,0V115H500l3.1,7.8,3-7.8h1.68v10h-1.21v-8.43L503.19,125h-.38l-3.43-8.43V125Zm12,0V115h3c1.87,0,3.22.62,3.22,2.59v.06a2,2,0,0,1-1.51,2.11,2.19,2.19,0,0,1,2,2.39v.06c0,1.89-1.28,2.8-3.29,2.8Zm1.19-1h2.22c1.45,0,2.12-.65,2.12-1.86v-.06c0-1.23-.68-1.82-2.29-1.82h-2.05Zm0-4.69h1.82c1.47,0,2-.53,2-1.77v0c0-1.14-.65-1.6-2-1.6h-1.8Z"/></g></g><g class="cls-9"><g id="Row-4" data-name="Row"><g id="Base-4" data-name="Base"><rect id="path-11" x="460" y="60" width="88" height="40"/><rect id="path-11-2" data-name="path-11" class="cls-1" x="460" y="60" width="88" height="40"/></g><path id="_934B" data-name="934B" class="cls-10" d="M480.06,85.11a2.94,2.94,0,0,1-3.22-2.57H478a1.84,1.84,0,0,0,2.07,1.58c1.59,0,2.53-1.32,2.56-4a2.94,2.94,0,0,1-2.59,1.33,3.15,3.15,0,0,1-3.29-3.27,3.2,3.2,0,0,1,3.46-3.35c2.36,0,3.6,1.6,3.6,4.48V80C483.83,83.28,482.45,85.11,480.06,85.11Zm.18-4.59a2.13,2.13,0,0,0,2.3-2.17,2.27,2.27,0,0,0-2.31-2.55,2.36,2.36,0,0,0,0,4.72Zm8.5,4.61a3.2,3.2,0,0,1-3.5-3.08h1.12a2.17,2.17,0,0,0,2.41,2.1c1.57,0,2.28-.76,2.28-1.94s-.7-1.94-2.11-1.94h-.76v-1h.7c1.3,0,1.88-.62,1.88-1.71a1.63,1.63,0,0,0-1.82-1.68,2.08,2.08,0,0,0-2.22,1.89h-1.06a3.1,3.1,0,0,1,3.28-2.89,2.75,2.75,0,0,1,3,2.65,2.27,2.27,0,0,1-1.59,2.18,2.42,2.42,0,0,1,1.94,2.52C492.3,84,490.81,85.13,488.74,85.13Zm9.95-.13V82.9h-5v-.39L498.26,75h1.62v6.92h1.39v1h-1.39V85Zm-3.47-3.09h3.47v-6ZM506.74,85V75h3c1.87,0,3.22.62,3.22,2.59v.06a2,2,0,0,1-1.51,2.11,2.19,2.19,0,0,1,2,2.39v.06c0,1.89-1.28,2.8-3.29,2.8Zm1.19-1h2.22c1.45,0,2.12-.65,2.12-1.86v-.06c0-1.23-.68-1.82-2.29-1.82h-2.05Zm0-4.69h1.82c1.47,0,2-.53,2-1.77v0c0-1.14-.65-1.6-2-1.6h-1.8Z"/></g></g><g class="cls-9"><g id="Row-5" data-name="Row"><g id="Base-5" data-name="Base"><rect id="path-13" x="460" y="20" width="88" height="40"/><rect id="path-13-2" data-name="path-13" class="cls-1" x="460" y="20" width="88" height="40"/></g><path id="Size" class="cls-10" d="M480.55,45.14c-2.73,0-3.88-1.36-4-3.25h1.79c.13,1,.54,1.85,2.23,1.85,1.11,0,1.89-.62,1.89-1.54s-.46-1.27-2.09-1.54c-2.39-.32-3.52-1-3.52-2.93,0-1.63,1.4-2.87,3.48-2.87s3.45,1,3.64,2.9h-1.71c-.18-1-.78-1.5-1.93-1.5s-1.72.55-1.72,1.32.34,1.22,2.07,1.47c2.35.32,3.57,1,3.57,3C484.23,43.78,482.76,45.14,480.55,45.14Zm5.39-.14V37.68h1.69V45Zm.83-8.53a1,1,0,1,1,1-1A1,1,0,0,1,486.77,36.47ZM488.92,45v-.2L492.8,39h-3.5V37.68h6v.24l-3.87,5.72h3.75V45Zm10.89.14a3.51,3.51,0,0,1-3.71-3.72V41.3a3.57,3.57,0,0,1,3.64-3.78c1.82,0,3.46,1.08,3.46,3.7v.49h-5.36c.06,1.39.76,2.17,2,2.17,1,0,1.55-.41,1.68-1.12h1.63C502.94,44.3,501.69,45.14,499.81,45.14Zm-1.94-4.56h3.65c-.08-1.26-.73-1.82-1.78-1.82A1.87,1.87,0,0,0,497.87,40.58Z"/></g></g><g class="cls-9"><g id="Row-6" data-name="Row"><g id="Base-6" data-name="Base"><rect id="path-15" x="292" y="180" width="168" height="40"/><rect id="path-15-2" data-name="path-15" class="cls-1" x="292" y="180" width="168" height="40"/></g><path id="screenshot-2.png" class="cls-10" d="M311.44,205.13c-1.75,0-2.8-.89-2.87-2.38h1.14c.08.86.54,1.41,1.72,1.41s1.6-.38,1.6-1.16-.58-1-1.71-1.23c-1.91-.35-2.55-.89-2.55-2.16a2.28,2.28,0,0,1,2.48-2.06,2.33,2.33,0,0,1,2.64,2.12h-1.12c-.16-.8-.61-1.15-1.54-1.15s-1.38.42-1.38,1,.36.92,1.71,1.16c1.51.28,2.57.62,2.57,2.17C314.13,204.23,313.22,205.13,311.44,205.13Zm7.49,0a3.48,3.48,0,0,1-3.58-3.71v-.12a3.56,3.56,0,0,1,3.56-3.75,2.87,2.87,0,0,1,3.17,2.56h-1.14a1.83,1.83,0,0,0-2-1.59c-1.33,0-2.36,1.06-2.36,2.78v.12c0,1.79,1,2.74,2.4,2.74a2,2,0,0,0,2.1-1.79h1.08A3.07,3.07,0,0,1,318.93,205.13Zm4.95-.13v-7.32H325V199a2.56,2.56,0,0,1,2.41-1.44v1.09c-1.47.07-2.41.54-2.41,2.34v4Zm8.26.13a3.45,3.45,0,0,1-3.55-3.71v-.12a3.45,3.45,0,0,1,3.43-3.75c1.7,0,3.29,1,3.29,3.64v.38H329.8c.05,1.67.85,2.59,2.35,2.59,1.13,0,1.79-.42,2-1.27h1.16C335,204.36,333.79,205.13,332.14,205.13Zm-2.3-4.5h4.28c-.11-1.51-.89-2.11-2.1-2.11A2.19,2.19,0,0,0,329.84,200.63Zm10.25,4.5a3.44,3.44,0,0,1-3.54-3.71v-.12a3.44,3.44,0,0,1,3.43-3.75c1.69,0,3.29,1,3.29,3.64v.38h-5.52c.06,1.67.85,2.59,2.35,2.59,1.14,0,1.79-.42,1.95-1.27h1.16C343,204.36,341.74,205.13,340.09,205.13Zm-2.3-4.5h4.29c-.12-1.51-.9-2.11-2.1-2.11A2.2,2.2,0,0,0,337.79,200.63ZM345,205v-7.32h1.17v1.16a2.49,2.49,0,0,1,2.35-1.29c1.51,0,2.57.83,2.57,3V205H350v-4.58c0-1.29-.54-1.86-1.72-1.86a1.92,1.92,0,0,0-2,2V205Zm10.64.13c-1.75,0-2.8-.89-2.87-2.38H354c.08.86.54,1.41,1.72,1.41s1.6-.38,1.6-1.16-.58-1-1.71-1.23c-1.91-.35-2.55-.89-2.55-2.16a2.28,2.28,0,0,1,2.48-2.06,2.33,2.33,0,0,1,2.64,2.12H357c-.16-.8-.61-1.15-1.54-1.15s-1.38.42-1.38,1,.36.92,1.71,1.16c1.51.28,2.57.62,2.57,2.17C358.37,204.23,357.46,205.13,355.68,205.13Zm4.46-.13V194.18h1.16v4.66a2.5,2.5,0,0,1,2.35-1.29c1.51,0,2.58.83,2.58,3V205h-1.17v-4.58c0-1.29-.54-1.86-1.72-1.86a1.92,1.92,0,0,0-2,2V205Zm11.42-.84c1.47,0,2.39-1.11,2.39-2.76v-.1c0-1.69-.93-2.78-2.39-2.78s-2.39,1.09-2.39,2.77v.11C369.17,203.07,370.08,204.16,371.56,204.16Zm0,1A3.55,3.55,0,0,1,368,201.4v-.11a3.6,3.6,0,1,1,7.2,0v.11A3.54,3.54,0,0,1,371.55,205.13Zm7.64,0a1.78,1.78,0,0,1-2-1.93v-4.51h-1.05v-1h1.05V196h1.16v1.67h1.71v1h-1.71v4.39c0,.72.32,1.07.91,1.07a2.32,2.32,0,0,0,.89-.16v1A2.55,2.55,0,0,1,379.19,205.1Zm2.41-3.4v-1.1h3v1.1Zm4.1,3.3v-.28l4-4.19a4.26,4.26,0,0,0,1.44-2.89,1.65,1.65,0,0,0-1.79-1.8c-1.17,0-1.92.66-2.12,2.23h-1.13a3.14,3.14,0,0,1,3.25-3.21,2.73,2.73,0,0,1,3,2.82,5.43,5.43,0,0,1-2,3.64L387.58,204h4.83v1Zm9.46.07a.9.9,0,1,1,.9-.9A.89.89,0,0,1,395.16,205.07Zm3.15,2.48v-9.87h1.17v1.23a3,3,0,0,1,2.47-1.36c1.92,0,3.34,1.4,3.34,3.68v.12c0,2.24-1.32,3.78-3.34,3.78a2.78,2.78,0,0,1-2.47-1.33v3.75Zm3.53-3.39c1.46,0,2.24-1,2.24-2.76v-.11c0-1.85-1-2.77-2.25-2.77s-2.4.89-2.4,2.77v.11C399.43,203.28,400.41,204.16,401.84,204.16Zm5.25.84v-7.32h1.16v1.16a2.52,2.52,0,0,1,2.36-1.29c1.51,0,2.57.83,2.57,3V205H412v-4.58c0-1.29-.55-1.86-1.72-1.86a1.93,1.93,0,0,0-2.05,2V205Zm11.3,2.67c-2.17,0-3.12-1-3.32-2.25h1.19c.17.84.87,1.27,2.12,1.27a2.06,2.06,0,0,0,2.35-2.25v-1.06a3,3,0,0,1-2.48,1.38,3.29,3.29,0,0,1-3.33-3.47v-.1a3.46,3.46,0,0,1,3.41-3.64,2.64,2.64,0,0,1,2.4,1.3v-1.17h1.16v6.83C421.88,206.64,420.43,207.67,418.39,207.67Zm0-3.87a2.36,2.36,0,0,0,2.39-2.59v-.1c0-1.64-.9-2.59-2.32-2.59a2.33,2.33,0,0,0-2.33,2.62v.11A2.32,2.32,0,0,0,418.38,203.8Z"/></g></g><g class="cls-9"><g id="Row-7" data-name="Row"><g id="Base-7" data-name="Base"><rect id="path-17-4" data-name="path-17" x="292" y="140" width="168" height="40"/><rect id="path-17-5" data-name="path-17" class="cls-1" x="292" y="140" width="168" height="40"/></g><path id="screenshot-1.png" class="cls-10" d="M311.44,165.13c-1.75,0-2.8-.89-2.87-2.38h1.14c.08.86.54,1.41,1.72,1.41s1.6-.38,1.6-1.16-.58-1-1.71-1.23c-1.91-.35-2.55-.89-2.55-2.16a2.28,2.28,0,0,1,2.48-2.06,2.33,2.33,0,0,1,2.64,2.12h-1.12c-.16-.8-.61-1.15-1.54-1.15s-1.38.42-1.38,1,.36.92,1.71,1.16c1.51.28,2.57.62,2.57,2.17C314.13,164.23,313.22,165.13,311.44,165.13Zm7.49,0a3.48,3.48,0,0,1-3.58-3.71v-.12a3.56,3.56,0,0,1,3.56-3.75,2.87,2.87,0,0,1,3.17,2.56h-1.14a1.83,1.83,0,0,0-2-1.59c-1.33,0-2.36,1.06-2.36,2.78v.12c0,1.79,1,2.74,2.4,2.74a2,2,0,0,0,2.1-1.79h1.08A3.07,3.07,0,0,1,318.93,165.13Zm4.95-.13v-7.32H325V159a2.56,2.56,0,0,1,2.41-1.44v1.09c-1.47.07-2.41.54-2.41,2.34v4Zm8.26.13a3.45,3.45,0,0,1-3.55-3.71v-.12a3.45,3.45,0,0,1,3.43-3.75c1.7,0,3.29,1,3.29,3.64v.38H329.8c.05,1.67.85,2.59,2.35,2.59,1.13,0,1.79-.42,2-1.27h1.16C335,164.36,333.79,165.13,332.14,165.13Zm-2.3-4.5h4.28c-.11-1.51-.89-2.11-2.1-2.11A2.19,2.19,0,0,0,329.84,160.63Zm10.25,4.5a3.44,3.44,0,0,1-3.54-3.71v-.12a3.44,3.44,0,0,1,3.43-3.75c1.69,0,3.29,1,3.29,3.64v.38h-5.52c.06,1.67.85,2.59,2.35,2.59,1.14,0,1.79-.42,1.95-1.27h1.16C343,164.36,341.74,165.13,340.09,165.13Zm-2.3-4.5h4.29c-.12-1.51-.9-2.11-2.1-2.11A2.2,2.2,0,0,0,337.79,160.63ZM345,165v-7.32h1.17v1.16a2.49,2.49,0,0,1,2.35-1.29c1.51,0,2.57.83,2.57,3V165H350v-4.58c0-1.29-.54-1.86-1.72-1.86a1.92,1.92,0,0,0-2,2V165Zm10.64.13c-1.75,0-2.8-.89-2.87-2.38H354c.08.86.54,1.41,1.72,1.41s1.6-.38,1.6-1.16-.58-1-1.71-1.23c-1.91-.35-2.55-.89-2.55-2.16a2.28,2.28,0,0,1,2.48-2.06,2.33,2.33,0,0,1,2.64,2.12H357c-.16-.8-.61-1.15-1.54-1.15s-1.38.42-1.38,1,.36.92,1.71,1.16c1.51.28,2.57.62,2.57,2.17C358.37,164.23,357.46,165.13,355.68,165.13Zm4.46-.13V154.18h1.16v4.66a2.5,2.5,0,0,1,2.35-1.29c1.51,0,2.58.83,2.58,3V165h-1.17v-4.58c0-1.29-.54-1.86-1.72-1.86a1.92,1.92,0,0,0-2,2V165Zm11.42-.84c1.47,0,2.39-1.11,2.39-2.76v-.1c0-1.69-.93-2.78-2.39-2.78s-2.39,1.09-2.39,2.77v.11C369.17,163.07,370.08,164.16,371.56,164.16Zm0,1A3.55,3.55,0,0,1,368,161.4v-.11a3.6,3.6,0,1,1,7.2,0v.11A3.54,3.54,0,0,1,371.55,165.13Zm7.64,0a1.78,1.78,0,0,1-2-1.93v-4.51h-1.05v-1h1.05V156h1.16v1.67h1.71v1h-1.71v4.39c0,.72.32,1.07.91,1.07a2.32,2.32,0,0,0,.89-.16v1A2.55,2.55,0,0,1,379.19,165.1Zm2.41-3.4v-1.1h3v1.1Zm6.54,3.3v-8.81l-2.24,1.61v-1.13l2.32-1.68h1.13v10Zm4.85.07a.9.9,0,1,1,.9-.9A.89.89,0,0,1,393,165.07Zm3.15,2.48v-9.87h1.17v1.23a3,3,0,0,1,2.47-1.36c1.92,0,3.34,1.4,3.34,3.68v.12c0,2.24-1.32,3.78-3.34,3.78a2.78,2.78,0,0,1-2.47-1.33v3.75Zm3.53-3.39c1.46,0,2.24-1,2.24-2.76v-.11c0-1.85-1-2.77-2.25-2.77s-2.4.89-2.4,2.77v.11C397.26,163.28,398.24,164.16,399.67,164.16Zm5.25.84v-7.32h1.16v1.16a2.52,2.52,0,0,1,2.36-1.29c1.51,0,2.57.83,2.57,3V165h-1.16v-4.58c0-1.29-.55-1.86-1.72-1.86a1.93,1.93,0,0,0-2.05,2V165Zm11.3,2.67c-2.17,0-3.12-1-3.32-2.25h1.19c.17.84.87,1.27,2.12,1.27a2.06,2.06,0,0,0,2.35-2.25v-1.06a3,3,0,0,1-2.48,1.38,3.29,3.29,0,0,1-3.33-3.47v-.1a3.46,3.46,0,0,1,3.41-3.64,2.64,2.64,0,0,1,2.4,1.3v-1.17h1.16v6.83C419.71,166.64,418.26,167.67,416.22,167.67Zm0-3.87a2.36,2.36,0,0,0,2.39-2.59v-.1c0-1.64-.9-2.59-2.32-2.59a2.33,2.33,0,0,0-2.33,2.62v.11A2.32,2.32,0,0,0,416.21,163.8Z"/></g></g><g class="cls-9"><g id="Row-8" data-name="Row"><g id="Base-8" data-name="Base"><rect id="path-19" x="292" y="100" width="168" height="40"/><rect id="path-19-2" data-name="path-19" class="cls-1" x="292" y="100" width="168" height="40"/></g><path id="price-list.pdf" class="cls-10" d="M309.18,127.55v-9.87h1.16v1.23a3,3,0,0,1,2.48-1.36c1.91,0,3.33,1.4,3.33,3.68v.12c0,2.24-1.32,3.78-3.33,3.78a2.79,2.79,0,0,1-2.48-1.33v3.75Zm3.52-3.39c1.46,0,2.24-1,2.24-2.76v-.11c0-1.85-1-2.77-2.25-2.77s-2.39.89-2.39,2.77v.11C310.3,123.28,311.28,124.16,312.7,124.16ZM318,125v-7.32h1.17V119a2.55,2.55,0,0,1,2.4-1.44v1.09c-1.47.07-2.4.54-2.4,2.34v4Zm5.3,0v-7.32h1.16V125Zm.56-8.85a.77.77,0,1,1,.77-.77A.78.78,0,0,1,323.81,116.15Zm6,9a3.49,3.49,0,0,1-3.59-3.71v-.12a3.56,3.56,0,0,1,3.56-3.75,2.88,2.88,0,0,1,3.18,2.56h-1.15a1.82,1.82,0,0,0-2-1.59c-1.33,0-2.35,1.06-2.35,2.78v.12c0,1.79,1,2.74,2.39,2.74a2,2,0,0,0,2.1-1.79H333A3.06,3.06,0,0,1,329.83,125.13Zm7.93,0a3.44,3.44,0,0,1-3.54-3.71v-.12a3.45,3.45,0,0,1,3.43-3.75c1.7,0,3.29,1,3.29,3.64v.38h-5.51c.05,1.67.85,2.59,2.35,2.59,1.13,0,1.79-.42,1.94-1.27h1.17C340.63,124.36,339.42,125.13,337.76,125.13Zm-2.29-4.5h4.28c-.11-1.51-.89-2.11-2.1-2.11A2.19,2.19,0,0,0,335.47,120.63Zm6.91,1.07v-1.1h3v1.1Zm5,3.3V114.18h1.18V125Zm3.59,0v-7.32h1.16V125Zm.56-8.85a.77.77,0,1,1,.77-.77A.78.78,0,0,1,351.57,116.15Zm5.25,9c-1.75,0-2.8-.89-2.87-2.38h1.13c.09.86.55,1.41,1.72,1.41s1.6-.38,1.6-1.16-.57-1-1.71-1.23c-1.9-.35-2.55-.89-2.55-2.16a2.28,2.28,0,0,1,2.48-2.06,2.34,2.34,0,0,1,2.65,2.12h-1.12a1.33,1.33,0,0,0-1.54-1.15c-.84,0-1.39.42-1.39,1s.37.92,1.71,1.16c1.51.28,2.58.62,2.58,2.17C359.51,124.23,358.6,125.13,356.82,125.13Zm6.68,0a1.79,1.79,0,0,1-2-1.93v-4.51h-1v-1h1V116h1.16v1.67h1.71v1h-1.71v4.39c0,.72.33,1.07.91,1.07a2.34,2.34,0,0,0,.9-.16v1A2.63,2.63,0,0,1,363.5,125.1Zm3.54,0a.9.9,0,1,1,0-1.79.9.9,0,0,1,0,1.79Zm3.15,2.48v-9.87h1.16v1.23a3,3,0,0,1,2.48-1.36c1.92,0,3.33,1.4,3.33,3.68v.12c0,2.24-1.32,3.78-3.33,3.78a2.79,2.79,0,0,1-2.48-1.33v3.75Zm3.53-3.39c1.45,0,2.24-1,2.24-2.76v-.11c0-1.85-1-2.77-2.26-2.77s-2.39.89-2.39,2.77v.11C371.31,123.28,372.29,124.16,373.72,124.16Zm8,1c-1.91,0-3.3-1.36-3.3-3.64v-.12c0-2.24,1.4-3.82,3.42-3.82a2.63,2.63,0,0,1,2.39,1.3v-4.67h1.16V125h-1.16v-1.26A3.1,3.1,0,0,1,381.72,125.13Zm.13-1c1.36,0,2.42-.9,2.42-2.77v-.11c0-1.88-.89-2.76-2.32-2.76s-2.33,1-2.33,2.8v.11C379.62,123.28,380.62,124.16,381.85,124.16ZM388,125v-6.34H387v-1H388v-1.19c0-1.49.72-2.35,2.18-2.35a2.34,2.34,0,0,1,.87.14v1a2.19,2.19,0,0,0-.83-.16c-.75,0-1.06.52-1.06,1.26v1.32H391v1h-1.79V125Z"/></g></g><g class="cls-9"><g id="Row-9" data-name="Row"><g id="Base-9" data-name="Base"><rect id="path-21" x="292" y="60" width="168" height="40"/><rect id="path-21-2" data-name="path-21" class="cls-1" x="292" y="60" width="168" height="40"/></g><path id="crawler-state.json" class="cls-10" d="M312.21,85.13a3.48,3.48,0,0,1-3.58-3.71V81.3a3.56,3.56,0,0,1,3.56-3.75,2.87,2.87,0,0,1,3.17,2.56h-1.14a1.83,1.83,0,0,0-2-1.59c-1.33,0-2.36,1.06-2.36,2.78v.12c0,1.79,1,2.74,2.4,2.74a2,2,0,0,0,2.1-1.79h1.08A3.07,3.07,0,0,1,312.21,85.13Zm5-.13V77.68h1.16V79a2.56,2.56,0,0,1,2.41-1.44v1.09c-1.47.07-2.41.54-2.41,2.34v4Zm7.09.13c-1.35,0-2.43-.66-2.43-2.16,0-1.69,1.79-2.27,3.67-2.27h1.05v-.53c0-1.16-.45-1.65-1.57-1.65s-1.57.42-1.68,1.31h-1.16c.15-1.66,1.48-2.28,2.89-2.28a2.37,2.37,0,0,1,2.68,2.62V85h-1.16v-.92A2.67,2.67,0,0,1,324.25,85.13Zm.12-.93c1.23,0,2.17-.63,2.17-1.76v-.91h-1c-1.47,0-2.55.36-2.55,1.44C323,83.73,323.34,84.2,324.37,84.2Zm7.08.8-2.25-7.32h1.26l1.7,5.89,1.78-5.89h1l1.67,5.89,1.72-5.89h1.19L337.25,85H336l-1.53-5.49L332.72,85Zm9.67,0V74.18h1.18V85Zm6.56.13a3.45,3.45,0,0,1-3.55-3.71V81.3a3.45,3.45,0,0,1,3.43-3.75c1.7,0,3.29,1,3.29,3.64v.38h-5.51c.05,1.67.85,2.59,2.35,2.59,1.13,0,1.79-.42,1.95-1.27h1.16C350.55,84.36,349.33,85.13,347.68,85.13Zm-2.3-4.5h4.28c-.11-1.51-.89-2.11-2.1-2.11A2.19,2.19,0,0,0,345.38,80.63ZM352.63,85V77.68h1.16V79a2.58,2.58,0,0,1,2.41-1.44v1.09c-1.47.07-2.41.54-2.41,2.34v4Zm4.93-3.3V80.6h3v1.1Zm7.28,3.43c-1.75,0-2.8-.89-2.87-2.38h1.13c.09.86.55,1.41,1.73,1.41s1.59-.38,1.59-1.16-.57-1-1.71-1.23c-1.9-.35-2.54-.89-2.54-2.16a2.28,2.28,0,0,1,2.47-2.06,2.34,2.34,0,0,1,2.65,2.12h-1.12a1.33,1.33,0,0,0-1.54-1.15c-.84,0-1.39.42-1.39,1s.37.92,1.71,1.16c1.51.28,2.58.62,2.58,2.17C367.53,84.23,366.62,85.13,364.84,85.13Zm6.68,0a1.79,1.79,0,0,1-2-1.93V78.66h-1.05v-1h1.05V76h1.17v1.67h1.7v1h-1.7v4.39c0,.72.32,1.07.91,1.07a2.32,2.32,0,0,0,.89-.16v1A2.63,2.63,0,0,1,371.52,85.1Zm4.58,0c-1.36,0-2.44-.66-2.44-2.16,0-1.69,1.79-2.27,3.67-2.27h1.05v-.53c0-1.16-.45-1.65-1.57-1.65s-1.57.42-1.68,1.31H374c.15-1.66,1.48-2.28,2.9-2.28a2.36,2.36,0,0,1,2.67,2.62V85h-1.16v-.92A2.66,2.66,0,0,1,376.1,85.13Zm.11-.93c1.23,0,2.17-.63,2.17-1.76v-.91h-1c-1.47,0-2.55.36-2.55,1.44C374.82,83.73,375.19,84.2,376.21,84.2Zm7.84.9a1.79,1.79,0,0,1-2-1.93V78.66H381v-1h1.05V76h1.17v1.67h1.7v1h-1.7v4.39c0,.72.32,1.07.91,1.07A2.32,2.32,0,0,0,385,84v1A2.63,2.63,0,0,1,384.05,85.1Zm5.74,0a3.44,3.44,0,0,1-3.54-3.71V81.3a3.44,3.44,0,0,1,3.43-3.75c1.69,0,3.29,1,3.29,3.64v.38h-5.52c.06,1.67.85,2.59,2.35,2.59,1.14,0,1.79-.42,1.95-1.27h1.16C392.66,84.36,391.44,85.13,389.79,85.13Zm-2.3-4.5h4.29c-.12-1.51-.9-2.11-2.1-2.11A2.2,2.2,0,0,0,387.49,80.63Zm8.05,4.44a.9.9,0,1,1,.9-.9A.89.89,0,0,1,395.54,85.07Zm2.1,2.6v-1c.83-.07,1.08-.49,1.08-1.13V77.68h1.16v7.78C399.88,86.86,399.27,87.62,397.64,87.67Zm1.64-11.52a.77.77,0,1,1,.77-.77A.78.78,0,0,1,399.28,76.15Zm5.25,9c-1.75,0-2.8-.89-2.87-2.38h1.13c.09.86.55,1.41,1.73,1.41s1.59-.38,1.59-1.16-.57-1-1.71-1.23c-1.9-.35-2.54-.89-2.54-2.16a2.28,2.28,0,0,1,2.47-2.06A2.34,2.34,0,0,1,407,79.67h-1.12a1.33,1.33,0,0,0-1.54-1.15c-.84,0-1.39.42-1.39,1s.37.92,1.71,1.16c1.51.28,2.58.62,2.58,2.17C407.22,84.23,406.31,85.13,404.53,85.13Zm7.5-1c1.47,0,2.4-1.11,2.4-2.76v-.1c0-1.69-.94-2.78-2.4-2.78s-2.39,1.09-2.39,2.77v.11C409.64,83.07,410.55,84.16,412,84.16Zm0,1a3.54,3.54,0,0,1-3.58-3.73v-.11a3.6,3.6,0,1,1,7.19,0v.11A3.53,3.53,0,0,1,412,85.13Zm5.42-.13V77.68h1.16v1.16A2.51,2.51,0,0,1,421,77.55c1.51,0,2.58.83,2.58,3V85h-1.16V80.42c0-1.29-.55-1.86-1.73-1.86a1.93,1.93,0,0,0-2,2V85Z"/></g></g><g class="cls-9"><g id="Row-10" data-name="Row"><g id="Base-10" data-name="Base"><rect id="path-23" x="292" y="20" width="168" height="40"/><rect id="path-23-2" data-name="path-23" class="cls-1" x="292" y="20" width="168" height="40"/></g><path id="Key" class="cls-10" d="M309.15,45V35H311v4.54L314.85,35h2l-4.15,4.78L317.06,45h-2.2L311,40.32V45Zm12.3.14a3.51,3.51,0,0,1-3.71-3.72V41.3a3.57,3.57,0,0,1,3.64-3.78c1.82,0,3.46,1.08,3.46,3.7v.49h-5.36c.06,1.39.76,2.17,2,2.17,1,0,1.55-.41,1.68-1.12h1.63C324.58,44.3,323.33,45.14,321.45,45.14Zm-1.94-4.56h3.65c-.08-1.26-.73-1.82-1.78-1.82A1.87,1.87,0,0,0,319.51,40.58Zm7.66,6.93,1.33-3.25-2.9-6.58h1.83l1.95,4.72,1.79-4.72h1.65l-4,9.83Z"/></g></g></g><g id="Group-7"><rect id="Combined-Shape" class="cls-11" x="32" y="39" width="200" height="162" rx="8"/><path id="screenshot-1.png-2" data-name="screenshot-1.png" class="cls-10" d="M47.44,187.13c-1.75,0-2.8-.89-2.87-2.38h1.14c.08.86.54,1.41,1.72,1.41S49,185.78,49,185s-.58-1-1.71-1.23c-1.91-.35-2.55-.89-2.55-2.16a2.28,2.28,0,0,1,2.48-2.06,2.33,2.33,0,0,1,2.64,2.12H48.77c-.16-.8-.61-1.15-1.54-1.15s-1.38.42-1.38,1,.36.92,1.71,1.16c1.51.28,2.57.62,2.57,2.17C50.13,186.23,49.22,187.13,47.44,187.13Zm7.49,0a3.48,3.48,0,0,1-3.58-3.71v-.12a3.56,3.56,0,0,1,3.56-3.75,2.87,2.87,0,0,1,3.17,2.56H56.94a1.83,1.83,0,0,0-2-1.59c-1.33,0-2.36,1.06-2.36,2.78v.12c0,1.79,1,2.74,2.4,2.74a2,2,0,0,0,2.1-1.79h1.08A3.07,3.07,0,0,1,54.93,187.13Zm5-.13v-7.32H61V181a2.56,2.56,0,0,1,2.41-1.44v1.09C62,180.71,61,181.18,61,183v4Zm8.26.13a3.45,3.45,0,0,1-3.55-3.71v-.12A3.45,3.45,0,0,1,68,179.55c1.7,0,3.29,1,3.29,3.64v.38H65.8c0,1.67.85,2.59,2.35,2.59,1.13,0,1.79-.42,1.95-1.27h1.16C71,186.36,69.79,187.13,68.14,187.13Zm-2.3-4.5h4.28c-.11-1.51-.89-2.11-2.1-2.11A2.19,2.19,0,0,0,65.84,182.63Zm10.25,4.5a3.44,3.44,0,0,1-3.54-3.71v-.12A3.44,3.44,0,0,1,76,179.55c1.69,0,3.29,1,3.29,3.64v.38H73.75c.06,1.67.85,2.59,2.35,2.59,1.14,0,1.79-.42,2-1.27h1.16C79,186.36,77.74,187.13,76.09,187.13Zm-2.3-4.5h4.29c-.12-1.51-.9-2.11-2.1-2.11A2.2,2.2,0,0,0,73.79,182.63ZM81,187v-7.32h1.17v1.16a2.49,2.49,0,0,1,2.35-1.29c1.51,0,2.57.83,2.57,3V187H86v-4.58c0-1.29-.54-1.86-1.72-1.86a1.92,1.92,0,0,0-2,2V187Zm10.64.13c-1.75,0-2.8-.89-2.87-2.38H90c.08.86.54,1.41,1.72,1.41s1.6-.38,1.6-1.16-.58-1-1.71-1.23c-1.91-.35-2.55-.89-2.55-2.16a2.28,2.28,0,0,1,2.48-2.06,2.33,2.33,0,0,1,2.64,2.12H93c-.16-.8-.61-1.15-1.54-1.15s-1.38.42-1.38,1,.36.92,1.71,1.16c1.51.28,2.57.62,2.57,2.17C94.37,186.23,93.46,187.13,91.68,187.13Zm4.46-.13V176.18H97.3v4.66a2.5,2.5,0,0,1,2.35-1.29c1.51,0,2.58.83,2.58,3V187h-1.17v-4.58c0-1.29-.54-1.86-1.72-1.86a1.92,1.92,0,0,0-2,2V187Zm11.42-.84c1.47,0,2.39-1.11,2.39-2.76v-.1c0-1.69-.93-2.78-2.39-2.78s-2.39,1.09-2.39,2.77v.11C105.17,185.07,106.08,186.16,107.56,186.16Zm0,1A3.55,3.55,0,0,1,104,183.4v-.11a3.6,3.6,0,1,1,7.2,0v.11A3.54,3.54,0,0,1,107.55,187.13Zm7.64,0a1.78,1.78,0,0,1-2-1.93v-4.51h-1v-1h1V178h1.16v1.67h1.71v1h-1.71v4.39c0,.72.32,1.07.91,1.07a2.32,2.32,0,0,0,.89-.16v1A2.55,2.55,0,0,1,115.19,187.1Zm2.41-3.4v-1.1h3v1.1Zm6.54,3.3v-8.81l-2.24,1.61v-1.13l2.32-1.68h1.13v10Zm4.85.07a.9.9,0,1,1,.9-.9A.89.89,0,0,1,129,187.07Zm3.15,2.48v-9.87h1.17v1.23a3,3,0,0,1,2.47-1.36c1.92,0,3.34,1.4,3.34,3.68v.12c0,2.24-1.32,3.78-3.34,3.78a2.78,2.78,0,0,1-2.47-1.33v3.75Zm3.53-3.39c1.46,0,2.24-1,2.24-2.76v-.11c0-1.85-1-2.77-2.25-2.77s-2.4.89-2.4,2.77v.11C133.26,185.28,134.24,186.16,135.67,186.16Zm5.25.84v-7.32h1.16v1.16a2.52,2.52,0,0,1,2.36-1.29c1.51,0,2.57.83,2.57,3V187h-1.16v-4.58c0-1.29-.55-1.86-1.72-1.86a1.93,1.93,0,0,0-2,2V187Zm11.3,2.67c-2.17,0-3.12-1-3.32-2.25h1.19c.17.84.87,1.27,2.12,1.27a2.06,2.06,0,0,0,2.35-2.25v-1.06a3,3,0,0,1-2.48,1.38,3.29,3.29,0,0,1-3.33-3.47v-.1a3.46,3.46,0,0,1,3.41-3.64,2.64,2.64,0,0,1,2.4,1.3v-1.17h1.16v6.83C155.71,188.64,154.26,189.67,152.22,189.67Zm0-3.87a2.36,2.36,0,0,0,2.39-2.59v-.1c0-1.64-.9-2.59-2.32-2.59a2.33,2.33,0,0,0-2.33,2.62v.11A2.32,2.32,0,0,0,152.21,185.8Z"/><g id="Bitmap"><g id="Mask-36" data-name="Mask"><rect id="path-25-11" data-name="path-25" class="cls-1" x="38" y="45" width="188" height="120" rx="2"/></g><g class="cls-12"><path id="Rectangle-2" data-name="Rectangle" class="cls-13" d="M57,89h58a3,3,0,0,1,3,3h0a3,3,0,0,1-3,3H57a3,3,0,0,1-3-3h0A3,3,0,0,1,57,89Z"/></g><g class="cls-12"><path id="Rectangle-3" data-name="Rectangle" class="cls-14" d="M57,101h58a3,3,0,0,1,3,3h0a3,3,0,0,1-3,3H57a3,3,0,0,1-3-3h0A3,3,0,0,1,57,101Z"/></g><g class="cls-12"><path id="Rectangle-4" data-name="Rectangle" class="cls-15" d="M57,113h58a3,3,0,0,1,3,3h0a3,3,0,0,1-3,3H57a3,3,0,0,1-3-3h0A3,3,0,0,1,57,113Z"/></g><g class="cls-12"><path id="Rectangle-5" data-name="Rectangle" class="cls-16" d="M57,125h58a3,3,0,0,1,3,3h0a3,3,0,0,1-3,3H57a3,3,0,0,1-3-3h0A3,3,0,0,1,57,125Z"/></g><g class="cls-17"><rect id="Rectangle-6" data-name="Rectangle" class="cls-18" x="132" y="89" width="78" height="89" rx="6"/></g><g class="cls-12"><path id="Rectangle-7" data-name="Rectangle" class="cls-19" d="M57,61H69a3,3,0,0,1,3,3h0a3,3,0,0,1-3,3H57a3,3,0,0,1-3-3h0A3,3,0,0,1,57,61Z"/></g><g class="cls-12"><path id="Rectangle-8" data-name="Rectangle" class="cls-20" d="M197,61h10a3,3,0,0,1,3,3h0a3,3,0,0,1-3,3H197a3,3,0,0,1-3-3h0A3,3,0,0,1,197,61Z"/></g><g class="cls-12"><path id="Rectangle-9" data-name="Rectangle" class="cls-21" d="M175,61h10a3,3,0,0,1,3,3h0a3,3,0,0,1-3,3H175a3,3,0,0,1-3-3h0A3,3,0,0,1,175,61Z"/></g><g class="cls-12"><path id="Rectangle-10" data-name="Rectangle" class="cls-22" d="M153,61h10a3,3,0,0,1,3,3h0a3,3,0,0,1-3,3H153a3,3,0,0,1-3-3h0A3,3,0,0,1,153,61Z"/></g><g class="cls-12"><path id="Rectangle-11" data-name="Rectangle" class="cls-23" d="M57,137H98a3,3,0,0,1,3,3h0a3,3,0,0,1-3,3H57a3,3,0,0,1-3-3h0A3,3,0,0,1,57,137Z"/></g></g></g><g id="Group-7-2" data-name="Group-7"><rect id="Combined-Shape-2" data-name="Combined-Shape" class="cls-11" x="608" y="39" width="200" height="162" rx="8"/><path id="price-list.pdf-2" data-name="price-list.pdf" class="cls-10" d="M621.18,189.55v-9.87h1.16v1.23a3,3,0,0,1,2.48-1.36c1.91,0,3.33,1.4,3.33,3.68v.12c0,2.24-1.32,3.78-3.33,3.78a2.79,2.79,0,0,1-2.48-1.33v3.75Zm3.52-3.39c1.46,0,2.24-1,2.24-2.76v-.11c0-1.85-1-2.77-2.25-2.77s-2.39.89-2.39,2.77v.11C622.3,185.28,623.28,186.16,624.7,186.16ZM630,187v-7.32h1.17V181a2.55,2.55,0,0,1,2.4-1.44v1.09c-1.47.07-2.4.54-2.4,2.34v4Zm5.3,0v-7.32h1.16V187Zm.56-8.85a.77.77,0,1,1,.77-.77A.78.78,0,0,1,635.81,178.15Zm6,9a3.49,3.49,0,0,1-3.59-3.71v-.12a3.56,3.56,0,0,1,3.56-3.75,2.88,2.88,0,0,1,3.18,2.56h-1.15a1.82,1.82,0,0,0-2-1.59c-1.33,0-2.35,1.06-2.35,2.78v.12c0,1.79,1,2.74,2.39,2.74a2,2,0,0,0,2.1-1.79H645A3.06,3.06,0,0,1,641.83,187.13Zm7.93,0a3.44,3.44,0,0,1-3.54-3.71v-.12a3.45,3.45,0,0,1,3.43-3.75c1.7,0,3.29,1,3.29,3.64v.38h-5.51c.05,1.67.85,2.59,2.35,2.59,1.13,0,1.79-.42,1.94-1.27h1.17C652.63,186.36,651.42,187.13,649.76,187.13Zm-2.29-4.5h4.28c-.11-1.51-.89-2.11-2.1-2.11A2.19,2.19,0,0,0,647.47,182.63Zm6.91,1.07v-1.1h3v1.1Zm5,3.3V176.18h1.18V187Zm3.59,0v-7.32h1.16V187Zm.56-8.85a.77.77,0,1,1,.77-.77A.78.78,0,0,1,663.57,178.15Zm5.25,9c-1.75,0-2.8-.89-2.87-2.38h1.13c.09.86.55,1.41,1.72,1.41s1.6-.38,1.6-1.16-.57-1-1.71-1.23c-1.9-.35-2.55-.89-2.55-2.16a2.28,2.28,0,0,1,2.48-2.06,2.34,2.34,0,0,1,2.65,2.12h-1.12a1.33,1.33,0,0,0-1.54-1.15c-.84,0-1.39.42-1.39,1s.37.92,1.71,1.16c1.51.28,2.58.62,2.58,2.17C671.51,186.23,670.6,187.13,668.82,187.13Zm6.68,0a1.79,1.79,0,0,1-2-1.93v-4.51h-1v-1h1V178h1.16v1.67h1.71v1h-1.71v4.39c0,.72.33,1.07.91,1.07a2.34,2.34,0,0,0,.9-.16v1A2.63,2.63,0,0,1,675.5,187.1Zm3.54,0a.9.9,0,1,1,0-1.79.9.9,0,0,1,0,1.79Zm3.15,2.48v-9.87h1.16v1.23a3,3,0,0,1,2.48-1.36c1.92,0,3.33,1.4,3.33,3.68v.12c0,2.24-1.32,3.78-3.33,3.78a2.79,2.79,0,0,1-2.48-1.33v3.75Zm3.53-3.39c1.45,0,2.24-1,2.24-2.76v-.11c0-1.85-1-2.77-2.26-2.77s-2.39.89-2.39,2.77v.11C683.31,185.28,684.29,186.16,685.72,186.16Zm8,1c-1.91,0-3.3-1.36-3.3-3.64v-.12c0-2.24,1.4-3.82,3.42-3.82a2.63,2.63,0,0,1,2.39,1.3v-4.67h1.16V187h-1.16v-1.26A3.1,3.1,0,0,1,693.72,187.13Zm.13-1c1.36,0,2.42-.9,2.42-2.77v-.11c0-1.88-.89-2.76-2.32-2.76s-2.33,1-2.33,2.8v.11C691.62,185.28,692.62,186.16,693.85,186.16ZM700,187v-6.34h-1v-1h1v-1.19c0-1.49.72-2.35,2.18-2.35a2.34,2.34,0,0,1,.87.14v1a2.19,2.19,0,0,0-.83-.16c-.75,0-1.06.52-1.06,1.26v1.32H703v1h-1.79V187Z"/><g id="Bitmap-2" data-name="Bitmap"><g id="Mask-37" data-name="Mask"><rect id="path-33-15" data-name="path-33" class="cls-1" x="614" y="45" width="188" height="120" rx="2"/></g><g class="cls-24"><path id="Rectangle-12" data-name="Rectangle" class="cls-25" d="M633,65h83a3,3,0,0,1,3,3h0a3,3,0,0,1-3,3H633a3,3,0,0,1-3-3h0A3,3,0,0,1,633,65Z"/></g><g class="cls-24"><path id="Rectangle-13" data-name="Rectangle" class="cls-26" d="M633,78h59a3,3,0,0,1,3,3h0a3,3,0,0,1-3,3H633a3,3,0,0,1-3-3h0A3,3,0,0,1,633,78Z"/></g><g class="cls-24"><path id="Rectangle-14" data-name="Rectangle" class="cls-27" d="M633,91h76a3,3,0,0,1,3,3h0a3,3,0,0,1-3,3H633a3,3,0,0,1-3-3h0A3,3,0,0,1,633,91Z"/></g><g class="cls-24"><path id="Rectangle-15" data-name="Rectangle" class="cls-28" d="M633,104h93a3,3,0,0,1,3,3h0a3,3,0,0,1-3,3H633a3,3,0,0,1-3-3h0A3,3,0,0,1,633,104Z"/></g><g class="cls-24"><path id="Rectangle-16" data-name="Rectangle" class="cls-29" d="M633,117h30a3,3,0,0,1,3,3h0a3,3,0,0,1-3,3H633a3,3,0,0,1-3-3h0A3,3,0,0,1,633,117Z"/></g><g class="cls-24"><path id="Rectangle-17" data-name="Rectangle" class="cls-30" d="M633,130h62a3,3,0,0,1,3,3h0a3,3,0,0,1-3,3H633a3,3,0,0,1-3-3h0A3,3,0,0,1,633,130Z"/></g><g class="cls-24"><path id="Rectangle-18" data-name="Rectangle" class="cls-31" d="M633,143h83a3,3,0,0,1,3,3h0a3,3,0,0,1-3,3H633a3,3,0,0,1-3-3h0A3,3,0,0,1,633,143Z"/></g><g class="cls-24"><path id="Rectangle-19" data-name="Rectangle" class="cls-32" d="M773,65h10a3,3,0,0,1,3,3h0a3,3,0,0,1-3,3H773a3,3,0,0,1-3-3h0A3,3,0,0,1,773,65Z"/></g><g class="cls-24"><path id="Rectangle-20" data-name="Rectangle" class="cls-33" d="M769,78h14a3,3,0,0,1,3,3h0a3,3,0,0,1-3,3H769a3,3,0,0,1-3-3h0A3,3,0,0,1,769,78Z"/></g><g class="cls-24"><path id="Rectangle-21" data-name="Rectangle" class="cls-34" d="M779,91h4a3,3,0,0,1,3,3h0a3,3,0,0,1-3,3h-4a3,3,0,0,1-3-3h0A3,3,0,0,1,779,91Z"/></g><g class="cls-24"><path id="Rectangle-22" data-name="Rectangle" class="cls-35" d="M769,104h14a3,3,0,0,1,3,3h0a3,3,0,0,1-3,3H769a3,3,0,0,1-3-3h0A3,3,0,0,1,769,104Z"/></g><g class="cls-24"><path id="Rectangle-23" data-name="Rectangle" class="cls-36" d="M773,117h10a3,3,0,0,1,3,3h0a3,3,0,0,1-3,3H773a3,3,0,0,1-3-3h0A3,3,0,0,1,773,117Z"/></g><g class="cls-24"><path id="Rectangle-24" data-name="Rectangle" class="cls-37" d="M769,130h14a3,3,0,0,1,3,3h0a3,3,0,0,1-3,3H769a3,3,0,0,1-3-3h0A3,3,0,0,1,769,130Z"/></g><g class="cls-24"><path id="Rectangle-25" data-name="Rectangle" class="cls-38" d="M769,143h14a3,3,0,0,1,3,3h0a3,3,0,0,1-3,3H769a3,3,0,0,1-3-3h0A3,3,0,0,1,769,143Z"/></g></g></g></g></g></svg>
