<svg id="layer_1" data-name="layer 1" xmlns="http://www.w3.org/2000/svg" xmlns:xlink="http://www.w3.org/1999/xlink" viewBox="0 0 808 264"><defs><style>.cls-1,.cls-10,.cls-8{fill:#fff;}.cls-1{fill-opacity:0.01;}.cls-2{fill:#9fa5a9;fill-opacity:0.3;}.cls-3{fill-rule:evenodd;fill:url(#gradient_61);}.cls-4,.cls-5,.cls-6,.cls-7{fill:none;stroke-linecap:round;stroke-miterlimit:10;stroke-width:1.5px;}.cls-4{stroke:url(#gradient_61-2);}.cls-5{stroke:url(#gradient_61-3);}.cls-6{stroke:url(#gradient_61-4);}.cls-7{stroke:url(#gradient_61-5);}.cls-9{fill:#12181d;}.cls-10{stroke:#9fa5a9;stroke-opacity:0.2;}</style><linearGradient id="gradient_61" x1="105.02" y1="548.95" x2="105.6" y2="548.19" gradientTransform="matrix(88, 0, 0, -77, -8587.99, 42377.51)" gradientUnits="userSpaceOnUse"><stop offset="0" stop-color="#69bbff"/><stop offset="1" stop-color="#257aff"/></linearGradient><linearGradient id="gradient_61-2" x1="199.25" y1="34" x2="464.75" y2="34" gradientTransform="matrix(1, 0, 0, 1, 0, 0)" xlink:href="#gradient_61"/><linearGradient id="gradient_61-3" x1="463.25" y1="214" x2="678.75" y2="214" gradientTransform="matrix(1, 0, 0, 1, 0, 0)" xlink:href="#gradient_61"/><linearGradient id="gradient_61-4" x1="457.25" y1="24.16" x2="470.75" y2="24.16" gradientTransform="matrix(1, 0, 0, 1, 0, 0)" xlink:href="#gradient_61"/><linearGradient id="gradient_61-5" x1="671.25" y1="183.84" x2="684.75" y2="183.84" gradientTransform="matrix(1, 0, 0, 1, 0, 0)" xlink:href="#gradient_61"/></defs><title>storage-06</title><g id="Design"><g id="Group-6"><rect id="Rectangle" class="cls-1" width="808" height="264"/><rect id="Rectangle-2" data-name="Rectangle" class="cls-2" x="336" y="35" width="256" height="194" rx="12"/><path id="Shape" class="cls-3" d="M657.1,119.17l4,1.3h.71l.8-3.93a13.7,13.7,0,0,1,.49-1.77l-3.1-6.1,3.63-10.74a2.39,2.39,0,0,0-1.54-3l-2.32-.77a2.45,2.45,0,0,0-3.09,1.53l-4,11.68A4.73,4.73,0,0,0,653,111Zm64.49,27.37-8.06-11.89a4.91,4.91,0,0,0-4.07-2.15h-11.9l10.54-3.66a4.93,4.93,0,0,0,2.52-1.9l8.19-12.09a2.39,2.39,0,0,0-.68-3.34l-2-1.33a2.47,2.47,0,0,0-3.39.66L705,122.25l-9.24,3h-5.52l-1.58-7.8c-.34-1.65-2.66-9-10.64-9s-10.3,7.39-10.64,9l-1.58,7.8h-5.52l-9.24-3-7.73-11.41a2.47,2.47,0,0,0-3.39-.66l-2,1.33a2.39,2.39,0,0,0-.68,3.34l8.19,12.09a4.93,4.93,0,0,0,2.52,1.9l10.54,3.66h-11.9a4.93,4.93,0,0,0-4.07,2.14l-8.06,11.9a2.38,2.38,0,0,0,.68,3.34l2,1.34a2.48,2.48,0,0,0,3.39-.67l7.34-10.83H655l-9.3,14.64a4.79,4.79,0,0,0-.74,2.55v11.68a2.42,2.42,0,0,0,2.44,2.41h2.45a2.42,2.42,0,0,0,2.44-2.41v-11l11.32-17.83c-.15,2.12-.32,4.23-.32,6.35,0,8,6.23,15.26,14.67,15.26s14.67-7.28,14.67-15.26c0-2.12-.17-4.23-.32-6.35l11.32,17.83v11a2.42,2.42,0,0,0,2.44,2.41h2.45a2.42,2.42,0,0,0,2.44-2.41V156.91a4.77,4.77,0,0,0-.74-2.55L701,139.72h7.19l7.34,10.83a2.47,2.47,0,0,0,3.39.66l2-1.33a2.38,2.38,0,0,0,.68-3.34ZM696,108.67l-3.1,6.1a13.7,13.7,0,0,1,.49,1.77l.8,3.93h.71l4-1.3,4.15-8.17a4.73,4.73,0,0,0,.27-3.67l-4-11.68a2.45,2.45,0,0,0-3.09-1.53l-2.32.77a2.39,2.39,0,0,0-1.54,3Z"/><path id="Path-7" class="cls-4" d="M200,58V16a6,6,0,0,1,6-6H458a6,6,0,0,1,6,6V26"/><path id="Path-7-2" data-name="Path-7" class="cls-5" d="M678,181v60a6,6,0,0,1-6,6H470a6,6,0,0,1-6-6v-3"/><polyline id="Path-17" class="cls-6" points="458 21 464 27 470 21"/><polyline id="Path-17-2" data-name="Path-17" class="cls-7" points="672 187 678 181 684 187"/><g id="Group-5"><g id="Rectangle-3" data-name="Rectangle"><rect id="path-4" x="344" y="181" width="240" height="40" rx="8"/><rect id="path-4-2" data-name="path-4" class="cls-8" x="344" y="181" width="240" height="40" rx="8"/></g><path id="https:_www.airbnb.com" data-name="https://www.airbnb.com" class="cls-9" d="M361.18,206V195.18h1.16v4.66a2.5,2.5,0,0,1,2.35-1.29c1.51,0,2.58.83,2.58,3V206H366.1v-4.58c0-1.29-.54-1.86-1.72-1.86a1.92,1.92,0,0,0-2,2V206Zm10.59.1a1.78,1.78,0,0,1-2-1.93v-4.51h-1.05v-1h1.05V197H371v1.67h1.71v1H371v4.39c0,.72.32,1.07.91,1.07a2.34,2.34,0,0,0,.9-.16v1A2.65,2.65,0,0,1,371.77,206.1Zm5,0a1.78,1.78,0,0,1-2-1.93v-4.51h-1v-1h1V197h1.16v1.67h1.71v1h-1.71v4.39c0,.72.32,1.07.91,1.07a2.34,2.34,0,0,0,.9-.16v1A2.65,2.65,0,0,1,376.74,206.1Zm2.75,2.45v-9.87h1.16v1.23a3,3,0,0,1,2.48-1.36c1.92,0,3.33,1.4,3.33,3.68v.12c0,2.24-1.32,3.78-3.33,3.78a2.79,2.79,0,0,1-2.48-1.33v3.75Zm3.53-3.39c1.45,0,2.24-1,2.24-2.76v-.11c0-1.85-1-2.77-2.26-2.77s-2.39.89-2.39,2.77v.11C380.61,204.28,381.59,205.16,383,205.16Zm7.51,1c-1.75,0-2.8-.89-2.87-2.38h1.14c.08.86.54,1.41,1.72,1.41s1.6-.38,1.6-1.16-.58-1-1.71-1.23c-1.91-.35-2.55-.89-2.55-2.16a2.28,2.28,0,0,1,2.48-2.06,2.33,2.33,0,0,1,2.64,2.12h-1.12c-.16-.8-.61-1.15-1.54-1.15s-1.38.42-1.38,1,.36.92,1.71,1.16c1.51.28,2.57.62,2.57,2.17C393.22,205.23,392.31,206.13,390.53,206.13Zm5.32-.06a.9.9,0,1,1,.9-.9A.89.89,0,0,1,395.85,206.07Zm0-4.16a.9.9,0,0,1,0-1.79.9.9,0,1,1,0,1.79Zm2.13,6.16,4.08-12.93h1.06l-4.07,12.93Zm5.64,0,4.08-12.93h1.06l-4.07,12.93Zm8.21-2.07-2.26-7.32h1.26l1.71,5.89,1.78-5.89h1l1.66,5.89,1.73-5.89h1.19L417.62,206h-1.28l-1.53-5.49L413.1,206Zm11.11,0-2.25-7.32H422l1.71,5.89,1.78-5.89h1l1.67,5.89,1.72-5.89H431L428.74,206h-1.29l-1.52-5.49L424.22,206Zm11.12,0-2.25-7.32h1.26l1.7,5.89,1.78-5.89h1l1.67,5.89,1.72-5.89h1.19L439.86,206h-1.29L437,200.51,435.33,206Zm10.44.07a.9.9,0,1,1,.9-.9A.89.89,0,0,1,444.5,206.07Zm5,.06c-1.36,0-2.44-.66-2.44-2.16,0-1.69,1.79-2.27,3.67-2.27h1v-.53c0-1.16-.45-1.65-1.57-1.65s-1.57.42-1.68,1.31h-1.16c.15-1.66,1.48-2.28,2.9-2.28a2.36,2.36,0,0,1,2.67,2.62V206h-1.16v-.92A2.65,2.65,0,0,1,449.49,206.13Zm.11-.93c1.23,0,2.17-.63,2.17-1.76v-.91h-1c-1.47,0-2.55.36-2.55,1.44C448.21,204.73,448.58,205.2,449.6,205.2Zm5.64.8v-7.32h1.16V206Zm.56-8.85a.77.77,0,1,1,.77-.77A.78.78,0,0,1,455.8,197.15Zm3,8.85v-7.32H460V200a2.55,2.55,0,0,1,2.4-1.44v1.09c-1.47.07-2.4.54-2.4,2.34v4Zm8.91.13a2.81,2.81,0,0,1-2.48-1.33V206h-1.16V195.18h1.16v4.73a3,3,0,0,1,2.48-1.36c1.92,0,3.33,1.4,3.33,3.68v.12C471,204.59,469.7,206.13,467.69,206.13Zm-.11-1c1.45,0,2.24-1,2.24-2.76v-.11c0-1.85-1-2.77-2.26-2.77s-2.39.89-2.39,2.77v.11C465.17,204.28,466.15,205.16,467.58,205.16Zm5.25.84v-7.32H474v1.16a2.5,2.5,0,0,1,2.35-1.29c1.51,0,2.58.83,2.58,3V206h-1.17v-4.58c0-1.29-.54-1.86-1.72-1.86a1.92,1.92,0,0,0-2,2V206Zm12,.13a2.81,2.81,0,0,1-2.48-1.33V206H481.2V195.18h1.16v4.73a3,3,0,0,1,2.48-1.36c1.92,0,3.33,1.4,3.33,3.68v.12C488.17,204.59,486.85,206.13,484.84,206.13Zm-.11-1c1.45,0,2.24-1,2.24-2.76v-.11c0-1.85-1-2.77-2.26-2.77s-2.39.89-2.39,2.77v.11C482.32,204.28,483.3,205.16,484.73,205.16Zm6,.91a.9.9,0,1,1,.9-.9A.89.89,0,0,1,490.77,206.07Zm6.19.06a3.48,3.48,0,0,1-3.58-3.71v-.12a3.55,3.55,0,0,1,3.55-3.75,2.87,2.87,0,0,1,3.18,2.56H499a1.82,1.82,0,0,0-2-1.59c-1.33,0-2.35,1.06-2.35,2.78v.12c0,1.79,1,2.74,2.4,2.74a2,2,0,0,0,2.1-1.79h1.07A3.05,3.05,0,0,1,497,206.13Zm8-1c1.47,0,2.39-1.11,2.39-2.76v-.1c0-1.69-.94-2.78-2.39-2.78s-2.4,1.09-2.4,2.77v.11C502.56,204.07,503.47,205.16,505,205.16Zm0,1a3.55,3.55,0,0,1-3.58-3.73v-.11a3.6,3.6,0,1,1,7.19,0v.11A3.53,3.53,0,0,1,504.94,206.13Zm5.42-.13v-7.32h1.16v1.12a2.39,2.39,0,0,1,2.19-1.25,2.13,2.13,0,0,1,2.14,1.37,2.82,2.82,0,0,1,2.5-1.37c1.32,0,2.47.79,2.47,2.91V206h-1.16v-4.62c0-1.29-.55-1.82-1.56-1.82a1.87,1.87,0,0,0-1.93,2V206H515v-4.62c0-1.29-.55-1.82-1.56-1.82a1.87,1.87,0,0,0-1.93,2V206Z"/></g><g id="Group-5-2" data-name="Group-5"><g id="Rectangle-4" data-name="Rectangle"><rect id="path-6" x="344" y="135" width="240" height="40" rx="8"/><rect id="path-6-2" data-name="path-6" class="cls-8" x="344" y="135" width="240" height="40" rx="8"/></g><path id="https:_www.booking.com" data-name="https://www.booking.com" class="cls-9" d="M361.18,160V149.18h1.16v4.66a2.5,2.5,0,0,1,2.35-1.29c1.51,0,2.58.83,2.58,3V160H366.1v-4.58c0-1.29-.54-1.86-1.72-1.86a1.92,1.92,0,0,0-2,2V160Zm10.59.1a1.78,1.78,0,0,1-2-1.93v-4.51h-1.05v-1h1.05V151H371v1.67h1.71v1H371v4.39c0,.72.32,1.07.91,1.07a2.34,2.34,0,0,0,.9-.16v1A2.65,2.65,0,0,1,371.77,160.1Zm5,0a1.78,1.78,0,0,1-2-1.93v-4.51h-1v-1h1V151h1.16v1.67h1.71v1h-1.71v4.39c0,.72.32,1.07.91,1.07a2.34,2.34,0,0,0,.9-.16v1A2.65,2.65,0,0,1,376.74,160.1Zm2.75,2.45v-9.87h1.16v1.23a3,3,0,0,1,2.48-1.36c1.92,0,3.33,1.4,3.33,3.68v.12c0,2.24-1.32,3.78-3.33,3.78a2.79,2.79,0,0,1-2.48-1.33v3.75Zm3.53-3.39c1.45,0,2.24-1,2.24-2.76v-.11c0-1.85-1-2.77-2.26-2.77s-2.39.89-2.39,2.77v.11C380.61,158.28,381.59,159.16,383,159.16Zm7.51,1c-1.75,0-2.8-.89-2.87-2.38h1.14c.08.86.54,1.41,1.72,1.41s1.6-.38,1.6-1.16-.58-1-1.71-1.23c-1.91-.35-2.55-.89-2.55-2.16a2.28,2.28,0,0,1,2.48-2.06,2.33,2.33,0,0,1,2.64,2.12h-1.12c-.16-.8-.61-1.15-1.54-1.15s-1.38.42-1.38,1,.36.92,1.71,1.16c1.51.28,2.57.62,2.57,2.17C393.22,159.23,392.31,160.13,390.53,160.13Zm5.32-.06a.9.9,0,1,1,.9-.9A.89.89,0,0,1,395.85,160.07Zm0-4.16a.9.9,0,0,1,0-1.79.9.9,0,1,1,0,1.79Zm2.13,6.16,4.08-12.93h1.06l-4.07,12.93Zm5.64,0,4.08-12.93h1.06l-4.07,12.93Zm8.21-2.07-2.26-7.32h1.26l1.71,5.89,1.78-5.89h1l1.66,5.89,1.73-5.89h1.19L417.62,160h-1.28l-1.53-5.49L413.1,160Zm11.11,0-2.25-7.32H422l1.71,5.89,1.78-5.89h1l1.67,5.89,1.72-5.89H431L428.74,160h-1.29l-1.52-5.49L424.22,160Zm11.12,0-2.25-7.32h1.26l1.7,5.89,1.78-5.89h1l1.67,5.89,1.72-5.89h1.19L439.86,160h-1.29L437,154.51,435.33,160Zm10.44.07a.9.9,0,1,1,.9-.9A.89.89,0,0,1,444.5,160.07Zm6.79.06a2.79,2.79,0,0,1-2.47-1.33V160h-1.17V149.18h1.17v4.73a3,3,0,0,1,2.47-1.36c1.92,0,3.34,1.4,3.34,3.68v.12C454.63,158.59,453.31,160.13,451.29,160.13Zm-.11-1c1.46,0,2.24-1,2.24-2.76v-.11c0-1.85-1-2.77-2.25-2.77s-2.4.89-2.4,2.77v.11C448.77,158.28,449.75,159.16,451.18,159.16Zm8.3,0c1.47,0,2.4-1.11,2.4-2.76v-.1c0-1.69-.94-2.78-2.4-2.78s-2.39,1.09-2.39,2.77v.11C457.09,158.07,458,159.16,459.48,159.16Zm0,1a3.54,3.54,0,0,1-3.58-3.73v-.11a3.6,3.6,0,1,1,7.19,0v.11A3.53,3.53,0,0,1,459.47,160.13Zm8.47-1c1.47,0,2.39-1.11,2.39-2.76v-.1c0-1.69-.93-2.78-2.39-2.78s-2.39,1.09-2.39,2.77v.11C465.55,158.07,466.46,159.16,467.94,159.16Zm0,1a3.55,3.55,0,0,1-3.59-3.73v-.11a3.6,3.6,0,1,1,7.2,0v.11A3.54,3.54,0,0,1,467.93,160.13Zm5.41-.13V149.18h1.17v6.87l3-3.37h1.36l-3.13,3.4,3.4,3.92h-1.42l-3.24-3.79V160Zm7.26,0v-7.32h1.16V160Zm.56-8.85a.77.77,0,1,1,.77-.77A.78.78,0,0,1,481.16,151.15Zm3,8.85v-7.32h1.16v1.16a2.51,2.51,0,0,1,2.35-1.29c1.51,0,2.58.83,2.58,3V160h-1.16v-4.58c0-1.29-.55-1.86-1.73-1.86a1.93,1.93,0,0,0-2,2V160Zm11.3,2.67c-2.17,0-3.13-1-3.32-2.25h1.19c.17.84.87,1.27,2.11,1.27a2.06,2.06,0,0,0,2.35-2.25v-1.06a3,3,0,0,1-2.47,1.38,3.3,3.3,0,0,1-3.34-3.47v-.1a3.46,3.46,0,0,1,3.42-3.64,2.62,2.62,0,0,1,2.39,1.3v-1.17h1.17v6.83C498.92,161.64,497.48,162.67,495.44,162.67Zm0-3.87a2.36,2.36,0,0,0,2.4-2.59v-.1a2.27,2.27,0,0,0-2.33-2.59,2.33,2.33,0,0,0-2.32,2.62v.11A2.31,2.31,0,0,0,495.42,158.8Zm6.67,1.27a.9.9,0,1,1,0-1.79.9.9,0,0,1,0,1.79Zm6.18.06a3.48,3.48,0,0,1-3.58-3.71v-.12a3.56,3.56,0,0,1,3.56-3.75,2.87,2.87,0,0,1,3.17,2.56h-1.14a1.83,1.83,0,0,0-2-1.59c-1.33,0-2.36,1.06-2.36,2.78v.12c0,1.79,1,2.74,2.4,2.74a2,2,0,0,0,2.1-1.79h1.08A3.07,3.07,0,0,1,508.27,160.13Zm8-1c1.47,0,2.39-1.11,2.39-2.76v-.1c0-1.69-.94-2.78-2.39-2.78s-2.4,1.09-2.4,2.77v.11C513.87,158.07,514.78,159.16,516.27,159.16Zm0,1a3.55,3.55,0,0,1-3.58-3.73v-.11a3.6,3.6,0,1,1,7.2,0v.11A3.54,3.54,0,0,1,516.25,160.13Zm5.42-.13v-7.32h1.16v1.12a2.39,2.39,0,0,1,2.19-1.25,2.12,2.12,0,0,1,2.14,1.37,2.84,2.84,0,0,1,2.51-1.37c1.31,0,2.46.79,2.46,2.91V160H531v-4.62c0-1.29-.55-1.82-1.56-1.82a1.87,1.87,0,0,0-1.93,2V160h-1.16v-4.62c0-1.29-.55-1.82-1.55-1.82a1.87,1.87,0,0,0-1.94,2V160Z"/></g><g id="Group-5-3" data-name="Group-5"><rect id="Rectangle-5" data-name="Rectangle" class="cls-10" x="80.5" y="158.5" width="239" height="39" rx="8"/><path id="https:_example.com_page-2" data-name="https://example.com/page-2" class="cls-9" d="M94.18,183V172.18h1.16v4.66a2.5,2.5,0,0,1,2.35-1.29c1.51,0,2.58.83,2.58,3V183H99.1v-4.58c0-1.29-.54-1.86-1.72-1.86a1.92,1.92,0,0,0-2,2V183Zm10.59.1a1.78,1.78,0,0,1-2-1.93v-4.51h-1v-1h1V174H104v1.67h1.71v1H104v4.39c0,.72.32,1.07.91,1.07a2.34,2.34,0,0,0,.9-.16v1A2.65,2.65,0,0,1,104.77,183.1Zm5,0a1.78,1.78,0,0,1-2-1.93v-4.51h-1v-1h1V174h1.16v1.67h1.71v1h-1.71v4.39c0,.72.32,1.07.91,1.07a2.34,2.34,0,0,0,.9-.16v1A2.65,2.65,0,0,1,109.74,183.1Zm2.75,2.45v-9.87h1.16v1.23a3,3,0,0,1,2.48-1.36c1.92,0,3.33,1.4,3.33,3.68v.12c0,2.24-1.32,3.78-3.33,3.78a2.79,2.79,0,0,1-2.48-1.33v3.75Zm3.53-3.39c1.45,0,2.24-1,2.24-2.76v-.11c0-1.85-1-2.77-2.26-2.77s-2.39.89-2.39,2.77v.11C113.61,181.28,114.59,182.16,116,182.16Zm7.51,1c-1.75,0-2.8-.89-2.87-2.38h1.14c.08.86.54,1.41,1.72,1.41s1.6-.38,1.6-1.16-.58-1-1.71-1.23c-1.91-.35-2.55-.89-2.55-2.16a2.28,2.28,0,0,1,2.48-2.06,2.33,2.33,0,0,1,2.64,2.12h-1.12c-.16-.8-.61-1.15-1.54-1.15s-1.38.42-1.38,1,.36.92,1.71,1.16c1.51.28,2.57.62,2.57,2.17C126.22,182.23,125.31,183.13,123.53,183.13Zm5.32-.06a.9.9,0,1,1,.9-.9A.89.89,0,0,1,128.85,183.07Zm0-4.16a.9.9,0,0,1,0-1.79.9.9,0,1,1,0,1.79Zm2.13,6.16,4.08-12.93h1.06l-4.07,12.93Zm5.64,0,4.08-12.93h1.06l-4.07,12.93Zm9.73-1.94a3.44,3.44,0,0,1-3.54-3.71v-.12a3.45,3.45,0,0,1,3.43-3.75c1.7,0,3.29,1,3.29,3.64v.38H144c0,1.67.85,2.59,2.35,2.59,1.13,0,1.79-.42,1.94-1.27h1.17C149.22,182.36,148,183.13,146.35,183.13Zm-2.29-4.5h4.28c-.11-1.51-.89-2.11-2.1-2.11A2.19,2.19,0,0,0,144.06,178.63Zm6.47,4.37,2.61-3.77-2.45-3.55h1.36l1.79,2.66,1.78-2.66h1.26l-2.42,3.47,2.67,3.85h-1.37l-2-2.95-2,2.95Zm10,.13c-1.36,0-2.44-.66-2.44-2.16,0-1.69,1.79-2.27,3.67-2.27h1v-.53c0-1.16-.45-1.65-1.57-1.65s-1.57.42-1.68,1.31h-1.16c.15-1.66,1.48-2.28,2.9-2.28a2.36,2.36,0,0,1,2.67,2.62V183h-1.16v-.92A2.66,2.66,0,0,1,160.54,183.13Zm.11-.93c1.23,0,2.17-.63,2.17-1.76v-.91h-1c-1.47,0-2.55.36-2.55,1.44C159.26,181.73,159.63,182.2,160.65,182.2Zm5.61.8v-7.32h1.16v1.12a2.39,2.39,0,0,1,2.19-1.25,2.12,2.12,0,0,1,2.14,1.37,2.84,2.84,0,0,1,2.51-1.37c1.31,0,2.46.79,2.46,2.91V183h-1.16v-4.62c0-1.29-.55-1.82-1.56-1.82a1.87,1.87,0,0,0-1.93,2V183h-1.16v-4.62c0-1.29-.55-1.82-1.55-1.82a1.87,1.87,0,0,0-1.94,2V183ZM179,185.55v-9.87h1.16v1.23a3,3,0,0,1,2.48-1.36c1.92,0,3.33,1.4,3.33,3.68v.12c0,2.24-1.31,3.78-3.33,3.78a2.8,2.8,0,0,1-2.48-1.33v3.75Zm3.53-3.39c1.46,0,2.24-1,2.24-2.76v-.11c0-1.85-1-2.77-2.25-2.77s-2.4.89-2.4,2.77v.11C180.12,181.28,181.1,182.16,182.53,182.16Zm5.28.84V172.18H189V183Zm6.55.13a3.44,3.44,0,0,1-3.54-3.71v-.12a3.44,3.44,0,0,1,3.43-3.75c1.69,0,3.29,1,3.29,3.64v.38H192c.06,1.67.86,2.59,2.35,2.59,1.14,0,1.8-.42,1.95-1.27h1.16C197.23,182.36,196,183.13,194.36,183.13Zm-2.3-4.5h4.29c-.11-1.51-.9-2.11-2.1-2.11A2.2,2.2,0,0,0,192.06,178.63Zm8.05,4.44a.9.9,0,1,1,.9-.9A.89.89,0,0,1,200.11,183.07Zm6.19.06a3.48,3.48,0,0,1-3.58-3.71v-.12a3.55,3.55,0,0,1,3.55-3.75,2.87,2.87,0,0,1,3.18,2.56H208.3a1.82,1.82,0,0,0-2-1.59c-1.33,0-2.35,1.06-2.35,2.78v.12c0,1.79,1,2.74,2.4,2.74a2,2,0,0,0,2.1-1.79h1.07A3.05,3.05,0,0,1,206.3,183.13Zm8-1c1.47,0,2.39-1.11,2.39-2.76v-.1c0-1.69-.94-2.78-2.39-2.78s-2.4,1.09-2.4,2.77v.11C211.9,181.07,212.81,182.16,214.3,182.16Zm0,1a3.55,3.55,0,0,1-3.58-3.73v-.11a3.6,3.6,0,1,1,7.19,0v.11A3.53,3.53,0,0,1,214.28,183.13Zm5.42-.13v-7.32h1.16v1.12a2.39,2.39,0,0,1,2.19-1.25,2.13,2.13,0,0,1,2.14,1.37,2.82,2.82,0,0,1,2.5-1.37c1.32,0,2.47.79,2.47,2.91V183H229v-4.62c0-1.29-.55-1.82-1.56-1.82a1.87,1.87,0,0,0-1.93,2V183h-1.16v-4.62c0-1.29-.55-1.82-1.56-1.82a1.87,1.87,0,0,0-1.93,2V183Zm11.65,2.07,4.07-12.93h1.07l-4.08,12.93Zm6.73.48v-9.87h1.16v1.23a3,3,0,0,1,2.48-1.36c1.92,0,3.33,1.4,3.33,3.68v.12c0,2.24-1.31,3.78-3.33,3.78a2.8,2.8,0,0,1-2.48-1.33v3.75Zm3.53-3.39c1.46,0,2.24-1,2.24-2.76v-.11c0-1.85-1-2.77-2.25-2.77s-2.4.89-2.4,2.77v.11C239.2,181.28,240.18,182.16,241.61,182.16Zm7.08,1c-1.35,0-2.43-.66-2.43-2.16,0-1.69,1.79-2.27,3.67-2.27h1v-.53c0-1.16-.45-1.65-1.57-1.65s-1.57.42-1.68,1.31h-1.16c.15-1.66,1.48-2.28,2.89-2.28a2.37,2.37,0,0,1,2.68,2.62V183H251v-.92A2.67,2.67,0,0,1,248.69,183.13Zm.12-.93c1.23,0,2.17-.63,2.17-1.76v-.91h-1c-1.47,0-2.55.36-2.55,1.44C247.42,181.73,247.78,182.2,248.81,182.2Zm8.54,3.47c-2.17,0-3.13-1-3.32-2.25h1.19c.17.84.87,1.27,2.11,1.27a2.06,2.06,0,0,0,2.35-2.25v-1.06a3,3,0,0,1-2.47,1.38,3.3,3.3,0,0,1-3.34-3.47v-.1a3.46,3.46,0,0,1,3.42-3.64,2.62,2.62,0,0,1,2.39,1.3v-1.17h1.17v6.83C260.83,184.64,259.39,185.67,257.35,185.67Zm0-3.87a2.36,2.36,0,0,0,2.4-2.59v-.1a2.27,2.27,0,0,0-2.33-2.59,2.33,2.33,0,0,0-2.32,2.62v.11A2.31,2.31,0,0,0,257.33,181.8Zm8.86,1.33a3.44,3.44,0,0,1-3.54-3.71v-.12a3.45,3.45,0,0,1,3.43-3.75c1.7,0,3.29,1,3.29,3.64v.38h-5.51c.05,1.67.85,2.59,2.35,2.59,1.13,0,1.79-.42,1.94-1.27h1.17C269.06,182.36,267.85,183.13,266.19,183.13Zm-2.29-4.5h4.28c-.11-1.51-.89-2.11-2.1-2.11A2.19,2.19,0,0,0,263.9,178.63Zm6.91,1.07v-1.1h3v1.1Zm4.11,3.3v-.28l4-4.19a4.26,4.26,0,0,0,1.44-2.89,1.64,1.64,0,0,0-1.79-1.8c-1.16,0-1.92.66-2.11,2.23h-1.14a3.15,3.15,0,0,1,3.25-3.21,2.74,2.74,0,0,1,3,2.82c0,1.23-.79,2.43-2,3.64L276.79,182h4.83v1Z"/></g><g id="Group-5-4" data-name="Group-5"><g id="Rectangle-6" data-name="Rectangle"><rect id="path-8" x="344" y="89" width="240" height="40" rx="8"/><rect id="path-8-2" data-name="path-8" class="cls-8" x="344" y="89" width="240" height="40" rx="8"/></g><path id="https:_www.google.com" data-name="https://www.google.com" class="cls-9" d="M361.18,114V103.18h1.16v4.66a2.5,2.5,0,0,1,2.35-1.29c1.51,0,2.58.83,2.58,3V114H366.1v-4.58c0-1.29-.54-1.86-1.72-1.86a1.92,1.92,0,0,0-2,2V114Zm10.59.1a1.78,1.78,0,0,1-2-1.93v-4.51h-1.05v-1h1.05V105H371v1.67h1.71v1H371v4.39c0,.72.32,1.07.91,1.07a2.34,2.34,0,0,0,.9-.16v1A2.65,2.65,0,0,1,371.77,114.1Zm5,0a1.78,1.78,0,0,1-2-1.93v-4.51h-1v-1h1V105h1.16v1.67h1.71v1h-1.71v4.39c0,.72.32,1.07.91,1.07a2.34,2.34,0,0,0,.9-.16v1A2.65,2.65,0,0,1,376.74,114.1Zm2.75,2.45v-9.87h1.16v1.23a3,3,0,0,1,2.48-1.36c1.92,0,3.33,1.4,3.33,3.68v.12c0,2.24-1.32,3.78-3.33,3.78a2.79,2.79,0,0,1-2.48-1.33v3.75Zm3.53-3.39c1.45,0,2.24-1,2.24-2.76v-.11c0-1.85-1-2.77-2.26-2.77s-2.39.89-2.39,2.77v.11C380.61,112.28,381.59,113.16,383,113.16Zm7.51,1c-1.75,0-2.8-.89-2.87-2.38h1.14c.08.86.54,1.41,1.72,1.41s1.6-.38,1.6-1.16-.58-1-1.71-1.23c-1.91-.35-2.55-.89-2.55-2.16a2.28,2.28,0,0,1,2.48-2.06,2.33,2.33,0,0,1,2.64,2.12h-1.12c-.16-.8-.61-1.15-1.54-1.15s-1.38.42-1.38,1,.36.92,1.71,1.16c1.51.28,2.57.62,2.57,2.17C393.22,113.23,392.31,114.13,390.53,114.13Zm5.32-.06a.9.9,0,1,1,.9-.9A.89.89,0,0,1,395.85,114.07Zm0-4.16a.9.9,0,0,1,0-1.79.9.9,0,1,1,0,1.79Zm2.13,6.16,4.08-12.93h1.06l-4.07,12.93Zm5.64,0,4.08-12.93h1.06l-4.07,12.93Zm8.21-2.07-2.26-7.32h1.26l1.71,5.89,1.78-5.89h1l1.66,5.89,1.73-5.89h1.19L417.62,114h-1.28l-1.53-5.49L413.1,114Zm11.11,0-2.25-7.32H422l1.71,5.89,1.78-5.89h1l1.67,5.89,1.72-5.89H431L428.74,114h-1.29l-1.52-5.49L424.22,114Zm11.12,0-2.25-7.32h1.26l1.7,5.89,1.78-5.89h1l1.67,5.89,1.72-5.89h1.19L439.86,114h-1.29L437,108.51,435.33,114Zm10.44.07a.9.9,0,1,1,.9-.9A.89.89,0,0,1,444.5,114.07Zm6.08,2.6c-2.17,0-3.12-1-3.32-2.25h1.19c.17.84.87,1.27,2.12,1.27a2.06,2.06,0,0,0,2.35-2.25v-1.06a3,3,0,0,1-2.48,1.38,3.29,3.29,0,0,1-3.33-3.47v-.1a3.46,3.46,0,0,1,3.41-3.64,2.64,2.64,0,0,1,2.4,1.3v-1.17h1.16v6.83C454.07,115.64,452.62,116.67,450.58,116.67Zm0-3.87a2.36,2.36,0,0,0,2.39-2.59v-.1c0-1.64-.9-2.59-2.32-2.59a2.33,2.33,0,0,0-2.33,2.62v.11A2.32,2.32,0,0,0,450.57,112.8Zm8.91.36c1.47,0,2.4-1.11,2.4-2.76v-.1c0-1.69-.94-2.78-2.4-2.78s-2.39,1.09-2.39,2.77v.11C457.09,112.07,458,113.16,459.48,113.16Zm0,1a3.54,3.54,0,0,1-3.58-3.73v-.11a3.6,3.6,0,1,1,7.19,0v.11A3.53,3.53,0,0,1,459.47,114.13Zm8.47-1c1.47,0,2.39-1.11,2.39-2.76v-.1c0-1.69-.93-2.78-2.39-2.78s-2.39,1.09-2.39,2.77v.11C465.55,112.07,466.46,113.16,467.94,113.16Zm0,1a3.55,3.55,0,0,1-3.59-3.73v-.11a3.6,3.6,0,1,1,7.2,0v.11A3.54,3.54,0,0,1,467.93,114.13Zm8.34,2.54c-2.17,0-3.12-1-3.32-2.25h1.19c.17.84.87,1.27,2.12,1.27a2.06,2.06,0,0,0,2.35-2.25v-1.06a3,3,0,0,1-2.48,1.38,3.29,3.29,0,0,1-3.33-3.47v-.1a3.46,3.46,0,0,1,3.41-3.64,2.64,2.64,0,0,1,2.4,1.3v-1.17h1.16v6.83C479.76,115.64,478.31,116.67,476.27,116.67Zm0-3.87a2.36,2.36,0,0,0,2.39-2.59v-.1c0-1.64-.9-2.59-2.32-2.59a2.33,2.33,0,0,0-2.33,2.62v.11A2.32,2.32,0,0,0,476.26,112.8Zm5.89,1.2V103.18h1.18V114Zm6.55.13a3.44,3.44,0,0,1-3.54-3.71v-.12a3.44,3.44,0,0,1,3.43-3.75c1.69,0,3.29,1,3.29,3.64v.38h-5.52c.06,1.67.86,2.59,2.36,2.59,1.13,0,1.79-.42,1.94-1.27h1.16C491.57,113.36,490.35,114.13,488.7,114.13Zm-2.29-4.5h4.28c-.11-1.51-.9-2.11-2.1-2.11A2.19,2.19,0,0,0,486.41,109.63Zm8,4.44a.9.9,0,1,1,0-1.79.9.9,0,0,1,0,1.79Zm6.18.06a3.48,3.48,0,0,1-3.58-3.71v-.12a3.56,3.56,0,0,1,3.56-3.75,2.87,2.87,0,0,1,3.17,2.56h-1.14a1.83,1.83,0,0,0-2-1.59c-1.33,0-2.36,1.06-2.36,2.78v.12c0,1.79,1,2.74,2.4,2.74a2,2,0,0,0,2.1-1.79h1.08A3.07,3.07,0,0,1,500.64,114.13Zm8-1c1.47,0,2.39-1.11,2.39-2.76v-.1c0-1.69-.94-2.78-2.39-2.78s-2.4,1.09-2.4,2.77v.11C506.24,112.07,507.15,113.16,508.64,113.16Zm0,1A3.55,3.55,0,0,1,505,110.4v-.11a3.6,3.6,0,1,1,7.2,0v.11A3.54,3.54,0,0,1,508.62,114.13ZM514,114v-7.32h1.16v1.12a2.39,2.39,0,0,1,2.19-1.25,2.12,2.12,0,0,1,2.14,1.37,2.84,2.84,0,0,1,2.51-1.37c1.31,0,2.46.79,2.46,2.91V114h-1.16v-4.62c0-1.29-.55-1.82-1.56-1.82a1.87,1.87,0,0,0-1.93,2V114h-1.16v-4.62c0-1.29-.55-1.82-1.55-1.82a1.87,1.87,0,0,0-1.94,2V114Z"/></g><g id="Group-5-5" data-name="Group-5"><rect id="Rectangle-7" data-name="Rectangle" class="cls-10" x="80.5" y="112.5" width="239" height="39" rx="8"/><path id="https:_example.com_page-1" data-name="https://example.com/page-1" class="cls-9" d="M94.18,137V126.18h1.16v4.66a2.5,2.5,0,0,1,2.35-1.29c1.51,0,2.58.83,2.58,3V137H99.1v-4.58c0-1.29-.54-1.86-1.72-1.86a1.92,1.92,0,0,0-2,2V137Zm10.59.1a1.78,1.78,0,0,1-2-1.93v-4.51h-1v-1h1V128H104v1.67h1.71v1H104v4.39c0,.72.32,1.07.91,1.07a2.34,2.34,0,0,0,.9-.16v1A2.65,2.65,0,0,1,104.77,137.1Zm5,0a1.78,1.78,0,0,1-2-1.93v-4.51h-1v-1h1V128h1.16v1.67h1.71v1h-1.71v4.39c0,.72.32,1.07.91,1.07a2.34,2.34,0,0,0,.9-.16v1A2.65,2.65,0,0,1,109.74,137.1Zm2.75,2.45v-9.87h1.16v1.23a3,3,0,0,1,2.48-1.36c1.92,0,3.33,1.4,3.33,3.68v.12c0,2.24-1.32,3.78-3.33,3.78a2.79,2.79,0,0,1-2.48-1.33v3.75Zm3.53-3.39c1.45,0,2.24-1,2.24-2.76v-.11c0-1.85-1-2.77-2.26-2.77s-2.39.89-2.39,2.77v.11C113.61,135.28,114.59,136.16,116,136.16Zm7.51,1c-1.75,0-2.8-.89-2.87-2.38h1.14c.08.86.54,1.41,1.72,1.41s1.6-.38,1.6-1.16-.58-1-1.71-1.23c-1.91-.35-2.55-.89-2.55-2.16a2.28,2.28,0,0,1,2.48-2.06,2.33,2.33,0,0,1,2.64,2.12h-1.12c-.16-.8-.61-1.15-1.54-1.15s-1.38.42-1.38,1,.36.92,1.71,1.16c1.51.28,2.57.62,2.57,2.17C126.22,136.23,125.31,137.13,123.53,137.13Zm5.32-.06a.9.9,0,1,1,.9-.9A.89.89,0,0,1,128.85,137.07Zm0-4.16a.9.9,0,0,1,0-1.79.9.9,0,1,1,0,1.79Zm2.13,6.16,4.08-12.93h1.06l-4.07,12.93Zm5.64,0,4.08-12.93h1.06l-4.07,12.93Zm9.73-1.94a3.44,3.44,0,0,1-3.54-3.71v-.12a3.45,3.45,0,0,1,3.43-3.75c1.7,0,3.29,1,3.29,3.64v.38H144c0,1.67.85,2.59,2.35,2.59,1.13,0,1.79-.42,1.94-1.27h1.17C149.22,136.36,148,137.13,146.35,137.13Zm-2.29-4.5h4.28c-.11-1.51-.89-2.11-2.1-2.11A2.19,2.19,0,0,0,144.06,132.63Zm6.47,4.37,2.61-3.77-2.45-3.55h1.36l1.79,2.66,1.78-2.66h1.26l-2.42,3.47,2.67,3.85h-1.37l-2-2.95-2,2.95Zm10,.13c-1.36,0-2.44-.66-2.44-2.16,0-1.69,1.79-2.27,3.67-2.27h1v-.53c0-1.16-.45-1.65-1.57-1.65s-1.57.42-1.68,1.31h-1.16c.15-1.66,1.48-2.28,2.9-2.28a2.36,2.36,0,0,1,2.67,2.62V137h-1.16v-.92A2.66,2.66,0,0,1,160.54,137.13Zm.11-.93c1.23,0,2.17-.63,2.17-1.76v-.91h-1c-1.47,0-2.55.36-2.55,1.44C159.26,135.73,159.63,136.2,160.65,136.2Zm5.61.8v-7.32h1.16v1.12a2.39,2.39,0,0,1,2.19-1.25,2.12,2.12,0,0,1,2.14,1.37,2.84,2.84,0,0,1,2.51-1.37c1.31,0,2.46.79,2.46,2.91V137h-1.16v-4.62c0-1.29-.55-1.82-1.56-1.82a1.87,1.87,0,0,0-1.93,2V137h-1.16v-4.62c0-1.29-.55-1.82-1.55-1.82a1.87,1.87,0,0,0-1.94,2V137ZM179,139.55v-9.87h1.16v1.23a3,3,0,0,1,2.48-1.36c1.92,0,3.33,1.4,3.33,3.68v.12c0,2.24-1.31,3.78-3.33,3.78a2.8,2.8,0,0,1-2.48-1.33v3.75Zm3.53-3.39c1.46,0,2.24-1,2.24-2.76v-.11c0-1.85-1-2.77-2.25-2.77s-2.4.89-2.4,2.77v.11C180.12,135.28,181.1,136.16,182.53,136.16Zm5.28.84V126.18H189V137Zm6.55.13a3.44,3.44,0,0,1-3.54-3.71v-.12a3.44,3.44,0,0,1,3.43-3.75c1.69,0,3.29,1,3.29,3.64v.38H192c.06,1.67.86,2.59,2.35,2.59,1.14,0,1.8-.42,1.95-1.27h1.16C197.23,136.36,196,137.13,194.36,137.13Zm-2.3-4.5h4.29c-.11-1.51-.9-2.11-2.1-2.11A2.2,2.2,0,0,0,192.06,132.63Zm8.05,4.44a.9.9,0,1,1,.9-.9A.89.89,0,0,1,200.11,137.07Zm6.19.06a3.48,3.48,0,0,1-3.58-3.71v-.12a3.55,3.55,0,0,1,3.55-3.75,2.87,2.87,0,0,1,3.18,2.56H208.3a1.82,1.82,0,0,0-2-1.59c-1.33,0-2.35,1.06-2.35,2.78v.12c0,1.79,1,2.74,2.4,2.74a2,2,0,0,0,2.1-1.79h1.07A3.05,3.05,0,0,1,206.3,137.13Zm8-1c1.47,0,2.39-1.11,2.39-2.76v-.1c0-1.69-.94-2.78-2.39-2.78s-2.4,1.09-2.4,2.77v.11C211.9,135.07,212.81,136.16,214.3,136.16Zm0,1a3.55,3.55,0,0,1-3.58-3.73v-.11a3.6,3.6,0,1,1,7.19,0v.11A3.53,3.53,0,0,1,214.28,137.13Zm5.42-.13v-7.32h1.16v1.12a2.39,2.39,0,0,1,2.19-1.25,2.13,2.13,0,0,1,2.14,1.37,2.82,2.82,0,0,1,2.5-1.37c1.32,0,2.47.79,2.47,2.91V137H229v-4.62c0-1.29-.55-1.82-1.56-1.82a1.87,1.87,0,0,0-1.93,2V137h-1.16v-4.62c0-1.29-.55-1.82-1.56-1.82a1.87,1.87,0,0,0-1.93,2V137Zm11.65,2.07,4.07-12.93h1.07l-4.08,12.93Zm6.73.48v-9.87h1.16v1.23a3,3,0,0,1,2.48-1.36c1.92,0,3.33,1.4,3.33,3.68v.12c0,2.24-1.31,3.78-3.33,3.78a2.8,2.8,0,0,1-2.48-1.33v3.75Zm3.53-3.39c1.46,0,2.24-1,2.24-2.76v-.11c0-1.85-1-2.77-2.25-2.77s-2.4.89-2.4,2.77v.11C239.2,135.28,240.18,136.16,241.61,136.16Zm7.08,1c-1.35,0-2.43-.66-2.43-2.16,0-1.69,1.79-2.27,3.67-2.27h1v-.53c0-1.16-.45-1.65-1.57-1.65s-1.57.42-1.68,1.31h-1.16c.15-1.66,1.48-2.28,2.89-2.28a2.37,2.37,0,0,1,2.68,2.62V137H251v-.92A2.67,2.67,0,0,1,248.69,137.13Zm.12-.93c1.23,0,2.17-.63,2.17-1.76v-.91h-1c-1.47,0-2.55.36-2.55,1.44C247.42,135.73,247.78,136.2,248.81,136.2Zm8.54,3.47c-2.17,0-3.13-1-3.32-2.25h1.19c.17.84.87,1.27,2.11,1.27a2.06,2.06,0,0,0,2.35-2.25v-1.06a3,3,0,0,1-2.47,1.38,3.3,3.3,0,0,1-3.34-3.47v-.1a3.46,3.46,0,0,1,3.42-3.64,2.62,2.62,0,0,1,2.39,1.3v-1.17h1.17v6.83C260.83,138.64,259.39,139.67,257.35,139.67Zm0-3.87a2.36,2.36,0,0,0,2.4-2.59v-.1a2.27,2.27,0,0,0-2.33-2.59,2.33,2.33,0,0,0-2.32,2.62v.11A2.31,2.31,0,0,0,257.33,135.8Zm8.86,1.33a3.44,3.44,0,0,1-3.54-3.71v-.12a3.45,3.45,0,0,1,3.43-3.75c1.7,0,3.29,1,3.29,3.64v.38h-5.51c.05,1.67.85,2.59,2.35,2.59,1.13,0,1.79-.42,1.94-1.27h1.17C269.06,136.36,267.85,137.13,266.19,137.13Zm-2.29-4.5h4.28c-.11-1.51-.89-2.11-2.1-2.11A2.19,2.19,0,0,0,263.9,132.63Zm6.91,1.07v-1.1h3v1.1Zm6.54,3.3v-8.81l-2.24,1.61v-1.13l2.33-1.68h1.13v10Z"/></g><g id="Group-5-6" data-name="Group-5"><g id="Rectangle-8" data-name="Rectangle"><rect id="path-10" x="344" y="43" width="240" height="40" rx="8"/><rect id="path-10-2" data-name="path-10" class="cls-8" x="344" y="43" width="240" height="40" rx="8"/></g><path id="https:_www.example.com" data-name="https://www.example.com" class="cls-9" d="M361.18,68V57.18h1.16v4.66a2.5,2.5,0,0,1,2.35-1.29c1.51,0,2.58.83,2.58,3V68H366.1V63.42c0-1.29-.54-1.86-1.72-1.86a1.92,1.92,0,0,0-2,2V68Zm10.59.1a1.78,1.78,0,0,1-2-1.93V61.66h-1.05v-1h1.05V59H371v1.67h1.71v1H371v4.39c0,.72.32,1.07.91,1.07a2.34,2.34,0,0,0,.9-.16v1A2.65,2.65,0,0,1,371.77,68.1Zm5,0a1.78,1.78,0,0,1-2-1.93V61.66h-1v-1h1V59h1.16v1.67h1.71v1h-1.71v4.39c0,.72.32,1.07.91,1.07a2.34,2.34,0,0,0,.9-.16v1A2.65,2.65,0,0,1,376.74,68.1Zm2.75,2.45V60.68h1.16v1.23a3,3,0,0,1,2.48-1.36c1.92,0,3.33,1.4,3.33,3.68v.12c0,2.24-1.32,3.78-3.33,3.78a2.79,2.79,0,0,1-2.48-1.33v3.75ZM383,67.16c1.45,0,2.24-1,2.24-2.76v-.11c0-1.85-1-2.77-2.26-2.77s-2.39.89-2.39,2.77v.11C380.61,66.28,381.59,67.16,383,67.16Zm7.51,1c-1.75,0-2.8-.89-2.87-2.38h1.14c.08.86.54,1.41,1.72,1.41s1.6-.38,1.6-1.16-.58-1-1.71-1.23c-1.91-.35-2.55-.89-2.55-2.16a2.28,2.28,0,0,1,2.48-2.06A2.33,2.33,0,0,1,393,62.67h-1.12c-.16-.8-.61-1.15-1.54-1.15s-1.38.42-1.38,1,.36.92,1.71,1.16c1.51.28,2.57.62,2.57,2.17C393.22,67.23,392.31,68.13,390.53,68.13Zm5.32-.06a.9.9,0,1,1,.9-.9A.89.89,0,0,1,395.85,68.07Zm0-4.16a.9.9,0,0,1,0-1.79.9.9,0,1,1,0,1.79ZM398,70.07l4.08-12.93h1.06l-4.07,12.93Zm5.64,0,4.08-12.93h1.06l-4.07,12.93ZM411.83,68l-2.26-7.32h1.26l1.71,5.89,1.78-5.89h1L417,66.57l1.73-5.89h1.19L417.62,68h-1.28l-1.53-5.49L413.1,68Zm11.11,0-2.25-7.32H422l1.71,5.89,1.78-5.89h1l1.67,5.89,1.72-5.89H431L428.74,68h-1.29l-1.52-5.49L424.22,68Zm11.12,0-2.25-7.32h1.26l1.7,5.89,1.78-5.89h1l1.67,5.89L441,60.68h1.19L439.86,68h-1.29L437,62.51,435.33,68Zm10.44.07a.9.9,0,1,1,.9-.9A.89.89,0,0,1,444.5,68.07Zm6.15.06a3.44,3.44,0,0,1-3.54-3.71V64.3a3.44,3.44,0,0,1,3.43-3.75c1.69,0,3.29,1,3.29,3.64v.38h-5.52c.06,1.67.86,2.59,2.35,2.59,1.14,0,1.8-.42,1.95-1.27h1.16C453.52,67.36,452.3,68.13,450.65,68.13Zm-2.3-4.5h4.29c-.11-1.51-.9-2.11-2.1-2.11A2.2,2.2,0,0,0,448.35,63.63ZM454.82,68l2.62-3.77L455,60.68h1.36l1.79,2.66,1.78-2.66h1.26l-2.42,3.47L461.43,68h-1.37l-2-3-2,3Zm10,.13c-1.36,0-2.43-.66-2.43-2.16,0-1.69,1.79-2.27,3.66-2.27h1.05v-.53c0-1.16-.44-1.65-1.56-1.65s-1.57.42-1.68,1.31H462.7c.16-1.66,1.49-2.28,2.9-2.28a2.37,2.37,0,0,1,2.68,2.62V68h-1.17v-.92A2.64,2.64,0,0,1,464.83,68.13Zm.11-.93c1.24,0,2.17-.63,2.17-1.76v-.91h-1c-1.47,0-2.55.36-2.55,1.44C463.56,66.73,463.92,67.2,464.94,67.2Zm5.62.8V60.68h1.16V61.8a2.38,2.38,0,0,1,2.18-1.25,2.13,2.13,0,0,1,2.15,1.37,2.82,2.82,0,0,1,2.5-1.37c1.32,0,2.47.79,2.47,2.91V68h-1.17V63.38c0-1.29-.54-1.82-1.55-1.82a1.87,1.87,0,0,0-1.93,2V68h-1.16V63.38c0-1.29-.55-1.82-1.56-1.82a1.87,1.87,0,0,0-1.93,2V68Zm12.74,2.55V60.68h1.16v1.23a3,3,0,0,1,2.48-1.36c1.92,0,3.33,1.4,3.33,3.68v.12c0,2.24-1.32,3.78-3.33,3.78a2.79,2.79,0,0,1-2.48-1.33v3.75Zm3.53-3.39c1.45,0,2.24-1,2.24-2.76v-.11c0-1.85-1-2.77-2.26-2.77s-2.39.89-2.39,2.77v.11C484.42,66.28,485.4,67.16,486.83,67.16Zm5.27.84V57.18h1.18V68Zm6.56.13a3.45,3.45,0,0,1-3.55-3.71V64.3a3.45,3.45,0,0,1,3.43-3.75c1.7,0,3.29,1,3.29,3.64v.38h-5.51c.05,1.67.85,2.59,2.35,2.59,1.13,0,1.79-.42,1.95-1.27h1.16C501.53,67.36,500.31,68.13,498.66,68.13Zm-2.3-4.5h4.28c-.11-1.51-.89-2.11-2.1-2.11A2.19,2.19,0,0,0,496.36,63.63Zm8.05,4.44a.9.9,0,1,1,.9-.9A.9.9,0,0,1,504.41,68.07Zm6.19.06A3.49,3.49,0,0,1,507,64.42V64.3a3.56,3.56,0,0,1,3.56-3.75,2.88,2.88,0,0,1,3.18,2.56H512.6a1.82,1.82,0,0,0-2-1.59c-1.33,0-2.35,1.06-2.35,2.78v.12c0,1.79,1,2.74,2.39,2.74a2,2,0,0,0,2.1-1.79h1.08A3.06,3.06,0,0,1,510.6,68.13Zm8-1c1.47,0,2.4-1.11,2.4-2.76v-.1c0-1.69-.94-2.78-2.4-2.78s-2.39,1.09-2.39,2.77v.11C516.2,66.07,517.11,67.16,518.59,67.16Zm0,1A3.55,3.55,0,0,1,515,64.4v-.11a3.6,3.6,0,1,1,7.2,0v.11A3.54,3.54,0,0,1,518.58,68.13ZM524,68V60.68h1.16V61.8a2.37,2.37,0,0,1,2.18-1.25,2.11,2.11,0,0,1,2.14,1.37A2.85,2.85,0,0,1,532,60.55c1.32,0,2.46.79,2.46,2.91V68h-1.16V63.38c0-1.29-.54-1.82-1.55-1.82a1.87,1.87,0,0,0-1.93,2V68h-1.17V63.38c0-1.29-.54-1.82-1.55-1.82a1.87,1.87,0,0,0-1.93,2V68Z"/></g><g id="Group-5-7" data-name="Group-5"><rect id="Rectangle-9" data-name="Rectangle" class="cls-10" x="80.5" y="66.5" width="239" height="39" rx="8"/><path id="https:_www.yelp.com" data-name="https://www.yelp.com" class="cls-9" d="M94.18,91V80.18h1.16v4.66a2.5,2.5,0,0,1,2.35-1.29c1.51,0,2.58.83,2.58,3V91H99.1V86.42c0-1.29-.54-1.86-1.72-1.86a1.92,1.92,0,0,0-2,2V91Zm10.59.1a1.78,1.78,0,0,1-2-1.93V84.66h-1v-1h1V82H104v1.67h1.71v1H104v4.39c0,.72.32,1.07.91,1.07a2.34,2.34,0,0,0,.9-.16v1A2.65,2.65,0,0,1,104.77,91.1Zm5,0a1.78,1.78,0,0,1-2-1.93V84.66h-1v-1h1V82h1.16v1.67h1.71v1h-1.71v4.39c0,.72.32,1.07.91,1.07a2.34,2.34,0,0,0,.9-.16v1A2.65,2.65,0,0,1,109.74,91.1Zm2.75,2.45V83.68h1.16v1.23a3,3,0,0,1,2.48-1.36c1.92,0,3.33,1.4,3.33,3.68v.12c0,2.24-1.32,3.78-3.33,3.78a2.79,2.79,0,0,1-2.48-1.33v3.75ZM116,90.16c1.45,0,2.24-1,2.24-2.76v-.11c0-1.85-1-2.77-2.26-2.77s-2.39.89-2.39,2.77v.11C113.61,89.28,114.59,90.16,116,90.16Zm7.51,1c-1.75,0-2.8-.89-2.87-2.38h1.14c.08.86.54,1.41,1.72,1.41s1.6-.38,1.6-1.16-.58-1-1.71-1.23c-1.91-.35-2.55-.89-2.55-2.16a2.28,2.28,0,0,1,2.48-2.06A2.33,2.33,0,0,1,126,85.67h-1.12c-.16-.8-.61-1.15-1.54-1.15s-1.38.42-1.38,1,.36.92,1.71,1.16c1.51.28,2.57.62,2.57,2.17C126.22,90.23,125.31,91.13,123.53,91.13Zm5.32-.06a.9.9,0,1,1,.9-.9A.89.89,0,0,1,128.85,91.07Zm0-4.16a.9.9,0,0,1,0-1.79.9.9,0,1,1,0,1.79ZM131,93.07l4.08-12.93h1.06l-4.07,12.93Zm5.64,0,4.08-12.93h1.06l-4.07,12.93ZM144.83,91l-2.26-7.32h1.26l1.71,5.89,1.78-5.89h1L150,89.57l1.73-5.89h1.19L150.62,91h-1.28l-1.53-5.49L146.1,91Zm11.11,0-2.25-7.32H155l1.71,5.89,1.78-5.89h1l1.67,5.89,1.72-5.89H164L161.74,91h-1.29l-1.52-5.49L157.22,91Zm11.12,0-2.25-7.32h1.26l1.7,5.89,1.78-5.89h1l1.67,5.89L174,83.68h1.19L172.86,91h-1.29L170,85.51,168.33,91Zm10.44.07a.9.9,0,1,1,.9-.9A.89.89,0,0,1,177.5,91.07Zm3.81,2.48,1.39-3.31-2.87-6.56h1.24l2.24,5.25,2-5.25h1.19l-4,9.87Zm9.75-2.42a3.45,3.45,0,0,1-3.55-3.71V87.3a3.45,3.45,0,0,1,3.43-3.75c1.7,0,3.29,1,3.29,3.64v.38h-5.51c.05,1.67.85,2.59,2.35,2.59,1.13,0,1.79-.42,2-1.27h1.16C193.93,90.36,192.71,91.13,191.06,91.13Zm-2.3-4.5H193c-.11-1.51-.89-2.11-2.1-2.11A2.19,2.19,0,0,0,188.76,86.63ZM196,91V80.18h1.18V91Zm3.56,2.55V83.68h1.16v1.23a3,3,0,0,1,2.48-1.36c1.91,0,3.33,1.4,3.33,3.68v.12c0,2.24-1.32,3.78-3.33,3.78a2.79,2.79,0,0,1-2.48-1.33v3.75Zm3.52-3.39c1.46,0,2.24-1,2.24-2.76v-.11c0-1.85-1-2.77-2.25-2.77s-2.39.89-2.39,2.77v.11C200.72,89.28,201.7,90.16,203.12,90.16Zm6,.91a.9.9,0,1,1,.9-.9A.89.89,0,0,1,209.17,91.07Zm6.19.06a3.48,3.48,0,0,1-3.58-3.71V87.3a3.55,3.55,0,0,1,3.55-3.75,2.87,2.87,0,0,1,3.18,2.56h-1.15a1.82,1.82,0,0,0-2-1.59c-1.33,0-2.35,1.06-2.35,2.78v.12c0,1.79,1,2.74,2.39,2.74a2,2,0,0,0,2.1-1.79h1.08A3.06,3.06,0,0,1,215.36,91.13Zm8-1c1.47,0,2.4-1.11,2.4-2.76v-.1c0-1.69-.94-2.78-2.4-2.78S221,85.61,221,87.29v.11C221,89.07,221.87,90.16,223.35,90.16Zm0,1a3.54,3.54,0,0,1-3.58-3.73v-.11a3.6,3.6,0,1,1,7.19,0v.11A3.53,3.53,0,0,1,223.34,91.13Zm5.42-.13V83.68h1.16V84.8a2.38,2.38,0,0,1,2.18-1.25,2.13,2.13,0,0,1,2.15,1.37,2.82,2.82,0,0,1,2.5-1.37c1.32,0,2.47.79,2.47,2.91V91h-1.17V86.38c0-1.29-.54-1.82-1.55-1.82a1.87,1.87,0,0,0-1.93,2V91h-1.16V86.38c0-1.29-.55-1.82-1.56-1.82a1.87,1.87,0,0,0-1.93,2V91Z"/></g></g></g></svg>
